%FSLAX45Y45*%
G04 Gerber Fmt 4.5, Leading zero omitted, Abs format (unit mm)*
G04 Created by KiCad (PCBNEW 4.0.1-stable) date Monday, February 22, 2016 'PMt' 07:07:46 PM*
%MOMM*%
G01*
G04 APERTURE LIST*
%ADD10C,0.127000*%
%ADD11C,0.150000*%
%ADD12C,0.200000*%
%ADD13C,0.300000*%
G04 APERTURE END LIST*
D10*
D11*
X6096000Y-1270000D02*
X6096000Y-16510000D01*
X23876000Y-1270000D02*
X6096000Y-1270000D01*
X23876000Y-16510000D02*
X23876000Y-1270000D01*
X6096000Y-16510000D02*
X23876000Y-16510000D01*
D12*
X13619800Y-15728000D02*
X13659800Y-15768000D01*
X13659800Y-15728000D02*
X13619800Y-15768000D01*
X14305600Y-14484200D02*
X14345600Y-14524200D01*
X14345600Y-14484200D02*
X14305600Y-14524200D01*
X14331000Y-15474000D02*
X14371000Y-15514000D01*
X14371000Y-15474000D02*
X14331000Y-15514000D01*
X14458000Y-14381800D02*
X14498000Y-14421800D01*
X14498000Y-14381800D02*
X14458000Y-14421800D01*
X14585000Y-10698800D02*
X14625000Y-10738800D01*
X14625000Y-10698800D02*
X14585000Y-10738800D01*
X14762800Y-10800400D02*
X14802800Y-10840400D01*
X14802800Y-10800400D02*
X14762800Y-10840400D01*
X14966000Y-9886000D02*
X15006000Y-9926000D01*
X15006000Y-9886000D02*
X14966000Y-9926000D01*
X15067600Y-12527600D02*
X15107600Y-12567600D01*
X15107600Y-12527600D02*
X15067600Y-12567600D01*
X15220000Y-14254800D02*
X15260000Y-14294800D01*
X15260000Y-14254800D02*
X15220000Y-14294800D01*
X15372400Y-11918000D02*
X15412400Y-11958000D01*
X15412400Y-11918000D02*
X15372400Y-11958000D01*
X15372400Y-12197400D02*
X15412400Y-12237400D01*
X15412400Y-12197400D02*
X15372400Y-12237400D01*
X15372400Y-12527600D02*
X15412400Y-12567600D01*
X15412400Y-12527600D02*
X15372400Y-12567600D01*
X15372400Y-12756200D02*
X15412400Y-12796200D01*
X15412400Y-12756200D02*
X15372400Y-12796200D01*
X15372400Y-14356400D02*
X15412400Y-14396400D01*
X15412400Y-14356400D02*
X15372400Y-14396400D01*
X15372400Y-14610400D02*
X15412400Y-14650400D01*
X15412400Y-14610400D02*
X15372400Y-14650400D01*
X15499400Y-10292400D02*
X15539400Y-10332400D01*
X15539400Y-10292400D02*
X15499400Y-10332400D01*
X15524800Y-14407200D02*
X15564800Y-14447200D01*
X15564800Y-14407200D02*
X15524800Y-14447200D01*
X15601000Y-9403400D02*
X15641000Y-9443400D01*
X15641000Y-9403400D02*
X15601000Y-9443400D01*
X15626400Y-15245400D02*
X15666400Y-15285400D01*
X15666400Y-15245400D02*
X15626400Y-15285400D01*
X15677200Y-12629200D02*
X15717200Y-12669200D01*
X15717200Y-12629200D02*
X15677200Y-12669200D01*
X15753400Y-13950000D02*
X15793400Y-13990000D01*
X15793400Y-13950000D02*
X15753400Y-13990000D01*
X15829600Y-10597200D02*
X15869600Y-10637200D01*
X15869600Y-10597200D02*
X15829600Y-10637200D01*
X15956600Y-8870000D02*
X15996600Y-8910000D01*
X15996600Y-8870000D02*
X15956600Y-8910000D01*
X15982000Y-11232200D02*
X16022000Y-11272200D01*
X16022000Y-11232200D02*
X15982000Y-11272200D01*
X16083600Y-9047800D02*
X16123600Y-9087800D01*
X16123600Y-9047800D02*
X16083600Y-9087800D01*
X16185200Y-8184200D02*
X16225200Y-8224200D01*
X16225200Y-8184200D02*
X16185200Y-8224200D01*
X16261400Y-11181400D02*
X16301400Y-11221400D01*
X16301400Y-11181400D02*
X16261400Y-11221400D01*
X16312200Y-14077000D02*
X16352200Y-14117000D01*
X16352200Y-14077000D02*
X16312200Y-14117000D01*
X16363000Y-10419400D02*
X16403000Y-10459400D01*
X16403000Y-10419400D02*
X16363000Y-10459400D01*
X16667800Y-5339400D02*
X16707800Y-5379400D01*
X16707800Y-5339400D02*
X16667800Y-5379400D01*
X16744000Y-10800400D02*
X16784000Y-10840400D01*
X16784000Y-10800400D02*
X16744000Y-10840400D01*
X16820200Y-5415600D02*
X16860200Y-5455600D01*
X16860200Y-5415600D02*
X16820200Y-5455600D01*
X16921800Y-13975400D02*
X16961800Y-14015400D01*
X16961800Y-13975400D02*
X16921800Y-14015400D01*
X17099600Y-14077000D02*
X17139600Y-14117000D01*
X17139600Y-14077000D02*
X17099600Y-14117000D01*
X17150400Y-5085400D02*
X17190400Y-5125400D01*
X17190400Y-5085400D02*
X17150400Y-5125400D01*
X17810800Y-15093000D02*
X17850800Y-15133000D01*
X17850800Y-15093000D02*
X17810800Y-15133000D01*
X18014000Y-15093000D02*
X18054000Y-15133000D01*
X18054000Y-15093000D02*
X18014000Y-15133000D01*
X18598200Y-15575600D02*
X18638200Y-15615600D01*
X18638200Y-15575600D02*
X18598200Y-15615600D01*
X19665000Y-2570800D02*
X19705000Y-2610800D01*
X19705000Y-2570800D02*
X19665000Y-2610800D01*
X11390000Y-2300000D02*
G75*
G03X11390000Y-2300000I-40000J0D01*
G01*
X11390000Y-3100000D02*
G75*
G03X11390000Y-3100000I-40000J0D01*
G01*
X11640000Y-2300000D02*
G75*
G03X11640000Y-2300000I-40000J0D01*
G01*
X11640000Y-3100000D02*
G75*
G03X11640000Y-3100000I-40000J0D01*
G01*
X12054200Y-10414000D02*
G75*
G03X12054200Y-10414000I-40000J0D01*
G01*
X12054200Y-11176000D02*
G75*
G03X12054200Y-11176000I-40000J0D01*
G01*
X12232000Y-6731000D02*
G75*
G03X12232000Y-6731000I-40000J0D01*
G01*
X12232000Y-6981000D02*
G75*
G03X12232000Y-6981000I-40000J0D01*
G01*
X12308200Y-10414000D02*
G75*
G03X12308200Y-10414000I-40000J0D01*
G01*
X12308200Y-11176000D02*
G75*
G03X12308200Y-11176000I-40000J0D01*
G01*
X12562200Y-10414000D02*
G75*
G03X12562200Y-10414000I-40000J0D01*
G01*
X12562200Y-11176000D02*
G75*
G03X12562200Y-11176000I-40000J0D01*
G01*
X12816200Y-10414000D02*
G75*
G03X12816200Y-10414000I-40000J0D01*
G01*
X12816200Y-11176000D02*
G75*
G03X12816200Y-11176000I-40000J0D01*
G01*
X13070200Y-10414000D02*
G75*
G03X13070200Y-10414000I-40000J0D01*
G01*
X13070200Y-11176000D02*
G75*
G03X13070200Y-11176000I-40000J0D01*
G01*
X13248000Y-6731000D02*
G75*
G03X13248000Y-6731000I-40000J0D01*
G01*
X13248000Y-6981000D02*
G75*
G03X13248000Y-6981000I-40000J0D01*
G01*
X14111600Y-10414000D02*
G75*
G03X14111600Y-10414000I-40000J0D01*
G01*
X14111600Y-11176000D02*
G75*
G03X14111600Y-11176000I-40000J0D01*
G01*
X14264000Y-6731000D02*
G75*
G03X14264000Y-6731000I-40000J0D01*
G01*
X14264000Y-6981000D02*
G75*
G03X14264000Y-6981000I-40000J0D01*
G01*
X14365600Y-10414000D02*
G75*
G03X14365600Y-10414000I-40000J0D01*
G01*
X14365600Y-11176000D02*
G75*
G03X14365600Y-11176000I-40000J0D01*
G01*
X14518000Y-12649200D02*
G75*
G03X14518000Y-12649200I-40000J0D01*
G01*
X14518000Y-12903200D02*
G75*
G03X14518000Y-12903200I-40000J0D01*
G01*
X14518000Y-13157200D02*
G75*
G03X14518000Y-13157200I-40000J0D01*
G01*
X14518000Y-13411200D02*
G75*
G03X14518000Y-13411200I-40000J0D01*
G01*
X14518000Y-13665200D02*
G75*
G03X14518000Y-13665200I-40000J0D01*
G01*
X14518000Y-15113000D02*
G75*
G03X14518000Y-15113000I-40000J0D01*
G01*
X14518000Y-15367000D02*
G75*
G03X14518000Y-15367000I-40000J0D01*
G01*
X14518000Y-15621000D02*
G75*
G03X14518000Y-15621000I-40000J0D01*
G01*
X14518000Y-15875000D02*
G75*
G03X14518000Y-15875000I-40000J0D01*
G01*
X14518000Y-16129000D02*
G75*
G03X14518000Y-16129000I-40000J0D01*
G01*
X14619600Y-10414000D02*
G75*
G03X14619600Y-10414000I-40000J0D01*
G01*
X14619600Y-11176000D02*
G75*
G03X14619600Y-11176000I-40000J0D01*
G01*
X14873600Y-10414000D02*
G75*
G03X14873600Y-10414000I-40000J0D01*
G01*
X14873600Y-11176000D02*
G75*
G03X14873600Y-11176000I-40000J0D01*
G01*
X15127600Y-10414000D02*
G75*
G03X15127600Y-10414000I-40000J0D01*
G01*
X15127600Y-11176000D02*
G75*
G03X15127600Y-11176000I-40000J0D01*
G01*
X15280000Y-6731000D02*
G75*
G03X15280000Y-6731000I-40000J0D01*
G01*
X15280000Y-6981000D02*
G75*
G03X15280000Y-6981000I-40000J0D01*
G01*
X15280000Y-12649200D02*
G75*
G03X15280000Y-12649200I-40000J0D01*
G01*
X15280000Y-12903200D02*
G75*
G03X15280000Y-12903200I-40000J0D01*
G01*
X15280000Y-13157200D02*
G75*
G03X15280000Y-13157200I-40000J0D01*
G01*
X15280000Y-13411200D02*
G75*
G03X15280000Y-13411200I-40000J0D01*
G01*
X15280000Y-13665200D02*
G75*
G03X15280000Y-13665200I-40000J0D01*
G01*
X15280000Y-15113000D02*
G75*
G03X15280000Y-15113000I-40000J0D01*
G01*
X15280000Y-15367000D02*
G75*
G03X15280000Y-15367000I-40000J0D01*
G01*
X15280000Y-15621000D02*
G75*
G03X15280000Y-15621000I-40000J0D01*
G01*
X15280000Y-15875000D02*
G75*
G03X15280000Y-15875000I-40000J0D01*
G01*
X15280000Y-16129000D02*
G75*
G03X15280000Y-16129000I-40000J0D01*
G01*
X16219800Y-15468600D02*
G75*
G03X16219800Y-15468600I-40000J0D01*
G01*
X16219800Y-16230600D02*
G75*
G03X16219800Y-16230600I-40000J0D01*
G01*
X16473800Y-15468600D02*
G75*
G03X16473800Y-15468600I-40000J0D01*
G01*
X16473800Y-16230600D02*
G75*
G03X16473800Y-16230600I-40000J0D01*
G01*
X16727800Y-15468600D02*
G75*
G03X16727800Y-15468600I-40000J0D01*
G01*
X16727800Y-16230600D02*
G75*
G03X16727800Y-16230600I-40000J0D01*
G01*
X16981800Y-15468600D02*
G75*
G03X16981800Y-15468600I-40000J0D01*
G01*
X16981800Y-16230600D02*
G75*
G03X16981800Y-16230600I-40000J0D01*
G01*
X17235800Y-15468600D02*
G75*
G03X17235800Y-15468600I-40000J0D01*
G01*
X17235800Y-16230600D02*
G75*
G03X17235800Y-16230600I-40000J0D01*
G01*
X17489800Y-15468600D02*
G75*
G03X17489800Y-15468600I-40000J0D01*
G01*
X17489800Y-16230600D02*
G75*
G03X17489800Y-16230600I-40000J0D01*
G01*
X17743800Y-15468600D02*
G75*
G03X17743800Y-15468600I-40000J0D01*
G01*
X17743800Y-16230600D02*
G75*
G03X17743800Y-16230600I-40000J0D01*
G01*
X17997800Y-15468600D02*
G75*
G03X17997800Y-15468600I-40000J0D01*
G01*
X17997800Y-16230600D02*
G75*
G03X17997800Y-16230600I-40000J0D01*
G01*
X18251800Y-15468600D02*
G75*
G03X18251800Y-15468600I-40000J0D01*
G01*
X18251800Y-16230600D02*
G75*
G03X18251800Y-16230600I-40000J0D01*
G01*
X10892000Y-4559360D02*
X10892000Y-4640640D01*
X10851360Y-4600000D02*
X10932640Y-4600000D01*
X11146000Y-4559360D02*
X11146000Y-4640640D01*
X11105360Y-4600000D02*
X11186640Y-4600000D01*
X11400000Y-4559360D02*
X11400000Y-4640640D01*
X11359360Y-4600000D02*
X11440640Y-4600000D01*
X17550000Y-6908160D02*
X17550000Y-6989440D01*
X17509360Y-6948800D02*
X17590640Y-6948800D01*
X17550000Y-7162160D02*
X17550000Y-7243440D01*
X17509360Y-7202800D02*
X17590640Y-7202800D01*
X17550000Y-7416160D02*
X17550000Y-7497440D01*
X17509360Y-7456800D02*
X17590640Y-7456800D01*
X17550000Y-7670160D02*
X17550000Y-7751440D01*
X17509360Y-7710800D02*
X17590640Y-7710800D01*
X17550000Y-7924160D02*
X17550000Y-8005440D01*
X17509360Y-7964800D02*
X17590640Y-7964800D01*
X17550000Y-8178160D02*
X17550000Y-8259440D01*
X17509360Y-8218800D02*
X17590640Y-8218800D01*
X17550000Y-8686160D02*
X17550000Y-8767440D01*
X17509360Y-8726800D02*
X17590640Y-8726800D01*
X17550000Y-8940160D02*
X17550000Y-9021440D01*
X17509360Y-8980800D02*
X17590640Y-8980800D01*
X17550000Y-9194160D02*
X17550000Y-9275440D01*
X17509360Y-9234800D02*
X17590640Y-9234800D01*
X17550000Y-9448160D02*
X17550000Y-9529440D01*
X17509360Y-9488800D02*
X17590640Y-9488800D01*
X17550000Y-9702160D02*
X17550000Y-9783440D01*
X17509360Y-9742800D02*
X17590640Y-9742800D01*
X17550000Y-9956160D02*
X17550000Y-10037440D01*
X17509360Y-9996800D02*
X17590640Y-9996800D01*
X17550000Y-10210160D02*
X17550000Y-10291440D01*
X17509360Y-10250800D02*
X17590640Y-10250800D01*
X17550000Y-10464160D02*
X17550000Y-10545440D01*
X17509360Y-10504800D02*
X17590640Y-10504800D01*
X17550000Y-10972160D02*
X17550000Y-11053440D01*
X17509360Y-11012800D02*
X17590640Y-11012800D01*
X17550000Y-11226160D02*
X17550000Y-11307440D01*
X17509360Y-11266800D02*
X17590640Y-11266800D01*
X17550000Y-11480160D02*
X17550000Y-11561440D01*
X17509360Y-11520800D02*
X17590640Y-11520800D01*
X17550000Y-11734160D02*
X17550000Y-11815440D01*
X17509360Y-11774800D02*
X17590640Y-11774800D01*
X17550000Y-11988160D02*
X17550000Y-12069440D01*
X17509360Y-12028800D02*
X17590640Y-12028800D01*
X17550000Y-12242160D02*
X17550000Y-12323440D01*
X17509360Y-12282800D02*
X17590640Y-12282800D01*
X17550000Y-12496160D02*
X17550000Y-12577440D01*
X17509360Y-12536800D02*
X17590640Y-12536800D01*
X17550000Y-12750160D02*
X17550000Y-12831440D01*
X17509360Y-12790800D02*
X17590640Y-12790800D01*
X18058000Y-13004160D02*
X18058000Y-13085440D01*
X18017360Y-13044800D02*
X18098640Y-13044800D01*
X18058000Y-13258160D02*
X18058000Y-13339440D01*
X18017360Y-13298800D02*
X18098640Y-13298800D01*
X18312000Y-13004160D02*
X18312000Y-13085440D01*
X18271360Y-13044800D02*
X18352640Y-13044800D01*
X18312000Y-13258160D02*
X18312000Y-13339440D01*
X18271360Y-13298800D02*
X18352640Y-13298800D01*
X18566000Y-13004160D02*
X18566000Y-13085440D01*
X18525360Y-13044800D02*
X18606640Y-13044800D01*
X18566000Y-13258160D02*
X18566000Y-13339440D01*
X18525360Y-13298800D02*
X18606640Y-13298800D01*
X18820000Y-13004160D02*
X18820000Y-13085440D01*
X18779360Y-13044800D02*
X18860640Y-13044800D01*
X18820000Y-13258160D02*
X18820000Y-13339440D01*
X18779360Y-13298800D02*
X18860640Y-13298800D01*
X19074000Y-13004160D02*
X19074000Y-13085440D01*
X19033360Y-13044800D02*
X19114640Y-13044800D01*
X19074000Y-13258160D02*
X19074000Y-13339440D01*
X19033360Y-13298800D02*
X19114640Y-13298800D01*
X19328000Y-13004160D02*
X19328000Y-13085440D01*
X19287360Y-13044800D02*
X19368640Y-13044800D01*
X19328000Y-13258160D02*
X19328000Y-13339440D01*
X19287360Y-13298800D02*
X19368640Y-13298800D01*
X19582000Y-13004160D02*
X19582000Y-13085440D01*
X19541360Y-13044800D02*
X19622640Y-13044800D01*
X19582000Y-13258160D02*
X19582000Y-13339440D01*
X19541360Y-13298800D02*
X19622640Y-13298800D01*
X19836000Y-13004160D02*
X19836000Y-13085440D01*
X19795360Y-13044800D02*
X19876640Y-13044800D01*
X19836000Y-13258160D02*
X19836000Y-13339440D01*
X19795360Y-13298800D02*
X19876640Y-13298800D01*
X19913600Y-15580360D02*
X19913600Y-15661640D01*
X19872960Y-15621000D02*
X19954240Y-15621000D01*
X19913600Y-16088360D02*
X19913600Y-16169640D01*
X19872960Y-16129000D02*
X19954240Y-16129000D01*
X20090000Y-13004160D02*
X20090000Y-13085440D01*
X20049360Y-13044800D02*
X20130640Y-13044800D01*
X20090000Y-13258160D02*
X20090000Y-13339440D01*
X20049360Y-13298800D02*
X20130640Y-13298800D01*
X20167600Y-15580360D02*
X20167600Y-15661640D01*
X20126960Y-15621000D02*
X20208240Y-15621000D01*
X20167600Y-16088360D02*
X20167600Y-16169640D01*
X20126960Y-16129000D02*
X20208240Y-16129000D01*
X20344000Y-13004160D02*
X20344000Y-13085440D01*
X20303360Y-13044800D02*
X20384640Y-13044800D01*
X20344000Y-13258160D02*
X20344000Y-13339440D01*
X20303360Y-13298800D02*
X20384640Y-13298800D01*
X20598000Y-13004160D02*
X20598000Y-13085440D01*
X20557360Y-13044800D02*
X20638640Y-13044800D01*
X20598000Y-13258160D02*
X20598000Y-13339440D01*
X20557360Y-13298800D02*
X20638640Y-13298800D01*
X20852000Y-13004160D02*
X20852000Y-13085440D01*
X20811360Y-13044800D02*
X20892640Y-13044800D01*
X20852000Y-13258160D02*
X20852000Y-13339440D01*
X20811360Y-13298800D02*
X20892640Y-13298800D01*
X20929600Y-15580360D02*
X20929600Y-15661640D01*
X20888960Y-15621000D02*
X20970240Y-15621000D01*
X20929600Y-16088360D02*
X20929600Y-16169640D01*
X20888960Y-16129000D02*
X20970240Y-16129000D01*
X21106000Y-13004160D02*
X21106000Y-13085440D01*
X21065360Y-13044800D02*
X21146640Y-13044800D01*
X21106000Y-13258160D02*
X21106000Y-13339440D01*
X21065360Y-13298800D02*
X21146640Y-13298800D01*
X21360000Y-13004160D02*
X21360000Y-13085440D01*
X21319360Y-13044800D02*
X21400640Y-13044800D01*
X21360000Y-13258160D02*
X21360000Y-13339440D01*
X21319360Y-13298800D02*
X21400640Y-13298800D01*
X21614000Y-13004160D02*
X21614000Y-13085440D01*
X21573360Y-13044800D02*
X21654640Y-13044800D01*
X21614000Y-13258160D02*
X21614000Y-13339440D01*
X21573360Y-13298800D02*
X21654640Y-13298800D01*
X21868000Y-13004160D02*
X21868000Y-13085440D01*
X21827360Y-13044800D02*
X21908640Y-13044800D01*
X21868000Y-13258160D02*
X21868000Y-13339440D01*
X21827360Y-13298800D02*
X21908640Y-13298800D01*
X22122000Y-13004160D02*
X22122000Y-13085440D01*
X22081360Y-13044800D02*
X22162640Y-13044800D01*
X22122000Y-13258160D02*
X22122000Y-13339440D01*
X22081360Y-13298800D02*
X22162640Y-13298800D01*
X22123400Y-15580360D02*
X22123400Y-15661640D01*
X22082760Y-15621000D02*
X22164040Y-15621000D01*
X22123400Y-16088360D02*
X22123400Y-16169640D01*
X22082760Y-16129000D02*
X22164040Y-16129000D01*
X22376000Y-5993760D02*
X22376000Y-6075040D01*
X22335360Y-6034400D02*
X22416640Y-6034400D01*
X22376000Y-6247760D02*
X22376000Y-6329040D01*
X22335360Y-6288400D02*
X22416640Y-6288400D01*
X22376000Y-6501760D02*
X22376000Y-6583040D01*
X22335360Y-6542400D02*
X22416640Y-6542400D01*
X22376000Y-6755760D02*
X22376000Y-6837040D01*
X22335360Y-6796400D02*
X22416640Y-6796400D01*
X22376000Y-7009760D02*
X22376000Y-7091040D01*
X22335360Y-7050400D02*
X22416640Y-7050400D01*
X22376000Y-7263760D02*
X22376000Y-7345040D01*
X22335360Y-7304400D02*
X22416640Y-7304400D01*
X22376000Y-7517760D02*
X22376000Y-7599040D01*
X22335360Y-7558400D02*
X22416640Y-7558400D01*
X22376000Y-7771760D02*
X22376000Y-7853040D01*
X22335360Y-7812400D02*
X22416640Y-7812400D01*
X22376000Y-8178160D02*
X22376000Y-8259440D01*
X22335360Y-8218800D02*
X22416640Y-8218800D01*
X22376000Y-8432160D02*
X22376000Y-8513440D01*
X22335360Y-8472800D02*
X22416640Y-8472800D01*
X22376000Y-8686160D02*
X22376000Y-8767440D01*
X22335360Y-8726800D02*
X22416640Y-8726800D01*
X22376000Y-8940160D02*
X22376000Y-9021440D01*
X22335360Y-8980800D02*
X22416640Y-8980800D01*
X22376000Y-9194160D02*
X22376000Y-9275440D01*
X22335360Y-9234800D02*
X22416640Y-9234800D01*
X22376000Y-9448160D02*
X22376000Y-9529440D01*
X22335360Y-9488800D02*
X22416640Y-9488800D01*
X22376000Y-9702160D02*
X22376000Y-9783440D01*
X22335360Y-9742800D02*
X22416640Y-9742800D01*
X22376000Y-9956160D02*
X22376000Y-10037440D01*
X22335360Y-9996800D02*
X22416640Y-9996800D01*
X22376000Y-10464160D02*
X22376000Y-10545440D01*
X22335360Y-10504800D02*
X22416640Y-10504800D01*
X22376000Y-10718160D02*
X22376000Y-10799440D01*
X22335360Y-10758800D02*
X22416640Y-10758800D01*
X22376000Y-10972160D02*
X22376000Y-11053440D01*
X22335360Y-11012800D02*
X22416640Y-11012800D01*
X22376000Y-11226160D02*
X22376000Y-11307440D01*
X22335360Y-11266800D02*
X22416640Y-11266800D01*
X22376000Y-11480160D02*
X22376000Y-11561440D01*
X22335360Y-11520800D02*
X22416640Y-11520800D01*
X22376000Y-11734160D02*
X22376000Y-11815440D01*
X22335360Y-11774800D02*
X22416640Y-11774800D01*
X22376000Y-11988160D02*
X22376000Y-12069440D01*
X22335360Y-12028800D02*
X22416640Y-12028800D01*
X22376000Y-12242160D02*
X22376000Y-12323440D01*
X22335360Y-12282800D02*
X22416640Y-12282800D01*
X22376000Y-13004160D02*
X22376000Y-13085440D01*
X22335360Y-13044800D02*
X22416640Y-13044800D01*
X22376000Y-13258160D02*
X22376000Y-13339440D01*
X22335360Y-13298800D02*
X22416640Y-13298800D01*
X22377400Y-15580360D02*
X22377400Y-15661640D01*
X22336760Y-15621000D02*
X22418040Y-15621000D01*
X22377400Y-16088360D02*
X22377400Y-16169640D01*
X22336760Y-16129000D02*
X22418040Y-16129000D01*
X23139400Y-15580360D02*
X23139400Y-15661640D01*
X23098760Y-15621000D02*
X23180040Y-15621000D01*
X23139400Y-16088360D02*
X23139400Y-16169640D01*
X23098760Y-16129000D02*
X23180040Y-16129000D01*
X19412020Y-15678220D02*
X19412020Y-15614580D01*
X19348380Y-15614580D01*
X19348380Y-15678220D01*
X19412020Y-15678220D01*
X19412020Y-16178220D02*
X19412020Y-16114580D01*
X19348380Y-16114580D01*
X19348380Y-16178220D01*
X19412020Y-16178220D01*
X21596420Y-15678220D02*
X21596420Y-15614580D01*
X21532780Y-15614580D01*
X21532780Y-15678220D01*
X21596420Y-15678220D01*
X21596420Y-16178220D02*
X21596420Y-16114580D01*
X21532780Y-16114580D01*
X21532780Y-16178220D01*
X21596420Y-16178220D01*
X10146000Y-3950038D02*
X10196038Y-3900000D01*
X10146000Y-3849962D01*
X10095962Y-3900000D01*
X10146000Y-3950038D01*
X10400000Y-3950038D02*
X10450038Y-3900000D01*
X10400000Y-3849962D01*
X10349962Y-3900000D01*
X10400000Y-3950038D01*
X10654000Y-3950038D02*
X10704038Y-3900000D01*
X10654000Y-3849962D01*
X10603962Y-3900000D01*
X10654000Y-3950038D01*
X11292000Y-3950038D02*
X11342038Y-3900000D01*
X11292000Y-3849962D01*
X11241962Y-3900000D01*
X11292000Y-3950038D01*
X11480800Y-12496038D02*
X11530838Y-12446000D01*
X11480800Y-12395962D01*
X11430762Y-12446000D01*
X11480800Y-12496038D01*
X11506200Y-14578838D02*
X11556238Y-14528800D01*
X11506200Y-14478762D01*
X11456162Y-14528800D01*
X11506200Y-14578838D01*
X12308000Y-3950038D02*
X12358038Y-3900000D01*
X12308000Y-3849962D01*
X12257962Y-3900000D01*
X12308000Y-3950038D01*
X12496800Y-12496038D02*
X12546838Y-12446000D01*
X12496800Y-12395962D01*
X12446762Y-12446000D01*
X12496800Y-12496038D01*
X12522200Y-14578838D02*
X12572238Y-14528800D01*
X12522200Y-14478762D01*
X12472162Y-14528800D01*
X12522200Y-14578838D01*
X19532600Y-15315438D02*
X19582638Y-15265400D01*
X19532600Y-15215362D01*
X19482562Y-15265400D01*
X19532600Y-15315438D01*
X20066000Y-2082038D02*
X20116038Y-2032000D01*
X20066000Y-1981962D01*
X20015962Y-2032000D01*
X20066000Y-2082038D01*
X20320000Y-2082038D02*
X20370038Y-2032000D01*
X20320000Y-1981962D01*
X20269962Y-2032000D01*
X20320000Y-2082038D01*
X20548600Y-15315438D02*
X20598638Y-15265400D01*
X20548600Y-15215362D01*
X20498562Y-15265400D01*
X20548600Y-15315438D01*
X21082000Y-2082038D02*
X21132038Y-2032000D01*
X21082000Y-1981962D01*
X21031962Y-2032000D01*
X21082000Y-2082038D01*
X21336000Y-2082038D02*
X21386038Y-2032000D01*
X21336000Y-1981962D01*
X21285962Y-2032000D01*
X21336000Y-2082038D01*
X21742400Y-15315438D02*
X21792438Y-15265400D01*
X21742400Y-15215362D01*
X21692362Y-15265400D01*
X21742400Y-15315438D01*
X22098000Y-2082038D02*
X22148038Y-2032000D01*
X22098000Y-1981962D01*
X22047962Y-2032000D01*
X22098000Y-2082038D01*
X22352000Y-2082038D02*
X22402038Y-2032000D01*
X22352000Y-1981962D01*
X22301962Y-2032000D01*
X22352000Y-2082038D01*
X22758400Y-15315438D02*
X22808438Y-15265400D01*
X22758400Y-15215362D01*
X22708362Y-15265400D01*
X22758400Y-15315438D01*
X16357600Y-11785600D02*
X16459200Y-11887200D01*
X16459200Y-11785600D02*
X16357600Y-11887200D01*
X16459200Y-11836400D02*
G75*
G03X16459200Y-11836400I-50800J0D01*
G01*
X16357600Y-12039600D02*
X16459200Y-12141200D01*
X16459200Y-12039600D02*
X16357600Y-12141200D01*
X16459200Y-12090400D02*
G75*
G03X16459200Y-12090400I-50800J0D01*
G01*
X16357600Y-12293600D02*
X16459200Y-12395200D01*
X16459200Y-12293600D02*
X16357600Y-12395200D01*
X16459200Y-12344400D02*
G75*
G03X16459200Y-12344400I-50800J0D01*
G01*
X16433800Y-14274800D02*
X16535400Y-14376400D01*
X16535400Y-14274800D02*
X16433800Y-14376400D01*
X16535400Y-14325600D02*
G75*
G03X16535400Y-14325600I-50800J0D01*
G01*
X16433800Y-14655800D02*
X16535400Y-14757400D01*
X16535400Y-14655800D02*
X16433800Y-14757400D01*
X16535400Y-14706600D02*
G75*
G03X16535400Y-14706600I-50800J0D01*
G01*
X16687800Y-14274800D02*
X16789400Y-14376400D01*
X16789400Y-14274800D02*
X16687800Y-14376400D01*
X16789400Y-14325600D02*
G75*
G03X16789400Y-14325600I-50800J0D01*
G01*
X16687800Y-14655800D02*
X16789400Y-14757400D01*
X16789400Y-14655800D02*
X16687800Y-14757400D01*
X16789400Y-14706600D02*
G75*
G03X16789400Y-14706600I-50800J0D01*
G01*
X16713200Y-4013200D02*
X16814800Y-4114800D01*
X16814800Y-4013200D02*
X16713200Y-4114800D01*
X16814800Y-4064000D02*
G75*
G03X16814800Y-4064000I-50800J0D01*
G01*
X16915000Y-8853800D02*
X17016600Y-8955400D01*
X17016600Y-8853800D02*
X16915000Y-8955400D01*
X17016600Y-8904600D02*
G75*
G03X17016600Y-8904600I-50800J0D01*
G01*
X16915000Y-9107800D02*
X17016600Y-9209400D01*
X17016600Y-9107800D02*
X16915000Y-9209400D01*
X17016600Y-9158600D02*
G75*
G03X17016600Y-9158600I-50800J0D01*
G01*
X16915000Y-9361800D02*
X17016600Y-9463400D01*
X17016600Y-9361800D02*
X16915000Y-9463400D01*
X17016600Y-9412600D02*
G75*
G03X17016600Y-9412600I-50800J0D01*
G01*
X16915000Y-9615800D02*
X17016600Y-9717400D01*
X17016600Y-9615800D02*
X16915000Y-9717400D01*
X17016600Y-9666600D02*
G75*
G03X17016600Y-9666600I-50800J0D01*
G01*
X16915000Y-9869800D02*
X17016600Y-9971400D01*
X17016600Y-9869800D02*
X16915000Y-9971400D01*
X17016600Y-9920600D02*
G75*
G03X17016600Y-9920600I-50800J0D01*
G01*
X16915000Y-10123800D02*
X17016600Y-10225400D01*
X17016600Y-10123800D02*
X16915000Y-10225400D01*
X17016600Y-10174600D02*
G75*
G03X17016600Y-10174600I-50800J0D01*
G01*
X16915000Y-10377800D02*
X17016600Y-10479400D01*
X17016600Y-10377800D02*
X16915000Y-10479400D01*
X17016600Y-10428600D02*
G75*
G03X17016600Y-10428600I-50800J0D01*
G01*
X16915000Y-10631800D02*
X17016600Y-10733400D01*
X17016600Y-10631800D02*
X16915000Y-10733400D01*
X17016600Y-10682600D02*
G75*
G03X17016600Y-10682600I-50800J0D01*
G01*
X16915000Y-10885800D02*
X17016600Y-10987400D01*
X17016600Y-10885800D02*
X16915000Y-10987400D01*
X17016600Y-10936600D02*
G75*
G03X17016600Y-10936600I-50800J0D01*
G01*
X16915000Y-11139800D02*
X17016600Y-11241400D01*
X17016600Y-11139800D02*
X16915000Y-11241400D01*
X17016600Y-11190600D02*
G75*
G03X17016600Y-11190600I-50800J0D01*
G01*
X16915000Y-11393800D02*
X17016600Y-11495400D01*
X17016600Y-11393800D02*
X16915000Y-11495400D01*
X17016600Y-11444600D02*
G75*
G03X17016600Y-11444600I-50800J0D01*
G01*
X16915000Y-11647800D02*
X17016600Y-11749400D01*
X17016600Y-11647800D02*
X16915000Y-11749400D01*
X17016600Y-11698600D02*
G75*
G03X17016600Y-11698600I-50800J0D01*
G01*
X16915000Y-11901800D02*
X17016600Y-12003400D01*
X17016600Y-11901800D02*
X16915000Y-12003400D01*
X17016600Y-11952600D02*
G75*
G03X17016600Y-11952600I-50800J0D01*
G01*
X16915000Y-12155800D02*
X17016600Y-12257400D01*
X17016600Y-12155800D02*
X16915000Y-12257400D01*
X17016600Y-12206600D02*
G75*
G03X17016600Y-12206600I-50800J0D01*
G01*
X16915000Y-12409800D02*
X17016600Y-12511400D01*
X17016600Y-12409800D02*
X16915000Y-12511400D01*
X17016600Y-12460600D02*
G75*
G03X17016600Y-12460600I-50800J0D01*
G01*
X16915000Y-12663800D02*
X17016600Y-12765400D01*
X17016600Y-12663800D02*
X16915000Y-12765400D01*
X17016600Y-12714600D02*
G75*
G03X17016600Y-12714600I-50800J0D01*
G01*
X16915000Y-12917800D02*
X17016600Y-13019400D01*
X17016600Y-12917800D02*
X16915000Y-13019400D01*
X17016600Y-12968600D02*
G75*
G03X17016600Y-12968600I-50800J0D01*
G01*
X16915000Y-13171800D02*
X17016600Y-13273400D01*
X17016600Y-13171800D02*
X16915000Y-13273400D01*
X17016600Y-13222600D02*
G75*
G03X17016600Y-13222600I-50800J0D01*
G01*
X16915000Y-13425800D02*
X17016600Y-13527400D01*
X17016600Y-13425800D02*
X16915000Y-13527400D01*
X17016600Y-13476600D02*
G75*
G03X17016600Y-13476600I-50800J0D01*
G01*
X16915000Y-13679800D02*
X17016600Y-13781400D01*
X17016600Y-13679800D02*
X16915000Y-13781400D01*
X17016600Y-13730600D02*
G75*
G03X17016600Y-13730600I-50800J0D01*
G01*
X16941800Y-14274800D02*
X17043400Y-14376400D01*
X17043400Y-14274800D02*
X16941800Y-14376400D01*
X17043400Y-14325600D02*
G75*
G03X17043400Y-14325600I-50800J0D01*
G01*
X16941800Y-14655800D02*
X17043400Y-14757400D01*
X17043400Y-14655800D02*
X16941800Y-14757400D01*
X17043400Y-14706600D02*
G75*
G03X17043400Y-14706600I-50800J0D01*
G01*
X16967200Y-3251200D02*
X17068800Y-3352800D01*
X17068800Y-3251200D02*
X16967200Y-3352800D01*
X17068800Y-3302000D02*
G75*
G03X17068800Y-3302000I-50800J0D01*
G01*
X16967200Y-4013200D02*
X17068800Y-4114800D01*
X17068800Y-4013200D02*
X16967200Y-4114800D01*
X17068800Y-4064000D02*
G75*
G03X17068800Y-4064000I-50800J0D01*
G01*
X17169000Y-8853800D02*
X17270600Y-8955400D01*
X17270600Y-8853800D02*
X17169000Y-8955400D01*
X17270600Y-8904600D02*
G75*
G03X17270600Y-8904600I-50800J0D01*
G01*
X17169000Y-9107800D02*
X17270600Y-9209400D01*
X17270600Y-9107800D02*
X17169000Y-9209400D01*
X17270600Y-9158600D02*
G75*
G03X17270600Y-9158600I-50800J0D01*
G01*
X17169000Y-9361800D02*
X17270600Y-9463400D01*
X17270600Y-9361800D02*
X17169000Y-9463400D01*
X17270600Y-9412600D02*
G75*
G03X17270600Y-9412600I-50800J0D01*
G01*
X17169000Y-9615800D02*
X17270600Y-9717400D01*
X17270600Y-9615800D02*
X17169000Y-9717400D01*
X17270600Y-9666600D02*
G75*
G03X17270600Y-9666600I-50800J0D01*
G01*
X17169000Y-9869800D02*
X17270600Y-9971400D01*
X17270600Y-9869800D02*
X17169000Y-9971400D01*
X17270600Y-9920600D02*
G75*
G03X17270600Y-9920600I-50800J0D01*
G01*
X17169000Y-10123800D02*
X17270600Y-10225400D01*
X17270600Y-10123800D02*
X17169000Y-10225400D01*
X17270600Y-10174600D02*
G75*
G03X17270600Y-10174600I-50800J0D01*
G01*
X17169000Y-10377800D02*
X17270600Y-10479400D01*
X17270600Y-10377800D02*
X17169000Y-10479400D01*
X17270600Y-10428600D02*
G75*
G03X17270600Y-10428600I-50800J0D01*
G01*
X17169000Y-10631800D02*
X17270600Y-10733400D01*
X17270600Y-10631800D02*
X17169000Y-10733400D01*
X17270600Y-10682600D02*
G75*
G03X17270600Y-10682600I-50800J0D01*
G01*
X17169000Y-10885800D02*
X17270600Y-10987400D01*
X17270600Y-10885800D02*
X17169000Y-10987400D01*
X17270600Y-10936600D02*
G75*
G03X17270600Y-10936600I-50800J0D01*
G01*
X17169000Y-11139800D02*
X17270600Y-11241400D01*
X17270600Y-11139800D02*
X17169000Y-11241400D01*
X17270600Y-11190600D02*
G75*
G03X17270600Y-11190600I-50800J0D01*
G01*
X17169000Y-11393800D02*
X17270600Y-11495400D01*
X17270600Y-11393800D02*
X17169000Y-11495400D01*
X17270600Y-11444600D02*
G75*
G03X17270600Y-11444600I-50800J0D01*
G01*
X17169000Y-11647800D02*
X17270600Y-11749400D01*
X17270600Y-11647800D02*
X17169000Y-11749400D01*
X17270600Y-11698600D02*
G75*
G03X17270600Y-11698600I-50800J0D01*
G01*
X17169000Y-11901800D02*
X17270600Y-12003400D01*
X17270600Y-11901800D02*
X17169000Y-12003400D01*
X17270600Y-11952600D02*
G75*
G03X17270600Y-11952600I-50800J0D01*
G01*
X17169000Y-12155800D02*
X17270600Y-12257400D01*
X17270600Y-12155800D02*
X17169000Y-12257400D01*
X17270600Y-12206600D02*
G75*
G03X17270600Y-12206600I-50800J0D01*
G01*
X17169000Y-12409800D02*
X17270600Y-12511400D01*
X17270600Y-12409800D02*
X17169000Y-12511400D01*
X17270600Y-12460600D02*
G75*
G03X17270600Y-12460600I-50800J0D01*
G01*
X17169000Y-12663800D02*
X17270600Y-12765400D01*
X17270600Y-12663800D02*
X17169000Y-12765400D01*
X17270600Y-12714600D02*
G75*
G03X17270600Y-12714600I-50800J0D01*
G01*
X17169000Y-12917800D02*
X17270600Y-13019400D01*
X17270600Y-12917800D02*
X17169000Y-13019400D01*
X17270600Y-12968600D02*
G75*
G03X17270600Y-12968600I-50800J0D01*
G01*
X17169000Y-13171800D02*
X17270600Y-13273400D01*
X17270600Y-13171800D02*
X17169000Y-13273400D01*
X17270600Y-13222600D02*
G75*
G03X17270600Y-13222600I-50800J0D01*
G01*
X17169000Y-13425800D02*
X17270600Y-13527400D01*
X17270600Y-13425800D02*
X17169000Y-13527400D01*
X17270600Y-13476600D02*
G75*
G03X17270600Y-13476600I-50800J0D01*
G01*
X17169000Y-13679800D02*
X17270600Y-13781400D01*
X17270600Y-13679800D02*
X17169000Y-13781400D01*
X17270600Y-13730600D02*
G75*
G03X17270600Y-13730600I-50800J0D01*
G01*
X17221200Y-3251200D02*
X17322800Y-3352800D01*
X17322800Y-3251200D02*
X17221200Y-3352800D01*
X17322800Y-3302000D02*
G75*
G03X17322800Y-3302000I-50800J0D01*
G01*
X17221200Y-4013200D02*
X17322800Y-4114800D01*
X17322800Y-4013200D02*
X17221200Y-4114800D01*
X17322800Y-4064000D02*
G75*
G03X17322800Y-4064000I-50800J0D01*
G01*
X17221200Y-4470400D02*
X17322800Y-4572000D01*
X17322800Y-4470400D02*
X17221200Y-4572000D01*
X17322800Y-4521200D02*
G75*
G03X17322800Y-4521200I-50800J0D01*
G01*
X17423000Y-14060800D02*
X17524600Y-14162400D01*
X17524600Y-14060800D02*
X17423000Y-14162400D01*
X17524600Y-14111600D02*
G75*
G03X17524600Y-14111600I-50800J0D01*
G01*
X17423000Y-14314800D02*
X17524600Y-14416400D01*
X17524600Y-14314800D02*
X17423000Y-14416400D01*
X17524600Y-14365600D02*
G75*
G03X17524600Y-14365600I-50800J0D01*
G01*
X17475200Y-3251200D02*
X17576800Y-3352800D01*
X17576800Y-3251200D02*
X17475200Y-3352800D01*
X17576800Y-3302000D02*
G75*
G03X17576800Y-3302000I-50800J0D01*
G01*
X17475200Y-4013200D02*
X17576800Y-4114800D01*
X17576800Y-4013200D02*
X17475200Y-4114800D01*
X17576800Y-4064000D02*
G75*
G03X17576800Y-4064000I-50800J0D01*
G01*
X17475200Y-4470400D02*
X17576800Y-4572000D01*
X17576800Y-4470400D02*
X17475200Y-4572000D01*
X17576800Y-4521200D02*
G75*
G03X17576800Y-4521200I-50800J0D01*
G01*
X17677000Y-14060800D02*
X17778600Y-14162400D01*
X17778600Y-14060800D02*
X17677000Y-14162400D01*
X17778600Y-14111600D02*
G75*
G03X17778600Y-14111600I-50800J0D01*
G01*
X17677000Y-14314800D02*
X17778600Y-14416400D01*
X17778600Y-14314800D02*
X17677000Y-14416400D01*
X17778600Y-14365600D02*
G75*
G03X17778600Y-14365600I-50800J0D01*
G01*
X17729200Y-3251200D02*
X17830800Y-3352800D01*
X17830800Y-3251200D02*
X17729200Y-3352800D01*
X17830800Y-3302000D02*
G75*
G03X17830800Y-3302000I-50800J0D01*
G01*
X17729200Y-4013200D02*
X17830800Y-4114800D01*
X17830800Y-4013200D02*
X17729200Y-4114800D01*
X17830800Y-4064000D02*
G75*
G03X17830800Y-4064000I-50800J0D01*
G01*
X17729200Y-4470400D02*
X17830800Y-4572000D01*
X17830800Y-4470400D02*
X17729200Y-4572000D01*
X17830800Y-4521200D02*
G75*
G03X17830800Y-4521200I-50800J0D01*
G01*
X17931000Y-14060800D02*
X18032600Y-14162400D01*
X18032600Y-14060800D02*
X17931000Y-14162400D01*
X18032600Y-14111600D02*
G75*
G03X18032600Y-14111600I-50800J0D01*
G01*
X17931000Y-14314800D02*
X18032600Y-14416400D01*
X18032600Y-14314800D02*
X17931000Y-14416400D01*
X18032600Y-14365600D02*
G75*
G03X18032600Y-14365600I-50800J0D01*
G01*
X17983200Y-3251200D02*
X18084800Y-3352800D01*
X18084800Y-3251200D02*
X17983200Y-3352800D01*
X18084800Y-3302000D02*
G75*
G03X18084800Y-3302000I-50800J0D01*
G01*
X17983200Y-4013200D02*
X18084800Y-4114800D01*
X18084800Y-4013200D02*
X17983200Y-4114800D01*
X18084800Y-4064000D02*
G75*
G03X18084800Y-4064000I-50800J0D01*
G01*
X18185000Y-14060800D02*
X18286600Y-14162400D01*
X18286600Y-14060800D02*
X18185000Y-14162400D01*
X18286600Y-14111600D02*
G75*
G03X18286600Y-14111600I-50800J0D01*
G01*
X18185000Y-14314800D02*
X18286600Y-14416400D01*
X18286600Y-14314800D02*
X18185000Y-14416400D01*
X18286600Y-14365600D02*
G75*
G03X18286600Y-14365600I-50800J0D01*
G01*
X18237200Y-3251200D02*
X18338800Y-3352800D01*
X18338800Y-3251200D02*
X18237200Y-3352800D01*
X18338800Y-3302000D02*
G75*
G03X18338800Y-3302000I-50800J0D01*
G01*
X18237200Y-4013200D02*
X18338800Y-4114800D01*
X18338800Y-4013200D02*
X18237200Y-4114800D01*
X18338800Y-4064000D02*
G75*
G03X18338800Y-4064000I-50800J0D01*
G01*
X18439000Y-14060800D02*
X18540600Y-14162400D01*
X18540600Y-14060800D02*
X18439000Y-14162400D01*
X18540600Y-14111600D02*
G75*
G03X18540600Y-14111600I-50800J0D01*
G01*
X18439000Y-14314800D02*
X18540600Y-14416400D01*
X18540600Y-14314800D02*
X18439000Y-14416400D01*
X18540600Y-14365600D02*
G75*
G03X18540600Y-14365600I-50800J0D01*
G01*
X18491200Y-3251200D02*
X18592800Y-3352800D01*
X18592800Y-3251200D02*
X18491200Y-3352800D01*
X18592800Y-3302000D02*
G75*
G03X18592800Y-3302000I-50800J0D01*
G01*
X18491200Y-4013200D02*
X18592800Y-4114800D01*
X18592800Y-4013200D02*
X18491200Y-4114800D01*
X18592800Y-4064000D02*
G75*
G03X18592800Y-4064000I-50800J0D01*
G01*
X18693000Y-14060800D02*
X18794600Y-14162400D01*
X18794600Y-14060800D02*
X18693000Y-14162400D01*
X18794600Y-14111600D02*
G75*
G03X18794600Y-14111600I-50800J0D01*
G01*
X18693000Y-14314800D02*
X18794600Y-14416400D01*
X18794600Y-14314800D02*
X18693000Y-14416400D01*
X18794600Y-14365600D02*
G75*
G03X18794600Y-14365600I-50800J0D01*
G01*
X18745200Y-3251200D02*
X18846800Y-3352800D01*
X18846800Y-3251200D02*
X18745200Y-3352800D01*
X18846800Y-3302000D02*
G75*
G03X18846800Y-3302000I-50800J0D01*
G01*
X18745200Y-4013200D02*
X18846800Y-4114800D01*
X18846800Y-4013200D02*
X18745200Y-4114800D01*
X18846800Y-4064000D02*
G75*
G03X18846800Y-4064000I-50800J0D01*
G01*
X18947000Y-14060800D02*
X19048600Y-14162400D01*
X19048600Y-14060800D02*
X18947000Y-14162400D01*
X19048600Y-14111600D02*
G75*
G03X19048600Y-14111600I-50800J0D01*
G01*
X18947000Y-14314800D02*
X19048600Y-14416400D01*
X19048600Y-14314800D02*
X18947000Y-14416400D01*
X19048600Y-14365600D02*
G75*
G03X19048600Y-14365600I-50800J0D01*
G01*
X18999200Y-4013200D02*
X19100800Y-4114800D01*
X19100800Y-4013200D02*
X18999200Y-4114800D01*
X19100800Y-4064000D02*
G75*
G03X19100800Y-4064000I-50800J0D01*
G01*
X19201000Y-14060800D02*
X19302600Y-14162400D01*
X19302600Y-14060800D02*
X19201000Y-14162400D01*
X19302600Y-14111600D02*
G75*
G03X19302600Y-14111600I-50800J0D01*
G01*
X19201000Y-14314800D02*
X19302600Y-14416400D01*
X19302600Y-14314800D02*
X19201000Y-14416400D01*
X19302600Y-14365600D02*
G75*
G03X19302600Y-14365600I-50800J0D01*
G01*
X19455000Y-14060800D02*
X19556600Y-14162400D01*
X19556600Y-14060800D02*
X19455000Y-14162400D01*
X19556600Y-14111600D02*
G75*
G03X19556600Y-14111600I-50800J0D01*
G01*
X19455000Y-14314800D02*
X19556600Y-14416400D01*
X19556600Y-14314800D02*
X19455000Y-14416400D01*
X19556600Y-14365600D02*
G75*
G03X19556600Y-14365600I-50800J0D01*
G01*
X19709000Y-14060800D02*
X19810600Y-14162400D01*
X19810600Y-14060800D02*
X19709000Y-14162400D01*
X19810600Y-14111600D02*
G75*
G03X19810600Y-14111600I-50800J0D01*
G01*
X19709000Y-14314800D02*
X19810600Y-14416400D01*
X19810600Y-14314800D02*
X19709000Y-14416400D01*
X19810600Y-14365600D02*
G75*
G03X19810600Y-14365600I-50800J0D01*
G01*
X19963000Y-14060800D02*
X20064600Y-14162400D01*
X20064600Y-14060800D02*
X19963000Y-14162400D01*
X20064600Y-14111600D02*
G75*
G03X20064600Y-14111600I-50800J0D01*
G01*
X19963000Y-14314800D02*
X20064600Y-14416400D01*
X20064600Y-14314800D02*
X19963000Y-14416400D01*
X20064600Y-14365600D02*
G75*
G03X20064600Y-14365600I-50800J0D01*
G01*
X20217000Y-14060800D02*
X20318600Y-14162400D01*
X20318600Y-14060800D02*
X20217000Y-14162400D01*
X20318600Y-14111600D02*
G75*
G03X20318600Y-14111600I-50800J0D01*
G01*
X20217000Y-14314800D02*
X20318600Y-14416400D01*
X20318600Y-14314800D02*
X20217000Y-14416400D01*
X20318600Y-14365600D02*
G75*
G03X20318600Y-14365600I-50800J0D01*
G01*
X20471000Y-14060800D02*
X20572600Y-14162400D01*
X20572600Y-14060800D02*
X20471000Y-14162400D01*
X20572600Y-14111600D02*
G75*
G03X20572600Y-14111600I-50800J0D01*
G01*
X20471000Y-14314800D02*
X20572600Y-14416400D01*
X20572600Y-14314800D02*
X20471000Y-14416400D01*
X20572600Y-14365600D02*
G75*
G03X20572600Y-14365600I-50800J0D01*
G01*
X20725000Y-14060800D02*
X20826600Y-14162400D01*
X20826600Y-14060800D02*
X20725000Y-14162400D01*
X20826600Y-14111600D02*
G75*
G03X20826600Y-14111600I-50800J0D01*
G01*
X20725000Y-14314800D02*
X20826600Y-14416400D01*
X20826600Y-14314800D02*
X20725000Y-14416400D01*
X20826600Y-14365600D02*
G75*
G03X20826600Y-14365600I-50800J0D01*
G01*
X20979000Y-14060800D02*
X21080600Y-14162400D01*
X21080600Y-14060800D02*
X20979000Y-14162400D01*
X21080600Y-14111600D02*
G75*
G03X21080600Y-14111600I-50800J0D01*
G01*
X20979000Y-14314800D02*
X21080600Y-14416400D01*
X21080600Y-14314800D02*
X20979000Y-14416400D01*
X21080600Y-14365600D02*
G75*
G03X21080600Y-14365600I-50800J0D01*
G01*
X21233000Y-14060800D02*
X21334600Y-14162400D01*
X21334600Y-14060800D02*
X21233000Y-14162400D01*
X21334600Y-14111600D02*
G75*
G03X21334600Y-14111600I-50800J0D01*
G01*
X21233000Y-14314800D02*
X21334600Y-14416400D01*
X21334600Y-14314800D02*
X21233000Y-14416400D01*
X21334600Y-14365600D02*
G75*
G03X21334600Y-14365600I-50800J0D01*
G01*
X21487000Y-14060800D02*
X21588600Y-14162400D01*
X21588600Y-14060800D02*
X21487000Y-14162400D01*
X21588600Y-14111600D02*
G75*
G03X21588600Y-14111600I-50800J0D01*
G01*
X21487000Y-14314800D02*
X21588600Y-14416400D01*
X21588600Y-14314800D02*
X21487000Y-14416400D01*
X21588600Y-14365600D02*
G75*
G03X21588600Y-14365600I-50800J0D01*
G01*
X21741000Y-14060800D02*
X21842600Y-14162400D01*
X21842600Y-14060800D02*
X21741000Y-14162400D01*
X21842600Y-14111600D02*
G75*
G03X21842600Y-14111600I-50800J0D01*
G01*
X21741000Y-14314800D02*
X21842600Y-14416400D01*
X21842600Y-14314800D02*
X21741000Y-14416400D01*
X21842600Y-14365600D02*
G75*
G03X21842600Y-14365600I-50800J0D01*
G01*
X21995000Y-14060800D02*
X22096600Y-14162400D01*
X22096600Y-14060800D02*
X21995000Y-14162400D01*
X22096600Y-14111600D02*
G75*
G03X22096600Y-14111600I-50800J0D01*
G01*
X21995000Y-14314800D02*
X22096600Y-14416400D01*
X22096600Y-14314800D02*
X21995000Y-14416400D01*
X22096600Y-14365600D02*
G75*
G03X22096600Y-14365600I-50800J0D01*
G01*
X22047200Y-2997200D02*
X22148800Y-3098800D01*
X22148800Y-2997200D02*
X22047200Y-3098800D01*
X22148800Y-3048000D02*
G75*
G03X22148800Y-3048000I-50800J0D01*
G01*
X22249000Y-14060800D02*
X22350600Y-14162400D01*
X22350600Y-14060800D02*
X22249000Y-14162400D01*
X22350600Y-14111600D02*
G75*
G03X22350600Y-14111600I-50800J0D01*
G01*
X22249000Y-14314800D02*
X22350600Y-14416400D01*
X22350600Y-14314800D02*
X22249000Y-14416400D01*
X22350600Y-14365600D02*
G75*
G03X22350600Y-14365600I-50800J0D01*
G01*
X22301200Y-2997200D02*
X22402800Y-3098800D01*
X22402800Y-2997200D02*
X22301200Y-3098800D01*
X22402800Y-3048000D02*
G75*
G03X22402800Y-3048000I-50800J0D01*
G01*
X22555200Y-2997200D02*
X22656800Y-3098800D01*
X22656800Y-2997200D02*
X22555200Y-3098800D01*
X22656800Y-3048000D02*
G75*
G03X22656800Y-3048000I-50800J0D01*
G01*
X22630000Y-8853800D02*
X22731600Y-8955400D01*
X22731600Y-8853800D02*
X22630000Y-8955400D01*
X22731600Y-8904600D02*
G75*
G03X22731600Y-8904600I-50800J0D01*
G01*
X22630000Y-9107800D02*
X22731600Y-9209400D01*
X22731600Y-9107800D02*
X22630000Y-9209400D01*
X22731600Y-9158600D02*
G75*
G03X22731600Y-9158600I-50800J0D01*
G01*
X22630000Y-9361800D02*
X22731600Y-9463400D01*
X22731600Y-9361800D02*
X22630000Y-9463400D01*
X22731600Y-9412600D02*
G75*
G03X22731600Y-9412600I-50800J0D01*
G01*
X22630000Y-9615800D02*
X22731600Y-9717400D01*
X22731600Y-9615800D02*
X22630000Y-9717400D01*
X22731600Y-9666600D02*
G75*
G03X22731600Y-9666600I-50800J0D01*
G01*
X22630000Y-9869800D02*
X22731600Y-9971400D01*
X22731600Y-9869800D02*
X22630000Y-9971400D01*
X22731600Y-9920600D02*
G75*
G03X22731600Y-9920600I-50800J0D01*
G01*
X22630000Y-10123800D02*
X22731600Y-10225400D01*
X22731600Y-10123800D02*
X22630000Y-10225400D01*
X22731600Y-10174600D02*
G75*
G03X22731600Y-10174600I-50800J0D01*
G01*
X22630000Y-10377800D02*
X22731600Y-10479400D01*
X22731600Y-10377800D02*
X22630000Y-10479400D01*
X22731600Y-10428600D02*
G75*
G03X22731600Y-10428600I-50800J0D01*
G01*
X22630000Y-10631800D02*
X22731600Y-10733400D01*
X22731600Y-10631800D02*
X22630000Y-10733400D01*
X22731600Y-10682600D02*
G75*
G03X22731600Y-10682600I-50800J0D01*
G01*
X22630000Y-10885800D02*
X22731600Y-10987400D01*
X22731600Y-10885800D02*
X22630000Y-10987400D01*
X22731600Y-10936600D02*
G75*
G03X22731600Y-10936600I-50800J0D01*
G01*
X22630000Y-11139800D02*
X22731600Y-11241400D01*
X22731600Y-11139800D02*
X22630000Y-11241400D01*
X22731600Y-11190600D02*
G75*
G03X22731600Y-11190600I-50800J0D01*
G01*
X22630000Y-11393800D02*
X22731600Y-11495400D01*
X22731600Y-11393800D02*
X22630000Y-11495400D01*
X22731600Y-11444600D02*
G75*
G03X22731600Y-11444600I-50800J0D01*
G01*
X22630000Y-11647800D02*
X22731600Y-11749400D01*
X22731600Y-11647800D02*
X22630000Y-11749400D01*
X22731600Y-11698600D02*
G75*
G03X22731600Y-11698600I-50800J0D01*
G01*
X22630000Y-11901800D02*
X22731600Y-12003400D01*
X22731600Y-11901800D02*
X22630000Y-12003400D01*
X22731600Y-11952600D02*
G75*
G03X22731600Y-11952600I-50800J0D01*
G01*
X22630000Y-12155800D02*
X22731600Y-12257400D01*
X22731600Y-12155800D02*
X22630000Y-12257400D01*
X22731600Y-12206600D02*
G75*
G03X22731600Y-12206600I-50800J0D01*
G01*
X22630000Y-12409800D02*
X22731600Y-12511400D01*
X22731600Y-12409800D02*
X22630000Y-12511400D01*
X22731600Y-12460600D02*
G75*
G03X22731600Y-12460600I-50800J0D01*
G01*
X22630000Y-12663800D02*
X22731600Y-12765400D01*
X22731600Y-12663800D02*
X22630000Y-12765400D01*
X22731600Y-12714600D02*
G75*
G03X22731600Y-12714600I-50800J0D01*
G01*
X22630000Y-12917800D02*
X22731600Y-13019400D01*
X22731600Y-12917800D02*
X22630000Y-13019400D01*
X22731600Y-12968600D02*
G75*
G03X22731600Y-12968600I-50800J0D01*
G01*
X22630000Y-13171800D02*
X22731600Y-13273400D01*
X22731600Y-13171800D02*
X22630000Y-13273400D01*
X22731600Y-13222600D02*
G75*
G03X22731600Y-13222600I-50800J0D01*
G01*
X22630000Y-13425800D02*
X22731600Y-13527400D01*
X22731600Y-13425800D02*
X22630000Y-13527400D01*
X22731600Y-13476600D02*
G75*
G03X22731600Y-13476600I-50800J0D01*
G01*
X22630000Y-13679800D02*
X22731600Y-13781400D01*
X22731600Y-13679800D02*
X22630000Y-13781400D01*
X22731600Y-13730600D02*
G75*
G03X22731600Y-13730600I-50800J0D01*
G01*
X22884000Y-8853800D02*
X22985600Y-8955400D01*
X22985600Y-8853800D02*
X22884000Y-8955400D01*
X22985600Y-8904600D02*
G75*
G03X22985600Y-8904600I-50800J0D01*
G01*
X22884000Y-9107800D02*
X22985600Y-9209400D01*
X22985600Y-9107800D02*
X22884000Y-9209400D01*
X22985600Y-9158600D02*
G75*
G03X22985600Y-9158600I-50800J0D01*
G01*
X22884000Y-9361800D02*
X22985600Y-9463400D01*
X22985600Y-9361800D02*
X22884000Y-9463400D01*
X22985600Y-9412600D02*
G75*
G03X22985600Y-9412600I-50800J0D01*
G01*
X22884000Y-9615800D02*
X22985600Y-9717400D01*
X22985600Y-9615800D02*
X22884000Y-9717400D01*
X22985600Y-9666600D02*
G75*
G03X22985600Y-9666600I-50800J0D01*
G01*
X22884000Y-9869800D02*
X22985600Y-9971400D01*
X22985600Y-9869800D02*
X22884000Y-9971400D01*
X22985600Y-9920600D02*
G75*
G03X22985600Y-9920600I-50800J0D01*
G01*
X22884000Y-10123800D02*
X22985600Y-10225400D01*
X22985600Y-10123800D02*
X22884000Y-10225400D01*
X22985600Y-10174600D02*
G75*
G03X22985600Y-10174600I-50800J0D01*
G01*
X22884000Y-10377800D02*
X22985600Y-10479400D01*
X22985600Y-10377800D02*
X22884000Y-10479400D01*
X22985600Y-10428600D02*
G75*
G03X22985600Y-10428600I-50800J0D01*
G01*
X22884000Y-10631800D02*
X22985600Y-10733400D01*
X22985600Y-10631800D02*
X22884000Y-10733400D01*
X22985600Y-10682600D02*
G75*
G03X22985600Y-10682600I-50800J0D01*
G01*
X22884000Y-10885800D02*
X22985600Y-10987400D01*
X22985600Y-10885800D02*
X22884000Y-10987400D01*
X22985600Y-10936600D02*
G75*
G03X22985600Y-10936600I-50800J0D01*
G01*
X22884000Y-11139800D02*
X22985600Y-11241400D01*
X22985600Y-11139800D02*
X22884000Y-11241400D01*
X22985600Y-11190600D02*
G75*
G03X22985600Y-11190600I-50800J0D01*
G01*
X22884000Y-11393800D02*
X22985600Y-11495400D01*
X22985600Y-11393800D02*
X22884000Y-11495400D01*
X22985600Y-11444600D02*
G75*
G03X22985600Y-11444600I-50800J0D01*
G01*
X22884000Y-11647800D02*
X22985600Y-11749400D01*
X22985600Y-11647800D02*
X22884000Y-11749400D01*
X22985600Y-11698600D02*
G75*
G03X22985600Y-11698600I-50800J0D01*
G01*
X22884000Y-11901800D02*
X22985600Y-12003400D01*
X22985600Y-11901800D02*
X22884000Y-12003400D01*
X22985600Y-11952600D02*
G75*
G03X22985600Y-11952600I-50800J0D01*
G01*
X22884000Y-12155800D02*
X22985600Y-12257400D01*
X22985600Y-12155800D02*
X22884000Y-12257400D01*
X22985600Y-12206600D02*
G75*
G03X22985600Y-12206600I-50800J0D01*
G01*
X22884000Y-12409800D02*
X22985600Y-12511400D01*
X22985600Y-12409800D02*
X22884000Y-12511400D01*
X22985600Y-12460600D02*
G75*
G03X22985600Y-12460600I-50800J0D01*
G01*
X22884000Y-12663800D02*
X22985600Y-12765400D01*
X22985600Y-12663800D02*
X22884000Y-12765400D01*
X22985600Y-12714600D02*
G75*
G03X22985600Y-12714600I-50800J0D01*
G01*
X22884000Y-12917800D02*
X22985600Y-13019400D01*
X22985600Y-12917800D02*
X22884000Y-13019400D01*
X22985600Y-12968600D02*
G75*
G03X22985600Y-12968600I-50800J0D01*
G01*
X22884000Y-13171800D02*
X22985600Y-13273400D01*
X22985600Y-13171800D02*
X22884000Y-13273400D01*
X22985600Y-13222600D02*
G75*
G03X22985600Y-13222600I-50800J0D01*
G01*
X22884000Y-13425800D02*
X22985600Y-13527400D01*
X22985600Y-13425800D02*
X22884000Y-13527400D01*
X22985600Y-13476600D02*
G75*
G03X22985600Y-13476600I-50800J0D01*
G01*
X22884000Y-13679800D02*
X22985600Y-13781400D01*
X22985600Y-13679800D02*
X22884000Y-13781400D01*
X22985600Y-13730600D02*
G75*
G03X22985600Y-13730600I-50800J0D01*
G01*
X23266400Y-8851900D02*
X23368000Y-8953500D01*
X23368000Y-8851900D02*
X23266400Y-8953500D01*
X23368000Y-8902700D02*
G75*
G03X23368000Y-8902700I-50800J0D01*
G01*
X23266400Y-9105900D02*
X23368000Y-9207500D01*
X23368000Y-9105900D02*
X23266400Y-9207500D01*
X23368000Y-9156700D02*
G75*
G03X23368000Y-9156700I-50800J0D01*
G01*
X23266400Y-9359900D02*
X23368000Y-9461500D01*
X23368000Y-9359900D02*
X23266400Y-9461500D01*
X23368000Y-9410700D02*
G75*
G03X23368000Y-9410700I-50800J0D01*
G01*
X23266400Y-9613900D02*
X23368000Y-9715500D01*
X23368000Y-9613900D02*
X23266400Y-9715500D01*
X23368000Y-9664700D02*
G75*
G03X23368000Y-9664700I-50800J0D01*
G01*
X23266400Y-9867900D02*
X23368000Y-9969500D01*
X23368000Y-9867900D02*
X23266400Y-9969500D01*
X23368000Y-9918700D02*
G75*
G03X23368000Y-9918700I-50800J0D01*
G01*
X23266400Y-10121900D02*
X23368000Y-10223500D01*
X23368000Y-10121900D02*
X23266400Y-10223500D01*
X23368000Y-10172700D02*
G75*
G03X23368000Y-10172700I-50800J0D01*
G01*
X23266400Y-10375900D02*
X23368000Y-10477500D01*
X23368000Y-10375900D02*
X23266400Y-10477500D01*
X23368000Y-10426700D02*
G75*
G03X23368000Y-10426700I-50800J0D01*
G01*
X23266400Y-10629900D02*
X23368000Y-10731500D01*
X23368000Y-10629900D02*
X23266400Y-10731500D01*
X23368000Y-10680700D02*
G75*
G03X23368000Y-10680700I-50800J0D01*
G01*
X23266400Y-10883900D02*
X23368000Y-10985500D01*
X23368000Y-10883900D02*
X23266400Y-10985500D01*
X23368000Y-10934700D02*
G75*
G03X23368000Y-10934700I-50800J0D01*
G01*
X23266400Y-11137900D02*
X23368000Y-11239500D01*
X23368000Y-11137900D02*
X23266400Y-11239500D01*
X23368000Y-11188700D02*
G75*
G03X23368000Y-11188700I-50800J0D01*
G01*
X23266400Y-11391900D02*
X23368000Y-11493500D01*
X23368000Y-11391900D02*
X23266400Y-11493500D01*
X23368000Y-11442700D02*
G75*
G03X23368000Y-11442700I-50800J0D01*
G01*
X23266400Y-11645900D02*
X23368000Y-11747500D01*
X23368000Y-11645900D02*
X23266400Y-11747500D01*
X23368000Y-11696700D02*
G75*
G03X23368000Y-11696700I-50800J0D01*
G01*
X23266400Y-11899900D02*
X23368000Y-12001500D01*
X23368000Y-11899900D02*
X23266400Y-12001500D01*
X23368000Y-11950700D02*
G75*
G03X23368000Y-11950700I-50800J0D01*
G01*
X23266400Y-12153900D02*
X23368000Y-12255500D01*
X23368000Y-12153900D02*
X23266400Y-12255500D01*
X23368000Y-12204700D02*
G75*
G03X23368000Y-12204700I-50800J0D01*
G01*
X23266400Y-12407900D02*
X23368000Y-12509500D01*
X23368000Y-12407900D02*
X23266400Y-12509500D01*
X23368000Y-12458700D02*
G75*
G03X23368000Y-12458700I-50800J0D01*
G01*
X23266400Y-12661900D02*
X23368000Y-12763500D01*
X23368000Y-12661900D02*
X23266400Y-12763500D01*
X23368000Y-12712700D02*
G75*
G03X23368000Y-12712700I-50800J0D01*
G01*
X23266400Y-12915900D02*
X23368000Y-13017500D01*
X23368000Y-12915900D02*
X23266400Y-13017500D01*
X23368000Y-12966700D02*
G75*
G03X23368000Y-12966700I-50800J0D01*
G01*
X23266400Y-13169900D02*
X23368000Y-13271500D01*
X23368000Y-13169900D02*
X23266400Y-13271500D01*
X23368000Y-13220700D02*
G75*
G03X23368000Y-13220700I-50800J0D01*
G01*
X23266400Y-13423900D02*
X23368000Y-13525500D01*
X23368000Y-13423900D02*
X23266400Y-13525500D01*
X23368000Y-13474700D02*
G75*
G03X23368000Y-13474700I-50800J0D01*
G01*
X23266400Y-13677900D02*
X23368000Y-13779500D01*
X23368000Y-13677900D02*
X23266400Y-13779500D01*
X23368000Y-13728700D02*
G75*
G03X23368000Y-13728700I-50800J0D01*
G01*
X23520400Y-8851900D02*
X23622000Y-8953500D01*
X23622000Y-8851900D02*
X23520400Y-8953500D01*
X23622000Y-8902700D02*
G75*
G03X23622000Y-8902700I-50800J0D01*
G01*
X23520400Y-9105900D02*
X23622000Y-9207500D01*
X23622000Y-9105900D02*
X23520400Y-9207500D01*
X23622000Y-9156700D02*
G75*
G03X23622000Y-9156700I-50800J0D01*
G01*
X23520400Y-9359900D02*
X23622000Y-9461500D01*
X23622000Y-9359900D02*
X23520400Y-9461500D01*
X23622000Y-9410700D02*
G75*
G03X23622000Y-9410700I-50800J0D01*
G01*
X23520400Y-9613900D02*
X23622000Y-9715500D01*
X23622000Y-9613900D02*
X23520400Y-9715500D01*
X23622000Y-9664700D02*
G75*
G03X23622000Y-9664700I-50800J0D01*
G01*
X23520400Y-9867900D02*
X23622000Y-9969500D01*
X23622000Y-9867900D02*
X23520400Y-9969500D01*
X23622000Y-9918700D02*
G75*
G03X23622000Y-9918700I-50800J0D01*
G01*
X23520400Y-10121900D02*
X23622000Y-10223500D01*
X23622000Y-10121900D02*
X23520400Y-10223500D01*
X23622000Y-10172700D02*
G75*
G03X23622000Y-10172700I-50800J0D01*
G01*
X23520400Y-10375900D02*
X23622000Y-10477500D01*
X23622000Y-10375900D02*
X23520400Y-10477500D01*
X23622000Y-10426700D02*
G75*
G03X23622000Y-10426700I-50800J0D01*
G01*
X23520400Y-10629900D02*
X23622000Y-10731500D01*
X23622000Y-10629900D02*
X23520400Y-10731500D01*
X23622000Y-10680700D02*
G75*
G03X23622000Y-10680700I-50800J0D01*
G01*
X23520400Y-10883900D02*
X23622000Y-10985500D01*
X23622000Y-10883900D02*
X23520400Y-10985500D01*
X23622000Y-10934700D02*
G75*
G03X23622000Y-10934700I-50800J0D01*
G01*
X23520400Y-11137900D02*
X23622000Y-11239500D01*
X23622000Y-11137900D02*
X23520400Y-11239500D01*
X23622000Y-11188700D02*
G75*
G03X23622000Y-11188700I-50800J0D01*
G01*
X23520400Y-11391900D02*
X23622000Y-11493500D01*
X23622000Y-11391900D02*
X23520400Y-11493500D01*
X23622000Y-11442700D02*
G75*
G03X23622000Y-11442700I-50800J0D01*
G01*
X23520400Y-11645900D02*
X23622000Y-11747500D01*
X23622000Y-11645900D02*
X23520400Y-11747500D01*
X23622000Y-11696700D02*
G75*
G03X23622000Y-11696700I-50800J0D01*
G01*
X23520400Y-11899900D02*
X23622000Y-12001500D01*
X23622000Y-11899900D02*
X23520400Y-12001500D01*
X23622000Y-11950700D02*
G75*
G03X23622000Y-11950700I-50800J0D01*
G01*
X23520400Y-12153900D02*
X23622000Y-12255500D01*
X23622000Y-12153900D02*
X23520400Y-12255500D01*
X23622000Y-12204700D02*
G75*
G03X23622000Y-12204700I-50800J0D01*
G01*
X23520400Y-12407900D02*
X23622000Y-12509500D01*
X23622000Y-12407900D02*
X23520400Y-12509500D01*
X23622000Y-12458700D02*
G75*
G03X23622000Y-12458700I-50800J0D01*
G01*
X23520400Y-12661900D02*
X23622000Y-12763500D01*
X23622000Y-12661900D02*
X23520400Y-12763500D01*
X23622000Y-12712700D02*
G75*
G03X23622000Y-12712700I-50800J0D01*
G01*
X23520400Y-12915900D02*
X23622000Y-13017500D01*
X23622000Y-12915900D02*
X23520400Y-13017500D01*
X23622000Y-12966700D02*
G75*
G03X23622000Y-12966700I-50800J0D01*
G01*
X23520400Y-13169900D02*
X23622000Y-13271500D01*
X23622000Y-13169900D02*
X23520400Y-13271500D01*
X23622000Y-13220700D02*
G75*
G03X23622000Y-13220700I-50800J0D01*
G01*
X23520400Y-13423900D02*
X23622000Y-13525500D01*
X23622000Y-13423900D02*
X23520400Y-13525500D01*
X23622000Y-13474700D02*
G75*
G03X23622000Y-13474700I-50800J0D01*
G01*
X23520400Y-13677900D02*
X23622000Y-13779500D01*
X23622000Y-13677900D02*
X23520400Y-13779500D01*
X23622000Y-13728700D02*
G75*
G03X23622000Y-13728700I-50800J0D01*
G01*
X12299950Y-9478010D02*
X12419838Y-9597898D01*
X12419838Y-9478010D02*
X12299950Y-9597898D01*
X12359894Y-9478010D02*
X12359894Y-9597898D01*
X12299950Y-9537954D02*
X12419838Y-9537954D01*
X12470130Y-9127998D02*
X12590018Y-9247886D01*
X12590018Y-9127998D02*
X12470130Y-9247886D01*
X12530074Y-9127998D02*
X12530074Y-9247886D01*
X12470130Y-9187942D02*
X12590018Y-9187942D01*
X12640056Y-9478010D02*
X12759944Y-9597898D01*
X12759944Y-9478010D02*
X12640056Y-9597898D01*
X12700000Y-9478010D02*
X12700000Y-9597898D01*
X12640056Y-9537954D02*
X12759944Y-9537954D01*
X12809982Y-9127998D02*
X12929870Y-9247886D01*
X12929870Y-9127998D02*
X12809982Y-9247886D01*
X12869926Y-9127998D02*
X12869926Y-9247886D01*
X12809982Y-9187942D02*
X12929870Y-9187942D01*
X12937998Y-13105130D02*
X13057886Y-13225018D01*
X13057886Y-13105130D02*
X12937998Y-13225018D01*
X12997942Y-13105130D02*
X12997942Y-13225018D01*
X12937998Y-13165074D02*
X13057886Y-13165074D01*
X12937998Y-13444982D02*
X13057886Y-13564870D01*
X13057886Y-13444982D02*
X12937998Y-13564870D01*
X12997942Y-13444982D02*
X12997942Y-13564870D01*
X12937998Y-13504926D02*
X13057886Y-13504926D01*
X12937998Y-15137130D02*
X13057886Y-15257018D01*
X13057886Y-15137130D02*
X12937998Y-15257018D01*
X12997942Y-15137130D02*
X12997942Y-15257018D01*
X12937998Y-15197074D02*
X13057886Y-15197074D01*
X12937998Y-15476982D02*
X13057886Y-15596870D01*
X13057886Y-15476982D02*
X12937998Y-15596870D01*
X12997942Y-15476982D02*
X12997942Y-15596870D01*
X12937998Y-15536926D02*
X13057886Y-15536926D01*
X12980162Y-9478010D02*
X13100050Y-9597898D01*
X13100050Y-9478010D02*
X12980162Y-9597898D01*
X13040106Y-9478010D02*
X13040106Y-9597898D01*
X12980162Y-9537954D02*
X13100050Y-9537954D01*
X13288010Y-12934950D02*
X13407898Y-13054838D01*
X13407898Y-12934950D02*
X13288010Y-13054838D01*
X13347954Y-12934950D02*
X13347954Y-13054838D01*
X13288010Y-12994894D02*
X13407898Y-12994894D01*
X13288010Y-13275056D02*
X13407898Y-13394944D01*
X13407898Y-13275056D02*
X13288010Y-13394944D01*
X13347954Y-13275056D02*
X13347954Y-13394944D01*
X13288010Y-13335000D02*
X13407898Y-13335000D01*
X13288010Y-13615162D02*
X13407898Y-13735050D01*
X13407898Y-13615162D02*
X13288010Y-13735050D01*
X13347954Y-13615162D02*
X13347954Y-13735050D01*
X13288010Y-13675106D02*
X13407898Y-13675106D01*
X13288010Y-14966950D02*
X13407898Y-15086838D01*
X13407898Y-14966950D02*
X13288010Y-15086838D01*
X13347954Y-14966950D02*
X13347954Y-15086838D01*
X13288010Y-15026894D02*
X13407898Y-15026894D01*
X13288010Y-15307056D02*
X13407898Y-15426944D01*
X13407898Y-15307056D02*
X13288010Y-15426944D01*
X13347954Y-15307056D02*
X13347954Y-15426944D01*
X13288010Y-15367000D02*
X13407898Y-15367000D01*
X13288010Y-15647162D02*
X13407898Y-15767050D01*
X13407898Y-15647162D02*
X13288010Y-15767050D01*
X13347954Y-15647162D02*
X13347954Y-15767050D01*
X13288010Y-15707106D02*
X13407898Y-15707106D01*
X14331950Y-9478010D02*
X14451838Y-9597898D01*
X14451838Y-9478010D02*
X14331950Y-9597898D01*
X14391894Y-9478010D02*
X14391894Y-9597898D01*
X14331950Y-9537954D02*
X14451838Y-9537954D01*
X14502130Y-9127998D02*
X14622018Y-9247886D01*
X14622018Y-9127998D02*
X14502130Y-9247886D01*
X14562074Y-9127998D02*
X14562074Y-9247886D01*
X14502130Y-9187942D02*
X14622018Y-9187942D01*
X14672056Y-9478010D02*
X14791944Y-9597898D01*
X14791944Y-9478010D02*
X14672056Y-9597898D01*
X14732000Y-9478010D02*
X14732000Y-9597898D01*
X14672056Y-9537954D02*
X14791944Y-9537954D01*
X14841982Y-9127998D02*
X14961870Y-9247886D01*
X14961870Y-9127998D02*
X14841982Y-9247886D01*
X14901926Y-9127998D02*
X14901926Y-9247886D01*
X14841982Y-9187942D02*
X14961870Y-9187942D01*
X15012162Y-9478010D02*
X15132050Y-9597898D01*
X15132050Y-9478010D02*
X15012162Y-9597898D01*
X15072106Y-9478010D02*
X15072106Y-9597898D01*
X15012162Y-9537954D02*
X15132050Y-9537954D01*
X6932565Y-4432563D02*
X7067439Y-4567437D01*
X7067439Y-4432563D02*
X6932565Y-4567437D01*
X7047688Y-4547686D02*
X7047688Y-4452314D01*
X6952316Y-4452314D01*
X6952316Y-4547686D01*
X7047688Y-4547686D01*
X6932565Y-6432563D02*
X7067439Y-6567437D01*
X7067439Y-6432563D02*
X6932565Y-6567437D01*
X7047688Y-6547686D02*
X7047688Y-6452314D01*
X6952316Y-6452314D01*
X6952316Y-6547686D01*
X7047688Y-6547686D01*
X6932565Y-8432563D02*
X7067439Y-8567437D01*
X7067439Y-8432563D02*
X6932565Y-8567437D01*
X7047688Y-8547686D02*
X7047688Y-8452314D01*
X6952316Y-8452314D01*
X6952316Y-8547686D01*
X7047688Y-8547686D01*
X7432437Y-4432563D02*
X7567311Y-4567437D01*
X7567311Y-4432563D02*
X7432437Y-4567437D01*
X7547560Y-4547686D02*
X7547560Y-4452314D01*
X7452188Y-4452314D01*
X7452188Y-4547686D01*
X7547560Y-4547686D01*
X7432437Y-6432563D02*
X7567311Y-6567437D01*
X7567311Y-6432563D02*
X7432437Y-6567437D01*
X7547560Y-6547686D02*
X7547560Y-6452314D01*
X7452188Y-6452314D01*
X7452188Y-6547686D01*
X7547560Y-6547686D01*
X7432437Y-8432563D02*
X7567311Y-8567437D01*
X7567311Y-8432563D02*
X7432437Y-8567437D01*
X7547560Y-8547686D02*
X7547560Y-8452314D01*
X7452188Y-8452314D01*
X7452188Y-8547686D01*
X7547560Y-8547686D01*
X8432689Y-4432563D02*
X8567563Y-4567437D01*
X8567563Y-4432563D02*
X8432689Y-4567437D01*
X8547812Y-4547686D02*
X8547812Y-4452314D01*
X8452440Y-4452314D01*
X8452440Y-4547686D01*
X8547812Y-4547686D01*
X8432689Y-6432563D02*
X8567563Y-6567437D01*
X8567563Y-6432563D02*
X8432689Y-6567437D01*
X8547812Y-6547686D02*
X8547812Y-6452314D01*
X8452440Y-6452314D01*
X8452440Y-6547686D01*
X8547812Y-6547686D01*
X8432689Y-8432563D02*
X8567563Y-8567437D01*
X8567563Y-8432563D02*
X8432689Y-8567437D01*
X8547812Y-8547686D02*
X8547812Y-8452314D01*
X8452440Y-8452314D01*
X8452440Y-8547686D01*
X8547812Y-8547686D01*
X8932561Y-4432563D02*
X9067435Y-4567437D01*
X9067435Y-4432563D02*
X8932561Y-4567437D01*
X9047684Y-4547686D02*
X9047684Y-4452314D01*
X8952312Y-4452314D01*
X8952312Y-4547686D01*
X9047684Y-4547686D01*
X8932561Y-6432563D02*
X9067435Y-6567437D01*
X9067435Y-6432563D02*
X8932561Y-6567437D01*
X9047684Y-6547686D02*
X9047684Y-6452314D01*
X8952312Y-6452314D01*
X8952312Y-6547686D01*
X9047684Y-6547686D01*
X8932561Y-8432563D02*
X9067435Y-8567437D01*
X9067435Y-8432563D02*
X8932561Y-8567437D01*
X9047684Y-8547686D02*
X9047684Y-8452314D01*
X8952312Y-8452314D01*
X8952312Y-8547686D01*
X9047684Y-8547686D01*
X6938000Y-2700000D02*
X7138000Y-2900000D01*
X7138000Y-2700000D02*
X6938000Y-2900000D01*
X7038000Y-2900000D02*
X7138000Y-2800000D01*
X7038000Y-2700000D01*
X6938000Y-2800000D01*
X7038000Y-2900000D01*
X7192000Y-2954000D02*
X7392000Y-3154000D01*
X7392000Y-2954000D02*
X7192000Y-3154000D01*
X7292000Y-3154000D02*
X7392000Y-3054000D01*
X7292000Y-2954000D01*
X7192000Y-3054000D01*
X7292000Y-3154000D01*
X7420600Y-1684000D02*
X7620600Y-1884000D01*
X7620600Y-1684000D02*
X7420600Y-1884000D01*
X7520600Y-1884000D02*
X7620600Y-1784000D01*
X7520600Y-1684000D01*
X7420600Y-1784000D01*
X7520600Y-1884000D01*
X7700000Y-2700000D02*
X7900000Y-2900000D01*
X7900000Y-2700000D02*
X7700000Y-2900000D01*
X7800000Y-2900000D02*
X7900000Y-2800000D01*
X7800000Y-2700000D01*
X7700000Y-2800000D01*
X7800000Y-2900000D01*
X7979400Y-1684000D02*
X8179400Y-1884000D01*
X8179400Y-1684000D02*
X7979400Y-1884000D01*
X8079400Y-1884000D02*
X8179400Y-1784000D01*
X8079400Y-1684000D01*
X7979400Y-1784000D01*
X8079400Y-1884000D01*
X8208000Y-2954000D02*
X8408000Y-3154000D01*
X8408000Y-2954000D02*
X8208000Y-3154000D01*
X8308000Y-3154000D02*
X8408000Y-3054000D01*
X8308000Y-2954000D01*
X8208000Y-3054000D01*
X8308000Y-3154000D01*
X8462000Y-2700000D02*
X8662000Y-2900000D01*
X8662000Y-2700000D02*
X8462000Y-2900000D01*
X8562000Y-2900000D02*
X8662000Y-2800000D01*
X8562000Y-2700000D01*
X8462000Y-2800000D01*
X8562000Y-2900000D01*
X17550000Y-4933800D02*
X17550000Y-5153800D01*
X17440000Y-5043800D02*
X17660000Y-5043800D01*
X17660000Y-5043800D02*
G75*
G03X17660000Y-5043800I-110000J0D01*
G01*
X17550000Y-13188800D02*
X17550000Y-13408800D01*
X17440000Y-13298800D02*
X17660000Y-13298800D01*
X17660000Y-13298800D02*
G75*
G03X17660000Y-13298800I-110000J0D01*
G01*
X22376000Y-5060800D02*
X22376000Y-5280800D01*
X22266000Y-5170800D02*
X22486000Y-5170800D01*
X22486000Y-5170800D02*
G75*
G03X22486000Y-5170800I-110000J0D01*
G01*
X22376000Y-12553800D02*
X22376000Y-12773800D01*
X22266000Y-12663800D02*
X22486000Y-12663800D01*
X22486000Y-12663800D02*
G75*
G03X22486000Y-12663800I-110000J0D01*
G01*
X9507764Y-3607764D02*
X9507764Y-3392236D01*
X9292236Y-3392236D01*
X9292236Y-3607764D01*
X9507764Y-3607764D01*
X9552400Y-3500000D02*
G75*
G03X9552400Y-3500000I-152400J0D01*
G01*
X9507764Y-14807764D02*
X9507764Y-14592236D01*
X9292236Y-14592236D01*
X9292236Y-14807764D01*
X9507764Y-14807764D01*
X9552400Y-14700000D02*
G75*
G03X9552400Y-14700000I-152400J0D01*
G01*
X23657764Y-3607764D02*
X23657764Y-3392236D01*
X23442236Y-3392236D01*
X23442236Y-3607764D01*
X23657764Y-3607764D01*
X23702400Y-3500000D02*
G75*
G03X23702400Y-3500000I-152400J0D01*
G01*
X23657764Y-14807764D02*
X23657764Y-14592236D01*
X23442236Y-14592236D01*
X23442236Y-14807764D01*
X23657764Y-14807764D01*
X23702400Y-14700000D02*
G75*
G03X23702400Y-14700000I-152400J0D01*
G01*
D13*
X6359928Y-16983214D02*
X6359928Y-16683214D01*
X6431357Y-16683214D01*
X6474214Y-16697500D01*
X6502786Y-16726071D01*
X6517071Y-16754643D01*
X6531357Y-16811786D01*
X6531357Y-16854643D01*
X6517071Y-16911786D01*
X6502786Y-16940357D01*
X6474214Y-16968929D01*
X6431357Y-16983214D01*
X6359928Y-16983214D01*
X6659928Y-16983214D02*
X6659928Y-16783214D01*
X6659928Y-16840357D02*
X6674214Y-16811786D01*
X6688500Y-16797500D01*
X6717071Y-16783214D01*
X6745643Y-16783214D01*
X6845643Y-16983214D02*
X6845643Y-16783214D01*
X6845643Y-16683214D02*
X6831357Y-16697500D01*
X6845643Y-16711786D01*
X6859928Y-16697500D01*
X6845643Y-16683214D01*
X6845643Y-16711786D01*
X7031357Y-16983214D02*
X7002786Y-16968929D01*
X6988500Y-16940357D01*
X6988500Y-16683214D01*
X7188500Y-16983214D02*
X7159928Y-16968929D01*
X7145643Y-16940357D01*
X7145643Y-16683214D01*
X7531357Y-16983214D02*
X7531357Y-16683214D01*
X7631357Y-16897500D01*
X7731357Y-16683214D01*
X7731357Y-16983214D01*
X8002786Y-16983214D02*
X8002786Y-16826072D01*
X7988500Y-16797500D01*
X7959928Y-16783214D01*
X7902786Y-16783214D01*
X7874214Y-16797500D01*
X8002786Y-16968929D02*
X7974214Y-16983214D01*
X7902786Y-16983214D01*
X7874214Y-16968929D01*
X7859928Y-16940357D01*
X7859928Y-16911786D01*
X7874214Y-16883214D01*
X7902786Y-16868929D01*
X7974214Y-16868929D01*
X8002786Y-16854643D01*
X8145643Y-16783214D02*
X8145643Y-17083214D01*
X8145643Y-16797500D02*
X8174214Y-16783214D01*
X8231357Y-16783214D01*
X8259928Y-16797500D01*
X8274214Y-16811786D01*
X8288500Y-16840357D01*
X8288500Y-16926072D01*
X8274214Y-16954643D01*
X8259928Y-16968929D01*
X8231357Y-16983214D01*
X8174214Y-16983214D01*
X8145643Y-16968929D01*
X8417071Y-16954643D02*
X8431357Y-16968929D01*
X8417071Y-16983214D01*
X8402786Y-16968929D01*
X8417071Y-16954643D01*
X8417071Y-16983214D01*
X8417071Y-16797500D02*
X8431357Y-16811786D01*
X8417071Y-16826072D01*
X8402786Y-16811786D01*
X8417071Y-16797500D01*
X8417071Y-16826072D01*
X6048500Y-17457500D02*
X6088500Y-17497500D01*
X6088500Y-17457500D02*
X6048500Y-17497500D01*
X6417071Y-17313214D02*
X6445643Y-17313214D01*
X6474214Y-17327500D01*
X6488500Y-17341786D01*
X6502786Y-17370357D01*
X6517071Y-17427500D01*
X6517071Y-17498929D01*
X6502786Y-17556072D01*
X6488500Y-17584643D01*
X6474214Y-17598929D01*
X6445643Y-17613214D01*
X6417071Y-17613214D01*
X6388500Y-17598929D01*
X6374214Y-17584643D01*
X6359928Y-17556072D01*
X6345643Y-17498929D01*
X6345643Y-17427500D01*
X6359928Y-17370357D01*
X6374214Y-17341786D01*
X6388500Y-17327500D01*
X6417071Y-17313214D01*
X6645643Y-17584643D02*
X6659928Y-17598929D01*
X6645643Y-17613214D01*
X6631357Y-17598929D01*
X6645643Y-17584643D01*
X6645643Y-17613214D01*
X6917071Y-17413214D02*
X6917071Y-17613214D01*
X6845643Y-17298929D02*
X6774214Y-17513214D01*
X6959928Y-17513214D01*
X7131357Y-17313214D02*
X7159928Y-17313214D01*
X7188500Y-17327500D01*
X7202786Y-17341786D01*
X7217071Y-17370357D01*
X7231357Y-17427500D01*
X7231357Y-17498929D01*
X7217071Y-17556072D01*
X7202786Y-17584643D01*
X7188500Y-17598929D01*
X7159928Y-17613214D01*
X7131357Y-17613214D01*
X7102786Y-17598929D01*
X7088500Y-17584643D01*
X7074214Y-17556072D01*
X7059928Y-17498929D01*
X7059928Y-17427500D01*
X7074214Y-17370357D01*
X7088500Y-17341786D01*
X7102786Y-17327500D01*
X7131357Y-17313214D01*
X7359928Y-17613214D02*
X7359928Y-17413214D01*
X7359928Y-17441786D02*
X7374214Y-17427500D01*
X7402786Y-17413214D01*
X7445643Y-17413214D01*
X7474214Y-17427500D01*
X7488500Y-17456072D01*
X7488500Y-17613214D01*
X7488500Y-17456072D02*
X7502786Y-17427500D01*
X7531357Y-17413214D01*
X7574214Y-17413214D01*
X7602786Y-17427500D01*
X7617071Y-17456072D01*
X7617071Y-17613214D01*
X7759928Y-17613214D02*
X7759928Y-17413214D01*
X7759928Y-17441786D02*
X7774214Y-17427500D01*
X7802786Y-17413214D01*
X7845643Y-17413214D01*
X7874214Y-17427500D01*
X7888500Y-17456072D01*
X7888500Y-17613214D01*
X7888500Y-17456072D02*
X7902786Y-17427500D01*
X7931357Y-17413214D01*
X7974214Y-17413214D01*
X8002786Y-17427500D01*
X8017071Y-17456072D01*
X8017071Y-17613214D01*
X8602786Y-17298929D02*
X8345643Y-17684643D01*
X8988500Y-17313214D02*
X9017071Y-17313214D01*
X9045643Y-17327500D01*
X9059928Y-17341786D01*
X9074214Y-17370357D01*
X9088500Y-17427500D01*
X9088500Y-17498929D01*
X9074214Y-17556072D01*
X9059928Y-17584643D01*
X9045643Y-17598929D01*
X9017071Y-17613214D01*
X8988500Y-17613214D01*
X8959928Y-17598929D01*
X8945643Y-17584643D01*
X8931357Y-17556072D01*
X8917071Y-17498929D01*
X8917071Y-17427500D01*
X8931357Y-17370357D01*
X8945643Y-17341786D01*
X8959928Y-17327500D01*
X8988500Y-17313214D01*
X9217071Y-17584643D02*
X9231357Y-17598929D01*
X9217071Y-17613214D01*
X9202786Y-17598929D01*
X9217071Y-17584643D01*
X9217071Y-17613214D01*
X9417071Y-17313214D02*
X9445643Y-17313214D01*
X9474214Y-17327500D01*
X9488500Y-17341786D01*
X9502786Y-17370357D01*
X9517071Y-17427500D01*
X9517071Y-17498929D01*
X9502786Y-17556072D01*
X9488500Y-17584643D01*
X9474214Y-17598929D01*
X9445643Y-17613214D01*
X9417071Y-17613214D01*
X9388500Y-17598929D01*
X9374214Y-17584643D01*
X9359928Y-17556072D01*
X9345643Y-17498929D01*
X9345643Y-17427500D01*
X9359928Y-17370357D01*
X9374214Y-17341786D01*
X9388500Y-17327500D01*
X9417071Y-17313214D01*
X9802786Y-17613214D02*
X9631357Y-17613214D01*
X9717071Y-17613214D02*
X9717071Y-17313214D01*
X9688500Y-17356072D01*
X9659928Y-17384643D01*
X9631357Y-17398929D01*
X10059928Y-17313214D02*
X10002786Y-17313214D01*
X9974214Y-17327500D01*
X9959928Y-17341786D01*
X9931357Y-17384643D01*
X9917071Y-17441786D01*
X9917071Y-17556072D01*
X9931357Y-17584643D01*
X9945643Y-17598929D01*
X9974214Y-17613214D01*
X10031357Y-17613214D01*
X10059928Y-17598929D01*
X10074214Y-17584643D01*
X10088500Y-17556072D01*
X10088500Y-17484643D01*
X10074214Y-17456072D01*
X10059928Y-17441786D01*
X10031357Y-17427500D01*
X9974214Y-17427500D01*
X9945643Y-17441786D01*
X9931357Y-17456072D01*
X9917071Y-17484643D01*
X10202786Y-17313214D02*
X10202786Y-17370357D01*
X10317071Y-17313214D02*
X10317071Y-17370357D01*
X10759928Y-17727500D02*
X10745643Y-17713214D01*
X10717071Y-17670357D01*
X10702786Y-17641786D01*
X10688500Y-17598929D01*
X10674214Y-17527500D01*
X10674214Y-17470357D01*
X10688500Y-17398929D01*
X10702786Y-17356072D01*
X10717071Y-17327500D01*
X10745643Y-17284643D01*
X10759928Y-17270357D01*
X10845643Y-17313214D02*
X11031357Y-17313214D01*
X10931357Y-17427500D01*
X10974214Y-17427500D01*
X11002786Y-17441786D01*
X11017071Y-17456072D01*
X11031357Y-17484643D01*
X11031357Y-17556072D01*
X11017071Y-17584643D01*
X11002786Y-17598929D01*
X10974214Y-17613214D01*
X10888500Y-17613214D01*
X10859928Y-17598929D01*
X10845643Y-17584643D01*
X11174214Y-17613214D02*
X11231357Y-17613214D01*
X11259928Y-17598929D01*
X11274214Y-17584643D01*
X11302785Y-17541786D01*
X11317071Y-17484643D01*
X11317071Y-17370357D01*
X11302785Y-17341786D01*
X11288500Y-17327500D01*
X11259928Y-17313214D01*
X11202785Y-17313214D01*
X11174214Y-17327500D01*
X11159928Y-17341786D01*
X11145643Y-17370357D01*
X11145643Y-17441786D01*
X11159928Y-17470357D01*
X11174214Y-17484643D01*
X11202785Y-17498929D01*
X11259928Y-17498929D01*
X11288500Y-17484643D01*
X11302785Y-17470357D01*
X11317071Y-17441786D01*
X11674214Y-17613214D02*
X11674214Y-17313214D01*
X11802785Y-17613214D02*
X11802785Y-17456072D01*
X11788500Y-17427500D01*
X11759928Y-17413214D01*
X11717071Y-17413214D01*
X11688500Y-17427500D01*
X11674214Y-17441786D01*
X11988500Y-17613214D02*
X11959928Y-17598929D01*
X11945643Y-17584643D01*
X11931357Y-17556072D01*
X11931357Y-17470357D01*
X11945643Y-17441786D01*
X11959928Y-17427500D01*
X11988500Y-17413214D01*
X12031357Y-17413214D01*
X12059928Y-17427500D01*
X12074214Y-17441786D01*
X12088500Y-17470357D01*
X12088500Y-17556072D01*
X12074214Y-17584643D01*
X12059928Y-17598929D01*
X12031357Y-17613214D01*
X11988500Y-17613214D01*
X12259928Y-17613214D02*
X12231357Y-17598929D01*
X12217071Y-17570357D01*
X12217071Y-17313214D01*
X12488500Y-17598929D02*
X12459928Y-17613214D01*
X12402786Y-17613214D01*
X12374214Y-17598929D01*
X12359928Y-17570357D01*
X12359928Y-17456072D01*
X12374214Y-17427500D01*
X12402786Y-17413214D01*
X12459928Y-17413214D01*
X12488500Y-17427500D01*
X12502786Y-17456072D01*
X12502786Y-17484643D01*
X12359928Y-17513214D01*
X12617071Y-17598929D02*
X12645643Y-17613214D01*
X12702786Y-17613214D01*
X12731357Y-17598929D01*
X12745643Y-17570357D01*
X12745643Y-17556072D01*
X12731357Y-17527500D01*
X12702786Y-17513214D01*
X12659928Y-17513214D01*
X12631357Y-17498929D01*
X12617071Y-17470357D01*
X12617071Y-17456072D01*
X12631357Y-17427500D01*
X12659928Y-17413214D01*
X12702786Y-17413214D01*
X12731357Y-17427500D01*
X12845643Y-17727500D02*
X12859928Y-17713214D01*
X12888500Y-17670357D01*
X12902786Y-17641786D01*
X12917071Y-17598929D01*
X12931357Y-17527500D01*
X12931357Y-17470357D01*
X12917071Y-17398929D01*
X12902786Y-17356072D01*
X12888500Y-17327500D01*
X12859928Y-17284643D01*
X12845643Y-17270357D01*
X6088500Y-17873500D02*
G75*
G03X6088500Y-17873500I-40000J0D01*
G01*
X6417071Y-17709214D02*
X6445643Y-17709214D01*
X6474214Y-17723500D01*
X6488500Y-17737786D01*
X6502786Y-17766357D01*
X6517071Y-17823500D01*
X6517071Y-17894929D01*
X6502786Y-17952072D01*
X6488500Y-17980643D01*
X6474214Y-17994929D01*
X6445643Y-18009214D01*
X6417071Y-18009214D01*
X6388500Y-17994929D01*
X6374214Y-17980643D01*
X6359928Y-17952072D01*
X6345643Y-17894929D01*
X6345643Y-17823500D01*
X6359928Y-17766357D01*
X6374214Y-17737786D01*
X6388500Y-17723500D01*
X6417071Y-17709214D01*
X6645643Y-17980643D02*
X6659928Y-17994929D01*
X6645643Y-18009214D01*
X6631357Y-17994929D01*
X6645643Y-17980643D01*
X6645643Y-18009214D01*
X6831357Y-17837786D02*
X6802786Y-17823500D01*
X6788500Y-17809214D01*
X6774214Y-17780643D01*
X6774214Y-17766357D01*
X6788500Y-17737786D01*
X6802786Y-17723500D01*
X6831357Y-17709214D01*
X6888500Y-17709214D01*
X6917071Y-17723500D01*
X6931357Y-17737786D01*
X6945643Y-17766357D01*
X6945643Y-17780643D01*
X6931357Y-17809214D01*
X6917071Y-17823500D01*
X6888500Y-17837786D01*
X6831357Y-17837786D01*
X6802786Y-17852072D01*
X6788500Y-17866357D01*
X6774214Y-17894929D01*
X6774214Y-17952072D01*
X6788500Y-17980643D01*
X6802786Y-17994929D01*
X6831357Y-18009214D01*
X6888500Y-18009214D01*
X6917071Y-17994929D01*
X6931357Y-17980643D01*
X6945643Y-17952072D01*
X6945643Y-17894929D01*
X6931357Y-17866357D01*
X6917071Y-17852072D01*
X6888500Y-17837786D01*
X7131357Y-17709214D02*
X7159928Y-17709214D01*
X7188500Y-17723500D01*
X7202786Y-17737786D01*
X7217071Y-17766357D01*
X7231357Y-17823500D01*
X7231357Y-17894929D01*
X7217071Y-17952072D01*
X7202786Y-17980643D01*
X7188500Y-17994929D01*
X7159928Y-18009214D01*
X7131357Y-18009214D01*
X7102786Y-17994929D01*
X7088500Y-17980643D01*
X7074214Y-17952072D01*
X7059928Y-17894929D01*
X7059928Y-17823500D01*
X7074214Y-17766357D01*
X7088500Y-17737786D01*
X7102786Y-17723500D01*
X7131357Y-17709214D01*
X7359928Y-18009214D02*
X7359928Y-17809214D01*
X7359928Y-17837786D02*
X7374214Y-17823500D01*
X7402786Y-17809214D01*
X7445643Y-17809214D01*
X7474214Y-17823500D01*
X7488500Y-17852072D01*
X7488500Y-18009214D01*
X7488500Y-17852072D02*
X7502786Y-17823500D01*
X7531357Y-17809214D01*
X7574214Y-17809214D01*
X7602786Y-17823500D01*
X7617071Y-17852072D01*
X7617071Y-18009214D01*
X7759928Y-18009214D02*
X7759928Y-17809214D01*
X7759928Y-17837786D02*
X7774214Y-17823500D01*
X7802786Y-17809214D01*
X7845643Y-17809214D01*
X7874214Y-17823500D01*
X7888500Y-17852072D01*
X7888500Y-18009214D01*
X7888500Y-17852072D02*
X7902786Y-17823500D01*
X7931357Y-17809214D01*
X7974214Y-17809214D01*
X8002786Y-17823500D01*
X8017071Y-17852072D01*
X8017071Y-18009214D01*
X8602786Y-17694929D02*
X8345643Y-18080643D01*
X8988500Y-17709214D02*
X9017071Y-17709214D01*
X9045643Y-17723500D01*
X9059928Y-17737786D01*
X9074214Y-17766357D01*
X9088500Y-17823500D01*
X9088500Y-17894929D01*
X9074214Y-17952072D01*
X9059928Y-17980643D01*
X9045643Y-17994929D01*
X9017071Y-18009214D01*
X8988500Y-18009214D01*
X8959928Y-17994929D01*
X8945643Y-17980643D01*
X8931357Y-17952072D01*
X8917071Y-17894929D01*
X8917071Y-17823500D01*
X8931357Y-17766357D01*
X8945643Y-17737786D01*
X8959928Y-17723500D01*
X8988500Y-17709214D01*
X9217071Y-17980643D02*
X9231357Y-17994929D01*
X9217071Y-18009214D01*
X9202786Y-17994929D01*
X9217071Y-17980643D01*
X9217071Y-18009214D01*
X9417071Y-17709214D02*
X9445643Y-17709214D01*
X9474214Y-17723500D01*
X9488500Y-17737786D01*
X9502786Y-17766357D01*
X9517071Y-17823500D01*
X9517071Y-17894929D01*
X9502786Y-17952072D01*
X9488500Y-17980643D01*
X9474214Y-17994929D01*
X9445643Y-18009214D01*
X9417071Y-18009214D01*
X9388500Y-17994929D01*
X9374214Y-17980643D01*
X9359928Y-17952072D01*
X9345643Y-17894929D01*
X9345643Y-17823500D01*
X9359928Y-17766357D01*
X9374214Y-17737786D01*
X9388500Y-17723500D01*
X9417071Y-17709214D01*
X9617071Y-17709214D02*
X9802786Y-17709214D01*
X9702786Y-17823500D01*
X9745643Y-17823500D01*
X9774214Y-17837786D01*
X9788500Y-17852072D01*
X9802786Y-17880643D01*
X9802786Y-17952072D01*
X9788500Y-17980643D01*
X9774214Y-17994929D01*
X9745643Y-18009214D01*
X9659928Y-18009214D01*
X9631357Y-17994929D01*
X9617071Y-17980643D01*
X10088500Y-18009214D02*
X9917071Y-18009214D01*
X10002786Y-18009214D02*
X10002786Y-17709214D01*
X9974214Y-17752072D01*
X9945643Y-17780643D01*
X9917071Y-17794929D01*
X10202786Y-17709214D02*
X10202786Y-17766357D01*
X10317071Y-17709214D02*
X10317071Y-17766357D01*
X10759928Y-18123500D02*
X10745643Y-18109214D01*
X10717071Y-18066357D01*
X10702786Y-18037786D01*
X10688500Y-17994929D01*
X10674214Y-17923500D01*
X10674214Y-17866357D01*
X10688500Y-17794929D01*
X10702786Y-17752072D01*
X10717071Y-17723500D01*
X10745643Y-17680643D01*
X10759928Y-17666357D01*
X10845643Y-17709214D02*
X11045643Y-17709214D01*
X10917071Y-18009214D01*
X11217071Y-17709214D02*
X11245643Y-17709214D01*
X11274214Y-17723500D01*
X11288500Y-17737786D01*
X11302785Y-17766357D01*
X11317071Y-17823500D01*
X11317071Y-17894929D01*
X11302785Y-17952072D01*
X11288500Y-17980643D01*
X11274214Y-17994929D01*
X11245643Y-18009214D01*
X11217071Y-18009214D01*
X11188500Y-17994929D01*
X11174214Y-17980643D01*
X11159928Y-17952072D01*
X11145643Y-17894929D01*
X11145643Y-17823500D01*
X11159928Y-17766357D01*
X11174214Y-17737786D01*
X11188500Y-17723500D01*
X11217071Y-17709214D01*
X11674214Y-18009214D02*
X11674214Y-17709214D01*
X11802785Y-18009214D02*
X11802785Y-17852072D01*
X11788500Y-17823500D01*
X11759928Y-17809214D01*
X11717071Y-17809214D01*
X11688500Y-17823500D01*
X11674214Y-17837786D01*
X11988500Y-18009214D02*
X11959928Y-17994929D01*
X11945643Y-17980643D01*
X11931357Y-17952072D01*
X11931357Y-17866357D01*
X11945643Y-17837786D01*
X11959928Y-17823500D01*
X11988500Y-17809214D01*
X12031357Y-17809214D01*
X12059928Y-17823500D01*
X12074214Y-17837786D01*
X12088500Y-17866357D01*
X12088500Y-17952072D01*
X12074214Y-17980643D01*
X12059928Y-17994929D01*
X12031357Y-18009214D01*
X11988500Y-18009214D01*
X12259928Y-18009214D02*
X12231357Y-17994929D01*
X12217071Y-17966357D01*
X12217071Y-17709214D01*
X12488500Y-17994929D02*
X12459928Y-18009214D01*
X12402786Y-18009214D01*
X12374214Y-17994929D01*
X12359928Y-17966357D01*
X12359928Y-17852072D01*
X12374214Y-17823500D01*
X12402786Y-17809214D01*
X12459928Y-17809214D01*
X12488500Y-17823500D01*
X12502786Y-17852072D01*
X12502786Y-17880643D01*
X12359928Y-17909214D01*
X12617071Y-17994929D02*
X12645643Y-18009214D01*
X12702786Y-18009214D01*
X12731357Y-17994929D01*
X12745643Y-17966357D01*
X12745643Y-17952072D01*
X12731357Y-17923500D01*
X12702786Y-17909214D01*
X12659928Y-17909214D01*
X12631357Y-17894929D01*
X12617071Y-17866357D01*
X12617071Y-17852072D01*
X12631357Y-17823500D01*
X12659928Y-17809214D01*
X12702786Y-17809214D01*
X12731357Y-17823500D01*
X12845643Y-18123500D02*
X12859928Y-18109214D01*
X12888500Y-18066357D01*
X12902786Y-18037786D01*
X12917071Y-17994929D01*
X12931357Y-17923500D01*
X12931357Y-17866357D01*
X12917071Y-17794929D01*
X12902786Y-17752072D01*
X12888500Y-17723500D01*
X12859928Y-17680643D01*
X12845643Y-17666357D01*
X6047860Y-18228860D02*
X6047860Y-18310140D01*
X6007220Y-18269500D02*
X6088500Y-18269500D01*
X6417071Y-18105214D02*
X6445643Y-18105214D01*
X6474214Y-18119500D01*
X6488500Y-18133786D01*
X6502786Y-18162357D01*
X6517071Y-18219500D01*
X6517071Y-18290929D01*
X6502786Y-18348072D01*
X6488500Y-18376643D01*
X6474214Y-18390929D01*
X6445643Y-18405214D01*
X6417071Y-18405214D01*
X6388500Y-18390929D01*
X6374214Y-18376643D01*
X6359928Y-18348072D01*
X6345643Y-18290929D01*
X6345643Y-18219500D01*
X6359928Y-18162357D01*
X6374214Y-18133786D01*
X6388500Y-18119500D01*
X6417071Y-18105214D01*
X6645643Y-18376643D02*
X6659928Y-18390929D01*
X6645643Y-18405214D01*
X6631357Y-18390929D01*
X6645643Y-18376643D01*
X6645643Y-18405214D01*
X6831357Y-18233786D02*
X6802786Y-18219500D01*
X6788500Y-18205214D01*
X6774214Y-18176643D01*
X6774214Y-18162357D01*
X6788500Y-18133786D01*
X6802786Y-18119500D01*
X6831357Y-18105214D01*
X6888500Y-18105214D01*
X6917071Y-18119500D01*
X6931357Y-18133786D01*
X6945643Y-18162357D01*
X6945643Y-18176643D01*
X6931357Y-18205214D01*
X6917071Y-18219500D01*
X6888500Y-18233786D01*
X6831357Y-18233786D01*
X6802786Y-18248072D01*
X6788500Y-18262357D01*
X6774214Y-18290929D01*
X6774214Y-18348072D01*
X6788500Y-18376643D01*
X6802786Y-18390929D01*
X6831357Y-18405214D01*
X6888500Y-18405214D01*
X6917071Y-18390929D01*
X6931357Y-18376643D01*
X6945643Y-18348072D01*
X6945643Y-18290929D01*
X6931357Y-18262357D01*
X6917071Y-18248072D01*
X6888500Y-18233786D01*
X7231357Y-18405214D02*
X7059928Y-18405214D01*
X7145643Y-18405214D02*
X7145643Y-18105214D01*
X7117071Y-18148072D01*
X7088500Y-18176643D01*
X7059928Y-18190929D01*
X7359928Y-18405214D02*
X7359928Y-18205214D01*
X7359928Y-18233786D02*
X7374214Y-18219500D01*
X7402786Y-18205214D01*
X7445643Y-18205214D01*
X7474214Y-18219500D01*
X7488500Y-18248072D01*
X7488500Y-18405214D01*
X7488500Y-18248072D02*
X7502786Y-18219500D01*
X7531357Y-18205214D01*
X7574214Y-18205214D01*
X7602786Y-18219500D01*
X7617071Y-18248072D01*
X7617071Y-18405214D01*
X7759928Y-18405214D02*
X7759928Y-18205214D01*
X7759928Y-18233786D02*
X7774214Y-18219500D01*
X7802786Y-18205214D01*
X7845643Y-18205214D01*
X7874214Y-18219500D01*
X7888500Y-18248072D01*
X7888500Y-18405214D01*
X7888500Y-18248072D02*
X7902786Y-18219500D01*
X7931357Y-18205214D01*
X7974214Y-18205214D01*
X8002786Y-18219500D01*
X8017071Y-18248072D01*
X8017071Y-18405214D01*
X8602786Y-18090929D02*
X8345643Y-18476643D01*
X8988500Y-18105214D02*
X9017071Y-18105214D01*
X9045643Y-18119500D01*
X9059928Y-18133786D01*
X9074214Y-18162357D01*
X9088500Y-18219500D01*
X9088500Y-18290929D01*
X9074214Y-18348072D01*
X9059928Y-18376643D01*
X9045643Y-18390929D01*
X9017071Y-18405214D01*
X8988500Y-18405214D01*
X8959928Y-18390929D01*
X8945643Y-18376643D01*
X8931357Y-18348072D01*
X8917071Y-18290929D01*
X8917071Y-18219500D01*
X8931357Y-18162357D01*
X8945643Y-18133786D01*
X8959928Y-18119500D01*
X8988500Y-18105214D01*
X9217071Y-18376643D02*
X9231357Y-18390929D01*
X9217071Y-18405214D01*
X9202786Y-18390929D01*
X9217071Y-18376643D01*
X9217071Y-18405214D01*
X9417071Y-18105214D02*
X9445643Y-18105214D01*
X9474214Y-18119500D01*
X9488500Y-18133786D01*
X9502786Y-18162357D01*
X9517071Y-18219500D01*
X9517071Y-18290929D01*
X9502786Y-18348072D01*
X9488500Y-18376643D01*
X9474214Y-18390929D01*
X9445643Y-18405214D01*
X9417071Y-18405214D01*
X9388500Y-18390929D01*
X9374214Y-18376643D01*
X9359928Y-18348072D01*
X9345643Y-18290929D01*
X9345643Y-18219500D01*
X9359928Y-18162357D01*
X9374214Y-18133786D01*
X9388500Y-18119500D01*
X9417071Y-18105214D01*
X9617071Y-18105214D02*
X9802786Y-18105214D01*
X9702786Y-18219500D01*
X9745643Y-18219500D01*
X9774214Y-18233786D01*
X9788500Y-18248072D01*
X9802786Y-18276643D01*
X9802786Y-18348072D01*
X9788500Y-18376643D01*
X9774214Y-18390929D01*
X9745643Y-18405214D01*
X9659928Y-18405214D01*
X9631357Y-18390929D01*
X9617071Y-18376643D01*
X9917071Y-18133786D02*
X9931357Y-18119500D01*
X9959928Y-18105214D01*
X10031357Y-18105214D01*
X10059928Y-18119500D01*
X10074214Y-18133786D01*
X10088500Y-18162357D01*
X10088500Y-18190929D01*
X10074214Y-18233786D01*
X9902786Y-18405214D01*
X10088500Y-18405214D01*
X10202786Y-18105214D02*
X10202786Y-18162357D01*
X10317071Y-18105214D02*
X10317071Y-18162357D01*
X10759928Y-18519500D02*
X10745643Y-18505214D01*
X10717071Y-18462357D01*
X10702786Y-18433786D01*
X10688500Y-18390929D01*
X10674214Y-18319500D01*
X10674214Y-18262357D01*
X10688500Y-18190929D01*
X10702786Y-18148072D01*
X10717071Y-18119500D01*
X10745643Y-18076643D01*
X10759928Y-18062357D01*
X10888500Y-18405214D02*
X10945643Y-18405214D01*
X10974214Y-18390929D01*
X10988500Y-18376643D01*
X11017071Y-18333786D01*
X11031357Y-18276643D01*
X11031357Y-18162357D01*
X11017071Y-18133786D01*
X11002786Y-18119500D01*
X10974214Y-18105214D01*
X10917071Y-18105214D01*
X10888500Y-18119500D01*
X10874214Y-18133786D01*
X10859928Y-18162357D01*
X10859928Y-18233786D01*
X10874214Y-18262357D01*
X10888500Y-18276643D01*
X10917071Y-18290929D01*
X10974214Y-18290929D01*
X11002786Y-18276643D01*
X11017071Y-18262357D01*
X11031357Y-18233786D01*
X11131357Y-18105214D02*
X11331357Y-18105214D01*
X11202785Y-18405214D01*
X11674214Y-18405214D02*
X11674214Y-18105214D01*
X11802785Y-18405214D02*
X11802785Y-18248072D01*
X11788500Y-18219500D01*
X11759928Y-18205214D01*
X11717071Y-18205214D01*
X11688500Y-18219500D01*
X11674214Y-18233786D01*
X11988500Y-18405214D02*
X11959928Y-18390929D01*
X11945643Y-18376643D01*
X11931357Y-18348072D01*
X11931357Y-18262357D01*
X11945643Y-18233786D01*
X11959928Y-18219500D01*
X11988500Y-18205214D01*
X12031357Y-18205214D01*
X12059928Y-18219500D01*
X12074214Y-18233786D01*
X12088500Y-18262357D01*
X12088500Y-18348072D01*
X12074214Y-18376643D01*
X12059928Y-18390929D01*
X12031357Y-18405214D01*
X11988500Y-18405214D01*
X12259928Y-18405214D02*
X12231357Y-18390929D01*
X12217071Y-18362357D01*
X12217071Y-18105214D01*
X12488500Y-18390929D02*
X12459928Y-18405214D01*
X12402786Y-18405214D01*
X12374214Y-18390929D01*
X12359928Y-18362357D01*
X12359928Y-18248072D01*
X12374214Y-18219500D01*
X12402786Y-18205214D01*
X12459928Y-18205214D01*
X12488500Y-18219500D01*
X12502786Y-18248072D01*
X12502786Y-18276643D01*
X12359928Y-18305214D01*
X12617071Y-18390929D02*
X12645643Y-18405214D01*
X12702786Y-18405214D01*
X12731357Y-18390929D01*
X12745643Y-18362357D01*
X12745643Y-18348072D01*
X12731357Y-18319500D01*
X12702786Y-18305214D01*
X12659928Y-18305214D01*
X12631357Y-18290929D01*
X12617071Y-18262357D01*
X12617071Y-18248072D01*
X12631357Y-18219500D01*
X12659928Y-18205214D01*
X12702786Y-18205214D01*
X12731357Y-18219500D01*
X12845643Y-18519500D02*
X12859928Y-18505214D01*
X12888500Y-18462357D01*
X12902786Y-18433786D01*
X12917071Y-18390929D01*
X12931357Y-18319500D01*
X12931357Y-18262357D01*
X12917071Y-18190929D01*
X12902786Y-18148072D01*
X12888500Y-18119500D01*
X12859928Y-18076643D01*
X12845643Y-18062357D01*
X6075320Y-18697320D02*
X6075320Y-18633680D01*
X6011680Y-18633680D01*
X6011680Y-18697320D01*
X6075320Y-18697320D01*
X6417071Y-18501214D02*
X6445643Y-18501214D01*
X6474214Y-18515500D01*
X6488500Y-18529786D01*
X6502786Y-18558357D01*
X6517071Y-18615500D01*
X6517071Y-18686929D01*
X6502786Y-18744072D01*
X6488500Y-18772643D01*
X6474214Y-18786929D01*
X6445643Y-18801214D01*
X6417071Y-18801214D01*
X6388500Y-18786929D01*
X6374214Y-18772643D01*
X6359928Y-18744072D01*
X6345643Y-18686929D01*
X6345643Y-18615500D01*
X6359928Y-18558357D01*
X6374214Y-18529786D01*
X6388500Y-18515500D01*
X6417071Y-18501214D01*
X6645643Y-18772643D02*
X6659928Y-18786929D01*
X6645643Y-18801214D01*
X6631357Y-18786929D01*
X6645643Y-18772643D01*
X6645643Y-18801214D01*
X6802786Y-18801214D02*
X6859928Y-18801214D01*
X6888500Y-18786929D01*
X6902786Y-18772643D01*
X6931357Y-18729786D01*
X6945643Y-18672643D01*
X6945643Y-18558357D01*
X6931357Y-18529786D01*
X6917071Y-18515500D01*
X6888500Y-18501214D01*
X6831357Y-18501214D01*
X6802786Y-18515500D01*
X6788500Y-18529786D01*
X6774214Y-18558357D01*
X6774214Y-18629786D01*
X6788500Y-18658357D01*
X6802786Y-18672643D01*
X6831357Y-18686929D01*
X6888500Y-18686929D01*
X6917071Y-18672643D01*
X6931357Y-18658357D01*
X6945643Y-18629786D01*
X7131357Y-18501214D02*
X7159928Y-18501214D01*
X7188500Y-18515500D01*
X7202786Y-18529786D01*
X7217071Y-18558357D01*
X7231357Y-18615500D01*
X7231357Y-18686929D01*
X7217071Y-18744072D01*
X7202786Y-18772643D01*
X7188500Y-18786929D01*
X7159928Y-18801214D01*
X7131357Y-18801214D01*
X7102786Y-18786929D01*
X7088500Y-18772643D01*
X7074214Y-18744072D01*
X7059928Y-18686929D01*
X7059928Y-18615500D01*
X7074214Y-18558357D01*
X7088500Y-18529786D01*
X7102786Y-18515500D01*
X7131357Y-18501214D01*
X7359928Y-18801214D02*
X7359928Y-18601214D01*
X7359928Y-18629786D02*
X7374214Y-18615500D01*
X7402786Y-18601214D01*
X7445643Y-18601214D01*
X7474214Y-18615500D01*
X7488500Y-18644072D01*
X7488500Y-18801214D01*
X7488500Y-18644072D02*
X7502786Y-18615500D01*
X7531357Y-18601214D01*
X7574214Y-18601214D01*
X7602786Y-18615500D01*
X7617071Y-18644072D01*
X7617071Y-18801214D01*
X7759928Y-18801214D02*
X7759928Y-18601214D01*
X7759928Y-18629786D02*
X7774214Y-18615500D01*
X7802786Y-18601214D01*
X7845643Y-18601214D01*
X7874214Y-18615500D01*
X7888500Y-18644072D01*
X7888500Y-18801214D01*
X7888500Y-18644072D02*
X7902786Y-18615500D01*
X7931357Y-18601214D01*
X7974214Y-18601214D01*
X8002786Y-18615500D01*
X8017071Y-18644072D01*
X8017071Y-18801214D01*
X8602786Y-18486929D02*
X8345643Y-18872643D01*
X8988500Y-18501214D02*
X9017071Y-18501214D01*
X9045643Y-18515500D01*
X9059928Y-18529786D01*
X9074214Y-18558357D01*
X9088500Y-18615500D01*
X9088500Y-18686929D01*
X9074214Y-18744072D01*
X9059928Y-18772643D01*
X9045643Y-18786929D01*
X9017071Y-18801214D01*
X8988500Y-18801214D01*
X8959928Y-18786929D01*
X8945643Y-18772643D01*
X8931357Y-18744072D01*
X8917071Y-18686929D01*
X8917071Y-18615500D01*
X8931357Y-18558357D01*
X8945643Y-18529786D01*
X8959928Y-18515500D01*
X8988500Y-18501214D01*
X9217071Y-18772643D02*
X9231357Y-18786929D01*
X9217071Y-18801214D01*
X9202786Y-18786929D01*
X9217071Y-18772643D01*
X9217071Y-18801214D01*
X9417071Y-18501214D02*
X9445643Y-18501214D01*
X9474214Y-18515500D01*
X9488500Y-18529786D01*
X9502786Y-18558357D01*
X9517071Y-18615500D01*
X9517071Y-18686929D01*
X9502786Y-18744072D01*
X9488500Y-18772643D01*
X9474214Y-18786929D01*
X9445643Y-18801214D01*
X9417071Y-18801214D01*
X9388500Y-18786929D01*
X9374214Y-18772643D01*
X9359928Y-18744072D01*
X9345643Y-18686929D01*
X9345643Y-18615500D01*
X9359928Y-18558357D01*
X9374214Y-18529786D01*
X9388500Y-18515500D01*
X9417071Y-18501214D01*
X9617071Y-18501214D02*
X9802786Y-18501214D01*
X9702786Y-18615500D01*
X9745643Y-18615500D01*
X9774214Y-18629786D01*
X9788500Y-18644072D01*
X9802786Y-18672643D01*
X9802786Y-18744072D01*
X9788500Y-18772643D01*
X9774214Y-18786929D01*
X9745643Y-18801214D01*
X9659928Y-18801214D01*
X9631357Y-18786929D01*
X9617071Y-18772643D01*
X10074214Y-18501214D02*
X9931357Y-18501214D01*
X9917071Y-18644072D01*
X9931357Y-18629786D01*
X9959928Y-18615500D01*
X10031357Y-18615500D01*
X10059928Y-18629786D01*
X10074214Y-18644072D01*
X10088500Y-18672643D01*
X10088500Y-18744072D01*
X10074214Y-18772643D01*
X10059928Y-18786929D01*
X10031357Y-18801214D01*
X9959928Y-18801214D01*
X9931357Y-18786929D01*
X9917071Y-18772643D01*
X10202786Y-18501214D02*
X10202786Y-18558357D01*
X10317071Y-18501214D02*
X10317071Y-18558357D01*
X10759928Y-18915500D02*
X10745643Y-18901214D01*
X10717071Y-18858357D01*
X10702786Y-18829786D01*
X10688500Y-18786929D01*
X10674214Y-18715500D01*
X10674214Y-18658357D01*
X10688500Y-18586929D01*
X10702786Y-18544072D01*
X10717071Y-18515500D01*
X10745643Y-18472643D01*
X10759928Y-18458357D01*
X11002786Y-18601214D02*
X11002786Y-18801214D01*
X10931357Y-18486929D02*
X10859928Y-18701214D01*
X11045643Y-18701214D01*
X11388500Y-18801214D02*
X11388500Y-18501214D01*
X11517071Y-18801214D02*
X11517071Y-18644072D01*
X11502785Y-18615500D01*
X11474214Y-18601214D01*
X11431357Y-18601214D01*
X11402785Y-18615500D01*
X11388500Y-18629786D01*
X11702785Y-18801214D02*
X11674214Y-18786929D01*
X11659928Y-18772643D01*
X11645643Y-18744072D01*
X11645643Y-18658357D01*
X11659928Y-18629786D01*
X11674214Y-18615500D01*
X11702785Y-18601214D01*
X11745643Y-18601214D01*
X11774214Y-18615500D01*
X11788500Y-18629786D01*
X11802785Y-18658357D01*
X11802785Y-18744072D01*
X11788500Y-18772643D01*
X11774214Y-18786929D01*
X11745643Y-18801214D01*
X11702785Y-18801214D01*
X11974214Y-18801214D02*
X11945643Y-18786929D01*
X11931357Y-18758357D01*
X11931357Y-18501214D01*
X12202786Y-18786929D02*
X12174214Y-18801214D01*
X12117071Y-18801214D01*
X12088500Y-18786929D01*
X12074214Y-18758357D01*
X12074214Y-18644072D01*
X12088500Y-18615500D01*
X12117071Y-18601214D01*
X12174214Y-18601214D01*
X12202786Y-18615500D01*
X12217071Y-18644072D01*
X12217071Y-18672643D01*
X12074214Y-18701214D01*
X12331357Y-18786929D02*
X12359928Y-18801214D01*
X12417071Y-18801214D01*
X12445643Y-18786929D01*
X12459928Y-18758357D01*
X12459928Y-18744072D01*
X12445643Y-18715500D01*
X12417071Y-18701214D01*
X12374214Y-18701214D01*
X12345643Y-18686929D01*
X12331357Y-18658357D01*
X12331357Y-18644072D01*
X12345643Y-18615500D01*
X12374214Y-18601214D01*
X12417071Y-18601214D01*
X12445643Y-18615500D01*
X12559928Y-18915500D02*
X12574214Y-18901214D01*
X12602786Y-18858357D01*
X12617071Y-18829786D01*
X12631357Y-18786929D01*
X12645643Y-18715500D01*
X12645643Y-18658357D01*
X12631357Y-18586929D01*
X12617071Y-18544072D01*
X12602786Y-18515500D01*
X12574214Y-18472643D01*
X12559928Y-18458357D01*
X6038462Y-19111538D02*
X6088500Y-19061500D01*
X6038462Y-19011462D01*
X5988424Y-19061500D01*
X6038462Y-19111538D01*
X6517071Y-19197214D02*
X6345643Y-19197214D01*
X6431357Y-19197214D02*
X6431357Y-18897214D01*
X6402786Y-18940072D01*
X6374214Y-18968643D01*
X6345643Y-18982929D01*
X6645643Y-19168643D02*
X6659928Y-19182929D01*
X6645643Y-19197214D01*
X6631357Y-19182929D01*
X6645643Y-19168643D01*
X6645643Y-19197214D01*
X6845643Y-18897214D02*
X6874214Y-18897214D01*
X6902786Y-18911500D01*
X6917071Y-18925786D01*
X6931357Y-18954357D01*
X6945643Y-19011500D01*
X6945643Y-19082929D01*
X6931357Y-19140072D01*
X6917071Y-19168643D01*
X6902786Y-19182929D01*
X6874214Y-19197214D01*
X6845643Y-19197214D01*
X6817071Y-19182929D01*
X6802786Y-19168643D01*
X6788500Y-19140072D01*
X6774214Y-19082929D01*
X6774214Y-19011500D01*
X6788500Y-18954357D01*
X6802786Y-18925786D01*
X6817071Y-18911500D01*
X6845643Y-18897214D01*
X7131357Y-18897214D02*
X7159928Y-18897214D01*
X7188500Y-18911500D01*
X7202786Y-18925786D01*
X7217071Y-18954357D01*
X7231357Y-19011500D01*
X7231357Y-19082929D01*
X7217071Y-19140072D01*
X7202786Y-19168643D01*
X7188500Y-19182929D01*
X7159928Y-19197214D01*
X7131357Y-19197214D01*
X7102786Y-19182929D01*
X7088500Y-19168643D01*
X7074214Y-19140072D01*
X7059928Y-19082929D01*
X7059928Y-19011500D01*
X7074214Y-18954357D01*
X7088500Y-18925786D01*
X7102786Y-18911500D01*
X7131357Y-18897214D01*
X7359928Y-19197214D02*
X7359928Y-18997214D01*
X7359928Y-19025786D02*
X7374214Y-19011500D01*
X7402786Y-18997214D01*
X7445643Y-18997214D01*
X7474214Y-19011500D01*
X7488500Y-19040072D01*
X7488500Y-19197214D01*
X7488500Y-19040072D02*
X7502786Y-19011500D01*
X7531357Y-18997214D01*
X7574214Y-18997214D01*
X7602786Y-19011500D01*
X7617071Y-19040072D01*
X7617071Y-19197214D01*
X7759928Y-19197214D02*
X7759928Y-18997214D01*
X7759928Y-19025786D02*
X7774214Y-19011500D01*
X7802786Y-18997214D01*
X7845643Y-18997214D01*
X7874214Y-19011500D01*
X7888500Y-19040072D01*
X7888500Y-19197214D01*
X7888500Y-19040072D02*
X7902786Y-19011500D01*
X7931357Y-18997214D01*
X7974214Y-18997214D01*
X8002786Y-19011500D01*
X8017071Y-19040072D01*
X8017071Y-19197214D01*
X8602786Y-18882929D02*
X8345643Y-19268643D01*
X8988500Y-18897214D02*
X9017071Y-18897214D01*
X9045643Y-18911500D01*
X9059928Y-18925786D01*
X9074214Y-18954357D01*
X9088500Y-19011500D01*
X9088500Y-19082929D01*
X9074214Y-19140072D01*
X9059928Y-19168643D01*
X9045643Y-19182929D01*
X9017071Y-19197214D01*
X8988500Y-19197214D01*
X8959928Y-19182929D01*
X8945643Y-19168643D01*
X8931357Y-19140072D01*
X8917071Y-19082929D01*
X8917071Y-19011500D01*
X8931357Y-18954357D01*
X8945643Y-18925786D01*
X8959928Y-18911500D01*
X8988500Y-18897214D01*
X9217071Y-19168643D02*
X9231357Y-19182929D01*
X9217071Y-19197214D01*
X9202786Y-19182929D01*
X9217071Y-19168643D01*
X9217071Y-19197214D01*
X9417071Y-18897214D02*
X9445643Y-18897214D01*
X9474214Y-18911500D01*
X9488500Y-18925786D01*
X9502786Y-18954357D01*
X9517071Y-19011500D01*
X9517071Y-19082929D01*
X9502786Y-19140072D01*
X9488500Y-19168643D01*
X9474214Y-19182929D01*
X9445643Y-19197214D01*
X9417071Y-19197214D01*
X9388500Y-19182929D01*
X9374214Y-19168643D01*
X9359928Y-19140072D01*
X9345643Y-19082929D01*
X9345643Y-19011500D01*
X9359928Y-18954357D01*
X9374214Y-18925786D01*
X9388500Y-18911500D01*
X9417071Y-18897214D01*
X9617071Y-18897214D02*
X9802786Y-18897214D01*
X9702786Y-19011500D01*
X9745643Y-19011500D01*
X9774214Y-19025786D01*
X9788500Y-19040072D01*
X9802786Y-19068643D01*
X9802786Y-19140072D01*
X9788500Y-19168643D01*
X9774214Y-19182929D01*
X9745643Y-19197214D01*
X9659928Y-19197214D01*
X9631357Y-19182929D01*
X9617071Y-19168643D01*
X9945643Y-19197214D02*
X10002786Y-19197214D01*
X10031357Y-19182929D01*
X10045643Y-19168643D01*
X10074214Y-19125786D01*
X10088500Y-19068643D01*
X10088500Y-18954357D01*
X10074214Y-18925786D01*
X10059928Y-18911500D01*
X10031357Y-18897214D01*
X9974214Y-18897214D01*
X9945643Y-18911500D01*
X9931357Y-18925786D01*
X9917071Y-18954357D01*
X9917071Y-19025786D01*
X9931357Y-19054357D01*
X9945643Y-19068643D01*
X9974214Y-19082929D01*
X10031357Y-19082929D01*
X10059928Y-19068643D01*
X10074214Y-19054357D01*
X10088500Y-19025786D01*
X10202786Y-18897214D02*
X10202786Y-18954357D01*
X10317071Y-18897214D02*
X10317071Y-18954357D01*
X10759928Y-19311500D02*
X10745643Y-19297214D01*
X10717071Y-19254357D01*
X10702786Y-19225786D01*
X10688500Y-19182929D01*
X10674214Y-19111500D01*
X10674214Y-19054357D01*
X10688500Y-18982929D01*
X10702786Y-18940072D01*
X10717071Y-18911500D01*
X10745643Y-18868643D01*
X10759928Y-18854357D01*
X11031357Y-19197214D02*
X10859928Y-19197214D01*
X10945643Y-19197214D02*
X10945643Y-18897214D01*
X10917071Y-18940072D01*
X10888500Y-18968643D01*
X10859928Y-18982929D01*
X11174214Y-19197214D02*
X11231357Y-19197214D01*
X11259928Y-19182929D01*
X11274214Y-19168643D01*
X11302785Y-19125786D01*
X11317071Y-19068643D01*
X11317071Y-18954357D01*
X11302785Y-18925786D01*
X11288500Y-18911500D01*
X11259928Y-18897214D01*
X11202785Y-18897214D01*
X11174214Y-18911500D01*
X11159928Y-18925786D01*
X11145643Y-18954357D01*
X11145643Y-19025786D01*
X11159928Y-19054357D01*
X11174214Y-19068643D01*
X11202785Y-19082929D01*
X11259928Y-19082929D01*
X11288500Y-19068643D01*
X11302785Y-19054357D01*
X11317071Y-19025786D01*
X11674214Y-19197214D02*
X11674214Y-18897214D01*
X11802785Y-19197214D02*
X11802785Y-19040072D01*
X11788500Y-19011500D01*
X11759928Y-18997214D01*
X11717071Y-18997214D01*
X11688500Y-19011500D01*
X11674214Y-19025786D01*
X11988500Y-19197214D02*
X11959928Y-19182929D01*
X11945643Y-19168643D01*
X11931357Y-19140072D01*
X11931357Y-19054357D01*
X11945643Y-19025786D01*
X11959928Y-19011500D01*
X11988500Y-18997214D01*
X12031357Y-18997214D01*
X12059928Y-19011500D01*
X12074214Y-19025786D01*
X12088500Y-19054357D01*
X12088500Y-19140072D01*
X12074214Y-19168643D01*
X12059928Y-19182929D01*
X12031357Y-19197214D01*
X11988500Y-19197214D01*
X12259928Y-19197214D02*
X12231357Y-19182929D01*
X12217071Y-19154357D01*
X12217071Y-18897214D01*
X12488500Y-19182929D02*
X12459928Y-19197214D01*
X12402786Y-19197214D01*
X12374214Y-19182929D01*
X12359928Y-19154357D01*
X12359928Y-19040072D01*
X12374214Y-19011500D01*
X12402786Y-18997214D01*
X12459928Y-18997214D01*
X12488500Y-19011500D01*
X12502786Y-19040072D01*
X12502786Y-19068643D01*
X12359928Y-19097214D01*
X12617071Y-19182929D02*
X12645643Y-19197214D01*
X12702786Y-19197214D01*
X12731357Y-19182929D01*
X12745643Y-19154357D01*
X12745643Y-19140072D01*
X12731357Y-19111500D01*
X12702786Y-19097214D01*
X12659928Y-19097214D01*
X12631357Y-19082929D01*
X12617071Y-19054357D01*
X12617071Y-19040072D01*
X12631357Y-19011500D01*
X12659928Y-18997214D01*
X12702786Y-18997214D01*
X12731357Y-19011500D01*
X12845643Y-19311500D02*
X12859928Y-19297214D01*
X12888500Y-19254357D01*
X12902786Y-19225786D01*
X12917071Y-19182929D01*
X12931357Y-19111500D01*
X12931357Y-19054357D01*
X12917071Y-18982929D01*
X12902786Y-18940072D01*
X12888500Y-18911500D01*
X12859928Y-18868643D01*
X12845643Y-18854357D01*
X5986900Y-19406700D02*
X6088500Y-19508300D01*
X6088500Y-19406700D02*
X5986900Y-19508300D01*
X6088500Y-19457500D02*
G75*
G03X6088500Y-19457500I-50800J0D01*
G01*
X6517071Y-19593214D02*
X6345643Y-19593214D01*
X6431357Y-19593214D02*
X6431357Y-19293214D01*
X6402786Y-19336072D01*
X6374214Y-19364643D01*
X6345643Y-19378929D01*
X6645643Y-19564643D02*
X6659928Y-19578929D01*
X6645643Y-19593214D01*
X6631357Y-19578929D01*
X6645643Y-19564643D01*
X6645643Y-19593214D01*
X6845643Y-19293214D02*
X6874214Y-19293214D01*
X6902786Y-19307500D01*
X6917071Y-19321786D01*
X6931357Y-19350357D01*
X6945643Y-19407500D01*
X6945643Y-19478929D01*
X6931357Y-19536072D01*
X6917071Y-19564643D01*
X6902786Y-19578929D01*
X6874214Y-19593214D01*
X6845643Y-19593214D01*
X6817071Y-19578929D01*
X6802786Y-19564643D01*
X6788500Y-19536072D01*
X6774214Y-19478929D01*
X6774214Y-19407500D01*
X6788500Y-19350357D01*
X6802786Y-19321786D01*
X6817071Y-19307500D01*
X6845643Y-19293214D01*
X7059928Y-19321786D02*
X7074214Y-19307500D01*
X7102786Y-19293214D01*
X7174214Y-19293214D01*
X7202786Y-19307500D01*
X7217071Y-19321786D01*
X7231357Y-19350357D01*
X7231357Y-19378929D01*
X7217071Y-19421786D01*
X7045643Y-19593214D01*
X7231357Y-19593214D01*
X7359928Y-19593214D02*
X7359928Y-19393214D01*
X7359928Y-19421786D02*
X7374214Y-19407500D01*
X7402786Y-19393214D01*
X7445643Y-19393214D01*
X7474214Y-19407500D01*
X7488500Y-19436072D01*
X7488500Y-19593214D01*
X7488500Y-19436072D02*
X7502786Y-19407500D01*
X7531357Y-19393214D01*
X7574214Y-19393214D01*
X7602786Y-19407500D01*
X7617071Y-19436072D01*
X7617071Y-19593214D01*
X7759928Y-19593214D02*
X7759928Y-19393214D01*
X7759928Y-19421786D02*
X7774214Y-19407500D01*
X7802786Y-19393214D01*
X7845643Y-19393214D01*
X7874214Y-19407500D01*
X7888500Y-19436072D01*
X7888500Y-19593214D01*
X7888500Y-19436072D02*
X7902786Y-19407500D01*
X7931357Y-19393214D01*
X7974214Y-19393214D01*
X8002786Y-19407500D01*
X8017071Y-19436072D01*
X8017071Y-19593214D01*
X8602786Y-19278929D02*
X8345643Y-19664643D01*
X8988500Y-19293214D02*
X9017071Y-19293214D01*
X9045643Y-19307500D01*
X9059928Y-19321786D01*
X9074214Y-19350357D01*
X9088500Y-19407500D01*
X9088500Y-19478929D01*
X9074214Y-19536072D01*
X9059928Y-19564643D01*
X9045643Y-19578929D01*
X9017071Y-19593214D01*
X8988500Y-19593214D01*
X8959928Y-19578929D01*
X8945643Y-19564643D01*
X8931357Y-19536072D01*
X8917071Y-19478929D01*
X8917071Y-19407500D01*
X8931357Y-19350357D01*
X8945643Y-19321786D01*
X8959928Y-19307500D01*
X8988500Y-19293214D01*
X9217071Y-19564643D02*
X9231357Y-19578929D01*
X9217071Y-19593214D01*
X9202786Y-19578929D01*
X9217071Y-19564643D01*
X9217071Y-19593214D01*
X9417071Y-19293214D02*
X9445643Y-19293214D01*
X9474214Y-19307500D01*
X9488500Y-19321786D01*
X9502786Y-19350357D01*
X9517071Y-19407500D01*
X9517071Y-19478929D01*
X9502786Y-19536072D01*
X9488500Y-19564643D01*
X9474214Y-19578929D01*
X9445643Y-19593214D01*
X9417071Y-19593214D01*
X9388500Y-19578929D01*
X9374214Y-19564643D01*
X9359928Y-19536072D01*
X9345643Y-19478929D01*
X9345643Y-19407500D01*
X9359928Y-19350357D01*
X9374214Y-19321786D01*
X9388500Y-19307500D01*
X9417071Y-19293214D01*
X9774214Y-19393214D02*
X9774214Y-19593214D01*
X9702786Y-19278929D02*
X9631357Y-19493214D01*
X9817071Y-19493214D01*
X9988500Y-19293214D02*
X10017071Y-19293214D01*
X10045643Y-19307500D01*
X10059928Y-19321786D01*
X10074214Y-19350357D01*
X10088500Y-19407500D01*
X10088500Y-19478929D01*
X10074214Y-19536072D01*
X10059928Y-19564643D01*
X10045643Y-19578929D01*
X10017071Y-19593214D01*
X9988500Y-19593214D01*
X9959928Y-19578929D01*
X9945643Y-19564643D01*
X9931357Y-19536072D01*
X9917071Y-19478929D01*
X9917071Y-19407500D01*
X9931357Y-19350357D01*
X9945643Y-19321786D01*
X9959928Y-19307500D01*
X9988500Y-19293214D01*
X10202786Y-19293214D02*
X10202786Y-19350357D01*
X10317071Y-19293214D02*
X10317071Y-19350357D01*
X10759928Y-19707500D02*
X10745643Y-19693214D01*
X10717071Y-19650357D01*
X10702786Y-19621786D01*
X10688500Y-19578929D01*
X10674214Y-19507500D01*
X10674214Y-19450357D01*
X10688500Y-19378929D01*
X10702786Y-19336072D01*
X10717071Y-19307500D01*
X10745643Y-19264643D01*
X10759928Y-19250357D01*
X11031357Y-19593214D02*
X10859928Y-19593214D01*
X10945643Y-19593214D02*
X10945643Y-19293214D01*
X10917071Y-19336072D01*
X10888500Y-19364643D01*
X10859928Y-19378929D01*
X11174214Y-19593214D02*
X11231357Y-19593214D01*
X11259928Y-19578929D01*
X11274214Y-19564643D01*
X11302785Y-19521786D01*
X11317071Y-19464643D01*
X11317071Y-19350357D01*
X11302785Y-19321786D01*
X11288500Y-19307500D01*
X11259928Y-19293214D01*
X11202785Y-19293214D01*
X11174214Y-19307500D01*
X11159928Y-19321786D01*
X11145643Y-19350357D01*
X11145643Y-19421786D01*
X11159928Y-19450357D01*
X11174214Y-19464643D01*
X11202785Y-19478929D01*
X11259928Y-19478929D01*
X11288500Y-19464643D01*
X11302785Y-19450357D01*
X11317071Y-19421786D01*
X11417071Y-19293214D02*
X11602785Y-19293214D01*
X11502785Y-19407500D01*
X11545643Y-19407500D01*
X11574214Y-19421786D01*
X11588500Y-19436072D01*
X11602785Y-19464643D01*
X11602785Y-19536072D01*
X11588500Y-19564643D01*
X11574214Y-19578929D01*
X11545643Y-19593214D01*
X11459928Y-19593214D01*
X11431357Y-19578929D01*
X11417071Y-19564643D01*
X11959928Y-19593214D02*
X11959928Y-19293214D01*
X12088500Y-19593214D02*
X12088500Y-19436072D01*
X12074214Y-19407500D01*
X12045643Y-19393214D01*
X12002785Y-19393214D01*
X11974214Y-19407500D01*
X11959928Y-19421786D01*
X12274214Y-19593214D02*
X12245643Y-19578929D01*
X12231357Y-19564643D01*
X12217071Y-19536072D01*
X12217071Y-19450357D01*
X12231357Y-19421786D01*
X12245643Y-19407500D01*
X12274214Y-19393214D01*
X12317071Y-19393214D01*
X12345643Y-19407500D01*
X12359928Y-19421786D01*
X12374214Y-19450357D01*
X12374214Y-19536072D01*
X12359928Y-19564643D01*
X12345643Y-19578929D01*
X12317071Y-19593214D01*
X12274214Y-19593214D01*
X12545643Y-19593214D02*
X12517071Y-19578929D01*
X12502786Y-19550357D01*
X12502786Y-19293214D01*
X12774214Y-19578929D02*
X12745643Y-19593214D01*
X12688500Y-19593214D01*
X12659928Y-19578929D01*
X12645643Y-19550357D01*
X12645643Y-19436072D01*
X12659928Y-19407500D01*
X12688500Y-19393214D01*
X12745643Y-19393214D01*
X12774214Y-19407500D01*
X12788500Y-19436072D01*
X12788500Y-19464643D01*
X12645643Y-19493214D01*
X12902786Y-19578929D02*
X12931357Y-19593214D01*
X12988500Y-19593214D01*
X13017071Y-19578929D01*
X13031357Y-19550357D01*
X13031357Y-19536072D01*
X13017071Y-19507500D01*
X12988500Y-19493214D01*
X12945643Y-19493214D01*
X12917071Y-19478929D01*
X12902786Y-19450357D01*
X12902786Y-19436072D01*
X12917071Y-19407500D01*
X12945643Y-19393214D01*
X12988500Y-19393214D01*
X13017071Y-19407500D01*
X13131357Y-19707500D02*
X13145643Y-19693214D01*
X13174214Y-19650357D01*
X13188500Y-19621786D01*
X13202786Y-19578929D01*
X13217071Y-19507500D01*
X13217071Y-19450357D01*
X13202786Y-19378929D01*
X13188500Y-19336072D01*
X13174214Y-19307500D01*
X13145643Y-19264643D01*
X13131357Y-19250357D01*
X5968612Y-19793556D02*
X6088500Y-19913444D01*
X6088500Y-19793556D02*
X5968612Y-19913444D01*
X6028556Y-19793556D02*
X6028556Y-19913444D01*
X5968612Y-19853500D02*
X6088500Y-19853500D01*
X6517071Y-19989214D02*
X6345643Y-19989214D01*
X6431357Y-19989214D02*
X6431357Y-19689214D01*
X6402786Y-19732072D01*
X6374214Y-19760643D01*
X6345643Y-19774929D01*
X6645643Y-19960643D02*
X6659928Y-19974929D01*
X6645643Y-19989214D01*
X6631357Y-19974929D01*
X6645643Y-19960643D01*
X6645643Y-19989214D01*
X6774214Y-19717786D02*
X6788500Y-19703500D01*
X6817071Y-19689214D01*
X6888500Y-19689214D01*
X6917071Y-19703500D01*
X6931357Y-19717786D01*
X6945643Y-19746357D01*
X6945643Y-19774929D01*
X6931357Y-19817786D01*
X6759928Y-19989214D01*
X6945643Y-19989214D01*
X7131357Y-19689214D02*
X7159928Y-19689214D01*
X7188500Y-19703500D01*
X7202786Y-19717786D01*
X7217071Y-19746357D01*
X7231357Y-19803500D01*
X7231357Y-19874929D01*
X7217071Y-19932072D01*
X7202786Y-19960643D01*
X7188500Y-19974929D01*
X7159928Y-19989214D01*
X7131357Y-19989214D01*
X7102786Y-19974929D01*
X7088500Y-19960643D01*
X7074214Y-19932072D01*
X7059928Y-19874929D01*
X7059928Y-19803500D01*
X7074214Y-19746357D01*
X7088500Y-19717786D01*
X7102786Y-19703500D01*
X7131357Y-19689214D01*
X7359928Y-19989214D02*
X7359928Y-19789214D01*
X7359928Y-19817786D02*
X7374214Y-19803500D01*
X7402786Y-19789214D01*
X7445643Y-19789214D01*
X7474214Y-19803500D01*
X7488500Y-19832072D01*
X7488500Y-19989214D01*
X7488500Y-19832072D02*
X7502786Y-19803500D01*
X7531357Y-19789214D01*
X7574214Y-19789214D01*
X7602786Y-19803500D01*
X7617071Y-19832072D01*
X7617071Y-19989214D01*
X7759928Y-19989214D02*
X7759928Y-19789214D01*
X7759928Y-19817786D02*
X7774214Y-19803500D01*
X7802786Y-19789214D01*
X7845643Y-19789214D01*
X7874214Y-19803500D01*
X7888500Y-19832072D01*
X7888500Y-19989214D01*
X7888500Y-19832072D02*
X7902786Y-19803500D01*
X7931357Y-19789214D01*
X7974214Y-19789214D01*
X8002786Y-19803500D01*
X8017071Y-19832072D01*
X8017071Y-19989214D01*
X8602786Y-19674929D02*
X8345643Y-20060643D01*
X8988500Y-19689214D02*
X9017071Y-19689214D01*
X9045643Y-19703500D01*
X9059928Y-19717786D01*
X9074214Y-19746357D01*
X9088500Y-19803500D01*
X9088500Y-19874929D01*
X9074214Y-19932072D01*
X9059928Y-19960643D01*
X9045643Y-19974929D01*
X9017071Y-19989214D01*
X8988500Y-19989214D01*
X8959928Y-19974929D01*
X8945643Y-19960643D01*
X8931357Y-19932072D01*
X8917071Y-19874929D01*
X8917071Y-19803500D01*
X8931357Y-19746357D01*
X8945643Y-19717786D01*
X8959928Y-19703500D01*
X8988500Y-19689214D01*
X9217071Y-19960643D02*
X9231357Y-19974929D01*
X9217071Y-19989214D01*
X9202786Y-19974929D01*
X9217071Y-19960643D01*
X9217071Y-19989214D01*
X9417071Y-19689214D02*
X9445643Y-19689214D01*
X9474214Y-19703500D01*
X9488500Y-19717786D01*
X9502786Y-19746357D01*
X9517071Y-19803500D01*
X9517071Y-19874929D01*
X9502786Y-19932072D01*
X9488500Y-19960643D01*
X9474214Y-19974929D01*
X9445643Y-19989214D01*
X9417071Y-19989214D01*
X9388500Y-19974929D01*
X9374214Y-19960643D01*
X9359928Y-19932072D01*
X9345643Y-19874929D01*
X9345643Y-19803500D01*
X9359928Y-19746357D01*
X9374214Y-19717786D01*
X9388500Y-19703500D01*
X9417071Y-19689214D01*
X9774214Y-19789214D02*
X9774214Y-19989214D01*
X9702786Y-19674929D02*
X9631357Y-19889214D01*
X9817071Y-19889214D01*
X9902786Y-19689214D02*
X10102786Y-19689214D01*
X9974214Y-19989214D01*
X10202786Y-19689214D02*
X10202786Y-19746357D01*
X10317071Y-19689214D02*
X10317071Y-19746357D01*
X10759928Y-20103500D02*
X10745643Y-20089214D01*
X10717071Y-20046357D01*
X10702786Y-20017786D01*
X10688500Y-19974929D01*
X10674214Y-19903500D01*
X10674214Y-19846357D01*
X10688500Y-19774929D01*
X10702786Y-19732072D01*
X10717071Y-19703500D01*
X10745643Y-19660643D01*
X10759928Y-19646357D01*
X10859928Y-19717786D02*
X10874214Y-19703500D01*
X10902786Y-19689214D01*
X10974214Y-19689214D01*
X11002786Y-19703500D01*
X11017071Y-19717786D01*
X11031357Y-19746357D01*
X11031357Y-19774929D01*
X11017071Y-19817786D01*
X10845643Y-19989214D01*
X11031357Y-19989214D01*
X11217071Y-19689214D02*
X11245643Y-19689214D01*
X11274214Y-19703500D01*
X11288500Y-19717786D01*
X11302785Y-19746357D01*
X11317071Y-19803500D01*
X11317071Y-19874929D01*
X11302785Y-19932072D01*
X11288500Y-19960643D01*
X11274214Y-19974929D01*
X11245643Y-19989214D01*
X11217071Y-19989214D01*
X11188500Y-19974929D01*
X11174214Y-19960643D01*
X11159928Y-19932072D01*
X11145643Y-19874929D01*
X11145643Y-19803500D01*
X11159928Y-19746357D01*
X11174214Y-19717786D01*
X11188500Y-19703500D01*
X11217071Y-19689214D01*
X11674214Y-19989214D02*
X11674214Y-19689214D01*
X11802785Y-19989214D02*
X11802785Y-19832072D01*
X11788500Y-19803500D01*
X11759928Y-19789214D01*
X11717071Y-19789214D01*
X11688500Y-19803500D01*
X11674214Y-19817786D01*
X11988500Y-19989214D02*
X11959928Y-19974929D01*
X11945643Y-19960643D01*
X11931357Y-19932072D01*
X11931357Y-19846357D01*
X11945643Y-19817786D01*
X11959928Y-19803500D01*
X11988500Y-19789214D01*
X12031357Y-19789214D01*
X12059928Y-19803500D01*
X12074214Y-19817786D01*
X12088500Y-19846357D01*
X12088500Y-19932072D01*
X12074214Y-19960643D01*
X12059928Y-19974929D01*
X12031357Y-19989214D01*
X11988500Y-19989214D01*
X12259928Y-19989214D02*
X12231357Y-19974929D01*
X12217071Y-19946357D01*
X12217071Y-19689214D01*
X12488500Y-19974929D02*
X12459928Y-19989214D01*
X12402786Y-19989214D01*
X12374214Y-19974929D01*
X12359928Y-19946357D01*
X12359928Y-19832072D01*
X12374214Y-19803500D01*
X12402786Y-19789214D01*
X12459928Y-19789214D01*
X12488500Y-19803500D01*
X12502786Y-19832072D01*
X12502786Y-19860643D01*
X12359928Y-19889214D01*
X12617071Y-19974929D02*
X12645643Y-19989214D01*
X12702786Y-19989214D01*
X12731357Y-19974929D01*
X12745643Y-19946357D01*
X12745643Y-19932072D01*
X12731357Y-19903500D01*
X12702786Y-19889214D01*
X12659928Y-19889214D01*
X12631357Y-19874929D01*
X12617071Y-19846357D01*
X12617071Y-19832072D01*
X12631357Y-19803500D01*
X12659928Y-19789214D01*
X12702786Y-19789214D01*
X12731357Y-19803500D01*
X12845643Y-20103500D02*
X12859928Y-20089214D01*
X12888500Y-20046357D01*
X12902786Y-20017786D01*
X12917071Y-19974929D01*
X12931357Y-19903500D01*
X12931357Y-19846357D01*
X12917071Y-19774929D01*
X12902786Y-19732072D01*
X12888500Y-19703500D01*
X12859928Y-19660643D01*
X12845643Y-19646357D01*
X5953626Y-20182063D02*
X6088500Y-20316937D01*
X6088500Y-20182063D02*
X5953626Y-20316937D01*
X6068748Y-20297186D02*
X6068748Y-20201815D01*
X5973377Y-20201815D01*
X5973377Y-20297186D01*
X6068748Y-20297186D01*
X6517071Y-20385214D02*
X6345643Y-20385214D01*
X6431357Y-20385214D02*
X6431357Y-20085214D01*
X6402786Y-20128072D01*
X6374214Y-20156643D01*
X6345643Y-20170929D01*
X6645643Y-20356643D02*
X6659928Y-20370929D01*
X6645643Y-20385214D01*
X6631357Y-20370929D01*
X6645643Y-20356643D01*
X6645643Y-20385214D01*
X6759928Y-20085214D02*
X6945643Y-20085214D01*
X6845643Y-20199500D01*
X6888500Y-20199500D01*
X6917071Y-20213786D01*
X6931357Y-20228072D01*
X6945643Y-20256643D01*
X6945643Y-20328072D01*
X6931357Y-20356643D01*
X6917071Y-20370929D01*
X6888500Y-20385214D01*
X6802786Y-20385214D01*
X6774214Y-20370929D01*
X6759928Y-20356643D01*
X7217071Y-20085214D02*
X7074214Y-20085214D01*
X7059928Y-20228072D01*
X7074214Y-20213786D01*
X7102786Y-20199500D01*
X7174214Y-20199500D01*
X7202786Y-20213786D01*
X7217071Y-20228072D01*
X7231357Y-20256643D01*
X7231357Y-20328072D01*
X7217071Y-20356643D01*
X7202786Y-20370929D01*
X7174214Y-20385214D01*
X7102786Y-20385214D01*
X7074214Y-20370929D01*
X7059928Y-20356643D01*
X7359928Y-20385214D02*
X7359928Y-20185214D01*
X7359928Y-20213786D02*
X7374214Y-20199500D01*
X7402786Y-20185214D01*
X7445643Y-20185214D01*
X7474214Y-20199500D01*
X7488500Y-20228072D01*
X7488500Y-20385214D01*
X7488500Y-20228072D02*
X7502786Y-20199500D01*
X7531357Y-20185214D01*
X7574214Y-20185214D01*
X7602786Y-20199500D01*
X7617071Y-20228072D01*
X7617071Y-20385214D01*
X7759928Y-20385214D02*
X7759928Y-20185214D01*
X7759928Y-20213786D02*
X7774214Y-20199500D01*
X7802786Y-20185214D01*
X7845643Y-20185214D01*
X7874214Y-20199500D01*
X7888500Y-20228072D01*
X7888500Y-20385214D01*
X7888500Y-20228072D02*
X7902786Y-20199500D01*
X7931357Y-20185214D01*
X7974214Y-20185214D01*
X8002786Y-20199500D01*
X8017071Y-20228072D01*
X8017071Y-20385214D01*
X8602786Y-20070929D02*
X8345643Y-20456643D01*
X8988500Y-20085214D02*
X9017071Y-20085214D01*
X9045643Y-20099500D01*
X9059928Y-20113786D01*
X9074214Y-20142357D01*
X9088500Y-20199500D01*
X9088500Y-20270929D01*
X9074214Y-20328072D01*
X9059928Y-20356643D01*
X9045643Y-20370929D01*
X9017071Y-20385214D01*
X8988500Y-20385214D01*
X8959928Y-20370929D01*
X8945643Y-20356643D01*
X8931357Y-20328072D01*
X8917071Y-20270929D01*
X8917071Y-20199500D01*
X8931357Y-20142357D01*
X8945643Y-20113786D01*
X8959928Y-20099500D01*
X8988500Y-20085214D01*
X9217071Y-20356643D02*
X9231357Y-20370929D01*
X9217071Y-20385214D01*
X9202786Y-20370929D01*
X9217071Y-20356643D01*
X9217071Y-20385214D01*
X9417071Y-20085214D02*
X9445643Y-20085214D01*
X9474214Y-20099500D01*
X9488500Y-20113786D01*
X9502786Y-20142357D01*
X9517071Y-20199500D01*
X9517071Y-20270929D01*
X9502786Y-20328072D01*
X9488500Y-20356643D01*
X9474214Y-20370929D01*
X9445643Y-20385214D01*
X9417071Y-20385214D01*
X9388500Y-20370929D01*
X9374214Y-20356643D01*
X9359928Y-20328072D01*
X9345643Y-20270929D01*
X9345643Y-20199500D01*
X9359928Y-20142357D01*
X9374214Y-20113786D01*
X9388500Y-20099500D01*
X9417071Y-20085214D01*
X9788500Y-20085214D02*
X9645643Y-20085214D01*
X9631357Y-20228072D01*
X9645643Y-20213786D01*
X9674214Y-20199500D01*
X9745643Y-20199500D01*
X9774214Y-20213786D01*
X9788500Y-20228072D01*
X9802786Y-20256643D01*
X9802786Y-20328072D01*
X9788500Y-20356643D01*
X9774214Y-20370929D01*
X9745643Y-20385214D01*
X9674214Y-20385214D01*
X9645643Y-20370929D01*
X9631357Y-20356643D01*
X9902786Y-20085214D02*
X10088500Y-20085214D01*
X9988500Y-20199500D01*
X10031357Y-20199500D01*
X10059928Y-20213786D01*
X10074214Y-20228072D01*
X10088500Y-20256643D01*
X10088500Y-20328072D01*
X10074214Y-20356643D01*
X10059928Y-20370929D01*
X10031357Y-20385214D01*
X9945643Y-20385214D01*
X9917071Y-20370929D01*
X9902786Y-20356643D01*
X10202786Y-20085214D02*
X10202786Y-20142357D01*
X10317071Y-20085214D02*
X10317071Y-20142357D01*
X10759928Y-20499500D02*
X10745643Y-20485214D01*
X10717071Y-20442357D01*
X10702786Y-20413786D01*
X10688500Y-20370929D01*
X10674214Y-20299500D01*
X10674214Y-20242357D01*
X10688500Y-20170929D01*
X10702786Y-20128072D01*
X10717071Y-20099500D01*
X10745643Y-20056643D01*
X10759928Y-20042357D01*
X11031357Y-20385214D02*
X10859928Y-20385214D01*
X10945643Y-20385214D02*
X10945643Y-20085214D01*
X10917071Y-20128072D01*
X10888500Y-20156643D01*
X10859928Y-20170929D01*
X11145643Y-20113786D02*
X11159928Y-20099500D01*
X11188500Y-20085214D01*
X11259928Y-20085214D01*
X11288500Y-20099500D01*
X11302785Y-20113786D01*
X11317071Y-20142357D01*
X11317071Y-20170929D01*
X11302785Y-20213786D01*
X11131357Y-20385214D01*
X11317071Y-20385214D01*
X11674214Y-20385214D02*
X11674214Y-20085214D01*
X11802785Y-20385214D02*
X11802785Y-20228072D01*
X11788500Y-20199500D01*
X11759928Y-20185214D01*
X11717071Y-20185214D01*
X11688500Y-20199500D01*
X11674214Y-20213786D01*
X11988500Y-20385214D02*
X11959928Y-20370929D01*
X11945643Y-20356643D01*
X11931357Y-20328072D01*
X11931357Y-20242357D01*
X11945643Y-20213786D01*
X11959928Y-20199500D01*
X11988500Y-20185214D01*
X12031357Y-20185214D01*
X12059928Y-20199500D01*
X12074214Y-20213786D01*
X12088500Y-20242357D01*
X12088500Y-20328072D01*
X12074214Y-20356643D01*
X12059928Y-20370929D01*
X12031357Y-20385214D01*
X11988500Y-20385214D01*
X12259928Y-20385214D02*
X12231357Y-20370929D01*
X12217071Y-20342357D01*
X12217071Y-20085214D01*
X12488500Y-20370929D02*
X12459928Y-20385214D01*
X12402786Y-20385214D01*
X12374214Y-20370929D01*
X12359928Y-20342357D01*
X12359928Y-20228072D01*
X12374214Y-20199500D01*
X12402786Y-20185214D01*
X12459928Y-20185214D01*
X12488500Y-20199500D01*
X12502786Y-20228072D01*
X12502786Y-20256643D01*
X12359928Y-20285214D01*
X12617071Y-20370929D02*
X12645643Y-20385214D01*
X12702786Y-20385214D01*
X12731357Y-20370929D01*
X12745643Y-20342357D01*
X12745643Y-20328072D01*
X12731357Y-20299500D01*
X12702786Y-20285214D01*
X12659928Y-20285214D01*
X12631357Y-20270929D01*
X12617071Y-20242357D01*
X12617071Y-20228072D01*
X12631357Y-20199500D01*
X12659928Y-20185214D01*
X12702786Y-20185214D01*
X12731357Y-20199500D01*
X12845643Y-20499500D02*
X12859928Y-20485214D01*
X12888500Y-20442357D01*
X12902786Y-20413786D01*
X12917071Y-20370929D01*
X12931357Y-20299500D01*
X12931357Y-20242357D01*
X12917071Y-20170929D01*
X12902786Y-20128072D01*
X12888500Y-20099500D01*
X12859928Y-20056643D01*
X12845643Y-20042357D01*
X5888500Y-20545500D02*
X6088500Y-20745500D01*
X6088500Y-20545500D02*
X5888500Y-20745500D01*
X5988500Y-20745500D02*
X6088500Y-20645500D01*
X5988500Y-20545500D01*
X5888500Y-20645500D01*
X5988500Y-20745500D01*
X6345643Y-20509786D02*
X6359928Y-20495500D01*
X6388500Y-20481214D01*
X6459928Y-20481214D01*
X6488500Y-20495500D01*
X6502786Y-20509786D01*
X6517071Y-20538357D01*
X6517071Y-20566929D01*
X6502786Y-20609786D01*
X6331357Y-20781214D01*
X6517071Y-20781214D01*
X6645643Y-20752643D02*
X6659928Y-20766929D01*
X6645643Y-20781214D01*
X6631357Y-20766929D01*
X6645643Y-20752643D01*
X6645643Y-20781214D01*
X6845643Y-20481214D02*
X6874214Y-20481214D01*
X6902786Y-20495500D01*
X6917071Y-20509786D01*
X6931357Y-20538357D01*
X6945643Y-20595500D01*
X6945643Y-20666929D01*
X6931357Y-20724072D01*
X6917071Y-20752643D01*
X6902786Y-20766929D01*
X6874214Y-20781214D01*
X6845643Y-20781214D01*
X6817071Y-20766929D01*
X6802786Y-20752643D01*
X6788500Y-20724072D01*
X6774214Y-20666929D01*
X6774214Y-20595500D01*
X6788500Y-20538357D01*
X6802786Y-20509786D01*
X6817071Y-20495500D01*
X6845643Y-20481214D01*
X7131357Y-20481214D02*
X7159928Y-20481214D01*
X7188500Y-20495500D01*
X7202786Y-20509786D01*
X7217071Y-20538357D01*
X7231357Y-20595500D01*
X7231357Y-20666929D01*
X7217071Y-20724072D01*
X7202786Y-20752643D01*
X7188500Y-20766929D01*
X7159928Y-20781214D01*
X7131357Y-20781214D01*
X7102786Y-20766929D01*
X7088500Y-20752643D01*
X7074214Y-20724072D01*
X7059928Y-20666929D01*
X7059928Y-20595500D01*
X7074214Y-20538357D01*
X7088500Y-20509786D01*
X7102786Y-20495500D01*
X7131357Y-20481214D01*
X7359928Y-20781214D02*
X7359928Y-20581214D01*
X7359928Y-20609786D02*
X7374214Y-20595500D01*
X7402786Y-20581214D01*
X7445643Y-20581214D01*
X7474214Y-20595500D01*
X7488500Y-20624072D01*
X7488500Y-20781214D01*
X7488500Y-20624072D02*
X7502786Y-20595500D01*
X7531357Y-20581214D01*
X7574214Y-20581214D01*
X7602786Y-20595500D01*
X7617071Y-20624072D01*
X7617071Y-20781214D01*
X7759928Y-20781214D02*
X7759928Y-20581214D01*
X7759928Y-20609786D02*
X7774214Y-20595500D01*
X7802786Y-20581214D01*
X7845643Y-20581214D01*
X7874214Y-20595500D01*
X7888500Y-20624072D01*
X7888500Y-20781214D01*
X7888500Y-20624072D02*
X7902786Y-20595500D01*
X7931357Y-20581214D01*
X7974214Y-20581214D01*
X8002786Y-20595500D01*
X8017071Y-20624072D01*
X8017071Y-20781214D01*
X8602786Y-20466929D02*
X8345643Y-20852643D01*
X8988500Y-20481214D02*
X9017071Y-20481214D01*
X9045643Y-20495500D01*
X9059928Y-20509786D01*
X9074214Y-20538357D01*
X9088500Y-20595500D01*
X9088500Y-20666929D01*
X9074214Y-20724072D01*
X9059928Y-20752643D01*
X9045643Y-20766929D01*
X9017071Y-20781214D01*
X8988500Y-20781214D01*
X8959928Y-20766929D01*
X8945643Y-20752643D01*
X8931357Y-20724072D01*
X8917071Y-20666929D01*
X8917071Y-20595500D01*
X8931357Y-20538357D01*
X8945643Y-20509786D01*
X8959928Y-20495500D01*
X8988500Y-20481214D01*
X9217071Y-20752643D02*
X9231357Y-20766929D01*
X9217071Y-20781214D01*
X9202786Y-20766929D01*
X9217071Y-20752643D01*
X9217071Y-20781214D01*
X9417071Y-20481214D02*
X9445643Y-20481214D01*
X9474214Y-20495500D01*
X9488500Y-20509786D01*
X9502786Y-20538357D01*
X9517071Y-20595500D01*
X9517071Y-20666929D01*
X9502786Y-20724072D01*
X9488500Y-20752643D01*
X9474214Y-20766929D01*
X9445643Y-20781214D01*
X9417071Y-20781214D01*
X9388500Y-20766929D01*
X9374214Y-20752643D01*
X9359928Y-20724072D01*
X9345643Y-20666929D01*
X9345643Y-20595500D01*
X9359928Y-20538357D01*
X9374214Y-20509786D01*
X9388500Y-20495500D01*
X9417071Y-20481214D01*
X9617071Y-20481214D02*
X9817071Y-20481214D01*
X9688500Y-20781214D01*
X9945643Y-20781214D02*
X10002786Y-20781214D01*
X10031357Y-20766929D01*
X10045643Y-20752643D01*
X10074214Y-20709786D01*
X10088500Y-20652643D01*
X10088500Y-20538357D01*
X10074214Y-20509786D01*
X10059928Y-20495500D01*
X10031357Y-20481214D01*
X9974214Y-20481214D01*
X9945643Y-20495500D01*
X9931357Y-20509786D01*
X9917071Y-20538357D01*
X9917071Y-20609786D01*
X9931357Y-20638357D01*
X9945643Y-20652643D01*
X9974214Y-20666929D01*
X10031357Y-20666929D01*
X10059928Y-20652643D01*
X10074214Y-20638357D01*
X10088500Y-20609786D01*
X10202786Y-20481214D02*
X10202786Y-20538357D01*
X10317071Y-20481214D02*
X10317071Y-20538357D01*
X10759928Y-20895500D02*
X10745643Y-20881214D01*
X10717071Y-20838357D01*
X10702786Y-20809786D01*
X10688500Y-20766929D01*
X10674214Y-20695500D01*
X10674214Y-20638357D01*
X10688500Y-20566929D01*
X10702786Y-20524072D01*
X10717071Y-20495500D01*
X10745643Y-20452643D01*
X10759928Y-20438357D01*
X10845643Y-20481214D02*
X11045643Y-20481214D01*
X10917071Y-20781214D01*
X11388500Y-20781214D02*
X11388500Y-20481214D01*
X11517071Y-20781214D02*
X11517071Y-20624072D01*
X11502785Y-20595500D01*
X11474214Y-20581214D01*
X11431357Y-20581214D01*
X11402785Y-20595500D01*
X11388500Y-20609786D01*
X11702785Y-20781214D02*
X11674214Y-20766929D01*
X11659928Y-20752643D01*
X11645643Y-20724072D01*
X11645643Y-20638357D01*
X11659928Y-20609786D01*
X11674214Y-20595500D01*
X11702785Y-20581214D01*
X11745643Y-20581214D01*
X11774214Y-20595500D01*
X11788500Y-20609786D01*
X11802785Y-20638357D01*
X11802785Y-20724072D01*
X11788500Y-20752643D01*
X11774214Y-20766929D01*
X11745643Y-20781214D01*
X11702785Y-20781214D01*
X11974214Y-20781214D02*
X11945643Y-20766929D01*
X11931357Y-20738357D01*
X11931357Y-20481214D01*
X12202786Y-20766929D02*
X12174214Y-20781214D01*
X12117071Y-20781214D01*
X12088500Y-20766929D01*
X12074214Y-20738357D01*
X12074214Y-20624072D01*
X12088500Y-20595500D01*
X12117071Y-20581214D01*
X12174214Y-20581214D01*
X12202786Y-20595500D01*
X12217071Y-20624072D01*
X12217071Y-20652643D01*
X12074214Y-20681214D01*
X12331357Y-20766929D02*
X12359928Y-20781214D01*
X12417071Y-20781214D01*
X12445643Y-20766929D01*
X12459928Y-20738357D01*
X12459928Y-20724072D01*
X12445643Y-20695500D01*
X12417071Y-20681214D01*
X12374214Y-20681214D01*
X12345643Y-20666929D01*
X12331357Y-20638357D01*
X12331357Y-20624072D01*
X12345643Y-20595500D01*
X12374214Y-20581214D01*
X12417071Y-20581214D01*
X12445643Y-20595500D01*
X12559928Y-20895500D02*
X12574214Y-20881214D01*
X12602786Y-20838357D01*
X12617071Y-20809786D01*
X12631357Y-20766929D01*
X12645643Y-20695500D01*
X12645643Y-20638357D01*
X12631357Y-20566929D01*
X12617071Y-20524072D01*
X12602786Y-20495500D01*
X12574214Y-20452643D01*
X12559928Y-20438357D01*
X5978500Y-20931500D02*
X5978500Y-21151500D01*
X5868500Y-21041500D02*
X6088500Y-21041500D01*
X6088500Y-21041500D02*
G75*
G03X6088500Y-21041500I-110000J0D01*
G01*
X6345643Y-20905786D02*
X6359928Y-20891500D01*
X6388500Y-20877214D01*
X6459928Y-20877214D01*
X6488500Y-20891500D01*
X6502786Y-20905786D01*
X6517071Y-20934357D01*
X6517071Y-20962929D01*
X6502786Y-21005786D01*
X6331357Y-21177214D01*
X6517071Y-21177214D01*
X6645643Y-21148643D02*
X6659928Y-21162929D01*
X6645643Y-21177214D01*
X6631357Y-21162929D01*
X6645643Y-21148643D01*
X6645643Y-21177214D01*
X6774214Y-20905786D02*
X6788500Y-20891500D01*
X6817071Y-20877214D01*
X6888500Y-20877214D01*
X6917071Y-20891500D01*
X6931357Y-20905786D01*
X6945643Y-20934357D01*
X6945643Y-20962929D01*
X6931357Y-21005786D01*
X6759928Y-21177214D01*
X6945643Y-21177214D01*
X7131357Y-20877214D02*
X7159928Y-20877214D01*
X7188500Y-20891500D01*
X7202786Y-20905786D01*
X7217071Y-20934357D01*
X7231357Y-20991500D01*
X7231357Y-21062929D01*
X7217071Y-21120072D01*
X7202786Y-21148643D01*
X7188500Y-21162929D01*
X7159928Y-21177214D01*
X7131357Y-21177214D01*
X7102786Y-21162929D01*
X7088500Y-21148643D01*
X7074214Y-21120072D01*
X7059928Y-21062929D01*
X7059928Y-20991500D01*
X7074214Y-20934357D01*
X7088500Y-20905786D01*
X7102786Y-20891500D01*
X7131357Y-20877214D01*
X7359928Y-21177214D02*
X7359928Y-20977214D01*
X7359928Y-21005786D02*
X7374214Y-20991500D01*
X7402786Y-20977214D01*
X7445643Y-20977214D01*
X7474214Y-20991500D01*
X7488500Y-21020072D01*
X7488500Y-21177214D01*
X7488500Y-21020072D02*
X7502786Y-20991500D01*
X7531357Y-20977214D01*
X7574214Y-20977214D01*
X7602786Y-20991500D01*
X7617071Y-21020072D01*
X7617071Y-21177214D01*
X7759928Y-21177214D02*
X7759928Y-20977214D01*
X7759928Y-21005786D02*
X7774214Y-20991500D01*
X7802786Y-20977214D01*
X7845643Y-20977214D01*
X7874214Y-20991500D01*
X7888500Y-21020072D01*
X7888500Y-21177214D01*
X7888500Y-21020072D02*
X7902786Y-20991500D01*
X7931357Y-20977214D01*
X7974214Y-20977214D01*
X8002786Y-20991500D01*
X8017071Y-21020072D01*
X8017071Y-21177214D01*
X8602786Y-20862929D02*
X8345643Y-21248643D01*
X8988500Y-20877214D02*
X9017071Y-20877214D01*
X9045643Y-20891500D01*
X9059928Y-20905786D01*
X9074214Y-20934357D01*
X9088500Y-20991500D01*
X9088500Y-21062929D01*
X9074214Y-21120072D01*
X9059928Y-21148643D01*
X9045643Y-21162929D01*
X9017071Y-21177214D01*
X8988500Y-21177214D01*
X8959928Y-21162929D01*
X8945643Y-21148643D01*
X8931357Y-21120072D01*
X8917071Y-21062929D01*
X8917071Y-20991500D01*
X8931357Y-20934357D01*
X8945643Y-20905786D01*
X8959928Y-20891500D01*
X8988500Y-20877214D01*
X9217071Y-21148643D02*
X9231357Y-21162929D01*
X9217071Y-21177214D01*
X9202786Y-21162929D01*
X9217071Y-21148643D01*
X9217071Y-21177214D01*
X9417071Y-20877214D02*
X9445643Y-20877214D01*
X9474214Y-20891500D01*
X9488500Y-20905786D01*
X9502786Y-20934357D01*
X9517071Y-20991500D01*
X9517071Y-21062929D01*
X9502786Y-21120072D01*
X9488500Y-21148643D01*
X9474214Y-21162929D01*
X9445643Y-21177214D01*
X9417071Y-21177214D01*
X9388500Y-21162929D01*
X9374214Y-21148643D01*
X9359928Y-21120072D01*
X9345643Y-21062929D01*
X9345643Y-20991500D01*
X9359928Y-20934357D01*
X9374214Y-20905786D01*
X9388500Y-20891500D01*
X9417071Y-20877214D01*
X9688500Y-21005786D02*
X9659928Y-20991500D01*
X9645643Y-20977214D01*
X9631357Y-20948643D01*
X9631357Y-20934357D01*
X9645643Y-20905786D01*
X9659928Y-20891500D01*
X9688500Y-20877214D01*
X9745643Y-20877214D01*
X9774214Y-20891500D01*
X9788500Y-20905786D01*
X9802786Y-20934357D01*
X9802786Y-20948643D01*
X9788500Y-20977214D01*
X9774214Y-20991500D01*
X9745643Y-21005786D01*
X9688500Y-21005786D01*
X9659928Y-21020072D01*
X9645643Y-21034357D01*
X9631357Y-21062929D01*
X9631357Y-21120072D01*
X9645643Y-21148643D01*
X9659928Y-21162929D01*
X9688500Y-21177214D01*
X9745643Y-21177214D01*
X9774214Y-21162929D01*
X9788500Y-21148643D01*
X9802786Y-21120072D01*
X9802786Y-21062929D01*
X9788500Y-21034357D01*
X9774214Y-21020072D01*
X9745643Y-21005786D01*
X9902786Y-20877214D02*
X10102786Y-20877214D01*
X9974214Y-21177214D01*
X10202786Y-20877214D02*
X10202786Y-20934357D01*
X10317071Y-20877214D02*
X10317071Y-20934357D01*
X10759928Y-21291500D02*
X10745643Y-21277214D01*
X10717071Y-21234357D01*
X10702786Y-21205786D01*
X10688500Y-21162929D01*
X10674214Y-21091500D01*
X10674214Y-21034357D01*
X10688500Y-20962929D01*
X10702786Y-20920072D01*
X10717071Y-20891500D01*
X10745643Y-20848643D01*
X10759928Y-20834357D01*
X11002786Y-20977214D02*
X11002786Y-21177214D01*
X10931357Y-20862929D02*
X10859928Y-21077214D01*
X11045643Y-21077214D01*
X11388500Y-21177214D02*
X11388500Y-20877214D01*
X11517071Y-21177214D02*
X11517071Y-21020072D01*
X11502785Y-20991500D01*
X11474214Y-20977214D01*
X11431357Y-20977214D01*
X11402785Y-20991500D01*
X11388500Y-21005786D01*
X11702785Y-21177214D02*
X11674214Y-21162929D01*
X11659928Y-21148643D01*
X11645643Y-21120072D01*
X11645643Y-21034357D01*
X11659928Y-21005786D01*
X11674214Y-20991500D01*
X11702785Y-20977214D01*
X11745643Y-20977214D01*
X11774214Y-20991500D01*
X11788500Y-21005786D01*
X11802785Y-21034357D01*
X11802785Y-21120072D01*
X11788500Y-21148643D01*
X11774214Y-21162929D01*
X11745643Y-21177214D01*
X11702785Y-21177214D01*
X11974214Y-21177214D02*
X11945643Y-21162929D01*
X11931357Y-21134357D01*
X11931357Y-20877214D01*
X12202786Y-21162929D02*
X12174214Y-21177214D01*
X12117071Y-21177214D01*
X12088500Y-21162929D01*
X12074214Y-21134357D01*
X12074214Y-21020072D01*
X12088500Y-20991500D01*
X12117071Y-20977214D01*
X12174214Y-20977214D01*
X12202786Y-20991500D01*
X12217071Y-21020072D01*
X12217071Y-21048643D01*
X12074214Y-21077214D01*
X12331357Y-21162929D02*
X12359928Y-21177214D01*
X12417071Y-21177214D01*
X12445643Y-21162929D01*
X12459928Y-21134357D01*
X12459928Y-21120072D01*
X12445643Y-21091500D01*
X12417071Y-21077214D01*
X12374214Y-21077214D01*
X12345643Y-21062929D01*
X12331357Y-21034357D01*
X12331357Y-21020072D01*
X12345643Y-20991500D01*
X12374214Y-20977214D01*
X12417071Y-20977214D01*
X12445643Y-20991500D01*
X12559928Y-21291500D02*
X12574214Y-21277214D01*
X12602786Y-21234357D01*
X12617071Y-21205786D01*
X12631357Y-21162929D01*
X12645643Y-21091500D01*
X12645643Y-21034357D01*
X12631357Y-20962929D01*
X12617071Y-20920072D01*
X12602786Y-20891500D01*
X12574214Y-20848643D01*
X12559928Y-20834357D01*
X6043864Y-21545264D02*
X6043864Y-21329736D01*
X5828336Y-21329736D01*
X5828336Y-21545264D01*
X6043864Y-21545264D01*
X6088500Y-21437500D02*
G75*
G03X6088500Y-21437500I-152400J0D01*
G01*
X6331357Y-21273214D02*
X6517071Y-21273214D01*
X6417071Y-21387500D01*
X6459928Y-21387500D01*
X6488500Y-21401786D01*
X6502786Y-21416072D01*
X6517071Y-21444643D01*
X6517071Y-21516072D01*
X6502786Y-21544643D01*
X6488500Y-21558929D01*
X6459928Y-21573214D01*
X6374214Y-21573214D01*
X6345643Y-21558929D01*
X6331357Y-21544643D01*
X6645643Y-21544643D02*
X6659928Y-21558929D01*
X6645643Y-21573214D01*
X6631357Y-21558929D01*
X6645643Y-21544643D01*
X6645643Y-21573214D01*
X6845643Y-21273214D02*
X6874214Y-21273214D01*
X6902786Y-21287500D01*
X6917071Y-21301786D01*
X6931357Y-21330357D01*
X6945643Y-21387500D01*
X6945643Y-21458929D01*
X6931357Y-21516072D01*
X6917071Y-21544643D01*
X6902786Y-21558929D01*
X6874214Y-21573214D01*
X6845643Y-21573214D01*
X6817071Y-21558929D01*
X6802786Y-21544643D01*
X6788500Y-21516072D01*
X6774214Y-21458929D01*
X6774214Y-21387500D01*
X6788500Y-21330357D01*
X6802786Y-21301786D01*
X6817071Y-21287500D01*
X6845643Y-21273214D01*
X7217071Y-21273214D02*
X7074214Y-21273214D01*
X7059928Y-21416072D01*
X7074214Y-21401786D01*
X7102786Y-21387500D01*
X7174214Y-21387500D01*
X7202786Y-21401786D01*
X7217071Y-21416072D01*
X7231357Y-21444643D01*
X7231357Y-21516072D01*
X7217071Y-21544643D01*
X7202786Y-21558929D01*
X7174214Y-21573214D01*
X7102786Y-21573214D01*
X7074214Y-21558929D01*
X7059928Y-21544643D01*
X7359928Y-21573214D02*
X7359928Y-21373214D01*
X7359928Y-21401786D02*
X7374214Y-21387500D01*
X7402786Y-21373214D01*
X7445643Y-21373214D01*
X7474214Y-21387500D01*
X7488500Y-21416072D01*
X7488500Y-21573214D01*
X7488500Y-21416072D02*
X7502786Y-21387500D01*
X7531357Y-21373214D01*
X7574214Y-21373214D01*
X7602786Y-21387500D01*
X7617071Y-21416072D01*
X7617071Y-21573214D01*
X7759928Y-21573214D02*
X7759928Y-21373214D01*
X7759928Y-21401786D02*
X7774214Y-21387500D01*
X7802786Y-21373214D01*
X7845643Y-21373214D01*
X7874214Y-21387500D01*
X7888500Y-21416072D01*
X7888500Y-21573214D01*
X7888500Y-21416072D02*
X7902786Y-21387500D01*
X7931357Y-21373214D01*
X7974214Y-21373214D01*
X8002786Y-21387500D01*
X8017071Y-21416072D01*
X8017071Y-21573214D01*
X8602786Y-21258929D02*
X8345643Y-21644643D01*
X8988500Y-21273214D02*
X9017071Y-21273214D01*
X9045643Y-21287500D01*
X9059928Y-21301786D01*
X9074214Y-21330357D01*
X9088500Y-21387500D01*
X9088500Y-21458929D01*
X9074214Y-21516072D01*
X9059928Y-21544643D01*
X9045643Y-21558929D01*
X9017071Y-21573214D01*
X8988500Y-21573214D01*
X8959928Y-21558929D01*
X8945643Y-21544643D01*
X8931357Y-21516072D01*
X8917071Y-21458929D01*
X8917071Y-21387500D01*
X8931357Y-21330357D01*
X8945643Y-21301786D01*
X8959928Y-21287500D01*
X8988500Y-21273214D01*
X9217071Y-21544643D02*
X9231357Y-21558929D01*
X9217071Y-21573214D01*
X9202786Y-21558929D01*
X9217071Y-21544643D01*
X9217071Y-21573214D01*
X9517071Y-21573214D02*
X9345643Y-21573214D01*
X9431357Y-21573214D02*
X9431357Y-21273214D01*
X9402786Y-21316072D01*
X9374214Y-21344643D01*
X9345643Y-21358929D01*
X9631357Y-21301786D02*
X9645643Y-21287500D01*
X9674214Y-21273214D01*
X9745643Y-21273214D01*
X9774214Y-21287500D01*
X9788500Y-21301786D01*
X9802786Y-21330357D01*
X9802786Y-21358929D01*
X9788500Y-21401786D01*
X9617071Y-21573214D01*
X9802786Y-21573214D01*
X9988500Y-21273214D02*
X10017071Y-21273214D01*
X10045643Y-21287500D01*
X10059928Y-21301786D01*
X10074214Y-21330357D01*
X10088500Y-21387500D01*
X10088500Y-21458929D01*
X10074214Y-21516072D01*
X10059928Y-21544643D01*
X10045643Y-21558929D01*
X10017071Y-21573214D01*
X9988500Y-21573214D01*
X9959928Y-21558929D01*
X9945643Y-21544643D01*
X9931357Y-21516072D01*
X9917071Y-21458929D01*
X9917071Y-21387500D01*
X9931357Y-21330357D01*
X9945643Y-21301786D01*
X9959928Y-21287500D01*
X9988500Y-21273214D01*
X10202786Y-21273214D02*
X10202786Y-21330357D01*
X10317071Y-21273214D02*
X10317071Y-21330357D01*
X10759928Y-21687500D02*
X10745643Y-21673214D01*
X10717071Y-21630357D01*
X10702786Y-21601786D01*
X10688500Y-21558929D01*
X10674214Y-21487500D01*
X10674214Y-21430357D01*
X10688500Y-21358929D01*
X10702786Y-21316072D01*
X10717071Y-21287500D01*
X10745643Y-21244643D01*
X10759928Y-21230357D01*
X11002786Y-21373214D02*
X11002786Y-21573214D01*
X10931357Y-21258929D02*
X10859928Y-21473214D01*
X11045643Y-21473214D01*
X11388500Y-21573214D02*
X11388500Y-21273214D01*
X11517071Y-21573214D02*
X11517071Y-21416072D01*
X11502785Y-21387500D01*
X11474214Y-21373214D01*
X11431357Y-21373214D01*
X11402785Y-21387500D01*
X11388500Y-21401786D01*
X11702785Y-21573214D02*
X11674214Y-21558929D01*
X11659928Y-21544643D01*
X11645643Y-21516072D01*
X11645643Y-21430357D01*
X11659928Y-21401786D01*
X11674214Y-21387500D01*
X11702785Y-21373214D01*
X11745643Y-21373214D01*
X11774214Y-21387500D01*
X11788500Y-21401786D01*
X11802785Y-21430357D01*
X11802785Y-21516072D01*
X11788500Y-21544643D01*
X11774214Y-21558929D01*
X11745643Y-21573214D01*
X11702785Y-21573214D01*
X11974214Y-21573214D02*
X11945643Y-21558929D01*
X11931357Y-21530357D01*
X11931357Y-21273214D01*
X12202786Y-21558929D02*
X12174214Y-21573214D01*
X12117071Y-21573214D01*
X12088500Y-21558929D01*
X12074214Y-21530357D01*
X12074214Y-21416072D01*
X12088500Y-21387500D01*
X12117071Y-21373214D01*
X12174214Y-21373214D01*
X12202786Y-21387500D01*
X12217071Y-21416072D01*
X12217071Y-21444643D01*
X12074214Y-21473214D01*
X12331357Y-21558929D02*
X12359928Y-21573214D01*
X12417071Y-21573214D01*
X12445643Y-21558929D01*
X12459928Y-21530357D01*
X12459928Y-21516072D01*
X12445643Y-21487500D01*
X12417071Y-21473214D01*
X12374214Y-21473214D01*
X12345643Y-21458929D01*
X12331357Y-21430357D01*
X12331357Y-21416072D01*
X12345643Y-21387500D01*
X12374214Y-21373214D01*
X12417071Y-21373214D01*
X12445643Y-21387500D01*
X12559928Y-21687500D02*
X12574214Y-21673214D01*
X12602786Y-21630357D01*
X12617071Y-21601786D01*
X12631357Y-21558929D01*
X12645643Y-21487500D01*
X12645643Y-21430357D01*
X12631357Y-21358929D01*
X12617071Y-21316072D01*
X12602786Y-21287500D01*
X12574214Y-21244643D01*
X12559928Y-21230357D01*
M02*
