G04 #@! TF.FileFunction,Legend,Top*
%FSLAX46Y46*%
G04 Gerber Fmt 4.6, Leading zero omitted, Abs format (unit mm)*
G04 Created by KiCad (PCBNEW 4.0.1-stable) date Monday, February 22, 2016 'PMt' 07:07:20 PM*
%MOMM*%
G01*
G04 APERTURE LIST*
%ADD10C,0.100000*%
%ADD11C,0.300000*%
%ADD12C,0.150000*%
%ADD13C,0.304800*%
G04 APERTURE END LIST*
D10*
D11*
X65857143Y-122478571D02*
X65857143Y-123692857D01*
X65928571Y-123835714D01*
X66000000Y-123907143D01*
X66142857Y-123978571D01*
X66428571Y-123978571D01*
X66571429Y-123907143D01*
X66642857Y-123835714D01*
X66714286Y-123692857D01*
X66714286Y-122478571D01*
X67428572Y-122978571D02*
X67428572Y-123978571D01*
X67428572Y-123121429D02*
X67500000Y-123050000D01*
X67642858Y-122978571D01*
X67857143Y-122978571D01*
X68000000Y-123050000D01*
X68071429Y-123192857D01*
X68071429Y-123978571D01*
X68785715Y-123978571D02*
X68785715Y-122978571D01*
X68785715Y-122478571D02*
X68714286Y-122550000D01*
X68785715Y-122621429D01*
X68857143Y-122550000D01*
X68785715Y-122478571D01*
X68785715Y-122621429D01*
X69357144Y-122978571D02*
X69714287Y-123978571D01*
X70071429Y-122978571D01*
X71214286Y-123907143D02*
X71071429Y-123978571D01*
X70785715Y-123978571D01*
X70642858Y-123907143D01*
X70571429Y-123764286D01*
X70571429Y-123192857D01*
X70642858Y-123050000D01*
X70785715Y-122978571D01*
X71071429Y-122978571D01*
X71214286Y-123050000D01*
X71285715Y-123192857D01*
X71285715Y-123335714D01*
X70571429Y-123478571D01*
X71928572Y-123978571D02*
X71928572Y-122978571D01*
X71928572Y-123264286D02*
X72000000Y-123121429D01*
X72071429Y-123050000D01*
X72214286Y-122978571D01*
X72357143Y-122978571D01*
X72785714Y-123907143D02*
X72928571Y-123978571D01*
X73214286Y-123978571D01*
X73357143Y-123907143D01*
X73428571Y-123764286D01*
X73428571Y-123692857D01*
X73357143Y-123550000D01*
X73214286Y-123478571D01*
X73000000Y-123478571D01*
X72857143Y-123407143D01*
X72785714Y-123264286D01*
X72785714Y-123192857D01*
X72857143Y-123050000D01*
X73000000Y-122978571D01*
X73214286Y-122978571D01*
X73357143Y-123050000D01*
X74071429Y-123978571D02*
X74071429Y-122978571D01*
X74071429Y-122478571D02*
X74000000Y-122550000D01*
X74071429Y-122621429D01*
X74142857Y-122550000D01*
X74071429Y-122478571D01*
X74071429Y-122621429D01*
X74571429Y-122978571D02*
X75142858Y-122978571D01*
X74785715Y-122478571D02*
X74785715Y-123764286D01*
X74857143Y-123907143D01*
X75000001Y-123978571D01*
X75142858Y-123978571D01*
X75500001Y-122978571D02*
X75857144Y-123978571D01*
X76214286Y-122978571D02*
X75857144Y-123978571D01*
X75714286Y-124335714D01*
X75642858Y-124407143D01*
X75500001Y-124478571D01*
X78142858Y-123978571D02*
X78000000Y-123907143D01*
X77928572Y-123835714D01*
X77857143Y-123692857D01*
X77857143Y-123264286D01*
X77928572Y-123121429D01*
X78000000Y-123050000D01*
X78142858Y-122978571D01*
X78357143Y-122978571D01*
X78500000Y-123050000D01*
X78571429Y-123121429D01*
X78642858Y-123264286D01*
X78642858Y-123692857D01*
X78571429Y-123835714D01*
X78500000Y-123907143D01*
X78357143Y-123978571D01*
X78142858Y-123978571D01*
X79071429Y-122978571D02*
X79642858Y-122978571D01*
X79285715Y-123978571D02*
X79285715Y-122692857D01*
X79357143Y-122550000D01*
X79500001Y-122478571D01*
X79642858Y-122478571D01*
X81142858Y-122478571D02*
X81500001Y-123978571D01*
X81785715Y-122907143D01*
X82071429Y-123978571D01*
X82428572Y-122478571D01*
X83642858Y-123978571D02*
X83642858Y-123192857D01*
X83571429Y-123050000D01*
X83428572Y-122978571D01*
X83142858Y-122978571D01*
X83000001Y-123050000D01*
X83642858Y-123907143D02*
X83500001Y-123978571D01*
X83142858Y-123978571D01*
X83000001Y-123907143D01*
X82928572Y-123764286D01*
X82928572Y-123621429D01*
X83000001Y-123478571D01*
X83142858Y-123407143D01*
X83500001Y-123407143D01*
X83642858Y-123335714D01*
X84285715Y-123907143D02*
X84428572Y-123978571D01*
X84714287Y-123978571D01*
X84857144Y-123907143D01*
X84928572Y-123764286D01*
X84928572Y-123692857D01*
X84857144Y-123550000D01*
X84714287Y-123478571D01*
X84500001Y-123478571D01*
X84357144Y-123407143D01*
X84285715Y-123264286D01*
X84285715Y-123192857D01*
X84357144Y-123050000D01*
X84500001Y-122978571D01*
X84714287Y-122978571D01*
X84857144Y-123050000D01*
X85571430Y-123978571D02*
X85571430Y-122478571D01*
X86214287Y-123978571D02*
X86214287Y-123192857D01*
X86142858Y-123050000D01*
X86000001Y-122978571D01*
X85785716Y-122978571D01*
X85642858Y-123050000D01*
X85571430Y-123121429D01*
X86928573Y-123978571D02*
X86928573Y-122978571D01*
X86928573Y-122478571D02*
X86857144Y-122550000D01*
X86928573Y-122621429D01*
X87000001Y-122550000D01*
X86928573Y-122478571D01*
X86928573Y-122621429D01*
X87642859Y-122978571D02*
X87642859Y-123978571D01*
X87642859Y-123121429D02*
X87714287Y-123050000D01*
X87857145Y-122978571D01*
X88071430Y-122978571D01*
X88214287Y-123050000D01*
X88285716Y-123192857D01*
X88285716Y-123978571D01*
X89642859Y-122978571D02*
X89642859Y-124192857D01*
X89571430Y-124335714D01*
X89500002Y-124407143D01*
X89357145Y-124478571D01*
X89142859Y-124478571D01*
X89000002Y-124407143D01*
X89642859Y-123907143D02*
X89500002Y-123978571D01*
X89214288Y-123978571D01*
X89071430Y-123907143D01*
X89000002Y-123835714D01*
X88928573Y-123692857D01*
X88928573Y-123264286D01*
X89000002Y-123121429D01*
X89071430Y-123050000D01*
X89214288Y-122978571D01*
X89500002Y-122978571D01*
X89642859Y-123050000D01*
X90142859Y-122978571D02*
X90714288Y-122978571D01*
X90357145Y-122478571D02*
X90357145Y-123764286D01*
X90428573Y-123907143D01*
X90571431Y-123978571D01*
X90714288Y-123978571D01*
X91428574Y-123978571D02*
X91285716Y-123907143D01*
X91214288Y-123835714D01*
X91142859Y-123692857D01*
X91142859Y-123264286D01*
X91214288Y-123121429D01*
X91285716Y-123050000D01*
X91428574Y-122978571D01*
X91642859Y-122978571D01*
X91785716Y-123050000D01*
X91857145Y-123121429D01*
X91928574Y-123264286D01*
X91928574Y-123692857D01*
X91857145Y-123835714D01*
X91785716Y-123907143D01*
X91642859Y-123978571D01*
X91428574Y-123978571D01*
X92571431Y-122978571D02*
X92571431Y-123978571D01*
X92571431Y-123121429D02*
X92642859Y-123050000D01*
X92785717Y-122978571D01*
X93000002Y-122978571D01*
X93142859Y-123050000D01*
X93214288Y-123192857D01*
X93214288Y-123978571D01*
X95571431Y-123192857D02*
X95785717Y-123264286D01*
X95857145Y-123335714D01*
X95928574Y-123478571D01*
X95928574Y-123692857D01*
X95857145Y-123835714D01*
X95785717Y-123907143D01*
X95642859Y-123978571D01*
X95071431Y-123978571D01*
X95071431Y-122478571D01*
X95571431Y-122478571D01*
X95714288Y-122550000D01*
X95785717Y-122621429D01*
X95857145Y-122764286D01*
X95857145Y-122907143D01*
X95785717Y-123050000D01*
X95714288Y-123121429D01*
X95571431Y-123192857D01*
X95071431Y-123192857D01*
X96785717Y-123978571D02*
X96642859Y-123907143D01*
X96571431Y-123835714D01*
X96500002Y-123692857D01*
X96500002Y-123264286D01*
X96571431Y-123121429D01*
X96642859Y-123050000D01*
X96785717Y-122978571D01*
X97000002Y-122978571D01*
X97142859Y-123050000D01*
X97214288Y-123121429D01*
X97285717Y-123264286D01*
X97285717Y-123692857D01*
X97214288Y-123835714D01*
X97142859Y-123907143D01*
X97000002Y-123978571D01*
X96785717Y-123978571D01*
X97714288Y-122978571D02*
X98285717Y-122978571D01*
X97928574Y-122478571D02*
X97928574Y-123764286D01*
X98000002Y-123907143D01*
X98142860Y-123978571D01*
X98285717Y-123978571D01*
X98785717Y-123978571D02*
X98785717Y-122478571D01*
X99428574Y-123978571D02*
X99428574Y-123192857D01*
X99357145Y-123050000D01*
X99214288Y-122978571D01*
X99000003Y-122978571D01*
X98857145Y-123050000D01*
X98785717Y-123121429D01*
X100714288Y-123907143D02*
X100571431Y-123978571D01*
X100285717Y-123978571D01*
X100142860Y-123907143D01*
X100071431Y-123764286D01*
X100071431Y-123192857D01*
X100142860Y-123050000D01*
X100285717Y-122978571D01*
X100571431Y-122978571D01*
X100714288Y-123050000D01*
X100785717Y-123192857D01*
X100785717Y-123335714D01*
X100071431Y-123478571D01*
X101642860Y-123978571D02*
X101500002Y-123907143D01*
X101428574Y-123764286D01*
X101428574Y-122478571D01*
X102428574Y-123978571D02*
X102285716Y-123907143D01*
X102214288Y-123764286D01*
X102214288Y-122478571D01*
X66714286Y-126378571D02*
X66214286Y-125664286D01*
X65857143Y-126378571D02*
X65857143Y-124878571D01*
X66428571Y-124878571D01*
X66571429Y-124950000D01*
X66642857Y-125021429D01*
X66714286Y-125164286D01*
X66714286Y-125378571D01*
X66642857Y-125521429D01*
X66571429Y-125592857D01*
X66428571Y-125664286D01*
X65857143Y-125664286D01*
X67928571Y-126307143D02*
X67785714Y-126378571D01*
X67500000Y-126378571D01*
X67357143Y-126307143D01*
X67285714Y-126164286D01*
X67285714Y-125592857D01*
X67357143Y-125450000D01*
X67500000Y-125378571D01*
X67785714Y-125378571D01*
X67928571Y-125450000D01*
X68000000Y-125592857D01*
X68000000Y-125735714D01*
X67285714Y-125878571D01*
X68642857Y-126378571D02*
X68642857Y-125378571D01*
X68642857Y-125521429D02*
X68714285Y-125450000D01*
X68857143Y-125378571D01*
X69071428Y-125378571D01*
X69214285Y-125450000D01*
X69285714Y-125592857D01*
X69285714Y-126378571D01*
X69285714Y-125592857D02*
X69357143Y-125450000D01*
X69500000Y-125378571D01*
X69714285Y-125378571D01*
X69857143Y-125450000D01*
X69928571Y-125592857D01*
X69928571Y-126378571D01*
X70857143Y-126378571D02*
X70714285Y-126307143D01*
X70642857Y-126235714D01*
X70571428Y-126092857D01*
X70571428Y-125664286D01*
X70642857Y-125521429D01*
X70714285Y-125450000D01*
X70857143Y-125378571D01*
X71071428Y-125378571D01*
X71214285Y-125450000D01*
X71285714Y-125521429D01*
X71357143Y-125664286D01*
X71357143Y-126092857D01*
X71285714Y-126235714D01*
X71214285Y-126307143D01*
X71071428Y-126378571D01*
X70857143Y-126378571D01*
X71785714Y-125378571D02*
X72357143Y-125378571D01*
X72000000Y-124878571D02*
X72000000Y-126164286D01*
X72071428Y-126307143D01*
X72214286Y-126378571D01*
X72357143Y-126378571D01*
X73428571Y-126307143D02*
X73285714Y-126378571D01*
X73000000Y-126378571D01*
X72857143Y-126307143D01*
X72785714Y-126164286D01*
X72785714Y-125592857D01*
X72857143Y-125450000D01*
X73000000Y-125378571D01*
X73285714Y-125378571D01*
X73428571Y-125450000D01*
X73500000Y-125592857D01*
X73500000Y-125735714D01*
X72785714Y-125878571D01*
X76000000Y-126378571D02*
X75285714Y-126378571D01*
X75285714Y-124878571D01*
X77142857Y-126378571D02*
X77142857Y-125592857D01*
X77071428Y-125450000D01*
X76928571Y-125378571D01*
X76642857Y-125378571D01*
X76500000Y-125450000D01*
X77142857Y-126307143D02*
X77000000Y-126378571D01*
X76642857Y-126378571D01*
X76500000Y-126307143D01*
X76428571Y-126164286D01*
X76428571Y-126021429D01*
X76500000Y-125878571D01*
X76642857Y-125807143D01*
X77000000Y-125807143D01*
X77142857Y-125735714D01*
X77857143Y-126378571D02*
X77857143Y-124878571D01*
X77857143Y-125450000D02*
X78000000Y-125378571D01*
X78285714Y-125378571D01*
X78428571Y-125450000D01*
X78500000Y-125521429D01*
X78571429Y-125664286D01*
X78571429Y-126092857D01*
X78500000Y-126235714D01*
X78428571Y-126307143D01*
X78285714Y-126378571D01*
X78000000Y-126378571D01*
X77857143Y-126307143D01*
X80285714Y-126307143D02*
X80500000Y-126378571D01*
X80857143Y-126378571D01*
X81000000Y-126307143D01*
X81071429Y-126235714D01*
X81142857Y-126092857D01*
X81142857Y-125950000D01*
X81071429Y-125807143D01*
X81000000Y-125735714D01*
X80857143Y-125664286D01*
X80571429Y-125592857D01*
X80428571Y-125521429D01*
X80357143Y-125450000D01*
X80285714Y-125307143D01*
X80285714Y-125164286D01*
X80357143Y-125021429D01*
X80428571Y-124950000D01*
X80571429Y-124878571D01*
X80928571Y-124878571D01*
X81142857Y-124950000D01*
X81642857Y-125378571D02*
X82000000Y-126378571D01*
X82357142Y-125378571D02*
X82000000Y-126378571D01*
X81857142Y-126735714D01*
X81785714Y-126807143D01*
X81642857Y-126878571D01*
X82857142Y-126307143D02*
X82999999Y-126378571D01*
X83285714Y-126378571D01*
X83428571Y-126307143D01*
X83499999Y-126164286D01*
X83499999Y-126092857D01*
X83428571Y-125950000D01*
X83285714Y-125878571D01*
X83071428Y-125878571D01*
X82928571Y-125807143D01*
X82857142Y-125664286D01*
X82857142Y-125592857D01*
X82928571Y-125450000D01*
X83071428Y-125378571D01*
X83285714Y-125378571D01*
X83428571Y-125450000D01*
X83928571Y-125378571D02*
X84500000Y-125378571D01*
X84142857Y-124878571D02*
X84142857Y-126164286D01*
X84214285Y-126307143D01*
X84357143Y-126378571D01*
X84500000Y-126378571D01*
X85571428Y-126307143D02*
X85428571Y-126378571D01*
X85142857Y-126378571D01*
X85000000Y-126307143D01*
X84928571Y-126164286D01*
X84928571Y-125592857D01*
X85000000Y-125450000D01*
X85142857Y-125378571D01*
X85428571Y-125378571D01*
X85571428Y-125450000D01*
X85642857Y-125592857D01*
X85642857Y-125735714D01*
X84928571Y-125878571D01*
X86285714Y-126378571D02*
X86285714Y-125378571D01*
X86285714Y-125521429D02*
X86357142Y-125450000D01*
X86500000Y-125378571D01*
X86714285Y-125378571D01*
X86857142Y-125450000D01*
X86928571Y-125592857D01*
X86928571Y-126378571D01*
X86928571Y-125592857D02*
X87000000Y-125450000D01*
X87142857Y-125378571D01*
X87357142Y-125378571D01*
X87500000Y-125450000D01*
X87571428Y-125592857D01*
X87571428Y-126378571D01*
X66357143Y-130392857D02*
X66571429Y-130464286D01*
X66642857Y-130535714D01*
X66714286Y-130678571D01*
X66714286Y-130892857D01*
X66642857Y-131035714D01*
X66571429Y-131107143D01*
X66428571Y-131178571D01*
X65857143Y-131178571D01*
X65857143Y-129678571D01*
X66357143Y-129678571D01*
X66500000Y-129750000D01*
X66571429Y-129821429D01*
X66642857Y-129964286D01*
X66642857Y-130107143D01*
X66571429Y-130250000D01*
X66500000Y-130321429D01*
X66357143Y-130392857D01*
X65857143Y-130392857D01*
X67214286Y-130178571D02*
X67571429Y-131178571D01*
X67928571Y-130178571D02*
X67571429Y-131178571D01*
X67428571Y-131535714D01*
X67357143Y-131607143D01*
X67214286Y-131678571D01*
X65642857Y-132078571D02*
X66500000Y-132078571D01*
X66071429Y-133578571D02*
X66071429Y-132078571D01*
X67000000Y-133578571D02*
X67000000Y-132578571D01*
X67000000Y-132078571D02*
X66928571Y-132150000D01*
X67000000Y-132221429D01*
X67071428Y-132150000D01*
X67000000Y-132078571D01*
X67000000Y-132221429D01*
X67714286Y-132578571D02*
X67714286Y-133578571D01*
X67714286Y-132721429D02*
X67785714Y-132650000D01*
X67928572Y-132578571D01*
X68142857Y-132578571D01*
X68285714Y-132650000D01*
X68357143Y-132792857D01*
X68357143Y-133578571D01*
X69714286Y-132578571D02*
X69714286Y-133792857D01*
X69642857Y-133935714D01*
X69571429Y-134007143D01*
X69428572Y-134078571D01*
X69214286Y-134078571D01*
X69071429Y-134007143D01*
X69714286Y-133507143D02*
X69571429Y-133578571D01*
X69285715Y-133578571D01*
X69142857Y-133507143D01*
X69071429Y-133435714D01*
X69000000Y-133292857D01*
X69000000Y-132864286D01*
X69071429Y-132721429D01*
X69142857Y-132650000D01*
X69285715Y-132578571D01*
X69571429Y-132578571D01*
X69714286Y-132650000D01*
X72071429Y-132792857D02*
X71571429Y-132792857D01*
X71571429Y-133578571D02*
X71571429Y-132078571D01*
X72285715Y-132078571D01*
X73500000Y-132578571D02*
X73500000Y-133578571D01*
X72857143Y-132578571D02*
X72857143Y-133364286D01*
X72928571Y-133507143D01*
X73071429Y-133578571D01*
X73285714Y-133578571D01*
X73428571Y-133507143D01*
X73500000Y-133435714D01*
X76071429Y-133578571D02*
X75357143Y-133578571D01*
X75357143Y-132078571D01*
X76571429Y-133578571D02*
X76571429Y-132578571D01*
X76571429Y-132078571D02*
X76500000Y-132150000D01*
X76571429Y-132221429D01*
X76642857Y-132150000D01*
X76571429Y-132078571D01*
X76571429Y-132221429D01*
X65857143Y-135978571D02*
X65857143Y-134478571D01*
X66214286Y-134478571D01*
X66428571Y-134550000D01*
X66571429Y-134692857D01*
X66642857Y-134835714D01*
X66714286Y-135121429D01*
X66714286Y-135335714D01*
X66642857Y-135621429D01*
X66571429Y-135764286D01*
X66428571Y-135907143D01*
X66214286Y-135978571D01*
X65857143Y-135978571D01*
X67928571Y-135907143D02*
X67785714Y-135978571D01*
X67500000Y-135978571D01*
X67357143Y-135907143D01*
X67285714Y-135764286D01*
X67285714Y-135192857D01*
X67357143Y-135050000D01*
X67500000Y-134978571D01*
X67785714Y-134978571D01*
X67928571Y-135050000D01*
X68000000Y-135192857D01*
X68000000Y-135335714D01*
X67285714Y-135478571D01*
X68500000Y-134978571D02*
X68857143Y-135978571D01*
X69214285Y-134978571D01*
X69785714Y-135978571D02*
X69785714Y-134978571D01*
X69785714Y-134478571D02*
X69714285Y-134550000D01*
X69785714Y-134621429D01*
X69857142Y-134550000D01*
X69785714Y-134478571D01*
X69785714Y-134621429D01*
X70500000Y-134978571D02*
X70500000Y-135978571D01*
X70500000Y-135121429D02*
X70571428Y-135050000D01*
X70714286Y-134978571D01*
X70928571Y-134978571D01*
X71071428Y-135050000D01*
X71142857Y-135192857D01*
X71142857Y-135978571D01*
X73000000Y-135978571D02*
X73000000Y-134478571D01*
X73857143Y-135978571D01*
X73857143Y-134478571D01*
X75214286Y-135978571D02*
X75214286Y-135192857D01*
X75142857Y-135050000D01*
X75000000Y-134978571D01*
X74714286Y-134978571D01*
X74571429Y-135050000D01*
X75214286Y-135907143D02*
X75071429Y-135978571D01*
X74714286Y-135978571D01*
X74571429Y-135907143D01*
X74500000Y-135764286D01*
X74500000Y-135621429D01*
X74571429Y-135478571D01*
X74714286Y-135407143D01*
X75071429Y-135407143D01*
X75214286Y-135335714D01*
X75928572Y-135978571D02*
X75928572Y-134478571D01*
X76071429Y-135407143D02*
X76500000Y-135978571D01*
X76500000Y-134978571D02*
X75928572Y-135550000D01*
X77785715Y-135978571D02*
X77785715Y-135192857D01*
X77714286Y-135050000D01*
X77571429Y-134978571D01*
X77285715Y-134978571D01*
X77142858Y-135050000D01*
X77785715Y-135907143D02*
X77642858Y-135978571D01*
X77285715Y-135978571D01*
X77142858Y-135907143D01*
X77071429Y-135764286D01*
X77071429Y-135621429D01*
X77142858Y-135478571D01*
X77285715Y-135407143D01*
X77642858Y-135407143D01*
X77785715Y-135335714D01*
X78500001Y-135978571D02*
X78500001Y-134478571D01*
X79142858Y-135978571D02*
X79142858Y-135192857D01*
X79071429Y-135050000D01*
X78928572Y-134978571D01*
X78714287Y-134978571D01*
X78571429Y-135050000D01*
X78500001Y-135121429D01*
X80500001Y-135978571D02*
X80500001Y-135192857D01*
X80428572Y-135050000D01*
X80285715Y-134978571D01*
X80000001Y-134978571D01*
X79857144Y-135050000D01*
X80500001Y-135907143D02*
X80357144Y-135978571D01*
X80000001Y-135978571D01*
X79857144Y-135907143D01*
X79785715Y-135764286D01*
X79785715Y-135621429D01*
X79857144Y-135478571D01*
X80000001Y-135407143D01*
X80357144Y-135407143D01*
X80500001Y-135335714D01*
X81214287Y-135978571D02*
X81214287Y-134978571D01*
X81214287Y-135264286D02*
X81285715Y-135121429D01*
X81357144Y-135050000D01*
X81500001Y-134978571D01*
X81642858Y-134978571D01*
X82785715Y-135978571D02*
X82785715Y-135192857D01*
X82714286Y-135050000D01*
X82571429Y-134978571D01*
X82285715Y-134978571D01*
X82142858Y-135050000D01*
X82785715Y-135907143D02*
X82642858Y-135978571D01*
X82285715Y-135978571D01*
X82142858Y-135907143D01*
X82071429Y-135764286D01*
X82071429Y-135621429D01*
X82142858Y-135478571D01*
X82285715Y-135407143D01*
X82642858Y-135407143D01*
X82785715Y-135335714D01*
X65785714Y-137950000D02*
X66500000Y-137950000D01*
X65642857Y-138378571D02*
X66142857Y-136878571D01*
X66642857Y-138378571D01*
X67357143Y-138378571D02*
X67214285Y-138307143D01*
X67142857Y-138164286D01*
X67142857Y-136878571D01*
X68499999Y-138307143D02*
X68357142Y-138378571D01*
X68071428Y-138378571D01*
X67928571Y-138307143D01*
X67857142Y-138164286D01*
X67857142Y-137592857D01*
X67928571Y-137450000D01*
X68071428Y-137378571D01*
X68357142Y-137378571D01*
X68499999Y-137450000D01*
X68571428Y-137592857D01*
X68571428Y-137735714D01*
X67857142Y-137878571D01*
X69071428Y-138378571D02*
X69857142Y-137378571D01*
X69071428Y-137378571D02*
X69857142Y-138378571D01*
X71499999Y-138307143D02*
X71714285Y-138378571D01*
X72071428Y-138378571D01*
X72214285Y-138307143D01*
X72285714Y-138235714D01*
X72357142Y-138092857D01*
X72357142Y-137950000D01*
X72285714Y-137807143D01*
X72214285Y-137735714D01*
X72071428Y-137664286D01*
X71785714Y-137592857D01*
X71642856Y-137521429D01*
X71571428Y-137450000D01*
X71499999Y-137307143D01*
X71499999Y-137164286D01*
X71571428Y-137021429D01*
X71642856Y-136950000D01*
X71785714Y-136878571D01*
X72142856Y-136878571D01*
X72357142Y-136950000D01*
X72999999Y-138378571D02*
X72999999Y-137378571D01*
X72999999Y-136878571D02*
X72928570Y-136950000D01*
X72999999Y-137021429D01*
X73071427Y-136950000D01*
X72999999Y-136878571D01*
X72999999Y-137021429D01*
X73714285Y-137378571D02*
X73714285Y-138378571D01*
X73714285Y-137521429D02*
X73785713Y-137450000D01*
X73928571Y-137378571D01*
X74142856Y-137378571D01*
X74285713Y-137450000D01*
X74357142Y-137592857D01*
X74357142Y-138378571D01*
X75285714Y-138378571D02*
X75142856Y-138307143D01*
X75071428Y-138235714D01*
X74999999Y-138092857D01*
X74999999Y-137664286D01*
X75071428Y-137521429D01*
X75142856Y-137450000D01*
X75285714Y-137378571D01*
X75499999Y-137378571D01*
X75642856Y-137450000D01*
X75714285Y-137521429D01*
X75785714Y-137664286D01*
X75785714Y-138092857D01*
X75714285Y-138235714D01*
X75642856Y-138307143D01*
X75499999Y-138378571D01*
X75285714Y-138378571D01*
X76428571Y-137378571D02*
X76428571Y-138378571D01*
X76428571Y-137521429D02*
X76499999Y-137450000D01*
X76642857Y-137378571D01*
X76857142Y-137378571D01*
X76999999Y-137450000D01*
X77071428Y-137592857D01*
X77071428Y-138378571D01*
D12*
X147931000Y-119483000D02*
X147931000Y-119783000D01*
X151281000Y-119483000D02*
X151281000Y-119783000D01*
X151281000Y-122833000D02*
X151281000Y-122533000D01*
X147931000Y-122833000D02*
X147931000Y-122533000D01*
X147931000Y-119483000D02*
X151281000Y-119483000D01*
X147931000Y-122833000D02*
X151281000Y-122833000D01*
X147931000Y-119783000D02*
X146706000Y-119783000D01*
X144915000Y-124197000D02*
X144915000Y-125467000D01*
X152265000Y-124197000D02*
X152265000Y-125467000D01*
X152265000Y-138947000D02*
X152265000Y-137677000D01*
X144915000Y-138947000D02*
X144915000Y-137677000D01*
X144915000Y-124197000D02*
X152265000Y-124197000D01*
X144915000Y-138947000D02*
X152265000Y-138947000D01*
X144915000Y-125467000D02*
X143980000Y-125467000D01*
X198868000Y-144926000D02*
X173468000Y-144926000D01*
X173468000Y-144926000D02*
X173468000Y-139846000D01*
X173468000Y-139846000D02*
X224268000Y-139846000D01*
X225538000Y-114446000D02*
X225538000Y-87776000D01*
X225538000Y-87776000D02*
X230618000Y-87776000D01*
X230618000Y-87776000D02*
X230618000Y-113176000D01*
X168388000Y-113176000D02*
X168388000Y-87776000D01*
X168388000Y-87776000D02*
X173468000Y-87776000D01*
X173468000Y-87776000D02*
X173468000Y-113176000D01*
X198868000Y-144926000D02*
X224268000Y-144926000D01*
X224268000Y-144926000D02*
X224268000Y-139846000D01*
X173468000Y-138576000D02*
X168388000Y-138576000D01*
X168388000Y-138576000D02*
X168388000Y-113176000D01*
X173468000Y-113176000D02*
X173468000Y-138576000D01*
X225538000Y-114446000D02*
X225538000Y-138576000D01*
X225538000Y-138576000D02*
X230618000Y-138576000D01*
X230618000Y-138576000D02*
X230618000Y-113176000D01*
X210566000Y-154940000D02*
X210566000Y-162560000D01*
X210566000Y-162560000D02*
X197866000Y-162560000D01*
X197866000Y-162560000D02*
X197866000Y-154940000D01*
X197866000Y-154940000D02*
X210566000Y-154940000D01*
X232664000Y-154940000D02*
X232664000Y-162560000D01*
X232664000Y-162560000D02*
X219964000Y-162560000D01*
X219964000Y-162560000D02*
X219964000Y-154940000D01*
X219964000Y-154940000D02*
X232664000Y-154940000D01*
D11*
X88160000Y-29270000D02*
X67840000Y-29270000D01*
X88160000Y-29270000D02*
X88160000Y-15300000D01*
X67840000Y-29270000D02*
X88160000Y-29270000D01*
X67840000Y-15300000D02*
X67840000Y-29270000D01*
X67840000Y-29270000D02*
X67840000Y-15300000D01*
X88160000Y-15300000D02*
X67840000Y-15300000D01*
D12*
X231902000Y-136017000D02*
X231902000Y-87757000D01*
X231902000Y-87757000D02*
X234442000Y-87757000D01*
X234442000Y-87757000D02*
X234442000Y-136017000D01*
X231622000Y-138837000D02*
X231622000Y-137287000D01*
X231902000Y-136017000D02*
X234442000Y-136017000D01*
X234722000Y-137287000D02*
X234722000Y-138837000D01*
X234722000Y-138837000D02*
X231622000Y-138837000D01*
X234442000Y-136017000D02*
X234442000Y-87757000D01*
X234442000Y-87757000D02*
X236982000Y-87757000D01*
X236982000Y-87757000D02*
X236982000Y-136017000D01*
X234162000Y-138837000D02*
X234162000Y-137287000D01*
X234442000Y-136017000D02*
X236982000Y-136017000D01*
X237262000Y-137287000D02*
X237262000Y-138837000D01*
X237262000Y-138837000D02*
X234162000Y-138837000D01*
X196052000Y-155964000D02*
X196052000Y-161964000D01*
X191552000Y-161964000D02*
X191552000Y-155964000D01*
X217896000Y-155964000D02*
X217896000Y-161964000D01*
X213396000Y-161964000D02*
X213396000Y-155964000D01*
X125206000Y-139437000D02*
X123206000Y-139437000D01*
X123206000Y-141487000D02*
X125206000Y-141487000D01*
X157217000Y-97552000D02*
X157217000Y-99552000D01*
X159267000Y-99552000D02*
X159267000Y-97552000D01*
X138922000Y-138421000D02*
X136922000Y-138421000D01*
X136922000Y-140471000D02*
X138922000Y-140471000D01*
X154169000Y-97552000D02*
X154169000Y-99552000D01*
X156219000Y-99552000D02*
X156219000Y-97552000D01*
X138922000Y-141215000D02*
X136922000Y-141215000D01*
X136922000Y-143265000D02*
X138922000Y-143265000D01*
X140224000Y-101863000D02*
X142224000Y-101863000D01*
X142224000Y-99813000D02*
X140224000Y-99813000D01*
X146034000Y-139691000D02*
X144034000Y-139691000D01*
X144034000Y-141741000D02*
X146034000Y-141741000D01*
X144739000Y-68635000D02*
X139741000Y-68635000D01*
X144731000Y-68775000D02*
X139749000Y-68775000D01*
X144715000Y-68915000D02*
X142335000Y-68915000D01*
X142145000Y-68915000D02*
X139765000Y-68915000D01*
X144691000Y-69055000D02*
X142730000Y-69055000D01*
X141750000Y-69055000D02*
X139789000Y-69055000D01*
X144658000Y-69195000D02*
X142897000Y-69195000D01*
X141583000Y-69195000D02*
X139822000Y-69195000D01*
X144617000Y-69335000D02*
X143004000Y-69335000D01*
X141476000Y-69335000D02*
X139863000Y-69335000D01*
X144567000Y-69475000D02*
X143075000Y-69475000D01*
X141405000Y-69475000D02*
X139913000Y-69475000D01*
X144506000Y-69615000D02*
X143119000Y-69615000D01*
X141361000Y-69615000D02*
X139974000Y-69615000D01*
X144436000Y-69755000D02*
X143138000Y-69755000D01*
X141342000Y-69755000D02*
X140044000Y-69755000D01*
X144354000Y-69895000D02*
X143136000Y-69895000D01*
X141344000Y-69895000D02*
X140126000Y-69895000D01*
X144259000Y-70035000D02*
X143111000Y-70035000D01*
X141369000Y-70035000D02*
X140221000Y-70035000D01*
X144148000Y-70175000D02*
X143063000Y-70175000D01*
X141417000Y-70175000D02*
X140332000Y-70175000D01*
X144020000Y-70315000D02*
X142985000Y-70315000D01*
X141495000Y-70315000D02*
X140460000Y-70315000D01*
X143871000Y-70455000D02*
X142868000Y-70455000D01*
X141612000Y-70455000D02*
X140609000Y-70455000D01*
X143692000Y-70595000D02*
X142680000Y-70595000D01*
X141800000Y-70595000D02*
X140788000Y-70595000D01*
X143473000Y-70735000D02*
X141007000Y-70735000D01*
X143184000Y-70875000D02*
X141296000Y-70875000D01*
X142712000Y-71015000D02*
X141768000Y-71015000D01*
X143140000Y-69810000D02*
G75*
G03X143140000Y-69810000I-900000J0D01*
G01*
X144777500Y-68560000D02*
G75*
G03X144777500Y-68560000I-2537500J0D01*
G01*
X132572000Y-123435000D02*
X130572000Y-123435000D01*
X130572000Y-125485000D02*
X132572000Y-125485000D01*
X125206000Y-159757000D02*
X123206000Y-159757000D01*
X123206000Y-161807000D02*
X125206000Y-161807000D01*
X135373000Y-97552000D02*
X135373000Y-99552000D01*
X137423000Y-99552000D02*
X137423000Y-97552000D01*
X139430000Y-158995000D02*
X137430000Y-158995000D01*
X137430000Y-161045000D02*
X139430000Y-161045000D01*
X132325000Y-97552000D02*
X132325000Y-99552000D01*
X134375000Y-99552000D02*
X134375000Y-97552000D01*
X139430000Y-162043000D02*
X137430000Y-162043000D01*
X137430000Y-164093000D02*
X139430000Y-164093000D01*
X119650000Y-101863000D02*
X121650000Y-101863000D01*
X121650000Y-99813000D02*
X119650000Y-99813000D01*
X156981000Y-162036000D02*
X156981000Y-160036000D01*
X154931000Y-160036000D02*
X154931000Y-162036000D01*
X132572000Y-144263000D02*
X130572000Y-144263000D01*
X130572000Y-146313000D02*
X132572000Y-146313000D01*
X114675000Y-25499000D02*
X114675000Y-20501000D01*
X114535000Y-25491000D02*
X114535000Y-20509000D01*
X114395000Y-25475000D02*
X114395000Y-23095000D01*
X114395000Y-22905000D02*
X114395000Y-20525000D01*
X114255000Y-25451000D02*
X114255000Y-23490000D01*
X114255000Y-22510000D02*
X114255000Y-20549000D01*
X114115000Y-25418000D02*
X114115000Y-23657000D01*
X114115000Y-22343000D02*
X114115000Y-20582000D01*
X113975000Y-25377000D02*
X113975000Y-23764000D01*
X113975000Y-22236000D02*
X113975000Y-20623000D01*
X113835000Y-25327000D02*
X113835000Y-23835000D01*
X113835000Y-22165000D02*
X113835000Y-20673000D01*
X113695000Y-25266000D02*
X113695000Y-23879000D01*
X113695000Y-22121000D02*
X113695000Y-20734000D01*
X113555000Y-25196000D02*
X113555000Y-23898000D01*
X113555000Y-22102000D02*
X113555000Y-20804000D01*
X113415000Y-25114000D02*
X113415000Y-23896000D01*
X113415000Y-22104000D02*
X113415000Y-20886000D01*
X113275000Y-25019000D02*
X113275000Y-23871000D01*
X113275000Y-22129000D02*
X113275000Y-20981000D01*
X113135000Y-24908000D02*
X113135000Y-23823000D01*
X113135000Y-22177000D02*
X113135000Y-21092000D01*
X112995000Y-24780000D02*
X112995000Y-23745000D01*
X112995000Y-22255000D02*
X112995000Y-21220000D01*
X112855000Y-24631000D02*
X112855000Y-23628000D01*
X112855000Y-22372000D02*
X112855000Y-21369000D01*
X112715000Y-24452000D02*
X112715000Y-23440000D01*
X112715000Y-22560000D02*
X112715000Y-21548000D01*
X112575000Y-24233000D02*
X112575000Y-21767000D01*
X112435000Y-23944000D02*
X112435000Y-22056000D01*
X112295000Y-23472000D02*
X112295000Y-22528000D01*
X114400000Y-23000000D02*
G75*
G03X114400000Y-23000000I-900000J0D01*
G01*
X117287500Y-23000000D02*
G75*
G03X117287500Y-23000000I-2537500J0D01*
G01*
X114675000Y-33499000D02*
X114675000Y-28501000D01*
X114535000Y-33491000D02*
X114535000Y-28509000D01*
X114395000Y-33475000D02*
X114395000Y-31095000D01*
X114395000Y-30905000D02*
X114395000Y-28525000D01*
X114255000Y-33451000D02*
X114255000Y-31490000D01*
X114255000Y-30510000D02*
X114255000Y-28549000D01*
X114115000Y-33418000D02*
X114115000Y-31657000D01*
X114115000Y-30343000D02*
X114115000Y-28582000D01*
X113975000Y-33377000D02*
X113975000Y-31764000D01*
X113975000Y-30236000D02*
X113975000Y-28623000D01*
X113835000Y-33327000D02*
X113835000Y-31835000D01*
X113835000Y-30165000D02*
X113835000Y-28673000D01*
X113695000Y-33266000D02*
X113695000Y-31879000D01*
X113695000Y-30121000D02*
X113695000Y-28734000D01*
X113555000Y-33196000D02*
X113555000Y-31898000D01*
X113555000Y-30102000D02*
X113555000Y-28804000D01*
X113415000Y-33114000D02*
X113415000Y-31896000D01*
X113415000Y-30104000D02*
X113415000Y-28886000D01*
X113275000Y-33019000D02*
X113275000Y-31871000D01*
X113275000Y-30129000D02*
X113275000Y-28981000D01*
X113135000Y-32908000D02*
X113135000Y-31823000D01*
X113135000Y-30177000D02*
X113135000Y-29092000D01*
X112995000Y-32780000D02*
X112995000Y-31745000D01*
X112995000Y-30255000D02*
X112995000Y-29220000D01*
X112855000Y-32631000D02*
X112855000Y-31628000D01*
X112855000Y-30372000D02*
X112855000Y-29369000D01*
X112715000Y-32452000D02*
X112715000Y-31440000D01*
X112715000Y-30560000D02*
X112715000Y-29548000D01*
X112575000Y-32233000D02*
X112575000Y-29767000D01*
X112435000Y-31944000D02*
X112435000Y-30056000D01*
X112295000Y-31472000D02*
X112295000Y-30528000D01*
X114400000Y-31000000D02*
G75*
G03X114400000Y-31000000I-900000J0D01*
G01*
X117287500Y-31000000D02*
G75*
G03X117287500Y-31000000I-2537500J0D01*
G01*
X154899000Y-68635000D02*
X149901000Y-68635000D01*
X154891000Y-68775000D02*
X149909000Y-68775000D01*
X154875000Y-68915000D02*
X152495000Y-68915000D01*
X152305000Y-68915000D02*
X149925000Y-68915000D01*
X154851000Y-69055000D02*
X152890000Y-69055000D01*
X151910000Y-69055000D02*
X149949000Y-69055000D01*
X154818000Y-69195000D02*
X153057000Y-69195000D01*
X151743000Y-69195000D02*
X149982000Y-69195000D01*
X154777000Y-69335000D02*
X153164000Y-69335000D01*
X151636000Y-69335000D02*
X150023000Y-69335000D01*
X154727000Y-69475000D02*
X153235000Y-69475000D01*
X151565000Y-69475000D02*
X150073000Y-69475000D01*
X154666000Y-69615000D02*
X153279000Y-69615000D01*
X151521000Y-69615000D02*
X150134000Y-69615000D01*
X154596000Y-69755000D02*
X153298000Y-69755000D01*
X151502000Y-69755000D02*
X150204000Y-69755000D01*
X154514000Y-69895000D02*
X153296000Y-69895000D01*
X151504000Y-69895000D02*
X150286000Y-69895000D01*
X154419000Y-70035000D02*
X153271000Y-70035000D01*
X151529000Y-70035000D02*
X150381000Y-70035000D01*
X154308000Y-70175000D02*
X153223000Y-70175000D01*
X151577000Y-70175000D02*
X150492000Y-70175000D01*
X154180000Y-70315000D02*
X153145000Y-70315000D01*
X151655000Y-70315000D02*
X150620000Y-70315000D01*
X154031000Y-70455000D02*
X153028000Y-70455000D01*
X151772000Y-70455000D02*
X150769000Y-70455000D01*
X153852000Y-70595000D02*
X152840000Y-70595000D01*
X151960000Y-70595000D02*
X150948000Y-70595000D01*
X153633000Y-70735000D02*
X151167000Y-70735000D01*
X153344000Y-70875000D02*
X151456000Y-70875000D01*
X152872000Y-71015000D02*
X151928000Y-71015000D01*
X153300000Y-69810000D02*
G75*
G03X153300000Y-69810000I-900000J0D01*
G01*
X154937500Y-68560000D02*
G75*
G03X154937500Y-68560000I-2537500J0D01*
G01*
X124419000Y-68635000D02*
X119421000Y-68635000D01*
X124411000Y-68775000D02*
X119429000Y-68775000D01*
X124395000Y-68915000D02*
X122015000Y-68915000D01*
X121825000Y-68915000D02*
X119445000Y-68915000D01*
X124371000Y-69055000D02*
X122410000Y-69055000D01*
X121430000Y-69055000D02*
X119469000Y-69055000D01*
X124338000Y-69195000D02*
X122577000Y-69195000D01*
X121263000Y-69195000D02*
X119502000Y-69195000D01*
X124297000Y-69335000D02*
X122684000Y-69335000D01*
X121156000Y-69335000D02*
X119543000Y-69335000D01*
X124247000Y-69475000D02*
X122755000Y-69475000D01*
X121085000Y-69475000D02*
X119593000Y-69475000D01*
X124186000Y-69615000D02*
X122799000Y-69615000D01*
X121041000Y-69615000D02*
X119654000Y-69615000D01*
X124116000Y-69755000D02*
X122818000Y-69755000D01*
X121022000Y-69755000D02*
X119724000Y-69755000D01*
X124034000Y-69895000D02*
X122816000Y-69895000D01*
X121024000Y-69895000D02*
X119806000Y-69895000D01*
X123939000Y-70035000D02*
X122791000Y-70035000D01*
X121049000Y-70035000D02*
X119901000Y-70035000D01*
X123828000Y-70175000D02*
X122743000Y-70175000D01*
X121097000Y-70175000D02*
X120012000Y-70175000D01*
X123700000Y-70315000D02*
X122665000Y-70315000D01*
X121175000Y-70315000D02*
X120140000Y-70315000D01*
X123551000Y-70455000D02*
X122548000Y-70455000D01*
X121292000Y-70455000D02*
X120289000Y-70455000D01*
X123372000Y-70595000D02*
X122360000Y-70595000D01*
X121480000Y-70595000D02*
X120468000Y-70595000D01*
X123153000Y-70735000D02*
X120687000Y-70735000D01*
X122864000Y-70875000D02*
X120976000Y-70875000D01*
X122392000Y-71015000D02*
X121448000Y-71015000D01*
X122820000Y-69810000D02*
G75*
G03X122820000Y-69810000I-900000J0D01*
G01*
X124457500Y-68560000D02*
G75*
G03X124457500Y-68560000I-2537500J0D01*
G01*
X134579000Y-68635000D02*
X129581000Y-68635000D01*
X134571000Y-68775000D02*
X129589000Y-68775000D01*
X134555000Y-68915000D02*
X132175000Y-68915000D01*
X131985000Y-68915000D02*
X129605000Y-68915000D01*
X134531000Y-69055000D02*
X132570000Y-69055000D01*
X131590000Y-69055000D02*
X129629000Y-69055000D01*
X134498000Y-69195000D02*
X132737000Y-69195000D01*
X131423000Y-69195000D02*
X129662000Y-69195000D01*
X134457000Y-69335000D02*
X132844000Y-69335000D01*
X131316000Y-69335000D02*
X129703000Y-69335000D01*
X134407000Y-69475000D02*
X132915000Y-69475000D01*
X131245000Y-69475000D02*
X129753000Y-69475000D01*
X134346000Y-69615000D02*
X132959000Y-69615000D01*
X131201000Y-69615000D02*
X129814000Y-69615000D01*
X134276000Y-69755000D02*
X132978000Y-69755000D01*
X131182000Y-69755000D02*
X129884000Y-69755000D01*
X134194000Y-69895000D02*
X132976000Y-69895000D01*
X131184000Y-69895000D02*
X129966000Y-69895000D01*
X134099000Y-70035000D02*
X132951000Y-70035000D01*
X131209000Y-70035000D02*
X130061000Y-70035000D01*
X133988000Y-70175000D02*
X132903000Y-70175000D01*
X131257000Y-70175000D02*
X130172000Y-70175000D01*
X133860000Y-70315000D02*
X132825000Y-70315000D01*
X131335000Y-70315000D02*
X130300000Y-70315000D01*
X133711000Y-70455000D02*
X132708000Y-70455000D01*
X131452000Y-70455000D02*
X130449000Y-70455000D01*
X133532000Y-70595000D02*
X132520000Y-70595000D01*
X131640000Y-70595000D02*
X130628000Y-70595000D01*
X133313000Y-70735000D02*
X130847000Y-70735000D01*
X133024000Y-70875000D02*
X131136000Y-70875000D01*
X132552000Y-71015000D02*
X131608000Y-71015000D01*
X132980000Y-69810000D02*
G75*
G03X132980000Y-69810000I-900000J0D01*
G01*
X134617500Y-68560000D02*
G75*
G03X134617500Y-68560000I-2537500J0D01*
G01*
X76748800Y-65000000D02*
X83251200Y-65000000D01*
X76748800Y-68500120D02*
X76748800Y-61499880D01*
X68001040Y-61499880D02*
X76748800Y-61499880D01*
X68001040Y-68500120D02*
X76748800Y-68500120D01*
X90749280Y-62500640D02*
X91998960Y-62500640D01*
X90500360Y-67499360D02*
X91998960Y-67499360D01*
X78498860Y-62500640D02*
X90749280Y-62500640D01*
X78750320Y-67499360D02*
X90500360Y-67499360D01*
X68001040Y-62500640D02*
X78498860Y-62500640D01*
X68001040Y-67499360D02*
X78750320Y-67499360D01*
X68001040Y-67499360D02*
X68001040Y-62500640D01*
X67000280Y-68500120D02*
X68001040Y-68500120D01*
X67000280Y-68500120D02*
X67000280Y-61499880D01*
X67000280Y-61499880D02*
X68001040Y-61499880D01*
X91998960Y-67499360D02*
X91998960Y-62500640D01*
X83251200Y-68500120D02*
X92999720Y-68500120D01*
X92999720Y-68500120D02*
X92999720Y-61499880D01*
X83251200Y-61499880D02*
X92999720Y-61499880D01*
X83251200Y-68500120D02*
X83251200Y-61499880D01*
X76748800Y-85000000D02*
X83251200Y-85000000D01*
X76748800Y-88500120D02*
X76748800Y-81499880D01*
X68001040Y-81499880D02*
X76748800Y-81499880D01*
X68001040Y-88500120D02*
X76748800Y-88500120D01*
X90749280Y-82500640D02*
X91998960Y-82500640D01*
X90500360Y-87499360D02*
X91998960Y-87499360D01*
X78498860Y-82500640D02*
X90749280Y-82500640D01*
X78750320Y-87499360D02*
X90500360Y-87499360D01*
X68001040Y-82500640D02*
X78498860Y-82500640D01*
X68001040Y-87499360D02*
X78750320Y-87499360D01*
X68001040Y-87499360D02*
X68001040Y-82500640D01*
X67000280Y-88500120D02*
X68001040Y-88500120D01*
X67000280Y-88500120D02*
X67000280Y-81499880D01*
X67000280Y-81499880D02*
X68001040Y-81499880D01*
X91998960Y-87499360D02*
X91998960Y-82500640D01*
X83251200Y-88500120D02*
X92999720Y-88500120D01*
X92999720Y-88500120D02*
X92999720Y-81499880D01*
X83251200Y-81499880D02*
X92999720Y-81499880D01*
X83251200Y-88500120D02*
X83251200Y-81499880D01*
X76748800Y-45000000D02*
X83251200Y-45000000D01*
X76748800Y-48500120D02*
X76748800Y-41499880D01*
X68001040Y-41499880D02*
X76748800Y-41499880D01*
X68001040Y-48500120D02*
X76748800Y-48500120D01*
X90749280Y-42500640D02*
X91998960Y-42500640D01*
X90500360Y-47499360D02*
X91998960Y-47499360D01*
X78498860Y-42500640D02*
X90749280Y-42500640D01*
X78750320Y-47499360D02*
X90500360Y-47499360D01*
X68001040Y-42500640D02*
X78498860Y-42500640D01*
X68001040Y-47499360D02*
X78750320Y-47499360D01*
X68001040Y-47499360D02*
X68001040Y-42500640D01*
X67000280Y-48500120D02*
X68001040Y-48500120D01*
X67000280Y-48500120D02*
X67000280Y-41499880D01*
X67000280Y-41499880D02*
X68001040Y-41499880D01*
X91998960Y-47499360D02*
X91998960Y-42500640D01*
X83251200Y-48500120D02*
X92999720Y-48500120D01*
X92999720Y-48500120D02*
X92999720Y-41499880D01*
X83251200Y-41499880D02*
X92999720Y-41499880D01*
X83251200Y-48500120D02*
X83251200Y-41499880D01*
X219765112Y-21844904D02*
G75*
G03X219750000Y-18820000I2484888J1524904D01*
G01*
X219750000Y-21820000D02*
X219750000Y-18820000D01*
X224767936Y-20320000D02*
G75*
G03X224767936Y-20320000I-2517936J0D01*
G01*
X199445112Y-21844904D02*
G75*
G03X199430000Y-18820000I2484888J1524904D01*
G01*
X199430000Y-21820000D02*
X199430000Y-18820000D01*
X204447936Y-20320000D02*
G75*
G03X204447936Y-20320000I-2517936J0D01*
G01*
X209605112Y-21844904D02*
G75*
G03X209590000Y-18820000I2484888J1524904D01*
G01*
X209590000Y-21820000D02*
X209590000Y-18820000D01*
X214607936Y-20320000D02*
G75*
G03X214607936Y-20320000I-2517936J0D01*
G01*
X171450000Y-31750000D02*
X189230000Y-31750000D01*
X189230000Y-31750000D02*
X189230000Y-34290000D01*
X189230000Y-34290000D02*
X171450000Y-34290000D01*
X168630000Y-31470000D02*
X170180000Y-31470000D01*
X171450000Y-31750000D02*
X171450000Y-34290000D01*
X170180000Y-34570000D02*
X168630000Y-34570000D01*
X168630000Y-34570000D02*
X168630000Y-31470000D01*
X168910000Y-39370000D02*
X191770000Y-39370000D01*
X191770000Y-39370000D02*
X191770000Y-41910000D01*
X191770000Y-41910000D02*
X168910000Y-41910000D01*
X166090000Y-39090000D02*
X167640000Y-39090000D01*
X168910000Y-39370000D02*
X168910000Y-41910000D01*
X167640000Y-42190000D02*
X166090000Y-42190000D01*
X166090000Y-42190000D02*
X166090000Y-39090000D01*
X162814000Y-119634000D02*
X162814000Y-124714000D01*
X162814000Y-124714000D02*
X165354000Y-124714000D01*
X165354000Y-124714000D02*
X165354000Y-119634000D01*
X165634000Y-116814000D02*
X165634000Y-118364000D01*
X165354000Y-119634000D02*
X162814000Y-119634000D01*
X162534000Y-118364000D02*
X162534000Y-116814000D01*
X162534000Y-116814000D02*
X165634000Y-116814000D01*
X222250000Y-31750000D02*
X227330000Y-31750000D01*
X227330000Y-31750000D02*
X227330000Y-29210000D01*
X227330000Y-29210000D02*
X222250000Y-29210000D01*
X219430000Y-28930000D02*
X220980000Y-28930000D01*
X222250000Y-29210000D02*
X222250000Y-31750000D01*
X220980000Y-32030000D02*
X219430000Y-32030000D01*
X219430000Y-32030000D02*
X219430000Y-28930000D01*
X168656000Y-145796000D02*
X163576000Y-145796000D01*
X163576000Y-145796000D02*
X163576000Y-148336000D01*
X163576000Y-148336000D02*
X168656000Y-148336000D01*
X171476000Y-148616000D02*
X169926000Y-148616000D01*
X168656000Y-148336000D02*
X168656000Y-145796000D01*
X169926000Y-145516000D02*
X171476000Y-145516000D01*
X171476000Y-145516000D02*
X171476000Y-148616000D01*
X168656000Y-141986000D02*
X163576000Y-141986000D01*
X163576000Y-141986000D02*
X163576000Y-144526000D01*
X163576000Y-144526000D02*
X168656000Y-144526000D01*
X171476000Y-144806000D02*
X169926000Y-144806000D01*
X168656000Y-144526000D02*
X168656000Y-141986000D01*
X169926000Y-141706000D02*
X171476000Y-141706000D01*
X171476000Y-141706000D02*
X171476000Y-144806000D01*
X173990000Y-46482000D02*
X179070000Y-46482000D01*
X179070000Y-46482000D02*
X179070000Y-43942000D01*
X179070000Y-43942000D02*
X173990000Y-43942000D01*
X171170000Y-43662000D02*
X172720000Y-43662000D01*
X173990000Y-43942000D02*
X173990000Y-46482000D01*
X172720000Y-46762000D02*
X171170000Y-46762000D01*
X171170000Y-46762000D02*
X171170000Y-43662000D01*
X161052000Y-126179000D02*
X163052000Y-126179000D01*
X163052000Y-128329000D02*
X161052000Y-128329000D01*
X161052000Y-128719000D02*
X163052000Y-128719000D01*
X163052000Y-130869000D02*
X161052000Y-130869000D01*
X161052000Y-131259000D02*
X163052000Y-131259000D01*
X163052000Y-133409000D02*
X161052000Y-133409000D01*
X161052000Y-133799000D02*
X163052000Y-133799000D01*
X163052000Y-135949000D02*
X161052000Y-135949000D01*
X158734000Y-118677000D02*
X156734000Y-118677000D01*
X156734000Y-116527000D02*
X158734000Y-116527000D01*
X158734000Y-116137000D02*
X156734000Y-116137000D01*
X156734000Y-113987000D02*
X158734000Y-113987000D01*
X202168000Y-26983000D02*
X200168000Y-26983000D01*
X200168000Y-24833000D02*
X202168000Y-24833000D01*
X202168000Y-30031000D02*
X200168000Y-30031000D01*
X200168000Y-27881000D02*
X202168000Y-27881000D01*
X154119000Y-87106000D02*
X154119000Y-85106000D01*
X156269000Y-85106000D02*
X156269000Y-87106000D01*
X128794000Y-114495000D02*
X130794000Y-114495000D01*
X130794000Y-116645000D02*
X128794000Y-116645000D01*
X126254000Y-117543000D02*
X128254000Y-117543000D01*
X128254000Y-119693000D02*
X126254000Y-119693000D01*
X133799000Y-87106000D02*
X133799000Y-85106000D01*
X135949000Y-85106000D02*
X135949000Y-87106000D01*
X175498000Y-152205000D02*
X173498000Y-152205000D01*
X173498000Y-150055000D02*
X175498000Y-150055000D01*
X183150000Y-150055000D02*
X185150000Y-150055000D01*
X185150000Y-152205000D02*
X183150000Y-152205000D01*
X197866000Y-151384000D02*
X202946000Y-151384000D01*
X202946000Y-151384000D02*
X202946000Y-153924000D01*
X202946000Y-153924000D02*
X197866000Y-153924000D01*
X197866000Y-153924000D02*
X197866000Y-151384000D01*
X197866000Y-152654000D02*
X196596000Y-152654000D01*
X202946000Y-152654000D02*
X204216000Y-152654000D01*
X219964000Y-151384000D02*
X225044000Y-151384000D01*
X225044000Y-151384000D02*
X225044000Y-153924000D01*
X225044000Y-153924000D02*
X219964000Y-153924000D01*
X219964000Y-153924000D02*
X219964000Y-151384000D01*
X219964000Y-152654000D02*
X218694000Y-152654000D01*
X225044000Y-152654000D02*
X226314000Y-152654000D01*
X122682000Y-146558000D02*
X117602000Y-146558000D01*
X117602000Y-146558000D02*
X117602000Y-144018000D01*
X117602000Y-144018000D02*
X122682000Y-144018000D01*
X122682000Y-144018000D02*
X122682000Y-146558000D01*
X122682000Y-145288000D02*
X123952000Y-145288000D01*
X117602000Y-145288000D02*
X116332000Y-145288000D01*
X120540000Y-40270000D02*
X115460000Y-40270000D01*
X115460000Y-40270000D02*
X115460000Y-37730000D01*
X115460000Y-37730000D02*
X120540000Y-37730000D01*
X120540000Y-37730000D02*
X120540000Y-40270000D01*
X120540000Y-39000000D02*
X121810000Y-39000000D01*
X115460000Y-39000000D02*
X114190000Y-39000000D01*
X105110000Y-47016000D02*
X105745000Y-47016000D01*
X106634000Y-48032000D02*
X105110000Y-48032000D01*
X105110000Y-48032000D02*
X105110000Y-46127000D01*
X105110000Y-46127000D02*
X106634000Y-46127000D01*
X106634000Y-44222000D02*
X116286000Y-44222000D01*
X116286000Y-47270000D02*
X116286000Y-48540000D01*
X116286000Y-48540000D02*
X106634000Y-48540000D01*
X106634000Y-48540000D02*
X106634000Y-43460000D01*
X116286000Y-43460000D02*
X116286000Y-46000000D01*
X116286000Y-46000000D02*
X116286000Y-47270000D01*
X184413000Y-154821000D02*
X183143000Y-154821000D01*
X184413000Y-162171000D02*
X183143000Y-162171000D01*
X159503000Y-162171000D02*
X160773000Y-162171000D01*
X159503000Y-154821000D02*
X160773000Y-154821000D01*
X184413000Y-154821000D02*
X184413000Y-162171000D01*
X159503000Y-154821000D02*
X159503000Y-162171000D01*
X183143000Y-154821000D02*
X183143000Y-153886000D01*
X147320000Y-89408000D02*
X147320000Y-93472000D01*
X143764000Y-89154000D02*
X143764000Y-93472000D01*
X150876000Y-89154000D02*
X150876000Y-93218000D01*
X149098000Y-89408000D02*
X149098000Y-89916000D01*
X145542000Y-89408000D02*
X145542000Y-89916000D01*
X142019020Y-89281000D02*
X142019020Y-81678780D01*
X152620980Y-81780380D02*
X152620980Y-89281000D01*
X142019020Y-89281000D02*
X152620980Y-89281000D01*
X149834472Y-77216000D02*
G75*
G03X149834472Y-77216000I-2514472J0D01*
G01*
X152654000Y-81788000D02*
X152654000Y-73787000D01*
X152654000Y-73787000D02*
X141986000Y-73787000D01*
X141986000Y-73787000D02*
X141986000Y-81788000D01*
X152654000Y-81788000D02*
X141986000Y-81788000D01*
X127508000Y-133350000D02*
X131572000Y-133350000D01*
X127254000Y-136906000D02*
X131572000Y-136906000D01*
X127254000Y-129794000D02*
X131318000Y-129794000D01*
X127508000Y-131572000D02*
X128016000Y-131572000D01*
X127508000Y-135128000D02*
X128016000Y-135128000D01*
X127381000Y-138650980D02*
X119778780Y-138650980D01*
X119880380Y-128049020D02*
X127381000Y-128049020D01*
X127381000Y-138650980D02*
X127381000Y-128049020D01*
X117830472Y-133350000D02*
G75*
G03X117830472Y-133350000I-2514472J0D01*
G01*
X119888000Y-128016000D02*
X111887000Y-128016000D01*
X111887000Y-128016000D02*
X111887000Y-138684000D01*
X111887000Y-138684000D02*
X119888000Y-138684000D01*
X119888000Y-128016000D02*
X119888000Y-138684000D01*
X153171000Y-104275000D02*
X151901000Y-104275000D01*
X153171000Y-111625000D02*
X151901000Y-111625000D01*
X138421000Y-111625000D02*
X139691000Y-111625000D01*
X138421000Y-104275000D02*
X139691000Y-104275000D01*
X153171000Y-104275000D02*
X153171000Y-111625000D01*
X138421000Y-104275000D02*
X138421000Y-111625000D01*
X151901000Y-104275000D02*
X151901000Y-103340000D01*
X127000000Y-89408000D02*
X127000000Y-93472000D01*
X123444000Y-89154000D02*
X123444000Y-93472000D01*
X130556000Y-89154000D02*
X130556000Y-93218000D01*
X128778000Y-89408000D02*
X128778000Y-89916000D01*
X125222000Y-89408000D02*
X125222000Y-89916000D01*
X121699020Y-89281000D02*
X121699020Y-81678780D01*
X132300980Y-81780380D02*
X132300980Y-89281000D01*
X121699020Y-89281000D02*
X132300980Y-89281000D01*
X129514472Y-77216000D02*
G75*
G03X129514472Y-77216000I-2514472J0D01*
G01*
X132334000Y-81788000D02*
X132334000Y-73787000D01*
X132334000Y-73787000D02*
X121666000Y-73787000D01*
X121666000Y-73787000D02*
X121666000Y-81788000D01*
X132334000Y-81788000D02*
X121666000Y-81788000D01*
X127508000Y-153670000D02*
X131572000Y-153670000D01*
X127254000Y-157226000D02*
X131572000Y-157226000D01*
X127254000Y-150114000D02*
X131318000Y-150114000D01*
X127508000Y-151892000D02*
X128016000Y-151892000D01*
X127508000Y-155448000D02*
X128016000Y-155448000D01*
X127381000Y-158970980D02*
X119778780Y-158970980D01*
X119880380Y-148369020D02*
X127381000Y-148369020D01*
X127381000Y-158970980D02*
X127381000Y-148369020D01*
X117830472Y-153670000D02*
G75*
G03X117830472Y-153670000I-2514472J0D01*
G01*
X119888000Y-148336000D02*
X111887000Y-148336000D01*
X111887000Y-148336000D02*
X111887000Y-159004000D01*
X111887000Y-159004000D02*
X119888000Y-159004000D01*
X119888000Y-148336000D02*
X119888000Y-159004000D01*
X132597000Y-104275000D02*
X131327000Y-104275000D01*
X132597000Y-111625000D02*
X131327000Y-111625000D01*
X117847000Y-111625000D02*
X119117000Y-111625000D01*
X117847000Y-104275000D02*
X119117000Y-104275000D01*
X132597000Y-104275000D02*
X132597000Y-111625000D01*
X117847000Y-104275000D02*
X117847000Y-111625000D01*
X131327000Y-104275000D02*
X131327000Y-103340000D01*
X144915000Y-148835000D02*
X144915000Y-150105000D01*
X152265000Y-148835000D02*
X152265000Y-150105000D01*
X152265000Y-163585000D02*
X152265000Y-162315000D01*
X144915000Y-163585000D02*
X144915000Y-162315000D01*
X144915000Y-148835000D02*
X152265000Y-148835000D01*
X144915000Y-163585000D02*
X152265000Y-163585000D01*
X144915000Y-150105000D02*
X143980000Y-150105000D01*
X106514472Y-22236000D02*
G75*
G03X106514472Y-22236000I-2514472J0D01*
G01*
X101460000Y-35317000D02*
X101460000Y-37095000D01*
X104000000Y-35317000D02*
X104000000Y-37095000D01*
X106540000Y-35317000D02*
X106540000Y-37095000D01*
X109334000Y-26808000D02*
X109334000Y-18807000D01*
X109334000Y-18807000D02*
X98666000Y-18807000D01*
X98666000Y-18807000D02*
X98666000Y-26808000D01*
X109334000Y-35317000D02*
X109334000Y-26808000D01*
X109334000Y-26808000D02*
X98666000Y-26808000D01*
X98666000Y-26808000D02*
X98666000Y-35317000D01*
X104000000Y-35317000D02*
X98666000Y-35317000D01*
X104000000Y-35317000D02*
X109334000Y-35317000D01*
X157631000Y-107037000D02*
X157331000Y-107037000D01*
X157631000Y-110387000D02*
X157331000Y-110387000D01*
X154281000Y-110387000D02*
X154581000Y-110387000D01*
X154281000Y-107037000D02*
X154581000Y-107037000D01*
X157631000Y-107037000D02*
X157631000Y-110387000D01*
X154281000Y-107037000D02*
X154281000Y-110387000D01*
X157331000Y-107037000D02*
X157331000Y-105812000D01*
X137057000Y-107037000D02*
X136757000Y-107037000D01*
X137057000Y-110387000D02*
X136757000Y-110387000D01*
X133707000Y-110387000D02*
X134007000Y-110387000D01*
X133707000Y-107037000D02*
X134007000Y-107037000D01*
X137057000Y-107037000D02*
X137057000Y-110387000D01*
X133707000Y-107037000D02*
X133707000Y-110387000D01*
X136757000Y-107037000D02*
X136757000Y-105812000D01*
X147677000Y-143867000D02*
X147677000Y-144167000D01*
X151027000Y-143867000D02*
X151027000Y-144167000D01*
X151027000Y-147217000D02*
X151027000Y-146917000D01*
X147677000Y-147217000D02*
X147677000Y-146917000D01*
X147677000Y-143867000D02*
X151027000Y-143867000D01*
X147677000Y-147217000D02*
X151027000Y-147217000D01*
X147677000Y-144167000D02*
X146452000Y-144167000D01*
X122428000Y-125730000D02*
X117348000Y-125730000D01*
X117348000Y-125730000D02*
X117348000Y-123190000D01*
X117348000Y-123190000D02*
X122428000Y-123190000D01*
X122428000Y-123190000D02*
X122428000Y-125730000D01*
X122428000Y-124460000D02*
X123698000Y-124460000D01*
X117348000Y-124460000D02*
X116078000Y-124460000D01*
X96286000Y-147000000D02*
G75*
G03X96286000Y-147000000I-2286000J0D01*
G01*
X96286000Y-35000000D02*
G75*
G03X96286000Y-35000000I-2286000J0D01*
G01*
X237786000Y-147000000D02*
G75*
G03X237786000Y-147000000I-2286000J0D01*
G01*
X237786000Y-35000000D02*
G75*
G03X237786000Y-35000000I-2286000J0D01*
G01*
X148615524Y-118433905D02*
X148615524Y-119081524D01*
X148653619Y-119157714D01*
X148691715Y-119195810D01*
X148767905Y-119233905D01*
X148920286Y-119233905D01*
X148996477Y-119195810D01*
X149034572Y-119157714D01*
X149072667Y-119081524D01*
X149072667Y-118433905D01*
X149872667Y-119233905D02*
X149415524Y-119233905D01*
X149644095Y-119233905D02*
X149644095Y-118433905D01*
X149567905Y-118548190D01*
X149491714Y-118624381D01*
X149415524Y-118662476D01*
X150329810Y-118776762D02*
X150253619Y-118738667D01*
X150215524Y-118700571D01*
X150177429Y-118624381D01*
X150177429Y-118586286D01*
X150215524Y-118510095D01*
X150253619Y-118472000D01*
X150329810Y-118433905D01*
X150482191Y-118433905D01*
X150558381Y-118472000D01*
X150596477Y-118510095D01*
X150634572Y-118586286D01*
X150634572Y-118624381D01*
X150596477Y-118700571D01*
X150558381Y-118738667D01*
X150482191Y-118776762D01*
X150329810Y-118776762D01*
X150253619Y-118814857D01*
X150215524Y-118852952D01*
X150177429Y-118929143D01*
X150177429Y-119081524D01*
X150215524Y-119157714D01*
X150253619Y-119195810D01*
X150329810Y-119233905D01*
X150482191Y-119233905D01*
X150558381Y-119195810D01*
X150596477Y-119157714D01*
X150634572Y-119081524D01*
X150634572Y-118929143D01*
X150596477Y-118852952D01*
X150558381Y-118814857D01*
X150482191Y-118776762D01*
X147828095Y-124674381D02*
X147828095Y-125483905D01*
X147875714Y-125579143D01*
X147923333Y-125626762D01*
X148018571Y-125674381D01*
X148209048Y-125674381D01*
X148304286Y-125626762D01*
X148351905Y-125579143D01*
X148399524Y-125483905D01*
X148399524Y-124674381D01*
X149351905Y-124674381D02*
X148875714Y-124674381D01*
X148828095Y-125150571D01*
X148875714Y-125102952D01*
X148970952Y-125055333D01*
X149209048Y-125055333D01*
X149304286Y-125102952D01*
X149351905Y-125150571D01*
X149399524Y-125245810D01*
X149399524Y-125483905D01*
X149351905Y-125579143D01*
X149304286Y-125626762D01*
X149209048Y-125674381D01*
X148970952Y-125674381D01*
X148875714Y-125626762D01*
X148828095Y-125579143D01*
X226970858Y-143064571D02*
X226970858Y-141564571D01*
X227542286Y-141564571D01*
X227685144Y-141636000D01*
X227756572Y-141707429D01*
X227828001Y-141850286D01*
X227828001Y-142064571D01*
X227756572Y-142207429D01*
X227685144Y-142278857D01*
X227542286Y-142350286D01*
X226970858Y-142350286D01*
X229113715Y-142064571D02*
X229113715Y-143064571D01*
X228756572Y-141493143D02*
X228399429Y-142564571D01*
X229328001Y-142564571D01*
X166776476Y-119957810D02*
X166890762Y-119995905D01*
X167081238Y-119995905D01*
X167157428Y-119957810D01*
X167195524Y-119919714D01*
X167233619Y-119843524D01*
X167233619Y-119767333D01*
X167195524Y-119691143D01*
X167157428Y-119653048D01*
X167081238Y-119614952D01*
X166928857Y-119576857D01*
X166852666Y-119538762D01*
X166814571Y-119500667D01*
X166776476Y-119424476D01*
X166776476Y-119348286D01*
X166814571Y-119272095D01*
X166852666Y-119234000D01*
X166928857Y-119195905D01*
X167119333Y-119195905D01*
X167233619Y-119234000D01*
X167538381Y-119272095D02*
X167576476Y-119234000D01*
X167652667Y-119195905D01*
X167843143Y-119195905D01*
X167919333Y-119234000D01*
X167957429Y-119272095D01*
X167995524Y-119348286D01*
X167995524Y-119424476D01*
X167957429Y-119538762D01*
X167500286Y-119995905D01*
X167995524Y-119995905D01*
X166776476Y-122243810D02*
X166890762Y-122281905D01*
X167081238Y-122281905D01*
X167157428Y-122243810D01*
X167195524Y-122205714D01*
X167233619Y-122129524D01*
X167233619Y-122053333D01*
X167195524Y-121977143D01*
X167157428Y-121939048D01*
X167081238Y-121900952D01*
X166928857Y-121862857D01*
X166852666Y-121824762D01*
X166814571Y-121786667D01*
X166776476Y-121710476D01*
X166776476Y-121634286D01*
X166814571Y-121558095D01*
X166852666Y-121520000D01*
X166928857Y-121481905D01*
X167119333Y-121481905D01*
X167233619Y-121520000D01*
X167995524Y-122281905D02*
X167538381Y-122281905D01*
X167766952Y-122281905D02*
X167766952Y-121481905D01*
X167690762Y-121596190D01*
X167614571Y-121672381D01*
X167538381Y-121710476D01*
X167925714Y-103015145D02*
X167963810Y-103053240D01*
X168001905Y-103167526D01*
X168001905Y-103243716D01*
X167963810Y-103358002D01*
X167887619Y-103434193D01*
X167811429Y-103472288D01*
X167659048Y-103510383D01*
X167544762Y-103510383D01*
X167392381Y-103472288D01*
X167316190Y-103434193D01*
X167240000Y-103358002D01*
X167201905Y-103243716D01*
X167201905Y-103167526D01*
X167240000Y-103053240D01*
X167278095Y-103015145D01*
X168001905Y-102558002D02*
X167963810Y-102634193D01*
X167925714Y-102672288D01*
X167849524Y-102710383D01*
X167620952Y-102710383D01*
X167544762Y-102672288D01*
X167506667Y-102634193D01*
X167468571Y-102558002D01*
X167468571Y-102443716D01*
X167506667Y-102367526D01*
X167544762Y-102329431D01*
X167620952Y-102291335D01*
X167849524Y-102291335D01*
X167925714Y-102329431D01*
X167963810Y-102367526D01*
X168001905Y-102443716D01*
X168001905Y-102558002D01*
X167468571Y-101948478D02*
X168001905Y-101948478D01*
X167544762Y-101948478D02*
X167506667Y-101910383D01*
X167468571Y-101834192D01*
X167468571Y-101719906D01*
X167506667Y-101643716D01*
X167582857Y-101605621D01*
X168001905Y-101605621D01*
X167468571Y-101224668D02*
X168001905Y-101224668D01*
X167544762Y-101224668D02*
X167506667Y-101186573D01*
X167468571Y-101110382D01*
X167468571Y-100996096D01*
X167506667Y-100919906D01*
X167582857Y-100881811D01*
X168001905Y-100881811D01*
X167963810Y-100196096D02*
X168001905Y-100272286D01*
X168001905Y-100424667D01*
X167963810Y-100500858D01*
X167887619Y-100538953D01*
X167582857Y-100538953D01*
X167506667Y-100500858D01*
X167468571Y-100424667D01*
X167468571Y-100272286D01*
X167506667Y-100196096D01*
X167582857Y-100158001D01*
X167659048Y-100158001D01*
X167735238Y-100538953D01*
X167963810Y-99472287D02*
X168001905Y-99548477D01*
X168001905Y-99700858D01*
X167963810Y-99777049D01*
X167925714Y-99815144D01*
X167849524Y-99853239D01*
X167620952Y-99853239D01*
X167544762Y-99815144D01*
X167506667Y-99777049D01*
X167468571Y-99700858D01*
X167468571Y-99548477D01*
X167506667Y-99472287D01*
X167468571Y-99243716D02*
X167468571Y-98938954D01*
X167201905Y-99129430D02*
X167887619Y-99129430D01*
X167963810Y-99091335D01*
X168001905Y-99015144D01*
X168001905Y-98938954D01*
X168001905Y-98558001D02*
X167963810Y-98634192D01*
X167925714Y-98672287D01*
X167849524Y-98710382D01*
X167620952Y-98710382D01*
X167544762Y-98672287D01*
X167506667Y-98634192D01*
X167468571Y-98558001D01*
X167468571Y-98443715D01*
X167506667Y-98367525D01*
X167544762Y-98329430D01*
X167620952Y-98291334D01*
X167849524Y-98291334D01*
X167925714Y-98329430D01*
X167963810Y-98367525D01*
X168001905Y-98443715D01*
X168001905Y-98558001D01*
X168001905Y-97948477D02*
X167468571Y-97948477D01*
X167620952Y-97948477D02*
X167544762Y-97910382D01*
X167506667Y-97872286D01*
X167468571Y-97796096D01*
X167468571Y-97719905D01*
X167468571Y-96958001D02*
X167468571Y-96653239D01*
X167201905Y-96843715D02*
X167887619Y-96843715D01*
X167963810Y-96805620D01*
X168001905Y-96729429D01*
X168001905Y-96653239D01*
X168001905Y-96272286D02*
X167963810Y-96348477D01*
X167925714Y-96386572D01*
X167849524Y-96424667D01*
X167620952Y-96424667D01*
X167544762Y-96386572D01*
X167506667Y-96348477D01*
X167468571Y-96272286D01*
X167468571Y-96158000D01*
X167506667Y-96081810D01*
X167544762Y-96043715D01*
X167620952Y-96005619D01*
X167849524Y-96005619D01*
X167925714Y-96043715D01*
X167963810Y-96081810D01*
X168001905Y-96158000D01*
X168001905Y-96272286D01*
X168001905Y-95053238D02*
X167201905Y-95053238D01*
X167773333Y-94786571D01*
X167201905Y-94519904D01*
X168001905Y-94519904D01*
X168001905Y-94024666D02*
X167963810Y-94100857D01*
X167925714Y-94138952D01*
X167849524Y-94177047D01*
X167620952Y-94177047D01*
X167544762Y-94138952D01*
X167506667Y-94100857D01*
X167468571Y-94024666D01*
X167468571Y-93910380D01*
X167506667Y-93834190D01*
X167544762Y-93796095D01*
X167620952Y-93757999D01*
X167849524Y-93757999D01*
X167925714Y-93796095D01*
X167963810Y-93834190D01*
X168001905Y-93910380D01*
X168001905Y-94024666D01*
X167468571Y-93529428D02*
X167468571Y-93224666D01*
X167201905Y-93415142D02*
X167887619Y-93415142D01*
X167963810Y-93377047D01*
X168001905Y-93300856D01*
X168001905Y-93224666D01*
X168001905Y-92957999D02*
X167201905Y-92957999D01*
X168001905Y-92615142D02*
X167582857Y-92615142D01*
X167506667Y-92653237D01*
X167468571Y-92729427D01*
X167468571Y-92843713D01*
X167506667Y-92919904D01*
X167544762Y-92957999D01*
X167963810Y-91929427D02*
X168001905Y-92005617D01*
X168001905Y-92157998D01*
X167963810Y-92234189D01*
X167887619Y-92272284D01*
X167582857Y-92272284D01*
X167506667Y-92234189D01*
X167468571Y-92157998D01*
X167468571Y-92005617D01*
X167506667Y-91929427D01*
X167582857Y-91891332D01*
X167659048Y-91891332D01*
X167735238Y-92272284D01*
X168001905Y-91548475D02*
X167468571Y-91548475D01*
X167620952Y-91548475D02*
X167544762Y-91510380D01*
X167506667Y-91472284D01*
X167468571Y-91396094D01*
X167468571Y-91319903D01*
X168001905Y-91053237D02*
X167201905Y-91053237D01*
X167506667Y-91053237D02*
X167468571Y-90977046D01*
X167468571Y-90824665D01*
X167506667Y-90748475D01*
X167544762Y-90710380D01*
X167620952Y-90672284D01*
X167849524Y-90672284D01*
X167925714Y-90710380D01*
X167963810Y-90748475D01*
X168001905Y-90824665D01*
X168001905Y-90977046D01*
X167963810Y-91053237D01*
X168001905Y-90215141D02*
X167963810Y-90291332D01*
X167925714Y-90329427D01*
X167849524Y-90367522D01*
X167620952Y-90367522D01*
X167544762Y-90329427D01*
X167506667Y-90291332D01*
X167468571Y-90215141D01*
X167468571Y-90100855D01*
X167506667Y-90024665D01*
X167544762Y-89986570D01*
X167620952Y-89948474D01*
X167849524Y-89948474D01*
X167925714Y-89986570D01*
X167963810Y-90024665D01*
X168001905Y-90100855D01*
X168001905Y-90215141D01*
X168001905Y-89262760D02*
X167582857Y-89262760D01*
X167506667Y-89300855D01*
X167468571Y-89377045D01*
X167468571Y-89529426D01*
X167506667Y-89605617D01*
X167963810Y-89262760D02*
X168001905Y-89338950D01*
X168001905Y-89529426D01*
X167963810Y-89605617D01*
X167887619Y-89643712D01*
X167811429Y-89643712D01*
X167735238Y-89605617D01*
X167697143Y-89529426D01*
X167697143Y-89338950D01*
X167659048Y-89262760D01*
X168001905Y-88881807D02*
X167468571Y-88881807D01*
X167620952Y-88881807D02*
X167544762Y-88843712D01*
X167506667Y-88805616D01*
X167468571Y-88729426D01*
X167468571Y-88653235D01*
X168001905Y-88043712D02*
X167201905Y-88043712D01*
X167963810Y-88043712D02*
X168001905Y-88119902D01*
X168001905Y-88272283D01*
X167963810Y-88348474D01*
X167925714Y-88386569D01*
X167849524Y-88424664D01*
X167620952Y-88424664D01*
X167544762Y-88386569D01*
X167506667Y-88348474D01*
X167468571Y-88272283D01*
X167468571Y-88119902D01*
X167506667Y-88043712D01*
X167582857Y-133235429D02*
X167620952Y-133121143D01*
X167659048Y-133083048D01*
X167735238Y-133044953D01*
X167849524Y-133044953D01*
X167925714Y-133083048D01*
X167963810Y-133121143D01*
X168001905Y-133197334D01*
X168001905Y-133502096D01*
X167201905Y-133502096D01*
X167201905Y-133235429D01*
X167240000Y-133159239D01*
X167278095Y-133121143D01*
X167354286Y-133083048D01*
X167430476Y-133083048D01*
X167506667Y-133121143D01*
X167544762Y-133159239D01*
X167582857Y-133235429D01*
X167582857Y-133502096D01*
X168001905Y-132587810D02*
X167963810Y-132664001D01*
X167925714Y-132702096D01*
X167849524Y-132740191D01*
X167620952Y-132740191D01*
X167544762Y-132702096D01*
X167506667Y-132664001D01*
X167468571Y-132587810D01*
X167468571Y-132473524D01*
X167506667Y-132397334D01*
X167544762Y-132359239D01*
X167620952Y-132321143D01*
X167849524Y-132321143D01*
X167925714Y-132359239D01*
X167963810Y-132397334D01*
X168001905Y-132473524D01*
X168001905Y-132587810D01*
X168001905Y-131635429D02*
X167582857Y-131635429D01*
X167506667Y-131673524D01*
X167468571Y-131749714D01*
X167468571Y-131902095D01*
X167506667Y-131978286D01*
X167963810Y-131635429D02*
X168001905Y-131711619D01*
X168001905Y-131902095D01*
X167963810Y-131978286D01*
X167887619Y-132016381D01*
X167811429Y-132016381D01*
X167735238Y-131978286D01*
X167697143Y-131902095D01*
X167697143Y-131711619D01*
X167659048Y-131635429D01*
X168001905Y-131254476D02*
X167468571Y-131254476D01*
X167620952Y-131254476D02*
X167544762Y-131216381D01*
X167506667Y-131178285D01*
X167468571Y-131102095D01*
X167468571Y-131025904D01*
X168001905Y-130416381D02*
X167201905Y-130416381D01*
X167963810Y-130416381D02*
X168001905Y-130492571D01*
X168001905Y-130644952D01*
X167963810Y-130721143D01*
X167925714Y-130759238D01*
X167849524Y-130797333D01*
X167620952Y-130797333D01*
X167544762Y-130759238D01*
X167506667Y-130721143D01*
X167468571Y-130644952D01*
X167468571Y-130492571D01*
X167506667Y-130416381D01*
X168001905Y-129425904D02*
X167201905Y-129425904D01*
X168001905Y-129044952D02*
X167201905Y-129044952D01*
X167201905Y-128854476D01*
X167240000Y-128740190D01*
X167316190Y-128663999D01*
X167392381Y-128625904D01*
X167544762Y-128587809D01*
X167659048Y-128587809D01*
X167811429Y-128625904D01*
X167887619Y-128663999D01*
X167963810Y-128740190D01*
X168001905Y-128854476D01*
X168001905Y-129044952D01*
X167100286Y-124402857D02*
X166833619Y-124402857D01*
X166833619Y-124821905D02*
X166833619Y-124021905D01*
X167214572Y-124021905D01*
X167938381Y-124060000D02*
X167862190Y-124021905D01*
X167747905Y-124021905D01*
X167633619Y-124060000D01*
X167557428Y-124136190D01*
X167519333Y-124212381D01*
X167481238Y-124364762D01*
X167481238Y-124479048D01*
X167519333Y-124631429D01*
X167557428Y-124707619D01*
X167633619Y-124783810D01*
X167747905Y-124821905D01*
X167824095Y-124821905D01*
X167938381Y-124783810D01*
X167976476Y-124745714D01*
X167976476Y-124479048D01*
X167824095Y-124479048D01*
X165264714Y-116363000D02*
X165121857Y-116291571D01*
X164907571Y-116291571D01*
X164693286Y-116363000D01*
X164550428Y-116505857D01*
X164479000Y-116648714D01*
X164407571Y-116934429D01*
X164407571Y-117148714D01*
X164479000Y-117434429D01*
X164550428Y-117577286D01*
X164693286Y-117720143D01*
X164907571Y-117791571D01*
X165050428Y-117791571D01*
X165264714Y-117720143D01*
X165336143Y-117648714D01*
X165336143Y-117148714D01*
X165050428Y-117148714D01*
X165979000Y-116791571D02*
X165979000Y-117791571D01*
X165979000Y-116934429D02*
X166050428Y-116863000D01*
X166193286Y-116791571D01*
X166407571Y-116791571D01*
X166550428Y-116863000D01*
X166621857Y-117005857D01*
X166621857Y-117791571D01*
X167979000Y-117791571D02*
X167979000Y-116291571D01*
X167979000Y-117720143D02*
X167836143Y-117791571D01*
X167550429Y-117791571D01*
X167407571Y-117720143D01*
X167336143Y-117648714D01*
X167264714Y-117505857D01*
X167264714Y-117077286D01*
X167336143Y-116934429D01*
X167407571Y-116863000D01*
X167550429Y-116791571D01*
X167836143Y-116791571D01*
X167979000Y-116863000D01*
X211887522Y-145827714D02*
X211849427Y-145865810D01*
X211735141Y-145903905D01*
X211658951Y-145903905D01*
X211544665Y-145865810D01*
X211468474Y-145789619D01*
X211430379Y-145713429D01*
X211392284Y-145561048D01*
X211392284Y-145446762D01*
X211430379Y-145294381D01*
X211468474Y-145218190D01*
X211544665Y-145142000D01*
X211658951Y-145103905D01*
X211735141Y-145103905D01*
X211849427Y-145142000D01*
X211887522Y-145180095D01*
X212344665Y-145903905D02*
X212268474Y-145865810D01*
X212230379Y-145827714D01*
X212192284Y-145751524D01*
X212192284Y-145522952D01*
X212230379Y-145446762D01*
X212268474Y-145408667D01*
X212344665Y-145370571D01*
X212458951Y-145370571D01*
X212535141Y-145408667D01*
X212573236Y-145446762D01*
X212611332Y-145522952D01*
X212611332Y-145751524D01*
X212573236Y-145827714D01*
X212535141Y-145865810D01*
X212458951Y-145903905D01*
X212344665Y-145903905D01*
X212954189Y-145370571D02*
X212954189Y-145903905D01*
X212954189Y-145446762D02*
X212992284Y-145408667D01*
X213068475Y-145370571D01*
X213182761Y-145370571D01*
X213258951Y-145408667D01*
X213297046Y-145484857D01*
X213297046Y-145903905D01*
X213677999Y-145370571D02*
X213677999Y-145903905D01*
X213677999Y-145446762D02*
X213716094Y-145408667D01*
X213792285Y-145370571D01*
X213906571Y-145370571D01*
X213982761Y-145408667D01*
X214020856Y-145484857D01*
X214020856Y-145903905D01*
X214706571Y-145865810D02*
X214630381Y-145903905D01*
X214478000Y-145903905D01*
X214401809Y-145865810D01*
X214363714Y-145789619D01*
X214363714Y-145484857D01*
X214401809Y-145408667D01*
X214478000Y-145370571D01*
X214630381Y-145370571D01*
X214706571Y-145408667D01*
X214744666Y-145484857D01*
X214744666Y-145561048D01*
X214363714Y-145637238D01*
X215430380Y-145865810D02*
X215354190Y-145903905D01*
X215201809Y-145903905D01*
X215125618Y-145865810D01*
X215087523Y-145827714D01*
X215049428Y-145751524D01*
X215049428Y-145522952D01*
X215087523Y-145446762D01*
X215125618Y-145408667D01*
X215201809Y-145370571D01*
X215354190Y-145370571D01*
X215430380Y-145408667D01*
X215658951Y-145370571D02*
X215963713Y-145370571D01*
X215773237Y-145103905D02*
X215773237Y-145789619D01*
X215811332Y-145865810D01*
X215887523Y-145903905D01*
X215963713Y-145903905D01*
X216344666Y-145903905D02*
X216268475Y-145865810D01*
X216230380Y-145827714D01*
X216192285Y-145751524D01*
X216192285Y-145522952D01*
X216230380Y-145446762D01*
X216268475Y-145408667D01*
X216344666Y-145370571D01*
X216458952Y-145370571D01*
X216535142Y-145408667D01*
X216573237Y-145446762D01*
X216611333Y-145522952D01*
X216611333Y-145751524D01*
X216573237Y-145827714D01*
X216535142Y-145865810D01*
X216458952Y-145903905D01*
X216344666Y-145903905D01*
X216954190Y-145903905D02*
X216954190Y-145370571D01*
X216954190Y-145522952D02*
X216992285Y-145446762D01*
X217030381Y-145408667D01*
X217106571Y-145370571D01*
X217182762Y-145370571D01*
X217944666Y-145370571D02*
X218249428Y-145370571D01*
X218058952Y-145103905D02*
X218058952Y-145789619D01*
X218097047Y-145865810D01*
X218173238Y-145903905D01*
X218249428Y-145903905D01*
X218630381Y-145903905D02*
X218554190Y-145865810D01*
X218516095Y-145827714D01*
X218478000Y-145751524D01*
X218478000Y-145522952D01*
X218516095Y-145446762D01*
X218554190Y-145408667D01*
X218630381Y-145370571D01*
X218744667Y-145370571D01*
X218820857Y-145408667D01*
X218858952Y-145446762D01*
X218897048Y-145522952D01*
X218897048Y-145751524D01*
X218858952Y-145827714D01*
X218820857Y-145865810D01*
X218744667Y-145903905D01*
X218630381Y-145903905D01*
X219811334Y-145675333D02*
X220192286Y-145675333D01*
X219735143Y-145903905D02*
X220001810Y-145103905D01*
X220268477Y-145903905D01*
X220535143Y-145903905D02*
X220535143Y-145370571D01*
X220535143Y-145522952D02*
X220573238Y-145446762D01*
X220611334Y-145408667D01*
X220687524Y-145370571D01*
X220763715Y-145370571D01*
X221373238Y-145903905D02*
X221373238Y-145103905D01*
X221373238Y-145865810D02*
X221297048Y-145903905D01*
X221144667Y-145903905D01*
X221068476Y-145865810D01*
X221030381Y-145827714D01*
X220992286Y-145751524D01*
X220992286Y-145522952D01*
X221030381Y-145446762D01*
X221068476Y-145408667D01*
X221144667Y-145370571D01*
X221297048Y-145370571D01*
X221373238Y-145408667D01*
X222097048Y-145370571D02*
X222097048Y-145903905D01*
X221754191Y-145370571D02*
X221754191Y-145789619D01*
X221792286Y-145865810D01*
X221868477Y-145903905D01*
X221982763Y-145903905D01*
X222058953Y-145865810D01*
X222097048Y-145827714D01*
X222478001Y-145903905D02*
X222478001Y-145370571D01*
X222478001Y-145103905D02*
X222439906Y-145142000D01*
X222478001Y-145180095D01*
X222516096Y-145142000D01*
X222478001Y-145103905D01*
X222478001Y-145180095D01*
X222858953Y-145370571D02*
X222858953Y-145903905D01*
X222858953Y-145446762D02*
X222897048Y-145408667D01*
X222973239Y-145370571D01*
X223087525Y-145370571D01*
X223163715Y-145408667D01*
X223201810Y-145484857D01*
X223201810Y-145903905D01*
X223697049Y-145903905D02*
X223620858Y-145865810D01*
X223582763Y-145827714D01*
X223544668Y-145751524D01*
X223544668Y-145522952D01*
X223582763Y-145446762D01*
X223620858Y-145408667D01*
X223697049Y-145370571D01*
X223811335Y-145370571D01*
X223887525Y-145408667D01*
X223925620Y-145446762D01*
X223963716Y-145522952D01*
X223963716Y-145751524D01*
X223925620Y-145827714D01*
X223887525Y-145865810D01*
X223811335Y-145903905D01*
X223697049Y-145903905D01*
X231425714Y-138003716D02*
X231463810Y-138041811D01*
X231501905Y-138156097D01*
X231501905Y-138232287D01*
X231463810Y-138346573D01*
X231387619Y-138422764D01*
X231311429Y-138460859D01*
X231159048Y-138498954D01*
X231044762Y-138498954D01*
X230892381Y-138460859D01*
X230816190Y-138422764D01*
X230740000Y-138346573D01*
X230701905Y-138232287D01*
X230701905Y-138156097D01*
X230740000Y-138041811D01*
X230778095Y-138003716D01*
X231501905Y-137546573D02*
X231463810Y-137622764D01*
X231425714Y-137660859D01*
X231349524Y-137698954D01*
X231120952Y-137698954D01*
X231044762Y-137660859D01*
X231006667Y-137622764D01*
X230968571Y-137546573D01*
X230968571Y-137432287D01*
X231006667Y-137356097D01*
X231044762Y-137318002D01*
X231120952Y-137279906D01*
X231349524Y-137279906D01*
X231425714Y-137318002D01*
X231463810Y-137356097D01*
X231501905Y-137432287D01*
X231501905Y-137546573D01*
X230968571Y-136937049D02*
X231501905Y-136937049D01*
X231044762Y-136937049D02*
X231006667Y-136898954D01*
X230968571Y-136822763D01*
X230968571Y-136708477D01*
X231006667Y-136632287D01*
X231082857Y-136594192D01*
X231501905Y-136594192D01*
X230968571Y-136213239D02*
X231501905Y-136213239D01*
X231044762Y-136213239D02*
X231006667Y-136175144D01*
X230968571Y-136098953D01*
X230968571Y-135984667D01*
X231006667Y-135908477D01*
X231082857Y-135870382D01*
X231501905Y-135870382D01*
X231463810Y-135184667D02*
X231501905Y-135260857D01*
X231501905Y-135413238D01*
X231463810Y-135489429D01*
X231387619Y-135527524D01*
X231082857Y-135527524D01*
X231006667Y-135489429D01*
X230968571Y-135413238D01*
X230968571Y-135260857D01*
X231006667Y-135184667D01*
X231082857Y-135146572D01*
X231159048Y-135146572D01*
X231235238Y-135527524D01*
X231463810Y-134460858D02*
X231501905Y-134537048D01*
X231501905Y-134689429D01*
X231463810Y-134765620D01*
X231425714Y-134803715D01*
X231349524Y-134841810D01*
X231120952Y-134841810D01*
X231044762Y-134803715D01*
X231006667Y-134765620D01*
X230968571Y-134689429D01*
X230968571Y-134537048D01*
X231006667Y-134460858D01*
X230968571Y-134232287D02*
X230968571Y-133927525D01*
X230701905Y-134118001D02*
X231387619Y-134118001D01*
X231463810Y-134079906D01*
X231501905Y-134003715D01*
X231501905Y-133927525D01*
X231501905Y-133546572D02*
X231463810Y-133622763D01*
X231425714Y-133660858D01*
X231349524Y-133698953D01*
X231120952Y-133698953D01*
X231044762Y-133660858D01*
X231006667Y-133622763D01*
X230968571Y-133546572D01*
X230968571Y-133432286D01*
X231006667Y-133356096D01*
X231044762Y-133318001D01*
X231120952Y-133279905D01*
X231349524Y-133279905D01*
X231425714Y-133318001D01*
X231463810Y-133356096D01*
X231501905Y-133432286D01*
X231501905Y-133546572D01*
X231501905Y-132937048D02*
X230968571Y-132937048D01*
X231120952Y-132937048D02*
X231044762Y-132898953D01*
X231006667Y-132860857D01*
X230968571Y-132784667D01*
X230968571Y-132708476D01*
X230968571Y-131946572D02*
X230968571Y-131641810D01*
X230701905Y-131832286D02*
X231387619Y-131832286D01*
X231463810Y-131794191D01*
X231501905Y-131718000D01*
X231501905Y-131641810D01*
X231501905Y-131260857D02*
X231463810Y-131337048D01*
X231425714Y-131375143D01*
X231349524Y-131413238D01*
X231120952Y-131413238D01*
X231044762Y-131375143D01*
X231006667Y-131337048D01*
X230968571Y-131260857D01*
X230968571Y-131146571D01*
X231006667Y-131070381D01*
X231044762Y-131032286D01*
X231120952Y-130994190D01*
X231349524Y-130994190D01*
X231425714Y-131032286D01*
X231463810Y-131070381D01*
X231501905Y-131146571D01*
X231501905Y-131260857D01*
X231501905Y-129660856D02*
X231501905Y-130041809D01*
X230701905Y-130041809D01*
X231501905Y-129279904D02*
X231463810Y-129356095D01*
X231425714Y-129394190D01*
X231349524Y-129432285D01*
X231120952Y-129432285D01*
X231044762Y-129394190D01*
X231006667Y-129356095D01*
X230968571Y-129279904D01*
X230968571Y-129165618D01*
X231006667Y-129089428D01*
X231044762Y-129051333D01*
X231120952Y-129013237D01*
X231349524Y-129013237D01*
X231425714Y-129051333D01*
X231463810Y-129089428D01*
X231501905Y-129165618D01*
X231501905Y-129279904D01*
X230968571Y-128327523D02*
X231616190Y-128327523D01*
X231692381Y-128365618D01*
X231730476Y-128403713D01*
X231768571Y-128479904D01*
X231768571Y-128594189D01*
X231730476Y-128670380D01*
X231463810Y-128327523D02*
X231501905Y-128403713D01*
X231501905Y-128556094D01*
X231463810Y-128632285D01*
X231425714Y-128670380D01*
X231349524Y-128708475D01*
X231120952Y-128708475D01*
X231044762Y-128670380D01*
X231006667Y-128632285D01*
X230968571Y-128556094D01*
X230968571Y-128403713D01*
X231006667Y-128327523D01*
X231501905Y-127946570D02*
X230968571Y-127946570D01*
X230701905Y-127946570D02*
X230740000Y-127984665D01*
X230778095Y-127946570D01*
X230740000Y-127908475D01*
X230701905Y-127946570D01*
X230778095Y-127946570D01*
X231463810Y-127222761D02*
X231501905Y-127298951D01*
X231501905Y-127451332D01*
X231463810Y-127527523D01*
X231425714Y-127565618D01*
X231349524Y-127603713D01*
X231120952Y-127603713D01*
X231044762Y-127565618D01*
X231006667Y-127527523D01*
X230968571Y-127451332D01*
X230968571Y-127298951D01*
X231006667Y-127222761D01*
X231501905Y-126270380D02*
X230701905Y-126270380D01*
X230701905Y-125965618D01*
X230740000Y-125889427D01*
X230778095Y-125851332D01*
X230854286Y-125813237D01*
X230968571Y-125813237D01*
X231044762Y-125851332D01*
X231082857Y-125889427D01*
X231120952Y-125965618D01*
X231120952Y-126270380D01*
X231501905Y-125356094D02*
X231463810Y-125432285D01*
X231425714Y-125470380D01*
X231349524Y-125508475D01*
X231120952Y-125508475D01*
X231044762Y-125470380D01*
X231006667Y-125432285D01*
X230968571Y-125356094D01*
X230968571Y-125241808D01*
X231006667Y-125165618D01*
X231044762Y-125127523D01*
X231120952Y-125089427D01*
X231349524Y-125089427D01*
X231425714Y-125127523D01*
X231463810Y-125165618D01*
X231501905Y-125241808D01*
X231501905Y-125356094D01*
X231501905Y-124746570D02*
X230968571Y-124746570D01*
X231120952Y-124746570D02*
X231044762Y-124708475D01*
X231006667Y-124670379D01*
X230968571Y-124594189D01*
X230968571Y-124517998D01*
X230968571Y-124365618D02*
X230968571Y-124060856D01*
X230701905Y-124251332D02*
X231387619Y-124251332D01*
X231463810Y-124213237D01*
X231501905Y-124137046D01*
X231501905Y-124060856D01*
D13*
X227824000Y-52288570D02*
X227824000Y-51562856D01*
X228259429Y-52433713D02*
X226735429Y-51925713D01*
X228259429Y-51417713D01*
X228259429Y-50038856D02*
X227533714Y-50546856D01*
X228259429Y-50909713D02*
X226735429Y-50909713D01*
X226735429Y-50329141D01*
X226808000Y-50183999D01*
X226880571Y-50111427D01*
X227025714Y-50038856D01*
X227243429Y-50038856D01*
X227388571Y-50111427D01*
X227461143Y-50183999D01*
X227533714Y-50329141D01*
X227533714Y-50909713D01*
X228259429Y-49385713D02*
X226735429Y-49385713D01*
X226735429Y-49022856D01*
X226808000Y-48805141D01*
X226953143Y-48659999D01*
X227098286Y-48587427D01*
X227388571Y-48514856D01*
X227606286Y-48514856D01*
X227896571Y-48587427D01*
X228041714Y-48659999D01*
X228186857Y-48805141D01*
X228259429Y-49022856D01*
X228259429Y-49385713D01*
X226735429Y-47861713D02*
X227969143Y-47861713D01*
X228114286Y-47789141D01*
X228186857Y-47716570D01*
X228259429Y-47571427D01*
X228259429Y-47281141D01*
X228186857Y-47135999D01*
X228114286Y-47063427D01*
X227969143Y-46990856D01*
X226735429Y-46990856D01*
X228259429Y-46265142D02*
X226735429Y-46265142D01*
X228259429Y-45539428D02*
X226735429Y-45539428D01*
X228259429Y-44668571D01*
X226735429Y-44668571D01*
X226735429Y-43652571D02*
X226735429Y-43362285D01*
X226808000Y-43217143D01*
X226953143Y-43072000D01*
X227243429Y-42999428D01*
X227751429Y-42999428D01*
X228041714Y-43072000D01*
X228186857Y-43217143D01*
X228259429Y-43362285D01*
X228259429Y-43652571D01*
X228186857Y-43797714D01*
X228041714Y-43942857D01*
X227751429Y-44015428D01*
X227243429Y-44015428D01*
X226953143Y-43942857D01*
X226808000Y-43797714D01*
X226735429Y-43652571D01*
X228404571Y-42709143D02*
X228404571Y-41548000D01*
X228259429Y-41185143D02*
X226735429Y-41185143D01*
X227824000Y-40677143D01*
X226735429Y-40169143D01*
X228259429Y-40169143D01*
X227461143Y-39443429D02*
X227461143Y-38935429D01*
X228259429Y-38717715D02*
X228259429Y-39443429D01*
X226735429Y-39443429D01*
X226735429Y-38717715D01*
X226808000Y-37266286D02*
X226735429Y-37411429D01*
X226735429Y-37629143D01*
X226808000Y-37846858D01*
X226953143Y-37992000D01*
X227098286Y-38064572D01*
X227388571Y-38137143D01*
X227606286Y-38137143D01*
X227896571Y-38064572D01*
X228041714Y-37992000D01*
X228186857Y-37846858D01*
X228259429Y-37629143D01*
X228259429Y-37484000D01*
X228186857Y-37266286D01*
X228114286Y-37193715D01*
X227606286Y-37193715D01*
X227606286Y-37484000D01*
X227824000Y-36613143D02*
X227824000Y-35887429D01*
X228259429Y-36758286D02*
X226735429Y-36250286D01*
X228259429Y-35742286D01*
D12*
X206146476Y-156533905D02*
X206603619Y-156533905D01*
X206375048Y-157333905D02*
X206375048Y-156533905D01*
X206832191Y-156610095D02*
X206870286Y-156572000D01*
X206946477Y-156533905D01*
X207136953Y-156533905D01*
X207213143Y-156572000D01*
X207251239Y-156610095D01*
X207289334Y-156686286D01*
X207289334Y-156762476D01*
X207251239Y-156876762D01*
X206794096Y-157333905D01*
X207289334Y-157333905D01*
X201701714Y-159111905D02*
X201435047Y-158730952D01*
X201244571Y-159111905D02*
X201244571Y-158311905D01*
X201549333Y-158311905D01*
X201625524Y-158350000D01*
X201663619Y-158388095D01*
X201701714Y-158464286D01*
X201701714Y-158578571D01*
X201663619Y-158654762D01*
X201625524Y-158692857D01*
X201549333Y-158730952D01*
X201244571Y-158730952D01*
X202044571Y-158692857D02*
X202311238Y-158692857D01*
X202425524Y-159111905D02*
X202044571Y-159111905D01*
X202044571Y-158311905D01*
X202425524Y-158311905D01*
X203149334Y-159111905D02*
X202768381Y-159111905D01*
X202768381Y-158311905D01*
X203377905Y-158883333D02*
X203758857Y-158883333D01*
X203301714Y-159111905D02*
X203568381Y-158311905D01*
X203835048Y-159111905D01*
X204254095Y-158730952D02*
X204254095Y-159111905D01*
X203987428Y-158311905D02*
X204254095Y-158730952D01*
X204520762Y-158311905D01*
X204596952Y-159188095D02*
X205206476Y-159188095D01*
X205358857Y-158388095D02*
X205396952Y-158350000D01*
X205473143Y-158311905D01*
X205663619Y-158311905D01*
X205739809Y-158350000D01*
X205777905Y-158388095D01*
X205816000Y-158464286D01*
X205816000Y-158540476D01*
X205777905Y-158654762D01*
X205320762Y-159111905D01*
X205816000Y-159111905D01*
X206616000Y-159111905D02*
X206349333Y-158730952D01*
X206158857Y-159111905D02*
X206158857Y-158311905D01*
X206463619Y-158311905D01*
X206539810Y-158350000D01*
X206577905Y-158388095D01*
X206616000Y-158464286D01*
X206616000Y-158578571D01*
X206577905Y-158654762D01*
X206539810Y-158692857D01*
X206463619Y-158730952D01*
X206158857Y-158730952D01*
X206844571Y-158311905D02*
X207301714Y-158311905D01*
X207073143Y-159111905D02*
X207073143Y-158311905D01*
X228498476Y-156787905D02*
X228955619Y-156787905D01*
X228727048Y-157587905D02*
X228727048Y-156787905D01*
X229184191Y-156864095D02*
X229222286Y-156826000D01*
X229298477Y-156787905D01*
X229488953Y-156787905D01*
X229565143Y-156826000D01*
X229603239Y-156864095D01*
X229641334Y-156940286D01*
X229641334Y-157016476D01*
X229603239Y-157130762D01*
X229146096Y-157587905D01*
X229641334Y-157587905D01*
X225069714Y-159619905D02*
X224803047Y-159238952D01*
X224612571Y-159619905D02*
X224612571Y-158819905D01*
X224917333Y-158819905D01*
X224993524Y-158858000D01*
X225031619Y-158896095D01*
X225069714Y-158972286D01*
X225069714Y-159086571D01*
X225031619Y-159162762D01*
X224993524Y-159200857D01*
X224917333Y-159238952D01*
X224612571Y-159238952D01*
X225412571Y-159200857D02*
X225679238Y-159200857D01*
X225793524Y-159619905D02*
X225412571Y-159619905D01*
X225412571Y-158819905D01*
X225793524Y-158819905D01*
X226517334Y-159619905D02*
X226136381Y-159619905D01*
X226136381Y-158819905D01*
X226745905Y-159391333D02*
X227126857Y-159391333D01*
X226669714Y-159619905D02*
X226936381Y-158819905D01*
X227203048Y-159619905D01*
X227622095Y-159238952D02*
X227622095Y-159619905D01*
X227355428Y-158819905D02*
X227622095Y-159238952D01*
X227888762Y-158819905D01*
X227964952Y-159696095D02*
X228574476Y-159696095D01*
X228726857Y-158896095D02*
X228764952Y-158858000D01*
X228841143Y-158819905D01*
X229031619Y-158819905D01*
X229107809Y-158858000D01*
X229145905Y-158896095D01*
X229184000Y-158972286D01*
X229184000Y-159048476D01*
X229145905Y-159162762D01*
X228688762Y-159619905D01*
X229184000Y-159619905D01*
X229984000Y-159619905D02*
X229717333Y-159238952D01*
X229526857Y-159619905D02*
X229526857Y-158819905D01*
X229831619Y-158819905D01*
X229907810Y-158858000D01*
X229945905Y-158896095D01*
X229984000Y-158972286D01*
X229984000Y-159086571D01*
X229945905Y-159162762D01*
X229907810Y-159200857D01*
X229831619Y-159238952D01*
X229526857Y-159238952D01*
X230212571Y-158819905D02*
X230669714Y-158819905D01*
X230441143Y-159619905D02*
X230441143Y-158819905D01*
X76892858Y-21058571D02*
X76892858Y-19558571D01*
X77464286Y-19558571D01*
X77607144Y-19630000D01*
X77678572Y-19701429D01*
X77750001Y-19844286D01*
X77750001Y-20058571D01*
X77678572Y-20201429D01*
X77607144Y-20272857D01*
X77464286Y-20344286D01*
X76892858Y-20344286D01*
X79178572Y-21058571D02*
X78321429Y-21058571D01*
X78750001Y-21058571D02*
X78750001Y-19558571D01*
X78607144Y-19772857D01*
X78464286Y-19915714D01*
X78321429Y-19987143D01*
X76464286Y-23598571D02*
X76464286Y-22098571D01*
X76821429Y-22098571D01*
X77035714Y-22170000D01*
X77178572Y-22312857D01*
X77250000Y-22455714D01*
X77321429Y-22741429D01*
X77321429Y-22955714D01*
X77250000Y-23241429D01*
X77178572Y-23384286D01*
X77035714Y-23527143D01*
X76821429Y-23598571D01*
X76464286Y-23598571D01*
X77964286Y-23598571D02*
X77964286Y-22098571D01*
X78678572Y-23598571D02*
X78678572Y-22098571D01*
X79535715Y-23598571D01*
X79535715Y-22098571D01*
X193059143Y-159619905D02*
X192602000Y-159619905D01*
X192830571Y-159619905D02*
X192830571Y-158819905D01*
X192754381Y-158934190D01*
X192678190Y-159010381D01*
X192602000Y-159048476D01*
X193782953Y-158819905D02*
X193402000Y-158819905D01*
X193363905Y-159200857D01*
X193402000Y-159162762D01*
X193478191Y-159124667D01*
X193668667Y-159124667D01*
X193744857Y-159162762D01*
X193782953Y-159200857D01*
X193821048Y-159277048D01*
X193821048Y-159467524D01*
X193782953Y-159543714D01*
X193744857Y-159581810D01*
X193668667Y-159619905D01*
X193478191Y-159619905D01*
X193402000Y-159581810D01*
X193363905Y-159543714D01*
X194163905Y-159086571D02*
X194163905Y-159886571D01*
X194163905Y-159124667D02*
X194240096Y-159086571D01*
X194392477Y-159086571D01*
X194468667Y-159124667D01*
X194506762Y-159162762D01*
X194544858Y-159238952D01*
X194544858Y-159467524D01*
X194506762Y-159543714D01*
X194468667Y-159581810D01*
X194392477Y-159619905D01*
X194240096Y-159619905D01*
X194163905Y-159581810D01*
X194773429Y-159086571D02*
X195078191Y-159086571D01*
X194887715Y-159619905D02*
X194887715Y-158934190D01*
X194925810Y-158858000D01*
X195002001Y-158819905D01*
X195078191Y-158819905D01*
X214857905Y-159365905D02*
X214400762Y-159365905D01*
X214629333Y-159365905D02*
X214729333Y-158565905D01*
X214638857Y-158680190D01*
X214553142Y-158756381D01*
X214472191Y-158794476D01*
X215681715Y-158565905D02*
X215300762Y-158565905D01*
X215215048Y-158946857D01*
X215257905Y-158908762D01*
X215338858Y-158870667D01*
X215529334Y-158870667D01*
X215600762Y-158908762D01*
X215634096Y-158946857D01*
X215662667Y-159023048D01*
X215638858Y-159213524D01*
X215591239Y-159289714D01*
X215548381Y-159327810D01*
X215467429Y-159365905D01*
X215276953Y-159365905D01*
X215205524Y-159327810D01*
X215172191Y-159289714D01*
X216029334Y-158832571D02*
X215929334Y-159632571D01*
X216024572Y-158870667D02*
X216105525Y-158832571D01*
X216257906Y-158832571D01*
X216329334Y-158870667D01*
X216362667Y-158908762D01*
X216391239Y-158984952D01*
X216362668Y-159213524D01*
X216315048Y-159289714D01*
X216272191Y-159327810D01*
X216191239Y-159365905D01*
X216038858Y-159365905D01*
X215967429Y-159327810D01*
X216638858Y-158832571D02*
X216943620Y-158832571D01*
X216686477Y-159365905D02*
X216772191Y-158680190D01*
X216819810Y-158604000D01*
X216900763Y-158565905D01*
X216976953Y-158565905D01*
X120008667Y-140747714D02*
X119970572Y-140785810D01*
X119856286Y-140823905D01*
X119780096Y-140823905D01*
X119665810Y-140785810D01*
X119589619Y-140709619D01*
X119551524Y-140633429D01*
X119513429Y-140481048D01*
X119513429Y-140366762D01*
X119551524Y-140214381D01*
X119589619Y-140138190D01*
X119665810Y-140062000D01*
X119780096Y-140023905D01*
X119856286Y-140023905D01*
X119970572Y-140062000D01*
X120008667Y-140100095D01*
X120770572Y-140823905D02*
X120313429Y-140823905D01*
X120542000Y-140823905D02*
X120542000Y-140023905D01*
X120465810Y-140138190D01*
X120389619Y-140214381D01*
X120313429Y-140252476D01*
X156299143Y-98718666D02*
X156346762Y-98766285D01*
X156394381Y-98909142D01*
X156394381Y-99004380D01*
X156346762Y-99147238D01*
X156251524Y-99242476D01*
X156156286Y-99290095D01*
X155965810Y-99337714D01*
X155822952Y-99337714D01*
X155632476Y-99290095D01*
X155537238Y-99242476D01*
X155442000Y-99147238D01*
X155394381Y-99004380D01*
X155394381Y-98909142D01*
X155442000Y-98766285D01*
X155489619Y-98718666D01*
X155489619Y-98337714D02*
X155442000Y-98290095D01*
X155394381Y-98194857D01*
X155394381Y-97956761D01*
X155442000Y-97861523D01*
X155489619Y-97813904D01*
X155584857Y-97766285D01*
X155680095Y-97766285D01*
X155822952Y-97813904D01*
X156394381Y-98385333D01*
X156394381Y-97766285D01*
X137755334Y-137503143D02*
X137707715Y-137550762D01*
X137564858Y-137598381D01*
X137469620Y-137598381D01*
X137326762Y-137550762D01*
X137231524Y-137455524D01*
X137183905Y-137360286D01*
X137136286Y-137169810D01*
X137136286Y-137026952D01*
X137183905Y-136836476D01*
X137231524Y-136741238D01*
X137326762Y-136646000D01*
X137469620Y-136598381D01*
X137564858Y-136598381D01*
X137707715Y-136646000D01*
X137755334Y-136693619D01*
X138088667Y-136598381D02*
X138707715Y-136598381D01*
X138374381Y-136979333D01*
X138517239Y-136979333D01*
X138612477Y-137026952D01*
X138660096Y-137074571D01*
X138707715Y-137169810D01*
X138707715Y-137407905D01*
X138660096Y-137503143D01*
X138612477Y-137550762D01*
X138517239Y-137598381D01*
X138231524Y-137598381D01*
X138136286Y-137550762D01*
X138088667Y-137503143D01*
X153251143Y-98718666D02*
X153298762Y-98766285D01*
X153346381Y-98909142D01*
X153346381Y-99004380D01*
X153298762Y-99147238D01*
X153203524Y-99242476D01*
X153108286Y-99290095D01*
X152917810Y-99337714D01*
X152774952Y-99337714D01*
X152584476Y-99290095D01*
X152489238Y-99242476D01*
X152394000Y-99147238D01*
X152346381Y-99004380D01*
X152346381Y-98909142D01*
X152394000Y-98766285D01*
X152441619Y-98718666D01*
X152679714Y-97861523D02*
X153346381Y-97861523D01*
X152298762Y-98099619D02*
X153013048Y-98337714D01*
X153013048Y-97718666D01*
X137755334Y-140297143D02*
X137707715Y-140344762D01*
X137564858Y-140392381D01*
X137469620Y-140392381D01*
X137326762Y-140344762D01*
X137231524Y-140249524D01*
X137183905Y-140154286D01*
X137136286Y-139963810D01*
X137136286Y-139820952D01*
X137183905Y-139630476D01*
X137231524Y-139535238D01*
X137326762Y-139440000D01*
X137469620Y-139392381D01*
X137564858Y-139392381D01*
X137707715Y-139440000D01*
X137755334Y-139487619D01*
X138660096Y-139392381D02*
X138183905Y-139392381D01*
X138136286Y-139868571D01*
X138183905Y-139820952D01*
X138279143Y-139773333D01*
X138517239Y-139773333D01*
X138612477Y-139820952D01*
X138660096Y-139868571D01*
X138707715Y-139963810D01*
X138707715Y-140201905D01*
X138660096Y-140297143D01*
X138612477Y-140344762D01*
X138517239Y-140392381D01*
X138279143Y-140392381D01*
X138183905Y-140344762D01*
X138136286Y-140297143D01*
X141090667Y-102901714D02*
X141052572Y-102939810D01*
X140938286Y-102977905D01*
X140862096Y-102977905D01*
X140747810Y-102939810D01*
X140671619Y-102863619D01*
X140633524Y-102787429D01*
X140595429Y-102635048D01*
X140595429Y-102520762D01*
X140633524Y-102368381D01*
X140671619Y-102292190D01*
X140747810Y-102216000D01*
X140862096Y-102177905D01*
X140938286Y-102177905D01*
X141052572Y-102216000D01*
X141090667Y-102254095D01*
X141776381Y-102177905D02*
X141624000Y-102177905D01*
X141547810Y-102216000D01*
X141509715Y-102254095D01*
X141433524Y-102368381D01*
X141395429Y-102520762D01*
X141395429Y-102825524D01*
X141433524Y-102901714D01*
X141471619Y-102939810D01*
X141547810Y-102977905D01*
X141700191Y-102977905D01*
X141776381Y-102939810D01*
X141814477Y-102901714D01*
X141852572Y-102825524D01*
X141852572Y-102635048D01*
X141814477Y-102558857D01*
X141776381Y-102520762D01*
X141700191Y-102482667D01*
X141547810Y-102482667D01*
X141471619Y-102520762D01*
X141433524Y-102558857D01*
X141395429Y-102635048D01*
X140836667Y-140493714D02*
X140798572Y-140531810D01*
X140684286Y-140569905D01*
X140608096Y-140569905D01*
X140493810Y-140531810D01*
X140417619Y-140455619D01*
X140379524Y-140379429D01*
X140341429Y-140227048D01*
X140341429Y-140112762D01*
X140379524Y-139960381D01*
X140417619Y-139884190D01*
X140493810Y-139808000D01*
X140608096Y-139769905D01*
X140684286Y-139769905D01*
X140798572Y-139808000D01*
X140836667Y-139846095D01*
X141103334Y-139769905D02*
X141636667Y-139769905D01*
X141293810Y-140569905D01*
X146325714Y-68693333D02*
X146363810Y-68731428D01*
X146401905Y-68845714D01*
X146401905Y-68921904D01*
X146363810Y-69036190D01*
X146287619Y-69112381D01*
X146211429Y-69150476D01*
X146059048Y-69188571D01*
X145944762Y-69188571D01*
X145792381Y-69150476D01*
X145716190Y-69112381D01*
X145640000Y-69036190D01*
X145601905Y-68921904D01*
X145601905Y-68845714D01*
X145640000Y-68731428D01*
X145678095Y-68693333D01*
X145944762Y-68236190D02*
X145906667Y-68312381D01*
X145868571Y-68350476D01*
X145792381Y-68388571D01*
X145754286Y-68388571D01*
X145678095Y-68350476D01*
X145640000Y-68312381D01*
X145601905Y-68236190D01*
X145601905Y-68083809D01*
X145640000Y-68007619D01*
X145678095Y-67969523D01*
X145754286Y-67931428D01*
X145792381Y-67931428D01*
X145868571Y-67969523D01*
X145906667Y-68007619D01*
X145944762Y-68083809D01*
X145944762Y-68236190D01*
X145982857Y-68312381D01*
X146020952Y-68350476D01*
X146097143Y-68388571D01*
X146249524Y-68388571D01*
X146325714Y-68350476D01*
X146363810Y-68312381D01*
X146401905Y-68236190D01*
X146401905Y-68083809D01*
X146363810Y-68007619D01*
X146325714Y-67969523D01*
X146249524Y-67931428D01*
X146097143Y-67931428D01*
X146020952Y-67969523D01*
X145982857Y-68007619D01*
X145944762Y-68083809D01*
X128898667Y-123221714D02*
X128860572Y-123259810D01*
X128746286Y-123297905D01*
X128670096Y-123297905D01*
X128555810Y-123259810D01*
X128479619Y-123183619D01*
X128441524Y-123107429D01*
X128403429Y-122955048D01*
X128403429Y-122840762D01*
X128441524Y-122688381D01*
X128479619Y-122612190D01*
X128555810Y-122536000D01*
X128670096Y-122497905D01*
X128746286Y-122497905D01*
X128860572Y-122536000D01*
X128898667Y-122574095D01*
X129279619Y-123297905D02*
X129432000Y-123297905D01*
X129508191Y-123259810D01*
X129546286Y-123221714D01*
X129622477Y-123107429D01*
X129660572Y-122955048D01*
X129660572Y-122650286D01*
X129622477Y-122574095D01*
X129584381Y-122536000D01*
X129508191Y-122497905D01*
X129355810Y-122497905D01*
X129279619Y-122536000D01*
X129241524Y-122574095D01*
X129203429Y-122650286D01*
X129203429Y-122840762D01*
X129241524Y-122916952D01*
X129279619Y-122955048D01*
X129355810Y-122993143D01*
X129508191Y-122993143D01*
X129584381Y-122955048D01*
X129622477Y-122916952D01*
X129660572Y-122840762D01*
X118865714Y-161067714D02*
X118827619Y-161105810D01*
X118713333Y-161143905D01*
X118637143Y-161143905D01*
X118522857Y-161105810D01*
X118446666Y-161029619D01*
X118408571Y-160953429D01*
X118370476Y-160801048D01*
X118370476Y-160686762D01*
X118408571Y-160534381D01*
X118446666Y-160458190D01*
X118522857Y-160382000D01*
X118637143Y-160343905D01*
X118713333Y-160343905D01*
X118827619Y-160382000D01*
X118865714Y-160420095D01*
X119627619Y-161143905D02*
X119170476Y-161143905D01*
X119399047Y-161143905D02*
X119399047Y-160343905D01*
X119322857Y-160458190D01*
X119246666Y-160534381D01*
X119170476Y-160572476D01*
X120122857Y-160343905D02*
X120199048Y-160343905D01*
X120275238Y-160382000D01*
X120313333Y-160420095D01*
X120351429Y-160496286D01*
X120389524Y-160648667D01*
X120389524Y-160839143D01*
X120351429Y-160991524D01*
X120313333Y-161067714D01*
X120275238Y-161105810D01*
X120199048Y-161143905D01*
X120122857Y-161143905D01*
X120046667Y-161105810D01*
X120008571Y-161067714D01*
X119970476Y-160991524D01*
X119932381Y-160839143D01*
X119932381Y-160648667D01*
X119970476Y-160496286D01*
X120008571Y-160420095D01*
X120046667Y-160382000D01*
X120122857Y-160343905D01*
X135883714Y-95027714D02*
X135845619Y-95065810D01*
X135731333Y-95103905D01*
X135655143Y-95103905D01*
X135540857Y-95065810D01*
X135464666Y-94989619D01*
X135426571Y-94913429D01*
X135388476Y-94761048D01*
X135388476Y-94646762D01*
X135426571Y-94494381D01*
X135464666Y-94418190D01*
X135540857Y-94342000D01*
X135655143Y-94303905D01*
X135731333Y-94303905D01*
X135845619Y-94342000D01*
X135883714Y-94380095D01*
X136645619Y-95103905D02*
X136188476Y-95103905D01*
X136417047Y-95103905D02*
X136417047Y-94303905D01*
X136340857Y-94418190D01*
X136264666Y-94494381D01*
X136188476Y-94532476D01*
X137407524Y-95103905D02*
X136950381Y-95103905D01*
X137178952Y-95103905D02*
X137178952Y-94303905D01*
X137102762Y-94418190D01*
X137026571Y-94494381D01*
X136950381Y-94532476D01*
X133343714Y-160559714D02*
X133305619Y-160597810D01*
X133191333Y-160635905D01*
X133115143Y-160635905D01*
X133000857Y-160597810D01*
X132924666Y-160521619D01*
X132886571Y-160445429D01*
X132848476Y-160293048D01*
X132848476Y-160178762D01*
X132886571Y-160026381D01*
X132924666Y-159950190D01*
X133000857Y-159874000D01*
X133115143Y-159835905D01*
X133191333Y-159835905D01*
X133305619Y-159874000D01*
X133343714Y-159912095D01*
X134105619Y-160635905D02*
X133648476Y-160635905D01*
X133877047Y-160635905D02*
X133877047Y-159835905D01*
X133800857Y-159950190D01*
X133724666Y-160026381D01*
X133648476Y-160064476D01*
X134410381Y-159912095D02*
X134448476Y-159874000D01*
X134524667Y-159835905D01*
X134715143Y-159835905D01*
X134791333Y-159874000D01*
X134829429Y-159912095D01*
X134867524Y-159988286D01*
X134867524Y-160064476D01*
X134829429Y-160178762D01*
X134372286Y-160635905D01*
X134867524Y-160635905D01*
X132581714Y-95027714D02*
X132543619Y-95065810D01*
X132429333Y-95103905D01*
X132353143Y-95103905D01*
X132238857Y-95065810D01*
X132162666Y-94989619D01*
X132124571Y-94913429D01*
X132086476Y-94761048D01*
X132086476Y-94646762D01*
X132124571Y-94494381D01*
X132162666Y-94418190D01*
X132238857Y-94342000D01*
X132353143Y-94303905D01*
X132429333Y-94303905D01*
X132543619Y-94342000D01*
X132581714Y-94380095D01*
X133343619Y-95103905D02*
X132886476Y-95103905D01*
X133115047Y-95103905D02*
X133115047Y-94303905D01*
X133038857Y-94418190D01*
X132962666Y-94494381D01*
X132886476Y-94532476D01*
X133610286Y-94303905D02*
X134105524Y-94303905D01*
X133838857Y-94608667D01*
X133953143Y-94608667D01*
X134029333Y-94646762D01*
X134067429Y-94684857D01*
X134105524Y-94761048D01*
X134105524Y-94951524D01*
X134067429Y-95027714D01*
X134029333Y-95065810D01*
X133953143Y-95103905D01*
X133724571Y-95103905D01*
X133648381Y-95065810D01*
X133610286Y-95027714D01*
X133343714Y-163861714D02*
X133305619Y-163899810D01*
X133191333Y-163937905D01*
X133115143Y-163937905D01*
X133000857Y-163899810D01*
X132924666Y-163823619D01*
X132886571Y-163747429D01*
X132848476Y-163595048D01*
X132848476Y-163480762D01*
X132886571Y-163328381D01*
X132924666Y-163252190D01*
X133000857Y-163176000D01*
X133115143Y-163137905D01*
X133191333Y-163137905D01*
X133305619Y-163176000D01*
X133343714Y-163214095D01*
X134105619Y-163937905D02*
X133648476Y-163937905D01*
X133877047Y-163937905D02*
X133877047Y-163137905D01*
X133800857Y-163252190D01*
X133724666Y-163328381D01*
X133648476Y-163366476D01*
X134791333Y-163404571D02*
X134791333Y-163937905D01*
X134600857Y-163099810D02*
X134410381Y-163671238D01*
X134905619Y-163671238D01*
X118103714Y-99345714D02*
X118065619Y-99383810D01*
X117951333Y-99421905D01*
X117875143Y-99421905D01*
X117760857Y-99383810D01*
X117684666Y-99307619D01*
X117646571Y-99231429D01*
X117608476Y-99079048D01*
X117608476Y-98964762D01*
X117646571Y-98812381D01*
X117684666Y-98736190D01*
X117760857Y-98660000D01*
X117875143Y-98621905D01*
X117951333Y-98621905D01*
X118065619Y-98660000D01*
X118103714Y-98698095D01*
X118865619Y-99421905D02*
X118408476Y-99421905D01*
X118637047Y-99421905D02*
X118637047Y-98621905D01*
X118560857Y-98736190D01*
X118484666Y-98812381D01*
X118408476Y-98850476D01*
X119589429Y-98621905D02*
X119208476Y-98621905D01*
X119170381Y-99002857D01*
X119208476Y-98964762D01*
X119284667Y-98926667D01*
X119475143Y-98926667D01*
X119551333Y-98964762D01*
X119589429Y-99002857D01*
X119627524Y-99079048D01*
X119627524Y-99269524D01*
X119589429Y-99345714D01*
X119551333Y-99383810D01*
X119475143Y-99421905D01*
X119284667Y-99421905D01*
X119208476Y-99383810D01*
X119170381Y-99345714D01*
X158613143Y-161678857D02*
X158660762Y-161726476D01*
X158708381Y-161869333D01*
X158708381Y-161964571D01*
X158660762Y-162107429D01*
X158565524Y-162202667D01*
X158470286Y-162250286D01*
X158279810Y-162297905D01*
X158136952Y-162297905D01*
X157946476Y-162250286D01*
X157851238Y-162202667D01*
X157756000Y-162107429D01*
X157708381Y-161964571D01*
X157708381Y-161869333D01*
X157756000Y-161726476D01*
X157803619Y-161678857D01*
X158708381Y-160726476D02*
X158708381Y-161297905D01*
X158708381Y-161012191D02*
X157708381Y-161012191D01*
X157851238Y-161107429D01*
X157946476Y-161202667D01*
X157994095Y-161297905D01*
X157708381Y-159869333D02*
X157708381Y-160059810D01*
X157756000Y-160155048D01*
X157803619Y-160202667D01*
X157946476Y-160297905D01*
X158136952Y-160345524D01*
X158517905Y-160345524D01*
X158613143Y-160297905D01*
X158660762Y-160250286D01*
X158708381Y-160155048D01*
X158708381Y-159964571D01*
X158660762Y-159869333D01*
X158613143Y-159821714D01*
X158517905Y-159774095D01*
X158279810Y-159774095D01*
X158184571Y-159821714D01*
X158136952Y-159869333D01*
X158089333Y-159964571D01*
X158089333Y-160155048D01*
X158136952Y-160250286D01*
X158184571Y-160297905D01*
X158279810Y-160345524D01*
X129025714Y-144049714D02*
X128987619Y-144087810D01*
X128873333Y-144125905D01*
X128797143Y-144125905D01*
X128682857Y-144087810D01*
X128606666Y-144011619D01*
X128568571Y-143935429D01*
X128530476Y-143783048D01*
X128530476Y-143668762D01*
X128568571Y-143516381D01*
X128606666Y-143440190D01*
X128682857Y-143364000D01*
X128797143Y-143325905D01*
X128873333Y-143325905D01*
X128987619Y-143364000D01*
X129025714Y-143402095D01*
X129787619Y-144125905D02*
X129330476Y-144125905D01*
X129559047Y-144125905D02*
X129559047Y-143325905D01*
X129482857Y-143440190D01*
X129406666Y-143516381D01*
X129330476Y-143554476D01*
X130244762Y-143668762D02*
X130168571Y-143630667D01*
X130130476Y-143592571D01*
X130092381Y-143516381D01*
X130092381Y-143478286D01*
X130130476Y-143402095D01*
X130168571Y-143364000D01*
X130244762Y-143325905D01*
X130397143Y-143325905D01*
X130473333Y-143364000D01*
X130511429Y-143402095D01*
X130549524Y-143478286D01*
X130549524Y-143516381D01*
X130511429Y-143592571D01*
X130473333Y-143630667D01*
X130397143Y-143668762D01*
X130244762Y-143668762D01*
X130168571Y-143706857D01*
X130130476Y-143744952D01*
X130092381Y-143821143D01*
X130092381Y-143973524D01*
X130130476Y-144049714D01*
X130168571Y-144087810D01*
X130244762Y-144125905D01*
X130397143Y-144125905D01*
X130473333Y-144087810D01*
X130511429Y-144049714D01*
X130549524Y-143973524D01*
X130549524Y-143821143D01*
X130511429Y-143744952D01*
X130473333Y-143706857D01*
X130397143Y-143668762D01*
X114107143Y-27157143D02*
X114059524Y-27204762D01*
X113916667Y-27252381D01*
X113821429Y-27252381D01*
X113678571Y-27204762D01*
X113583333Y-27109524D01*
X113535714Y-27014286D01*
X113488095Y-26823810D01*
X113488095Y-26680952D01*
X113535714Y-26490476D01*
X113583333Y-26395238D01*
X113678571Y-26300000D01*
X113821429Y-26252381D01*
X113916667Y-26252381D01*
X114059524Y-26300000D01*
X114107143Y-26347619D01*
X115059524Y-27252381D02*
X114488095Y-27252381D01*
X114773809Y-27252381D02*
X114773809Y-26252381D01*
X114678571Y-26395238D01*
X114583333Y-26490476D01*
X114488095Y-26538095D01*
X115535714Y-27252381D02*
X115726190Y-27252381D01*
X115821429Y-27204762D01*
X115869048Y-27157143D01*
X115964286Y-27014286D01*
X116011905Y-26823810D01*
X116011905Y-26442857D01*
X115964286Y-26347619D01*
X115916667Y-26300000D01*
X115821429Y-26252381D01*
X115630952Y-26252381D01*
X115535714Y-26300000D01*
X115488095Y-26347619D01*
X115440476Y-26442857D01*
X115440476Y-26680952D01*
X115488095Y-26776190D01*
X115535714Y-26823810D01*
X115630952Y-26871429D01*
X115821429Y-26871429D01*
X115916667Y-26823810D01*
X115964286Y-26776190D01*
X116011905Y-26680952D01*
X114107143Y-35157143D02*
X114059524Y-35204762D01*
X113916667Y-35252381D01*
X113821429Y-35252381D01*
X113678571Y-35204762D01*
X113583333Y-35109524D01*
X113535714Y-35014286D01*
X113488095Y-34823810D01*
X113488095Y-34680952D01*
X113535714Y-34490476D01*
X113583333Y-34395238D01*
X113678571Y-34300000D01*
X113821429Y-34252381D01*
X113916667Y-34252381D01*
X114059524Y-34300000D01*
X114107143Y-34347619D01*
X114488095Y-34347619D02*
X114535714Y-34300000D01*
X114630952Y-34252381D01*
X114869048Y-34252381D01*
X114964286Y-34300000D01*
X115011905Y-34347619D01*
X115059524Y-34442857D01*
X115059524Y-34538095D01*
X115011905Y-34680952D01*
X114440476Y-35252381D01*
X115059524Y-35252381D01*
X115678571Y-34252381D02*
X115773810Y-34252381D01*
X115869048Y-34300000D01*
X115916667Y-34347619D01*
X115964286Y-34442857D01*
X116011905Y-34633333D01*
X116011905Y-34871429D01*
X115964286Y-35061905D01*
X115916667Y-35157143D01*
X115869048Y-35204762D01*
X115773810Y-35252381D01*
X115678571Y-35252381D01*
X115583333Y-35204762D01*
X115535714Y-35157143D01*
X115488095Y-35061905D01*
X115440476Y-34871429D01*
X115440476Y-34633333D01*
X115488095Y-34442857D01*
X115535714Y-34347619D01*
X115583333Y-34300000D01*
X115678571Y-34252381D01*
X156485714Y-69074286D02*
X156523810Y-69112381D01*
X156561905Y-69226667D01*
X156561905Y-69302857D01*
X156523810Y-69417143D01*
X156447619Y-69493334D01*
X156371429Y-69531429D01*
X156219048Y-69569524D01*
X156104762Y-69569524D01*
X155952381Y-69531429D01*
X155876190Y-69493334D01*
X155800000Y-69417143D01*
X155761905Y-69302857D01*
X155761905Y-69226667D01*
X155800000Y-69112381D01*
X155838095Y-69074286D01*
X155838095Y-68769524D02*
X155800000Y-68731429D01*
X155761905Y-68655238D01*
X155761905Y-68464762D01*
X155800000Y-68388572D01*
X155838095Y-68350476D01*
X155914286Y-68312381D01*
X155990476Y-68312381D01*
X156104762Y-68350476D01*
X156561905Y-68807619D01*
X156561905Y-68312381D01*
X156561905Y-67550476D02*
X156561905Y-68007619D01*
X156561905Y-67779048D02*
X155761905Y-67779048D01*
X155876190Y-67855238D01*
X155952381Y-67931429D01*
X155990476Y-68007619D01*
X126005714Y-69074286D02*
X126043810Y-69112381D01*
X126081905Y-69226667D01*
X126081905Y-69302857D01*
X126043810Y-69417143D01*
X125967619Y-69493334D01*
X125891429Y-69531429D01*
X125739048Y-69569524D01*
X125624762Y-69569524D01*
X125472381Y-69531429D01*
X125396190Y-69493334D01*
X125320000Y-69417143D01*
X125281905Y-69302857D01*
X125281905Y-69226667D01*
X125320000Y-69112381D01*
X125358095Y-69074286D01*
X125358095Y-68769524D02*
X125320000Y-68731429D01*
X125281905Y-68655238D01*
X125281905Y-68464762D01*
X125320000Y-68388572D01*
X125358095Y-68350476D01*
X125434286Y-68312381D01*
X125510476Y-68312381D01*
X125624762Y-68350476D01*
X126081905Y-68807619D01*
X126081905Y-68312381D01*
X125358095Y-68007619D02*
X125320000Y-67969524D01*
X125281905Y-67893333D01*
X125281905Y-67702857D01*
X125320000Y-67626667D01*
X125358095Y-67588571D01*
X125434286Y-67550476D01*
X125510476Y-67550476D01*
X125624762Y-67588571D01*
X126081905Y-68045714D01*
X126081905Y-67550476D01*
X136165714Y-69074286D02*
X136203810Y-69112381D01*
X136241905Y-69226667D01*
X136241905Y-69302857D01*
X136203810Y-69417143D01*
X136127619Y-69493334D01*
X136051429Y-69531429D01*
X135899048Y-69569524D01*
X135784762Y-69569524D01*
X135632381Y-69531429D01*
X135556190Y-69493334D01*
X135480000Y-69417143D01*
X135441905Y-69302857D01*
X135441905Y-69226667D01*
X135480000Y-69112381D01*
X135518095Y-69074286D01*
X135518095Y-68769524D02*
X135480000Y-68731429D01*
X135441905Y-68655238D01*
X135441905Y-68464762D01*
X135480000Y-68388572D01*
X135518095Y-68350476D01*
X135594286Y-68312381D01*
X135670476Y-68312381D01*
X135784762Y-68350476D01*
X136241905Y-68807619D01*
X136241905Y-68312381D01*
X135708571Y-67626667D02*
X136241905Y-67626667D01*
X135403810Y-67817143D02*
X135975238Y-68007619D01*
X135975238Y-67512381D01*
X67484858Y-69524571D02*
X67151524Y-69524571D01*
X67151524Y-70048381D02*
X67151524Y-69048381D01*
X67627715Y-69048381D01*
X67770572Y-70143619D02*
X68532477Y-70143619D01*
X69294382Y-70048381D02*
X68722953Y-70048381D01*
X69008667Y-70048381D02*
X69008667Y-69048381D01*
X68913429Y-69191238D01*
X68818191Y-69286476D01*
X68722953Y-69334095D01*
X69722953Y-69953143D02*
X69770572Y-70000762D01*
X69722953Y-70048381D01*
X69675334Y-70000762D01*
X69722953Y-69953143D01*
X69722953Y-70048381D01*
X70675334Y-69048381D02*
X70199143Y-69048381D01*
X70151524Y-69524571D01*
X70199143Y-69476952D01*
X70294381Y-69429333D01*
X70532477Y-69429333D01*
X70627715Y-69476952D01*
X70675334Y-69524571D01*
X70722953Y-69619810D01*
X70722953Y-69857905D01*
X70675334Y-69953143D01*
X70627715Y-70000762D01*
X70532477Y-70048381D01*
X70294381Y-70048381D01*
X70199143Y-70000762D01*
X70151524Y-69953143D01*
X71103905Y-69762667D02*
X71580096Y-69762667D01*
X71008667Y-70048381D02*
X71342000Y-69048381D01*
X71675334Y-70048381D01*
X67691143Y-89336571D02*
X67357809Y-89336571D01*
X67357809Y-89860381D02*
X67357809Y-88860381D01*
X67834000Y-88860381D01*
X67976857Y-89955619D02*
X68738762Y-89955619D01*
X69500667Y-89860381D02*
X68929238Y-89860381D01*
X69214952Y-89860381D02*
X69214952Y-88860381D01*
X69119714Y-89003238D01*
X69024476Y-89098476D01*
X68929238Y-89146095D01*
X69881619Y-89574667D02*
X70357810Y-89574667D01*
X69786381Y-89860381D02*
X70119714Y-88860381D01*
X70453048Y-89860381D01*
X67691143Y-49458571D02*
X67357809Y-49458571D01*
X67357809Y-49982381D02*
X67357809Y-48982381D01*
X67834000Y-48982381D01*
X67976857Y-50077619D02*
X68738762Y-50077619D01*
X69405429Y-49315714D02*
X69405429Y-49982381D01*
X69167333Y-48934762D02*
X68929238Y-49649048D01*
X69548286Y-49649048D01*
X69881619Y-49696667D02*
X70357810Y-49696667D01*
X69786381Y-49982381D02*
X70119714Y-48982381D01*
X70453048Y-49982381D01*
X220865905Y-24707810D02*
X220980191Y-24745905D01*
X221170667Y-24745905D01*
X221246857Y-24707810D01*
X221284953Y-24669714D01*
X221323048Y-24593524D01*
X221323048Y-24517333D01*
X221284953Y-24441143D01*
X221246857Y-24403048D01*
X221170667Y-24364952D01*
X221018286Y-24326857D01*
X220942095Y-24288762D01*
X220904000Y-24250667D01*
X220865905Y-24174476D01*
X220865905Y-24098286D01*
X220904000Y-24022095D01*
X220942095Y-23984000D01*
X221018286Y-23945905D01*
X221208762Y-23945905D01*
X221323048Y-23984000D01*
X222008762Y-24707810D02*
X221932572Y-24745905D01*
X221780191Y-24745905D01*
X221704000Y-24707810D01*
X221665905Y-24669714D01*
X221627810Y-24593524D01*
X221627810Y-24364952D01*
X221665905Y-24288762D01*
X221704000Y-24250667D01*
X221780191Y-24212571D01*
X221932572Y-24212571D01*
X222008762Y-24250667D01*
X222465905Y-24745905D02*
X222389714Y-24707810D01*
X222351619Y-24669714D01*
X222313524Y-24593524D01*
X222313524Y-24364952D01*
X222351619Y-24288762D01*
X222389714Y-24250667D01*
X222465905Y-24212571D01*
X222580191Y-24212571D01*
X222656381Y-24250667D01*
X222694476Y-24288762D01*
X222732572Y-24364952D01*
X222732572Y-24593524D01*
X222694476Y-24669714D01*
X222656381Y-24707810D01*
X222580191Y-24745905D01*
X222465905Y-24745905D01*
X223075429Y-24212571D02*
X223075429Y-25012571D01*
X223075429Y-24250667D02*
X223151620Y-24212571D01*
X223304001Y-24212571D01*
X223380191Y-24250667D01*
X223418286Y-24288762D01*
X223456382Y-24364952D01*
X223456382Y-24593524D01*
X223418286Y-24669714D01*
X223380191Y-24707810D01*
X223304001Y-24745905D01*
X223151620Y-24745905D01*
X223075429Y-24707810D01*
X224104001Y-24707810D02*
X224027811Y-24745905D01*
X223875430Y-24745905D01*
X223799239Y-24707810D01*
X223761144Y-24631619D01*
X223761144Y-24326857D01*
X223799239Y-24250667D01*
X223875430Y-24212571D01*
X224027811Y-24212571D01*
X224104001Y-24250667D01*
X224142096Y-24326857D01*
X224142096Y-24403048D01*
X223761144Y-24479238D01*
X201384000Y-24517333D02*
X201764952Y-24517333D01*
X201307809Y-24745905D02*
X201574476Y-23945905D01*
X201841143Y-24745905D01*
X202107809Y-24745905D02*
X202107809Y-24212571D01*
X202107809Y-24364952D02*
X202145904Y-24288762D01*
X202184000Y-24250667D01*
X202260190Y-24212571D01*
X202336381Y-24212571D01*
X202945904Y-24745905D02*
X202945904Y-23945905D01*
X202945904Y-24707810D02*
X202869714Y-24745905D01*
X202717333Y-24745905D01*
X202641142Y-24707810D01*
X202603047Y-24669714D01*
X202564952Y-24593524D01*
X202564952Y-24364952D01*
X202603047Y-24288762D01*
X202641142Y-24250667D01*
X202717333Y-24212571D01*
X202869714Y-24212571D01*
X202945904Y-24250667D01*
X211277333Y-24745905D02*
X211277333Y-23945905D01*
X211582095Y-23945905D01*
X211658286Y-23984000D01*
X211696381Y-24022095D01*
X211734476Y-24098286D01*
X211734476Y-24212571D01*
X211696381Y-24288762D01*
X211658286Y-24326857D01*
X211582095Y-24364952D01*
X211277333Y-24364952D01*
X212001143Y-23945905D02*
X212191619Y-24745905D01*
X212344000Y-24174476D01*
X212496381Y-24745905D01*
X212686857Y-23945905D01*
X213448762Y-24745905D02*
X213182095Y-24364952D01*
X212991619Y-24745905D02*
X212991619Y-23945905D01*
X213296381Y-23945905D01*
X213372572Y-23984000D01*
X213410667Y-24022095D01*
X213448762Y-24098286D01*
X213448762Y-24212571D01*
X213410667Y-24288762D01*
X213372572Y-24326857D01*
X213296381Y-24364952D01*
X212991619Y-24364952D01*
X187839429Y-35375810D02*
X187953715Y-35413905D01*
X188144191Y-35413905D01*
X188220381Y-35375810D01*
X188258477Y-35337714D01*
X188296572Y-35261524D01*
X188296572Y-35185333D01*
X188258477Y-35109143D01*
X188220381Y-35071048D01*
X188144191Y-35032952D01*
X187991810Y-34994857D01*
X187915619Y-34956762D01*
X187877524Y-34918667D01*
X187839429Y-34842476D01*
X187839429Y-34766286D01*
X187877524Y-34690095D01*
X187915619Y-34652000D01*
X187991810Y-34613905D01*
X188182286Y-34613905D01*
X188296572Y-34652000D01*
X188639429Y-35413905D02*
X188639429Y-34613905D01*
X188829905Y-34613905D01*
X188944191Y-34652000D01*
X189020382Y-34728190D01*
X189058477Y-34804381D01*
X189096572Y-34956762D01*
X189096572Y-35071048D01*
X189058477Y-35223429D01*
X189020382Y-35299619D01*
X188944191Y-35375810D01*
X188829905Y-35413905D01*
X188639429Y-35413905D01*
X190284190Y-42233905D02*
X190550857Y-43033905D01*
X190817524Y-42233905D01*
X191084190Y-43033905D02*
X191084190Y-42233905D01*
X191350857Y-42805333D01*
X191617524Y-42233905D01*
X191617524Y-43033905D01*
X163345905Y-113716381D02*
X163345905Y-112716381D01*
X163726858Y-112716381D01*
X163822096Y-112764000D01*
X163869715Y-112811619D01*
X163917334Y-112906857D01*
X163917334Y-113049714D01*
X163869715Y-113144952D01*
X163822096Y-113192571D01*
X163726858Y-113240190D01*
X163345905Y-113240190D01*
X164822096Y-112716381D02*
X164345905Y-112716381D01*
X164298286Y-113192571D01*
X164345905Y-113144952D01*
X164441143Y-113097333D01*
X164679239Y-113097333D01*
X164774477Y-113144952D01*
X164822096Y-113192571D01*
X164869715Y-113287810D01*
X164869715Y-113525905D01*
X164822096Y-113621143D01*
X164774477Y-113668762D01*
X164679239Y-113716381D01*
X164441143Y-113716381D01*
X164345905Y-113668762D01*
X164298286Y-113621143D01*
X216332381Y-31218095D02*
X215332381Y-31218095D01*
X215332381Y-30837142D01*
X215380000Y-30741904D01*
X215427619Y-30694285D01*
X215522857Y-30646666D01*
X215665714Y-30646666D01*
X215760952Y-30694285D01*
X215808571Y-30741904D01*
X215856190Y-30837142D01*
X215856190Y-31218095D01*
X215332381Y-29789523D02*
X215332381Y-29980000D01*
X215380000Y-30075238D01*
X215427619Y-30122857D01*
X215570476Y-30218095D01*
X215760952Y-30265714D01*
X216141905Y-30265714D01*
X216237143Y-30218095D01*
X216284762Y-30170476D01*
X216332381Y-30075238D01*
X216332381Y-29884761D01*
X216284762Y-29789523D01*
X216237143Y-29741904D01*
X216141905Y-29694285D01*
X215903810Y-29694285D01*
X215808571Y-29741904D01*
X215760952Y-29789523D01*
X215713333Y-29884761D01*
X215713333Y-30075238D01*
X215760952Y-30170476D01*
X215808571Y-30218095D01*
X215903810Y-30265714D01*
X175478381Y-147804095D02*
X174478381Y-147804095D01*
X174478381Y-147423142D01*
X174526000Y-147327904D01*
X174573619Y-147280285D01*
X174668857Y-147232666D01*
X174811714Y-147232666D01*
X174906952Y-147280285D01*
X174954571Y-147327904D01*
X175002190Y-147423142D01*
X175002190Y-147804095D01*
X174478381Y-146899333D02*
X174478381Y-146232666D01*
X175478381Y-146661238D01*
X175478381Y-143994095D02*
X174478381Y-143994095D01*
X174478381Y-143613142D01*
X174526000Y-143517904D01*
X174573619Y-143470285D01*
X174668857Y-143422666D01*
X174811714Y-143422666D01*
X174906952Y-143470285D01*
X174954571Y-143517904D01*
X175002190Y-143613142D01*
X175002190Y-143994095D01*
X174906952Y-142851238D02*
X174859333Y-142946476D01*
X174811714Y-142994095D01*
X174716476Y-143041714D01*
X174668857Y-143041714D01*
X174573619Y-142994095D01*
X174526000Y-142946476D01*
X174478381Y-142851238D01*
X174478381Y-142660761D01*
X174526000Y-142565523D01*
X174573619Y-142517904D01*
X174668857Y-142470285D01*
X174716476Y-142470285D01*
X174811714Y-142517904D01*
X174859333Y-142565523D01*
X174906952Y-142660761D01*
X174906952Y-142851238D01*
X174954571Y-142946476D01*
X175002190Y-142994095D01*
X175097429Y-143041714D01*
X175287905Y-143041714D01*
X175383143Y-142994095D01*
X175430762Y-142946476D01*
X175478381Y-142851238D01*
X175478381Y-142660761D01*
X175430762Y-142565523D01*
X175383143Y-142517904D01*
X175287905Y-142470285D01*
X175097429Y-142470285D01*
X175002190Y-142517904D01*
X174954571Y-142565523D01*
X174906952Y-142660761D01*
X177717524Y-47605905D02*
X177717524Y-46805905D01*
X178022286Y-46805905D01*
X178098477Y-46844000D01*
X178136572Y-46882095D01*
X178174667Y-46958286D01*
X178174667Y-47072571D01*
X178136572Y-47148762D01*
X178098477Y-47186857D01*
X178022286Y-47224952D01*
X177717524Y-47224952D01*
X178555619Y-47605905D02*
X178708000Y-47605905D01*
X178784191Y-47567810D01*
X178822286Y-47529714D01*
X178898477Y-47415429D01*
X178936572Y-47263048D01*
X178936572Y-46958286D01*
X178898477Y-46882095D01*
X178860381Y-46844000D01*
X178784191Y-46805905D01*
X178631810Y-46805905D01*
X178555619Y-46844000D01*
X178517524Y-46882095D01*
X178479429Y-46958286D01*
X178479429Y-47148762D01*
X178517524Y-47224952D01*
X178555619Y-47263048D01*
X178631810Y-47301143D01*
X178784191Y-47301143D01*
X178860381Y-47263048D01*
X178898477Y-47224952D01*
X178936572Y-47148762D01*
X161885334Y-127706381D02*
X161552000Y-127230190D01*
X161313905Y-127706381D02*
X161313905Y-126706381D01*
X161694858Y-126706381D01*
X161790096Y-126754000D01*
X161837715Y-126801619D01*
X161885334Y-126896857D01*
X161885334Y-127039714D01*
X161837715Y-127134952D01*
X161790096Y-127182571D01*
X161694858Y-127230190D01*
X161313905Y-127230190D01*
X162837715Y-127706381D02*
X162266286Y-127706381D01*
X162552000Y-127706381D02*
X162552000Y-126706381D01*
X162456762Y-126849238D01*
X162361524Y-126944476D01*
X162266286Y-126992095D01*
X161885334Y-130246381D02*
X161552000Y-129770190D01*
X161313905Y-130246381D02*
X161313905Y-129246381D01*
X161694858Y-129246381D01*
X161790096Y-129294000D01*
X161837715Y-129341619D01*
X161885334Y-129436857D01*
X161885334Y-129579714D01*
X161837715Y-129674952D01*
X161790096Y-129722571D01*
X161694858Y-129770190D01*
X161313905Y-129770190D01*
X162266286Y-129341619D02*
X162313905Y-129294000D01*
X162409143Y-129246381D01*
X162647239Y-129246381D01*
X162742477Y-129294000D01*
X162790096Y-129341619D01*
X162837715Y-129436857D01*
X162837715Y-129532095D01*
X162790096Y-129674952D01*
X162218667Y-130246381D01*
X162837715Y-130246381D01*
X161885334Y-132786381D02*
X161552000Y-132310190D01*
X161313905Y-132786381D02*
X161313905Y-131786381D01*
X161694858Y-131786381D01*
X161790096Y-131834000D01*
X161837715Y-131881619D01*
X161885334Y-131976857D01*
X161885334Y-132119714D01*
X161837715Y-132214952D01*
X161790096Y-132262571D01*
X161694858Y-132310190D01*
X161313905Y-132310190D01*
X162218667Y-131786381D02*
X162837715Y-131786381D01*
X162504381Y-132167333D01*
X162647239Y-132167333D01*
X162742477Y-132214952D01*
X162790096Y-132262571D01*
X162837715Y-132357810D01*
X162837715Y-132595905D01*
X162790096Y-132691143D01*
X162742477Y-132738762D01*
X162647239Y-132786381D01*
X162361524Y-132786381D01*
X162266286Y-132738762D01*
X162218667Y-132691143D01*
X161885334Y-135326381D02*
X161552000Y-134850190D01*
X161313905Y-135326381D02*
X161313905Y-134326381D01*
X161694858Y-134326381D01*
X161790096Y-134374000D01*
X161837715Y-134421619D01*
X161885334Y-134516857D01*
X161885334Y-134659714D01*
X161837715Y-134754952D01*
X161790096Y-134802571D01*
X161694858Y-134850190D01*
X161313905Y-134850190D01*
X162742477Y-134659714D02*
X162742477Y-135326381D01*
X162504381Y-134278762D02*
X162266286Y-134993048D01*
X162885334Y-134993048D01*
X161905905Y-117735333D02*
X161524952Y-118002000D01*
X161905905Y-118192476D02*
X161105905Y-118192476D01*
X161105905Y-117887714D01*
X161144000Y-117811523D01*
X161182095Y-117773428D01*
X161258286Y-117735333D01*
X161372571Y-117735333D01*
X161448762Y-117773428D01*
X161486857Y-117811523D01*
X161524952Y-117887714D01*
X161524952Y-118192476D01*
X161905905Y-117354381D02*
X161905905Y-117202000D01*
X161867810Y-117125809D01*
X161829714Y-117087714D01*
X161715429Y-117011523D01*
X161563048Y-116973428D01*
X161258286Y-116973428D01*
X161182095Y-117011523D01*
X161144000Y-117049619D01*
X161105905Y-117125809D01*
X161105905Y-117278190D01*
X161144000Y-117354381D01*
X161182095Y-117392476D01*
X161258286Y-117430571D01*
X161448762Y-117430571D01*
X161524952Y-117392476D01*
X161563048Y-117354381D01*
X161601143Y-117278190D01*
X161601143Y-117125809D01*
X161563048Y-117049619D01*
X161524952Y-117011523D01*
X161448762Y-116973428D01*
X161905905Y-115576286D02*
X161524952Y-115842953D01*
X161905905Y-116033429D02*
X161105905Y-116033429D01*
X161105905Y-115728667D01*
X161144000Y-115652476D01*
X161182095Y-115614381D01*
X161258286Y-115576286D01*
X161372571Y-115576286D01*
X161448762Y-115614381D01*
X161486857Y-115652476D01*
X161524952Y-115728667D01*
X161524952Y-116033429D01*
X161905905Y-114814381D02*
X161905905Y-115271524D01*
X161905905Y-115042953D02*
X161105905Y-115042953D01*
X161220190Y-115119143D01*
X161296381Y-115195334D01*
X161334476Y-115271524D01*
X161105905Y-114319143D02*
X161105905Y-114242952D01*
X161144000Y-114166762D01*
X161182095Y-114128667D01*
X161258286Y-114090571D01*
X161410667Y-114052476D01*
X161601143Y-114052476D01*
X161753524Y-114090571D01*
X161829714Y-114128667D01*
X161867810Y-114166762D01*
X161905905Y-114242952D01*
X161905905Y-114319143D01*
X161867810Y-114395333D01*
X161829714Y-114433429D01*
X161753524Y-114471524D01*
X161601143Y-114509619D01*
X161410667Y-114509619D01*
X161258286Y-114471524D01*
X161182095Y-114433429D01*
X161144000Y-114395333D01*
X161105905Y-114319143D01*
X200907714Y-26269905D02*
X200641047Y-25888952D01*
X200450571Y-26269905D02*
X200450571Y-25469905D01*
X200755333Y-25469905D01*
X200831524Y-25508000D01*
X200869619Y-25546095D01*
X200907714Y-25622286D01*
X200907714Y-25736571D01*
X200869619Y-25812762D01*
X200831524Y-25850857D01*
X200755333Y-25888952D01*
X200450571Y-25888952D01*
X201669619Y-26269905D02*
X201212476Y-26269905D01*
X201441047Y-26269905D02*
X201441047Y-25469905D01*
X201364857Y-25584190D01*
X201288666Y-25660381D01*
X201212476Y-25698476D01*
X202431524Y-26269905D02*
X201974381Y-26269905D01*
X202202952Y-26269905D02*
X202202952Y-25469905D01*
X202126762Y-25584190D01*
X202050571Y-25660381D01*
X201974381Y-25698476D01*
X200653714Y-29317905D02*
X200387047Y-28936952D01*
X200196571Y-29317905D02*
X200196571Y-28517905D01*
X200501333Y-28517905D01*
X200577524Y-28556000D01*
X200615619Y-28594095D01*
X200653714Y-28670286D01*
X200653714Y-28784571D01*
X200615619Y-28860762D01*
X200577524Y-28898857D01*
X200501333Y-28936952D01*
X200196571Y-28936952D01*
X201415619Y-29317905D02*
X200958476Y-29317905D01*
X201187047Y-29317905D02*
X201187047Y-28517905D01*
X201110857Y-28632190D01*
X201034666Y-28708381D01*
X200958476Y-28746476D01*
X201720381Y-28594095D02*
X201758476Y-28556000D01*
X201834667Y-28517905D01*
X202025143Y-28517905D01*
X202101333Y-28556000D01*
X202139429Y-28594095D01*
X202177524Y-28670286D01*
X202177524Y-28746476D01*
X202139429Y-28860762D01*
X201682286Y-29317905D01*
X202177524Y-29317905D01*
X157855905Y-86620286D02*
X157474952Y-86886953D01*
X157855905Y-87077429D02*
X157055905Y-87077429D01*
X157055905Y-86772667D01*
X157094000Y-86696476D01*
X157132095Y-86658381D01*
X157208286Y-86620286D01*
X157322571Y-86620286D01*
X157398762Y-86658381D01*
X157436857Y-86696476D01*
X157474952Y-86772667D01*
X157474952Y-87077429D01*
X157855905Y-85858381D02*
X157855905Y-86315524D01*
X157855905Y-86086953D02*
X157055905Y-86086953D01*
X157170190Y-86163143D01*
X157246381Y-86239334D01*
X157284476Y-86315524D01*
X157055905Y-85591714D02*
X157055905Y-85096476D01*
X157360667Y-85363143D01*
X157360667Y-85248857D01*
X157398762Y-85172667D01*
X157436857Y-85134571D01*
X157513048Y-85096476D01*
X157703524Y-85096476D01*
X157779714Y-85134571D01*
X157817810Y-85172667D01*
X157855905Y-85248857D01*
X157855905Y-85477429D01*
X157817810Y-85553619D01*
X157779714Y-85591714D01*
X126345905Y-116084286D02*
X125964952Y-116350953D01*
X126345905Y-116541429D02*
X125545905Y-116541429D01*
X125545905Y-116236667D01*
X125584000Y-116160476D01*
X125622095Y-116122381D01*
X125698286Y-116084286D01*
X125812571Y-116084286D01*
X125888762Y-116122381D01*
X125926857Y-116160476D01*
X125964952Y-116236667D01*
X125964952Y-116541429D01*
X126345905Y-115322381D02*
X126345905Y-115779524D01*
X126345905Y-115550953D02*
X125545905Y-115550953D01*
X125660190Y-115627143D01*
X125736381Y-115703334D01*
X125774476Y-115779524D01*
X125545905Y-114598571D02*
X125545905Y-114979524D01*
X125926857Y-115017619D01*
X125888762Y-114979524D01*
X125850667Y-114903333D01*
X125850667Y-114712857D01*
X125888762Y-114636667D01*
X125926857Y-114598571D01*
X126003048Y-114560476D01*
X126193524Y-114560476D01*
X126269714Y-114598571D01*
X126307810Y-114636667D01*
X126345905Y-114712857D01*
X126345905Y-114903333D01*
X126307810Y-114979524D01*
X126269714Y-115017619D01*
X123805905Y-119132286D02*
X123424952Y-119398953D01*
X123805905Y-119589429D02*
X123005905Y-119589429D01*
X123005905Y-119284667D01*
X123044000Y-119208476D01*
X123082095Y-119170381D01*
X123158286Y-119132286D01*
X123272571Y-119132286D01*
X123348762Y-119170381D01*
X123386857Y-119208476D01*
X123424952Y-119284667D01*
X123424952Y-119589429D01*
X123805905Y-118370381D02*
X123805905Y-118827524D01*
X123805905Y-118598953D02*
X123005905Y-118598953D01*
X123120190Y-118675143D01*
X123196381Y-118751334D01*
X123234476Y-118827524D01*
X123005905Y-117684667D02*
X123005905Y-117837048D01*
X123044000Y-117913238D01*
X123082095Y-117951333D01*
X123196381Y-118027524D01*
X123348762Y-118065619D01*
X123653524Y-118065619D01*
X123729714Y-118027524D01*
X123767810Y-117989429D01*
X123805905Y-117913238D01*
X123805905Y-117760857D01*
X123767810Y-117684667D01*
X123729714Y-117646571D01*
X123653524Y-117608476D01*
X123463048Y-117608476D01*
X123386857Y-117646571D01*
X123348762Y-117684667D01*
X123310667Y-117760857D01*
X123310667Y-117913238D01*
X123348762Y-117989429D01*
X123386857Y-118027524D01*
X123463048Y-118065619D01*
X137535905Y-86620286D02*
X137154952Y-86886953D01*
X137535905Y-87077429D02*
X136735905Y-87077429D01*
X136735905Y-86772667D01*
X136774000Y-86696476D01*
X136812095Y-86658381D01*
X136888286Y-86620286D01*
X137002571Y-86620286D01*
X137078762Y-86658381D01*
X137116857Y-86696476D01*
X137154952Y-86772667D01*
X137154952Y-87077429D01*
X137535905Y-85858381D02*
X137535905Y-86315524D01*
X137535905Y-86086953D02*
X136735905Y-86086953D01*
X136850190Y-86163143D01*
X136926381Y-86239334D01*
X136964476Y-86315524D01*
X136735905Y-85591714D02*
X136735905Y-85058381D01*
X137535905Y-85401238D01*
X173855143Y-149282381D02*
X173521809Y-148806190D01*
X173283714Y-149282381D02*
X173283714Y-148282381D01*
X173664667Y-148282381D01*
X173759905Y-148330000D01*
X173807524Y-148377619D01*
X173855143Y-148472857D01*
X173855143Y-148615714D01*
X173807524Y-148710952D01*
X173759905Y-148758571D01*
X173664667Y-148806190D01*
X173283714Y-148806190D01*
X174807524Y-149282381D02*
X174236095Y-149282381D01*
X174521809Y-149282381D02*
X174521809Y-148282381D01*
X174426571Y-148425238D01*
X174331333Y-148520476D01*
X174236095Y-148568095D01*
X175378952Y-148710952D02*
X175283714Y-148663333D01*
X175236095Y-148615714D01*
X175188476Y-148520476D01*
X175188476Y-148472857D01*
X175236095Y-148377619D01*
X175283714Y-148330000D01*
X175378952Y-148282381D01*
X175569429Y-148282381D01*
X175664667Y-148330000D01*
X175712286Y-148377619D01*
X175759905Y-148472857D01*
X175759905Y-148520476D01*
X175712286Y-148615714D01*
X175664667Y-148663333D01*
X175569429Y-148710952D01*
X175378952Y-148710952D01*
X175283714Y-148758571D01*
X175236095Y-148806190D01*
X175188476Y-148901429D01*
X175188476Y-149091905D01*
X175236095Y-149187143D01*
X175283714Y-149234762D01*
X175378952Y-149282381D01*
X175569429Y-149282381D01*
X175664667Y-149234762D01*
X175712286Y-149187143D01*
X175759905Y-149091905D01*
X175759905Y-148901429D01*
X175712286Y-148806190D01*
X175664667Y-148758571D01*
X175569429Y-148710952D01*
X183507143Y-153882381D02*
X183173809Y-153406190D01*
X182935714Y-153882381D02*
X182935714Y-152882381D01*
X183316667Y-152882381D01*
X183411905Y-152930000D01*
X183459524Y-152977619D01*
X183507143Y-153072857D01*
X183507143Y-153215714D01*
X183459524Y-153310952D01*
X183411905Y-153358571D01*
X183316667Y-153406190D01*
X182935714Y-153406190D01*
X184459524Y-153882381D02*
X183888095Y-153882381D01*
X184173809Y-153882381D02*
X184173809Y-152882381D01*
X184078571Y-153025238D01*
X183983333Y-153120476D01*
X183888095Y-153168095D01*
X184935714Y-153882381D02*
X185126190Y-153882381D01*
X185221429Y-153834762D01*
X185269048Y-153787143D01*
X185364286Y-153644286D01*
X185411905Y-153453810D01*
X185411905Y-153072857D01*
X185364286Y-152977619D01*
X185316667Y-152930000D01*
X185221429Y-152882381D01*
X185030952Y-152882381D01*
X184935714Y-152930000D01*
X184888095Y-152977619D01*
X184840476Y-153072857D01*
X184840476Y-153310952D01*
X184888095Y-153406190D01*
X184935714Y-153453810D01*
X185030952Y-153501429D01*
X185221429Y-153501429D01*
X185316667Y-153453810D01*
X185364286Y-153406190D01*
X185411905Y-153310952D01*
X200017143Y-153106381D02*
X199683809Y-152630190D01*
X199445714Y-153106381D02*
X199445714Y-152106381D01*
X199826667Y-152106381D01*
X199921905Y-152154000D01*
X199969524Y-152201619D01*
X200017143Y-152296857D01*
X200017143Y-152439714D01*
X199969524Y-152534952D01*
X199921905Y-152582571D01*
X199826667Y-152630190D01*
X199445714Y-152630190D01*
X200398095Y-152201619D02*
X200445714Y-152154000D01*
X200540952Y-152106381D01*
X200779048Y-152106381D01*
X200874286Y-152154000D01*
X200921905Y-152201619D01*
X200969524Y-152296857D01*
X200969524Y-152392095D01*
X200921905Y-152534952D01*
X200350476Y-153106381D01*
X200969524Y-153106381D01*
X201588571Y-152106381D02*
X201683810Y-152106381D01*
X201779048Y-152154000D01*
X201826667Y-152201619D01*
X201874286Y-152296857D01*
X201921905Y-152487333D01*
X201921905Y-152725429D01*
X201874286Y-152915905D01*
X201826667Y-153011143D01*
X201779048Y-153058762D01*
X201683810Y-153106381D01*
X201588571Y-153106381D01*
X201493333Y-153058762D01*
X201445714Y-153011143D01*
X201398095Y-152915905D01*
X201350476Y-152725429D01*
X201350476Y-152487333D01*
X201398095Y-152296857D01*
X201445714Y-152201619D01*
X201493333Y-152154000D01*
X201588571Y-152106381D01*
X221861143Y-153106381D02*
X221527809Y-152630190D01*
X221289714Y-153106381D02*
X221289714Y-152106381D01*
X221670667Y-152106381D01*
X221765905Y-152154000D01*
X221813524Y-152201619D01*
X221861143Y-152296857D01*
X221861143Y-152439714D01*
X221813524Y-152534952D01*
X221765905Y-152582571D01*
X221670667Y-152630190D01*
X221289714Y-152630190D01*
X222242095Y-152201619D02*
X222289714Y-152154000D01*
X222384952Y-152106381D01*
X222623048Y-152106381D01*
X222718286Y-152154000D01*
X222765905Y-152201619D01*
X222813524Y-152296857D01*
X222813524Y-152392095D01*
X222765905Y-152534952D01*
X222194476Y-153106381D01*
X222813524Y-153106381D01*
X223765905Y-153106381D02*
X223194476Y-153106381D01*
X223480190Y-153106381D02*
X223480190Y-152106381D01*
X223384952Y-152249238D01*
X223289714Y-152344476D01*
X223194476Y-152392095D01*
X119499143Y-145740381D02*
X119165809Y-145264190D01*
X118927714Y-145740381D02*
X118927714Y-144740381D01*
X119308667Y-144740381D01*
X119403905Y-144788000D01*
X119451524Y-144835619D01*
X119499143Y-144930857D01*
X119499143Y-145073714D01*
X119451524Y-145168952D01*
X119403905Y-145216571D01*
X119308667Y-145264190D01*
X118927714Y-145264190D01*
X119880095Y-144835619D02*
X119927714Y-144788000D01*
X120022952Y-144740381D01*
X120261048Y-144740381D01*
X120356286Y-144788000D01*
X120403905Y-144835619D01*
X120451524Y-144930857D01*
X120451524Y-145026095D01*
X120403905Y-145168952D01*
X119832476Y-145740381D01*
X120451524Y-145740381D01*
X120832476Y-144835619D02*
X120880095Y-144788000D01*
X120975333Y-144740381D01*
X121213429Y-144740381D01*
X121308667Y-144788000D01*
X121356286Y-144835619D01*
X121403905Y-144930857D01*
X121403905Y-145026095D01*
X121356286Y-145168952D01*
X120784857Y-145740381D01*
X121403905Y-145740381D01*
X117213143Y-39314381D02*
X116879809Y-38838190D01*
X116641714Y-39314381D02*
X116641714Y-38314381D01*
X117022667Y-38314381D01*
X117117905Y-38362000D01*
X117165524Y-38409619D01*
X117213143Y-38504857D01*
X117213143Y-38647714D01*
X117165524Y-38742952D01*
X117117905Y-38790571D01*
X117022667Y-38838190D01*
X116641714Y-38838190D01*
X117594095Y-38409619D02*
X117641714Y-38362000D01*
X117736952Y-38314381D01*
X117975048Y-38314381D01*
X118070286Y-38362000D01*
X118117905Y-38409619D01*
X118165524Y-38504857D01*
X118165524Y-38600095D01*
X118117905Y-38742952D01*
X117546476Y-39314381D01*
X118165524Y-39314381D01*
X118498857Y-38314381D02*
X119117905Y-38314381D01*
X118784571Y-38695333D01*
X118927429Y-38695333D01*
X119022667Y-38742952D01*
X119070286Y-38790571D01*
X119117905Y-38885810D01*
X119117905Y-39123905D01*
X119070286Y-39219143D01*
X119022667Y-39266762D01*
X118927429Y-39314381D01*
X118641714Y-39314381D01*
X118546476Y-39266762D01*
X118498857Y-39219143D01*
X108370762Y-50236381D02*
X108037428Y-49760190D01*
X107799333Y-50236381D02*
X107799333Y-49236381D01*
X108180286Y-49236381D01*
X108275524Y-49284000D01*
X108323143Y-49331619D01*
X108370762Y-49426857D01*
X108370762Y-49569714D01*
X108323143Y-49664952D01*
X108275524Y-49712571D01*
X108180286Y-49760190D01*
X107799333Y-49760190D01*
X108656476Y-49236381D02*
X108989809Y-50236381D01*
X109323143Y-49236381D01*
X110180286Y-50236381D02*
X109608857Y-50236381D01*
X109894571Y-50236381D02*
X109894571Y-49236381D01*
X109799333Y-49379238D01*
X109704095Y-49474476D01*
X109608857Y-49522095D01*
X186790381Y-155447905D02*
X187599905Y-155447905D01*
X187695143Y-155400286D01*
X187742762Y-155352667D01*
X187790381Y-155257429D01*
X187790381Y-155066952D01*
X187742762Y-154971714D01*
X187695143Y-154924095D01*
X187599905Y-154876476D01*
X186790381Y-154876476D01*
X187790381Y-153876476D02*
X187790381Y-154447905D01*
X187790381Y-154162191D02*
X186790381Y-154162191D01*
X186933238Y-154257429D01*
X187028476Y-154352667D01*
X187076095Y-154447905D01*
X146812095Y-84288381D02*
X146812095Y-85097905D01*
X146859714Y-85193143D01*
X146907333Y-85240762D01*
X147002571Y-85288381D01*
X147193048Y-85288381D01*
X147288286Y-85240762D01*
X147335905Y-85193143D01*
X147383524Y-85097905D01*
X147383524Y-84288381D01*
X147812095Y-84383619D02*
X147859714Y-84336000D01*
X147954952Y-84288381D01*
X148193048Y-84288381D01*
X148288286Y-84336000D01*
X148335905Y-84383619D01*
X148383524Y-84478857D01*
X148383524Y-84574095D01*
X148335905Y-84716952D01*
X147764476Y-85288381D01*
X148383524Y-85288381D01*
X142017715Y-93670381D02*
X141446286Y-93670381D01*
X141732000Y-93670381D02*
X141732000Y-92670381D01*
X141636762Y-92813238D01*
X141541524Y-92908476D01*
X141446286Y-92956095D01*
X122388381Y-133857905D02*
X123197905Y-133857905D01*
X123293143Y-133810286D01*
X123340762Y-133762667D01*
X123388381Y-133667429D01*
X123388381Y-133476952D01*
X123340762Y-133381714D01*
X123293143Y-133334095D01*
X123197905Y-133286476D01*
X122388381Y-133286476D01*
X122388381Y-132905524D02*
X122388381Y-132286476D01*
X122769333Y-132619810D01*
X122769333Y-132476952D01*
X122816952Y-132381714D01*
X122864571Y-132334095D01*
X122959810Y-132286476D01*
X123197905Y-132286476D01*
X123293143Y-132334095D01*
X123340762Y-132381714D01*
X123388381Y-132476952D01*
X123388381Y-132762667D01*
X123340762Y-132857905D01*
X123293143Y-132905524D01*
X131770381Y-138652285D02*
X131770381Y-139223714D01*
X131770381Y-138938000D02*
X130770381Y-138938000D01*
X130913238Y-139033238D01*
X131008476Y-139128476D01*
X131056095Y-139223714D01*
X155548381Y-104901905D02*
X156357905Y-104901905D01*
X156453143Y-104854286D01*
X156500762Y-104806667D01*
X156548381Y-104711429D01*
X156548381Y-104520952D01*
X156500762Y-104425714D01*
X156453143Y-104378095D01*
X156357905Y-104330476D01*
X155548381Y-104330476D01*
X155881714Y-103425714D02*
X156548381Y-103425714D01*
X155500762Y-103663810D02*
X156215048Y-103901905D01*
X156215048Y-103282857D01*
X126492095Y-84288381D02*
X126492095Y-85097905D01*
X126539714Y-85193143D01*
X126587333Y-85240762D01*
X126682571Y-85288381D01*
X126873048Y-85288381D01*
X126968286Y-85240762D01*
X127015905Y-85193143D01*
X127063524Y-85097905D01*
X127063524Y-84288381D01*
X127968286Y-84288381D02*
X127777809Y-84288381D01*
X127682571Y-84336000D01*
X127634952Y-84383619D01*
X127539714Y-84526476D01*
X127492095Y-84716952D01*
X127492095Y-85097905D01*
X127539714Y-85193143D01*
X127587333Y-85240762D01*
X127682571Y-85288381D01*
X127873048Y-85288381D01*
X127968286Y-85240762D01*
X128015905Y-85193143D01*
X128063524Y-85097905D01*
X128063524Y-84859810D01*
X128015905Y-84764571D01*
X127968286Y-84716952D01*
X127873048Y-84669333D01*
X127682571Y-84669333D01*
X127587333Y-84716952D01*
X127539714Y-84764571D01*
X127492095Y-84859810D01*
X121697715Y-93670381D02*
X121126286Y-93670381D01*
X121412000Y-93670381D02*
X121412000Y-92670381D01*
X121316762Y-92813238D01*
X121221524Y-92908476D01*
X121126286Y-92956095D01*
X122388381Y-154177905D02*
X123197905Y-154177905D01*
X123293143Y-154130286D01*
X123340762Y-154082667D01*
X123388381Y-153987429D01*
X123388381Y-153796952D01*
X123340762Y-153701714D01*
X123293143Y-153654095D01*
X123197905Y-153606476D01*
X122388381Y-153606476D01*
X122388381Y-153225524D02*
X122388381Y-152558857D01*
X123388381Y-152987429D01*
X131770381Y-158972285D02*
X131770381Y-159543714D01*
X131770381Y-159258000D02*
X130770381Y-159258000D01*
X130913238Y-159353238D01*
X131008476Y-159448476D01*
X131056095Y-159543714D01*
X136975905Y-106781524D02*
X137623524Y-106781524D01*
X137699714Y-106743429D01*
X137737810Y-106705333D01*
X137775905Y-106629143D01*
X137775905Y-106476762D01*
X137737810Y-106400571D01*
X137699714Y-106362476D01*
X137623524Y-106324381D01*
X136975905Y-106324381D01*
X137318762Y-105829143D02*
X137280667Y-105905334D01*
X137242571Y-105943429D01*
X137166381Y-105981524D01*
X137128286Y-105981524D01*
X137052095Y-105943429D01*
X137014000Y-105905334D01*
X136975905Y-105829143D01*
X136975905Y-105676762D01*
X137014000Y-105600572D01*
X137052095Y-105562476D01*
X137128286Y-105524381D01*
X137166381Y-105524381D01*
X137242571Y-105562476D01*
X137280667Y-105600572D01*
X137318762Y-105676762D01*
X137318762Y-105829143D01*
X137356857Y-105905334D01*
X137394952Y-105943429D01*
X137471143Y-105981524D01*
X137623524Y-105981524D01*
X137699714Y-105943429D01*
X137737810Y-105905334D01*
X137775905Y-105829143D01*
X137775905Y-105676762D01*
X137737810Y-105600572D01*
X137699714Y-105562476D01*
X137623524Y-105524381D01*
X137471143Y-105524381D01*
X137394952Y-105562476D01*
X137356857Y-105600572D01*
X137318762Y-105676762D01*
X147980476Y-149421905D02*
X147980476Y-150069524D01*
X148018571Y-150145714D01*
X148056667Y-150183810D01*
X148132857Y-150221905D01*
X148285238Y-150221905D01*
X148361429Y-150183810D01*
X148399524Y-150145714D01*
X148437619Y-150069524D01*
X148437619Y-149421905D01*
X148856666Y-150221905D02*
X149009047Y-150221905D01*
X149085238Y-150183810D01*
X149123333Y-150145714D01*
X149199524Y-150031429D01*
X149237619Y-149879048D01*
X149237619Y-149574286D01*
X149199524Y-149498095D01*
X149161428Y-149460000D01*
X149085238Y-149421905D01*
X148932857Y-149421905D01*
X148856666Y-149460000D01*
X148818571Y-149498095D01*
X148780476Y-149574286D01*
X148780476Y-149764762D01*
X148818571Y-149840952D01*
X148856666Y-149879048D01*
X148932857Y-149917143D01*
X149085238Y-149917143D01*
X149161428Y-149879048D01*
X149199524Y-149840952D01*
X149237619Y-149764762D01*
X102647905Y-28154381D02*
X102647905Y-28963905D01*
X102695524Y-29059143D01*
X102743143Y-29106762D01*
X102838381Y-29154381D01*
X103028858Y-29154381D01*
X103124096Y-29106762D01*
X103171715Y-29059143D01*
X103219334Y-28963905D01*
X103219334Y-28154381D01*
X104219334Y-29154381D02*
X103647905Y-29154381D01*
X103933619Y-29154381D02*
X103933619Y-28154381D01*
X103838381Y-28297238D01*
X103743143Y-28392476D01*
X103647905Y-28440095D01*
X104838381Y-28154381D02*
X104933620Y-28154381D01*
X105028858Y-28202000D01*
X105076477Y-28249619D01*
X105124096Y-28344857D01*
X105171715Y-28535333D01*
X105171715Y-28773429D01*
X105124096Y-28963905D01*
X105076477Y-29059143D01*
X105028858Y-29106762D01*
X104933620Y-29154381D01*
X104838381Y-29154381D01*
X104743143Y-29106762D01*
X104695524Y-29059143D01*
X104647905Y-28963905D01*
X104600286Y-28773429D01*
X104600286Y-28535333D01*
X104647905Y-28344857D01*
X104695524Y-28249619D01*
X104743143Y-28202000D01*
X104838381Y-28154381D01*
X158008381Y-109950095D02*
X158817905Y-109950095D01*
X158913143Y-109902476D01*
X158960762Y-109854857D01*
X159008381Y-109759619D01*
X159008381Y-109569142D01*
X158960762Y-109473904D01*
X158913143Y-109426285D01*
X158817905Y-109378666D01*
X158008381Y-109378666D01*
X159008381Y-108378666D02*
X159008381Y-108950095D01*
X159008381Y-108664381D02*
X158008381Y-108664381D01*
X158151238Y-108759619D01*
X158246476Y-108854857D01*
X158294095Y-108950095D01*
X158008381Y-107521523D02*
X158008381Y-107712000D01*
X158056000Y-107807238D01*
X158103619Y-107854857D01*
X158246476Y-107950095D01*
X158436952Y-107997714D01*
X158817905Y-107997714D01*
X158913143Y-107950095D01*
X158960762Y-107902476D01*
X159008381Y-107807238D01*
X159008381Y-107616761D01*
X158960762Y-107521523D01*
X158913143Y-107473904D01*
X158817905Y-107426285D01*
X158579810Y-107426285D01*
X158484571Y-107473904D01*
X158436952Y-107521523D01*
X158389333Y-107616761D01*
X158389333Y-107807238D01*
X158436952Y-107902476D01*
X158484571Y-107950095D01*
X158579810Y-107997714D01*
X138898381Y-109442095D02*
X139707905Y-109442095D01*
X139803143Y-109394476D01*
X139850762Y-109346857D01*
X139898381Y-109251619D01*
X139898381Y-109061142D01*
X139850762Y-108965904D01*
X139803143Y-108918285D01*
X139707905Y-108870666D01*
X138898381Y-108870666D01*
X139898381Y-107870666D02*
X139898381Y-108442095D01*
X139898381Y-108156381D02*
X138898381Y-108156381D01*
X139041238Y-108251619D01*
X139136476Y-108346857D01*
X139184095Y-108442095D01*
X138898381Y-107537333D02*
X138898381Y-106870666D01*
X139898381Y-107299238D01*
X152933524Y-145103905D02*
X152933524Y-145751524D01*
X152971619Y-145827714D01*
X153009715Y-145865810D01*
X153085905Y-145903905D01*
X153238286Y-145903905D01*
X153314477Y-145865810D01*
X153352572Y-145827714D01*
X153390667Y-145751524D01*
X153390667Y-145103905D01*
X154190667Y-145903905D02*
X153733524Y-145903905D01*
X153962095Y-145903905D02*
X153962095Y-145103905D01*
X153885905Y-145218190D01*
X153809714Y-145294381D01*
X153733524Y-145332476D01*
X154571619Y-145903905D02*
X154724000Y-145903905D01*
X154800191Y-145865810D01*
X154838286Y-145827714D01*
X154914477Y-145713429D01*
X154952572Y-145561048D01*
X154952572Y-145256286D01*
X154914477Y-145180095D01*
X154876381Y-145142000D01*
X154800191Y-145103905D01*
X154647810Y-145103905D01*
X154571619Y-145142000D01*
X154533524Y-145180095D01*
X154495429Y-145256286D01*
X154495429Y-145446762D01*
X154533524Y-145522952D01*
X154571619Y-145561048D01*
X154647810Y-145599143D01*
X154800191Y-145599143D01*
X154876381Y-145561048D01*
X154914477Y-145522952D01*
X154952572Y-145446762D01*
X119245143Y-124912381D02*
X118911809Y-124436190D01*
X118673714Y-124912381D02*
X118673714Y-123912381D01*
X119054667Y-123912381D01*
X119149905Y-123960000D01*
X119197524Y-124007619D01*
X119245143Y-124102857D01*
X119245143Y-124245714D01*
X119197524Y-124340952D01*
X119149905Y-124388571D01*
X119054667Y-124436190D01*
X118673714Y-124436190D01*
X120197524Y-124912381D02*
X119626095Y-124912381D01*
X119911809Y-124912381D02*
X119911809Y-123912381D01*
X119816571Y-124055238D01*
X119721333Y-124150476D01*
X119626095Y-124198095D01*
X121054667Y-124245714D02*
X121054667Y-124912381D01*
X120816571Y-123864762D02*
X120578476Y-124579048D01*
X121197524Y-124579048D01*
X92666667Y-144404381D02*
X92333333Y-143928190D01*
X92095238Y-144404381D02*
X92095238Y-143404381D01*
X92476191Y-143404381D01*
X92571429Y-143452000D01*
X92619048Y-143499619D01*
X92666667Y-143594857D01*
X92666667Y-143737714D01*
X92619048Y-143832952D01*
X92571429Y-143880571D01*
X92476191Y-143928190D01*
X92095238Y-143928190D01*
X93095238Y-143880571D02*
X93428572Y-143880571D01*
X93571429Y-144404381D02*
X93095238Y-144404381D01*
X93095238Y-143404381D01*
X93571429Y-143404381D01*
X94333334Y-143880571D02*
X94000000Y-143880571D01*
X94000000Y-144404381D02*
X94000000Y-143404381D01*
X94476191Y-143404381D01*
X95000000Y-143404381D02*
X95000000Y-143642476D01*
X94761905Y-143547238D02*
X95000000Y-143642476D01*
X95238096Y-143547238D01*
X94857143Y-143832952D02*
X95000000Y-143642476D01*
X95142858Y-143832952D01*
X95761905Y-143404381D02*
X95761905Y-143642476D01*
X95523810Y-143547238D02*
X95761905Y-143642476D01*
X96000001Y-143547238D01*
X95619048Y-143832952D02*
X95761905Y-143642476D01*
X95904763Y-143832952D01*
X92666667Y-32404381D02*
X92333333Y-31928190D01*
X92095238Y-32404381D02*
X92095238Y-31404381D01*
X92476191Y-31404381D01*
X92571429Y-31452000D01*
X92619048Y-31499619D01*
X92666667Y-31594857D01*
X92666667Y-31737714D01*
X92619048Y-31832952D01*
X92571429Y-31880571D01*
X92476191Y-31928190D01*
X92095238Y-31928190D01*
X93095238Y-31880571D02*
X93428572Y-31880571D01*
X93571429Y-32404381D02*
X93095238Y-32404381D01*
X93095238Y-31404381D01*
X93571429Y-31404381D01*
X94333334Y-31880571D02*
X94000000Y-31880571D01*
X94000000Y-32404381D02*
X94000000Y-31404381D01*
X94476191Y-31404381D01*
X95000000Y-31404381D02*
X95000000Y-31642476D01*
X94761905Y-31547238D02*
X95000000Y-31642476D01*
X95238096Y-31547238D01*
X94857143Y-31832952D02*
X95000000Y-31642476D01*
X95142858Y-31832952D01*
X95761905Y-31404381D02*
X95761905Y-31642476D01*
X95523810Y-31547238D02*
X95761905Y-31642476D01*
X96000001Y-31547238D01*
X95619048Y-31832952D02*
X95761905Y-31642476D01*
X95904763Y-31832952D01*
X234166667Y-144404381D02*
X233833333Y-143928190D01*
X233595238Y-144404381D02*
X233595238Y-143404381D01*
X233976191Y-143404381D01*
X234071429Y-143452000D01*
X234119048Y-143499619D01*
X234166667Y-143594857D01*
X234166667Y-143737714D01*
X234119048Y-143832952D01*
X234071429Y-143880571D01*
X233976191Y-143928190D01*
X233595238Y-143928190D01*
X234595238Y-143880571D02*
X234928572Y-143880571D01*
X235071429Y-144404381D02*
X234595238Y-144404381D01*
X234595238Y-143404381D01*
X235071429Y-143404381D01*
X235833334Y-143880571D02*
X235500000Y-143880571D01*
X235500000Y-144404381D02*
X235500000Y-143404381D01*
X235976191Y-143404381D01*
X236500000Y-143404381D02*
X236500000Y-143642476D01*
X236261905Y-143547238D02*
X236500000Y-143642476D01*
X236738096Y-143547238D01*
X236357143Y-143832952D02*
X236500000Y-143642476D01*
X236642858Y-143832952D01*
X237261905Y-143404381D02*
X237261905Y-143642476D01*
X237023810Y-143547238D02*
X237261905Y-143642476D01*
X237500001Y-143547238D01*
X237119048Y-143832952D02*
X237261905Y-143642476D01*
X237404763Y-143832952D01*
X234166667Y-32404381D02*
X233833333Y-31928190D01*
X233595238Y-32404381D02*
X233595238Y-31404381D01*
X233976191Y-31404381D01*
X234071429Y-31452000D01*
X234119048Y-31499619D01*
X234166667Y-31594857D01*
X234166667Y-31737714D01*
X234119048Y-31832952D01*
X234071429Y-31880571D01*
X233976191Y-31928190D01*
X233595238Y-31928190D01*
X234595238Y-31880571D02*
X234928572Y-31880571D01*
X235071429Y-32404381D02*
X234595238Y-32404381D01*
X234595238Y-31404381D01*
X235071429Y-31404381D01*
X235833334Y-31880571D02*
X235500000Y-31880571D01*
X235500000Y-32404381D02*
X235500000Y-31404381D01*
X235976191Y-31404381D01*
X236500000Y-31404381D02*
X236500000Y-31642476D01*
X236261905Y-31547238D02*
X236500000Y-31642476D01*
X236738096Y-31547238D01*
X236357143Y-31832952D02*
X236500000Y-31642476D01*
X236642858Y-31832952D01*
X237261905Y-31404381D02*
X237261905Y-31642476D01*
X237023810Y-31547238D02*
X237261905Y-31642476D01*
X237500001Y-31547238D01*
X237119048Y-31832952D02*
X237261905Y-31642476D01*
X237404763Y-31832952D01*
M02*
