G04 #@! TF.FileFunction,Soldermask,Top*
%FSLAX46Y46*%
G04 Gerber Fmt 4.6, Leading zero omitted, Abs format (unit mm)*
G04 Created by KiCad (PCBNEW 4.0.1-stable) date Monday, February 22, 2016 'PMt' 07:07:20 PM*
%MOMM*%
G01*
G04 APERTURE LIST*
%ADD10C,0.100000*%
%ADD11R,1.800000X0.700000*%
%ADD12O,2.000000X2.000000*%
%ADD13C,1.924000*%
%ADD14O,2.800000X1.924000*%
%ADD15O,2.940000X1.924000*%
%ADD16C,2.900000*%
%ADD17C,3.400000*%
%ADD18R,1.924000X1.924000*%
%ADD19R,1.800000X1.800000*%
%ADD20C,1.800000*%
%ADD21R,2.400000X2.000000*%
%ADD22R,2.000000X2.400000*%
%ADD23R,1.700000X1.700000*%
%ADD24C,1.700000*%
%ADD25C,2.749500*%
%ADD26R,2.300000X2.400000*%
%ADD27C,2.300000*%
%ADD28R,2.127200X2.432000*%
%ADD29O,2.127200X2.432000*%
%ADD30R,2.432000X2.127200*%
%ADD31O,2.432000X2.127200*%
%ADD32R,2.400000X2.100000*%
%ADD33R,2.100000X2.400000*%
%ADD34C,2.398980*%
%ADD35O,2.200860X2.899360*%
%ADD36C,4.199840*%
%ADD37O,2.899360X2.200860*%
%ADD38O,1.901140X2.899360*%
%ADD39R,0.700000X1.800000*%
%ADD40C,4.464000*%
G04 APERTURE END LIST*
D10*
D11*
X147406000Y-120158000D03*
X147406000Y-120658000D03*
X147406000Y-121158000D03*
X147406000Y-121658000D03*
X147406000Y-122158000D03*
X151806000Y-122158000D03*
X151806000Y-121658000D03*
X151806000Y-121158000D03*
X151806000Y-120658000D03*
X151806000Y-120158000D03*
D12*
X144780000Y-126492000D03*
X144780000Y-129032000D03*
X144780000Y-131572000D03*
X144780000Y-134112000D03*
X144780000Y-136652000D03*
X152400000Y-136652000D03*
X152400000Y-134112000D03*
X152400000Y-131572000D03*
X152400000Y-129032000D03*
X152400000Y-126492000D03*
D13*
X172198000Y-111906000D03*
X172198000Y-101746000D03*
X172198000Y-99206000D03*
X169658000Y-99206000D03*
X169658000Y-101746000D03*
X169658000Y-91586000D03*
X169658000Y-89046000D03*
X172198000Y-91586000D03*
X172198000Y-89046000D03*
X172198000Y-94126000D03*
X172198000Y-96666000D03*
X169658000Y-94126000D03*
X169658000Y-96666000D03*
X169658000Y-106826000D03*
X169658000Y-104286000D03*
X169658000Y-109366000D03*
X169658000Y-111906000D03*
X172198000Y-109366000D03*
X169658000Y-119526000D03*
X172198000Y-119526000D03*
X169658000Y-122066000D03*
X172198000Y-122066000D03*
X169658000Y-124606000D03*
X172198000Y-124606000D03*
X169658000Y-134766000D03*
X172198000Y-134766000D03*
X169658000Y-137306000D03*
X172198000Y-137306000D03*
X200138000Y-143656000D03*
X202678000Y-143656000D03*
X205218000Y-143656000D03*
X207758000Y-143656000D03*
X210298000Y-143656000D03*
X212838000Y-143656000D03*
X215378000Y-143656000D03*
X217918000Y-143656000D03*
X220458000Y-143656000D03*
X222998000Y-143656000D03*
X229348000Y-137306000D03*
X226808000Y-137306000D03*
X229348000Y-134766000D03*
X226808000Y-134766000D03*
X229348000Y-132226000D03*
X226808000Y-132226000D03*
X229348000Y-129686000D03*
X226808000Y-129686000D03*
X229348000Y-127146000D03*
X226808000Y-127146000D03*
X229348000Y-124606000D03*
X226808000Y-124606000D03*
X229348000Y-122066000D03*
X226808000Y-122066000D03*
X229348000Y-119526000D03*
X226808000Y-119526000D03*
X229348000Y-116986000D03*
X226808000Y-116986000D03*
X229348000Y-114446000D03*
X226808000Y-114446000D03*
X229348000Y-111906000D03*
X226808000Y-111906000D03*
X229348000Y-109366000D03*
X226808000Y-109366000D03*
X229348000Y-106826000D03*
X226808000Y-106826000D03*
X229348000Y-104286000D03*
X226808000Y-104286000D03*
X229348000Y-101746000D03*
X226808000Y-101746000D03*
X229348000Y-99206000D03*
X226808000Y-99206000D03*
X229348000Y-96666000D03*
X226808000Y-96666000D03*
X229348000Y-94126000D03*
X226808000Y-94126000D03*
X229348000Y-91586000D03*
X226808000Y-91586000D03*
X229348000Y-89046000D03*
X226808000Y-89046000D03*
X197598000Y-143656000D03*
X195058000Y-143656000D03*
X192518000Y-143656000D03*
X189978000Y-143656000D03*
X187438000Y-143656000D03*
X184898000Y-143656000D03*
X182358000Y-143656000D03*
X179818000Y-143656000D03*
X177278000Y-143656000D03*
X174738000Y-143656000D03*
X222998000Y-141116000D03*
X220458000Y-141116000D03*
X217918000Y-141116000D03*
X215378000Y-141116000D03*
X212838000Y-141116000D03*
X210298000Y-141116000D03*
X207758000Y-141116000D03*
X205218000Y-141116000D03*
X202678000Y-141116000D03*
X200138000Y-141116000D03*
X197598000Y-141116000D03*
X195058000Y-141116000D03*
X192518000Y-141116000D03*
X189978000Y-141116000D03*
X187438000Y-141116000D03*
X184898000Y-141116000D03*
X182358000Y-141116000D03*
X179818000Y-141116000D03*
X177278000Y-141116000D03*
X174738000Y-141116000D03*
X172198000Y-132226000D03*
X169658000Y-132226000D03*
X172198000Y-129686000D03*
X169658000Y-129686000D03*
X172198000Y-127146000D03*
X169658000Y-127146000D03*
X172198000Y-116986000D03*
X172198000Y-114446000D03*
X169658000Y-116986000D03*
X169658000Y-114446000D03*
X172198000Y-106826000D03*
X172198000Y-104286000D03*
D14*
X223760000Y-105048000D03*
X223760000Y-107588000D03*
X223760000Y-110128000D03*
X223760000Y-112668000D03*
X223760000Y-115208000D03*
X223760000Y-117748000D03*
X223760000Y-120288000D03*
X223760000Y-122828000D03*
X175500000Y-127908000D03*
X175500000Y-125368000D03*
X175500000Y-122828000D03*
X175500000Y-120288000D03*
X175500000Y-110128000D03*
X175500000Y-105048000D03*
X175500000Y-102508000D03*
X175500000Y-112668000D03*
X175500000Y-115208000D03*
X175500000Y-117748000D03*
X175500000Y-99968000D03*
X175500000Y-97428000D03*
X175500000Y-94888000D03*
X175500000Y-87268000D03*
X175500000Y-89808000D03*
X175500000Y-92348000D03*
D15*
X175500000Y-82188000D03*
X175500000Y-79648000D03*
X175500000Y-77108000D03*
X175500000Y-72028000D03*
X175500000Y-69488000D03*
D14*
X223760000Y-99968000D03*
X223760000Y-97428000D03*
X223760000Y-94888000D03*
X223760000Y-92348000D03*
X223760000Y-89808000D03*
X223760000Y-87268000D03*
X223760000Y-84728000D03*
X223760000Y-82188000D03*
X223760000Y-78124000D03*
X223760000Y-75584000D03*
X223760000Y-73044000D03*
X223760000Y-70504000D03*
X223760000Y-67964000D03*
X223760000Y-65424000D03*
X223760000Y-62884000D03*
X223760000Y-60344000D03*
D15*
X175500000Y-74568000D03*
D16*
X175500000Y-132988000D03*
X223760000Y-126638000D03*
X223760000Y-51708000D03*
X175500000Y-50438000D03*
D13*
X221220000Y-130448000D03*
X221220000Y-132988000D03*
X218680000Y-130448000D03*
X218680000Y-132988000D03*
X216140000Y-130448000D03*
X216140000Y-132988000D03*
X213600000Y-130448000D03*
X213600000Y-132988000D03*
X223760000Y-130448000D03*
X223760000Y-132988000D03*
X211060000Y-132988000D03*
X211060000Y-130448000D03*
X208520000Y-130448000D03*
X208520000Y-132988000D03*
X205980000Y-130448000D03*
X205980000Y-132988000D03*
X203440000Y-130448000D03*
X203440000Y-132988000D03*
X200900000Y-130448000D03*
X200900000Y-132988000D03*
X198360000Y-130448000D03*
X198360000Y-132988000D03*
X195820000Y-130448000D03*
X195820000Y-132988000D03*
X193280000Y-130448000D03*
X193280000Y-132988000D03*
X190740000Y-130448000D03*
X190740000Y-132988000D03*
X188200000Y-130448000D03*
X188200000Y-132988000D03*
X185660000Y-130448000D03*
X185660000Y-132988000D03*
X183120000Y-130448000D03*
X183120000Y-132988000D03*
X180580000Y-130448000D03*
X180580000Y-132988000D03*
X199136000Y-156210000D03*
X201676000Y-156210000D03*
X199136000Y-161290000D03*
X201676000Y-161290000D03*
X209296000Y-161290000D03*
X209296000Y-156210000D03*
X221234000Y-156210000D03*
X223774000Y-156210000D03*
X221234000Y-161290000D03*
X223774000Y-161290000D03*
X231394000Y-161290000D03*
X231394000Y-156210000D03*
D17*
X75206000Y-17840000D03*
X80794000Y-17840000D03*
X85620000Y-28000000D03*
X83080000Y-30540000D03*
X78000000Y-28000000D03*
X72920000Y-30540000D03*
X70380000Y-28000000D03*
D18*
X233172000Y-137287000D03*
D13*
X233172000Y-134747000D03*
X233172000Y-132207000D03*
X233172000Y-129667000D03*
X233172000Y-127127000D03*
X233172000Y-124587000D03*
X233172000Y-122047000D03*
X233172000Y-119507000D03*
X233172000Y-116967000D03*
X233172000Y-114427000D03*
X233172000Y-111887000D03*
X233172000Y-109347000D03*
X233172000Y-106807000D03*
X233172000Y-104267000D03*
X233172000Y-101727000D03*
X233172000Y-99187000D03*
X233172000Y-96647000D03*
X233172000Y-94107000D03*
X233172000Y-91567000D03*
X233172000Y-89027000D03*
D18*
X235712000Y-137287000D03*
D13*
X235712000Y-134747000D03*
X235712000Y-132207000D03*
X235712000Y-129667000D03*
X235712000Y-127127000D03*
X235712000Y-124587000D03*
X235712000Y-122047000D03*
X235712000Y-119507000D03*
X235712000Y-116967000D03*
X235712000Y-114427000D03*
X235712000Y-111887000D03*
X235712000Y-109347000D03*
X235712000Y-106807000D03*
X235712000Y-104267000D03*
X235712000Y-101727000D03*
X235712000Y-99187000D03*
X235712000Y-96647000D03*
X235712000Y-94107000D03*
X235712000Y-91567000D03*
X235712000Y-89027000D03*
D19*
X193802000Y-156464000D03*
D20*
X193802000Y-161464000D03*
D19*
X215646000Y-156464000D03*
D20*
X215646000Y-161464000D03*
D21*
X122206000Y-140462000D03*
X126206000Y-140462000D03*
D22*
X158242000Y-100552000D03*
X158242000Y-96552000D03*
D21*
X135922000Y-139446000D03*
X139922000Y-139446000D03*
D22*
X155194000Y-100552000D03*
X155194000Y-96552000D03*
D21*
X135922000Y-142240000D03*
X139922000Y-142240000D03*
X143224000Y-100838000D03*
X139224000Y-100838000D03*
X143034000Y-140716000D03*
X147034000Y-140716000D03*
D23*
X142240000Y-67310000D03*
D24*
X142240000Y-69810000D03*
D21*
X129572000Y-124460000D03*
X133572000Y-124460000D03*
X122206000Y-160782000D03*
X126206000Y-160782000D03*
D22*
X136398000Y-100552000D03*
X136398000Y-96552000D03*
D21*
X136430000Y-160020000D03*
X140430000Y-160020000D03*
D22*
X133350000Y-100552000D03*
X133350000Y-96552000D03*
D21*
X136430000Y-163068000D03*
X140430000Y-163068000D03*
X122650000Y-100838000D03*
X118650000Y-100838000D03*
D22*
X155956000Y-159036000D03*
X155956000Y-163036000D03*
D21*
X129572000Y-145288000D03*
X133572000Y-145288000D03*
D23*
X116000000Y-23000000D03*
D24*
X113500000Y-23000000D03*
D23*
X116000000Y-31000000D03*
D24*
X113500000Y-31000000D03*
D23*
X152400000Y-67310000D03*
D24*
X152400000Y-69810000D03*
D23*
X121920000Y-67310000D03*
D24*
X121920000Y-69810000D03*
D23*
X132080000Y-67310000D03*
D24*
X132080000Y-69810000D03*
D25*
X74998740Y-65000000D03*
X70000020Y-65000000D03*
X85001260Y-65000000D03*
X89999980Y-65000000D03*
X74998740Y-85000000D03*
X70000020Y-85000000D03*
X85001260Y-85000000D03*
X89999980Y-85000000D03*
X74998740Y-45000000D03*
X70000020Y-45000000D03*
X85001260Y-45000000D03*
X89999980Y-45000000D03*
D26*
X220980000Y-20320000D03*
D27*
X223520000Y-20320000D03*
D26*
X200660000Y-20320000D03*
D27*
X203200000Y-20320000D03*
D26*
X210820000Y-20320000D03*
D27*
X213360000Y-20320000D03*
D28*
X170180000Y-33020000D03*
D29*
X172720000Y-33020000D03*
X175260000Y-33020000D03*
X177800000Y-33020000D03*
X180340000Y-33020000D03*
X182880000Y-33020000D03*
X185420000Y-33020000D03*
X187960000Y-33020000D03*
D28*
X167640000Y-40640000D03*
D29*
X170180000Y-40640000D03*
X172720000Y-40640000D03*
X175260000Y-40640000D03*
X177800000Y-40640000D03*
X180340000Y-40640000D03*
X182880000Y-40640000D03*
X185420000Y-40640000D03*
X187960000Y-40640000D03*
X190500000Y-40640000D03*
D30*
X164084000Y-118364000D03*
D31*
X164084000Y-120904000D03*
X164084000Y-123444000D03*
D28*
X220980000Y-30480000D03*
D29*
X223520000Y-30480000D03*
X226060000Y-30480000D03*
D28*
X169926000Y-147066000D03*
D29*
X167386000Y-147066000D03*
X164846000Y-147066000D03*
D28*
X169926000Y-143256000D03*
D29*
X167386000Y-143256000D03*
X164846000Y-143256000D03*
D28*
X172720000Y-45212000D03*
D29*
X175260000Y-45212000D03*
X177800000Y-45212000D03*
D32*
X164052000Y-127254000D03*
X160052000Y-127254000D03*
X164052000Y-129794000D03*
X160052000Y-129794000D03*
X164052000Y-132334000D03*
X160052000Y-132334000D03*
X164052000Y-134874000D03*
X160052000Y-134874000D03*
X155734000Y-117602000D03*
X159734000Y-117602000D03*
X155734000Y-115062000D03*
X159734000Y-115062000D03*
X199168000Y-25908000D03*
X203168000Y-25908000D03*
X199168000Y-28956000D03*
X203168000Y-28956000D03*
D33*
X155194000Y-84106000D03*
X155194000Y-88106000D03*
D32*
X131794000Y-115570000D03*
X127794000Y-115570000D03*
X129254000Y-118618000D03*
X125254000Y-118618000D03*
D33*
X134874000Y-84106000D03*
X134874000Y-88106000D03*
D32*
X172498000Y-151130000D03*
X176498000Y-151130000D03*
X186150000Y-151130000D03*
X182150000Y-151130000D03*
D34*
X195326000Y-152654000D03*
X205486000Y-152654000D03*
X217424000Y-152654000D03*
X227584000Y-152654000D03*
X125222000Y-145288000D03*
X115062000Y-145288000D03*
X123080000Y-39000000D03*
X112920000Y-39000000D03*
D13*
X111460000Y-46000000D03*
X108920000Y-46000000D03*
X114000000Y-46000000D03*
D12*
X182118000Y-154686000D03*
X179578000Y-154686000D03*
X177038000Y-154686000D03*
X174498000Y-154686000D03*
X171958000Y-154686000D03*
X169418000Y-154686000D03*
X166878000Y-154686000D03*
X164338000Y-154686000D03*
X161798000Y-154686000D03*
X161798000Y-162306000D03*
X164338000Y-162306000D03*
X166878000Y-162306000D03*
X169418000Y-162306000D03*
X171958000Y-162306000D03*
X174498000Y-162306000D03*
X177038000Y-162306000D03*
X179578000Y-162306000D03*
X182118000Y-162306000D03*
D35*
X147320000Y-95379540D03*
X143918940Y-95379540D03*
X150721060Y-95379540D03*
D36*
X147320000Y-77216000D03*
D35*
X145620740Y-91879420D03*
X149019260Y-91879420D03*
D37*
X133479540Y-133350000D03*
X133479540Y-136751060D03*
X133479540Y-129948940D03*
D36*
X115316000Y-133350000D03*
D37*
X129979420Y-135049260D03*
X129979420Y-131650740D03*
D12*
X150876000Y-104140000D03*
X148336000Y-104140000D03*
X145796000Y-104140000D03*
X143256000Y-104140000D03*
X140716000Y-104140000D03*
X140716000Y-111760000D03*
X143256000Y-111760000D03*
X145796000Y-111760000D03*
X148336000Y-111760000D03*
X150876000Y-111760000D03*
D35*
X127000000Y-95379540D03*
X123598940Y-95379540D03*
X130401060Y-95379540D03*
D36*
X127000000Y-77216000D03*
D35*
X125300740Y-91879420D03*
X128699260Y-91879420D03*
D37*
X133479540Y-153670000D03*
X133479540Y-157071060D03*
X133479540Y-150268940D03*
D36*
X115316000Y-153670000D03*
D37*
X129979420Y-155369260D03*
X129979420Y-151970740D03*
D12*
X130302000Y-104140000D03*
X127762000Y-104140000D03*
X125222000Y-104140000D03*
X122682000Y-104140000D03*
X120142000Y-104140000D03*
X120142000Y-111760000D03*
X122682000Y-111760000D03*
X125222000Y-111760000D03*
X127762000Y-111760000D03*
X130302000Y-111760000D03*
X144780000Y-151130000D03*
X144780000Y-153670000D03*
X144780000Y-156210000D03*
X144780000Y-158750000D03*
X144780000Y-161290000D03*
X152400000Y-161290000D03*
X152400000Y-158750000D03*
X152400000Y-156210000D03*
X152400000Y-153670000D03*
X152400000Y-151130000D03*
D38*
X104000000Y-39000000D03*
X101460000Y-39000000D03*
X106540000Y-39000000D03*
D36*
X104000000Y-22236000D03*
D39*
X156956000Y-106512000D03*
X156456000Y-106512000D03*
X155956000Y-106512000D03*
X155456000Y-106512000D03*
X154956000Y-106512000D03*
X154956000Y-110912000D03*
X155456000Y-110912000D03*
X155956000Y-110912000D03*
X156456000Y-110912000D03*
X156956000Y-110912000D03*
X136382000Y-106512000D03*
X135882000Y-106512000D03*
X135382000Y-106512000D03*
X134882000Y-106512000D03*
X134382000Y-106512000D03*
X134382000Y-110912000D03*
X134882000Y-110912000D03*
X135382000Y-110912000D03*
X135882000Y-110912000D03*
X136382000Y-110912000D03*
D11*
X147152000Y-144542000D03*
X147152000Y-145042000D03*
X147152000Y-145542000D03*
X147152000Y-146042000D03*
X147152000Y-146542000D03*
X151552000Y-146542000D03*
X151552000Y-146042000D03*
X151552000Y-145542000D03*
X151552000Y-145042000D03*
X151552000Y-144542000D03*
D34*
X124968000Y-124460000D03*
X114808000Y-124460000D03*
D40*
X94000000Y-147000000D03*
X94000000Y-35000000D03*
X235500000Y-147000000D03*
X235500000Y-35000000D03*
M02*
