<?xml version="1.0" standalone="no"?>
 <!DOCTYPE svg PUBLIC "-//W3C//DTD SVG 1.1//EN" 
 "http://www.w3.org/Graphics/SVG/1.1/DTD/svg11.dtd"> 
<svg xmlns="http://www.w3.org/2000/svg" version="1.1" 
    width="29.7002cm" height="21.0007cm" viewBox="0 0 116930 82680 ">
<title>SVG Picture created as Capstone_Motherboard-drl_map.svg date 2016/02/22 19:08:02 </title>
  <desc>Picture generated by PCBNEW </desc>
<g style="fill:#000000; fill-opacity:1;stroke:#000000; stroke-opacity:1;
stroke-linecap:round; stroke-linejoin:round; "
 transform="translate(0 0) scale(1 1)">
</g>
<g style="fill:#000000; fill-opacity:0.0; 
stroke:#000000; stroke-width:-0.000393701; stroke-opacity:1; 
stroke-linecap:round; stroke-linejoin:round;">
</g>
<g style="fill:#000000; fill-opacity:0.0; 
stroke:#000000; stroke-width:59.0551; stroke-opacity:1; 
stroke-linecap:round; stroke-linejoin:round;">
<path d="M24000 5000
L24000 65000
" />
<path d="M94000 5000
L24000 5000
" />
<path d="M94000 65000
L94000 5000
" />
<path d="M24000 65000
L94000 65000
" />
</g>
<g style="fill:#000000; fill-opacity:0.0; 
stroke:#000000; stroke-width:78.7402; stroke-opacity:1; 
stroke-linecap:round; stroke-linejoin:round;">
<path d="M53621 61921
L53778 62078
" />
<path d="M53778 61921
L53621 62078
" />
<path d="M56321 57024
L56478 57181
" />
<path d="M56478 57024
L56321 57181
" />
<path d="M56421 60921
L56578 61078
" />
<path d="M56578 60921
L56421 61078
" />
<path d="M56921 56621
L57078 56778
" />
<path d="M57078 56621
L56921 56778
" />
<path d="M57421 42121
L57578 42278
" />
<path d="M57578 42121
L57421 42278
" />
<path d="M58121 42521
L58278 42678
" />
<path d="M58278 42521
L58121 42678
" />
<path d="M58921 38921
L59078 39078
" />
<path d="M59078 38921
L58921 39078
" />
<path d="M59321 49321
L59478 49478
" />
<path d="M59478 49321
L59321 49478
" />
<path d="M59921 56121
L60078 56278
" />
<path d="M60078 56121
L59921 56278
" />
<path d="M60521 46921
L60678 47078
" />
<path d="M60678 46921
L60521 47078
" />
<path d="M60521 48021
L60678 48178
" />
<path d="M60678 48021
L60521 48178
" />
<path d="M60521 49321
L60678 49478
" />
<path d="M60678 49321
L60521 49478
" />
<path d="M60521 50221
L60678 50378
" />
<path d="M60678 50221
L60521 50378
" />
<path d="M60521 56521
L60678 56678
" />
<path d="M60678 56521
L60521 56678
" />
<path d="M60521 57521
L60678 57678
" />
<path d="M60678 57521
L60521 57678
" />
<path d="M61021 40521
L61178 40678
" />
<path d="M61178 40521
L61021 40678
" />
<path d="M61121 56721
L61278 56878
" />
<path d="M61278 56721
L61121 56878
" />
<path d="M61421 37021
L61578 37178
" />
<path d="M61578 37021
L61421 37178
" />
<path d="M61521 60021
L61678 60178
" />
<path d="M61678 60021
L61521 60178
" />
<path d="M61721 49721
L61878 49878
" />
<path d="M61878 49721
L61721 49878
" />
<path d="M62021 54921
L62178 55078
" />
<path d="M62178 54921
L62021 55078
" />
<path d="M62321 41721
L62478 41878
" />
<path d="M62478 41721
L62321 41878
" />
<path d="M62821 34921
L62978 35078
" />
<path d="M62978 34921
L62821 35078
" />
<path d="M62921 44221
L63078 44378
" />
<path d="M63078 44221
L62921 44378
" />
<path d="M63321 35621
L63478 35778
" />
<path d="M63478 35621
L63321 35778
" />
<path d="M63721 32221
L63878 32378
" />
<path d="M63878 32221
L63721 32378
" />
<path d="M64021 44021
L64178 44178
" />
<path d="M64178 44021
L64021 44178
" />
<path d="M64221 55421
L64378 55578
" />
<path d="M64378 55421
L64221 55578
" />
<path d="M64421 41021
L64578 41178
" />
<path d="M64578 41021
L64421 41178
" />
<path d="M65621 21021
L65778 21178
" />
<path d="M65778 21021
L65621 21178
" />
<path d="M65921 42521
L66078 42678
" />
<path d="M66078 42521
L65921 42678
" />
<path d="M66221 21321
L66378 21478
" />
<path d="M66378 21321
L66221 21478
" />
<path d="M66621 55021
L66778 55178
" />
<path d="M66778 55021
L66621 55178
" />
<path d="M67321 55421
L67478 55578
" />
<path d="M67478 55421
L67321 55578
" />
<path d="M67521 20021
L67678 20178
" />
<path d="M67678 20021
L67521 20178
" />
<path d="M70121 59421
L70278 59578
" />
<path d="M70278 59421
L70121 59578
" />
<path d="M70921 59421
L71078 59578
" />
<path d="M71078 59421
L70921 59578
" />
<path d="M73221 61321
L73378 61478
" />
<path d="M73378 61321
L73221 61478
" />
<path d="M77421 10121
L77578 10278
" />
<path d="M77578 10121
L77421 10278
" />
<circle cx="44685" cy="9055.12" r="157.48" /> 
<circle cx="44685" cy="12204.7" r="157.48" /> 
<circle cx="45669.3" cy="9055.12" r="157.48" /> 
<circle cx="45669.3" cy="12204.7" r="157.48" /> 
<circle cx="47300" cy="41000" r="157.48" /> 
<circle cx="47300" cy="44000" r="157.48" /> 
<circle cx="48000" cy="26500" r="157.48" /> 
<circle cx="48000" cy="27484.3" r="157.48" /> 
<circle cx="48300" cy="41000" r="157.48" /> 
<circle cx="48300" cy="44000" r="157.48" /> 
<circle cx="49300" cy="41000" r="157.48" /> 
<circle cx="49300" cy="44000" r="157.48" /> 
<circle cx="50300" cy="41000" r="157.48" /> 
<circle cx="50300" cy="44000" r="157.48" /> 
<circle cx="51300" cy="41000" r="157.48" /> 
<circle cx="51300" cy="44000" r="157.48" /> 
<circle cx="52000" cy="26500" r="157.48" /> 
<circle cx="52000" cy="27484.3" r="157.48" /> 
<circle cx="55400" cy="41000" r="157.48" /> 
<circle cx="55400" cy="44000" r="157.48" /> 
<circle cx="56000" cy="26500" r="157.48" /> 
<circle cx="56000" cy="27484.3" r="157.48" /> 
<circle cx="56400" cy="41000" r="157.48" /> 
<circle cx="56400" cy="44000" r="157.48" /> 
<circle cx="57000" cy="49800" r="157.48" /> 
<circle cx="57000" cy="50800" r="157.48" /> 
<circle cx="57000" cy="51800" r="157.48" /> 
<circle cx="57000" cy="52800" r="157.48" /> 
<circle cx="57000" cy="53800" r="157.48" /> 
<circle cx="57000" cy="59500" r="157.48" /> 
<circle cx="57000" cy="60500" r="157.48" /> 
<circle cx="57000" cy="61500" r="157.48" /> 
<circle cx="57000" cy="62500" r="157.48" /> 
<circle cx="57000" cy="63500" r="157.48" /> 
<circle cx="57400" cy="41000" r="157.48" /> 
<circle cx="57400" cy="44000" r="157.48" /> 
<circle cx="58400" cy="41000" r="157.48" /> 
<circle cx="58400" cy="44000" r="157.48" /> 
<circle cx="59400" cy="41000" r="157.48" /> 
<circle cx="59400" cy="44000" r="157.48" /> 
<circle cx="60000" cy="26500" r="157.48" /> 
<circle cx="60000" cy="27484.3" r="157.48" /> 
<circle cx="60000" cy="49800" r="157.48" /> 
<circle cx="60000" cy="50800" r="157.48" /> 
<circle cx="60000" cy="51800" r="157.48" /> 
<circle cx="60000" cy="52800" r="157.48" /> 
<circle cx="60000" cy="53800" r="157.48" /> 
<circle cx="60000" cy="59500" r="157.48" /> 
<circle cx="60000" cy="60500" r="157.48" /> 
<circle cx="60000" cy="61500" r="157.48" /> 
<circle cx="60000" cy="62500" r="157.48" /> 
<circle cx="60000" cy="63500" r="157.48" /> 
<circle cx="63700" cy="60900" r="157.48" /> 
<circle cx="63700" cy="63900" r="157.48" /> 
<circle cx="64700" cy="60900" r="157.48" /> 
<circle cx="64700" cy="63900" r="157.48" /> 
<circle cx="65700" cy="60900" r="157.48" /> 
<circle cx="65700" cy="63900" r="157.48" /> 
<circle cx="66700" cy="60900" r="157.48" /> 
<circle cx="66700" cy="63900" r="157.48" /> 
<circle cx="67700" cy="60900" r="157.48" /> 
<circle cx="67700" cy="63900" r="157.48" /> 
<circle cx="68700" cy="60900" r="157.48" /> 
<circle cx="68700" cy="63900" r="157.48" /> 
<circle cx="69700" cy="60900" r="157.48" /> 
<circle cx="69700" cy="63900" r="157.48" /> 
<circle cx="70700" cy="60900" r="157.48" /> 
<circle cx="70700" cy="63900" r="157.48" /> 
<circle cx="71700" cy="60900" r="157.48" /> 
<circle cx="71700" cy="63900" r="157.48" /> 
<path d="M42881 17950
L42881 18270
" />
<path d="M42721 18110
L43041 18110
" />
<path d="M43881 17950
L43881 18270
" />
<path d="M43721 18110
L44041 18110
" />
<path d="M44881 17950
L44881 18270
" />
<path d="M44721 18110
L45041 18110
" />
<path d="M69094 27197
L69094 27517
" />
<path d="M68934 27357
L69254 27357
" />
<path d="M69094 28197
L69094 28517
" />
<path d="M68934 28357
L69254 28357
" />
<path d="M69094 29197
L69094 29517
" />
<path d="M68934 29357
L69254 29357
" />
<path d="M69094 30197
L69094 30517
" />
<path d="M68934 30357
L69254 30357
" />
<path d="M69094 31197
L69094 31517
" />
<path d="M68934 31357
L69254 31357
" />
<path d="M69094 32197
L69094 32517
" />
<path d="M68934 32357
L69254 32357
" />
<path d="M69094 34197
L69094 34517
" />
<path d="M68934 34357
L69254 34357
" />
<path d="M69094 35197
L69094 35517
" />
<path d="M68934 35357
L69254 35357
" />
<path d="M69094 36197
L69094 36517
" />
<path d="M68934 36357
L69254 36357
" />
<path d="M69094 37197
L69094 37517
" />
<path d="M68934 37357
L69254 37357
" />
<path d="M69094 38197
L69094 38517
" />
<path d="M68934 38357
L69254 38357
" />
<path d="M69094 39197
L69094 39517
" />
<path d="M68934 39357
L69254 39357
" />
<path d="M69094 40197
L69094 40517
" />
<path d="M68934 40357
L69254 40357
" />
<path d="M69094 41197
L69094 41517
" />
<path d="M68934 41357
L69254 41357
" />
<path d="M69094 43197
L69094 43517
" />
<path d="M68934 43357
L69254 43357
" />
<path d="M69094 44197
L69094 44517
" />
<path d="M68934 44357
L69254 44357
" />
<path d="M69094 45197
L69094 45517
" />
<path d="M68934 45357
L69254 45357
" />
<path d="M69094 46197
L69094 46517
" />
<path d="M68934 46357
L69254 46357
" />
<path d="M69094 47197
L69094 47517
" />
<path d="M68934 47357
L69254 47357
" />
<path d="M69094 48197
L69094 48517
" />
<path d="M68934 48357
L69254 48357
" />
<path d="M69094 49197
L69094 49517
" />
<path d="M68934 49357
L69254 49357
" />
<path d="M69094 50197
L69094 50517
" />
<path d="M68934 50357
L69254 50357
" />
<path d="M71094 51197
L71094 51517
" />
<path d="M70934 51357
L71254 51357
" />
<path d="M71094 52197
L71094 52517
" />
<path d="M70934 52357
L71254 52357
" />
<path d="M72094 51197
L72094 51517
" />
<path d="M71934 51357
L72254 51357
" />
<path d="M72094 52197
L72094 52517
" />
<path d="M71934 52357
L72254 52357
" />
<path d="M73094 51197
L73094 51517
" />
<path d="M72934 51357
L73254 51357
" />
<path d="M73094 52197
L73094 52517
" />
<path d="M72934 52357
L73254 52357
" />
<path d="M74094 51197
L74094 51517
" />
<path d="M73934 51357
L74254 51357
" />
<path d="M74094 52197
L74094 52517
" />
<path d="M73934 52357
L74254 52357
" />
<path d="M75094 51197
L75094 51517
" />
<path d="M74934 51357
L75254 51357
" />
<path d="M75094 52197
L75094 52517
" />
<path d="M74934 52357
L75254 52357
" />
<path d="M76094 51197
L76094 51517
" />
<path d="M75934 51357
L76254 51357
" />
<path d="M76094 52197
L76094 52517
" />
<path d="M75934 52357
L76254 52357
" />
<path d="M77094 51197
L77094 51517
" />
<path d="M76934 51357
L77254 51357
" />
<path d="M77094 52197
L77094 52517
" />
<path d="M76934 52357
L77254 52357
" />
<path d="M78094 51197
L78094 51517
" />
<path d="M77934 51357
L78254 51357
" />
<path d="M78094 52197
L78094 52517
" />
<path d="M77934 52357
L78254 52357
" />
<path d="M78400 61340
L78400 61660
" />
<path d="M78240 61500
L78560 61500
" />
<path d="M78400 63340
L78400 63660
" />
<path d="M78240 63500
L78560 63500
" />
<path d="M79094 51197
L79094 51517
" />
<path d="M78934 51357
L79254 51357
" />
<path d="M79094 52197
L79094 52517
" />
<path d="M78934 52357
L79254 52357
" />
<path d="M79400 61340
L79400 61660
" />
<path d="M79240 61500
L79560 61500
" />
<path d="M79400 63340
L79400 63660
" />
<path d="M79240 63500
L79560 63500
" />
<path d="M80094 51197
L80094 51517
" />
<path d="M79934 51357
L80254 51357
" />
<path d="M80094 52197
L80094 52517
" />
<path d="M79934 52357
L80254 52357
" />
<path d="M81094 51197
L81094 51517
" />
<path d="M80934 51357
L81254 51357
" />
<path d="M81094 52197
L81094 52517
" />
<path d="M80934 52357
L81254 52357
" />
<path d="M82094 51197
L82094 51517
" />
<path d="M81934 51357
L82254 51357
" />
<path d="M82094 52197
L82094 52517
" />
<path d="M81934 52357
L82254 52357
" />
<path d="M82400 61340
L82400 61660
" />
<path d="M82240 61500
L82560 61500
" />
<path d="M82400 63340
L82400 63660
" />
<path d="M82240 63500
L82560 63500
" />
<path d="M83094 51197
L83094 51517
" />
<path d="M82934 51357
L83254 51357
" />
<path d="M83094 52197
L83094 52517
" />
<path d="M82934 52357
L83254 52357
" />
<path d="M84094 51197
L84094 51517
" />
<path d="M83934 51357
L84254 51357
" />
<path d="M84094 52197
L84094 52517
" />
<path d="M83934 52357
L84254 52357
" />
<path d="M85094 51197
L85094 51517
" />
<path d="M84934 51357
L85254 51357
" />
<path d="M85094 52197
L85094 52517
" />
<path d="M84934 52357
L85254 52357
" />
<path d="M86094 51197
L86094 51517
" />
<path d="M85934 51357
L86254 51357
" />
<path d="M86094 52197
L86094 52517
" />
<path d="M85934 52357
L86254 52357
" />
<path d="M87094 51197
L87094 51517
" />
<path d="M86934 51357
L87254 51357
" />
<path d="M87094 52197
L87094 52517
" />
<path d="M86934 52357
L87254 52357
" />
<path d="M87100 61340
L87100 61660
" />
<path d="M86940 61500
L87260 61500
" />
<path d="M87100 63340
L87100 63660
" />
<path d="M86940 63500
L87260 63500
" />
<path d="M88094 23597
L88094 23917
" />
<path d="M87934 23757
L88254 23757
" />
<path d="M88094 24597
L88094 24917
" />
<path d="M87934 24757
L88254 24757
" />
<path d="M88094 25597
L88094 25917
" />
<path d="M87934 25757
L88254 25757
" />
<path d="M88094 26597
L88094 26917
" />
<path d="M87934 26757
L88254 26757
" />
<path d="M88094 27597
L88094 27917
" />
<path d="M87934 27757
L88254 27757
" />
<path d="M88094 28597
L88094 28917
" />
<path d="M87934 28757
L88254 28757
" />
<path d="M88094 29597
L88094 29917
" />
<path d="M87934 29757
L88254 29757
" />
<path d="M88094 30597
L88094 30917
" />
<path d="M87934 30757
L88254 30757
" />
<path d="M88094 32197
L88094 32517
" />
<path d="M87934 32357
L88254 32357
" />
<path d="M88094 33197
L88094 33517
" />
<path d="M87934 33357
L88254 33357
" />
<path d="M88094 34197
L88094 34517
" />
<path d="M87934 34357
L88254 34357
" />
<path d="M88094 35197
L88094 35517
" />
<path d="M87934 35357
L88254 35357
" />
<path d="M88094 36197
L88094 36517
" />
<path d="M87934 36357
L88254 36357
" />
<path d="M88094 37197
L88094 37517
" />
<path d="M87934 37357
L88254 37357
" />
<path d="M88094 38197
L88094 38517
" />
<path d="M87934 38357
L88254 38357
" />
<path d="M88094 39197
L88094 39517
" />
<path d="M87934 39357
L88254 39357
" />
<path d="M88094 41197
L88094 41517
" />
<path d="M87934 41357
L88254 41357
" />
<path d="M88094 42197
L88094 42517
" />
<path d="M87934 42357
L88254 42357
" />
<path d="M88094 43197
L88094 43517
" />
<path d="M87934 43357
L88254 43357
" />
<path d="M88094 44197
L88094 44517
" />
<path d="M87934 44357
L88254 44357
" />
<path d="M88094 45197
L88094 45517
" />
<path d="M87934 45357
L88254 45357
" />
<path d="M88094 46197
L88094 46517
" />
<path d="M87934 46357
L88254 46357
" />
<path d="M88094 47197
L88094 47517
" />
<path d="M87934 47357
L88254 47357
" />
<path d="M88094 48197
L88094 48517
" />
<path d="M87934 48357
L88254 48357
" />
<path d="M88094 51197
L88094 51517
" />
<path d="M87934 51357
L88254 51357
" />
<path d="M88094 52197
L88094 52517
" />
<path d="M87934 52357
L88254 52357
" />
<path d="M88100 61340
L88100 61660
" />
<path d="M87940 61500
L88260 61500
" />
<path d="M88100 63340
L88100 63660
" />
<path d="M87940 63500
L88260 63500
" />
<path d="M91100 61340
L91100 61660
" />
<path d="M90940 61500
L91260 61500
" />
<path d="M91100 63340
L91100 63660
" />
<path d="M90940 63500
L91260 63500
" />
<polyline fill="none;"
points="76425,61725
76425,61474
76174,61474
76174,61725
76425,61725
" /> 
<polyline fill="none;"
points="76425,63693
76425,63443
76174,63443
76174,63693
76425,63693
" /> 
<polyline fill="none;"
points="85025,61725
85025,61474
84774,61474
84774,61725
85025,61725
" /> 
<polyline fill="none;"
points="85025,63693
85025,63443
84774,63443
84774,63693
85025,63693
" /> 
<polyline fill="none;"
points="39944,15551
40141,15354
39944,15157
39747,15354
39944,15551
" /> 
<polyline fill="none;"
points="40944,15551
41141,15354
40944,15157
40747,15354
40944,15551
" /> 
<polyline fill="none;"
points="41944,15551
42141,15354
41944,15157
41747,15354
41944,15551
" /> 
<polyline fill="none;"
points="44456,15551
44653,15354
44456,15157
44259,15354
44456,15551
" /> 
<polyline fill="none;"
points="45200,49197
45397,49000
45200,48803
45003,49000
45200,49197
" /> 
<polyline fill="none;"
points="45300,57397
45497,57200
45300,57003
45103,57200
45300,57397
" /> 
<polyline fill="none;"
points="48456,15551
48653,15354
48456,15157
48259,15354
48456,15551
" /> 
<polyline fill="none;"
points="49200,49197
49397,49000
49200,48803
49003,49000
49200,49197
" /> 
<polyline fill="none;"
points="49300,57397
49497,57200
49300,57003
49103,57200
49300,57397
" /> 
<polyline fill="none;"
points="76900,60297
77097,60100
76900,59903
76703,60100
76900,60297
" /> 
<polyline fill="none;"
points="79000,8197
79197,8000
79000,7803
78803,8000
79000,8197
" /> 
<polyline fill="none;"
points="80000,8197
80197,8000
80000,7803
79803,8000
80000,8197
" /> 
<polyline fill="none;"
points="80900,60297
81097,60100
80900,59903
80703,60100
80900,60297
" /> 
<polyline fill="none;"
points="83000,8197
83197,8000
83000,7803
82803,8000
83000,8197
" /> 
<polyline fill="none;"
points="84000,8197
84197,8000
84000,7803
83803,8000
84000,8197
" /> 
<polyline fill="none;"
points="85600,60297
85797,60100
85600,59903
85403,60100
85600,60297
" /> 
<polyline fill="none;"
points="87000,8197
87197,8000
87000,7803
86803,8000
87000,8197
" /> 
<polyline fill="none;"
points="88000,8197
88197,8000
88000,7803
87803,8000
88000,8197
" /> 
<polyline fill="none;"
points="89600,60297
89797,60100
89600,59903
89403,60100
89600,60297
" /> 
<path d="M64400 46400
L64800 46800
" />
<path d="M64800 46400
L64400 46800
" />
<circle cx="64600" cy="46600" r="200" /> 
<path d="M64400 47400
L64800 47800
" />
<path d="M64800 47400
L64400 47800
" />
<circle cx="64600" cy="47600" r="200" /> 
<path d="M64400 48400
L64800 48800
" />
<path d="M64800 48400
L64400 48800
" />
<circle cx="64600" cy="48600" r="200" /> 
<path d="M64700 56200
L65100 56600
" />
<path d="M65100 56200
L64700 56600
" />
<circle cx="64900" cy="56400" r="200" /> 
<path d="M64700 57700
L65100 58100
" />
<path d="M65100 57700
L64700 58100
" />
<circle cx="64900" cy="57900" r="200" /> 
<path d="M65700 56200
L66100 56600
" />
<path d="M66100 56200
L65700 56600
" />
<circle cx="65900" cy="56400" r="200" /> 
<path d="M65700 57700
L66100 58100
" />
<path d="M66100 57700
L65700 58100
" />
<circle cx="65900" cy="57900" r="200" /> 
<path d="M65800 15800
L66200 16200
" />
<path d="M66200 15800
L65800 16200
" />
<circle cx="66000" cy="16000" r="200" /> 
<path d="M66594 34857
L66994 35257
" />
<path d="M66994 34857
L66594 35257
" />
<circle cx="66794.5" cy="35057.5" r="200" /> 
<path d="M66594 35857
L66994 36257
" />
<path d="M66994 35857
L66594 36257
" />
<circle cx="66794.5" cy="36057.5" r="200" /> 
<path d="M66594 36857
L66994 37257
" />
<path d="M66994 36857
L66594 37257
" />
<circle cx="66794.5" cy="37057.5" r="200" /> 
<path d="M66594 37857
L66994 38257
" />
<path d="M66994 37857
L66594 38257
" />
<circle cx="66794.5" cy="38057.5" r="200" /> 
<path d="M66594 38857
L66994 39257
" />
<path d="M66994 38857
L66594 39257
" />
<circle cx="66794.5" cy="39057.5" r="200" /> 
<path d="M66594 39857
L66994 40257
" />
<path d="M66994 39857
L66594 40257
" />
<circle cx="66794.5" cy="40057.5" r="200" /> 
<path d="M66594 40857
L66994 41257
" />
<path d="M66994 40857
L66594 41257
" />
<circle cx="66794.5" cy="41057.5" r="200" /> 
<path d="M66594 41857
L66994 42257
" />
<path d="M66994 41857
L66594 42257
" />
<circle cx="66794.5" cy="42057.5" r="200" /> 
<path d="M66594 42857
L66994 43257
" />
<path d="M66994 42857
L66594 43257
" />
<circle cx="66794.5" cy="43057.5" r="200" /> 
<path d="M66594 43857
L66994 44257
" />
<path d="M66994 43857
L66594 44257
" />
<circle cx="66794.5" cy="44057.5" r="200" /> 
<path d="M66594 44857
L66994 45257
" />
<path d="M66994 44857
L66594 45257
" />
<circle cx="66794.5" cy="45057.5" r="200" /> 
<path d="M66594 45857
L66994 46257
" />
<path d="M66994 45857
L66594 46257
" />
<circle cx="66794.5" cy="46057.5" r="200" /> 
<path d="M66594 46857
L66994 47257
" />
<path d="M66994 46857
L66594 47257
" />
<circle cx="66794.5" cy="47057.5" r="200" /> 
<path d="M66594 47857
L66994 48257
" />
<path d="M66994 47857
L66594 48257
" />
<circle cx="66794.5" cy="48057.5" r="200" /> 
<path d="M66594 48857
L66994 49257
" />
<path d="M66994 48857
L66594 49257
" />
<circle cx="66794.5" cy="49057.5" r="200" /> 
<path d="M66594 49857
L66994 50257
" />
<path d="M66994 49857
L66594 50257
" />
<circle cx="66794.5" cy="50057.5" r="200" /> 
<path d="M66594 50857
L66994 51257
" />
<path d="M66994 50857
L66594 51257
" />
<circle cx="66794.5" cy="51057.5" r="200" /> 
<path d="M66594 51857
L66994 52257
" />
<path d="M66994 51857
L66594 52257
" />
<circle cx="66794.5" cy="52057.5" r="200" /> 
<path d="M66594 52857
L66994 53257
" />
<path d="M66994 52857
L66594 53257
" />
<circle cx="66794.5" cy="53057.5" r="200" /> 
<path d="M66594 53857
L66994 54257
" />
<path d="M66994 53857
L66594 54257
" />
<circle cx="66794.5" cy="54057.5" r="200" /> 
<path d="M66700 56200
L67100 56600
" />
<path d="M67100 56200
L66700 56600
" />
<circle cx="66900" cy="56400" r="200" /> 
<path d="M66700 57700
L67100 58100
" />
<path d="M67100 57700
L66700 58100
" />
<circle cx="66900" cy="57900" r="200" /> 
<path d="M66800 12800
L67200 13200
" />
<path d="M67200 12800
L66800 13200
" />
<circle cx="67000" cy="13000" r="200" /> 
<path d="M66800 15800
L67200 16200
" />
<path d="M67200 15800
L66800 16200
" />
<circle cx="67000" cy="16000" r="200" /> 
<path d="M67594 34857
L67994 35257
" />
<path d="M67994 34857
L67594 35257
" />
<circle cx="67794.5" cy="35057.5" r="200" /> 
<path d="M67594 35857
L67994 36257
" />
<path d="M67994 35857
L67594 36257
" />
<circle cx="67794.5" cy="36057.5" r="200" /> 
<path d="M67594 36857
L67994 37257
" />
<path d="M67994 36857
L67594 37257
" />
<circle cx="67794.5" cy="37057.5" r="200" /> 
<path d="M67594 37857
L67994 38257
" />
<path d="M67994 37857
L67594 38257
" />
<circle cx="67794.5" cy="38057.5" r="200" /> 
<path d="M67594 38857
L67994 39257
" />
<path d="M67994 38857
L67594 39257
" />
<circle cx="67794.5" cy="39057.5" r="200" /> 
<path d="M67594 39857
L67994 40257
" />
<path d="M67994 39857
L67594 40257
" />
<circle cx="67794.5" cy="40057.5" r="200" /> 
<path d="M67594 40857
L67994 41257
" />
<path d="M67994 40857
L67594 41257
" />
<circle cx="67794.5" cy="41057.5" r="200" /> 
<path d="M67594 41857
L67994 42257
" />
<path d="M67994 41857
L67594 42257
" />
<circle cx="67794.5" cy="42057.5" r="200" /> 
<path d="M67594 42857
L67994 43257
" />
<path d="M67994 42857
L67594 43257
" />
<circle cx="67794.5" cy="43057.5" r="200" /> 
<path d="M67594 43857
L67994 44257
" />
<path d="M67994 43857
L67594 44257
" />
<circle cx="67794.5" cy="44057.5" r="200" /> 
<path d="M67594 44857
L67994 45257
" />
<path d="M67994 44857
L67594 45257
" />
<circle cx="67794.5" cy="45057.5" r="200" /> 
<path d="M67594 45857
L67994 46257
" />
<path d="M67994 45857
L67594 46257
" />
<circle cx="67794.5" cy="46057.5" r="200" /> 
<path d="M67594 46857
L67994 47257
" />
<path d="M67994 46857
L67594 47257
" />
<circle cx="67794.5" cy="47057.5" r="200" /> 
<path d="M67594 47857
L67994 48257
" />
<path d="M67994 47857
L67594 48257
" />
<circle cx="67794.5" cy="48057.5" r="200" /> 
<path d="M67594 48857
L67994 49257
" />
<path d="M67994 48857
L67594 49257
" />
<circle cx="67794.5" cy="49057.5" r="200" /> 
<path d="M67594 49857
L67994 50257
" />
<path d="M67994 49857
L67594 50257
" />
<circle cx="67794.5" cy="50057.5" r="200" /> 
<path d="M67594 50857
L67994 51257
" />
<path d="M67994 50857
L67594 51257
" />
<circle cx="67794.5" cy="51057.5" r="200" /> 
<path d="M67594 51857
L67994 52257
" />
<path d="M67994 51857
L67594 52257
" />
<circle cx="67794.5" cy="52057.5" r="200" /> 
<path d="M67594 52857
L67994 53257
" />
<path d="M67994 52857
L67594 53257
" />
<circle cx="67794.5" cy="53057.5" r="200" /> 
<path d="M67594 53857
L67994 54257
" />
<path d="M67994 53857
L67594 54257
" />
<circle cx="67794.5" cy="54057.5" r="200" /> 
<path d="M67800 12800
L68200 13200
" />
<path d="M68200 12800
L67800 13200
" />
<circle cx="68000" cy="13000" r="200" /> 
<path d="M67800 15800
L68200 16200
" />
<path d="M68200 15800
L67800 16200
" />
<circle cx="68000" cy="16000" r="200" /> 
<path d="M67800 17600
L68200 18000
" />
<path d="M68200 17600
L67800 18000
" />
<circle cx="68000" cy="17800" r="200" /> 
<path d="M68594 55357
L68994 55757
" />
<path d="M68994 55357
L68594 55757
" />
<circle cx="68794.5" cy="55557.5" r="200" /> 
<path d="M68594 56357
L68994 56757
" />
<path d="M68994 56357
L68594 56757
" />
<circle cx="68794.5" cy="56557.5" r="200" /> 
<path d="M68800 12800
L69200 13200
" />
<path d="M69200 12800
L68800 13200
" />
<circle cx="69000" cy="13000" r="200" /> 
<path d="M68800 15800
L69200 16200
" />
<path d="M69200 15800
L68800 16200
" />
<circle cx="69000" cy="16000" r="200" /> 
<path d="M68800 17600
L69200 18000
" />
<path d="M69200 17600
L68800 18000
" />
<circle cx="69000" cy="17800" r="200" /> 
<path d="M69594 55357
L69994 55757
" />
<path d="M69994 55357
L69594 55757
" />
<circle cx="69794.5" cy="55557.5" r="200" /> 
<path d="M69594 56357
L69994 56757
" />
<path d="M69994 56357
L69594 56757
" />
<circle cx="69794.5" cy="56557.5" r="200" /> 
<path d="M69800 12800
L70200 13200
" />
<path d="M70200 12800
L69800 13200
" />
<circle cx="70000" cy="13000" r="200" /> 
<path d="M69800 15800
L70200 16200
" />
<path d="M70200 15800
L69800 16200
" />
<circle cx="70000" cy="16000" r="200" /> 
<path d="M69800 17600
L70200 18000
" />
<path d="M70200 17600
L69800 18000
" />
<circle cx="70000" cy="17800" r="200" /> 
<path d="M70594 55357
L70994 55757
" />
<path d="M70994 55357
L70594 55757
" />
<circle cx="70794.5" cy="55557.5" r="200" /> 
<path d="M70594 56357
L70994 56757
" />
<path d="M70994 56357
L70594 56757
" />
<circle cx="70794.5" cy="56557.5" r="200" /> 
<path d="M70800 12800
L71200 13200
" />
<path d="M71200 12800
L70800 13200
" />
<circle cx="71000" cy="13000" r="200" /> 
<path d="M70800 15800
L71200 16200
" />
<path d="M71200 15800
L70800 16200
" />
<circle cx="71000" cy="16000" r="200" /> 
<path d="M71594 55357
L71994 55757
" />
<path d="M71994 55357
L71594 55757
" />
<circle cx="71794.5" cy="55557.5" r="200" /> 
<path d="M71594 56357
L71994 56757
" />
<path d="M71994 56357
L71594 56757
" />
<circle cx="71794.5" cy="56557.5" r="200" /> 
<path d="M71800 12800
L72200 13200
" />
<path d="M72200 12800
L71800 13200
" />
<circle cx="72000" cy="13000" r="200" /> 
<path d="M71800 15800
L72200 16200
" />
<path d="M72200 15800
L71800 16200
" />
<circle cx="72000" cy="16000" r="200" /> 
<path d="M72594 55357
L72994 55757
" />
<path d="M72994 55357
L72594 55757
" />
<circle cx="72794.5" cy="55557.5" r="200" /> 
<path d="M72594 56357
L72994 56757
" />
<path d="M72994 56357
L72594 56757
" />
<circle cx="72794.5" cy="56557.5" r="200" /> 
<path d="M72800 12800
L73200 13200
" />
<path d="M73200 12800
L72800 13200
" />
<circle cx="73000" cy="13000" r="200" /> 
<path d="M72800 15800
L73200 16200
" />
<path d="M73200 15800
L72800 16200
" />
<circle cx="73000" cy="16000" r="200" /> 
<path d="M73594 55357
L73994 55757
" />
<path d="M73994 55357
L73594 55757
" />
<circle cx="73794.5" cy="55557.5" r="200" /> 
<path d="M73594 56357
L73994 56757
" />
<path d="M73994 56357
L73594 56757
" />
<circle cx="73794.5" cy="56557.5" r="200" /> 
<path d="M73800 12800
L74200 13200
" />
<path d="M74200 12800
L73800 13200
" />
<circle cx="74000" cy="13000" r="200" /> 
<path d="M73800 15800
L74200 16200
" />
<path d="M74200 15800
L73800 16200
" />
<circle cx="74000" cy="16000" r="200" /> 
<path d="M74594 55357
L74994 55757
" />
<path d="M74994 55357
L74594 55757
" />
<circle cx="74794.5" cy="55557.5" r="200" /> 
<path d="M74594 56357
L74994 56757
" />
<path d="M74994 56357
L74594 56757
" />
<circle cx="74794.5" cy="56557.5" r="200" /> 
<path d="M74800 15800
L75200 16200
" />
<path d="M75200 15800
L74800 16200
" />
<circle cx="75000" cy="16000" r="200" /> 
<path d="M75594 55357
L75994 55757
" />
<path d="M75994 55357
L75594 55757
" />
<circle cx="75794.5" cy="55557.5" r="200" /> 
<path d="M75594 56357
L75994 56757
" />
<path d="M75994 56357
L75594 56757
" />
<circle cx="75794.5" cy="56557.5" r="200" /> 
<path d="M76594 55357
L76994 55757
" />
<path d="M76994 55357
L76594 55757
" />
<circle cx="76794.5" cy="55557.5" r="200" /> 
<path d="M76594 56357
L76994 56757
" />
<path d="M76994 56357
L76594 56757
" />
<circle cx="76794.5" cy="56557.5" r="200" /> 
<path d="M77594 55357
L77994 55757
" />
<path d="M77994 55357
L77594 55757
" />
<circle cx="77794.5" cy="55557.5" r="200" /> 
<path d="M77594 56357
L77994 56757
" />
<path d="M77994 56357
L77594 56757
" />
<circle cx="77794.5" cy="56557.5" r="200" /> 
<path d="M78594 55357
L78994 55757
" />
<path d="M78994 55357
L78594 55757
" />
<circle cx="78794.5" cy="55557.5" r="200" /> 
<path d="M78594 56357
L78994 56757
" />
<path d="M78994 56357
L78594 56757
" />
<circle cx="78794.5" cy="56557.5" r="200" /> 
<path d="M79594 55357
L79994 55757
" />
<path d="M79994 55357
L79594 55757
" />
<circle cx="79794.5" cy="55557.5" r="200" /> 
<path d="M79594 56357
L79994 56757
" />
<path d="M79994 56357
L79594 56757
" />
<circle cx="79794.5" cy="56557.5" r="200" /> 
<path d="M80594 55357
L80994 55757
" />
<path d="M80994 55357
L80594 55757
" />
<circle cx="80794.5" cy="55557.5" r="200" /> 
<path d="M80594 56357
L80994 56757
" />
<path d="M80994 56357
L80594 56757
" />
<circle cx="80794.5" cy="56557.5" r="200" /> 
<path d="M81594 55357
L81994 55757
" />
<path d="M81994 55357
L81594 55757
" />
<circle cx="81794.5" cy="55557.5" r="200" /> 
<path d="M81594 56357
L81994 56757
" />
<path d="M81994 56357
L81594 56757
" />
<circle cx="81794.5" cy="56557.5" r="200" /> 
<path d="M82594 55357
L82994 55757
" />
<path d="M82994 55357
L82594 55757
" />
<circle cx="82794.5" cy="55557.5" r="200" /> 
<path d="M82594 56357
L82994 56757
" />
<path d="M82994 56357
L82594 56757
" />
<circle cx="82794.5" cy="56557.5" r="200" /> 
<path d="M83594 55357
L83994 55757
" />
<path d="M83994 55357
L83594 55757
" />
<circle cx="83794.5" cy="55557.5" r="200" /> 
<path d="M83594 56357
L83994 56757
" />
<path d="M83994 56357
L83594 56757
" />
<circle cx="83794.5" cy="56557.5" r="200" /> 
<path d="M84594 55357
L84994 55757
" />
<path d="M84994 55357
L84594 55757
" />
<circle cx="84794.5" cy="55557.5" r="200" /> 
<path d="M84594 56357
L84994 56757
" />
<path d="M84994 56357
L84594 56757
" />
<circle cx="84794.5" cy="56557.5" r="200" /> 
<path d="M85594 55357
L85994 55757
" />
<path d="M85994 55357
L85594 55757
" />
<circle cx="85794.5" cy="55557.5" r="200" /> 
<path d="M85594 56357
L85994 56757
" />
<path d="M85994 56357
L85594 56757
" />
<circle cx="85794.5" cy="56557.5" r="200" /> 
<path d="M86594 55357
L86994 55757
" />
<path d="M86994 55357
L86594 55757
" />
<circle cx="86794.5" cy="55557.5" r="200" /> 
<path d="M86594 56357
L86994 56757
" />
<path d="M86994 56357
L86594 56757
" />
<circle cx="86794.5" cy="56557.5" r="200" /> 
<path d="M86800 11800
L87200 12200
" />
<path d="M87200 11800
L86800 12200
" />
<circle cx="87000" cy="12000" r="200" /> 
<path d="M87594 55357
L87994 55757
" />
<path d="M87994 55357
L87594 55757
" />
<circle cx="87794.5" cy="55557.5" r="200" /> 
<path d="M87594 56357
L87994 56757
" />
<path d="M87994 56357
L87594 56757
" />
<circle cx="87794.5" cy="56557.5" r="200" /> 
<path d="M87800 11800
L88200 12200
" />
<path d="M88200 11800
L87800 12200
" />
<circle cx="88000" cy="12000" r="200" /> 
<path d="M88800 11800
L89200 12200
" />
<path d="M89200 11800
L88800 12200
" />
<circle cx="89000" cy="12000" r="200" /> 
<path d="M89094 34857
L89494 35257
" />
<path d="M89494 34857
L89094 35257
" />
<circle cx="89294.5" cy="35057.5" r="200" /> 
<path d="M89094 35857
L89494 36257
" />
<path d="M89494 35857
L89094 36257
" />
<circle cx="89294.5" cy="36057.5" r="200" /> 
<path d="M89094 36857
L89494 37257
" />
<path d="M89494 36857
L89094 37257
" />
<circle cx="89294.5" cy="37057.5" r="200" /> 
<path d="M89094 37857
L89494 38257
" />
<path d="M89494 37857
L89094 38257
" />
<circle cx="89294.5" cy="38057.5" r="200" /> 
<path d="M89094 38857
L89494 39257
" />
<path d="M89494 38857
L89094 39257
" />
<circle cx="89294.5" cy="39057.5" r="200" /> 
<path d="M89094 39857
L89494 40257
" />
<path d="M89494 39857
L89094 40257
" />
<circle cx="89294.5" cy="40057.5" r="200" /> 
<path d="M89094 40857
L89494 41257
" />
<path d="M89494 40857
L89094 41257
" />
<circle cx="89294.5" cy="41057.5" r="200" /> 
<path d="M89094 41857
L89494 42257
" />
<path d="M89494 41857
L89094 42257
" />
<circle cx="89294.5" cy="42057.5" r="200" /> 
<path d="M89094 42857
L89494 43257
" />
<path d="M89494 42857
L89094 43257
" />
<circle cx="89294.5" cy="43057.5" r="200" /> 
<path d="M89094 43857
L89494 44257
" />
<path d="M89494 43857
L89094 44257
" />
<circle cx="89294.5" cy="44057.5" r="200" /> 
<path d="M89094 44857
L89494 45257
" />
<path d="M89494 44857
L89094 45257
" />
<circle cx="89294.5" cy="45057.5" r="200" /> 
<path d="M89094 45857
L89494 46257
" />
<path d="M89494 45857
L89094 46257
" />
<circle cx="89294.5" cy="46057.5" r="200" /> 
<path d="M89094 46857
L89494 47257
" />
<path d="M89494 46857
L89094 47257
" />
<circle cx="89294.5" cy="47057.5" r="200" /> 
<path d="M89094 47857
L89494 48257
" />
<path d="M89494 47857
L89094 48257
" />
<circle cx="89294.5" cy="48057.5" r="200" /> 
<path d="M89094 48857
L89494 49257
" />
<path d="M89494 48857
L89094 49257
" />
<circle cx="89294.5" cy="49057.5" r="200" /> 
<path d="M89094 49857
L89494 50257
" />
<path d="M89494 49857
L89094 50257
" />
<circle cx="89294.5" cy="50057.5" r="200" /> 
<path d="M89094 50857
L89494 51257
" />
<path d="M89494 50857
L89094 51257
" />
<circle cx="89294.5" cy="51057.5" r="200" /> 
<path d="M89094 51857
L89494 52257
" />
<path d="M89494 51857
L89094 52257
" />
<circle cx="89294.5" cy="52057.5" r="200" /> 
<path d="M89094 52857
L89494 53257
" />
<path d="M89494 52857
L89094 53257
" />
<circle cx="89294.5" cy="53057.5" r="200" /> 
<path d="M89094 53857
L89494 54257
" />
<path d="M89494 53857
L89094 54257
" />
<circle cx="89294.5" cy="54057.5" r="200" /> 
<path d="M90094 34857
L90494 35257
" />
<path d="M90494 34857
L90094 35257
" />
<circle cx="90294.5" cy="35057.5" r="200" /> 
<path d="M90094 35857
L90494 36257
" />
<path d="M90494 35857
L90094 36257
" />
<circle cx="90294.5" cy="36057.5" r="200" /> 
<path d="M90094 36857
L90494 37257
" />
<path d="M90494 36857
L90094 37257
" />
<circle cx="90294.5" cy="37057.5" r="200" /> 
<path d="M90094 37857
L90494 38257
" />
<path d="M90494 37857
L90094 38257
" />
<circle cx="90294.5" cy="38057.5" r="200" /> 
<path d="M90094 38857
L90494 39257
" />
<path d="M90494 38857
L90094 39257
" />
<circle cx="90294.5" cy="39057.5" r="200" /> 
<path d="M90094 39857
L90494 40257
" />
<path d="M90494 39857
L90094 40257
" />
<circle cx="90294.5" cy="40057.5" r="200" /> 
<path d="M90094 40857
L90494 41257
" />
<path d="M90494 40857
L90094 41257
" />
<circle cx="90294.5" cy="41057.5" r="200" /> 
<path d="M90094 41857
L90494 42257
" />
<path d="M90494 41857
L90094 42257
" />
<circle cx="90294.5" cy="42057.5" r="200" /> 
<path d="M90094 42857
L90494 43257
" />
<path d="M90494 42857
L90094 43257
" />
<circle cx="90294.5" cy="43057.5" r="200" /> 
<path d="M90094 43857
L90494 44257
" />
<path d="M90494 43857
L90094 44257
" />
<circle cx="90294.5" cy="44057.5" r="200" /> 
<path d="M90094 44857
L90494 45257
" />
<path d="M90494 44857
L90094 45257
" />
<circle cx="90294.5" cy="45057.5" r="200" /> 
<path d="M90094 45857
L90494 46257
" />
<path d="M90494 45857
L90094 46257
" />
<circle cx="90294.5" cy="46057.5" r="200" /> 
<path d="M90094 46857
L90494 47257
" />
<path d="M90494 46857
L90094 47257
" />
<circle cx="90294.5" cy="47057.5" r="200" /> 
<path d="M90094 47857
L90494 48257
" />
<path d="M90494 47857
L90094 48257
" />
<circle cx="90294.5" cy="48057.5" r="200" /> 
<path d="M90094 48857
L90494 49257
" />
<path d="M90494 48857
L90094 49257
" />
<circle cx="90294.5" cy="49057.5" r="200" /> 
<path d="M90094 49857
L90494 50257
" />
<path d="M90494 49857
L90094 50257
" />
<circle cx="90294.5" cy="50057.5" r="200" /> 
<path d="M90094 50857
L90494 51257
" />
<path d="M90494 50857
L90094 51257
" />
<circle cx="90294.5" cy="51057.5" r="200" /> 
<path d="M90094 51857
L90494 52257
" />
<path d="M90494 51857
L90094 52257
" />
<circle cx="90294.5" cy="52057.5" r="200" /> 
<path d="M90094 52857
L90494 53257
" />
<path d="M90494 52857
L90094 53257
" />
<circle cx="90294.5" cy="53057.5" r="200" /> 
<path d="M90094 53857
L90494 54257
" />
<path d="M90494 53857
L90094 54257
" />
<circle cx="90294.5" cy="54057.5" r="200" /> 
<path d="M91600 34850
L92000 35250
" />
<path d="M92000 34850
L91600 35250
" />
<circle cx="91800" cy="35050" r="200" /> 
<path d="M91600 35850
L92000 36250
" />
<path d="M92000 35850
L91600 36250
" />
<circle cx="91800" cy="36050" r="200" /> 
<path d="M91600 36850
L92000 37250
" />
<path d="M92000 36850
L91600 37250
" />
<circle cx="91800" cy="37050" r="200" /> 
<path d="M91600 37850
L92000 38250
" />
<path d="M92000 37850
L91600 38250
" />
<circle cx="91800" cy="38050" r="200" /> 
<path d="M91600 38850
L92000 39250
" />
<path d="M92000 38850
L91600 39250
" />
<circle cx="91800" cy="39050" r="200" /> 
<path d="M91600 39850
L92000 40250
" />
<path d="M92000 39850
L91600 40250
" />
<circle cx="91800" cy="40050" r="200" /> 
<path d="M91600 40850
L92000 41250
" />
<path d="M92000 40850
L91600 41250
" />
<circle cx="91800" cy="41050" r="200" /> 
<path d="M91600 41850
L92000 42250
" />
<path d="M92000 41850
L91600 42250
" />
<circle cx="91800" cy="42050" r="200" /> 
<path d="M91600 42850
L92000 43250
" />
<path d="M92000 42850
L91600 43250
" />
<circle cx="91800" cy="43050" r="200" /> 
<path d="M91600 43850
L92000 44250
" />
<path d="M92000 43850
L91600 44250
" />
<circle cx="91800" cy="44050" r="200" /> 
<path d="M91600 44850
L92000 45250
" />
<path d="M92000 44850
L91600 45250
" />
<circle cx="91800" cy="45050" r="200" /> 
<path d="M91600 45850
L92000 46250
" />
<path d="M92000 45850
L91600 46250
" />
<circle cx="91800" cy="46050" r="200" /> 
<path d="M91600 46850
L92000 47250
" />
<path d="M92000 46850
L91600 47250
" />
<circle cx="91800" cy="47050" r="200" /> 
<path d="M91600 47850
L92000 48250
" />
<path d="M92000 47850
L91600 48250
" />
<circle cx="91800" cy="48050" r="200" /> 
<path d="M91600 48850
L92000 49250
" />
<path d="M92000 48850
L91600 49250
" />
<circle cx="91800" cy="49050" r="200" /> 
<path d="M91600 49850
L92000 50250
" />
<path d="M92000 49850
L91600 50250
" />
<circle cx="91800" cy="50050" r="200" /> 
<path d="M91600 50850
L92000 51250
" />
<path d="M92000 50850
L91600 51250
" />
<circle cx="91800" cy="51050" r="200" /> 
<path d="M91600 51850
L92000 52250
" />
<path d="M92000 51850
L91600 52250
" />
<circle cx="91800" cy="52050" r="200" /> 
<path d="M91600 52850
L92000 53250
" />
<path d="M92000 52850
L91600 53250
" />
<circle cx="91800" cy="53050" r="200" /> 
<path d="M91600 53850
L92000 54250
" />
<path d="M92000 53850
L91600 54250
" />
<circle cx="91800" cy="54050" r="200" /> 
<path d="M92600 34850
L93000 35250
" />
<path d="M93000 34850
L92600 35250
" />
<circle cx="92800" cy="35050" r="200" /> 
<path d="M92600 35850
L93000 36250
" />
<path d="M93000 35850
L92600 36250
" />
<circle cx="92800" cy="36050" r="200" /> 
<path d="M92600 36850
L93000 37250
" />
<path d="M93000 36850
L92600 37250
" />
<circle cx="92800" cy="37050" r="200" /> 
<path d="M92600 37850
L93000 38250
" />
<path d="M93000 37850
L92600 38250
" />
<circle cx="92800" cy="38050" r="200" /> 
<path d="M92600 38850
L93000 39250
" />
<path d="M93000 38850
L92600 39250
" />
<circle cx="92800" cy="39050" r="200" /> 
<path d="M92600 39850
L93000 40250
" />
<path d="M93000 39850
L92600 40250
" />
<circle cx="92800" cy="40050" r="200" /> 
<path d="M92600 40850
L93000 41250
" />
<path d="M93000 40850
L92600 41250
" />
<circle cx="92800" cy="41050" r="200" /> 
<path d="M92600 41850
L93000 42250
" />
<path d="M93000 41850
L92600 42250
" />
<circle cx="92800" cy="42050" r="200" /> 
<path d="M92600 42850
L93000 43250
" />
<path d="M93000 42850
L92600 43250
" />
<circle cx="92800" cy="43050" r="200" /> 
<path d="M92600 43850
L93000 44250
" />
<path d="M93000 43850
L92600 44250
" />
<circle cx="92800" cy="44050" r="200" /> 
<path d="M92600 44850
L93000 45250
" />
<path d="M93000 44850
L92600 45250
" />
<circle cx="92800" cy="45050" r="200" /> 
<path d="M92600 45850
L93000 46250
" />
<path d="M93000 45850
L92600 46250
" />
<circle cx="92800" cy="46050" r="200" /> 
<path d="M92600 46850
L93000 47250
" />
<path d="M93000 46850
L92600 47250
" />
<circle cx="92800" cy="47050" r="200" /> 
<path d="M92600 47850
L93000 48250
" />
<path d="M93000 47850
L92600 48250
" />
<circle cx="92800" cy="48050" r="200" /> 
<path d="M92600 48850
L93000 49250
" />
<path d="M93000 48850
L92600 49250
" />
<circle cx="92800" cy="49050" r="200" /> 
<path d="M92600 49850
L93000 50250
" />
<path d="M93000 49850
L92600 50250
" />
<circle cx="92800" cy="50050" r="200" /> 
<path d="M92600 50850
L93000 51250
" />
<path d="M93000 50850
L92600 51250
" />
<circle cx="92800" cy="51050" r="200" /> 
<path d="M92600 51850
L93000 52250
" />
<path d="M93000 51850
L92600 52250
" />
<circle cx="92800" cy="52050" r="200" /> 
<path d="M92600 52850
L93000 53250
" />
<path d="M93000 52850
L92600 53250
" />
<circle cx="92800" cy="53050" r="200" /> 
<path d="M92600 53850
L93000 54250
" />
<path d="M93000 53850
L92600 54250
" />
<circle cx="92800" cy="54050" r="200" /> 
<path d="M48425 37315
L48897 37787
" />
<path d="M48897 37315
L48425 37787
" />
<path d="M48661 37315
L48661 37787
" />
<path d="M48425 37551
L48897 37551
" />
<path d="M49095 35937
L49567 36409
" />
<path d="M49567 35937
L49095 36409
" />
<path d="M49331 35937
L49331 36409
" />
<path d="M49095 36173
L49567 36173
" />
<path d="M49764 37315
L50236 37787
" />
<path d="M50236 37315
L49764 37787
" />
<path d="M50000 37315
L50000 37787
" />
<path d="M49764 37551
L50236 37551
" />
<path d="M50433 35937
L50905 36409
" />
<path d="M50905 35937
L50433 36409
" />
<path d="M50669 35937
L50669 36409
" />
<path d="M50433 36173
L50905 36173
" />
<path d="M50937 51595
L51409 52067
" />
<path d="M51409 51595
L50937 52067
" />
<path d="M51173 51595
L51173 52067
" />
<path d="M50937 51831
L51409 51831
" />
<path d="M50937 52933
L51409 53405
" />
<path d="M51409 52933
L50937 53405
" />
<path d="M51173 52933
L51173 53405
" />
<path d="M50937 53169
L51409 53169
" />
<path d="M50937 59595
L51409 60067
" />
<path d="M51409 59595
L50937 60067
" />
<path d="M51173 59595
L51173 60067
" />
<path d="M50937 59831
L51409 59831
" />
<path d="M50937 60933
L51409 61405
" />
<path d="M51409 60933
L50937 61405
" />
<path d="M51173 60933
L51173 61405
" />
<path d="M50937 61169
L51409 61169
" />
<path d="M51103 37315
L51575 37787
" />
<path d="M51575 37315
L51103 37787
" />
<path d="M51339 37315
L51339 37787
" />
<path d="M51103 37551
L51575 37551
" />
<path d="M52315 50925
L52787 51397
" />
<path d="M52787 50925
L52315 51397
" />
<path d="M52551 50925
L52551 51397
" />
<path d="M52315 51161
L52787 51161
" />
<path d="M52315 52264
L52787 52736
" />
<path d="M52787 52264
L52315 52736
" />
<path d="M52551 52264
L52551 52736
" />
<path d="M52315 52500
L52787 52500
" />
<path d="M52315 53603
L52787 54075
" />
<path d="M52787 53603
L52315 54075
" />
<path d="M52551 53603
L52551 54075
" />
<path d="M52315 53839
L52787 53839
" />
<path d="M52315 58925
L52787 59397
" />
<path d="M52787 58925
L52315 59397
" />
<path d="M52551 58925
L52551 59397
" />
<path d="M52315 59161
L52787 59161
" />
<path d="M52315 60264
L52787 60736
" />
<path d="M52787 60264
L52315 60736
" />
<path d="M52551 60264
L52551 60736
" />
<path d="M52315 60500
L52787 60500
" />
<path d="M52315 61603
L52787 62075
" />
<path d="M52787 61603
L52315 62075
" />
<path d="M52551 61603
L52551 62075
" />
<path d="M52315 61839
L52787 61839
" />
<path d="M56425 37315
L56897 37787
" />
<path d="M56897 37315
L56425 37787
" />
<path d="M56661 37315
L56661 37787
" />
<path d="M56425 37551
L56897 37551
" />
<path d="M57095 35937
L57567 36409
" />
<path d="M57567 35937
L57095 36409
" />
<path d="M57331 35937
L57331 36409
" />
<path d="M57095 36173
L57567 36173
" />
<path d="M57764 37315
L58236 37787
" />
<path d="M58236 37315
L57764 37787
" />
<path d="M58000 37315
L58000 37787
" />
<path d="M57764 37551
L58236 37551
" />
<path d="M58433 35937
L58905 36409
" />
<path d="M58905 35937
L58433 36409
" />
<path d="M58669 35937
L58669 36409
" />
<path d="M58433 36173
L58905 36173
" />
<path d="M59103 37315
L59575 37787
" />
<path d="M59575 37315
L59103 37787
" />
<path d="M59339 37315
L59339 37787
" />
<path d="M59103 37551
L59575 37551
" />
<path d="M27293 17451
L27824 17982
" />
<path d="M27824 17451
L27293 17982
" />
<polyline fill="none;"
points="27746,17904
27746,17528
27371,17528
27371,17904
27746,17904
" /> 
<path d="M27293 25325
L27824 25856
" />
<path d="M27824 25325
L27293 25856
" />
<polyline fill="none;"
points="27746,25778
27746,25402
27371,25402
27371,25778
27746,25778
" /> 
<path d="M27293 33199
L27824 33730
" />
<path d="M27824 33199
L27293 33730
" />
<polyline fill="none;"
points="27746,33652
27746,33276
27371,33276
27371,33652
27746,33652
" /> 
<path d="M29261 17451
L29792 17982
" />
<path d="M29792 17451
L29261 17982
" />
<polyline fill="none;"
points="29714,17904
29714,17528
29339,17528
29339,17904
29714,17904
" /> 
<path d="M29261 25325
L29792 25856
" />
<path d="M29792 25325
L29261 25856
" />
<polyline fill="none;"
points="29714,25778
29714,25402
29339,25402
29339,25778
29714,25778
" /> 
<path d="M29261 33199
L29792 33730
" />
<path d="M29792 33199
L29261 33730
" />
<polyline fill="none;"
points="29714,33652
29714,33276
29339,33276
29339,33652
29714,33652
" /> 
<path d="M33199 17451
L33730 17982
" />
<path d="M33730 17451
L33199 17982
" />
<polyline fill="none;"
points="33652,17904
33652,17528
33277,17528
33277,17904
33652,17904
" /> 
<path d="M33199 25325
L33730 25856
" />
<path d="M33730 25325
L33199 25856
" />
<polyline fill="none;"
points="33652,25778
33652,25402
33277,25402
33277,25778
33652,25778
" /> 
<path d="M33199 33199
L33730 33730
" />
<path d="M33730 33199
L33199 33730
" />
<polyline fill="none;"
points="33652,33652
33652,33276
33277,33276
33277,33652
33652,33652
" /> 
<path d="M35167 17451
L35698 17982
" />
<path d="M35698 17451
L35167 17982
" />
<polyline fill="none;"
points="35620,17904
35620,17528
35245,17528
35245,17904
35620,17904
" /> 
<path d="M35167 25325
L35698 25856
" />
<path d="M35698 25325
L35167 25856
" />
<polyline fill="none;"
points="35620,25778
35620,25402
35245,25402
35245,25778
35620,25778
" /> 
<path d="M35167 33199
L35698 33730
" />
<path d="M35698 33199
L35167 33730
" />
<polyline fill="none;"
points="35620,33652
35620,33276
35245,33276
35245,33652
35620,33652
" /> 
<path d="M27314 10629
L28102 11417
" />
<path d="M28102 10629
L27314 11417
" />
<polyline fill="none;"
points="27708,11417
28102,11023
27708,10629
27314,11023
27708,11417
" /> 
<path d="M28314 11629
L29102 12417
" />
<path d="M29102 11629
L28314 12417
" />
<polyline fill="none;"
points="28708,12417
29102,12023
28708,11629
28314,12023
28708,12417
" /> 
<path d="M29214 6629
L30002 7417
" />
<path d="M30002 6629
L29214 7417
" />
<polyline fill="none;"
points="29608,7417
30002,7023
29608,6629
29214,7023
29608,7417
" /> 
<path d="M30314 10629
L31102 11417
" />
<path d="M31102 10629
L30314 11417
" />
<polyline fill="none;"
points="30708,11417
31102,11023
30708,10629
30314,11023
30708,11417
" /> 
<path d="M31414 6629
L32202 7417
" />
<path d="M32202 6629
L31414 7417
" />
<polyline fill="none;"
points="31808,7417
32202,7023
31808,6629
31414,7023
31808,7417
" /> 
<path d="M32314 11629
L33102 12417
" />
<path d="M33102 11629
L32314 12417
" />
<polyline fill="none;"
points="32708,12417
33102,12023
32708,11629
32314,12023
32708,12417
" /> 
<path d="M33314 10629
L34102 11417
" />
<path d="M34102 10629
L33314 11417
" />
<polyline fill="none;"
points="33708,11417
34102,11023
33708,10629
33314,11023
33708,11417
" /> 
<path d="M69094 19424
L69094 20290
" />
<path d="M68661 19857
L69527 19857
" />
<circle cx="69094.5" cy="19857.5" r="433.071" /> 
<path d="M69094 51924
L69094 52790
" />
<path d="M68661 52357
L69527 52357
" />
<circle cx="69094.5" cy="52357.5" r="433.071" /> 
<path d="M88094 19924
L88094 20790
" />
<path d="M87661 20357
L88527 20357
" />
<circle cx="88094.5" cy="20357.5" r="433.071" /> 
<path d="M88094 49424
L88094 50290
" />
<path d="M87661 49857
L88527 49857
" />
<circle cx="88094.5" cy="49857.5" r="433.071" /> 
<polyline fill="none;"
points="37432,14203
37432,13355
36583,13355
36583,14203
37432,14203
" /> 
<circle cx="37007.9" cy="13779.5" r="600" /> 
<polyline fill="none;"
points="37432,58298
37432,57449
36583,57449
36583,58298
37432,58298
" /> 
<circle cx="37007.9" cy="57874" r="600" /> 
<polyline fill="none;"
points="93140,14203
93140,13355
92292,13355
92292,14203
93140,14203
" /> 
<circle cx="92716.5" cy="13779.5" r="600" /> 
<polyline fill="none;"
points="93140,58298
93140,57449
92292,57449
92292,58298
93140,58298
" /> 
<circle cx="92716.5" cy="57874" r="600" /> 
</g>
<g style="fill:#000000; fill-opacity:0.0; 
stroke:#000000; stroke-width:118.11; stroke-opacity:1; 
stroke-linecap:round; stroke-linejoin:round;">
<path d="M25039 66863
L25039 65681
L25320 65681
L25489 65738
L25601 65850
L25657 65963
L25714 66188
L25714 66356
L25657 66581
L25601 66694
L25489 66806
L25320 66863
L25039 66863
" />
<path d="M26220 66863
L26220 66075
" />
<path d="M26220 66300
L26276 66188
L26332 66131
L26445 66075
L26557 66075
" />
<path d="M26951 66863
L26951 66075
" />
<path d="M26951 65681
L26895 65738
L26951 65794
L27007 65738
L26951 65681
L26951 65794
" />
<path d="M27682 66863
L27570 66806
L27513 66694
L27513 65681
" />
<path d="M28301 66863
L28188 66806
L28132 66694
L28132 65681
" />
<path d="M29651 66863
L29651 65681
L30044 66525
L30438 65681
L30438 66863
" />
<path d="M31507 66863
L31507 66244
L31450 66131
L31338 66075
L31113 66075
L31000 66131
" />
<path d="M31507 66806
L31394 66863
L31113 66863
L31000 66806
L30944 66694
L30944 66581
L31000 66469
L31113 66413
L31394 66413
L31507 66356
" />
<path d="M32069 66075
L32069 67256
" />
<path d="M32069 66131
L32181 66075
L32406 66075
L32519 66131
L32575 66188
L32631 66300
L32631 66638
L32575 66750
L32519 66806
L32406 66863
L32181 66863
L32069 66806
" />
<path d="M33138 66750
L33194 66806
L33138 66863
L33081 66806
L33138 66750
L33138 66863
" />
<path d="M33138 66131
L33194 66188
L33138 66244
L33081 66188
L33138 66131
L33138 66244
" />
<path d="M23812 68730
L23970 68887
" />
<path d="M23970 68730
L23812 68887
" />
<path d="M25264 68162
L25376 68162
L25489 68218
L25545 68274
L25601 68387
L25657 68612
L25657 68893
L25601 69118
L25545 69230
L25489 69287
L25376 69343
L25264 69343
L25151 69287
L25095 69230
L25039 69118
L24982 68893
L24982 68612
L25039 68387
L25095 68274
L25151 68218
L25264 68162
" />
<path d="M26163 69230
L26220 69287
L26163 69343
L26107 69287
L26163 69230
L26163 69343
" />
<path d="M27232 68555
L27232 69343
" />
<path d="M26951 68106
L26670 68949
L27401 68949
" />
<path d="M28076 68162
L28188 68162
L28301 68218
L28357 68274
L28413 68387
L28469 68612
L28469 68893
L28413 69118
L28357 69230
L28301 69287
L28188 69343
L28076 69343
L27963 69287
L27907 69230
L27851 69118
L27794 68893
L27794 68612
L27851 68387
L27907 68274
L27963 68218
L28076 68162
" />
<path d="M28976 69343
L28976 68555
" />
<path d="M28976 68668
L29032 68612
L29144 68555
L29313 68555
L29426 68612
L29482 68724
L29482 69343
" />
<path d="M29482 68724
L29538 68612
L29651 68555
L29819 68555
L29932 68612
L29988 68724
L29988 69343
" />
<path d="M30550 69343
L30550 68555
" />
<path d="M30550 68668
L30607 68612
L30719 68555
L30888 68555
L31000 68612
L31057 68724
L31057 69343
" />
<path d="M31057 68724
L31113 68612
L31225 68555
L31394 68555
L31507 68612
L31563 68724
L31563 69343
" />
<path d="M33869 68106
L32856 69624
" />
<path d="M35387 68162
L35500 68162
L35612 68218
L35669 68274
L35725 68387
L35781 68612
L35781 68893
L35725 69118
L35669 69230
L35612 69287
L35500 69343
L35387 69343
L35275 69287
L35219 69230
L35162 69118
L35106 68893
L35106 68612
L35162 68387
L35219 68274
L35275 68218
L35387 68162
" />
<path d="M36287 69230
L36343 69287
L36287 69343
L36231 69287
L36287 69230
L36287 69343
" />
<path d="M37075 68162
L37187 68162
L37300 68218
L37356 68274
L37412 68387
L37468 68612
L37468 68893
L37412 69118
L37356 69230
L37300 69287
L37187 69343
L37075 69343
L36962 69287
L36906 69230
L36850 69118
L36793 68893
L36793 68612
L36850 68387
L36906 68274
L36962 68218
L37075 68162
" />
<path d="M38593 69343
L37918 69343
" />
<path d="M38256 69343
L38256 68162
L38143 68330
L38031 68443
L37918 68499
" />
<path d="M39606 68162
L39381 68162
L39268 68218
L39212 68274
L39099 68443
L39043 68668
L39043 69118
L39099 69230
L39156 69287
L39268 69343
L39493 69343
L39606 69287
L39662 69230
L39718 69118
L39718 68837
L39662 68724
L39606 68668
L39493 68612
L39268 68612
L39156 68668
L39099 68724
L39043 68837
" />
<path d="M40168 68162
L40168 68387
" />
<path d="M40618 68162
L40618 68387
" />
<path d="M42361 69793
L42305 69737
L42193 69568
L42136 69455
L42080 69287
L42024 69005
L42024 68780
L42080 68499
L42136 68330
L42193 68218
L42305 68049
L42361 67993
" />
<path d="M42699 68162
L43430 68162
L43036 68612
L43205 68612
L43318 68668
L43374 68724
L43430 68837
L43430 69118
L43374 69230
L43318 69287
L43205 69343
L42868 69343
L42755 69287
L42699 69230
" />
<path d="M43992 69343
L44217 69343
L44330 69287
L44386 69230
L44499 69062
L44555 68837
L44555 68387
L44499 68274
L44442 68218
L44330 68162
L44105 68162
L43992 68218
L43936 68274
L43880 68387
L43880 68668
L43936 68780
L43992 68837
L44105 68893
L44330 68893
L44442 68837
L44499 68780
L44555 68668
" />
<path d="M45961 69343
L45961 68162
" />
<path d="M46467 69343
L46467 68724
L46411 68612
L46298 68555
L46130 68555
L46017 68612
L45961 68668
" />
<path d="M47198 69343
L47086 69287
L47030 69230
L46973 69118
L46973 68780
L47030 68668
L47086 68612
L47198 68555
L47367 68555
L47480 68612
L47536 68668
L47592 68780
L47592 69118
L47536 69230
L47480 69287
L47367 69343
L47198 69343
" />
<path d="M48267 69343
L48154 69287
L48098 69174
L48098 68162
" />
<path d="M49167 69287
L49054 69343
L48829 69343
L48717 69287
L48661 69174
L48661 68724
L48717 68612
L48829 68555
L49054 68555
L49167 68612
L49223 68724
L49223 68837
L48661 68949
" />
<path d="M49673 69287
L49785 69343
L50010 69343
L50123 69287
L50179 69174
L50179 69118
L50123 69005
L50010 68949
L49842 68949
L49729 68893
L49673 68780
L49673 68724
L49729 68612
L49842 68555
L50010 68555
L50123 68612
" />
<path d="M50573 69793
L50629 69737
L50742 69568
L50798 69455
L50854 69287
L50910 69005
L50910 68780
L50854 68499
L50798 68330
L50742 68218
L50629 68049
L50573 67993
" />
<circle cx="23813" cy="70368.1" r="157.48" /> 
<path d="M25264 69721
L25376 69721
L25489 69777
L25545 69833
L25601 69946
L25657 70171
L25657 70452
L25601 70677
L25545 70789
L25489 70846
L25376 70902
L25264 70902
L25151 70846
L25095 70789
L25039 70677
L24982 70452
L24982 70171
L25039 69946
L25095 69833
L25151 69777
L25264 69721
" />
<path d="M26163 70789
L26220 70846
L26163 70902
L26107 70846
L26163 70789
L26163 70902
" />
<path d="M26895 70227
L26782 70171
L26726 70115
L26670 70002
L26670 69946
L26726 69833
L26782 69777
L26895 69721
L27120 69721
L27232 69777
L27288 69833
L27345 69946
L27345 70002
L27288 70115
L27232 70171
L27120 70227
L26895 70227
L26782 70283
L26726 70339
L26670 70452
L26670 70677
L26726 70789
L26782 70846
L26895 70902
L27120 70902
L27232 70846
L27288 70789
L27345 70677
L27345 70452
L27288 70339
L27232 70283
L27120 70227
" />
<path d="M28076 69721
L28188 69721
L28301 69777
L28357 69833
L28413 69946
L28469 70171
L28469 70452
L28413 70677
L28357 70789
L28301 70846
L28188 70902
L28076 70902
L27963 70846
L27907 70789
L27851 70677
L27794 70452
L27794 70171
L27851 69946
L27907 69833
L27963 69777
L28076 69721
" />
<path d="M28976 70902
L28976 70115
" />
<path d="M28976 70227
L29032 70171
L29144 70115
L29313 70115
L29426 70171
L29482 70283
L29482 70902
" />
<path d="M29482 70283
L29538 70171
L29651 70115
L29819 70115
L29932 70171
L29988 70283
L29988 70902
" />
<path d="M30550 70902
L30550 70115
" />
<path d="M30550 70227
L30607 70171
L30719 70115
L30888 70115
L31000 70171
L31057 70283
L31057 70902
" />
<path d="M31057 70283
L31113 70171
L31225 70115
L31394 70115
L31507 70171
L31563 70283
L31563 70902
" />
<path d="M33869 69665
L32856 71183
" />
<path d="M35387 69721
L35500 69721
L35612 69777
L35669 69833
L35725 69946
L35781 70171
L35781 70452
L35725 70677
L35669 70789
L35612 70846
L35500 70902
L35387 70902
L35275 70846
L35219 70789
L35162 70677
L35106 70452
L35106 70171
L35162 69946
L35219 69833
L35275 69777
L35387 69721
" />
<path d="M36287 70789
L36343 70846
L36287 70902
L36231 70846
L36287 70789
L36287 70902
" />
<path d="M37075 69721
L37187 69721
L37300 69777
L37356 69833
L37412 69946
L37468 70171
L37468 70452
L37412 70677
L37356 70789
L37300 70846
L37187 70902
L37075 70902
L36962 70846
L36906 70789
L36850 70677
L36793 70452
L36793 70171
L36850 69946
L36906 69833
L36962 69777
L37075 69721
" />
<path d="M37862 69721
L38593 69721
L38199 70171
L38368 70171
L38481 70227
L38537 70283
L38593 70396
L38593 70677
L38537 70789
L38481 70846
L38368 70902
L38031 70902
L37918 70846
L37862 70789
" />
<path d="M39718 70902
L39043 70902
" />
<path d="M39381 70902
L39381 69721
L39268 69890
L39156 70002
L39043 70058
" />
<path d="M40168 69721
L40168 69946
" />
<path d="M40618 69721
L40618 69946
" />
<path d="M42361 71352
L42305 71296
L42193 71127
L42136 71014
L42080 70846
L42024 70564
L42024 70339
L42080 70058
L42136 69890
L42193 69777
L42305 69608
L42361 69552
" />
<path d="M42699 69721
L43486 69721
L42980 70902
" />
<path d="M44161 69721
L44274 69721
L44386 69777
L44442 69833
L44499 69946
L44555 70171
L44555 70452
L44499 70677
L44442 70789
L44386 70846
L44274 70902
L44161 70902
L44049 70846
L43992 70789
L43936 70677
L43880 70452
L43880 70171
L43936 69946
L43992 69833
L44049 69777
L44161 69721
" />
<path d="M45961 70902
L45961 69721
" />
<path d="M46467 70902
L46467 70283
L46411 70171
L46298 70115
L46130 70115
L46017 70171
L45961 70227
" />
<path d="M47198 70902
L47086 70846
L47030 70789
L46973 70677
L46973 70339
L47030 70227
L47086 70171
L47198 70115
L47367 70115
L47480 70171
L47536 70227
L47592 70339
L47592 70677
L47536 70789
L47480 70846
L47367 70902
L47198 70902
" />
<path d="M48267 70902
L48154 70846
L48098 70733
L48098 69721
" />
<path d="M49167 70846
L49054 70902
L48829 70902
L48717 70846
L48661 70733
L48661 70283
L48717 70171
L48829 70115
L49054 70115
L49167 70171
L49223 70283
L49223 70396
L48661 70508
" />
<path d="M49673 70846
L49785 70902
L50010 70902
L50123 70846
L50179 70733
L50179 70677
L50123 70564
L50010 70508
L49842 70508
L49729 70452
L49673 70339
L49673 70283
L49729 70171
L49842 70115
L50010 70115
L50123 70171
" />
<path d="M50573 71352
L50629 71296
L50742 71127
L50798 71014
L50854 70846
L50910 70564
L50910 70339
L50854 70058
L50798 69890
L50742 69777
L50629 69608
L50573 69552
" />
<path d="M23810 71767
L23810 72087
" />
<path d="M23650 71927
L23970 71927
" />
<path d="M25264 71280
L25376 71280
L25489 71336
L25545 71392
L25601 71505
L25657 71730
L25657 72011
L25601 72236
L25545 72348
L25489 72405
L25376 72461
L25264 72461
L25151 72405
L25095 72348
L25039 72236
L24982 72011
L24982 71730
L25039 71505
L25095 71392
L25151 71336
L25264 71280
" />
<path d="M26163 72348
L26220 72405
L26163 72461
L26107 72405
L26163 72348
L26163 72461
" />
<path d="M26895 71786
L26782 71730
L26726 71674
L26670 71561
L26670 71505
L26726 71392
L26782 71336
L26895 71280
L27120 71280
L27232 71336
L27288 71392
L27345 71505
L27345 71561
L27288 71674
L27232 71730
L27120 71786
L26895 71786
L26782 71842
L26726 71899
L26670 72011
L26670 72236
L26726 72348
L26782 72405
L26895 72461
L27120 72461
L27232 72405
L27288 72348
L27345 72236
L27345 72011
L27288 71899
L27232 71842
L27120 71786
" />
<path d="M28469 72461
L27794 72461
" />
<path d="M28132 72461
L28132 71280
L28019 71449
L27907 71561
L27794 71617
" />
<path d="M28976 72461
L28976 71674
" />
<path d="M28976 71786
L29032 71730
L29144 71674
L29313 71674
L29426 71730
L29482 71842
L29482 72461
" />
<path d="M29482 71842
L29538 71730
L29651 71674
L29819 71674
L29932 71730
L29988 71842
L29988 72461
" />
<path d="M30550 72461
L30550 71674
" />
<path d="M30550 71786
L30607 71730
L30719 71674
L30888 71674
L31000 71730
L31057 71842
L31057 72461
" />
<path d="M31057 71842
L31113 71730
L31225 71674
L31394 71674
L31507 71730
L31563 71842
L31563 72461
" />
<path d="M33869 71224
L32856 72742
" />
<path d="M35387 71280
L35500 71280
L35612 71336
L35669 71392
L35725 71505
L35781 71730
L35781 72011
L35725 72236
L35669 72348
L35612 72405
L35500 72461
L35387 72461
L35275 72405
L35219 72348
L35162 72236
L35106 72011
L35106 71730
L35162 71505
L35219 71392
L35275 71336
L35387 71280
" />
<path d="M36287 72348
L36343 72405
L36287 72461
L36231 72405
L36287 72348
L36287 72461
" />
<path d="M37075 71280
L37187 71280
L37300 71336
L37356 71392
L37412 71505
L37468 71730
L37468 72011
L37412 72236
L37356 72348
L37300 72405
L37187 72461
L37075 72461
L36962 72405
L36906 72348
L36850 72236
L36793 72011
L36793 71730
L36850 71505
L36906 71392
L36962 71336
L37075 71280
" />
<path d="M37862 71280
L38593 71280
L38199 71730
L38368 71730
L38481 71786
L38537 71842
L38593 71955
L38593 72236
L38537 72348
L38481 72405
L38368 72461
L38031 72461
L37918 72405
L37862 72348
" />
<path d="M39043 71392
L39099 71336
L39212 71280
L39493 71280
L39606 71336
L39662 71392
L39718 71505
L39718 71617
L39662 71786
L38987 72461
L39718 72461
" />
<path d="M40168 71280
L40168 71505
" />
<path d="M40618 71280
L40618 71505
" />
<path d="M42361 72911
L42305 72855
L42193 72686
L42136 72573
L42080 72405
L42024 72124
L42024 71899
L42080 71617
L42136 71449
L42193 71336
L42305 71167
L42361 71111
" />
<path d="M42868 72461
L43093 72461
L43205 72405
L43261 72348
L43374 72180
L43430 71955
L43430 71505
L43374 71392
L43318 71336
L43205 71280
L42980 71280
L42868 71336
L42811 71392
L42755 71505
L42755 71786
L42811 71899
L42868 71955
L42980 72011
L43205 72011
L43318 71955
L43374 71899
L43430 71786
" />
<path d="M43824 71280
L44611 71280
L44105 72461
" />
<path d="M45961 72461
L45961 71280
" />
<path d="M46467 72461
L46467 71842
L46411 71730
L46298 71674
L46130 71674
L46017 71730
L45961 71786
" />
<path d="M47198 72461
L47086 72405
L47030 72348
L46973 72236
L46973 71899
L47030 71786
L47086 71730
L47198 71674
L47367 71674
L47480 71730
L47536 71786
L47592 71899
L47592 72236
L47536 72348
L47480 72405
L47367 72461
L47198 72461
" />
<path d="M48267 72461
L48154 72405
L48098 72292
L48098 71280
" />
<path d="M49167 72405
L49054 72461
L48829 72461
L48717 72405
L48661 72292
L48661 71842
L48717 71730
L48829 71674
L49054 71674
L49167 71730
L49223 71842
L49223 71955
L48661 72067
" />
<path d="M49673 72405
L49785 72461
L50010 72461
L50123 72405
L50179 72292
L50179 72236
L50123 72124
L50010 72067
L49842 72067
L49729 72011
L49673 71899
L49673 71842
L49729 71730
L49842 71674
L50010 71674
L50123 71730
" />
<path d="M50573 72911
L50629 72855
L50742 72686
L50798 72573
L50854 72405
L50910 72124
L50910 71899
L50854 71617
L50798 71449
L50742 71336
L50629 71167
L50573 71111
" />
<polyline fill="none;"
points="23918,73611
23918,73360
23668,73360
23668,73611
23918,73611
" /> 
<path d="M25264 72839
L25376 72839
L25489 72895
L25545 72951
L25601 73064
L25657 73289
L25657 73570
L25601 73795
L25545 73908
L25489 73964
L25376 74020
L25264 74020
L25151 73964
L25095 73908
L25039 73795
L24982 73570
L24982 73289
L25039 73064
L25095 72951
L25151 72895
L25264 72839
" />
<path d="M26163 73908
L26220 73964
L26163 74020
L26107 73964
L26163 73908
L26163 74020
" />
<path d="M26782 74020
L27007 74020
L27120 73964
L27176 73908
L27288 73739
L27345 73514
L27345 73064
L27288 72951
L27232 72895
L27120 72839
L26895 72839
L26782 72895
L26726 72951
L26670 73064
L26670 73345
L26726 73458
L26782 73514
L26895 73570
L27120 73570
L27232 73514
L27288 73458
L27345 73345
" />
<path d="M28076 72839
L28188 72839
L28301 72895
L28357 72951
L28413 73064
L28469 73289
L28469 73570
L28413 73795
L28357 73908
L28301 73964
L28188 74020
L28076 74020
L27963 73964
L27907 73908
L27851 73795
L27794 73570
L27794 73289
L27851 73064
L27907 72951
L27963 72895
L28076 72839
" />
<path d="M28976 74020
L28976 73233
" />
<path d="M28976 73345
L29032 73289
L29144 73233
L29313 73233
L29426 73289
L29482 73401
L29482 74020
" />
<path d="M29482 73401
L29538 73289
L29651 73233
L29819 73233
L29932 73289
L29988 73401
L29988 74020
" />
<path d="M30550 74020
L30550 73233
" />
<path d="M30550 73345
L30607 73289
L30719 73233
L30888 73233
L31000 73289
L31057 73401
L31057 74020
" />
<path d="M31057 73401
L31113 73289
L31225 73233
L31394 73233
L31507 73289
L31563 73401
L31563 74020
" />
<path d="M33869 72783
L32856 74301
" />
<path d="M35387 72839
L35500 72839
L35612 72895
L35669 72951
L35725 73064
L35781 73289
L35781 73570
L35725 73795
L35669 73908
L35612 73964
L35500 74020
L35387 74020
L35275 73964
L35219 73908
L35162 73795
L35106 73570
L35106 73289
L35162 73064
L35219 72951
L35275 72895
L35387 72839
" />
<path d="M36287 73908
L36343 73964
L36287 74020
L36231 73964
L36287 73908
L36287 74020
" />
<path d="M37075 72839
L37187 72839
L37300 72895
L37356 72951
L37412 73064
L37468 73289
L37468 73570
L37412 73795
L37356 73908
L37300 73964
L37187 74020
L37075 74020
L36962 73964
L36906 73908
L36850 73795
L36793 73570
L36793 73289
L36850 73064
L36906 72951
L36962 72895
L37075 72839
" />
<path d="M37862 72839
L38593 72839
L38199 73289
L38368 73289
L38481 73345
L38537 73401
L38593 73514
L38593 73795
L38537 73908
L38481 73964
L38368 74020
L38031 74020
L37918 73964
L37862 73908
" />
<path d="M39662 72839
L39099 72839
L39043 73401
L39099 73345
L39212 73289
L39493 73289
L39606 73345
L39662 73401
L39718 73514
L39718 73795
L39662 73908
L39606 73964
L39493 74020
L39212 74020
L39099 73964
L39043 73908
" />
<path d="M40168 72839
L40168 73064
" />
<path d="M40618 72839
L40618 73064
" />
<path d="M42361 74470
L42305 74414
L42193 74245
L42136 74133
L42080 73964
L42024 73683
L42024 73458
L42080 73176
L42136 73008
L42193 72895
L42305 72726
L42361 72670
" />
<path d="M43318 73233
L43318 74020
" />
<path d="M43036 72783
L42755 73626
L43486 73626
" />
<path d="M44836 74020
L44836 72839
" />
<path d="M45342 74020
L45342 73401
L45286 73289
L45174 73233
L45005 73233
L44892 73289
L44836 73345
" />
<path d="M46073 74020
L45961 73964
L45905 73908
L45848 73795
L45848 73458
L45905 73345
L45961 73289
L46073 73233
L46242 73233
L46355 73289
L46411 73345
L46467 73458
L46467 73795
L46411 73908
L46355 73964
L46242 74020
L46073 74020
" />
<path d="M47142 74020
L47030 73964
L46973 73851
L46973 72839
" />
<path d="M48042 73964
L47929 74020
L47705 74020
L47592 73964
L47536 73851
L47536 73401
L47592 73289
L47705 73233
L47929 73233
L48042 73289
L48098 73401
L48098 73514
L47536 73626
" />
<path d="M48548 73964
L48661 74020
L48886 74020
L48998 73964
L49054 73851
L49054 73795
L48998 73683
L48886 73626
L48717 73626
L48604 73570
L48548 73458
L48548 73401
L48604 73289
L48717 73233
L48886 73233
L48998 73289
" />
<path d="M49448 74470
L49504 74414
L49617 74245
L49673 74133
L49729 73964
L49785 73683
L49785 73458
L49729 73176
L49673 73008
L49617 72895
L49504 72726
L49448 72670
" />
<polyline fill="none;"
points="23773,75242
23970,75045
23773,74848
23576,75045
23773,75242
" /> 
<path d="M25657 75579
L24982 75579
" />
<path d="M25320 75579
L25320 74398
L25207 74567
L25095 74679
L24982 74735
" />
<path d="M26163 75467
L26220 75523
L26163 75579
L26107 75523
L26163 75467
L26163 75579
" />
<path d="M26951 74398
L27063 74398
L27176 74454
L27232 74510
L27288 74623
L27345 74848
L27345 75129
L27288 75354
L27232 75467
L27176 75523
L27063 75579
L26951 75579
L26838 75523
L26782 75467
L26726 75354
L26670 75129
L26670 74848
L26726 74623
L26782 74510
L26838 74454
L26951 74398
" />
<path d="M28076 74398
L28188 74398
L28301 74454
L28357 74510
L28413 74623
L28469 74848
L28469 75129
L28413 75354
L28357 75467
L28301 75523
L28188 75579
L28076 75579
L27963 75523
L27907 75467
L27851 75354
L27794 75129
L27794 74848
L27851 74623
L27907 74510
L27963 74454
L28076 74398
" />
<path d="M28976 75579
L28976 74792
" />
<path d="M28976 74904
L29032 74848
L29144 74792
L29313 74792
L29426 74848
L29482 74960
L29482 75579
" />
<path d="M29482 74960
L29538 74848
L29651 74792
L29819 74792
L29932 74848
L29988 74960
L29988 75579
" />
<path d="M30550 75579
L30550 74792
" />
<path d="M30550 74904
L30607 74848
L30719 74792
L30888 74792
L31000 74848
L31057 74960
L31057 75579
" />
<path d="M31057 74960
L31113 74848
L31225 74792
L31394 74792
L31507 74848
L31563 74960
L31563 75579
" />
<path d="M33869 74342
L32856 75860
" />
<path d="M35387 74398
L35500 74398
L35612 74454
L35669 74510
L35725 74623
L35781 74848
L35781 75129
L35725 75354
L35669 75467
L35612 75523
L35500 75579
L35387 75579
L35275 75523
L35219 75467
L35162 75354
L35106 75129
L35106 74848
L35162 74623
L35219 74510
L35275 74454
L35387 74398
" />
<path d="M36287 75467
L36343 75523
L36287 75579
L36231 75523
L36287 75467
L36287 75579
" />
<path d="M37075 74398
L37187 74398
L37300 74454
L37356 74510
L37412 74623
L37468 74848
L37468 75129
L37412 75354
L37356 75467
L37300 75523
L37187 75579
L37075 75579
L36962 75523
L36906 75467
L36850 75354
L36793 75129
L36793 74848
L36850 74623
L36906 74510
L36962 74454
L37075 74398
" />
<path d="M37862 74398
L38593 74398
L38199 74848
L38368 74848
L38481 74904
L38537 74960
L38593 75073
L38593 75354
L38537 75467
L38481 75523
L38368 75579
L38031 75579
L37918 75523
L37862 75467
" />
<path d="M39156 75579
L39381 75579
L39493 75523
L39549 75467
L39662 75298
L39718 75073
L39718 74623
L39662 74510
L39606 74454
L39493 74398
L39268 74398
L39156 74454
L39099 74510
L39043 74623
L39043 74904
L39099 75017
L39156 75073
L39268 75129
L39493 75129
L39606 75073
L39662 75017
L39718 74904
" />
<path d="M40168 74398
L40168 74623
" />
<path d="M40618 74398
L40618 74623
" />
<path d="M42361 76029
L42305 75973
L42193 75804
L42136 75692
L42080 75523
L42024 75242
L42024 75017
L42080 74735
L42136 74567
L42193 74454
L42305 74285
L42361 74229
" />
<path d="M43430 75579
L42755 75579
" />
<path d="M43093 75579
L43093 74398
L42980 74567
L42868 74679
L42755 74735
" />
<path d="M43992 75579
L44217 75579
L44330 75523
L44386 75467
L44499 75298
L44555 75073
L44555 74623
L44499 74510
L44442 74454
L44330 74398
L44105 74398
L43992 74454
L43936 74510
L43880 74623
L43880 74904
L43936 75017
L43992 75073
L44105 75129
L44330 75129
L44442 75073
L44499 75017
L44555 74904
" />
<path d="M45961 75579
L45961 74398
" />
<path d="M46467 75579
L46467 74960
L46411 74848
L46298 74792
L46130 74792
L46017 74848
L45961 74904
" />
<path d="M47198 75579
L47086 75523
L47030 75467
L46973 75354
L46973 75017
L47030 74904
L47086 74848
L47198 74792
L47367 74792
L47480 74848
L47536 74904
L47592 75017
L47592 75354
L47536 75467
L47480 75523
L47367 75579
L47198 75579
" />
<path d="M48267 75579
L48154 75523
L48098 75410
L48098 74398
" />
<path d="M49167 75523
L49054 75579
L48829 75579
L48717 75523
L48661 75410
L48661 74960
L48717 74848
L48829 74792
L49054 74792
L49167 74848
L49223 74960
L49223 75073
L48661 75185
" />
<path d="M49673 75523
L49785 75579
L50010 75579
L50123 75523
L50179 75410
L50179 75354
L50123 75242
L50010 75185
L49842 75185
L49729 75129
L49673 75017
L49673 74960
L49729 74848
L49842 74792
L50010 74792
L50123 74848
" />
<path d="M50573 76029
L50629 75973
L50742 75804
L50798 75692
L50854 75523
L50910 75242
L50910 75017
L50854 74735
L50798 74567
L50742 74454
L50629 74285
L50573 74229
" />
<path d="M23570 76404
L23970 76804
" />
<path d="M23970 76404
L23570 76804
" />
<circle cx="23770.5" cy="76604.3" r="200" /> 
<path d="M25657 77138
L24982 77138
" />
<path d="M25320 77138
L25320 75957
L25207 76126
L25095 76238
L24982 76294
" />
<path d="M26163 77026
L26220 77082
L26163 77138
L26107 77082
L26163 77026
L26163 77138
" />
<path d="M26951 75957
L27063 75957
L27176 76013
L27232 76070
L27288 76182
L27345 76407
L27345 76688
L27288 76913
L27232 77026
L27176 77082
L27063 77138
L26951 77138
L26838 77082
L26782 77026
L26726 76913
L26670 76688
L26670 76407
L26726 76182
L26782 76070
L26838 76013
L26951 75957
" />
<path d="M27794 76070
L27851 76013
L27963 75957
L28244 75957
L28357 76013
L28413 76070
L28469 76182
L28469 76294
L28413 76463
L27738 77138
L28469 77138
" />
<path d="M28976 77138
L28976 76351
" />
<path d="M28976 76463
L29032 76407
L29144 76351
L29313 76351
L29426 76407
L29482 76519
L29482 77138
" />
<path d="M29482 76519
L29538 76407
L29651 76351
L29819 76351
L29932 76407
L29988 76519
L29988 77138
" />
<path d="M30550 77138
L30550 76351
" />
<path d="M30550 76463
L30607 76407
L30719 76351
L30888 76351
L31000 76407
L31057 76519
L31057 77138
" />
<path d="M31057 76519
L31113 76407
L31225 76351
L31394 76351
L31507 76407
L31563 76519
L31563 77138
" />
<path d="M33869 75901
L32856 77419
" />
<path d="M35387 75957
L35500 75957
L35612 76013
L35669 76070
L35725 76182
L35781 76407
L35781 76688
L35725 76913
L35669 77026
L35612 77082
L35500 77138
L35387 77138
L35275 77082
L35219 77026
L35162 76913
L35106 76688
L35106 76407
L35162 76182
L35219 76070
L35275 76013
L35387 75957
" />
<path d="M36287 77026
L36343 77082
L36287 77138
L36231 77082
L36287 77026
L36287 77138
" />
<path d="M37075 75957
L37187 75957
L37300 76013
L37356 76070
L37412 76182
L37468 76407
L37468 76688
L37412 76913
L37356 77026
L37300 77082
L37187 77138
L37075 77138
L36962 77082
L36906 77026
L36850 76913
L36793 76688
L36793 76407
L36850 76182
L36906 76070
L36962 76013
L37075 75957
" />
<path d="M38481 76351
L38481 77138
" />
<path d="M38199 75901
L37918 76744
L38649 76744
" />
<path d="M39324 75957
L39437 75957
L39549 76013
L39606 76070
L39662 76182
L39718 76407
L39718 76688
L39662 76913
L39606 77026
L39549 77082
L39437 77138
L39324 77138
L39212 77082
L39156 77026
L39099 76913
L39043 76688
L39043 76407
L39099 76182
L39156 76070
L39212 76013
L39324 75957
" />
<path d="M40168 75957
L40168 76182
" />
<path d="M40618 75957
L40618 76182
" />
<path d="M42361 77588
L42305 77532
L42193 77363
L42136 77251
L42080 77082
L42024 76801
L42024 76576
L42080 76294
L42136 76126
L42193 76013
L42305 75845
L42361 75788
" />
<path d="M43430 77138
L42755 77138
" />
<path d="M43093 77138
L43093 75957
L42980 76126
L42868 76238
L42755 76294
" />
<path d="M43992 77138
L44217 77138
L44330 77082
L44386 77026
L44499 76857
L44555 76632
L44555 76182
L44499 76070
L44442 76013
L44330 75957
L44105 75957
L43992 76013
L43936 76070
L43880 76182
L43880 76463
L43936 76576
L43992 76632
L44105 76688
L44330 76688
L44442 76632
L44499 76576
L44555 76463
" />
<path d="M44949 75957
L45680 75957
L45286 76407
L45455 76407
L45567 76463
L45624 76519
L45680 76632
L45680 76913
L45624 77026
L45567 77082
L45455 77138
L45117 77138
L45005 77082
L44949 77026
" />
<path d="M47086 77138
L47086 75957
" />
<path d="M47592 77138
L47592 76519
L47536 76407
L47423 76351
L47255 76351
L47142 76407
L47086 76463
" />
<path d="M48323 77138
L48211 77082
L48154 77026
L48098 76913
L48098 76576
L48154 76463
L48211 76407
L48323 76351
L48492 76351
L48604 76407
L48661 76463
L48717 76576
L48717 76913
L48661 77026
L48604 77082
L48492 77138
L48323 77138
" />
<path d="M49392 77138
L49279 77082
L49223 76969
L49223 75957
" />
<path d="M50292 77082
L50179 77138
L49954 77138
L49842 77082
L49785 76969
L49785 76519
L49842 76407
L49954 76351
L50179 76351
L50292 76407
L50348 76519
L50348 76632
L49785 76744
" />
<path d="M50798 77082
L50910 77138
L51135 77138
L51248 77082
L51304 76969
L51304 76913
L51248 76801
L51135 76744
L50967 76744
L50854 76688
L50798 76576
L50798 76519
L50854 76407
L50967 76351
L51135 76351
L51248 76407
" />
<path d="M51698 77588
L51754 77532
L51866 77363
L51923 77251
L51979 77082
L52035 76801
L52035 76576
L51979 76294
L51923 76126
L51866 76013
L51754 75845
L51698 75788
" />
<path d="M23498 77927
L23970 78399
" />
<path d="M23970 77927
L23498 78399
" />
<path d="M23734 77927
L23734 78399
" />
<path d="M23498 78163
L23970 78163
" />
<path d="M25657 78697
L24982 78697
" />
<path d="M25320 78697
L25320 77516
L25207 77685
L25095 77797
L24982 77854
" />
<path d="M26163 78585
L26220 78641
L26163 78697
L26107 78641
L26163 78585
L26163 78697
" />
<path d="M26670 77629
L26726 77572
L26838 77516
L27120 77516
L27232 77572
L27288 77629
L27345 77741
L27345 77854
L27288 78022
L26613 78697
L27345 78697
" />
<path d="M28076 77516
L28188 77516
L28301 77572
L28357 77629
L28413 77741
L28469 77966
L28469 78247
L28413 78472
L28357 78585
L28301 78641
L28188 78697
L28076 78697
L27963 78641
L27907 78585
L27851 78472
L27794 78247
L27794 77966
L27851 77741
L27907 77629
L27963 77572
L28076 77516
" />
<path d="M28976 78697
L28976 77910
" />
<path d="M28976 78022
L29032 77966
L29144 77910
L29313 77910
L29426 77966
L29482 78079
L29482 78697
" />
<path d="M29482 78079
L29538 77966
L29651 77910
L29819 77910
L29932 77966
L29988 78079
L29988 78697
" />
<path d="M30550 78697
L30550 77910
" />
<path d="M30550 78022
L30607 77966
L30719 77910
L30888 77910
L31000 77966
L31057 78079
L31057 78697
" />
<path d="M31057 78079
L31113 77966
L31225 77910
L31394 77910
L31507 77966
L31563 78079
L31563 78697
" />
<path d="M33869 77460
L32856 78978
" />
<path d="M35387 77516
L35500 77516
L35612 77572
L35669 77629
L35725 77741
L35781 77966
L35781 78247
L35725 78472
L35669 78585
L35612 78641
L35500 78697
L35387 78697
L35275 78641
L35219 78585
L35162 78472
L35106 78247
L35106 77966
L35162 77741
L35219 77629
L35275 77572
L35387 77516
" />
<path d="M36287 78585
L36343 78641
L36287 78697
L36231 78641
L36287 78585
L36287 78697
" />
<path d="M37075 77516
L37187 77516
L37300 77572
L37356 77629
L37412 77741
L37468 77966
L37468 78247
L37412 78472
L37356 78585
L37300 78641
L37187 78697
L37075 78697
L36962 78641
L36906 78585
L36850 78472
L36793 78247
L36793 77966
L36850 77741
L36906 77629
L36962 77572
L37075 77516
" />
<path d="M38481 77910
L38481 78697
" />
<path d="M38199 77460
L37918 78303
L38649 78303
" />
<path d="M38987 77516
L39774 77516
L39268 78697
" />
<path d="M40168 77516
L40168 77741
" />
<path d="M40618 77516
L40618 77741
" />
<path d="M42361 79147
L42305 79091
L42193 78922
L42136 78810
L42080 78641
L42024 78360
L42024 78135
L42080 77854
L42136 77685
L42193 77572
L42305 77404
L42361 77347
" />
<path d="M42755 77629
L42811 77572
L42924 77516
L43205 77516
L43318 77572
L43374 77629
L43430 77741
L43430 77854
L43374 78022
L42699 78697
L43430 78697
" />
<path d="M44161 77516
L44274 77516
L44386 77572
L44442 77629
L44499 77741
L44555 77966
L44555 78247
L44499 78472
L44442 78585
L44386 78641
L44274 78697
L44161 78697
L44049 78641
L43992 78585
L43936 78472
L43880 78247
L43880 77966
L43936 77741
L43992 77629
L44049 77572
L44161 77516
" />
<path d="M45961 78697
L45961 77516
" />
<path d="M46467 78697
L46467 78079
L46411 77966
L46298 77910
L46130 77910
L46017 77966
L45961 78022
" />
<path d="M47198 78697
L47086 78641
L47030 78585
L46973 78472
L46973 78135
L47030 78022
L47086 77966
L47198 77910
L47367 77910
L47480 77966
L47536 78022
L47592 78135
L47592 78472
L47536 78585
L47480 78641
L47367 78697
L47198 78697
" />
<path d="M48267 78697
L48154 78641
L48098 78528
L48098 77516
" />
<path d="M49167 78641
L49054 78697
L48829 78697
L48717 78641
L48661 78528
L48661 78079
L48717 77966
L48829 77910
L49054 77910
L49167 77966
L49223 78079
L49223 78191
L48661 78303
" />
<path d="M49673 78641
L49785 78697
L50010 78697
L50123 78641
L50179 78528
L50179 78472
L50123 78360
L50010 78303
L49842 78303
L49729 78247
L49673 78135
L49673 78079
L49729 77966
L49842 77910
L50010 77910
L50123 77966
" />
<path d="M50573 79147
L50629 79091
L50742 78922
L50798 78810
L50854 78641
L50910 78360
L50910 78135
L50854 77854
L50798 77685
L50742 77572
L50629 77404
L50573 77347
" />
<path d="M23439 79456
L23970 79987
" />
<path d="M23970 79456
L23439 79987
" />
<polyline fill="none;"
points="23892,79910
23892,79534
23517,79534
23517,79910
23892,79910
" /> 
<path d="M25657 80256
L24982 80256
" />
<path d="M25320 80256
L25320 79075
L25207 79244
L25095 79356
L24982 79413
" />
<path d="M26163 80144
L26220 80200
L26163 80256
L26107 80200
L26163 80144
L26163 80256
" />
<path d="M26613 79075
L27345 79075
L26951 79525
L27120 79525
L27232 79581
L27288 79638
L27345 79750
L27345 80031
L27288 80144
L27232 80200
L27120 80256
L26782 80256
L26670 80200
L26613 80144
" />
<path d="M28413 79075
L27851 79075
L27794 79638
L27851 79581
L27963 79525
L28244 79525
L28357 79581
L28413 79638
L28469 79750
L28469 80031
L28413 80144
L28357 80200
L28244 80256
L27963 80256
L27851 80200
L27794 80144
" />
<path d="M28976 80256
L28976 79469
" />
<path d="M28976 79581
L29032 79525
L29144 79469
L29313 79469
L29426 79525
L29482 79638
L29482 80256
" />
<path d="M29482 79638
L29538 79525
L29651 79469
L29819 79469
L29932 79525
L29988 79638
L29988 80256
" />
<path d="M30550 80256
L30550 79469
" />
<path d="M30550 79581
L30607 79525
L30719 79469
L30888 79469
L31000 79525
L31057 79638
L31057 80256
" />
<path d="M31057 79638
L31113 79525
L31225 79469
L31394 79469
L31507 79525
L31563 79638
L31563 80256
" />
<path d="M33869 79019
L32856 80537
" />
<path d="M35387 79075
L35500 79075
L35612 79131
L35669 79188
L35725 79300
L35781 79525
L35781 79806
L35725 80031
L35669 80144
L35612 80200
L35500 80256
L35387 80256
L35275 80200
L35219 80144
L35162 80031
L35106 79806
L35106 79525
L35162 79300
L35219 79188
L35275 79131
L35387 79075
" />
<path d="M36287 80144
L36343 80200
L36287 80256
L36231 80200
L36287 80144
L36287 80256
" />
<path d="M37075 79075
L37187 79075
L37300 79131
L37356 79188
L37412 79300
L37468 79525
L37468 79806
L37412 80031
L37356 80144
L37300 80200
L37187 80256
L37075 80256
L36962 80200
L36906 80144
L36850 80031
L36793 79806
L36793 79525
L36850 79300
L36906 79188
L36962 79131
L37075 79075
" />
<path d="M38537 79075
L37974 79075
L37918 79638
L37974 79581
L38087 79525
L38368 79525
L38481 79581
L38537 79638
L38593 79750
L38593 80031
L38537 80144
L38481 80200
L38368 80256
L38087 80256
L37974 80200
L37918 80144
" />
<path d="M38987 79075
L39718 79075
L39324 79525
L39493 79525
L39606 79581
L39662 79638
L39718 79750
L39718 80031
L39662 80144
L39606 80200
L39493 80256
L39156 80256
L39043 80200
L38987 80144
" />
<path d="M40168 79075
L40168 79300
" />
<path d="M40618 79075
L40618 79300
" />
<path d="M42361 80706
L42305 80650
L42193 80481
L42136 80369
L42080 80200
L42024 79919
L42024 79694
L42080 79413
L42136 79244
L42193 79131
L42305 78963
L42361 78906
" />
<path d="M43430 80256
L42755 80256
" />
<path d="M43093 80256
L43093 79075
L42980 79244
L42868 79356
L42755 79413
" />
<path d="M43880 79188
L43936 79131
L44049 79075
L44330 79075
L44442 79131
L44499 79188
L44555 79300
L44555 79413
L44499 79581
L43824 80256
L44555 80256
" />
<path d="M45961 80256
L45961 79075
" />
<path d="M46467 80256
L46467 79638
L46411 79525
L46298 79469
L46130 79469
L46017 79525
L45961 79581
" />
<path d="M47198 80256
L47086 80200
L47030 80144
L46973 80031
L46973 79694
L47030 79581
L47086 79525
L47198 79469
L47367 79469
L47480 79525
L47536 79581
L47592 79694
L47592 80031
L47536 80144
L47480 80200
L47367 80256
L47198 80256
" />
<path d="M48267 80256
L48154 80200
L48098 80088
L48098 79075
" />
<path d="M49167 80200
L49054 80256
L48829 80256
L48717 80200
L48661 80088
L48661 79638
L48717 79525
L48829 79469
L49054 79469
L49167 79525
L49223 79638
L49223 79750
L48661 79863
" />
<path d="M49673 80200
L49785 80256
L50010 80256
L50123 80200
L50179 80088
L50179 80031
L50123 79919
L50010 79863
L49842 79863
L49729 79806
L49673 79694
L49673 79638
L49729 79525
L49842 79469
L50010 79469
L50123 79525
" />
<path d="M50573 80706
L50629 80650
L50742 80481
L50798 80369
L50854 80200
L50910 79919
L50910 79694
L50854 79413
L50798 79244
L50742 79131
L50629 78963
L50573 78906
" />
<path d="M23183 80887
L23970 81675
" />
<path d="M23970 80887
L23183 81675
" />
<polyline fill="none;"
points="23576,81675
23970,81281
23576,80887
23183,81281
23576,81675
" /> 
<path d="M24982 80747
L25039 80690
L25151 80634
L25432 80634
L25545 80690
L25601 80747
L25657 80859
L25657 80972
L25601 81140
L24926 81815
L25657 81815
" />
<path d="M26163 81703
L26220 81759
L26163 81815
L26107 81759
L26163 81703
L26163 81815
" />
<path d="M26951 80634
L27063 80634
L27176 80690
L27232 80747
L27288 80859
L27345 81084
L27345 81365
L27288 81590
L27232 81703
L27176 81759
L27063 81815
L26951 81815
L26838 81759
L26782 81703
L26726 81590
L26670 81365
L26670 81084
L26726 80859
L26782 80747
L26838 80690
L26951 80634
" />
<path d="M28076 80634
L28188 80634
L28301 80690
L28357 80747
L28413 80859
L28469 81084
L28469 81365
L28413 81590
L28357 81703
L28301 81759
L28188 81815
L28076 81815
L27963 81759
L27907 81703
L27851 81590
L27794 81365
L27794 81084
L27851 80859
L27907 80747
L27963 80690
L28076 80634
" />
<path d="M28976 81815
L28976 81028
" />
<path d="M28976 81140
L29032 81084
L29144 81028
L29313 81028
L29426 81084
L29482 81197
L29482 81815
" />
<path d="M29482 81197
L29538 81084
L29651 81028
L29819 81028
L29932 81084
L29988 81197
L29988 81815
" />
<path d="M30550 81815
L30550 81028
" />
<path d="M30550 81140
L30607 81084
L30719 81028
L30888 81028
L31000 81084
L31057 81197
L31057 81815
" />
<path d="M31057 81197
L31113 81084
L31225 81028
L31394 81028
L31507 81084
L31563 81197
L31563 81815
" />
<path d="M33869 80578
L32856 82097
" />
<path d="M35387 80634
L35500 80634
L35612 80690
L35669 80747
L35725 80859
L35781 81084
L35781 81365
L35725 81590
L35669 81703
L35612 81759
L35500 81815
L35387 81815
L35275 81759
L35219 81703
L35162 81590
L35106 81365
L35106 81084
L35162 80859
L35219 80747
L35275 80690
L35387 80634
" />
<path d="M36287 81703
L36343 81759
L36287 81815
L36231 81759
L36287 81703
L36287 81815
" />
<path d="M37075 80634
L37187 80634
L37300 80690
L37356 80747
L37412 80859
L37468 81084
L37468 81365
L37412 81590
L37356 81703
L37300 81759
L37187 81815
L37075 81815
L36962 81759
L36906 81703
L36850 81590
L36793 81365
L36793 81084
L36850 80859
L36906 80747
L36962 80690
L37075 80634
" />
<path d="M37862 80634
L38649 80634
L38143 81815
" />
<path d="M39156 81815
L39381 81815
L39493 81759
L39549 81703
L39662 81534
L39718 81309
L39718 80859
L39662 80747
L39606 80690
L39493 80634
L39268 80634
L39156 80690
L39099 80747
L39043 80859
L39043 81140
L39099 81253
L39156 81309
L39268 81365
L39493 81365
L39606 81309
L39662 81253
L39718 81140
" />
<path d="M40168 80634
L40168 80859
" />
<path d="M40618 80634
L40618 80859
" />
<path d="M42361 82265
L42305 82209
L42193 82040
L42136 81928
L42080 81759
L42024 81478
L42024 81253
L42080 80972
L42136 80803
L42193 80690
L42305 80522
L42361 80465
" />
<path d="M42699 80634
L43486 80634
L42980 81815
" />
<path d="M44836 81815
L44836 80634
" />
<path d="M45342 81815
L45342 81197
L45286 81084
L45174 81028
L45005 81028
L44892 81084
L44836 81140
" />
<path d="M46073 81815
L45961 81759
L45905 81703
L45848 81590
L45848 81253
L45905 81140
L45961 81084
L46073 81028
L46242 81028
L46355 81084
L46411 81140
L46467 81253
L46467 81590
L46411 81703
L46355 81759
L46242 81815
L46073 81815
" />
<path d="M47142 81815
L47030 81759
L46973 81647
L46973 80634
" />
<path d="M48042 81759
L47929 81815
L47705 81815
L47592 81759
L47536 81647
L47536 81197
L47592 81084
L47705 81028
L47929 81028
L48042 81084
L48098 81197
L48098 81309
L47536 81422
" />
<path d="M48548 81759
L48661 81815
L48886 81815
L48998 81759
L49054 81647
L49054 81590
L48998 81478
L48886 81422
L48717 81422
L48604 81365
L48548 81253
L48548 81197
L48604 81084
L48717 81028
L48886 81028
L48998 81084
" />
<path d="M49448 82265
L49504 82209
L49617 82040
L49673 81928
L49729 81759
L49785 81478
L49785 81253
L49729 80972
L49673 80803
L49617 80690
L49504 80522
L49448 80465
" />
<path d="M23537 82407
L23537 83273
" />
<path d="M23104 82840
L23970 82840
" />
<circle cx="23537.4" cy="82840.6" r="433.071" /> 
<path d="M24982 82306
L25039 82250
L25151 82193
L25432 82193
L25545 82250
L25601 82306
L25657 82418
L25657 82531
L25601 82699
L24926 83374
L25657 83374
" />
<path d="M26163 83262
L26220 83318
L26163 83374
L26107 83318
L26163 83262
L26163 83374
" />
<path d="M26670 82306
L26726 82250
L26838 82193
L27120 82193
L27232 82250
L27288 82306
L27345 82418
L27345 82531
L27288 82699
L26613 83374
L27345 83374
" />
<path d="M28076 82193
L28188 82193
L28301 82250
L28357 82306
L28413 82418
L28469 82643
L28469 82924
L28413 83149
L28357 83262
L28301 83318
L28188 83374
L28076 83374
L27963 83318
L27907 83262
L27851 83149
L27794 82924
L27794 82643
L27851 82418
L27907 82306
L27963 82250
L28076 82193
" />
<path d="M28976 83374
L28976 82587
" />
<path d="M28976 82699
L29032 82643
L29144 82587
L29313 82587
L29426 82643
L29482 82756
L29482 83374
" />
<path d="M29482 82756
L29538 82643
L29651 82587
L29819 82587
L29932 82643
L29988 82756
L29988 83374
" />
<path d="M30550 83374
L30550 82587
" />
<path d="M30550 82699
L30607 82643
L30719 82587
L30888 82587
L31000 82643
L31057 82756
L31057 83374
" />
<path d="M31057 82756
L31113 82643
L31225 82587
L31394 82587
L31507 82643
L31563 82756
L31563 83374
" />
<path d="M33869 82137
L32856 83656
" />
<path d="M35387 82193
L35500 82193
L35612 82250
L35669 82306
L35725 82418
L35781 82643
L35781 82924
L35725 83149
L35669 83262
L35612 83318
L35500 83374
L35387 83374
L35275 83318
L35219 83262
L35162 83149
L35106 82924
L35106 82643
L35162 82418
L35219 82306
L35275 82250
L35387 82193
" />
<path d="M36287 83262
L36343 83318
L36287 83374
L36231 83318
L36287 83262
L36287 83374
" />
<path d="M37075 82193
L37187 82193
L37300 82250
L37356 82306
L37412 82418
L37468 82643
L37468 82924
L37412 83149
L37356 83262
L37300 83318
L37187 83374
L37075 83374
L36962 83318
L36906 83262
L36850 83149
L36793 82924
L36793 82643
L36850 82418
L36906 82306
L36962 82250
L37075 82193
" />
<path d="M38143 82699
L38031 82643
L37974 82587
L37918 82474
L37918 82418
L37974 82306
L38031 82250
L38143 82193
L38368 82193
L38481 82250
L38537 82306
L38593 82418
L38593 82474
L38537 82587
L38481 82643
L38368 82699
L38143 82699
L38031 82756
L37974 82812
L37918 82924
L37918 83149
L37974 83262
L38031 83318
L38143 83374
L38368 83374
L38481 83318
L38537 83262
L38593 83149
L38593 82924
L38537 82812
L38481 82756
L38368 82699
" />
<path d="M38987 82193
L39774 82193
L39268 83374
" />
<path d="M40168 82193
L40168 82418
" />
<path d="M40618 82193
L40618 82418
" />
<path d="M42361 83824
L42305 83768
L42193 83599
L42136 83487
L42080 83318
L42024 83037
L42024 82812
L42080 82531
L42136 82362
L42193 82250
L42305 82081
L42361 82025
" />
<path d="M43318 82587
L43318 83374
" />
<path d="M43036 82137
L42755 82981
L43486 82981
" />
<path d="M44836 83374
L44836 82193
" />
<path d="M45342 83374
L45342 82756
L45286 82643
L45174 82587
L45005 82587
L44892 82643
L44836 82699
" />
<path d="M46073 83374
L45961 83318
L45905 83262
L45848 83149
L45848 82812
L45905 82699
L45961 82643
L46073 82587
L46242 82587
L46355 82643
L46411 82699
L46467 82812
L46467 83149
L46411 83262
L46355 83318
L46242 83374
L46073 83374
" />
<path d="M47142 83374
L47030 83318
L46973 83206
L46973 82193
" />
<path d="M48042 83318
L47929 83374
L47705 83374
L47592 83318
L47536 83206
L47536 82756
L47592 82643
L47705 82587
L47929 82587
L48042 82643
L48098 82756
L48098 82868
L47536 82981
" />
<path d="M48548 83318
L48661 83374
L48886 83374
L48998 83318
L49054 83206
L49054 83149
L48998 83037
L48886 82981
L48717 82981
L48604 82924
L48548 82812
L48548 82756
L48604 82643
L48717 82587
L48886 82587
L48998 82643
" />
<path d="M49448 83824
L49504 83768
L49617 83599
L49673 83487
L49729 83318
L49785 83037
L49785 82812
L49729 82531
L49673 82362
L49617 82250
L49504 82081
L49448 82025
" />
<polyline fill="none;"
points="23794,84823
23794,83975
22946,83975
22946,84823
23794,84823
" /> 
<circle cx="23370.5" cy="84399.6" r="600" /> 
<path d="M24926 83752
L25657 83752
L25264 84202
L25432 84202
L25545 84258
L25601 84315
L25657 84427
L25657 84708
L25601 84821
L25545 84877
L25432 84933
L25095 84933
L24982 84877
L24926 84821
" />
<path d="M26163 84821
L26220 84877
L26163 84933
L26107 84877
L26163 84821
L26163 84933
" />
<path d="M26951 83752
L27063 83752
L27176 83809
L27232 83865
L27288 83977
L27345 84202
L27345 84483
L27288 84708
L27232 84821
L27176 84877
L27063 84933
L26951 84933
L26838 84877
L26782 84821
L26726 84708
L26670 84483
L26670 84202
L26726 83977
L26782 83865
L26838 83809
L26951 83752
" />
<path d="M28413 83752
L27851 83752
L27794 84315
L27851 84258
L27963 84202
L28244 84202
L28357 84258
L28413 84315
L28469 84427
L28469 84708
L28413 84821
L28357 84877
L28244 84933
L27963 84933
L27851 84877
L27794 84821
" />
<path d="M28976 84933
L28976 84146
" />
<path d="M28976 84258
L29032 84202
L29144 84146
L29313 84146
L29426 84202
L29482 84315
L29482 84933
" />
<path d="M29482 84315
L29538 84202
L29651 84146
L29819 84146
L29932 84202
L29988 84315
L29988 84933
" />
<path d="M30550 84933
L30550 84146
" />
<path d="M30550 84258
L30607 84202
L30719 84146
L30888 84146
L31000 84202
L31057 84315
L31057 84933
" />
<path d="M31057 84315
L31113 84202
L31225 84146
L31394 84146
L31507 84202
L31563 84315
L31563 84933
" />
<path d="M33869 83696
L32856 85215
" />
<path d="M35387 83752
L35500 83752
L35612 83809
L35669 83865
L35725 83977
L35781 84202
L35781 84483
L35725 84708
L35669 84821
L35612 84877
L35500 84933
L35387 84933
L35275 84877
L35219 84821
L35162 84708
L35106 84483
L35106 84202
L35162 83977
L35219 83865
L35275 83809
L35387 83752
" />
<path d="M36287 84821
L36343 84877
L36287 84933
L36231 84877
L36287 84821
L36287 84933
" />
<path d="M37468 84933
L36793 84933
" />
<path d="M37131 84933
L37131 83752
L37018 83921
L36906 84034
L36793 84090
" />
<path d="M37918 83865
L37974 83809
L38087 83752
L38368 83752
L38481 83809
L38537 83865
L38593 83977
L38593 84090
L38537 84258
L37862 84933
L38593 84933
" />
<path d="M39324 83752
L39437 83752
L39549 83809
L39606 83865
L39662 83977
L39718 84202
L39718 84483
L39662 84708
L39606 84821
L39549 84877
L39437 84933
L39324 84933
L39212 84877
L39156 84821
L39099 84708
L39043 84483
L39043 84202
L39099 83977
L39156 83865
L39212 83809
L39324 83752
" />
<path d="M40168 83752
L40168 83977
" />
<path d="M40618 83752
L40618 83977
" />
<path d="M42361 85383
L42305 85327
L42193 85158
L42136 85046
L42080 84877
L42024 84596
L42024 84371
L42080 84090
L42136 83921
L42193 83809
L42305 83640
L42361 83584
" />
<path d="M43318 84146
L43318 84933
" />
<path d="M43036 83696
L42755 84540
L43486 84540
" />
<path d="M44836 84933
L44836 83752
" />
<path d="M45342 84933
L45342 84315
L45286 84202
L45174 84146
L45005 84146
L44892 84202
L44836 84258
" />
<path d="M46073 84933
L45961 84877
L45905 84821
L45848 84708
L45848 84371
L45905 84258
L45961 84202
L46073 84146
L46242 84146
L46355 84202
L46411 84258
L46467 84371
L46467 84708
L46411 84821
L46355 84877
L46242 84933
L46073 84933
" />
<path d="M47142 84933
L47030 84877
L46973 84765
L46973 83752
" />
<path d="M48042 84877
L47929 84933
L47705 84933
L47592 84877
L47536 84765
L47536 84315
L47592 84202
L47705 84146
L47929 84146
L48042 84202
L48098 84315
L48098 84427
L47536 84540
" />
<path d="M48548 84877
L48661 84933
L48886 84933
L48998 84877
L49054 84765
L49054 84708
L48998 84596
L48886 84540
L48717 84540
L48604 84483
L48548 84371
L48548 84315
L48604 84202
L48717 84146
L48886 84146
L48998 84202
" />
<path d="M49448 85383
L49504 85327
L49617 85158
L49673 85046
L49729 84877
L49785 84596
L49785 84371
L49729 84090
L49673 83921
L49617 83809
L49504 83640
L49448 83584
" />
</g> 
</svg>
