<?xml version="1.0" standalone="no"?>
 <!DOCTYPE svg PUBLIC "-//W3C//DTD SVG 1.1//EN" 
 "http://www.w3.org/Graphics/SVG/1.1/DTD/svg11.dtd"> 
<svg xmlns="http://www.w3.org/2000/svg" version="1.1" 
    width="29.7002cm" height="21.0007cm" viewBox="0 0 116930 82680 ">
<title>SVG Picture created as Capstone_Motherboard-NPTH-drl_map.svg date 2016/02/22 19:08:02 </title>
  <desc>Picture generated by PCBNEW </desc>
<g style="fill:#000000; fill-opacity:1;stroke:#000000; stroke-opacity:1;
stroke-linecap:round; stroke-linejoin:round; "
 transform="translate(0 0) scale(1 1)">
</g>
<g style="fill:#000000; fill-opacity:0.0; 
stroke:#000000; stroke-width:-0.000393701; stroke-opacity:1; 
stroke-linecap:round; stroke-linejoin:round;">
</g>
<g style="fill:#000000; fill-opacity:0.0; 
stroke:#000000; stroke-width:59.0551; stroke-opacity:1; 
stroke-linecap:round; stroke-linejoin:round;">
<path d="M24000 5000
L24000 65000
" />
<path d="M94000 5000
L24000 5000
" />
<path d="M94000 65000
L94000 5000
" />
<path d="M24000 65000
L94000 65000
" />
</g>
<g style="fill:#000000; fill-opacity:0.0; 
stroke:#000000; stroke-width:78.7402; stroke-opacity:1; 
stroke-linecap:round; stroke-linejoin:round;">
<path d="M40196 8006
L41692 9502
" />
<path d="M41692 8006
L40196 9502
" />
<path d="M44652 51752
L46148 53248
" />
<path d="M46148 51752
L44652 53248
" />
<path d="M44652 59752
L46148 61248
" />
<path d="M46148 59752
L44652 61248
" />
<path d="M49252 29652
L50748 31148
" />
<path d="M50748 29652
L49252 31148
" />
<path d="M57252 29652
L58748 31148
" />
<path d="M58748 29652
L57252 31148
" />
</g>
<g style="fill:#000000; fill-opacity:0.0; 
stroke:#000000; stroke-width:118.11; stroke-opacity:1; 
stroke-linecap:round; stroke-linejoin:round;">
<path d="M25039 66863
L25039 65681
L25320 65681
L25489 65738
L25601 65850
L25657 65963
L25714 66188
L25714 66356
L25657 66581
L25601 66694
L25489 66806
L25320 66863
L25039 66863
" />
<path d="M26220 66863
L26220 66075
" />
<path d="M26220 66300
L26276 66188
L26332 66131
L26445 66075
L26557 66075
" />
<path d="M26951 66863
L26951 66075
" />
<path d="M26951 65681
L26895 65738
L26951 65794
L27007 65738
L26951 65681
L26951 65794
" />
<path d="M27682 66863
L27570 66806
L27513 66694
L27513 65681
" />
<path d="M28301 66863
L28188 66806
L28132 66694
L28132 65681
" />
<path d="M29651 66863
L29651 65681
L30044 66525
L30438 65681
L30438 66863
" />
<path d="M31507 66863
L31507 66244
L31450 66131
L31338 66075
L31113 66075
L31000 66131
" />
<path d="M31507 66806
L31394 66863
L31113 66863
L31000 66806
L30944 66694
L30944 66581
L31000 66469
L31113 66413
L31394 66413
L31507 66356
" />
<path d="M32069 66075
L32069 67256
" />
<path d="M32069 66131
L32181 66075
L32406 66075
L32519 66131
L32575 66188
L32631 66300
L32631 66638
L32575 66750
L32519 66806
L32406 66863
L32181 66863
L32069 66806
" />
<path d="M33138 66750
L33194 66806
L33138 66863
L33081 66806
L33138 66750
L33138 66863
" />
<path d="M33138 66131
L33194 66188
L33138 66244
L33081 66188
L33138 66131
L33138 66244
" />
<path d="M22474 68061
L23970 69557
" />
<path d="M23970 68061
L22474 69557
" />
<path d="M24926 68162
L25657 68162
L25264 68612
L25432 68612
L25545 68668
L25601 68724
L25657 68837
L25657 69118
L25601 69230
L25545 69287
L25432 69343
L25095 69343
L24982 69287
L24926 69230
" />
<path d="M26163 69230
L26220 69287
L26163 69343
L26107 69287
L26163 69230
L26163 69343
" />
<path d="M26895 68668
L26782 68612
L26726 68555
L26670 68443
L26670 68387
L26726 68274
L26782 68218
L26895 68162
L27120 68162
L27232 68218
L27288 68274
L27345 68387
L27345 68443
L27288 68555
L27232 68612
L27120 68668
L26895 68668
L26782 68724
L26726 68780
L26670 68893
L26670 69118
L26726 69230
L26782 69287
L26895 69343
L27120 69343
L27232 69287
L27288 69230
L27345 69118
L27345 68893
L27288 68780
L27232 68724
L27120 68668
" />
<path d="M28076 68162
L28188 68162
L28301 68218
L28357 68274
L28413 68387
L28469 68612
L28469 68893
L28413 69118
L28357 69230
L28301 69287
L28188 69343
L28076 69343
L27963 69287
L27907 69230
L27851 69118
L27794 68893
L27794 68612
L27851 68387
L27907 68274
L27963 68218
L28076 68162
" />
<path d="M28976 69343
L28976 68555
" />
<path d="M28976 68668
L29032 68612
L29144 68555
L29313 68555
L29426 68612
L29482 68724
L29482 69343
" />
<path d="M29482 68724
L29538 68612
L29651 68555
L29819 68555
L29932 68612
L29988 68724
L29988 69343
" />
<path d="M30550 69343
L30550 68555
" />
<path d="M30550 68668
L30607 68612
L30719 68555
L30888 68555
L31000 68612
L31057 68724
L31057 69343
" />
<path d="M31057 68724
L31113 68612
L31225 68555
L31394 68555
L31507 68612
L31563 68724
L31563 69343
" />
<path d="M33869 68106
L32856 69624
" />
<path d="M35387 68162
L35500 68162
L35612 68218
L35669 68274
L35725 68387
L35781 68612
L35781 68893
L35725 69118
L35669 69230
L35612 69287
L35500 69343
L35387 69343
L35275 69287
L35219 69230
L35162 69118
L35106 68893
L35106 68612
L35162 68387
L35219 68274
L35275 68218
L35387 68162
" />
<path d="M36287 69230
L36343 69287
L36287 69343
L36231 69287
L36287 69230
L36287 69343
" />
<path d="M37468 69343
L36793 69343
" />
<path d="M37131 69343
L37131 68162
L37018 68330
L36906 68443
L36793 68499
" />
<path d="M38537 68162
L37974 68162
L37918 68724
L37974 68668
L38087 68612
L38368 68612
L38481 68668
L38537 68724
L38593 68837
L38593 69118
L38537 69230
L38481 69287
L38368 69343
L38087 69343
L37974 69287
L37918 69230
" />
<path d="M39324 68162
L39437 68162
L39549 68218
L39606 68274
L39662 68387
L39718 68612
L39718 68893
L39662 69118
L39606 69230
L39549 69287
L39437 69343
L39324 69343
L39212 69287
L39156 69230
L39099 69118
L39043 68893
L39043 68612
L39099 68387
L39156 68274
L39212 68218
L39324 68162
" />
<path d="M40168 68162
L40168 68387
" />
<path d="M40618 68162
L40618 68387
" />
<path d="M42361 69793
L42305 69737
L42193 69568
L42136 69455
L42080 69287
L42024 69005
L42024 68780
L42080 68499
L42136 68330
L42193 68218
L42305 68049
L42361 67993
" />
<path d="M43374 68162
L42811 68162
L42755 68724
L42811 68668
L42924 68612
L43205 68612
L43318 68668
L43374 68724
L43430 68837
L43430 69118
L43374 69230
L43318 69287
L43205 69343
L42924 69343
L42811 69287
L42755 69230
" />
<path d="M44836 69343
L44836 68162
" />
<path d="M45342 69343
L45342 68724
L45286 68612
L45174 68555
L45005 68555
L44892 68612
L44836 68668
" />
<path d="M46073 69343
L45961 69287
L45905 69230
L45848 69118
L45848 68780
L45905 68668
L45961 68612
L46073 68555
L46242 68555
L46355 68612
L46411 68668
L46467 68780
L46467 69118
L46411 69230
L46355 69287
L46242 69343
L46073 69343
" />
<path d="M47142 69343
L47030 69287
L46973 69174
L46973 68162
" />
<path d="M48042 69287
L47929 69343
L47705 69343
L47592 69287
L47536 69174
L47536 68724
L47592 68612
L47705 68555
L47929 68555
L48042 68612
L48098 68724
L48098 68837
L47536 68949
" />
<path d="M48548 69287
L48661 69343
L48886 69343
L48998 69287
L49054 69174
L49054 69118
L48998 69005
L48886 68949
L48717 68949
L48604 68893
L48548 68780
L48548 68724
L48604 68612
L48717 68555
L48886 68555
L48998 68612
" />
<path d="M49448 69793
L49504 69737
L49617 69568
L49673 69455
L49729 69287
L49785 69005
L49785 68780
L49729 68499
L49673 68330
L49617 68218
L49504 68049
L49448 67993
" />
<path d="M51585 69793
L51529 69737
L51417 69568
L51360 69455
L51304 69287
L51248 69005
L51248 68780
L51304 68499
L51360 68330
L51417 68218
L51529 68049
L51585 67993
" />
<path d="M52035 68555
L52035 69343
" />
<path d="M52035 68668
L52091 68612
L52204 68555
L52373 68555
L52485 68612
L52541 68724
L52541 69343
" />
<path d="M53273 69343
L53160 69287
L53104 69230
L53048 69118
L53048 68780
L53104 68668
L53160 68612
L53273 68555
L53441 68555
L53554 68612
L53610 68668
L53666 68780
L53666 69118
L53610 69230
L53554 69287
L53441 69343
L53273 69343
" />
<path d="M54004 68555
L54454 68555
" />
<path d="M54172 68162
L54172 69174
L54229 69287
L54341 69343
L54454 69343
" />
<path d="M55747 68555
L55747 69737
" />
<path d="M55747 68612
L55860 68555
L56085 68555
L56197 68612
L56253 68668
L56310 68780
L56310 69118
L56253 69230
L56197 69287
L56085 69343
L55860 69343
L55747 69287
" />
<path d="M56985 69343
L56872 69287
L56816 69174
L56816 68162
" />
<path d="M57941 69343
L57941 68724
L57884 68612
L57772 68555
L57547 68555
L57435 68612
" />
<path d="M57941 69287
L57828 69343
L57547 69343
L57435 69287
L57378 69174
L57378 69062
L57435 68949
L57547 68893
L57828 68893
L57941 68837
" />
<path d="M58334 68555
L58784 68555
" />
<path d="M58503 68162
L58503 69174
L58559 69287
L58672 69343
L58784 69343
" />
<path d="M59628 69287
L59516 69343
L59291 69343
L59178 69287
L59122 69174
L59122 68724
L59178 68612
L59291 68555
L59516 68555
L59628 68612
L59684 68724
L59684 68837
L59122 68949
" />
<path d="M60697 69343
L60697 68162
" />
<path d="M60697 69287
L60584 69343
L60359 69343
L60247 69287
L60190 69230
L60134 69118
L60134 68780
L60190 68668
L60247 68612
L60359 68555
L60584 68555
L60697 68612
" />
<path d="M61147 69793
L61203 69737
L61315 69568
L61372 69455
L61428 69287
L61484 69005
L61484 68780
L61428 68499
L61372 68330
L61315 68218
L61203 68049
L61147 67993
" />
</g> 
</svg>
