  0
SECTION
  2
HEADER
  9
$ANGBASE
  50
0.0
  9
$ANGDIR
  70
  1
  9
$MEASUREMENT
  70
0
  0
ENDSEC
  0
SECTION
  2
TABLES
  0
TABLE
  2
LTYPE
  70
1
  0
LTYPE
  2
CONTINUOUS
  70
0
  3
Solid line
  72
65
  73
0
  40
0.0
  0
ENDTAB
  0
TABLE
  2
STYLE
  70
4
  0
STYLE
  2
KICAD
  70
0
  40
0
  41
1
  42
1
  50
0
  71
0
  3
isocp.shx
  0
STYLE
  2
KICADB
  70
0
  40
0
  41
1
  42
1
  50
0
  71
0
  3
isocp.shx
  0
STYLE
  2
KICADI
  70
0
  40
0
  41
1
  42
1
  50
15
  71
0
  3
isocp.shx
  0
STYLE
  2
KICADBI
  70
0
  40
0
  41
1
  42
1
  50
15
  71
0
  3
isocp.shx
  0
ENDTAB
  0
TABLE
  2
LAYER
  70
30
  0
LAYER
  2
BLACK
  70
0
  62
7
  6
CONTINUOUS
  0
LAYER
  2
GRAY1
  70
0
  62
251
  6
CONTINUOUS
  0
LAYER
  2
GRAY2
  70
0
  62
8
  6
CONTINUOUS
  0
LAYER
  2
GRAY3
  70
0
  62
9
  6
CONTINUOUS
  0
LAYER
  2
WHITE
  70
0
  62
7
  6
CONTINUOUS
  0
LAYER
  2
LYELLOW
  70
0
  62
51
  6
CONTINUOUS
  0
LAYER
  2
BLUE1
  70
0
  62
178
  6
CONTINUOUS
  0
LAYER
  2
GREEN1
  70
0
  62
98
  6
CONTINUOUS
  0
LAYER
  2
CYAN1
  70
0
  62
138
  6
CONTINUOUS
  0
LAYER
  2
RED1
  70
0
  62
18
  6
CONTINUOUS
  0
LAYER
  2
MAGENTA1
  70
0
  62
228
  6
CONTINUOUS
  0
LAYER
  2
BROWN1
  70
0
  62
58
  6
CONTINUOUS
  0
LAYER
  2
BLUE2
  70
0
  62
5
  6
CONTINUOUS
  0
LAYER
  2
GREEN2
  70
0
  62
3
  6
CONTINUOUS
  0
LAYER
  2
CYAN2
  70
0
  62
4
  6
CONTINUOUS
  0
LAYER
  2
RED2
  70
0
  62
1
  6
CONTINUOUS
  0
LAYER
  2
MAGENTA2
  70
0
  62
6
  6
CONTINUOUS
  0
LAYER
  2
BROWN2
  70
0
  62
54
  6
CONTINUOUS
  0
LAYER
  2
BLUE3
  70
0
  62
171
  6
CONTINUOUS
  0
LAYER
  2
GREEN3
  70
0
  62
91
  6
CONTINUOUS
  0
LAYER
  2
CYAN3
  70
0
  62
131
  6
CONTINUOUS
  0
LAYER
  2
RED3
  70
0
  62
11
  6
CONTINUOUS
  0
LAYER
  2
MAGENTA3
  70
0
  62
221
  6
CONTINUOUS
  0
LAYER
  2
YELLOW3
  70
0
  62
2
  6
CONTINUOUS
  0
LAYER
  2
BLUE4
  70
0
  62
5
  6
CONTINUOUS
  0
LAYER
  2
GREEN4
  70
0
  62
3
  6
CONTINUOUS
  0
LAYER
  2
CYAN4
  70
0
  62
4
  6
CONTINUOUS
  0
LAYER
  2
RED4
  70
0
  62
1
  6
CONTINUOUS
  0
LAYER
  2
MAGENTA4
  70
0
  62
6
  6
CONTINUOUS
  0
LAYER
  2
YELLOW4
  70
0
  62
2
  6
CONTINUOUS
  0
ENDTAB
  0
ENDSEC
  0
SECTION
  2
ENTITIES
0
LINE
8
Black
10
61.035
20
-165.1
11
61.035
21
-12.7
0
LINE
8
Black
10
60.885
20
-165.1
11
60.885
21
-12.7
0
ARC
8
Black
10
60.96
20
-12.7
40
0.075
50
360
51
540
0
ARC
8
Black
10
60.96
20
-165.1
40
0.075
50
180
51
360
0
LINE
8
Black
10
60.96
20
-12.775
11
238.76
21
-12.775
0
LINE
8
Black
10
60.96
20
-12.625
11
238.76
21
-12.625
0
ARC
8
Black
10
238.76
20
-12.7
40
0.075
50
270
51
450
0
ARC
8
Black
10
60.96
20
-12.7
40
0.075
50
90
51
270
0
LINE
8
Black
10
238.835
20
-165.1
11
238.835
21
-12.7
0
LINE
8
Black
10
238.685
20
-165.1
11
238.685
21
-12.7
0
ARC
8
Black
10
238.76
20
-12.7
40
0.075
50
360
51
540
0
ARC
8
Black
10
238.76
20
-165.1
40
0.075
50
180
51
360
0
LINE
8
Black
10
60.96
20
-165.175
11
238.76
21
-165.175
0
LINE
8
Black
10
60.96
20
-165.025
11
238.76
21
-165.025
0
ARC
8
Black
10
238.76
20
-165.1
40
0.075
50
270
51
450
0
ARC
8
Black
10
60.96
20
-165.1
40
0.075
50
90
51
270
0
LINE
8
Black
10
102.1
20
-20.3361
11
105.9
21
-24.1359
0
LINE
8
Black
10
105.9
20
-20.3361
11
102.1
21
-24.1359
0
LINE
8
Black
10
113.416
20
-131.45
11
117.216
21
-135.25
0
LINE
8
Black
10
117.216
20
-131.45
11
113.416
21
-135.25
0
LINE
8
Black
10
113.416
20
-151.77
11
117.216
21
-155.57
0
LINE
8
Black
10
117.216
20
-151.77
11
113.416
21
-155.57
0
LINE
8
Black
10
125.1
20
-75.3161
11
128.9
21
-79.1159
0
LINE
8
Black
10
128.9
20
-75.3161
11
125.1
21
-79.1159
0
LINE
8
Black
10
145.42
20
-75.3161
11
149.22
21
-79.1159
0
LINE
8
Black
10
149.22
20
-75.3161
11
145.42
21
-79.1159
0
LINE
8
Black
10
63.5993
20
-169.832
11
63.5993
21
-166.832
0
LINE
8
Black
10
63.5993
20
-166.832
11
64.3136
21
-166.832
0
LINE
8
Black
10
64.3136
20
-166.832
11
64.7421
21
-166.975
0
LINE
8
Black
10
64.7421
20
-166.975
11
65.0279
21
-167.261
0
LINE
8
Black
10
65.0279
20
-167.261
11
65.1707
21
-167.546
0
LINE
8
Black
10
65.1707
20
-167.546
11
65.3136
21
-168.118
0
LINE
8
Black
10
65.3136
20
-168.118
11
65.3136
21
-168.546
0
LINE
8
Black
10
65.3136
20
-168.546
11
65.1707
21
-169.118
0
LINE
8
Black
10
65.1707
20
-169.118
11
65.0279
21
-169.404
0
LINE
8
Black
10
65.0279
20
-169.404
11
64.7421
21
-169.689
0
LINE
8
Black
10
64.7421
20
-169.689
11
64.3136
21
-169.832
0
LINE
8
Black
10
64.3136
20
-169.832
11
63.5993
21
-169.832
0
LINE
8
Black
10
66.5993
20
-169.832
11
66.5993
21
-167.832
0
LINE
8
Black
10
66.5993
20
-168.404
11
66.7421
21
-168.118
0
LINE
8
Black
10
66.7421
20
-168.118
11
66.885
21
-167.975
0
LINE
8
Black
10
66.885
20
-167.975
11
67.1707
21
-167.832
0
LINE
8
Black
10
67.1707
20
-167.832
11
67.4564
21
-167.832
0
LINE
8
Black
10
68.4564
20
-169.832
11
68.4564
21
-167.832
0
LINE
8
Black
10
68.4564
20
-166.832
11
68.3136
21
-166.975
0
LINE
8
Black
10
68.3136
20
-166.975
11
68.4564
21
-167.118
0
LINE
8
Black
10
68.4564
20
-167.118
11
68.5993
21
-166.975
0
LINE
8
Black
10
68.5993
20
-166.975
11
68.4564
21
-166.832
0
LINE
8
Black
10
68.4564
20
-166.832
11
68.4564
21
-167.118
0
LINE
8
Black
10
70.3136
20
-169.832
11
70.0279
21
-169.689
0
LINE
8
Black
10
70.0279
20
-169.689
11
69.885
21
-169.404
0
LINE
8
Black
10
69.885
20
-169.404
11
69.885
21
-166.832
0
LINE
8
Black
10
71.885
20
-169.832
11
71.5993
21
-169.689
0
LINE
8
Black
10
71.5993
20
-169.689
11
71.4564
21
-169.404
0
LINE
8
Black
10
71.4564
20
-169.404
11
71.4564
21
-166.832
0
LINE
8
Black
10
75.3136
20
-169.832
11
75.3136
21
-166.832
0
LINE
8
Black
10
75.3136
20
-166.832
11
76.3136
21
-168.975
0
LINE
8
Black
10
76.3136
20
-168.975
11
77.3136
21
-166.832
0
LINE
8
Black
10
77.3136
20
-166.832
11
77.3136
21
-169.832
0
LINE
8
Black
10
80.0279
20
-169.832
11
80.0279
21
-168.261
0
LINE
8
Black
10
80.0279
20
-168.261
11
79.885
21
-167.975
0
LINE
8
Black
10
79.885
20
-167.975
11
79.5993
21
-167.832
0
LINE
8
Black
10
79.5993
20
-167.832
11
79.0279
21
-167.832
0
LINE
8
Black
10
79.0279
20
-167.832
11
78.7421
21
-167.975
0
LINE
8
Black
10
80.0279
20
-169.689
11
79.7421
21
-169.832
0
LINE
8
Black
10
79.7421
20
-169.832
11
79.0279
21
-169.832
0
LINE
8
Black
10
79.0279
20
-169.832
11
78.7421
21
-169.689
0
LINE
8
Black
10
78.7421
20
-169.689
11
78.5993
21
-169.404
0
LINE
8
Black
10
78.5993
20
-169.404
11
78.5993
21
-169.118
0
LINE
8
Black
10
78.5993
20
-169.118
11
78.7421
21
-168.832
0
LINE
8
Black
10
78.7421
20
-168.832
11
79.0279
21
-168.689
0
LINE
8
Black
10
79.0279
20
-168.689
11
79.7421
21
-168.689
0
LINE
8
Black
10
79.7421
20
-168.689
11
80.0279
21
-168.546
0
LINE
8
Black
10
81.4564
20
-167.832
11
81.4564
21
-170.832
0
LINE
8
Black
10
81.4564
20
-167.975
11
81.7421
21
-167.832
0
LINE
8
Black
10
81.7421
20
-167.832
11
82.3136
21
-167.832
0
LINE
8
Black
10
82.3136
20
-167.832
11
82.5993
21
-167.975
0
LINE
8
Black
10
82.5993
20
-167.975
11
82.7421
21
-168.118
0
LINE
8
Black
10
82.7421
20
-168.118
11
82.885
21
-168.404
0
LINE
8
Black
10
82.885
20
-168.404
11
82.885
21
-169.261
0
LINE
8
Black
10
82.885
20
-169.261
11
82.7421
21
-169.546
0
LINE
8
Black
10
82.7421
20
-169.546
11
82.5993
21
-169.689
0
LINE
8
Black
10
82.5993
20
-169.689
11
82.3136
21
-169.832
0
LINE
8
Black
10
82.3136
20
-169.832
11
81.7421
21
-169.832
0
LINE
8
Black
10
81.7421
20
-169.832
11
81.4564
21
-169.689
0
LINE
8
Black
10
84.1707
20
-169.546
11
84.3136
21
-169.689
0
LINE
8
Black
10
84.3136
20
-169.689
11
84.1707
21
-169.832
0
LINE
8
Black
10
84.1707
20
-169.832
11
84.0279
21
-169.689
0
LINE
8
Black
10
84.0279
20
-169.689
11
84.1707
21
-169.546
0
LINE
8
Black
10
84.1707
20
-169.546
11
84.1707
21
-169.832
0
LINE
8
Black
10
84.1707
20
-167.975
11
84.3136
21
-168.118
0
LINE
8
Black
10
84.3136
20
-168.118
11
84.1707
21
-168.261
0
LINE
8
Black
10
84.1707
20
-168.261
11
84.0279
21
-168.118
0
LINE
8
Black
10
84.0279
20
-168.118
11
84.1707
21
-167.975
0
LINE
8
Black
10
84.1707
20
-167.975
11
84.1707
21
-168.261
0
LINE
8
Black
10
57.0852
20
-172.875
11
60.885
21
-176.675
0
LINE
8
Black
10
60.885
20
-172.875
11
57.0852
21
-176.675
0
LINE
8
Black
10
63.3136
20
-173.132
11
65.1707
21
-173.132
0
LINE
8
Black
10
65.1707
20
-173.132
11
64.1707
21
-174.275
0
LINE
8
Black
10
64.1707
20
-174.275
11
64.5993
21
-174.275
0
LINE
8
Black
10
64.5993
20
-174.275
11
64.885
21
-174.418
0
LINE
8
Black
10
64.885
20
-174.418
11
65.0279
21
-174.561
0
LINE
8
Black
10
65.0279
20
-174.561
11
65.1707
21
-174.846
0
LINE
8
Black
10
65.1707
20
-174.846
11
65.1707
21
-175.561
0
LINE
8
Black
10
65.1707
20
-175.561
11
65.0279
21
-175.846
0
LINE
8
Black
10
65.0279
20
-175.846
11
64.885
21
-175.989
0
LINE
8
Black
10
64.885
20
-175.989
11
64.5993
21
-176.132
0
LINE
8
Black
10
64.5993
20
-176.132
11
63.7421
21
-176.132
0
LINE
8
Black
10
63.7421
20
-176.132
11
63.4564
21
-175.989
0
LINE
8
Black
10
63.4564
20
-175.989
11
63.3136
21
-175.846
0
LINE
8
Black
10
66.4564
20
-175.846
11
66.5993
21
-175.989
0
LINE
8
Black
10
66.5993
20
-175.989
11
66.4564
21
-176.132
0
LINE
8
Black
10
66.4564
20
-176.132
11
66.3136
21
-175.989
0
LINE
8
Black
10
66.3136
20
-175.989
11
66.4564
21
-175.846
0
LINE
8
Black
10
66.4564
20
-175.846
11
66.4564
21
-176.132
0
LINE
8
Black
10
68.3136
20
-174.418
11
68.0279
21
-174.275
0
LINE
8
Black
10
68.0279
20
-174.275
11
67.885
21
-174.132
0
LINE
8
Black
10
67.885
20
-174.132
11
67.7421
21
-173.846
0
LINE
8
Black
10
67.7421
20
-173.846
11
67.7421
21
-173.704
0
LINE
8
Black
10
67.7421
20
-173.704
11
67.885
21
-173.418
0
LINE
8
Black
10
67.885
20
-173.418
11
68.0279
21
-173.275
0
LINE
8
Black
10
68.0279
20
-173.275
11
68.3136
21
-173.132
0
LINE
8
Black
10
68.3136
20
-173.132
11
68.885
21
-173.132
0
LINE
8
Black
10
68.885
20
-173.132
11
69.1707
21
-173.275
0
LINE
8
Black
10
69.1707
20
-173.275
11
69.3136
21
-173.418
0
LINE
8
Black
10
69.3136
20
-173.418
11
69.4564
21
-173.704
0
LINE
8
Black
10
69.4564
20
-173.704
11
69.4564
21
-173.846
0
LINE
8
Black
10
69.4564
20
-173.846
11
69.3136
21
-174.132
0
LINE
8
Black
10
69.3136
20
-174.132
11
69.1707
21
-174.275
0
LINE
8
Black
10
69.1707
20
-174.275
11
68.885
21
-174.418
0
LINE
8
Black
10
68.885
20
-174.418
11
68.3136
21
-174.418
0
LINE
8
Black
10
68.3136
20
-174.418
11
68.0279
21
-174.561
0
LINE
8
Black
10
68.0279
20
-174.561
11
67.885
21
-174.704
0
LINE
8
Black
10
67.885
20
-174.704
11
67.7421
21
-174.989
0
LINE
8
Black
10
67.7421
20
-174.989
11
67.7421
21
-175.561
0
LINE
8
Black
10
67.7421
20
-175.561
11
67.885
21
-175.846
0
LINE
8
Black
10
67.885
20
-175.846
11
68.0279
21
-175.989
0
LINE
8
Black
10
68.0279
20
-175.989
11
68.3136
21
-176.132
0
LINE
8
Black
10
68.3136
20
-176.132
11
68.885
21
-176.132
0
LINE
8
Black
10
68.885
20
-176.132
11
69.1707
21
-175.989
0
LINE
8
Black
10
69.1707
20
-175.989
11
69.3136
21
-175.846
0
LINE
8
Black
10
69.3136
20
-175.846
11
69.4564
21
-175.561
0
LINE
8
Black
10
69.4564
20
-175.561
11
69.4564
21
-174.989
0
LINE
8
Black
10
69.4564
20
-174.989
11
69.3136
21
-174.704
0
LINE
8
Black
10
69.3136
20
-174.704
11
69.1707
21
-174.561
0
LINE
8
Black
10
69.1707
20
-174.561
11
68.885
21
-174.418
0
LINE
8
Black
10
71.3136
20
-173.132
11
71.5993
21
-173.132
0
LINE
8
Black
10
71.5993
20
-173.132
11
71.885
21
-173.275
0
LINE
8
Black
10
71.885
20
-173.275
11
72.0279
21
-173.418
0
LINE
8
Black
10
72.0279
20
-173.418
11
72.1707
21
-173.704
0
LINE
8
Black
10
72.1707
20
-173.704
11
72.3136
21
-174.275
0
LINE
8
Black
10
72.3136
20
-174.275
11
72.3136
21
-174.989
0
LINE
8
Black
10
72.3136
20
-174.989
11
72.1707
21
-175.561
0
LINE
8
Black
10
72.1707
20
-175.561
11
72.0279
21
-175.846
0
LINE
8
Black
10
72.0279
20
-175.846
11
71.885
21
-175.989
0
LINE
8
Black
10
71.885
20
-175.989
11
71.5993
21
-176.132
0
LINE
8
Black
10
71.5993
20
-176.132
11
71.3136
21
-176.132
0
LINE
8
Black
10
71.3136
20
-176.132
11
71.0279
21
-175.989
0
LINE
8
Black
10
71.0279
20
-175.989
11
70.885
21
-175.846
0
LINE
8
Black
10
70.885
20
-175.846
11
70.7421
21
-175.561
0
LINE
8
Black
10
70.7421
20
-175.561
11
70.5993
21
-174.989
0
LINE
8
Black
10
70.5993
20
-174.989
11
70.5993
21
-174.275
0
LINE
8
Black
10
70.5993
20
-174.275
11
70.7421
21
-173.704
0
LINE
8
Black
10
70.7421
20
-173.704
11
70.885
21
-173.418
0
LINE
8
Black
10
70.885
20
-173.418
11
71.0279
21
-173.275
0
LINE
8
Black
10
71.0279
20
-173.275
11
71.3136
21
-173.132
0
LINE
8
Black
10
73.5993
20
-176.132
11
73.5993
21
-174.132
0
LINE
8
Black
10
73.5993
20
-174.418
11
73.7421
21
-174.275
0
LINE
8
Black
10
73.7421
20
-174.275
11
74.0279
21
-174.132
0
LINE
8
Black
10
74.0279
20
-174.132
11
74.4564
21
-174.132
0
LINE
8
Black
10
74.4564
20
-174.132
11
74.7421
21
-174.275
0
LINE
8
Black
10
74.7421
20
-174.275
11
74.885
21
-174.561
0
LINE
8
Black
10
74.885
20
-174.561
11
74.885
21
-176.132
0
LINE
8
Black
10
74.885
20
-174.561
11
75.0279
21
-174.275
0
LINE
8
Black
10
75.0279
20
-174.275
11
75.3136
21
-174.132
0
LINE
8
Black
10
75.3136
20
-174.132
11
75.7421
21
-174.132
0
LINE
8
Black
10
75.7421
20
-174.132
11
76.0279
21
-174.275
0
LINE
8
Black
10
76.0279
20
-174.275
11
76.1707
21
-174.561
0
LINE
8
Black
10
76.1707
20
-174.561
11
76.1707
21
-176.132
0
LINE
8
Black
10
77.5993
20
-176.132
11
77.5993
21
-174.132
0
LINE
8
Black
10
77.5993
20
-174.418
11
77.7421
21
-174.275
0
LINE
8
Black
10
77.7421
20
-174.275
11
78.0279
21
-174.132
0
LINE
8
Black
10
78.0279
20
-174.132
11
78.4564
21
-174.132
0
LINE
8
Black
10
78.4564
20
-174.132
11
78.7421
21
-174.275
0
LINE
8
Black
10
78.7421
20
-174.275
11
78.885
21
-174.561
0
LINE
8
Black
10
78.885
20
-174.561
11
78.885
21
-176.132
0
LINE
8
Black
10
78.885
20
-174.561
11
79.0279
21
-174.275
0
LINE
8
Black
10
79.0279
20
-174.275
11
79.3136
21
-174.132
0
LINE
8
Black
10
79.3136
20
-174.132
11
79.7421
21
-174.132
0
LINE
8
Black
10
79.7421
20
-174.132
11
80.0279
21
-174.275
0
LINE
8
Black
10
80.0279
20
-174.275
11
80.1707
21
-174.561
0
LINE
8
Black
10
80.1707
20
-174.561
11
80.1707
21
-176.132
0
LINE
8
Black
10
86.0279
20
-172.989
11
83.4564
21
-176.846
0
LINE
8
Black
10
89.885
20
-173.132
11
90.1707
21
-173.132
0
LINE
8
Black
10
90.1707
20
-173.132
11
90.4564
21
-173.275
0
LINE
8
Black
10
90.4564
20
-173.275
11
90.5993
21
-173.418
0
LINE
8
Black
10
90.5993
20
-173.418
11
90.7421
21
-173.704
0
LINE
8
Black
10
90.7421
20
-173.704
11
90.885
21
-174.275
0
LINE
8
Black
10
90.885
20
-174.275
11
90.885
21
-174.989
0
LINE
8
Black
10
90.885
20
-174.989
11
90.7421
21
-175.561
0
LINE
8
Black
10
90.7421
20
-175.561
11
90.5993
21
-175.846
0
LINE
8
Black
10
90.5993
20
-175.846
11
90.4564
21
-175.989
0
LINE
8
Black
10
90.4564
20
-175.989
11
90.1707
21
-176.132
0
LINE
8
Black
10
90.1707
20
-176.132
11
89.885
21
-176.132
0
LINE
8
Black
10
89.885
20
-176.132
11
89.5993
21
-175.989
0
LINE
8
Black
10
89.5993
20
-175.989
11
89.4564
21
-175.846
0
LINE
8
Black
10
89.4564
20
-175.846
11
89.3136
21
-175.561
0
LINE
8
Black
10
89.3136
20
-175.561
11
89.1707
21
-174.989
0
LINE
8
Black
10
89.1707
20
-174.989
11
89.1707
21
-174.275
0
LINE
8
Black
10
89.1707
20
-174.275
11
89.3136
21
-173.704
0
LINE
8
Black
10
89.3136
20
-173.704
11
89.4564
21
-173.418
0
LINE
8
Black
10
89.4564
20
-173.418
11
89.5993
21
-173.275
0
LINE
8
Black
10
89.5993
20
-173.275
11
89.885
21
-173.132
0
LINE
8
Black
10
92.1707
20
-175.846
11
92.3136
21
-175.989
0
LINE
8
Black
10
92.3136
20
-175.989
11
92.1707
21
-176.132
0
LINE
8
Black
10
92.1707
20
-176.132
11
92.0279
21
-175.989
0
LINE
8
Black
10
92.0279
20
-175.989
11
92.1707
21
-175.846
0
LINE
8
Black
10
92.1707
20
-175.846
11
92.1707
21
-176.132
0
LINE
8
Black
10
95.1707
20
-176.132
11
93.4564
21
-176.132
0
LINE
8
Black
10
94.3136
20
-176.132
11
94.3136
21
-173.132
0
LINE
8
Black
10
94.3136
20
-173.132
11
94.0279
21
-173.561
0
LINE
8
Black
10
94.0279
20
-173.561
11
93.7421
21
-173.846
0
LINE
8
Black
10
93.7421
20
-173.846
11
93.4564
21
-173.989
0
LINE
8
Black
10
97.885
20
-173.132
11
96.4564
21
-173.132
0
LINE
8
Black
10
96.4564
20
-173.132
11
96.3136
21
-174.561
0
LINE
8
Black
10
96.3136
20
-174.561
11
96.4564
21
-174.418
0
LINE
8
Black
10
96.4564
20
-174.418
11
96.7421
21
-174.275
0
LINE
8
Black
10
96.7421
20
-174.275
11
97.4564
21
-174.275
0
LINE
8
Black
10
97.4564
20
-174.275
11
97.7421
21
-174.418
0
LINE
8
Black
10
97.7421
20
-174.418
11
97.885
21
-174.561
0
LINE
8
Black
10
97.885
20
-174.561
11
98.0279
21
-174.846
0
LINE
8
Black
10
98.0279
20
-174.846
11
98.0279
21
-175.561
0
LINE
8
Black
10
98.0279
20
-175.561
11
97.885
21
-175.846
0
LINE
8
Black
10
97.885
20
-175.846
11
97.7421
21
-175.989
0
LINE
8
Black
10
97.7421
20
-175.989
11
97.4564
21
-176.132
0
LINE
8
Black
10
97.4564
20
-176.132
11
96.7421
21
-176.132
0
LINE
8
Black
10
96.7421
20
-176.132
11
96.4564
21
-175.989
0
LINE
8
Black
10
96.4564
20
-175.989
11
96.3136
21
-175.846
0
LINE
8
Black
10
99.885
20
-173.132
11
100.171
21
-173.132
0
LINE
8
Black
10
100.171
20
-173.132
11
100.456
21
-173.275
0
LINE
8
Black
10
100.456
20
-173.275
11
100.599
21
-173.418
0
LINE
8
Black
10
100.599
20
-173.418
11
100.742
21
-173.704
0
LINE
8
Black
10
100.742
20
-173.704
11
100.885
21
-174.275
0
LINE
8
Black
10
100.885
20
-174.275
11
100.885
21
-174.989
0
LINE
8
Black
10
100.885
20
-174.989
11
100.742
21
-175.561
0
LINE
8
Black
10
100.742
20
-175.561
11
100.599
21
-175.846
0
LINE
8
Black
10
100.599
20
-175.846
11
100.456
21
-175.989
0
LINE
8
Black
10
100.456
20
-175.989
11
100.171
21
-176.132
0
LINE
8
Black
10
100.171
20
-176.132
11
99.885
21
-176.132
0
LINE
8
Black
10
99.885
20
-176.132
11
99.5993
21
-175.989
0
LINE
8
Black
10
99.5993
20
-175.989
11
99.4564
21
-175.846
0
LINE
8
Black
10
99.4564
20
-175.846
11
99.3136
21
-175.561
0
LINE
8
Black
10
99.3136
20
-175.561
11
99.1707
21
-174.989
0
LINE
8
Black
10
99.1707
20
-174.989
11
99.1707
21
-174.275
0
LINE
8
Black
10
99.1707
20
-174.275
11
99.3136
21
-173.704
0
LINE
8
Black
10
99.3136
20
-173.704
11
99.4564
21
-173.418
0
LINE
8
Black
10
99.4564
20
-173.418
11
99.5993
21
-173.275
0
LINE
8
Black
10
99.5993
20
-173.275
11
99.885
21
-173.132
0
LINE
8
Black
10
102.028
20
-173.132
11
102.028
21
-173.704
0
LINE
8
Black
10
103.171
20
-173.132
11
103.171
21
-173.704
0
LINE
8
Black
10
107.599
20
-177.275
11
107.456
21
-177.132
0
LINE
8
Black
10
107.456
20
-177.132
11
107.171
21
-176.704
0
LINE
8
Black
10
107.171
20
-176.704
11
107.028
21
-176.418
0
LINE
8
Black
10
107.028
20
-176.418
11
106.885
21
-175.989
0
LINE
8
Black
10
106.885
20
-175.989
11
106.742
21
-175.275
0
LINE
8
Black
10
106.742
20
-175.275
11
106.742
21
-174.704
0
LINE
8
Black
10
106.742
20
-174.704
11
106.885
21
-173.989
0
LINE
8
Black
10
106.885
20
-173.989
11
107.028
21
-173.561
0
LINE
8
Black
10
107.028
20
-173.561
11
107.171
21
-173.275
0
LINE
8
Black
10
107.171
20
-173.275
11
107.456
21
-172.846
0
LINE
8
Black
10
107.456
20
-172.846
11
107.599
21
-172.704
0
LINE
8
Black
10
110.171
20
-173.132
11
108.742
21
-173.132
0
LINE
8
Black
10
108.742
20
-173.132
11
108.599
21
-174.561
0
LINE
8
Black
10
108.599
20
-174.561
11
108.742
21
-174.418
0
LINE
8
Black
10
108.742
20
-174.418
11
109.028
21
-174.275
0
LINE
8
Black
10
109.028
20
-174.275
11
109.742
21
-174.275
0
LINE
8
Black
10
109.742
20
-174.275
11
110.028
21
-174.418
0
LINE
8
Black
10
110.028
20
-174.418
11
110.171
21
-174.561
0
LINE
8
Black
10
110.171
20
-174.561
11
110.314
21
-174.846
0
LINE
8
Black
10
110.314
20
-174.846
11
110.314
21
-175.561
0
LINE
8
Black
10
110.314
20
-175.561
11
110.171
21
-175.846
0
LINE
8
Black
10
110.171
20
-175.846
11
110.028
21
-175.989
0
LINE
8
Black
10
110.028
20
-175.989
11
109.742
21
-176.132
0
LINE
8
Black
10
109.742
20
-176.132
11
109.028
21
-176.132
0
LINE
8
Black
10
109.028
20
-176.132
11
108.742
21
-175.989
0
LINE
8
Black
10
108.742
20
-175.989
11
108.599
21
-175.846
0
LINE
8
Black
10
113.885
20
-176.132
11
113.885
21
-173.132
0
LINE
8
Black
10
115.171
20
-176.132
11
115.171
21
-174.561
0
LINE
8
Black
10
115.171
20
-174.561
11
115.028
21
-174.275
0
LINE
8
Black
10
115.028
20
-174.275
11
114.742
21
-174.132
0
LINE
8
Black
10
114.742
20
-174.132
11
114.314
21
-174.132
0
LINE
8
Black
10
114.314
20
-174.132
11
114.028
21
-174.275
0
LINE
8
Black
10
114.028
20
-174.275
11
113.885
21
-174.418
0
LINE
8
Black
10
117.028
20
-176.132
11
116.742
21
-175.989
0
LINE
8
Black
10
116.742
20
-175.989
11
116.599
21
-175.846
0
LINE
8
Black
10
116.599
20
-175.846
11
116.456
21
-175.561
0
LINE
8
Black
10
116.456
20
-175.561
11
116.456
21
-174.704
0
LINE
8
Black
10
116.456
20
-174.704
11
116.599
21
-174.418
0
LINE
8
Black
10
116.599
20
-174.418
11
116.742
21
-174.275
0
LINE
8
Black
10
116.742
20
-174.275
11
117.028
21
-174.132
0
LINE
8
Black
10
117.028
20
-174.132
11
117.456
21
-174.132
0
LINE
8
Black
10
117.456
20
-174.132
11
117.742
21
-174.275
0
LINE
8
Black
10
117.742
20
-174.275
11
117.885
21
-174.418
0
LINE
8
Black
10
117.885
20
-174.418
11
118.028
21
-174.704
0
LINE
8
Black
10
118.028
20
-174.704
11
118.028
21
-175.561
0
LINE
8
Black
10
118.028
20
-175.561
11
117.885
21
-175.846
0
LINE
8
Black
10
117.885
20
-175.846
11
117.742
21
-175.989
0
LINE
8
Black
10
117.742
20
-175.989
11
117.456
21
-176.132
0
LINE
8
Black
10
117.456
20
-176.132
11
117.028
21
-176.132
0
LINE
8
Black
10
119.742
20
-176.132
11
119.456
21
-175.989
0
LINE
8
Black
10
119.456
20
-175.989
11
119.314
21
-175.704
0
LINE
8
Black
10
119.314
20
-175.704
11
119.314
21
-173.132
0
LINE
8
Black
10
122.028
20
-175.989
11
121.742
21
-176.132
0
LINE
8
Black
10
121.742
20
-176.132
11
121.171
21
-176.132
0
LINE
8
Black
10
121.171
20
-176.132
11
120.885
21
-175.989
0
LINE
8
Black
10
120.885
20
-175.989
11
120.742
21
-175.704
0
LINE
8
Black
10
120.742
20
-175.704
11
120.742
21
-174.561
0
LINE
8
Black
10
120.742
20
-174.561
11
120.885
21
-174.275
0
LINE
8
Black
10
120.885
20
-174.275
11
121.171
21
-174.132
0
LINE
8
Black
10
121.171
20
-174.132
11
121.742
21
-174.132
0
LINE
8
Black
10
121.742
20
-174.132
11
122.028
21
-174.275
0
LINE
8
Black
10
122.028
20
-174.275
11
122.171
21
-174.561
0
LINE
8
Black
10
122.171
20
-174.561
11
122.171
21
-174.846
0
LINE
8
Black
10
122.171
20
-174.846
11
120.742
21
-175.132
0
LINE
8
Black
10
123.314
20
-175.989
11
123.599
21
-176.132
0
LINE
8
Black
10
123.599
20
-176.132
11
124.171
21
-176.132
0
LINE
8
Black
10
124.171
20
-176.132
11
124.456
21
-175.989
0
LINE
8
Black
10
124.456
20
-175.989
11
124.599
21
-175.704
0
LINE
8
Black
10
124.599
20
-175.704
11
124.599
21
-175.561
0
LINE
8
Black
10
124.599
20
-175.561
11
124.456
21
-175.275
0
LINE
8
Black
10
124.456
20
-175.275
11
124.171
21
-175.132
0
LINE
8
Black
10
124.171
20
-175.132
11
123.742
21
-175.132
0
LINE
8
Black
10
123.742
20
-175.132
11
123.456
21
-174.989
0
LINE
8
Black
10
123.456
20
-174.989
11
123.314
21
-174.704
0
LINE
8
Black
10
123.314
20
-174.704
11
123.314
21
-174.561
0
LINE
8
Black
10
123.314
20
-174.561
11
123.456
21
-174.275
0
LINE
8
Black
10
123.456
20
-174.275
11
123.742
21
-174.132
0
LINE
8
Black
10
123.742
20
-174.132
11
124.171
21
-174.132
0
LINE
8
Black
10
124.171
20
-174.132
11
124.456
21
-174.275
0
LINE
8
Black
10
125.599
20
-177.275
11
125.742
21
-177.132
0
LINE
8
Black
10
125.742
20
-177.132
11
126.028
21
-176.704
0
LINE
8
Black
10
126.028
20
-176.704
11
126.171
21
-176.418
0
LINE
8
Black
10
126.171
20
-176.418
11
126.314
21
-175.989
0
LINE
8
Black
10
126.314
20
-175.989
11
126.456
21
-175.275
0
LINE
8
Black
10
126.456
20
-175.275
11
126.456
21
-174.704
0
LINE
8
Black
10
126.456
20
-174.704
11
126.314
21
-173.989
0
LINE
8
Black
10
126.314
20
-173.989
11
126.171
21
-173.561
0
LINE
8
Black
10
126.171
20
-173.561
11
126.028
21
-173.275
0
LINE
8
Black
10
126.028
20
-173.275
11
125.742
21
-172.846
0
LINE
8
Black
10
125.742
20
-172.846
11
125.599
21
-172.704
0
LINE
8
Black
10
131.028
20
-177.275
11
130.885
21
-177.132
0
LINE
8
Black
10
130.885
20
-177.132
11
130.599
21
-176.704
0
LINE
8
Black
10
130.599
20
-176.704
11
130.456
21
-176.418
0
LINE
8
Black
10
130.456
20
-176.418
11
130.314
21
-175.989
0
LINE
8
Black
10
130.314
20
-175.989
11
130.171
21
-175.275
0
LINE
8
Black
10
130.171
20
-175.275
11
130.171
21
-174.704
0
LINE
8
Black
10
130.171
20
-174.704
11
130.314
21
-173.989
0
LINE
8
Black
10
130.314
20
-173.989
11
130.456
21
-173.561
0
LINE
8
Black
10
130.456
20
-173.561
11
130.599
21
-173.275
0
LINE
8
Black
10
130.599
20
-173.275
11
130.885
21
-172.846
0
LINE
8
Black
10
130.885
20
-172.846
11
131.028
21
-172.704
0
LINE
8
Black
10
132.171
20
-174.132
11
132.171
21
-176.132
0
LINE
8
Black
10
132.171
20
-174.418
11
132.314
21
-174.275
0
LINE
8
Black
10
132.314
20
-174.275
11
132.599
21
-174.132
0
LINE
8
Black
10
132.599
20
-174.132
11
133.028
21
-174.132
0
LINE
8
Black
10
133.028
20
-174.132
11
133.314
21
-174.275
0
LINE
8
Black
10
133.314
20
-174.275
11
133.456
21
-174.561
0
LINE
8
Black
10
133.456
20
-174.561
11
133.456
21
-176.132
0
LINE
8
Black
10
135.314
20
-176.132
11
135.028
21
-175.989
0
LINE
8
Black
10
135.028
20
-175.989
11
134.885
21
-175.846
0
LINE
8
Black
10
134.885
20
-175.846
11
134.742
21
-175.561
0
LINE
8
Black
10
134.742
20
-175.561
11
134.742
21
-174.704
0
LINE
8
Black
10
134.742
20
-174.704
11
134.885
21
-174.418
0
LINE
8
Black
10
134.885
20
-174.418
11
135.028
21
-174.275
0
LINE
8
Black
10
135.028
20
-174.275
11
135.314
21
-174.132
0
LINE
8
Black
10
135.314
20
-174.132
11
135.742
21
-174.132
0
LINE
8
Black
10
135.742
20
-174.132
11
136.028
21
-174.275
0
LINE
8
Black
10
136.028
20
-174.275
11
136.171
21
-174.418
0
LINE
8
Black
10
136.171
20
-174.418
11
136.314
21
-174.704
0
LINE
8
Black
10
136.314
20
-174.704
11
136.314
21
-175.561
0
LINE
8
Black
10
136.314
20
-175.561
11
136.171
21
-175.846
0
LINE
8
Black
10
136.171
20
-175.846
11
136.028
21
-175.989
0
LINE
8
Black
10
136.028
20
-175.989
11
135.742
21
-176.132
0
LINE
8
Black
10
135.742
20
-176.132
11
135.314
21
-176.132
0
LINE
8
Black
10
137.171
20
-174.132
11
138.314
21
-174.132
0
LINE
8
Black
10
137.599
20
-173.132
11
137.599
21
-175.704
0
LINE
8
Black
10
137.599
20
-175.704
11
137.742
21
-175.989
0
LINE
8
Black
10
137.742
20
-175.989
11
138.028
21
-176.132
0
LINE
8
Black
10
138.028
20
-176.132
11
138.314
21
-176.132
0
LINE
8
Black
10
141.599
20
-174.132
11
141.599
21
-177.132
0
LINE
8
Black
10
141.599
20
-174.275
11
141.885
21
-174.132
0
LINE
8
Black
10
141.885
20
-174.132
11
142.456
21
-174.132
0
LINE
8
Black
10
142.456
20
-174.132
11
142.742
21
-174.275
0
LINE
8
Black
10
142.742
20
-174.275
11
142.885
21
-174.418
0
LINE
8
Black
10
142.885
20
-174.418
11
143.028
21
-174.704
0
LINE
8
Black
10
143.028
20
-174.704
11
143.028
21
-175.561
0
LINE
8
Black
10
143.028
20
-175.561
11
142.885
21
-175.846
0
LINE
8
Black
10
142.885
20
-175.846
11
142.742
21
-175.989
0
LINE
8
Black
10
142.742
20
-175.989
11
142.456
21
-176.132
0
LINE
8
Black
10
142.456
20
-176.132
11
141.885
21
-176.132
0
LINE
8
Black
10
141.885
20
-176.132
11
141.599
21
-175.989
0
LINE
8
Black
10
144.742
20
-176.132
11
144.456
21
-175.989
0
LINE
8
Black
10
144.456
20
-175.989
11
144.314
21
-175.704
0
LINE
8
Black
10
144.314
20
-175.704
11
144.314
21
-173.132
0
LINE
8
Black
10
147.171
20
-176.132
11
147.171
21
-174.561
0
LINE
8
Black
10
147.171
20
-174.561
11
147.028
21
-174.275
0
LINE
8
Black
10
147.028
20
-174.275
11
146.742
21
-174.132
0
LINE
8
Black
10
146.742
20
-174.132
11
146.171
21
-174.132
0
LINE
8
Black
10
146.171
20
-174.132
11
145.885
21
-174.275
0
LINE
8
Black
10
147.171
20
-175.989
11
146.885
21
-176.132
0
LINE
8
Black
10
146.885
20
-176.132
11
146.171
21
-176.132
0
LINE
8
Black
10
146.171
20
-176.132
11
145.885
21
-175.989
0
LINE
8
Black
10
145.885
20
-175.989
11
145.742
21
-175.704
0
LINE
8
Black
10
145.742
20
-175.704
11
145.742
21
-175.418
0
LINE
8
Black
10
145.742
20
-175.418
11
145.885
21
-175.132
0
LINE
8
Black
10
145.885
20
-175.132
11
146.171
21
-174.989
0
LINE
8
Black
10
146.171
20
-174.989
11
146.885
21
-174.989
0
LINE
8
Black
10
146.885
20
-174.989
11
147.171
21
-174.846
0
LINE
8
Black
10
148.171
20
-174.132
11
149.314
21
-174.132
0
LINE
8
Black
10
148.599
20
-173.132
11
148.599
21
-175.704
0
LINE
8
Black
10
148.599
20
-175.704
11
148.742
21
-175.989
0
LINE
8
Black
10
148.742
20
-175.989
11
149.028
21
-176.132
0
LINE
8
Black
10
149.028
20
-176.132
11
149.314
21
-176.132
0
LINE
8
Black
10
151.456
20
-175.989
11
151.171
21
-176.132
0
LINE
8
Black
10
151.171
20
-176.132
11
150.599
21
-176.132
0
LINE
8
Black
10
150.599
20
-176.132
11
150.314
21
-175.989
0
LINE
8
Black
10
150.314
20
-175.989
11
150.171
21
-175.704
0
LINE
8
Black
10
150.171
20
-175.704
11
150.171
21
-174.561
0
LINE
8
Black
10
150.171
20
-174.561
11
150.314
21
-174.275
0
LINE
8
Black
10
150.314
20
-174.275
11
150.599
21
-174.132
0
LINE
8
Black
10
150.599
20
-174.132
11
151.171
21
-174.132
0
LINE
8
Black
10
151.171
20
-174.132
11
151.456
21
-174.275
0
LINE
8
Black
10
151.456
20
-174.275
11
151.599
21
-174.561
0
LINE
8
Black
10
151.599
20
-174.561
11
151.599
21
-174.846
0
LINE
8
Black
10
151.599
20
-174.846
11
150.171
21
-175.132
0
LINE
8
Black
10
154.171
20
-176.132
11
154.171
21
-173.132
0
LINE
8
Black
10
154.171
20
-175.989
11
153.885
21
-176.132
0
LINE
8
Black
10
153.885
20
-176.132
11
153.314
21
-176.132
0
LINE
8
Black
10
153.314
20
-176.132
11
153.028
21
-175.989
0
LINE
8
Black
10
153.028
20
-175.989
11
152.885
21
-175.846
0
LINE
8
Black
10
152.885
20
-175.846
11
152.742
21
-175.561
0
LINE
8
Black
10
152.742
20
-175.561
11
152.742
21
-174.704
0
LINE
8
Black
10
152.742
20
-174.704
11
152.885
21
-174.418
0
LINE
8
Black
10
152.885
20
-174.418
11
153.028
21
-174.275
0
LINE
8
Black
10
153.028
20
-174.275
11
153.314
21
-174.132
0
LINE
8
Black
10
153.314
20
-174.132
11
153.885
21
-174.132
0
LINE
8
Black
10
153.885
20
-174.132
11
154.171
21
-174.275
0
LINE
8
Black
10
155.314
20
-177.275
11
155.456
21
-177.132
0
LINE
8
Black
10
155.456
20
-177.132
11
155.742
21
-176.704
0
LINE
8
Black
10
155.742
20
-176.704
11
155.885
21
-176.418
0
LINE
8
Black
10
155.885
20
-176.418
11
156.028
21
-175.989
0
LINE
8
Black
10
156.028
20
-175.989
11
156.171
21
-175.275
0
LINE
8
Black
10
156.171
20
-175.275
11
156.171
21
-174.704
0
LINE
8
Black
10
156.171
20
-174.704
11
156.028
21
-173.989
0
LINE
8
Black
10
156.028
20
-173.989
11
155.885
21
-173.561
0
LINE
8
Black
10
155.885
20
-173.561
11
155.742
21
-173.275
0
LINE
8
Black
10
155.742
20
-173.275
11
155.456
21
-172.846
0
LINE
8
Black
10
155.456
20
-172.846
11
155.314
21
-172.704
  0
ENDSEC
  0
EOF
