G04 #@! TF.FileFunction,Copper,L1,Top,Signal*
%FSLAX46Y46*%
G04 Gerber Fmt 4.6, Leading zero omitted, Abs format (unit mm)*
G04 Created by KiCad (PCBNEW 4.0.1-stable) date Monday, February 22, 2016 'PMt' 07:07:20 PM*
%MOMM*%
G01*
G04 APERTURE LIST*
%ADD10C,0.100000*%
%ADD11R,1.400000X0.300000*%
%ADD12O,1.600000X1.600000*%
%ADD13C,1.524000*%
%ADD14O,2.400000X1.524000*%
%ADD15O,2.540000X1.524000*%
%ADD16C,2.500000*%
%ADD17C,3.000000*%
%ADD18R,1.524000X1.524000*%
%ADD19R,1.400000X1.400000*%
%ADD20C,1.400000*%
%ADD21R,2.000000X1.600000*%
%ADD22R,1.600000X2.000000*%
%ADD23R,1.300000X1.300000*%
%ADD24C,1.300000*%
%ADD25C,2.349500*%
%ADD26R,1.900000X2.000000*%
%ADD27C,1.900000*%
%ADD28R,1.727200X2.032000*%
%ADD29O,1.727200X2.032000*%
%ADD30R,2.032000X1.727200*%
%ADD31O,2.032000X1.727200*%
%ADD32R,2.000000X1.700000*%
%ADD33R,1.700000X2.000000*%
%ADD34C,1.998980*%
%ADD35O,1.800860X2.499360*%
%ADD36O,2.499360X1.800860*%
%ADD37O,1.501140X2.499360*%
%ADD38R,0.300000X1.400000*%
%ADD39C,4.064000*%
%ADD40C,0.500000*%
%ADD41C,0.600000*%
%ADD42C,0.300000*%
%ADD43C,0.200000*%
%ADD44C,0.250000*%
%ADD45C,0.500000*%
%ADD46C,0.700000*%
%ADD47C,1.000000*%
%ADD48C,0.170000*%
G04 APERTURE END LIST*
D10*
D11*
X147406000Y-120158000D03*
X147406000Y-120658000D03*
X147406000Y-121158000D03*
X147406000Y-121658000D03*
X147406000Y-122158000D03*
X151806000Y-122158000D03*
X151806000Y-121658000D03*
X151806000Y-121158000D03*
X151806000Y-120658000D03*
X151806000Y-120158000D03*
D12*
X144780000Y-126492000D03*
X144780000Y-129032000D03*
X144780000Y-131572000D03*
X144780000Y-134112000D03*
X144780000Y-136652000D03*
X152400000Y-136652000D03*
X152400000Y-134112000D03*
X152400000Y-131572000D03*
X152400000Y-129032000D03*
X152400000Y-126492000D03*
D13*
X172198000Y-111906000D03*
X172198000Y-101746000D03*
X172198000Y-99206000D03*
X169658000Y-99206000D03*
X169658000Y-101746000D03*
X169658000Y-91586000D03*
X169658000Y-89046000D03*
X172198000Y-91586000D03*
X172198000Y-89046000D03*
X172198000Y-94126000D03*
X172198000Y-96666000D03*
X169658000Y-94126000D03*
X169658000Y-96666000D03*
X169658000Y-106826000D03*
X169658000Y-104286000D03*
X169658000Y-109366000D03*
X169658000Y-111906000D03*
X172198000Y-109366000D03*
X169658000Y-119526000D03*
X172198000Y-119526000D03*
X169658000Y-122066000D03*
X172198000Y-122066000D03*
X169658000Y-124606000D03*
X172198000Y-124606000D03*
X169658000Y-134766000D03*
X172198000Y-134766000D03*
X169658000Y-137306000D03*
X172198000Y-137306000D03*
X200138000Y-143656000D03*
X202678000Y-143656000D03*
X205218000Y-143656000D03*
X207758000Y-143656000D03*
X210298000Y-143656000D03*
X212838000Y-143656000D03*
X215378000Y-143656000D03*
X217918000Y-143656000D03*
X220458000Y-143656000D03*
X222998000Y-143656000D03*
X229348000Y-137306000D03*
X226808000Y-137306000D03*
X229348000Y-134766000D03*
X226808000Y-134766000D03*
X229348000Y-132226000D03*
X226808000Y-132226000D03*
X229348000Y-129686000D03*
X226808000Y-129686000D03*
X229348000Y-127146000D03*
X226808000Y-127146000D03*
X229348000Y-124606000D03*
X226808000Y-124606000D03*
X229348000Y-122066000D03*
X226808000Y-122066000D03*
X229348000Y-119526000D03*
X226808000Y-119526000D03*
X229348000Y-116986000D03*
X226808000Y-116986000D03*
X229348000Y-114446000D03*
X226808000Y-114446000D03*
X229348000Y-111906000D03*
X226808000Y-111906000D03*
X229348000Y-109366000D03*
X226808000Y-109366000D03*
X229348000Y-106826000D03*
X226808000Y-106826000D03*
X229348000Y-104286000D03*
X226808000Y-104286000D03*
X229348000Y-101746000D03*
X226808000Y-101746000D03*
X229348000Y-99206000D03*
X226808000Y-99206000D03*
X229348000Y-96666000D03*
X226808000Y-96666000D03*
X229348000Y-94126000D03*
X226808000Y-94126000D03*
X229348000Y-91586000D03*
X226808000Y-91586000D03*
X229348000Y-89046000D03*
X226808000Y-89046000D03*
X197598000Y-143656000D03*
X195058000Y-143656000D03*
X192518000Y-143656000D03*
X189978000Y-143656000D03*
X187438000Y-143656000D03*
X184898000Y-143656000D03*
X182358000Y-143656000D03*
X179818000Y-143656000D03*
X177278000Y-143656000D03*
X174738000Y-143656000D03*
X222998000Y-141116000D03*
X220458000Y-141116000D03*
X217918000Y-141116000D03*
X215378000Y-141116000D03*
X212838000Y-141116000D03*
X210298000Y-141116000D03*
X207758000Y-141116000D03*
X205218000Y-141116000D03*
X202678000Y-141116000D03*
X200138000Y-141116000D03*
X197598000Y-141116000D03*
X195058000Y-141116000D03*
X192518000Y-141116000D03*
X189978000Y-141116000D03*
X187438000Y-141116000D03*
X184898000Y-141116000D03*
X182358000Y-141116000D03*
X179818000Y-141116000D03*
X177278000Y-141116000D03*
X174738000Y-141116000D03*
X172198000Y-132226000D03*
X169658000Y-132226000D03*
X172198000Y-129686000D03*
X169658000Y-129686000D03*
X172198000Y-127146000D03*
X169658000Y-127146000D03*
X172198000Y-116986000D03*
X172198000Y-114446000D03*
X169658000Y-116986000D03*
X169658000Y-114446000D03*
X172198000Y-106826000D03*
X172198000Y-104286000D03*
D14*
X223760000Y-105048000D03*
X223760000Y-107588000D03*
X223760000Y-110128000D03*
X223760000Y-112668000D03*
X223760000Y-115208000D03*
X223760000Y-117748000D03*
X223760000Y-120288000D03*
X223760000Y-122828000D03*
X175500000Y-127908000D03*
X175500000Y-125368000D03*
X175500000Y-122828000D03*
X175500000Y-120288000D03*
X175500000Y-110128000D03*
X175500000Y-105048000D03*
X175500000Y-102508000D03*
X175500000Y-112668000D03*
X175500000Y-115208000D03*
X175500000Y-117748000D03*
X175500000Y-99968000D03*
X175500000Y-97428000D03*
X175500000Y-94888000D03*
X175500000Y-87268000D03*
X175500000Y-89808000D03*
X175500000Y-92348000D03*
D15*
X175500000Y-82188000D03*
X175500000Y-79648000D03*
X175500000Y-77108000D03*
X175500000Y-72028000D03*
X175500000Y-69488000D03*
D14*
X223760000Y-99968000D03*
X223760000Y-97428000D03*
X223760000Y-94888000D03*
X223760000Y-92348000D03*
X223760000Y-89808000D03*
X223760000Y-87268000D03*
X223760000Y-84728000D03*
X223760000Y-82188000D03*
X223760000Y-78124000D03*
X223760000Y-75584000D03*
X223760000Y-73044000D03*
X223760000Y-70504000D03*
X223760000Y-67964000D03*
X223760000Y-65424000D03*
X223760000Y-62884000D03*
X223760000Y-60344000D03*
D15*
X175500000Y-74568000D03*
D16*
X175500000Y-132988000D03*
X223760000Y-126638000D03*
X223760000Y-51708000D03*
X175500000Y-50438000D03*
D13*
X221220000Y-130448000D03*
X221220000Y-132988000D03*
X218680000Y-130448000D03*
X218680000Y-132988000D03*
X216140000Y-130448000D03*
X216140000Y-132988000D03*
X213600000Y-130448000D03*
X213600000Y-132988000D03*
X223760000Y-130448000D03*
X223760000Y-132988000D03*
X211060000Y-132988000D03*
X211060000Y-130448000D03*
X208520000Y-130448000D03*
X208520000Y-132988000D03*
X205980000Y-130448000D03*
X205980000Y-132988000D03*
X203440000Y-130448000D03*
X203440000Y-132988000D03*
X200900000Y-130448000D03*
X200900000Y-132988000D03*
X198360000Y-130448000D03*
X198360000Y-132988000D03*
X195820000Y-130448000D03*
X195820000Y-132988000D03*
X193280000Y-130448000D03*
X193280000Y-132988000D03*
X190740000Y-130448000D03*
X190740000Y-132988000D03*
X188200000Y-130448000D03*
X188200000Y-132988000D03*
X185660000Y-130448000D03*
X185660000Y-132988000D03*
X183120000Y-130448000D03*
X183120000Y-132988000D03*
X180580000Y-130448000D03*
X180580000Y-132988000D03*
X199136000Y-156210000D03*
X201676000Y-156210000D03*
X199136000Y-161290000D03*
X201676000Y-161290000D03*
X209296000Y-161290000D03*
X209296000Y-156210000D03*
X221234000Y-156210000D03*
X223774000Y-156210000D03*
X221234000Y-161290000D03*
X223774000Y-161290000D03*
X231394000Y-161290000D03*
X231394000Y-156210000D03*
D17*
X75206000Y-17840000D03*
X80794000Y-17840000D03*
X85620000Y-28000000D03*
X83080000Y-30540000D03*
X78000000Y-28000000D03*
X72920000Y-30540000D03*
X70380000Y-28000000D03*
D18*
X233172000Y-137287000D03*
D13*
X233172000Y-134747000D03*
X233172000Y-132207000D03*
X233172000Y-129667000D03*
X233172000Y-127127000D03*
X233172000Y-124587000D03*
X233172000Y-122047000D03*
X233172000Y-119507000D03*
X233172000Y-116967000D03*
X233172000Y-114427000D03*
X233172000Y-111887000D03*
X233172000Y-109347000D03*
X233172000Y-106807000D03*
X233172000Y-104267000D03*
X233172000Y-101727000D03*
X233172000Y-99187000D03*
X233172000Y-96647000D03*
X233172000Y-94107000D03*
X233172000Y-91567000D03*
X233172000Y-89027000D03*
D18*
X235712000Y-137287000D03*
D13*
X235712000Y-134747000D03*
X235712000Y-132207000D03*
X235712000Y-129667000D03*
X235712000Y-127127000D03*
X235712000Y-124587000D03*
X235712000Y-122047000D03*
X235712000Y-119507000D03*
X235712000Y-116967000D03*
X235712000Y-114427000D03*
X235712000Y-111887000D03*
X235712000Y-109347000D03*
X235712000Y-106807000D03*
X235712000Y-104267000D03*
X235712000Y-101727000D03*
X235712000Y-99187000D03*
X235712000Y-96647000D03*
X235712000Y-94107000D03*
X235712000Y-91567000D03*
X235712000Y-89027000D03*
D19*
X193802000Y-156464000D03*
D20*
X193802000Y-161464000D03*
D19*
X215646000Y-156464000D03*
D20*
X215646000Y-161464000D03*
D21*
X122206000Y-140462000D03*
X126206000Y-140462000D03*
D22*
X158242000Y-100552000D03*
X158242000Y-96552000D03*
D21*
X135922000Y-139446000D03*
X139922000Y-139446000D03*
D22*
X155194000Y-100552000D03*
X155194000Y-96552000D03*
D21*
X135922000Y-142240000D03*
X139922000Y-142240000D03*
X143224000Y-100838000D03*
X139224000Y-100838000D03*
X143034000Y-140716000D03*
X147034000Y-140716000D03*
D23*
X142240000Y-67310000D03*
D24*
X142240000Y-69810000D03*
D21*
X129572000Y-124460000D03*
X133572000Y-124460000D03*
X122206000Y-160782000D03*
X126206000Y-160782000D03*
D22*
X136398000Y-100552000D03*
X136398000Y-96552000D03*
D21*
X136430000Y-160020000D03*
X140430000Y-160020000D03*
D22*
X133350000Y-100552000D03*
X133350000Y-96552000D03*
D21*
X136430000Y-163068000D03*
X140430000Y-163068000D03*
X122650000Y-100838000D03*
X118650000Y-100838000D03*
D22*
X155956000Y-159036000D03*
X155956000Y-163036000D03*
D21*
X129572000Y-145288000D03*
X133572000Y-145288000D03*
D23*
X116000000Y-23000000D03*
D24*
X113500000Y-23000000D03*
D23*
X116000000Y-31000000D03*
D24*
X113500000Y-31000000D03*
D23*
X152400000Y-67310000D03*
D24*
X152400000Y-69810000D03*
D23*
X121920000Y-67310000D03*
D24*
X121920000Y-69810000D03*
D23*
X132080000Y-67310000D03*
D24*
X132080000Y-69810000D03*
D25*
X74998740Y-65000000D03*
X70000020Y-65000000D03*
X85001260Y-65000000D03*
X89999980Y-65000000D03*
X74998740Y-85000000D03*
X70000020Y-85000000D03*
X85001260Y-85000000D03*
X89999980Y-85000000D03*
X74998740Y-45000000D03*
X70000020Y-45000000D03*
X85001260Y-45000000D03*
X89999980Y-45000000D03*
D26*
X220980000Y-20320000D03*
D27*
X223520000Y-20320000D03*
D26*
X200660000Y-20320000D03*
D27*
X203200000Y-20320000D03*
D26*
X210820000Y-20320000D03*
D27*
X213360000Y-20320000D03*
D28*
X170180000Y-33020000D03*
D29*
X172720000Y-33020000D03*
X175260000Y-33020000D03*
X177800000Y-33020000D03*
X180340000Y-33020000D03*
X182880000Y-33020000D03*
X185420000Y-33020000D03*
X187960000Y-33020000D03*
D28*
X167640000Y-40640000D03*
D29*
X170180000Y-40640000D03*
X172720000Y-40640000D03*
X175260000Y-40640000D03*
X177800000Y-40640000D03*
X180340000Y-40640000D03*
X182880000Y-40640000D03*
X185420000Y-40640000D03*
X187960000Y-40640000D03*
X190500000Y-40640000D03*
D30*
X164084000Y-118364000D03*
D31*
X164084000Y-120904000D03*
X164084000Y-123444000D03*
D28*
X220980000Y-30480000D03*
D29*
X223520000Y-30480000D03*
X226060000Y-30480000D03*
D28*
X169926000Y-147066000D03*
D29*
X167386000Y-147066000D03*
X164846000Y-147066000D03*
D28*
X169926000Y-143256000D03*
D29*
X167386000Y-143256000D03*
X164846000Y-143256000D03*
D28*
X172720000Y-45212000D03*
D29*
X175260000Y-45212000D03*
X177800000Y-45212000D03*
D32*
X164052000Y-127254000D03*
X160052000Y-127254000D03*
X164052000Y-129794000D03*
X160052000Y-129794000D03*
X164052000Y-132334000D03*
X160052000Y-132334000D03*
X164052000Y-134874000D03*
X160052000Y-134874000D03*
X155734000Y-117602000D03*
X159734000Y-117602000D03*
X155734000Y-115062000D03*
X159734000Y-115062000D03*
X199168000Y-25908000D03*
X203168000Y-25908000D03*
X199168000Y-28956000D03*
X203168000Y-28956000D03*
D33*
X155194000Y-84106000D03*
X155194000Y-88106000D03*
D32*
X131794000Y-115570000D03*
X127794000Y-115570000D03*
X129254000Y-118618000D03*
X125254000Y-118618000D03*
D33*
X134874000Y-84106000D03*
X134874000Y-88106000D03*
D32*
X172498000Y-151130000D03*
X176498000Y-151130000D03*
X186150000Y-151130000D03*
X182150000Y-151130000D03*
D34*
X195326000Y-152654000D03*
X205486000Y-152654000D03*
X217424000Y-152654000D03*
X227584000Y-152654000D03*
X125222000Y-145288000D03*
X115062000Y-145288000D03*
X123080000Y-39000000D03*
X112920000Y-39000000D03*
D13*
X111460000Y-46000000D03*
X108920000Y-46000000D03*
X114000000Y-46000000D03*
D12*
X182118000Y-154686000D03*
X179578000Y-154686000D03*
X177038000Y-154686000D03*
X174498000Y-154686000D03*
X171958000Y-154686000D03*
X169418000Y-154686000D03*
X166878000Y-154686000D03*
X164338000Y-154686000D03*
X161798000Y-154686000D03*
X161798000Y-162306000D03*
X164338000Y-162306000D03*
X166878000Y-162306000D03*
X169418000Y-162306000D03*
X171958000Y-162306000D03*
X174498000Y-162306000D03*
X177038000Y-162306000D03*
X179578000Y-162306000D03*
X182118000Y-162306000D03*
D35*
X147320000Y-95379540D03*
X143918940Y-95379540D03*
X150721060Y-95379540D03*
X145620740Y-91879420D03*
X149019260Y-91879420D03*
D36*
X133479540Y-133350000D03*
X133479540Y-136751060D03*
X133479540Y-129948940D03*
X129979420Y-135049260D03*
X129979420Y-131650740D03*
D12*
X150876000Y-104140000D03*
X148336000Y-104140000D03*
X145796000Y-104140000D03*
X143256000Y-104140000D03*
X140716000Y-104140000D03*
X140716000Y-111760000D03*
X143256000Y-111760000D03*
X145796000Y-111760000D03*
X148336000Y-111760000D03*
X150876000Y-111760000D03*
D35*
X127000000Y-95379540D03*
X123598940Y-95379540D03*
X130401060Y-95379540D03*
X125300740Y-91879420D03*
X128699260Y-91879420D03*
D36*
X133479540Y-153670000D03*
X133479540Y-157071060D03*
X133479540Y-150268940D03*
X129979420Y-155369260D03*
X129979420Y-151970740D03*
D12*
X130302000Y-104140000D03*
X127762000Y-104140000D03*
X125222000Y-104140000D03*
X122682000Y-104140000D03*
X120142000Y-104140000D03*
X120142000Y-111760000D03*
X122682000Y-111760000D03*
X125222000Y-111760000D03*
X127762000Y-111760000D03*
X130302000Y-111760000D03*
X144780000Y-151130000D03*
X144780000Y-153670000D03*
X144780000Y-156210000D03*
X144780000Y-158750000D03*
X144780000Y-161290000D03*
X152400000Y-161290000D03*
X152400000Y-158750000D03*
X152400000Y-156210000D03*
X152400000Y-153670000D03*
X152400000Y-151130000D03*
D37*
X104000000Y-39000000D03*
X101460000Y-39000000D03*
X106540000Y-39000000D03*
D38*
X156956000Y-106512000D03*
X156456000Y-106512000D03*
X155956000Y-106512000D03*
X155456000Y-106512000D03*
X154956000Y-106512000D03*
X154956000Y-110912000D03*
X155456000Y-110912000D03*
X155956000Y-110912000D03*
X156456000Y-110912000D03*
X156956000Y-110912000D03*
X136382000Y-106512000D03*
X135882000Y-106512000D03*
X135382000Y-106512000D03*
X134882000Y-106512000D03*
X134382000Y-106512000D03*
X134382000Y-110912000D03*
X134882000Y-110912000D03*
X135382000Y-110912000D03*
X135882000Y-110912000D03*
X136382000Y-110912000D03*
D11*
X147152000Y-144542000D03*
X147152000Y-145042000D03*
X147152000Y-145542000D03*
X147152000Y-146042000D03*
X147152000Y-146542000D03*
X151552000Y-146542000D03*
X151552000Y-146042000D03*
X151552000Y-145542000D03*
X151552000Y-145042000D03*
X151552000Y-144542000D03*
D34*
X124968000Y-124460000D03*
X114808000Y-124460000D03*
D39*
X94000000Y-147000000D03*
X94000000Y-35000000D03*
X235500000Y-147000000D03*
X235500000Y-35000000D03*
D40*
X150876000Y-125476000D03*
X153924000Y-119380000D03*
X153924000Y-122174000D03*
X157734000Y-139700000D03*
X152400000Y-142748000D03*
X186182000Y-155956000D03*
X155194000Y-103124000D03*
X136398000Y-157480000D03*
D41*
X156972000Y-126492000D03*
X144780000Y-144018000D03*
D40*
X160020000Y-112522000D03*
X167640000Y-108204000D03*
X162814000Y-112014000D03*
X143256000Y-145042000D03*
X155448000Y-144272000D03*
X163322000Y-140970000D03*
X171196000Y-140970000D03*
X158496000Y-106172000D03*
X161036000Y-90678000D03*
X168402000Y-54356000D03*
X171704000Y-51054000D03*
X169418000Y-139954000D03*
X147828000Y-108204000D03*
X146050000Y-107188000D03*
X156210000Y-94234000D03*
X159766000Y-88900000D03*
X166878000Y-53594000D03*
X153924000Y-146304000D03*
X153924000Y-143764000D03*
X162052000Y-82042000D03*
D41*
X196850000Y-25908000D03*
D40*
X178308000Y-151130000D03*
X180340000Y-151130000D03*
X149860000Y-99060000D03*
X163830000Y-104394000D03*
X143510000Y-154940000D03*
X156464000Y-152654000D03*
X153924000Y-127762000D03*
X153924000Y-125476000D03*
D42*
X193802000Y-156464000D02*
X198882000Y-156464000D01*
X198882000Y-156464000D02*
X199136000Y-156210000D01*
X193802000Y-156464000D02*
X193802000Y-154178000D01*
X193802000Y-154178000D02*
X195326000Y-152654000D01*
X193802000Y-161464000D02*
X198962000Y-161464000D01*
X198962000Y-161464000D02*
X199136000Y-161290000D01*
X205486000Y-152654000D02*
X205486000Y-154940000D01*
X205486000Y-154940000D02*
X199136000Y-161290000D01*
X215646000Y-156464000D02*
X220980000Y-156464000D01*
X220980000Y-156464000D02*
X221234000Y-156210000D01*
X215646000Y-156464000D02*
X215646000Y-154432000D01*
X215646000Y-154432000D02*
X217424000Y-152654000D01*
X215646000Y-161464000D02*
X221060000Y-161464000D01*
X221060000Y-161464000D02*
X221234000Y-161290000D01*
X227584000Y-152654000D02*
X227584000Y-154940000D01*
X227584000Y-154940000D02*
X221234000Y-161290000D01*
D43*
X151806000Y-122158000D02*
X152892000Y-122158000D01*
X153162000Y-123190000D02*
X150876000Y-125476000D01*
X153162000Y-122428000D02*
X153162000Y-123190000D01*
X152892000Y-122158000D02*
X153162000Y-122428000D01*
D42*
X169658000Y-114446000D02*
X169658000Y-116986000D01*
X139922000Y-139446000D02*
X139922000Y-138970000D01*
X139922000Y-138970000D02*
X144780000Y-134112000D01*
X143034000Y-140716000D02*
X141192000Y-140716000D01*
X141192000Y-140716000D02*
X139922000Y-139446000D01*
X139922000Y-139446000D02*
X139922000Y-142240000D01*
D43*
X147406000Y-121658000D02*
X146566000Y-121658000D01*
X147066000Y-131826000D02*
X144780000Y-134112000D01*
X147066000Y-123444000D02*
X147066000Y-131826000D01*
X146304000Y-122682000D02*
X147066000Y-123444000D01*
X146304000Y-121920000D02*
X146304000Y-122682000D01*
X146566000Y-121658000D02*
X146304000Y-121920000D01*
D42*
X155956000Y-159036000D02*
X157448000Y-159036000D01*
D44*
X157448000Y-159036000D02*
X161798000Y-154686000D01*
D42*
X127000000Y-95379540D02*
X127129540Y-95379540D01*
X127129540Y-95379540D02*
X129286000Y-97536000D01*
X129286000Y-97536000D02*
X132366000Y-97536000D01*
X132366000Y-97536000D02*
X133350000Y-96552000D01*
D43*
X151552000Y-146542000D02*
X151552000Y-147152000D01*
X149098000Y-157988000D02*
X152400000Y-161290000D01*
X149098000Y-149606000D02*
X149098000Y-157988000D01*
X151552000Y-147152000D02*
X149098000Y-149606000D01*
D42*
X122206000Y-160782000D02*
X122206000Y-161322000D01*
X122206000Y-161322000D02*
X123952000Y-163068000D01*
X123952000Y-163068000D02*
X127254000Y-163068000D01*
X127254000Y-163068000D02*
X129979420Y-160342580D01*
X129979420Y-160342580D02*
X129979420Y-155369260D01*
X122206000Y-140462000D02*
X122206000Y-142272000D01*
X122206000Y-142272000D02*
X125222000Y-145288000D01*
D45*
X144780000Y-158750000D02*
X141700000Y-158750000D01*
X141700000Y-158750000D02*
X140430000Y-160020000D01*
X140430000Y-163068000D02*
X140430000Y-160020000D01*
D42*
X152400000Y-161290000D02*
X153702000Y-161290000D01*
X153702000Y-161290000D02*
X155956000Y-159036000D01*
D45*
X125222000Y-145288000D02*
X129572000Y-145288000D01*
X124968000Y-124460000D02*
X129572000Y-124460000D01*
D43*
X147152000Y-146042000D02*
X148836000Y-146042000D01*
X149590000Y-146542000D02*
X151552000Y-146542000D01*
X149098000Y-146050000D02*
X149590000Y-146542000D01*
X148844000Y-146050000D02*
X149098000Y-146050000D01*
X148836000Y-146042000D02*
X148844000Y-146050000D01*
D42*
X177800000Y-45212000D02*
X177800000Y-40640000D01*
D43*
X156956000Y-110912000D02*
X156956000Y-109998000D01*
X155956000Y-109220000D02*
X155448000Y-108712000D01*
X156178000Y-109220000D02*
X155956000Y-109220000D01*
X156956000Y-109998000D02*
X156178000Y-109220000D01*
X155456000Y-106512000D02*
X155456000Y-108196000D01*
X154956000Y-109204000D02*
X154956000Y-110912000D01*
X155448000Y-108712000D02*
X154956000Y-109204000D01*
X155448000Y-108204000D02*
X155448000Y-108712000D01*
X155456000Y-108196000D02*
X155448000Y-108204000D01*
X154956000Y-110912000D02*
X154956000Y-110252000D01*
X154956000Y-110252000D02*
X153924000Y-109220000D01*
X153924000Y-109220000D02*
X143256000Y-109220000D01*
X143256000Y-109220000D02*
X140716000Y-111760000D01*
X134882000Y-106512000D02*
X134882000Y-108704000D01*
X134366000Y-109220000D02*
X134366000Y-110236000D01*
X134882000Y-108704000D02*
X134366000Y-109220000D01*
X134366000Y-110236000D02*
X134382000Y-110912000D01*
X134382000Y-110912000D02*
X134382000Y-109998000D01*
X122682000Y-109220000D02*
X120142000Y-111760000D01*
X133604000Y-109220000D02*
X122682000Y-109220000D01*
X134382000Y-109998000D02*
X133604000Y-109220000D01*
D42*
X155194000Y-96552000D02*
X154400000Y-96552000D01*
X154400000Y-96552000D02*
X153416000Y-97536000D01*
X149476460Y-97536000D02*
X147320000Y-95379540D01*
X153416000Y-97536000D02*
X149476460Y-97536000D01*
X133350000Y-96552000D02*
X132810000Y-96552000D01*
X155194000Y-88106000D02*
X155194000Y-96552000D01*
X134874000Y-88106000D02*
X134874000Y-95028000D01*
X134874000Y-95028000D02*
X133350000Y-96552000D01*
X122650000Y-100838000D02*
X122650000Y-104108000D01*
X122650000Y-104108000D02*
X122682000Y-104140000D01*
X133350000Y-96552000D02*
X136398000Y-96552000D01*
X143224000Y-100838000D02*
X143224000Y-104108000D01*
X143224000Y-104108000D02*
X143256000Y-104140000D01*
X155194000Y-96552000D02*
X158242000Y-96552000D01*
X133479540Y-153670000D02*
X128778000Y-153670000D01*
X126206000Y-156242000D02*
X126206000Y-160782000D01*
X128778000Y-153670000D02*
X126206000Y-156242000D01*
X133479540Y-133350000D02*
X128778000Y-133350000D01*
X126206000Y-135922000D02*
X126206000Y-140462000D01*
X128778000Y-133350000D02*
X126206000Y-135922000D01*
D46*
X167894000Y-100584000D02*
X167894000Y-103124000D01*
X167894000Y-100584000D02*
X163322000Y-96012000D01*
X163322000Y-96012000D02*
X163322000Y-68072000D01*
X163322000Y-68072000D02*
X155448000Y-60198000D01*
X155448000Y-60198000D02*
X104000000Y-60198000D01*
D42*
X172198000Y-101746000D02*
X172198000Y-101868000D01*
X172198000Y-101868000D02*
X170942000Y-103124000D01*
X170688000Y-100584000D02*
X167894000Y-100584000D01*
X172066000Y-99206000D02*
X170688000Y-100584000D01*
X167894000Y-103124000D02*
X167894000Y-100584000D01*
X170942000Y-103124000D02*
X167894000Y-103124000D01*
X172198000Y-99206000D02*
X172066000Y-99206000D01*
D46*
X172198000Y-101746000D02*
X172198000Y-99206000D01*
D47*
X85001260Y-85000000D02*
X89999980Y-85000000D01*
X104000000Y-39000000D02*
X104000000Y-60198000D01*
X104000000Y-60198000D02*
X104000000Y-70999980D01*
X104000000Y-70999980D02*
X89999980Y-85000000D01*
X104000000Y-39000000D02*
X104000000Y-32500000D01*
X104000000Y-32500000D02*
X113500000Y-23000000D01*
D46*
X104000000Y-39000000D02*
X104000000Y-38000000D01*
D43*
X151806000Y-121658000D02*
X153416000Y-121666000D01*
X153400000Y-120158000D02*
X151806000Y-120158000D01*
X153924000Y-119380000D02*
X153400000Y-120158000D01*
X153416000Y-121666000D02*
X153924000Y-122174000D01*
D42*
X144780000Y-144018000D02*
X136398000Y-144018000D01*
X135922000Y-143542000D02*
X135922000Y-142240000D01*
X136398000Y-144018000D02*
X135922000Y-143542000D01*
X135922000Y-139446000D02*
X135922000Y-142240000D01*
D43*
X147406000Y-120158000D02*
X145812000Y-120158000D01*
X144812000Y-121158000D02*
X144812000Y-126460000D01*
X145812000Y-120158000D02*
X144812000Y-121158000D01*
X144812000Y-126460000D02*
X144780000Y-126492000D01*
X147406000Y-120158000D02*
X149114000Y-120158000D01*
X149114000Y-120158000D02*
X151806000Y-120158000D01*
D42*
X172498000Y-151130000D02*
X172498000Y-151606000D01*
X172498000Y-151606000D02*
X170688000Y-153416000D01*
X170688000Y-153416000D02*
X170688000Y-159766000D01*
D45*
X152400000Y-158750000D02*
X152654000Y-158750000D01*
D46*
X152654000Y-158750000D02*
X157734000Y-153670000D01*
X157734000Y-153670000D02*
X157734000Y-139700000D01*
D44*
X148082000Y-142748000D02*
X152400000Y-142748000D01*
X147152000Y-143678000D02*
X148082000Y-142748000D01*
X147152000Y-144542000D02*
X147152000Y-143678000D01*
X157734000Y-139700000D02*
X157734000Y-139446000D01*
X157734000Y-139446000D02*
X157734000Y-139700000D01*
D46*
X152400000Y-126492000D02*
X156972000Y-126492000D01*
X156972000Y-126492000D02*
X157734000Y-127254000D01*
X157734000Y-127254000D02*
X157734000Y-135636000D01*
X157734000Y-135636000D02*
X157734000Y-139446000D01*
X157734000Y-139446000D02*
X157734000Y-139700000D01*
D45*
X152400000Y-126492000D02*
X151892000Y-126492000D01*
D46*
X186150000Y-155924000D02*
X186150000Y-155734000D01*
X186182000Y-155956000D02*
X186150000Y-155924000D01*
D45*
X155194000Y-103124000D02*
X155194000Y-100552000D01*
D43*
X152654000Y-146042000D02*
X152654000Y-148336000D01*
X152654000Y-148336000D02*
X152146000Y-148844000D01*
D44*
X134882000Y-110912000D02*
X134882000Y-109482000D01*
X136398000Y-107966000D02*
X136398000Y-107188000D01*
X134882000Y-109482000D02*
X136398000Y-107966000D01*
X136398000Y-107188000D02*
X136382000Y-106512000D01*
X156956000Y-106512000D02*
X156956000Y-105426000D01*
X155670000Y-104140000D02*
X150876000Y-104140000D01*
X156956000Y-105426000D02*
X155670000Y-104140000D01*
D42*
X172498000Y-151606000D02*
X170688000Y-153416000D01*
X172498000Y-151606000D02*
X170688000Y-153416000D01*
X170688000Y-153416000D02*
X170688000Y-159512000D01*
D45*
X186150000Y-151130000D02*
X186150000Y-155734000D01*
D46*
X164338000Y-159766000D02*
X161798000Y-162306000D01*
X182118000Y-159766000D02*
X170688000Y-159766000D01*
X170688000Y-159766000D02*
X164338000Y-159766000D01*
X186150000Y-155734000D02*
X182118000Y-159766000D01*
D42*
X136430000Y-160020000D02*
X136430000Y-157512000D01*
X136430000Y-157512000D02*
X136398000Y-157480000D01*
D45*
X156972000Y-126492000D02*
X157734000Y-127254000D01*
D42*
X160052000Y-134874000D02*
X157734000Y-134874000D01*
X157734000Y-134874000D02*
X157734000Y-132334000D01*
X160052000Y-132334000D02*
X157734000Y-132334000D01*
X157734000Y-132334000D02*
X157734000Y-129794000D01*
D44*
X160052000Y-127254000D02*
X157734000Y-127254000D01*
D42*
X157734000Y-129794000D02*
X160052000Y-129794000D01*
D44*
X157734000Y-127254000D02*
X157734000Y-129794000D01*
D43*
X152400000Y-158750000D02*
X152400000Y-158496000D01*
X152400000Y-158496000D02*
X150114000Y-156210000D01*
X151130000Y-148844000D02*
X152146000Y-148844000D01*
X150114000Y-149860000D02*
X151130000Y-148844000D01*
X150114000Y-156210000D02*
X150114000Y-149860000D01*
X152654000Y-146042000D02*
X151552000Y-146042000D01*
X147152000Y-144542000D02*
X148352000Y-144542000D01*
X149852000Y-146042000D02*
X151552000Y-146042000D01*
X148352000Y-144542000D02*
X149852000Y-146042000D01*
D45*
X136430000Y-163068000D02*
X136430000Y-160020000D01*
D44*
X147152000Y-144542000D02*
X145304000Y-144542000D01*
X145304000Y-144542000D02*
X144780000Y-144018000D01*
D43*
X136382000Y-106512000D02*
X136382000Y-105172000D01*
X135382000Y-104140000D02*
X130302000Y-104140000D01*
X135890000Y-104648000D02*
X135382000Y-104140000D01*
X135890000Y-104680000D02*
X135890000Y-104648000D01*
X136382000Y-105172000D02*
X135890000Y-104680000D01*
D42*
X170180000Y-33020000D02*
X170180000Y-30988000D01*
X172212000Y-28956000D02*
X199168000Y-28956000D01*
X170180000Y-30988000D02*
X172212000Y-28956000D01*
D43*
X143256000Y-111760000D02*
X143256000Y-110744000D01*
X154178000Y-110490000D02*
X154178000Y-111506000D01*
X153416000Y-109728000D02*
X154178000Y-110490000D01*
X144272000Y-109728000D02*
X153416000Y-109728000D01*
X143256000Y-110744000D02*
X144272000Y-109728000D01*
X154178000Y-111506000D02*
X154178000Y-111506000D01*
X154178000Y-111506000D02*
X154178000Y-111506000D01*
X154178000Y-111506000D02*
X154686000Y-112014000D01*
X154686000Y-112014000D02*
X155194000Y-112014000D01*
X155194000Y-112014000D02*
X155456000Y-111752000D01*
X155456000Y-111752000D02*
X155456000Y-110912000D01*
X122682000Y-111760000D02*
X122682000Y-110744000D01*
X134882000Y-111752000D02*
X134882000Y-110912000D01*
X134620000Y-112014000D02*
X134882000Y-111752000D01*
X133858000Y-112014000D02*
X134620000Y-112014000D01*
X133604000Y-111760000D02*
X133858000Y-112014000D01*
X133604000Y-111506000D02*
X133604000Y-111760000D01*
X133604000Y-110236000D02*
X133604000Y-111506000D01*
X133096000Y-109728000D02*
X133604000Y-110236000D01*
X123698000Y-109728000D02*
X133096000Y-109728000D01*
X122682000Y-110744000D02*
X123698000Y-109728000D01*
D47*
X133350000Y-100552000D02*
X133350000Y-101092000D01*
X133350000Y-101092000D02*
X130302000Y-104140000D01*
X136398000Y-100552000D02*
X133350000Y-100552000D01*
X155194000Y-100552000D02*
X154464000Y-100552000D01*
X154464000Y-100552000D02*
X150876000Y-104140000D01*
X158242000Y-100552000D02*
X155194000Y-100552000D01*
D44*
X154956000Y-106512000D02*
X143088000Y-106512000D01*
X143088000Y-106512000D02*
X140716000Y-104140000D01*
D42*
X139224000Y-100838000D02*
X139224000Y-102648000D01*
X139224000Y-102648000D02*
X140716000Y-104140000D01*
X147034000Y-140716000D02*
X147034000Y-138906000D01*
X147034000Y-138906000D02*
X144780000Y-136652000D01*
D43*
X144780000Y-136652000D02*
X144780000Y-136398000D01*
X144780000Y-136398000D02*
X147574000Y-133604000D01*
X147574000Y-122326000D02*
X147406000Y-122158000D01*
X147574000Y-133604000D02*
X147574000Y-122326000D01*
D42*
X167386000Y-111760000D02*
X168402000Y-110744000D01*
X170942000Y-110744000D02*
X172104000Y-111906000D01*
X168402000Y-110744000D02*
X170942000Y-110744000D01*
X172104000Y-111906000D02*
X172198000Y-111906000D01*
D46*
X160020000Y-112522000D02*
X160782000Y-112522000D01*
X160782000Y-112522000D02*
X161290000Y-113030000D01*
X161290000Y-113030000D02*
X164592000Y-113030000D01*
X164592000Y-113030000D02*
X165862000Y-111760000D01*
X165862000Y-111760000D02*
X167386000Y-111760000D01*
D43*
X147152000Y-120658000D02*
X146058000Y-120658000D01*
X146058000Y-120658000D02*
X145304000Y-121412000D01*
D45*
X133572000Y-124460000D02*
X133572000Y-129856480D01*
X133572000Y-129856480D02*
X133479540Y-129948940D01*
D43*
X133479540Y-129948940D02*
X138529060Y-129948940D01*
X139446000Y-129032000D02*
X144780000Y-129032000D01*
X138529060Y-129948940D02*
X139446000Y-129032000D01*
X146050000Y-127508000D02*
X144780000Y-128778000D01*
X146050000Y-126746000D02*
X146050000Y-127508000D01*
X146050000Y-125476000D02*
X146050000Y-126746000D01*
X146050000Y-123952000D02*
X146050000Y-125476000D01*
X145796000Y-123698000D02*
X146050000Y-123952000D01*
X145288000Y-123190000D02*
X145796000Y-123698000D01*
X145288000Y-121412000D02*
X145288000Y-123190000D01*
X145304000Y-121412000D02*
X145288000Y-121412000D01*
X144780000Y-128778000D02*
X144780000Y-129032000D01*
D48*
X134382000Y-106512000D02*
X122514000Y-106512000D01*
X122514000Y-106512000D02*
X120142000Y-104140000D01*
D42*
X118650000Y-100838000D02*
X118650000Y-102648000D01*
X118650000Y-102648000D02*
X120142000Y-104140000D01*
D43*
X144780000Y-161290000D02*
X145288000Y-161290000D01*
X145288000Y-161290000D02*
X147152000Y-159426000D01*
X147152000Y-159426000D02*
X147152000Y-146542000D01*
D42*
X155956000Y-163036000D02*
X146526000Y-163036000D01*
X146526000Y-163036000D02*
X144780000Y-161290000D01*
D46*
X166370000Y-108458000D02*
X166624000Y-108204000D01*
X162814000Y-112014000D02*
X166370000Y-108458000D01*
X166624000Y-108204000D02*
X167640000Y-108204000D01*
D42*
X172198000Y-109366000D02*
X171558000Y-109366000D01*
X171558000Y-109366000D02*
X170396000Y-108204000D01*
X170396000Y-108204000D02*
X167640000Y-108204000D01*
X167640000Y-108204000D02*
X166624000Y-108204000D01*
D47*
X133572000Y-145288000D02*
X143256000Y-145288000D01*
X143256000Y-145288000D02*
X143256000Y-145042000D01*
D44*
X144780000Y-153670000D02*
X143256000Y-152146000D01*
X143256000Y-152146000D02*
X143256000Y-145042000D01*
X143256000Y-145042000D02*
X143256000Y-145034000D01*
X143256000Y-145034000D02*
X143256000Y-145042000D01*
X147152000Y-145042000D02*
X143256000Y-145042000D01*
X143256000Y-145042000D02*
X133818000Y-145042000D01*
X133818000Y-145042000D02*
X133572000Y-145288000D01*
D45*
X133572000Y-145288000D02*
X133572000Y-150176480D01*
X133572000Y-150176480D02*
X133479540Y-150268940D01*
D46*
X112920000Y-39000000D02*
X112920000Y-39006000D01*
D47*
X112920000Y-39006000D02*
X119634000Y-45720000D01*
X172198000Y-71106000D02*
X172198000Y-89046000D01*
X146812000Y-45720000D02*
X172198000Y-71106000D01*
X119634000Y-45720000D02*
X146812000Y-45720000D01*
X106540000Y-39000000D02*
X112920000Y-39000000D01*
X106540000Y-39000000D02*
X106540000Y-37960000D01*
X106540000Y-37960000D02*
X113500000Y-31000000D01*
D43*
X156456000Y-106512000D02*
X156456000Y-105527044D01*
X149606000Y-105410000D02*
X148336000Y-104140000D01*
X151638000Y-105410000D02*
X149606000Y-105410000D01*
X152400000Y-104648000D02*
X151638000Y-105410000D01*
X155576956Y-104648000D02*
X152400000Y-104648000D01*
X156456000Y-105527044D02*
X155576956Y-104648000D01*
D46*
X149019260Y-91879420D02*
X149019260Y-91869260D01*
X149019260Y-91869260D02*
X140970000Y-83820000D01*
D45*
X147066000Y-72644000D02*
X152400000Y-67310000D01*
X141986000Y-72644000D02*
X147066000Y-72644000D01*
X140970000Y-73660000D02*
X141986000Y-72644000D01*
D46*
X140970000Y-95758000D02*
X140970000Y-83820000D01*
X148336000Y-104140000D02*
X148336000Y-101854000D01*
X148336000Y-101854000D02*
X144526000Y-98044000D01*
X144526000Y-98044000D02*
X143256000Y-98044000D01*
X143256000Y-98044000D02*
X140970000Y-95758000D01*
D45*
X140970000Y-83820000D02*
X140970000Y-73660000D01*
D42*
X135128000Y-70358000D02*
X135128000Y-67310000D01*
X135128000Y-67310000D02*
X132080000Y-67310000D01*
D45*
X128699260Y-91879420D02*
X128699260Y-82120740D01*
X135128000Y-70358000D02*
X135128000Y-67564000D01*
X135128000Y-75692000D02*
X135128000Y-70358000D01*
X128699260Y-82120740D02*
X135128000Y-75692000D01*
D48*
X135382000Y-104902000D02*
X131572000Y-104902000D01*
X135882000Y-105402000D02*
X135382000Y-104902000D01*
X135882000Y-106512000D02*
X135882000Y-105402000D01*
X129032000Y-105410000D02*
X127762000Y-104140000D01*
X131064000Y-105410000D02*
X129032000Y-105410000D01*
X131572000Y-104902000D02*
X131064000Y-105410000D01*
D42*
X203168000Y-25908000D02*
X203168000Y-20352000D01*
X203168000Y-20352000D02*
X203200000Y-20320000D01*
X203168000Y-28956000D02*
X205359000Y-28956000D01*
X205359000Y-28956000D02*
X213360000Y-20955000D01*
X213360000Y-20955000D02*
X213360000Y-20320000D01*
D44*
X177800000Y-33020000D02*
X177800000Y-33528000D01*
X180340000Y-33020000D02*
X180340000Y-33020000D01*
X182880000Y-33020000D02*
X182880000Y-33020000D01*
X185660000Y-132988000D02*
X185660000Y-132856000D01*
X183120000Y-132988000D02*
X183120000Y-132348000D01*
D43*
X151806000Y-120658000D02*
X150376000Y-120658000D01*
X149860000Y-126492000D02*
X152400000Y-129032000D01*
X149860000Y-121174000D02*
X149860000Y-126492000D01*
X150376000Y-120658000D02*
X149860000Y-121174000D01*
X135882000Y-110912000D02*
X135882000Y-113030000D01*
X135882000Y-113030000D02*
X135890000Y-113030000D01*
D42*
X155448000Y-144272000D02*
X155448000Y-145796000D01*
X171196000Y-140970000D02*
X163322000Y-140970000D01*
X161036000Y-103632000D02*
X158496000Y-106172000D01*
X161036000Y-103632000D02*
X161036000Y-99314000D01*
X161036000Y-90678000D02*
X161036000Y-103632000D01*
X171704000Y-51054000D02*
X168402000Y-54356000D01*
D43*
X151806000Y-120658000D02*
X156678000Y-120658000D01*
X156678000Y-120658000D02*
X159734000Y-117602000D01*
D44*
X154686000Y-145042000D02*
X154686000Y-131318000D01*
X154686000Y-131318000D02*
X152400000Y-129032000D01*
D42*
X127762000Y-111760000D02*
X127762000Y-115538000D01*
X127762000Y-115538000D02*
X127794000Y-115570000D01*
D44*
X152400000Y-153670000D02*
X153416000Y-153670000D01*
X153416000Y-153670000D02*
X155448000Y-151638000D01*
X155448000Y-151638000D02*
X155448000Y-145796000D01*
D43*
X154694000Y-145042000D02*
X154686000Y-145042000D01*
X154686000Y-145042000D02*
X151552000Y-145042000D01*
X155448000Y-145796000D02*
X154694000Y-145042000D01*
D42*
X172720000Y-45212000D02*
X172720000Y-40640000D01*
X148336000Y-111760000D02*
X147066000Y-113030000D01*
X147066000Y-113030000D02*
X147066000Y-113030000D01*
X147066000Y-113030000D02*
X135890000Y-113030000D01*
X135890000Y-113030000D02*
X129032000Y-113030000D01*
X129032000Y-113030000D02*
X127762000Y-111760000D01*
D43*
X148336000Y-111760000D02*
X148336000Y-112014000D01*
X148336000Y-112014000D02*
X149352000Y-113030000D01*
X149352000Y-113030000D02*
X154432000Y-113030000D01*
X154432000Y-113030000D02*
X155702000Y-113030000D01*
X155702000Y-113030000D02*
X156464000Y-112268000D01*
X156464000Y-112268000D02*
X156456000Y-110912000D01*
X127762000Y-111760000D02*
X129032000Y-113030000D01*
D42*
X167640000Y-52832000D02*
X166878000Y-53594000D01*
X175260000Y-45212000D02*
X170180000Y-50292000D01*
X167640000Y-52832000D02*
X170180000Y-50292000D01*
X147066000Y-108204000D02*
X147828000Y-108204000D01*
X146050000Y-107188000D02*
X147066000Y-108204000D01*
X158496000Y-94234000D02*
X156210000Y-94234000D01*
X159004000Y-93726000D02*
X158496000Y-94234000D01*
X159766000Y-92964000D02*
X159004000Y-93726000D01*
X159766000Y-90424000D02*
X159766000Y-92964000D01*
X159766000Y-88900000D02*
X159766000Y-90424000D01*
D43*
X151806000Y-121158000D02*
X156972000Y-121158000D01*
X161544000Y-116586000D02*
X160020000Y-115062000D01*
X161544000Y-118618000D02*
X161544000Y-116586000D01*
X161036000Y-119126000D02*
X161544000Y-118618000D01*
X159004000Y-119126000D02*
X161036000Y-119126000D01*
X156972000Y-121158000D02*
X159004000Y-119126000D01*
X160020000Y-115062000D02*
X159734000Y-115062000D01*
D44*
X152400000Y-131572000D02*
X153924000Y-133096000D01*
X153924000Y-133604000D02*
X153924000Y-133096000D01*
X153924000Y-143764000D02*
X153924000Y-133604000D01*
D43*
X153162000Y-145542000D02*
X153924000Y-146304000D01*
X153924000Y-148336000D02*
X152654000Y-149606000D01*
X153924000Y-146304000D02*
X153924000Y-148336000D01*
D42*
X125254000Y-118618000D02*
X125254000Y-111792000D01*
X125254000Y-111792000D02*
X125222000Y-111760000D01*
D43*
X152400000Y-156210000D02*
X152146000Y-156210000D01*
X152146000Y-156210000D02*
X150876000Y-154940000D01*
X151892000Y-149606000D02*
X152654000Y-149606000D01*
X150876000Y-150622000D02*
X151892000Y-149606000D01*
X150876000Y-154940000D02*
X150876000Y-150622000D01*
X153162000Y-145542000D02*
X151552000Y-145542000D01*
D42*
X175260000Y-45212000D02*
X175260000Y-40640000D01*
D43*
X145796000Y-111760000D02*
X145796000Y-111252000D01*
X145796000Y-111252000D02*
X146812000Y-110236000D01*
X146812000Y-110236000D02*
X152908000Y-110236000D01*
X152908000Y-110236000D02*
X153416000Y-110744000D01*
X153416000Y-110744000D02*
X153416000Y-111760000D01*
X153416000Y-111760000D02*
X154178000Y-112522000D01*
X154178000Y-112522000D02*
X155448000Y-112522000D01*
X155448000Y-112522000D02*
X155956000Y-112014000D01*
X155956000Y-112014000D02*
X155956000Y-110912000D01*
X125222000Y-111760000D02*
X125222000Y-110744000D01*
X135382000Y-112014000D02*
X135382000Y-110912000D01*
X134874000Y-112522000D02*
X135382000Y-112014000D01*
X133604000Y-112522000D02*
X134874000Y-112522000D01*
X132842000Y-111760000D02*
X133604000Y-112522000D01*
X132842000Y-110490000D02*
X132842000Y-111760000D01*
X132588000Y-110236000D02*
X132842000Y-110490000D01*
X132334000Y-110236000D02*
X132588000Y-110236000D01*
X125730000Y-110236000D02*
X132334000Y-110236000D01*
X125222000Y-110744000D02*
X125730000Y-110236000D01*
D42*
X182358000Y-141116000D02*
X182358000Y-140956000D01*
X182358000Y-140956000D02*
X178562000Y-137160000D01*
X178562000Y-137160000D02*
X178562000Y-129286000D01*
X178562000Y-129286000D02*
X178562000Y-128270000D01*
X178562000Y-128270000D02*
X180340000Y-126492000D01*
X180340000Y-126492000D02*
X180340000Y-96266000D01*
X180340000Y-96266000D02*
X181102000Y-95504000D01*
X181102000Y-95504000D02*
X181102000Y-42418000D01*
X181102000Y-42418000D02*
X182880000Y-40640000D01*
X179818000Y-141116000D02*
X179978000Y-141116000D01*
X179978000Y-141116000D02*
X181356000Y-142494000D01*
X181356000Y-142494000D02*
X182880000Y-142494000D01*
X182880000Y-142494000D02*
X183642000Y-141732000D01*
X183642000Y-141732000D02*
X183642000Y-139954000D01*
X183642000Y-139954000D02*
X183388000Y-139700000D01*
X183388000Y-139700000D02*
X182118000Y-139700000D01*
X182118000Y-139700000D02*
X179324000Y-136906000D01*
X179324000Y-136906000D02*
X179324000Y-128524000D01*
X179324000Y-128524000D02*
X181102000Y-126746000D01*
X181102000Y-126746000D02*
X181102000Y-96774000D01*
X181102000Y-96774000D02*
X181102000Y-96520000D01*
X181102000Y-96520000D02*
X181864000Y-95758000D01*
X181864000Y-95758000D02*
X181864000Y-43688000D01*
X181864000Y-43688000D02*
X181864000Y-42926000D01*
X181864000Y-42926000D02*
X182372000Y-42418000D01*
X182372000Y-42418000D02*
X183642000Y-42418000D01*
X183642000Y-42418000D02*
X185420000Y-40640000D01*
X164084000Y-120904000D02*
X165956000Y-120904000D01*
X165956000Y-120904000D02*
X169658000Y-124606000D01*
X172198000Y-124606000D02*
X172104000Y-124606000D01*
X172104000Y-124606000D02*
X170942000Y-123444000D01*
X170942000Y-123444000D02*
X169418000Y-123444000D01*
X169418000Y-123444000D02*
X164338000Y-118364000D01*
X164338000Y-118364000D02*
X164084000Y-118364000D01*
D43*
X177292000Y-134366000D02*
X177292000Y-127508000D01*
X171450000Y-133604000D02*
X173228000Y-133604000D01*
X173228000Y-133604000D02*
X174752000Y-135128000D01*
X174752000Y-135128000D02*
X176530000Y-135128000D01*
X176530000Y-135128000D02*
X177292000Y-134366000D01*
X170288000Y-134766000D02*
X171450000Y-133604000D01*
X179070000Y-93378000D02*
X175500000Y-89808000D01*
X179070000Y-125730000D02*
X179070000Y-93378000D01*
X177292000Y-127508000D02*
X179070000Y-125730000D01*
X169658000Y-134766000D02*
X170288000Y-134766000D01*
D42*
X164052000Y-134874000D02*
X169550000Y-134874000D01*
X169550000Y-134874000D02*
X169658000Y-134766000D01*
D44*
X169550000Y-134874000D02*
X169658000Y-134766000D01*
X164052000Y-135636000D02*
X164465000Y-135636000D01*
D43*
X177800000Y-130556000D02*
X177800000Y-127762000D01*
X172198000Y-134766000D02*
X173628000Y-134766000D01*
X177038000Y-135636000D02*
X177800000Y-134874000D01*
X174498000Y-135636000D02*
X177038000Y-135636000D01*
X173628000Y-134766000D02*
X174498000Y-135636000D01*
X177800000Y-130556000D02*
X177800000Y-134874000D01*
X179578000Y-91346000D02*
X175500000Y-87268000D01*
X179578000Y-125984000D02*
X179578000Y-91346000D01*
X177800000Y-127762000D02*
X179578000Y-125984000D01*
X169658000Y-132226000D02*
X170288000Y-132226000D01*
X170288000Y-132226000D02*
X171450000Y-131064000D01*
X178054000Y-97442000D02*
X175500000Y-94888000D01*
X178054000Y-123190000D02*
X178054000Y-97442000D01*
X177038000Y-124206000D02*
X178054000Y-123190000D01*
X174244000Y-124206000D02*
X177038000Y-124206000D01*
X173482000Y-124968000D02*
X174244000Y-124206000D01*
X173482000Y-130302000D02*
X173482000Y-124968000D01*
X172720000Y-131064000D02*
X173482000Y-130302000D01*
X171450000Y-131064000D02*
X172720000Y-131064000D01*
D42*
X164052000Y-132334000D02*
X169550000Y-132334000D01*
X169550000Y-132334000D02*
X169658000Y-132226000D01*
D44*
X164052000Y-132588000D02*
X164719000Y-132588000D01*
D43*
X220458000Y-143656000D02*
X220643500Y-143656000D01*
X222998000Y-143656000D02*
X222998000Y-143587500D01*
X233172000Y-137287000D02*
X233172000Y-137668000D01*
X233172000Y-137668000D02*
X232156000Y-138684000D01*
X232156000Y-138684000D02*
X227838000Y-138684000D01*
X227838000Y-138684000D02*
X226808000Y-137654000D01*
X226808000Y-137654000D02*
X226808000Y-137306000D01*
X233172000Y-134747000D02*
X233172000Y-134874000D01*
X233172000Y-134874000D02*
X231902000Y-136144000D01*
X231902000Y-136144000D02*
X227838000Y-136144000D01*
X227838000Y-136144000D02*
X226808000Y-135114000D01*
X226808000Y-135114000D02*
X226808000Y-134766000D01*
X233172000Y-132207000D02*
X233172000Y-132334000D01*
X233172000Y-132334000D02*
X231902000Y-133604000D01*
X231902000Y-133604000D02*
X227838000Y-133604000D01*
X227838000Y-133604000D02*
X226808000Y-132574000D01*
X226808000Y-132574000D02*
X226808000Y-132226000D01*
X233172000Y-129667000D02*
X233172000Y-129794000D01*
X233172000Y-129794000D02*
X231902000Y-131064000D01*
X231902000Y-131064000D02*
X227838000Y-131064000D01*
X227838000Y-131064000D02*
X226808000Y-130034000D01*
X226808000Y-130034000D02*
X226808000Y-129686000D01*
X233172000Y-127127000D02*
X233172000Y-127508000D01*
X233172000Y-127508000D02*
X232156000Y-128524000D01*
X232156000Y-128524000D02*
X227838000Y-128524000D01*
X227838000Y-128524000D02*
X226808000Y-127494000D01*
X226808000Y-127494000D02*
X226808000Y-127146000D01*
X233172000Y-124587000D02*
X233172000Y-124968000D01*
X233172000Y-124968000D02*
X232156000Y-125984000D01*
X227838000Y-125984000D02*
X226808000Y-124954000D01*
X232156000Y-125984000D02*
X227838000Y-125984000D01*
X226808000Y-124954000D02*
X226808000Y-124606000D01*
X226808000Y-125208000D02*
X226808000Y-124606000D01*
X233172000Y-122047000D02*
X233172000Y-122428000D01*
X233172000Y-122428000D02*
X232156000Y-123444000D01*
X232156000Y-123444000D02*
X227838000Y-123444000D01*
X227838000Y-123444000D02*
X226808000Y-122414000D01*
X226808000Y-122414000D02*
X226808000Y-122066000D01*
X233172000Y-119507000D02*
X233172000Y-119888000D01*
X233172000Y-119888000D02*
X232156000Y-120904000D01*
X232156000Y-120904000D02*
X227838000Y-120904000D01*
X227838000Y-120904000D02*
X226808000Y-119874000D01*
X226808000Y-119874000D02*
X226808000Y-119526000D01*
X233172000Y-116967000D02*
X233172000Y-117602000D01*
X233172000Y-117602000D02*
X232410000Y-118364000D01*
X232410000Y-118364000D02*
X227838000Y-118364000D01*
X227838000Y-118364000D02*
X226808000Y-117334000D01*
X226808000Y-117334000D02*
X226808000Y-116986000D01*
X233172000Y-114427000D02*
X233172000Y-115062000D01*
X233172000Y-115062000D02*
X232410000Y-115824000D01*
X232410000Y-115824000D02*
X227838000Y-115824000D01*
X227838000Y-115824000D02*
X226808000Y-114794000D01*
X226808000Y-114794000D02*
X226808000Y-114446000D01*
X233172000Y-111887000D02*
X233172000Y-112522000D01*
X233172000Y-112522000D02*
X232410000Y-113284000D01*
X232410000Y-113284000D02*
X227838000Y-113284000D01*
X227838000Y-113284000D02*
X226808000Y-112254000D01*
X226808000Y-112254000D02*
X226808000Y-111906000D01*
X233172000Y-109347000D02*
X233172000Y-109728000D01*
X233172000Y-109728000D02*
X232156000Y-110744000D01*
X232156000Y-110744000D02*
X227838000Y-110744000D01*
X227838000Y-110744000D02*
X226808000Y-109714000D01*
X226808000Y-109714000D02*
X226808000Y-109366000D01*
X233172000Y-106807000D02*
X233172000Y-107188000D01*
X233172000Y-107188000D02*
X232156000Y-108204000D01*
X232156000Y-108204000D02*
X227838000Y-108204000D01*
X227838000Y-108204000D02*
X226808000Y-107174000D01*
X226808000Y-107174000D02*
X226808000Y-106826000D01*
X233172000Y-104267000D02*
X233172000Y-104648000D01*
X233172000Y-104648000D02*
X232156000Y-105664000D01*
X232156000Y-105664000D02*
X227838000Y-105664000D01*
X227838000Y-105664000D02*
X226808000Y-104634000D01*
X226808000Y-104634000D02*
X226808000Y-104286000D01*
X233172000Y-101727000D02*
X233172000Y-102108000D01*
X233172000Y-102108000D02*
X232156000Y-103124000D01*
X232156000Y-103124000D02*
X227838000Y-103124000D01*
X227838000Y-103124000D02*
X226808000Y-102094000D01*
X226808000Y-102094000D02*
X226808000Y-101746000D01*
X233172000Y-99187000D02*
X233172000Y-99568000D01*
X233172000Y-99568000D02*
X232156000Y-100584000D01*
X232156000Y-100584000D02*
X227838000Y-100584000D01*
X227838000Y-100584000D02*
X226808000Y-99554000D01*
X226808000Y-99554000D02*
X226808000Y-99206000D01*
X233172000Y-96647000D02*
X233172000Y-97028000D01*
X233172000Y-97028000D02*
X232156000Y-98044000D01*
X232156000Y-98044000D02*
X227838000Y-98044000D01*
X227838000Y-98044000D02*
X226808000Y-97014000D01*
X226808000Y-97014000D02*
X226808000Y-96666000D01*
X233172000Y-94107000D02*
X233172000Y-94488000D01*
X233172000Y-94488000D02*
X232156000Y-95504000D01*
X232156000Y-95504000D02*
X227838000Y-95504000D01*
X227838000Y-95504000D02*
X226808000Y-94474000D01*
X226808000Y-94474000D02*
X226808000Y-94126000D01*
X233172000Y-91567000D02*
X233172000Y-91948000D01*
X233172000Y-91948000D02*
X232156000Y-92964000D01*
X232156000Y-92964000D02*
X227838000Y-92964000D01*
X227838000Y-92964000D02*
X226808000Y-91934000D01*
X226808000Y-91934000D02*
X226808000Y-91586000D01*
X233172000Y-89027000D02*
X233172000Y-89408000D01*
X233172000Y-89408000D02*
X232156000Y-90424000D01*
X232156000Y-90424000D02*
X227838000Y-90424000D01*
X227838000Y-90424000D02*
X226808000Y-89394000D01*
X226808000Y-89394000D02*
X226808000Y-89046000D01*
D44*
X222998000Y-141116000D02*
X222998000Y-140702000D01*
X222998000Y-140702000D02*
X216916000Y-134620000D01*
X210058000Y-131699000D02*
X208807000Y-130448000D01*
X211709000Y-131699000D02*
X210058000Y-131699000D01*
X212344000Y-132334000D02*
X211709000Y-131699000D01*
X212344000Y-133985000D02*
X212344000Y-132334000D01*
X212979000Y-134620000D02*
X212344000Y-133985000D01*
X216916000Y-134620000D02*
X212979000Y-134620000D01*
X208807000Y-130448000D02*
X208520000Y-130448000D01*
D43*
X222998000Y-141116000D02*
X222998000Y-140829000D01*
X208934000Y-130448000D02*
X208520000Y-130448000D01*
D44*
X220458000Y-141116000D02*
X220458000Y-141238000D01*
X220458000Y-141238000D02*
X219329000Y-142367000D01*
X210185000Y-135255000D02*
X208520000Y-133590000D01*
X211328000Y-135255000D02*
X210185000Y-135255000D01*
X216662000Y-140589000D02*
X211328000Y-135255000D01*
X216662000Y-141859000D02*
X216662000Y-140589000D01*
X217170000Y-142367000D02*
X216662000Y-141859000D01*
X219329000Y-142367000D02*
X217170000Y-142367000D01*
X208520000Y-133590000D02*
X208520000Y-132988000D01*
D43*
X220458000Y-141116000D02*
X220458000Y-141365000D01*
X208534000Y-133002000D02*
X208520000Y-132988000D01*
D44*
X217918000Y-141116000D02*
X217918000Y-140702000D01*
X217918000Y-140702000D02*
X211709000Y-134493000D01*
X207231000Y-131699000D02*
X205980000Y-130448000D01*
X209169000Y-131699000D02*
X207231000Y-131699000D01*
X209804000Y-132334000D02*
X209169000Y-131699000D01*
X209804000Y-133731000D02*
X209804000Y-132334000D01*
X210566000Y-134493000D02*
X209804000Y-133731000D01*
X211709000Y-134493000D02*
X210566000Y-134493000D01*
D43*
X217918000Y-141116000D02*
X217918000Y-140956000D01*
X206140000Y-130448000D02*
X205980000Y-130448000D01*
D44*
X205980000Y-132988000D02*
X205980000Y-133082000D01*
X205980000Y-133082000D02*
X212598000Y-139700000D01*
X213962000Y-139700000D02*
X215378000Y-141116000D01*
X212598000Y-139700000D02*
X213962000Y-139700000D01*
X215378000Y-141116000D02*
X214776000Y-141116000D01*
X206648000Y-132988000D02*
X205980000Y-132988000D01*
D43*
X215378000Y-141116000D02*
X215378000Y-141619000D01*
X206375000Y-133383000D02*
X205980000Y-132988000D01*
D44*
X203440000Y-130448000D02*
X203440000Y-130542000D01*
X203440000Y-130542000D02*
X204724000Y-131826000D01*
X204724000Y-133604000D02*
X212236000Y-141116000D01*
X204724000Y-131826000D02*
X204724000Y-133604000D01*
X212236000Y-141116000D02*
X212838000Y-141116000D01*
X212838000Y-141116000D02*
X212109000Y-141116000D01*
X203440000Y-131050000D02*
X203440000Y-130448000D01*
D43*
X203981000Y-130448000D02*
X203440000Y-130448000D01*
X210298000Y-141116000D02*
X210298000Y-140956000D01*
D44*
X210298000Y-140956000D02*
X203440000Y-134098000D01*
X203440000Y-134098000D02*
X203440000Y-132988000D01*
X210298000Y-141116000D02*
X210077000Y-141116000D01*
D43*
X210298000Y-141746000D02*
X210298000Y-141116000D01*
X203440000Y-132988000D02*
X203440000Y-133590000D01*
X200900000Y-130448000D02*
X200900000Y-130542000D01*
D44*
X200900000Y-130542000D02*
X202184000Y-131826000D01*
X202184000Y-131826000D02*
X202184000Y-135636000D01*
X202184000Y-135636000D02*
X207664000Y-141116000D01*
D43*
X207664000Y-141116000D02*
X207758000Y-141116000D01*
D44*
X207758000Y-141116000D02*
X207664000Y-141116000D01*
X200900000Y-131177000D02*
X200900000Y-130448000D01*
D43*
X207772000Y-141102000D02*
X207758000Y-141116000D01*
X200900000Y-130448000D02*
X201060000Y-130448000D01*
D44*
X200900000Y-135890000D02*
X200914000Y-135890000D01*
X200900000Y-135890000D02*
X200900000Y-132988000D01*
X200914000Y-135890000D02*
X205218000Y-140194000D01*
X205218000Y-140194000D02*
X205218000Y-141116000D01*
X205218000Y-141116000D02*
X204870000Y-141116000D01*
D43*
X201441000Y-132988000D02*
X200900000Y-132988000D01*
D44*
X199644000Y-136144000D02*
X200660000Y-137160000D01*
X199644000Y-136144000D02*
X199644000Y-131732000D01*
X199644000Y-131732000D02*
X198360000Y-130448000D01*
X200660000Y-137160000D02*
X202438000Y-138938000D01*
X202438000Y-138938000D02*
X202692000Y-139192000D01*
X202692000Y-139192000D02*
X202692000Y-141102000D01*
D43*
X202692000Y-141102000D02*
X202678000Y-141116000D01*
X202678000Y-141116000D02*
X202678000Y-140956000D01*
D44*
X202678000Y-141116000D02*
X202584000Y-141116000D01*
D43*
X198520000Y-130448000D02*
X198360000Y-130448000D01*
D44*
X198360000Y-136398000D02*
X198374000Y-136398000D01*
X198360000Y-136398000D02*
X198360000Y-132988000D01*
X198374000Y-136398000D02*
X200138000Y-138162000D01*
X200138000Y-138162000D02*
X200138000Y-141116000D01*
D43*
X200138000Y-140448000D02*
X200138000Y-141116000D01*
X200138000Y-140702000D02*
X200138000Y-141116000D01*
D44*
X200138000Y-141116000D02*
X200138000Y-141083000D01*
X197104000Y-136652000D02*
X197612000Y-137160000D01*
X197104000Y-133604000D02*
X197104000Y-131732000D01*
X197104000Y-131732000D02*
X195820000Y-130448000D01*
X197104000Y-133604000D02*
X197104000Y-136652000D01*
X197612000Y-137160000D02*
X197612000Y-141102000D01*
D43*
X197612000Y-141102000D02*
X197598000Y-141116000D01*
X197598000Y-140702000D02*
X197598000Y-141116000D01*
D44*
X195820000Y-131050000D02*
X195820000Y-130448000D01*
X195820000Y-132988000D02*
X195820000Y-140354000D01*
X195820000Y-140354000D02*
X195058000Y-141116000D01*
D43*
X192518000Y-141116000D02*
X192518000Y-135650000D01*
X194564000Y-131826000D02*
X193280000Y-130542000D01*
X194564000Y-133604000D02*
X194564000Y-131826000D01*
X192518000Y-135650000D02*
X194564000Y-133604000D01*
X193280000Y-130542000D02*
X193280000Y-130448000D01*
D44*
X193280000Y-131050000D02*
X193280000Y-130448000D01*
D43*
X193440000Y-130448000D02*
X193280000Y-130448000D01*
X193280000Y-132988000D02*
X193280000Y-133618000D01*
X193280000Y-133618000D02*
X190500000Y-136398000D01*
X190500000Y-136398000D02*
X189992000Y-136906000D01*
X189992000Y-136906000D02*
X189992000Y-141102000D01*
X189992000Y-141102000D02*
X189978000Y-141116000D01*
X187438000Y-141116000D02*
X187438000Y-138190000D01*
X192024000Y-131732000D02*
X190740000Y-130448000D01*
X192024000Y-133604000D02*
X192024000Y-131732000D01*
X187438000Y-138190000D02*
X192024000Y-133604000D01*
D44*
X184898000Y-141116000D02*
X184898000Y-138830000D01*
X184898000Y-138830000D02*
X190740000Y-132988000D01*
D43*
X184912000Y-141102000D02*
X184898000Y-141116000D01*
X172198000Y-132226000D02*
X172320000Y-132226000D01*
X172320000Y-132226000D02*
X173990000Y-130556000D01*
X178562000Y-95410000D02*
X175500000Y-92348000D01*
X178562000Y-125476000D02*
X178562000Y-95410000D01*
X177292000Y-126746000D02*
X178562000Y-125476000D01*
X174498000Y-126746000D02*
X177292000Y-126746000D01*
X173990000Y-127254000D02*
X174498000Y-126746000D01*
X173990000Y-130556000D02*
X173990000Y-127254000D01*
D42*
X164052000Y-129794000D02*
X169550000Y-129794000D01*
X169550000Y-129794000D02*
X169658000Y-129686000D01*
D44*
X169550000Y-129794000D02*
X169658000Y-129686000D01*
D42*
X164052000Y-127254000D02*
X169550000Y-127254000D01*
X169550000Y-127254000D02*
X169658000Y-127146000D01*
D44*
X169550000Y-127254000D02*
X169658000Y-127146000D01*
D42*
X169926000Y-147066000D02*
X171958000Y-149098000D01*
X209296000Y-153416000D02*
X209296000Y-156210000D01*
X204978000Y-149098000D02*
X209296000Y-153416000D01*
X171958000Y-149098000D02*
X204978000Y-149098000D01*
X169926000Y-143256000D02*
X169926000Y-143510000D01*
X169926000Y-143510000D02*
X174752000Y-148336000D01*
X174752000Y-148336000D02*
X216154000Y-148336000D01*
X216154000Y-148336000D02*
X227330000Y-148336000D01*
X227330000Y-148336000D02*
X231394000Y-152400000D01*
X231394000Y-152400000D02*
X231394000Y-156210000D01*
X162052000Y-108458000D02*
X162052000Y-82042000D01*
X155734000Y-114776000D02*
X162052000Y-108458000D01*
X155734000Y-115062000D02*
X155734000Y-114776000D01*
X155734000Y-117602000D02*
X155734000Y-115062000D01*
X131794000Y-115570000D02*
X155226000Y-115570000D01*
X155226000Y-115570000D02*
X155734000Y-115062000D01*
X129254000Y-118618000D02*
X131064000Y-118618000D01*
X131794000Y-117888000D02*
X131794000Y-115570000D01*
X131064000Y-118618000D02*
X131794000Y-117888000D01*
X196850000Y-25908000D02*
X199168000Y-25908000D01*
X150721060Y-95379540D02*
X150721060Y-88578940D01*
X150721060Y-88578940D02*
X155194000Y-84106000D01*
D44*
X155956000Y-106512000D02*
X155956000Y-105664000D01*
X155956000Y-105664000D02*
X155702000Y-105410000D01*
X155702000Y-105410000D02*
X152400000Y-105410000D01*
X152400000Y-105410000D02*
X151892000Y-105918000D01*
X151892000Y-105918000D02*
X147574000Y-105918000D01*
X147574000Y-105918000D02*
X145796000Y-104140000D01*
D42*
X129979420Y-131650740D02*
X144701260Y-131650740D01*
X144701260Y-131650740D02*
X144780000Y-131572000D01*
D43*
X147152000Y-121158000D02*
X146304000Y-121158000D01*
X145796000Y-122936000D02*
X146558000Y-123698000D01*
X145796000Y-121666000D02*
X145796000Y-122936000D01*
X146304000Y-121158000D02*
X145796000Y-121666000D01*
D45*
X129979420Y-131650740D02*
X124538740Y-131650740D01*
X117094000Y-126746000D02*
X114808000Y-124460000D01*
X119634000Y-126746000D02*
X117094000Y-126746000D01*
X124538740Y-131650740D02*
X119634000Y-126746000D01*
D43*
X146558000Y-129794000D02*
X144780000Y-131572000D01*
X146558000Y-123698000D02*
X146558000Y-129794000D01*
D42*
X130401060Y-95379540D02*
X129923540Y-95379540D01*
X129923540Y-95379540D02*
X128270000Y-93726000D01*
X125222000Y-94234000D02*
X125222000Y-104140000D01*
X125730000Y-93726000D02*
X125222000Y-94234000D01*
X128270000Y-93726000D02*
X125730000Y-93726000D01*
X130401060Y-95379540D02*
X130401060Y-88578940D01*
X130401060Y-88578940D02*
X134874000Y-84106000D01*
D48*
X135382000Y-106512000D02*
X135382000Y-105664000D01*
X135382000Y-105664000D02*
X135128000Y-105410000D01*
X135128000Y-105410000D02*
X131826000Y-105410000D01*
X131826000Y-105410000D02*
X131318000Y-105918000D01*
X131318000Y-105918000D02*
X127000000Y-105918000D01*
X127000000Y-105918000D02*
X125222000Y-104140000D01*
D43*
X178308000Y-151130000D02*
X176498000Y-151130000D01*
D45*
X176498000Y-151130000D02*
X176498000Y-151606000D01*
X176498000Y-151606000D02*
X179578000Y-154686000D01*
D43*
X180340000Y-151130000D02*
X182150000Y-151130000D01*
D45*
X182150000Y-151130000D02*
X182150000Y-154654000D01*
X182150000Y-154654000D02*
X182118000Y-154686000D01*
D42*
X182340000Y-154464000D02*
X182118000Y-154686000D01*
D43*
X144780000Y-156210000D02*
X146304000Y-154686000D01*
X146050000Y-145542000D02*
X147152000Y-145542000D01*
X145542000Y-146050000D02*
X146050000Y-145542000D01*
X145542000Y-146558000D02*
X145542000Y-146050000D01*
X145542000Y-149606000D02*
X145542000Y-146558000D01*
X146304000Y-150368000D02*
X145542000Y-149606000D01*
X146304000Y-154686000D02*
X146304000Y-150368000D01*
D45*
X129979420Y-151970740D02*
X124284740Y-151970740D01*
X124284740Y-151970740D02*
X119634000Y-147320000D01*
X119634000Y-147320000D02*
X117094000Y-147320000D01*
X117094000Y-147320000D02*
X115062000Y-145288000D01*
D42*
X165354000Y-105664000D02*
X165100000Y-105664000D01*
X175500000Y-107682000D02*
X173482000Y-105664000D01*
X173482000Y-105664000D02*
X165354000Y-105664000D01*
X175500000Y-110128000D02*
X175500000Y-107682000D01*
X148082000Y-99060000D02*
X144401540Y-95379540D01*
X149860000Y-99060000D02*
X148082000Y-99060000D01*
X165100000Y-105664000D02*
X163830000Y-104394000D01*
X144401540Y-95379540D02*
X143918940Y-95379540D01*
D44*
X156464000Y-152654000D02*
X154178000Y-154940000D01*
X133479540Y-157071060D02*
X134012940Y-157071060D01*
X134012940Y-157071060D02*
X136144000Y-154940000D01*
X136144000Y-154940000D02*
X143510000Y-154940000D01*
X156464000Y-152654000D02*
X156464000Y-130810000D01*
X156464000Y-130810000D02*
X153924000Y-128270000D01*
X153924000Y-128270000D02*
X153924000Y-127762000D01*
X153924000Y-125476000D02*
X153924000Y-124968000D01*
X153924000Y-124968000D02*
X153924000Y-124968000D01*
X153924000Y-124968000D02*
X159258000Y-119634000D01*
X159258000Y-119634000D02*
X161290000Y-119634000D01*
X161290000Y-119634000D02*
X162560000Y-118364000D01*
X162560000Y-118364000D02*
X162560000Y-117348000D01*
X162560000Y-117348000D02*
X166624000Y-113284000D01*
X166624000Y-113284000D02*
X174884000Y-113284000D01*
X174884000Y-113284000D02*
X175500000Y-112668000D01*
D42*
X179578000Y-162306000D02*
X180086000Y-162306000D01*
X180086000Y-162306000D02*
X181610000Y-163830000D01*
X181610000Y-163830000D02*
X221234000Y-163830000D01*
X221234000Y-163830000D02*
X223774000Y-161290000D01*
X182118000Y-162306000D02*
X182880000Y-162306000D01*
X182880000Y-162306000D02*
X183388000Y-162814000D01*
X183388000Y-162814000D02*
X200152000Y-162814000D01*
X200152000Y-162814000D02*
X201676000Y-161290000D01*
M02*
