G04 #@! TF.FileFunction,Copper,L1,Top,Signal*
%FSLAX46Y46*%
G04 Gerber Fmt 4.6, Leading zero omitted, Abs format (unit mm)*
G04 Created by KiCad (PCBNEW 4.0.6) date 07/21/17 01:23:24*
%MOMM*%
%LPD*%
G01*
G04 APERTURE LIST*
%ADD10C,0.100000*%
%ADD11O,2.400000X1.524000*%
%ADD12O,2.540000X1.524000*%
%ADD13C,1.524000*%
%ADD14R,1.600200X1.600200*%
%ADD15C,1.600200*%
%ADD16R,1.700000X1.700000*%
%ADD17O,1.700000X1.700000*%
%ADD18R,3.302000X5.588000*%
%ADD19R,2.000000X2.000000*%
%ADD20C,2.000000*%
%ADD21C,1.600000*%
%ADD22R,2.600000X1.600000*%
%ADD23R,1.600000X2.600000*%
%ADD24R,0.900000X0.800000*%
%ADD25R,1.300000X1.500000*%
%ADD26R,1.500000X1.300000*%
%ADD27R,2.000000X1.700000*%
%ADD28R,1.700000X2.000000*%
%ADD29O,1.600000X1.600000*%
%ADD30C,2.400000*%
%ADD31O,2.400000X2.400000*%
%ADD32R,1.800000X1.800000*%
%ADD33O,1.800000X1.800000*%
%ADD34R,1.600000X1.600000*%
%ADD35R,0.650000X1.560000*%
%ADD36R,0.600000X1.550000*%
%ADD37R,1.550000X0.600000*%
%ADD38R,2.000000X1.600000*%
%ADD39R,1.600000X2.000000*%
%ADD40R,1.450000X0.450000*%
%ADD41R,1.600000X1.300000*%
%ADD42R,1.300000X1.600000*%
%ADD43C,0.762000*%
%ADD44C,1.270000*%
%ADD45C,0.600000*%
%ADD46C,0.381000*%
%ADD47C,0.635000*%
%ADD48C,0.508000*%
%ADD49C,2.540000*%
%ADD50C,0.762000*%
%ADD51C,1.270000*%
%ADD52C,1.905000*%
%ADD53C,0.254000*%
%ADD54C,0.250000*%
G04 APERTURE END LIST*
D10*
D11*
X144145000Y-92075000D03*
X144145000Y-89535000D03*
X144145000Y-86995000D03*
X144145000Y-84455000D03*
X144145000Y-81915000D03*
X144145000Y-79375000D03*
X144145000Y-76835000D03*
X144145000Y-74295000D03*
X95885000Y-69215000D03*
X95885000Y-71755000D03*
X95885000Y-74295000D03*
X95885000Y-76835000D03*
X95885000Y-86995000D03*
X95885000Y-92075000D03*
X95885000Y-94615000D03*
X95885000Y-84455000D03*
X95885000Y-81915000D03*
X95885000Y-79375000D03*
X95885000Y-97155000D03*
X95885000Y-99695000D03*
X95885000Y-102235000D03*
X95885000Y-109855000D03*
X95885000Y-107315000D03*
X95885000Y-104775000D03*
D12*
X95885000Y-114935000D03*
X95885000Y-117475000D03*
X95885000Y-120015000D03*
X95885000Y-125095000D03*
X95885000Y-127635000D03*
D11*
X144145000Y-97155000D03*
X144145000Y-99695000D03*
X144145000Y-102235000D03*
X144145000Y-104775000D03*
X144145000Y-107315000D03*
X144145000Y-109855000D03*
X144145000Y-112395000D03*
X144145000Y-114935000D03*
X144145000Y-118999000D03*
X144145000Y-121539000D03*
X144145000Y-124079000D03*
X144145000Y-126619000D03*
X144145000Y-129159000D03*
X144145000Y-131699000D03*
X144145000Y-134239000D03*
X144145000Y-136779000D03*
D12*
X95885000Y-122555000D03*
D13*
X141605000Y-66675000D03*
X141605000Y-64135000D03*
X139065000Y-66675000D03*
X139065000Y-64135000D03*
X136525000Y-66675000D03*
X136525000Y-64135000D03*
X133985000Y-66675000D03*
X133985000Y-64135000D03*
X144145000Y-66675000D03*
X144145000Y-64135000D03*
X131445000Y-64135000D03*
X131445000Y-66675000D03*
X128905000Y-66675000D03*
X128905000Y-64135000D03*
X126365000Y-66675000D03*
X126365000Y-64135000D03*
X123825000Y-66675000D03*
X123825000Y-64135000D03*
X121285000Y-66675000D03*
X121285000Y-64135000D03*
X118745000Y-66675000D03*
X118745000Y-64135000D03*
X116205000Y-66675000D03*
X116205000Y-64135000D03*
X113665000Y-66675000D03*
X113665000Y-64135000D03*
X111125000Y-66675000D03*
X111125000Y-64135000D03*
X108585000Y-66675000D03*
X108585000Y-64135000D03*
X106045000Y-66675000D03*
X106045000Y-64135000D03*
X103505000Y-66675000D03*
X103505000Y-64135000D03*
X100965000Y-66675000D03*
X100965000Y-64135000D03*
D14*
X92710000Y-64770000D03*
D15*
X90170000Y-64770000D03*
X92710000Y-67310000D03*
X90170000Y-67310000D03*
X92710000Y-69850000D03*
X90170000Y-69850000D03*
X92710000Y-72390000D03*
X90170000Y-72390000D03*
X92710000Y-74930000D03*
X90170000Y-74930000D03*
X92710000Y-77470000D03*
X90170000Y-77470000D03*
X92710000Y-80010000D03*
X90170000Y-80010000D03*
X92710000Y-82550000D03*
X90170000Y-82550000D03*
X92710000Y-85090000D03*
X90170000Y-85090000D03*
X92710000Y-87630000D03*
X90170000Y-87630000D03*
X92710000Y-90170000D03*
X90170000Y-90170000D03*
X92710000Y-92710000D03*
X90170000Y-92710000D03*
X92710000Y-95250000D03*
X90170000Y-95250000D03*
X92710000Y-97790000D03*
X90170000Y-97790000D03*
X92710000Y-100330000D03*
X90170000Y-100330000D03*
X92710000Y-102870000D03*
X90170000Y-102870000D03*
X92710000Y-105410000D03*
X90170000Y-105410000D03*
X92710000Y-107950000D03*
X90170000Y-107950000D03*
X92710000Y-110490000D03*
X90170000Y-110490000D03*
X92710000Y-113030000D03*
X90170000Y-113030000D03*
D14*
X143510000Y-60960000D03*
D15*
X143510000Y-58420000D03*
X140970000Y-60960000D03*
X140970000Y-58420000D03*
X138430000Y-60960000D03*
X138430000Y-58420000D03*
X135890000Y-60960000D03*
X135890000Y-58420000D03*
X133350000Y-60960000D03*
X133350000Y-58420000D03*
X130810000Y-60960000D03*
X130810000Y-58420000D03*
X128270000Y-60960000D03*
X128270000Y-58420000D03*
X125730000Y-60960000D03*
X125730000Y-58420000D03*
X123190000Y-60960000D03*
X123190000Y-58420000D03*
X120650000Y-60960000D03*
X120650000Y-58420000D03*
X118110000Y-60960000D03*
X118110000Y-58420000D03*
X115570000Y-60960000D03*
X115570000Y-58420000D03*
X113030000Y-60960000D03*
X113030000Y-58420000D03*
X110490000Y-60960000D03*
X110490000Y-58420000D03*
X107950000Y-60960000D03*
X107950000Y-58420000D03*
X105410000Y-60960000D03*
X105410000Y-58420000D03*
X102870000Y-60960000D03*
X102870000Y-58420000D03*
X100330000Y-60960000D03*
X100330000Y-58420000D03*
X97790000Y-60960000D03*
X97790000Y-58420000D03*
X95250000Y-60960000D03*
X95250000Y-58420000D03*
D14*
X149860000Y-64770000D03*
D15*
X147320000Y-64770000D03*
X149860000Y-67310000D03*
X147320000Y-67310000D03*
X149860000Y-69850000D03*
X147320000Y-69850000D03*
X149860000Y-72390000D03*
X147320000Y-72390000D03*
X149860000Y-74930000D03*
X147320000Y-74930000D03*
X149860000Y-77470000D03*
X147320000Y-77470000D03*
X149860000Y-80010000D03*
X147320000Y-80010000D03*
X149860000Y-82550000D03*
X147320000Y-82550000D03*
X149860000Y-85090000D03*
X147320000Y-85090000D03*
X149860000Y-87630000D03*
X147320000Y-87630000D03*
X149860000Y-90170000D03*
X147320000Y-90170000D03*
X149860000Y-92710000D03*
X147320000Y-92710000D03*
X149860000Y-95250000D03*
X147320000Y-95250000D03*
X149860000Y-97790000D03*
X147320000Y-97790000D03*
X149860000Y-100330000D03*
X147320000Y-100330000D03*
X149860000Y-102870000D03*
X147320000Y-102870000D03*
X149860000Y-105410000D03*
X147320000Y-105410000D03*
X149860000Y-107950000D03*
X147320000Y-107950000D03*
X149860000Y-110490000D03*
X147320000Y-110490000D03*
X149860000Y-113030000D03*
X147320000Y-113030000D03*
D14*
X171450000Y-64770000D03*
D15*
X168910000Y-64770000D03*
X171450000Y-67310000D03*
X168910000Y-67310000D03*
X171450000Y-69850000D03*
X168910000Y-69850000D03*
X171450000Y-72390000D03*
X168910000Y-72390000D03*
X171450000Y-74930000D03*
X168910000Y-74930000D03*
X171450000Y-77470000D03*
X168910000Y-77470000D03*
X171450000Y-80010000D03*
X168910000Y-80010000D03*
X171450000Y-82550000D03*
X168910000Y-82550000D03*
X171450000Y-85090000D03*
X168910000Y-85090000D03*
X171450000Y-87630000D03*
X168910000Y-87630000D03*
X171450000Y-90170000D03*
X168910000Y-90170000D03*
X171450000Y-92710000D03*
X168910000Y-92710000D03*
X171450000Y-95250000D03*
X168910000Y-95250000D03*
X171450000Y-97790000D03*
X168910000Y-97790000D03*
X171450000Y-100330000D03*
X168910000Y-100330000D03*
X171450000Y-102870000D03*
X168910000Y-102870000D03*
X171450000Y-105410000D03*
X168910000Y-105410000D03*
X171450000Y-107950000D03*
X168910000Y-107950000D03*
X171450000Y-110490000D03*
X168910000Y-110490000D03*
X171450000Y-113030000D03*
X168910000Y-113030000D03*
D16*
X72390000Y-47625000D03*
D17*
X74930000Y-47625000D03*
X77470000Y-47625000D03*
D16*
X158750000Y-38100000D03*
D17*
X161290000Y-38100000D03*
X158750000Y-40640000D03*
X161290000Y-40640000D03*
X158750000Y-43180000D03*
X161290000Y-43180000D03*
X158750000Y-45720000D03*
X161290000Y-45720000D03*
X158750000Y-48260000D03*
X161290000Y-48260000D03*
X158750000Y-50800000D03*
X161290000Y-50800000D03*
X158750000Y-53340000D03*
X161290000Y-53340000D03*
X158750000Y-55880000D03*
X161290000Y-55880000D03*
X158750000Y-58420000D03*
X161290000Y-58420000D03*
X158750000Y-60960000D03*
X161290000Y-60960000D03*
X158750000Y-63500000D03*
X161290000Y-63500000D03*
X158750000Y-66040000D03*
X161290000Y-66040000D03*
X158750000Y-68580000D03*
X161290000Y-68580000D03*
X158750000Y-71120000D03*
X161290000Y-71120000D03*
X158750000Y-73660000D03*
X161290000Y-73660000D03*
X158750000Y-76200000D03*
X161290000Y-76200000D03*
X158750000Y-78740000D03*
X161290000Y-78740000D03*
X158750000Y-81280000D03*
X161290000Y-81280000D03*
X158750000Y-83820000D03*
X161290000Y-83820000D03*
X158750000Y-86360000D03*
X161290000Y-86360000D03*
D18*
X41719500Y-133032500D03*
X35115500Y-133032500D03*
D19*
X18972500Y-125102500D03*
D20*
X18972500Y-121602500D03*
X18972500Y-118102500D03*
X23572500Y-125102500D03*
X23572500Y-121602500D03*
X23572500Y-118102500D03*
D21*
X96520000Y-40005000D03*
X96520000Y-42505000D03*
X92710000Y-28575000D03*
X95210000Y-28575000D03*
D22*
X70380000Y-170815000D03*
X66780000Y-170815000D03*
D23*
X62865000Y-192935000D03*
X62865000Y-189335000D03*
D22*
X50060000Y-170815000D03*
X46460000Y-170815000D03*
X70380000Y-203835000D03*
X66780000Y-203835000D03*
D23*
X62865000Y-225955000D03*
X62865000Y-222355000D03*
D22*
X50060000Y-203835000D03*
X46460000Y-203835000D03*
X56620000Y-203835000D03*
X60220000Y-203835000D03*
X56620000Y-170815000D03*
X60220000Y-170815000D03*
D23*
X83820000Y-192935000D03*
X83820000Y-189335000D03*
D22*
X80540000Y-170815000D03*
X76940000Y-170815000D03*
D23*
X83820000Y-225955000D03*
X83820000Y-222355000D03*
D22*
X80540000Y-203835000D03*
X76940000Y-203835000D03*
X169650000Y-225425000D03*
X173250000Y-225425000D03*
D23*
X177165000Y-203305000D03*
X177165000Y-206905000D03*
D22*
X189970000Y-225425000D03*
X193570000Y-225425000D03*
X169650000Y-192405000D03*
X173250000Y-192405000D03*
D23*
X177165000Y-170285000D03*
X177165000Y-173885000D03*
D22*
X189970000Y-192405000D03*
X193570000Y-192405000D03*
X183410000Y-192405000D03*
X179810000Y-192405000D03*
X183410000Y-225425000D03*
X179810000Y-225425000D03*
D23*
X156210000Y-203305000D03*
X156210000Y-206905000D03*
D22*
X159490000Y-225425000D03*
X163090000Y-225425000D03*
D23*
X156210000Y-170285000D03*
X156210000Y-173885000D03*
D22*
X159490000Y-192405000D03*
X163090000Y-192405000D03*
D23*
X60325000Y-137055000D03*
X60325000Y-133455000D03*
D22*
X33125000Y-161290000D03*
X36725000Y-161290000D03*
D23*
X85090000Y-122660000D03*
X85090000Y-126260000D03*
X71120000Y-149120000D03*
X71120000Y-145520000D03*
D22*
X113770000Y-204470000D03*
X117370000Y-204470000D03*
D16*
X59372500Y-80327500D03*
D17*
X56832500Y-80327500D03*
X54292500Y-80327500D03*
X51752500Y-80327500D03*
X49212500Y-80327500D03*
X46672500Y-80327500D03*
X44132500Y-80327500D03*
X41592500Y-80327500D03*
X39052500Y-80327500D03*
X36512500Y-80327500D03*
D16*
X25400000Y-201930000D03*
D17*
X25400000Y-199390000D03*
X25400000Y-196850000D03*
D24*
X132350000Y-199075000D03*
X132350000Y-200975000D03*
X134350000Y-200025000D03*
D25*
X146050000Y-45165000D03*
X146050000Y-42465000D03*
X146050000Y-36750000D03*
X146050000Y-39450000D03*
D26*
X112315000Y-109855000D03*
X115015000Y-109855000D03*
X112315000Y-104775000D03*
X115015000Y-104775000D03*
X112315000Y-99695000D03*
X115015000Y-99695000D03*
X112315000Y-94615000D03*
X115015000Y-94615000D03*
X112315000Y-107315000D03*
X115015000Y-107315000D03*
X112315000Y-102235000D03*
X115015000Y-102235000D03*
X112315000Y-97155000D03*
X115015000Y-97155000D03*
X112315000Y-92075000D03*
X115015000Y-92075000D03*
D27*
X48800000Y-41910000D03*
X52800000Y-41910000D03*
X24987500Y-22542500D03*
X28987500Y-22542500D03*
X24352500Y-50482500D03*
X28352500Y-50482500D03*
D28*
X18732500Y-45942500D03*
X18732500Y-49942500D03*
D27*
X53880000Y-33020000D03*
X57880000Y-33020000D03*
D28*
X39370000Y-35020000D03*
X39370000Y-31020000D03*
D21*
X88900000Y-47625000D03*
D29*
X88900000Y-34925000D03*
D21*
X100330000Y-22225000D03*
D29*
X87630000Y-22225000D03*
D26*
X51990000Y-190500000D03*
X54690000Y-190500000D03*
D28*
X76200000Y-189135000D03*
X76200000Y-193135000D03*
X76200000Y-222155000D03*
X76200000Y-226155000D03*
D26*
X188040000Y-205740000D03*
X185340000Y-205740000D03*
D28*
X163830000Y-174085000D03*
X163830000Y-170085000D03*
X163830000Y-207105000D03*
X163830000Y-203105000D03*
X78105000Y-122460000D03*
X78105000Y-126460000D03*
X59690000Y-154400000D03*
X59690000Y-150400000D03*
D27*
X130715000Y-208280000D03*
X134715000Y-208280000D03*
D28*
X26035000Y-31655000D03*
X26035000Y-35655000D03*
D27*
X50705000Y-61595000D03*
X54705000Y-61595000D03*
D28*
X35560000Y-55785000D03*
X35560000Y-59785000D03*
D27*
X17050000Y-57150000D03*
X21050000Y-57150000D03*
D28*
X32702500Y-68357500D03*
X32702500Y-64357500D03*
D27*
X26257500Y-75247500D03*
X30257500Y-75247500D03*
D30*
X113665000Y-194310000D03*
D31*
X126365000Y-194310000D03*
D32*
X68580000Y-125730000D03*
D33*
X68580000Y-123190000D03*
X68580000Y-120650000D03*
D32*
X38100000Y-153035000D03*
D33*
X38100000Y-150495000D03*
X38100000Y-147955000D03*
D34*
X140970000Y-42545000D03*
D29*
X133350000Y-22225000D03*
X140970000Y-40005000D03*
X133350000Y-24765000D03*
X140970000Y-37465000D03*
X133350000Y-27305000D03*
X140970000Y-34925000D03*
X133350000Y-29845000D03*
X140970000Y-32385000D03*
X133350000Y-32385000D03*
X140970000Y-29845000D03*
X133350000Y-34925000D03*
X140970000Y-27305000D03*
X133350000Y-37465000D03*
X140970000Y-24765000D03*
X133350000Y-40005000D03*
X140970000Y-22225000D03*
X133350000Y-42545000D03*
D34*
X107950000Y-42545000D03*
D29*
X123190000Y-34925000D03*
X110490000Y-42545000D03*
X120650000Y-34925000D03*
X120650000Y-42545000D03*
X110490000Y-34925000D03*
X123190000Y-42545000D03*
X107950000Y-34925000D03*
D34*
X107950000Y-29845000D03*
D29*
X123190000Y-22225000D03*
X110490000Y-29845000D03*
X120650000Y-22225000D03*
X120650000Y-29845000D03*
X110490000Y-22225000D03*
X123190000Y-29845000D03*
X107950000Y-22225000D03*
D35*
X42225000Y-40560000D03*
X41275000Y-40560000D03*
X40325000Y-40560000D03*
X40325000Y-43260000D03*
X42225000Y-43260000D03*
X19682500Y-21192500D03*
X18732500Y-21192500D03*
X17782500Y-21192500D03*
X17782500Y-23892500D03*
X19682500Y-23892500D03*
D36*
X20002500Y-30637500D03*
X18732500Y-30637500D03*
X17462500Y-30637500D03*
X16192500Y-30637500D03*
X16192500Y-36037500D03*
X17462500Y-36037500D03*
X18732500Y-36037500D03*
X20002500Y-36037500D03*
D37*
X29687500Y-45402500D03*
X29687500Y-44132500D03*
X29687500Y-42862500D03*
X29687500Y-41592500D03*
X24287500Y-41592500D03*
X24287500Y-42862500D03*
X24287500Y-44132500D03*
X24287500Y-45402500D03*
D35*
X47305000Y-31670000D03*
X46355000Y-31670000D03*
X45405000Y-31670000D03*
X45405000Y-34370000D03*
X47305000Y-34370000D03*
X42860000Y-55800000D03*
X41910000Y-55800000D03*
X40960000Y-55800000D03*
X40960000Y-58500000D03*
X42860000Y-58500000D03*
D36*
X26352500Y-63657500D03*
X25082500Y-63657500D03*
X23812500Y-63657500D03*
X22542500Y-63657500D03*
X22542500Y-69057500D03*
X23812500Y-69057500D03*
X25082500Y-69057500D03*
X26352500Y-69057500D03*
D38*
X70580000Y-177800000D03*
X66580000Y-177800000D03*
D39*
X69850000Y-189135000D03*
X69850000Y-193135000D03*
D38*
X50260000Y-177800000D03*
X46260000Y-177800000D03*
X70580000Y-210820000D03*
X66580000Y-210820000D03*
D39*
X69850000Y-222155000D03*
X69850000Y-226155000D03*
D38*
X169450000Y-218440000D03*
X173450000Y-218440000D03*
D39*
X170180000Y-207105000D03*
X170180000Y-203105000D03*
D38*
X189770000Y-218440000D03*
X193770000Y-218440000D03*
X169450000Y-185420000D03*
X173450000Y-185420000D03*
D39*
X170180000Y-174085000D03*
X170180000Y-170085000D03*
D38*
X189770000Y-185420000D03*
X193770000Y-185420000D03*
D39*
X60325000Y-120555000D03*
X60325000Y-124555000D03*
X31115000Y-154400000D03*
X31115000Y-150400000D03*
D38*
X50260000Y-210820000D03*
X46260000Y-210820000D03*
D16*
X72390000Y-73025000D03*
D17*
X74930000Y-73025000D03*
X77470000Y-73025000D03*
D16*
X72390000Y-26035000D03*
D17*
X74930000Y-26035000D03*
X77470000Y-26035000D03*
D16*
X180340000Y-38100000D03*
D17*
X182880000Y-38100000D03*
X180340000Y-40640000D03*
X182880000Y-40640000D03*
X180340000Y-43180000D03*
X182880000Y-43180000D03*
X180340000Y-45720000D03*
X182880000Y-45720000D03*
X180340000Y-48260000D03*
X182880000Y-48260000D03*
X180340000Y-50800000D03*
X182880000Y-50800000D03*
X180340000Y-53340000D03*
X182880000Y-53340000D03*
X180340000Y-55880000D03*
X182880000Y-55880000D03*
X180340000Y-58420000D03*
X182880000Y-58420000D03*
X180340000Y-60960000D03*
X182880000Y-60960000D03*
X180340000Y-63500000D03*
X182880000Y-63500000D03*
X180340000Y-66040000D03*
X182880000Y-66040000D03*
X180340000Y-68580000D03*
X182880000Y-68580000D03*
X180340000Y-71120000D03*
X182880000Y-71120000D03*
X180340000Y-73660000D03*
X182880000Y-73660000D03*
X180340000Y-76200000D03*
X182880000Y-76200000D03*
X180340000Y-78740000D03*
X182880000Y-78740000D03*
X180340000Y-81280000D03*
X182880000Y-81280000D03*
X180340000Y-83820000D03*
X182880000Y-83820000D03*
X180340000Y-86360000D03*
X182880000Y-86360000D03*
D40*
X56290000Y-219755000D03*
X56290000Y-219105000D03*
X56290000Y-218455000D03*
X56290000Y-217805000D03*
X56290000Y-217155000D03*
X56290000Y-216505000D03*
X56290000Y-215855000D03*
X50390000Y-215855000D03*
X50390000Y-216505000D03*
X50390000Y-217155000D03*
X50390000Y-217805000D03*
X50390000Y-218455000D03*
X50390000Y-219105000D03*
X50390000Y-219755000D03*
X56290000Y-186735000D03*
X56290000Y-186085000D03*
X56290000Y-185435000D03*
X56290000Y-184785000D03*
X56290000Y-184135000D03*
X56290000Y-183485000D03*
X56290000Y-182835000D03*
X50390000Y-182835000D03*
X50390000Y-183485000D03*
X50390000Y-184135000D03*
X50390000Y-184785000D03*
X50390000Y-185435000D03*
X50390000Y-186085000D03*
X50390000Y-186735000D03*
X183740000Y-176485000D03*
X183740000Y-177135000D03*
X183740000Y-177785000D03*
X183740000Y-178435000D03*
X183740000Y-179085000D03*
X183740000Y-179735000D03*
X183740000Y-180385000D03*
X189640000Y-180385000D03*
X189640000Y-179735000D03*
X189640000Y-179085000D03*
X189640000Y-178435000D03*
X189640000Y-177785000D03*
X189640000Y-177135000D03*
X189640000Y-176485000D03*
X183740000Y-209505000D03*
X183740000Y-210155000D03*
X183740000Y-210805000D03*
X183740000Y-211455000D03*
X183740000Y-212105000D03*
X183740000Y-212755000D03*
X183740000Y-213405000D03*
X189640000Y-213405000D03*
X189640000Y-212755000D03*
X189640000Y-212105000D03*
X189640000Y-211455000D03*
X189640000Y-210805000D03*
X189640000Y-210155000D03*
X189640000Y-209505000D03*
D18*
X41719500Y-121602500D03*
X35115500Y-121602500D03*
X41719500Y-110172500D03*
X35115500Y-110172500D03*
D32*
X82550000Y-178181000D03*
D33*
X86250000Y-179881000D03*
X82550000Y-181581000D03*
X86250000Y-183281000D03*
X82550000Y-184981000D03*
D32*
X82550000Y-211201000D03*
D33*
X86250000Y-212901000D03*
X82550000Y-214601000D03*
X86250000Y-216301000D03*
X82550000Y-218001000D03*
D32*
X157480000Y-218059000D03*
D33*
X153780000Y-216359000D03*
X157480000Y-214659000D03*
X153780000Y-212959000D03*
X157480000Y-211259000D03*
D32*
X157480000Y-185039000D03*
D33*
X153780000Y-183339000D03*
X157480000Y-181639000D03*
X153780000Y-179939000D03*
X157480000Y-178239000D03*
D41*
X71300000Y-154960000D03*
X71300000Y-157460000D03*
D39*
X68400000Y-156210000D03*
D42*
X80625000Y-134800000D03*
X78125000Y-134800000D03*
D38*
X79375000Y-131900000D03*
D41*
X30025000Y-56535000D03*
X30025000Y-59035000D03*
D39*
X27125000Y-57785000D03*
D42*
X36215000Y-46810000D03*
X38715000Y-46810000D03*
D38*
X37465000Y-49710000D03*
D41*
X33835000Y-32405000D03*
X33835000Y-34905000D03*
D39*
X30935000Y-33655000D03*
D43*
X58420000Y-165100000D03*
X73660000Y-207645000D03*
X71755000Y-96520000D03*
D44*
X23495000Y-37465000D03*
D43*
X23495000Y-47625000D03*
X27940000Y-71120000D03*
D44*
X47625000Y-122555000D03*
D45*
X167005000Y-216535000D03*
D43*
X168910000Y-182880000D03*
X58420000Y-178435000D03*
D45*
X137160000Y-205105000D03*
X83820000Y-133350000D03*
X168910000Y-195580000D03*
X167005000Y-227965000D03*
X63500000Y-206375000D03*
X44450000Y-61595000D03*
X43815000Y-45720000D03*
X36195000Y-26035000D03*
X74930000Y-152400000D03*
X161290000Y-170180000D03*
X193675000Y-213360000D03*
X191770000Y-182245000D03*
X48895000Y-213360000D03*
X69850000Y-229235000D03*
X69850000Y-196215000D03*
X63500000Y-168910000D03*
X46355000Y-168275000D03*
X20320000Y-69215000D03*
X17145000Y-53975000D03*
X24130000Y-40005000D03*
X15875000Y-20955000D03*
D44*
X30480000Y-158750000D03*
X60325000Y-129540000D03*
X83820000Y-99060000D03*
D43*
X15875000Y-52705000D03*
D44*
X12065000Y-30480000D03*
D43*
X17780000Y-43180000D03*
X15240000Y-63500000D03*
D44*
X46355000Y-132715000D03*
D43*
X73660000Y-167640000D03*
X182245000Y-173990000D03*
X181610000Y-207645000D03*
D45*
X66675000Y-188595000D03*
D43*
X66675000Y-220980000D03*
X53340000Y-174625000D03*
D44*
X83820000Y-116840000D03*
D45*
X146050000Y-33020000D03*
D43*
X53340000Y-210820000D03*
D44*
X51435000Y-109855000D03*
D43*
X186690000Y-182880000D03*
D45*
X186690000Y-215265000D03*
D43*
X53340000Y-180340000D03*
D44*
X94615000Y-185420000D03*
X79375000Y-106045000D03*
X101600000Y-141605000D03*
D45*
X60325000Y-185420000D03*
D44*
X94615000Y-217805000D03*
X104775000Y-141605000D03*
D45*
X60960000Y-218440000D03*
D44*
X107315000Y-149225000D03*
X74295000Y-106045000D03*
X141605000Y-210820000D03*
D45*
X179705000Y-212725000D03*
D44*
X107950000Y-146685000D03*
X139065000Y-178435000D03*
D45*
X180340000Y-179705000D03*
D44*
X19685000Y-26670000D03*
X33655000Y-92710000D03*
X33020000Y-40005000D03*
X73660000Y-130810000D03*
X29210000Y-101600000D03*
D45*
X34290000Y-22860000D03*
X63500000Y-33020000D03*
X57785000Y-41910000D03*
X61595000Y-61595000D03*
X92710000Y-55880000D03*
X91440000Y-54610000D03*
X137795000Y-70485000D03*
X118110000Y-148590000D03*
X90805000Y-163195000D03*
X140335000Y-71120000D03*
X116840000Y-149860000D03*
X193675000Y-179070000D03*
X198120000Y-179070000D03*
X90805000Y-161925000D03*
X46355000Y-186690000D03*
X46990000Y-217170000D03*
X90805000Y-160655000D03*
X193662300Y-177787300D03*
X109220000Y-109855000D03*
X109220000Y-80645000D03*
X107950000Y-107315000D03*
X106680000Y-104775000D03*
X106680000Y-80645000D03*
X105410000Y-102235000D03*
X104140000Y-99695000D03*
X104140000Y-80645000D03*
X102870000Y-97155000D03*
X101600000Y-94615000D03*
X101600000Y-80645000D03*
X100330000Y-92075000D03*
X118745000Y-69215000D03*
X80645000Y-84455000D03*
X80645000Y-86360000D03*
X133350000Y-157480000D03*
X132080000Y-157480000D03*
X88900000Y-171450000D03*
X87630000Y-204470000D03*
D44*
X127635000Y-204470000D03*
X123190000Y-204470000D03*
D45*
X60325000Y-183515000D03*
X60960000Y-216535000D03*
X180340000Y-177800000D03*
X179705000Y-210820000D03*
X135255000Y-69850000D03*
D46*
X88900000Y-47625000D02*
X86995000Y-47625000D01*
X80010000Y-54610000D02*
X80010000Y-59055000D01*
X80010000Y-59055000D02*
X69215000Y-69850000D01*
X69215000Y-69850000D02*
X69215000Y-76835000D01*
X69215000Y-76835000D02*
X71120000Y-78740000D01*
X71120000Y-78740000D02*
X91440000Y-78740000D01*
X91440000Y-78740000D02*
X92710000Y-80010000D01*
X86995000Y-47625000D02*
X80010000Y-54610000D01*
X88900000Y-47625000D02*
X93345000Y-47625000D01*
X96520000Y-44450000D02*
X96520000Y-42505000D01*
X93345000Y-47625000D02*
X96520000Y-44450000D01*
X107950000Y-42545000D02*
X107910000Y-42505000D01*
X107910000Y-42505000D02*
X96520000Y-42505000D01*
X92710000Y-28575000D02*
X85090000Y-28575000D01*
X83185000Y-30480000D02*
X66675000Y-46990000D01*
X66675000Y-46990000D02*
X66675000Y-78105000D01*
X66675000Y-78105000D02*
X69850000Y-81280000D01*
X69850000Y-81280000D02*
X91440000Y-81280000D01*
X91440000Y-81280000D02*
X92710000Y-82550000D01*
X83185000Y-30480000D02*
X83820000Y-29845000D01*
X85090000Y-28575000D02*
X83820000Y-29845000D01*
X87630000Y-22225000D02*
X87630000Y-24765000D01*
X92710000Y-27305000D02*
X92710000Y-28575000D01*
X92075000Y-26670000D02*
X92710000Y-27305000D01*
X89535000Y-26670000D02*
X92075000Y-26670000D01*
X87630000Y-24765000D02*
X89535000Y-26670000D01*
X107950000Y-29845000D02*
X105410000Y-29845000D01*
X92710000Y-29845000D02*
X92710000Y-28575000D01*
X93980000Y-31115000D02*
X92710000Y-29845000D01*
X104140000Y-31115000D02*
X93980000Y-31115000D01*
X105410000Y-29845000D02*
X104140000Y-31115000D01*
X107950000Y-29845000D02*
X107950000Y-30480000D01*
D47*
X159490000Y-192405000D02*
X156210000Y-192405000D01*
X153780000Y-189975000D02*
X153780000Y-183339000D01*
X156210000Y-192405000D02*
X153780000Y-189975000D01*
X157215000Y-225160000D02*
X157480000Y-225425000D01*
X153780000Y-216359000D02*
X153780000Y-221725000D01*
X157215000Y-225160000D02*
X153780000Y-221725000D01*
X157480000Y-225425000D02*
X159490000Y-225425000D01*
X70580000Y-210820000D02*
X72390000Y-210820000D01*
X73660000Y-209550000D02*
X73660000Y-207645000D01*
X72390000Y-210820000D02*
X73660000Y-209550000D01*
X70380000Y-203835000D02*
X72390000Y-203835000D01*
X72390000Y-203835000D02*
X73660000Y-205105000D01*
X73660000Y-205105000D02*
X73660000Y-207645000D01*
D48*
X23495000Y-37465000D02*
X45720000Y-37465000D01*
X47305000Y-35880000D02*
X47305000Y-34370000D01*
X45720000Y-37465000D02*
X47305000Y-35880000D01*
X20002500Y-36037500D02*
X22067500Y-36037500D01*
X22067500Y-36037500D02*
X23495000Y-37465000D01*
X24287500Y-45402500D02*
X24287500Y-46832500D01*
X24287500Y-46832500D02*
X23495000Y-47625000D01*
D46*
X26352500Y-69057500D02*
X27147500Y-69057500D01*
X27940000Y-69850000D02*
X27940000Y-71120000D01*
X27147500Y-69057500D02*
X27940000Y-69850000D01*
D49*
X42672000Y-122555000D02*
X47625000Y-122555000D01*
X41719500Y-121602500D02*
X42672000Y-122555000D01*
D46*
X169450000Y-216630000D02*
X167100000Y-216630000D01*
X167100000Y-216630000D02*
X167005000Y-216535000D01*
D48*
X170180000Y-182880000D02*
X168910000Y-182880000D01*
D50*
X61595000Y-180340000D02*
X59690000Y-178435000D01*
X59690000Y-178435000D02*
X58420000Y-178435000D01*
D51*
X60325000Y-120555000D02*
X60420000Y-120650000D01*
D52*
X60420000Y-120650000D02*
X68580000Y-120650000D01*
D51*
X41719500Y-121602500D02*
X42767000Y-120555000D01*
D52*
X42767000Y-120555000D02*
X60325000Y-120555000D01*
D46*
X70580000Y-204035000D02*
X70380000Y-203835000D01*
D53*
X56134000Y-216496900D02*
X59093100Y-216496900D01*
D47*
X70580000Y-212630000D02*
X70580000Y-210820000D01*
X69850000Y-213360000D02*
X70580000Y-212630000D01*
X62230000Y-213360000D02*
X69850000Y-213360000D01*
D48*
X59093100Y-216496900D02*
X62230000Y-213360000D01*
D53*
X56134000Y-183476900D02*
X58381900Y-183476900D01*
D50*
X70580000Y-179610000D02*
X70580000Y-177800000D01*
X69850000Y-180340000D02*
X70580000Y-179610000D01*
D53*
X61518800Y-180340000D02*
X61595000Y-180340000D01*
D50*
X61595000Y-180340000D02*
X69850000Y-180340000D01*
D48*
X58381900Y-183476900D02*
X61518800Y-180340000D01*
D50*
X70380000Y-170815000D02*
X70380000Y-177600000D01*
D46*
X70380000Y-177600000D02*
X70580000Y-177800000D01*
D53*
X183896000Y-179743100D02*
X182206900Y-179743100D01*
D48*
X169450000Y-183610000D02*
X169450000Y-185420000D01*
X170180000Y-182880000D02*
X169450000Y-183610000D01*
X179070000Y-182880000D02*
X170180000Y-182880000D01*
X182206900Y-179743100D02*
X179070000Y-182880000D01*
X169450000Y-185420000D02*
X169450000Y-192205000D01*
D46*
X169450000Y-192205000D02*
X169650000Y-192405000D01*
D53*
X183896000Y-212763100D02*
X181571900Y-212763100D01*
X169450000Y-216630000D02*
X169450000Y-218440000D01*
X170180000Y-215900000D02*
X169450000Y-216630000D01*
X178435000Y-215900000D02*
X170180000Y-215900000D01*
X181571900Y-212763100D02*
X178435000Y-215900000D01*
D46*
X169450000Y-218440000D02*
X169450000Y-225225000D01*
X169450000Y-225225000D02*
X169650000Y-225425000D01*
D53*
X169450000Y-225225000D02*
X169650000Y-225425000D01*
D48*
X134715000Y-208280000D02*
X136525000Y-208280000D01*
X135890000Y-200025000D02*
X137160000Y-201295000D01*
X137160000Y-201295000D02*
X137160000Y-205105000D01*
X135890000Y-200025000D02*
X134350000Y-200025000D01*
X137160000Y-207645000D02*
X137160000Y-205105000D01*
X136525000Y-208280000D02*
X137160000Y-207645000D01*
D47*
X157480000Y-181639000D02*
X160049000Y-181639000D01*
X163090000Y-187249000D02*
X163090000Y-192405000D01*
X163090000Y-184680000D02*
X163090000Y-187249000D01*
X160049000Y-181639000D02*
X163090000Y-184680000D01*
D46*
X163090000Y-192405000D02*
X163090000Y-194205000D01*
X163090000Y-194205000D02*
X164465000Y-195580000D01*
X164465000Y-195580000D02*
X166265000Y-195580000D01*
X173250000Y-193780000D02*
X173250000Y-192405000D01*
X168910000Y-195580000D02*
X166265000Y-195580000D01*
X168910000Y-195580000D02*
X170075000Y-195580000D01*
X171450000Y-195580000D02*
X170075000Y-195580000D01*
X173250000Y-193780000D02*
X171450000Y-195580000D01*
X163090000Y-225425000D02*
X163090000Y-226590000D01*
X172085000Y-227965000D02*
X173250000Y-226800000D01*
X173250000Y-226800000D02*
X173250000Y-225425000D01*
X167005000Y-227965000D02*
X170710000Y-227965000D01*
X165630000Y-227965000D02*
X167005000Y-227965000D01*
X170710000Y-227965000D02*
X172085000Y-227965000D01*
X164465000Y-227965000D02*
X165630000Y-227965000D01*
X163090000Y-226590000D02*
X164465000Y-227965000D01*
D47*
X157480000Y-214659000D02*
X160049000Y-214659000D01*
X163090000Y-220269000D02*
X163090000Y-225425000D01*
X163090000Y-217700000D02*
X163090000Y-220269000D01*
X160049000Y-214659000D02*
X163090000Y-217700000D01*
X88265000Y-221510000D02*
X88265000Y-223520000D01*
X88265000Y-221510000D02*
X88265000Y-214916000D01*
X86250000Y-212901000D02*
X88265000Y-214916000D01*
X85830000Y-225955000D02*
X83820000Y-225955000D01*
X88265000Y-223520000D02*
X85830000Y-225955000D01*
X80540000Y-203835000D02*
X82550000Y-203835000D01*
X86250000Y-207535000D02*
X86250000Y-212901000D01*
X82550000Y-203835000D02*
X86250000Y-207535000D01*
X85725000Y-192300000D02*
X85090000Y-192935000D01*
X88265000Y-189760000D02*
X88265000Y-181896000D01*
X86250000Y-179881000D02*
X88265000Y-181896000D01*
X85725000Y-192300000D02*
X88265000Y-189760000D01*
X85090000Y-192935000D02*
X83820000Y-192935000D01*
X83132500Y-170867500D02*
X83080000Y-170815000D01*
X83080000Y-170815000D02*
X80540000Y-170815000D01*
D46*
X63500000Y-203835000D02*
X63500000Y-206375000D01*
X42860000Y-58500000D02*
X42860000Y-61275000D01*
X43180000Y-61595000D02*
X44450000Y-61595000D01*
X42860000Y-61275000D02*
X43180000Y-61595000D01*
X42225000Y-43260000D02*
X42225000Y-45400000D01*
X42545000Y-45720000D02*
X43815000Y-45720000D01*
X42225000Y-45400000D02*
X42545000Y-45720000D01*
X45405000Y-31670000D02*
X45405000Y-29530000D01*
X26035000Y-29845000D02*
X29845000Y-26035000D01*
X29845000Y-26035000D02*
X36195000Y-26035000D01*
X26035000Y-29845000D02*
X26035000Y-31655000D01*
X41910000Y-26035000D02*
X36195000Y-26035000D01*
X45405000Y-29530000D02*
X41910000Y-26035000D01*
D47*
X71300000Y-152400000D02*
X74930000Y-152400000D01*
X71300000Y-154960000D02*
X71300000Y-152400000D01*
X71300000Y-152400000D02*
X71300000Y-149300000D01*
X71300000Y-149300000D02*
X71120000Y-149120000D01*
D48*
X80625000Y-134800000D02*
X82370000Y-134800000D01*
X85090000Y-132080000D02*
X85090000Y-126260000D01*
X82370000Y-134800000D02*
X83820000Y-133350000D01*
X83820000Y-133350000D02*
X85090000Y-132080000D01*
D53*
X163830000Y-170085000D02*
X161385000Y-170085000D01*
X161385000Y-170085000D02*
X161290000Y-170180000D01*
X192405000Y-213995000D02*
X193040000Y-213360000D01*
X193040000Y-213360000D02*
X193675000Y-213360000D01*
D46*
X156210000Y-206905000D02*
X158220000Y-206905000D01*
X162020000Y-203105000D02*
X163830000Y-203105000D01*
X158220000Y-206905000D02*
X162020000Y-203105000D01*
D53*
X192684400Y-181330600D02*
X191770000Y-182245000D01*
X47625000Y-214630000D02*
X48895000Y-213360000D01*
D46*
X46260000Y-210820000D02*
X46260000Y-204035000D01*
X46260000Y-204035000D02*
X46460000Y-203835000D01*
D53*
X50546000Y-216496900D02*
X49491900Y-216496900D01*
X46260000Y-213265000D02*
X46260000Y-210820000D01*
X49491900Y-216496900D02*
X47625000Y-214630000D01*
X47625000Y-214630000D02*
X46260000Y-213265000D01*
D46*
X69850000Y-226155000D02*
X69850000Y-229235000D01*
X69850000Y-193135000D02*
X69850000Y-196215000D01*
X63500000Y-170815000D02*
X63500000Y-168910000D01*
X46460000Y-170815000D02*
X46355000Y-170710000D01*
X46355000Y-170710000D02*
X46355000Y-168275000D01*
X22542500Y-69057500D02*
X20477500Y-69057500D01*
X20477500Y-69057500D02*
X20320000Y-69215000D01*
X17050000Y-57150000D02*
X17050000Y-54070000D01*
X17050000Y-54070000D02*
X17145000Y-53975000D01*
X24287500Y-41592500D02*
X24130000Y-41435000D01*
X24130000Y-41435000D02*
X24130000Y-40005000D01*
X17782500Y-21192500D02*
X17545000Y-20955000D01*
X17545000Y-20955000D02*
X15875000Y-20955000D01*
X69850000Y-226155000D02*
X76200000Y-226155000D01*
X62865000Y-225955000D02*
X69650000Y-225955000D01*
X69650000Y-225955000D02*
X69850000Y-226155000D01*
X83620000Y-226155000D02*
X83820000Y-225955000D01*
D51*
X30480000Y-155035000D02*
X30480000Y-158750000D01*
X30585000Y-158750000D02*
X30480000Y-158750000D01*
X30585000Y-158750000D02*
X33125000Y-161290000D01*
X30480000Y-155035000D02*
X31115000Y-154400000D01*
D50*
X60325000Y-124555000D02*
X60325000Y-129540000D01*
X60325000Y-129540000D02*
X60325000Y-133455000D01*
D47*
X156210000Y-206905000D02*
X155575000Y-207540000D01*
X155575000Y-207540000D02*
X155575000Y-212754000D01*
X155575000Y-212754000D02*
X157480000Y-214659000D01*
X156210000Y-173885000D02*
X155575000Y-174520000D01*
X155575000Y-174520000D02*
X155575000Y-179734000D01*
X155575000Y-179734000D02*
X157480000Y-181639000D01*
X86250000Y-179881000D02*
X86250000Y-173985000D01*
X86250000Y-173985000D02*
X83132500Y-170867500D01*
D46*
X46460000Y-203835000D02*
X46260000Y-204035000D01*
X66780000Y-203835000D02*
X63500000Y-203835000D01*
X63500000Y-203835000D02*
X60220000Y-203835000D01*
X66580000Y-210820000D02*
X66580000Y-204035000D01*
X66580000Y-204035000D02*
X66780000Y-203835000D01*
X69850000Y-193135000D02*
X63065000Y-193135000D01*
X63065000Y-193135000D02*
X62865000Y-192935000D01*
X76200000Y-193135000D02*
X69850000Y-193135000D01*
X66580000Y-177800000D02*
X66580000Y-171015000D01*
X66580000Y-171015000D02*
X66780000Y-170815000D01*
X60220000Y-170815000D02*
X63500000Y-170815000D01*
X63500000Y-170815000D02*
X66780000Y-170815000D01*
X46260000Y-177800000D02*
X46260000Y-171015000D01*
X46260000Y-171015000D02*
X46460000Y-170815000D01*
D53*
X46260000Y-177800000D02*
X46260000Y-180880000D01*
X48856900Y-183476900D02*
X50546000Y-183476900D01*
X46260000Y-180880000D02*
X48856900Y-183476900D01*
D46*
X170180000Y-170085000D02*
X163830000Y-170085000D01*
X177165000Y-170285000D02*
X170380000Y-170285000D01*
X170380000Y-170285000D02*
X170180000Y-170085000D01*
X173250000Y-192405000D02*
X179810000Y-192405000D01*
X173450000Y-185420000D02*
X173450000Y-192205000D01*
X173450000Y-192205000D02*
X173250000Y-192405000D01*
X173250000Y-225425000D02*
X179810000Y-225425000D01*
X173250000Y-225425000D02*
X173250000Y-218640000D01*
X173250000Y-218640000D02*
X173450000Y-218440000D01*
D53*
X189484000Y-179743100D02*
X191096900Y-179743100D01*
X193770000Y-182416200D02*
X193770000Y-185420000D01*
X191096900Y-179743100D02*
X192684400Y-181330600D01*
X192684400Y-181330600D02*
X193770000Y-182416200D01*
D46*
X193770000Y-185420000D02*
X193770000Y-192205000D01*
X193770000Y-192205000D02*
X193570000Y-192405000D01*
D53*
X189484000Y-179743100D02*
X189522100Y-179705000D01*
X193770000Y-192205000D02*
X193570000Y-192405000D01*
D48*
X156210000Y-206905000D02*
X155680000Y-206905000D01*
X155680000Y-206905000D02*
X155575000Y-207010000D01*
X170180000Y-203105000D02*
X176965000Y-203105000D01*
X176965000Y-203105000D02*
X177165000Y-203305000D01*
X163830000Y-203105000D02*
X170180000Y-203105000D01*
X163830000Y-203105000D02*
X163925000Y-203200000D01*
D53*
X189484000Y-212763100D02*
X191173100Y-212763100D01*
X193770000Y-215360000D02*
X193770000Y-218440000D01*
X191173100Y-212763100D02*
X192405000Y-213995000D01*
X192405000Y-213995000D02*
X193770000Y-215360000D01*
X173450000Y-225225000D02*
X173650000Y-225425000D01*
X170380000Y-203305000D02*
X170180000Y-203105000D01*
D46*
X193770000Y-218440000D02*
X193770000Y-225225000D01*
X193770000Y-225225000D02*
X193570000Y-225425000D01*
D48*
X33420000Y-52705000D02*
X39370000Y-52705000D01*
X33420000Y-52705000D02*
X15875000Y-52705000D01*
X40960000Y-54295000D02*
X40960000Y-55800000D01*
X39370000Y-52705000D02*
X40960000Y-54295000D01*
X16192500Y-30637500D02*
X12222500Y-30637500D01*
D46*
X12222500Y-30637500D02*
X12065000Y-30480000D01*
D48*
X29687500Y-41592500D02*
X29687500Y-39847500D01*
X18415000Y-43180000D02*
X17780000Y-43180000D01*
X22860000Y-38735000D02*
X18415000Y-43180000D01*
X28575000Y-38735000D02*
X22860000Y-38735000D01*
X29687500Y-39847500D02*
X28575000Y-38735000D01*
X22542500Y-63657500D02*
X15397500Y-63657500D01*
X15397500Y-63657500D02*
X15240000Y-63500000D01*
D49*
X42037000Y-132715000D02*
X46355000Y-132715000D01*
X41719500Y-133032500D02*
X42037000Y-132715000D01*
D50*
X180340000Y-208915000D02*
X181610000Y-207645000D01*
D46*
X180340000Y-175895000D02*
X180340000Y-175844200D01*
X180365400Y-175869600D02*
X180340000Y-175895000D01*
D47*
X182245000Y-173990000D02*
X180365400Y-175869600D01*
D48*
X66675000Y-189335000D02*
X66675000Y-188595000D01*
D47*
X66675000Y-222155000D02*
X66675000Y-220980000D01*
X69850000Y-222155000D02*
X66675000Y-222155000D01*
X66675000Y-222155000D02*
X63065000Y-222155000D01*
D46*
X63065000Y-222155000D02*
X62865000Y-222355000D01*
D51*
X31115000Y-150400000D02*
X31115000Y-147320000D01*
X41719500Y-136715500D02*
X41719500Y-133032500D01*
X31115000Y-147320000D02*
X41719500Y-136715500D01*
X31210000Y-150495000D02*
X38100000Y-150495000D01*
D47*
X82550000Y-214601000D02*
X76940000Y-208991000D01*
X76940000Y-208991000D02*
X76940000Y-203835000D01*
X76940000Y-170815000D02*
X76940000Y-177905000D01*
X80616000Y-181581000D02*
X82550000Y-181581000D01*
X76940000Y-177905000D02*
X80616000Y-181581000D01*
D53*
X56134000Y-219100400D02*
X59029600Y-219100400D01*
D48*
X59029600Y-219100400D02*
X62284200Y-222355000D01*
D53*
X62284200Y-222355000D02*
X62865000Y-222355000D01*
D46*
X62865000Y-189335000D02*
X66675000Y-189335000D01*
X66675000Y-189335000D02*
X69650000Y-189335000D01*
X69650000Y-189335000D02*
X69850000Y-189135000D01*
D53*
X56134000Y-186080400D02*
X58445400Y-186080400D01*
X61700000Y-189335000D02*
X62865000Y-189335000D01*
X58445400Y-186080400D02*
X61700000Y-189335000D01*
D46*
X177165000Y-206905000D02*
X170380000Y-206905000D01*
X170380000Y-206905000D02*
X170180000Y-207105000D01*
X177165000Y-173885000D02*
X170380000Y-173885000D01*
X170380000Y-173885000D02*
X170180000Y-174085000D01*
D53*
X183896000Y-177139600D02*
X181635400Y-177139600D01*
D47*
X181635400Y-177139600D02*
X180340000Y-175844200D01*
X178380800Y-173885000D02*
X177165000Y-173885000D01*
X180340000Y-175844200D02*
X178380800Y-173885000D01*
D53*
X183896000Y-210159600D02*
X181584600Y-210159600D01*
X178330000Y-206905000D02*
X177165000Y-206905000D01*
X181584600Y-210159600D02*
X180340000Y-208915000D01*
X180340000Y-208915000D02*
X178330000Y-206905000D01*
X170380000Y-206905000D02*
X170180000Y-207105000D01*
X176965000Y-207105000D02*
X177165000Y-206905000D01*
D50*
X50260000Y-174625000D02*
X53340000Y-174625000D01*
D54*
X146050000Y-36750000D02*
X146050000Y-33020000D01*
D53*
X185340000Y-205740000D02*
X184150000Y-205740000D01*
X183740000Y-206150000D02*
X183740000Y-209505000D01*
X184150000Y-205740000D02*
X183740000Y-206150000D01*
X146050000Y-45165000D02*
X147240000Y-45165000D01*
X147240000Y-36750000D02*
X146050000Y-36750000D01*
X148590000Y-38100000D02*
X147240000Y-36750000D01*
X148590000Y-43815000D02*
X148590000Y-38100000D01*
X147240000Y-45165000D02*
X148590000Y-43815000D01*
D48*
X53340000Y-210820000D02*
X53340000Y-216535000D01*
X113770000Y-204470000D02*
X113665000Y-204365000D01*
D51*
X113665000Y-204365000D02*
X113665000Y-194310000D01*
D48*
X95885000Y-114935000D02*
X112395000Y-114935000D01*
X112395000Y-114935000D02*
X115015000Y-112315000D01*
X115015000Y-112315000D02*
X115015000Y-109855000D01*
D49*
X41719500Y-110172500D02*
X42037000Y-109855000D01*
X42037000Y-109855000D02*
X51435000Y-109855000D01*
D47*
X186690000Y-179705000D02*
X186690000Y-182880000D01*
D46*
X186690000Y-215265000D02*
X186690000Y-212725000D01*
D48*
X53340000Y-183515000D02*
X53340000Y-180340000D01*
D53*
X50546000Y-215849200D02*
X50546000Y-211106000D01*
X50546000Y-211106000D02*
X50260000Y-210820000D01*
D46*
X50060000Y-203835000D02*
X50260000Y-204035000D01*
D47*
X50260000Y-204035000D02*
X50260000Y-210820000D01*
D46*
X50060000Y-210620000D02*
X50260000Y-210820000D01*
D50*
X50260000Y-177800000D02*
X50260000Y-174625000D01*
X50260000Y-174625000D02*
X50260000Y-171015000D01*
D46*
X50260000Y-171015000D02*
X50060000Y-170815000D01*
D53*
X50546000Y-182829200D02*
X50546000Y-178086000D01*
X50546000Y-178086000D02*
X50260000Y-177800000D01*
X50546000Y-215849200D02*
X52654200Y-215849200D01*
D46*
X52654200Y-215849200D02*
X53340000Y-216535000D01*
D53*
X53975000Y-219710000D02*
X56108600Y-219710000D01*
D46*
X53340000Y-219075000D02*
X53975000Y-219710000D01*
D48*
X53340000Y-216535000D02*
X53340000Y-219075000D01*
D53*
X56108600Y-219710000D02*
X56134000Y-219735400D01*
X54690000Y-190500000D02*
X56134000Y-189056000D01*
X56134000Y-189056000D02*
X56134000Y-186715400D01*
X183896000Y-176504600D02*
X186029600Y-176504600D01*
X186029600Y-176504600D02*
X186690000Y-177165000D01*
X186690000Y-177165000D02*
X186690000Y-179705000D01*
X187325000Y-180340000D02*
X189433200Y-180340000D01*
X186690000Y-179705000D02*
X187325000Y-180340000D01*
X189433200Y-180340000D02*
X189484000Y-180390800D01*
X183896000Y-209524600D02*
X186029600Y-209524600D01*
X186029600Y-209524600D02*
X186690000Y-210185000D01*
X186690000Y-210185000D02*
X186690000Y-212725000D01*
X187325000Y-213360000D02*
X189433200Y-213360000D01*
X186690000Y-212725000D02*
X187325000Y-213360000D01*
X189433200Y-213360000D02*
X189484000Y-213410800D01*
X56134000Y-186715400D02*
X54000400Y-186715400D01*
D46*
X54000400Y-186715400D02*
X53340000Y-186055000D01*
D48*
X53340000Y-186055000D02*
X53340000Y-183515000D01*
D53*
X52705000Y-182880000D02*
X50596800Y-182880000D01*
D46*
X53340000Y-183515000D02*
X52705000Y-182880000D01*
D53*
X50596800Y-182880000D02*
X50546000Y-182829200D01*
D48*
X189770000Y-185420000D02*
X189770000Y-192205000D01*
D46*
X189770000Y-192205000D02*
X189970000Y-192405000D01*
D53*
X189484000Y-180390800D02*
X189484000Y-185134000D01*
X189484000Y-185134000D02*
X189970000Y-185620000D01*
X189484000Y-213410800D02*
X189484000Y-218154000D01*
X189484000Y-218154000D02*
X189770000Y-218440000D01*
D46*
X189770000Y-218440000D02*
X189770000Y-225225000D01*
X189770000Y-225225000D02*
X189970000Y-225425000D01*
D48*
X115015000Y-109855000D02*
X115015000Y-107315000D01*
X115015000Y-107315000D02*
X115015000Y-104775000D01*
X115015000Y-104775000D02*
X115015000Y-102235000D01*
X115015000Y-102235000D02*
X115015000Y-99695000D01*
X115015000Y-99695000D02*
X115015000Y-97155000D01*
X115015000Y-97155000D02*
X115015000Y-94615000D01*
X115015000Y-94615000D02*
X115015000Y-92075000D01*
D51*
X101600000Y-141605000D02*
X101600000Y-178435000D01*
X101600000Y-178435000D02*
X94615000Y-185420000D01*
X79375000Y-105410000D02*
X79375000Y-106045000D01*
X88265000Y-92710000D02*
X81915000Y-92710000D01*
X79375000Y-95250000D02*
X79375000Y-102235000D01*
X81915000Y-92710000D02*
X79375000Y-95250000D01*
X79375000Y-105410000D02*
X79375000Y-102235000D01*
D48*
X92710000Y-92710000D02*
X92075000Y-93345000D01*
X92075000Y-93345000D02*
X91440000Y-93345000D01*
X92710000Y-92710000D02*
X92075000Y-92075000D01*
X92075000Y-92075000D02*
X91440000Y-92075000D01*
X92710000Y-92710000D02*
X92075000Y-92710000D01*
X92075000Y-92710000D02*
X91440000Y-92075000D01*
X91440000Y-92075000D02*
X90805000Y-91440000D01*
D46*
X90805000Y-91440000D02*
X89535000Y-91440000D01*
D48*
X89535000Y-91440000D02*
X88265000Y-92710000D01*
X88265000Y-92710000D02*
X89535000Y-93980000D01*
D46*
X89535000Y-93980000D02*
X90805000Y-93980000D01*
D48*
X90805000Y-93980000D02*
X91440000Y-93345000D01*
X91440000Y-93345000D02*
X92075000Y-92710000D01*
D47*
X83820000Y-189335000D02*
X83820000Y-186251000D01*
X83820000Y-186251000D02*
X82550000Y-184981000D01*
D53*
X56134000Y-184785000D02*
X59690000Y-184785000D01*
X59690000Y-184785000D02*
X60325000Y-185420000D01*
D51*
X104775000Y-141605000D02*
X104775000Y-207645000D01*
X104775000Y-207645000D02*
X94615000Y-217805000D01*
D47*
X83820000Y-222355000D02*
X83820000Y-219271000D01*
X83820000Y-219271000D02*
X82550000Y-218001000D01*
D53*
X56134000Y-217805000D02*
X60325000Y-217805000D01*
X60325000Y-217805000D02*
X60960000Y-218440000D01*
D47*
X156210000Y-203305000D02*
X154835000Y-203305000D01*
X152400000Y-211579000D02*
X153780000Y-212959000D01*
X152400000Y-207115000D02*
X152400000Y-211579000D01*
X152400000Y-205740000D02*
X152400000Y-207115000D01*
X154835000Y-203305000D02*
X152400000Y-205740000D01*
D51*
X107315000Y-149225000D02*
X139700000Y-181610000D01*
X139700000Y-181610000D02*
X139700000Y-208280000D01*
X74295000Y-105410000D02*
X74295000Y-106045000D01*
X74295000Y-102235000D02*
X74295000Y-95885000D01*
X82550000Y-87630000D02*
X74295000Y-95885000D01*
X82550000Y-87630000D02*
X88265000Y-87630000D01*
X74295000Y-105410000D02*
X74295000Y-102235000D01*
X139700000Y-208915000D02*
X139700000Y-208280000D01*
X141605000Y-210820000D02*
X139700000Y-208915000D01*
D48*
X92710000Y-87630000D02*
X92075000Y-88265000D01*
X92075000Y-88265000D02*
X91440000Y-88265000D01*
X92710000Y-87630000D02*
X92075000Y-86995000D01*
X92075000Y-86995000D02*
X91440000Y-86995000D01*
X92710000Y-87630000D02*
X92075000Y-87630000D01*
X92075000Y-87630000D02*
X91440000Y-86995000D01*
X91440000Y-86995000D02*
X90805000Y-86360000D01*
X89535000Y-86360000D02*
X88265000Y-87630000D01*
D46*
X90805000Y-86360000D02*
X89535000Y-86360000D01*
D48*
X88265000Y-87630000D02*
X89535000Y-88900000D01*
X90805000Y-88900000D02*
X91440000Y-88265000D01*
D46*
X89535000Y-88900000D02*
X90805000Y-88900000D01*
D48*
X91440000Y-88265000D02*
X92075000Y-87630000D01*
D53*
X183896000Y-212115400D02*
X180365400Y-212115400D01*
X179755800Y-212725000D02*
X179705000Y-212725000D01*
X180365400Y-212115400D02*
X179755800Y-212725000D01*
D47*
X156210000Y-170285000D02*
X153565000Y-170285000D01*
X152400000Y-178559000D02*
X153780000Y-179939000D01*
X152400000Y-174095000D02*
X152400000Y-178559000D01*
X152400000Y-171450000D02*
X152400000Y-174095000D01*
X153565000Y-170285000D02*
X152400000Y-171450000D01*
D51*
X139065000Y-177800000D02*
X107950000Y-146685000D01*
X139065000Y-178435000D02*
X139065000Y-177800000D01*
D53*
X183896000Y-179095400D02*
X181000400Y-179095400D01*
X181000400Y-179095400D02*
X180390800Y-179705000D01*
X180390800Y-179705000D02*
X180340000Y-179705000D01*
D51*
X80645000Y-122460000D02*
X80645000Y-114935000D01*
X80645000Y-114935000D02*
X81280000Y-114300000D01*
X78105000Y-122460000D02*
X80645000Y-122460000D01*
X80645000Y-122460000D02*
X84890000Y-122460000D01*
X84890000Y-122460000D02*
X85090000Y-122660000D01*
X68580000Y-123190000D02*
X73660000Y-123190000D01*
X74390000Y-122460000D02*
X78105000Y-122460000D01*
X73660000Y-123190000D02*
X74390000Y-122460000D01*
X73660000Y-113030000D02*
X73660000Y-120015000D01*
D46*
X19682500Y-26667500D02*
X19685000Y-26670000D01*
D51*
X53340000Y-92710000D02*
X73660000Y-113030000D01*
X53340000Y-92710000D02*
X33655000Y-92710000D01*
D46*
X19682500Y-23892500D02*
X19682500Y-26667500D01*
D51*
X70485000Y-123190000D02*
X68580000Y-123190000D01*
X73660000Y-120015000D02*
X70485000Y-123190000D01*
X78105000Y-122460000D02*
X78305000Y-122660000D01*
D52*
X71120000Y-145520000D02*
X81175000Y-145520000D01*
D49*
X92710000Y-116205000D02*
X92710000Y-113030000D01*
D52*
X89535000Y-119380000D02*
X92710000Y-116205000D01*
X89535000Y-137160000D02*
X89535000Y-119380000D01*
X81175000Y-145520000D02*
X89535000Y-137160000D01*
D49*
X92710000Y-113030000D02*
X92710000Y-110490000D01*
D48*
X33020000Y-40005000D02*
X36830000Y-40005000D01*
D51*
X71120000Y-133350000D02*
X73660000Y-130810000D01*
X71120000Y-145520000D02*
X71120000Y-133350000D01*
D48*
X37385000Y-40560000D02*
X40325000Y-40560000D01*
X36830000Y-40005000D02*
X37385000Y-40560000D01*
D51*
X59690000Y-150400000D02*
X59595000Y-150495000D01*
X59595000Y-150495000D02*
X42545000Y-150495000D01*
X40005000Y-147955000D02*
X38100000Y-147955000D01*
X42545000Y-150495000D02*
X40005000Y-147955000D01*
X59690000Y-150400000D02*
X64570000Y-145520000D01*
X64570000Y-145520000D02*
X71120000Y-145520000D01*
D46*
X77470000Y-73025000D02*
X86360000Y-73025000D01*
X91440000Y-76200000D02*
X92710000Y-77470000D01*
X89535000Y-76200000D02*
X91440000Y-76200000D01*
X86360000Y-73025000D02*
X89535000Y-76200000D01*
X72390000Y-73025000D02*
X76835000Y-77470000D01*
X76835000Y-77470000D02*
X90170000Y-77470000D01*
X72390000Y-47625000D02*
X72390000Y-64770000D01*
X70485000Y-80010000D02*
X90170000Y-80010000D01*
X67945000Y-77470000D02*
X70485000Y-80010000D01*
X67945000Y-69215000D02*
X67945000Y-77470000D01*
X72390000Y-64770000D02*
X67945000Y-69215000D01*
X72390000Y-26035000D02*
X72390000Y-39370000D01*
X72390000Y-39370000D02*
X65405000Y-46355000D01*
X65405000Y-46355000D02*
X65405000Y-78740000D01*
X65405000Y-78740000D02*
X69215000Y-82550000D01*
X69215000Y-82550000D02*
X90170000Y-82550000D01*
X34290000Y-22860000D02*
X33020000Y-22860000D01*
X33020000Y-22860000D02*
X29305000Y-22860000D01*
X29305000Y-22860000D02*
X28987500Y-22542500D01*
X63500000Y-33020000D02*
X58515000Y-33020000D01*
X58515000Y-33020000D02*
X58197500Y-33337500D01*
X58515000Y-33020000D02*
X58197500Y-33337500D01*
X58515000Y-33020000D02*
X58197500Y-33337500D01*
X57785000Y-41910000D02*
X53435000Y-41910000D01*
X53435000Y-41910000D02*
X53117500Y-42227500D01*
X54705000Y-61595000D02*
X61595000Y-61595000D01*
D53*
X149860000Y-64770000D02*
X149860000Y-62865000D01*
X156845000Y-38100000D02*
X158750000Y-38100000D01*
X151130000Y-43815000D02*
X156845000Y-38100000D01*
X151130000Y-61595000D02*
X151130000Y-43815000D01*
X149860000Y-62865000D02*
X151130000Y-61595000D01*
X149860000Y-67310000D02*
X151130000Y-67310000D01*
X156845000Y-40640000D02*
X158750000Y-40640000D01*
X151765000Y-45720000D02*
X156845000Y-40640000D01*
X151765000Y-66675000D02*
X151765000Y-45720000D01*
X151130000Y-67310000D02*
X151765000Y-66675000D01*
X158750000Y-43180000D02*
X156845000Y-43180000D01*
X151765000Y-69850000D02*
X149860000Y-69850000D01*
X152400000Y-69215000D02*
X151765000Y-69850000D01*
X152400000Y-47625000D02*
X152400000Y-69215000D01*
X156845000Y-43180000D02*
X152400000Y-47625000D01*
X149860000Y-72390000D02*
X151765000Y-72390000D01*
X156845000Y-45720000D02*
X158750000Y-45720000D01*
X153035000Y-49530000D02*
X156845000Y-45720000D01*
X153035000Y-71120000D02*
X153035000Y-49530000D01*
X151765000Y-72390000D02*
X153035000Y-71120000D01*
X149860000Y-87630000D02*
X151765000Y-87630000D01*
X157480000Y-60960000D02*
X158750000Y-60960000D01*
X156845000Y-61595000D02*
X157480000Y-60960000D01*
X156845000Y-82550000D02*
X156845000Y-61595000D01*
X151765000Y-87630000D02*
X156845000Y-82550000D01*
X158750000Y-48260000D02*
X156845000Y-48260000D01*
X151765000Y-74930000D02*
X149860000Y-74930000D01*
X153670000Y-73025000D02*
X151765000Y-74930000D01*
X153670000Y-51435000D02*
X153670000Y-73025000D01*
X156845000Y-48260000D02*
X153670000Y-51435000D01*
X149860000Y-77470000D02*
X151765000Y-77470000D01*
X156845000Y-50800000D02*
X158750000Y-50800000D01*
X154305000Y-53340000D02*
X156845000Y-50800000D01*
X154305000Y-74930000D02*
X154305000Y-53340000D01*
X151765000Y-77470000D02*
X154305000Y-74930000D01*
X158750000Y-53340000D02*
X156845000Y-53340000D01*
X151765000Y-80010000D02*
X149860000Y-80010000D01*
X154940000Y-76835000D02*
X151765000Y-80010000D01*
X154940000Y-55245000D02*
X154940000Y-76835000D01*
X156845000Y-53340000D02*
X154940000Y-55245000D01*
X149860000Y-82550000D02*
X151765000Y-82550000D01*
X156845000Y-55880000D02*
X158750000Y-55880000D01*
X155575000Y-57150000D02*
X156845000Y-55880000D01*
X155575000Y-78740000D02*
X155575000Y-57150000D01*
X151765000Y-82550000D02*
X155575000Y-78740000D01*
X158750000Y-58420000D02*
X156845000Y-58420000D01*
X151765000Y-85090000D02*
X149860000Y-85090000D01*
X156210000Y-80645000D02*
X151765000Y-85090000D01*
X156210000Y-59055000D02*
X156210000Y-80645000D01*
X156845000Y-58420000D02*
X156210000Y-59055000D01*
X171450000Y-64770000D02*
X171450000Y-62865000D01*
X178435000Y-38100000D02*
X180340000Y-38100000D01*
X172720000Y-43815000D02*
X178435000Y-38100000D01*
X172720000Y-61595000D02*
X172720000Y-43815000D01*
X171450000Y-62865000D02*
X172720000Y-61595000D01*
X180340000Y-40640000D02*
X178435000Y-40640000D01*
X172720000Y-67310000D02*
X171450000Y-67310000D01*
X173355000Y-66675000D02*
X172720000Y-67310000D01*
X173355000Y-45720000D02*
X173355000Y-66675000D01*
X178435000Y-40640000D02*
X173355000Y-45720000D01*
X171450000Y-69850000D02*
X173355000Y-69850000D01*
X178435000Y-43180000D02*
X180340000Y-43180000D01*
X173990000Y-47625000D02*
X178435000Y-43180000D01*
X173990000Y-69215000D02*
X173990000Y-47625000D01*
X173355000Y-69850000D02*
X173990000Y-69215000D01*
X180340000Y-45720000D02*
X178435000Y-45720000D01*
X173355000Y-72390000D02*
X171450000Y-72390000D01*
X174625000Y-71120000D02*
X173355000Y-72390000D01*
X174625000Y-49530000D02*
X174625000Y-71120000D01*
X178435000Y-45720000D02*
X174625000Y-49530000D01*
X180340000Y-60960000D02*
X179070000Y-60960000D01*
X173355000Y-87630000D02*
X171450000Y-87630000D01*
X178435000Y-82550000D02*
X173355000Y-87630000D01*
X178435000Y-61595000D02*
X178435000Y-82550000D01*
X179070000Y-60960000D02*
X178435000Y-61595000D01*
X171450000Y-74930000D02*
X173355000Y-74930000D01*
X178435000Y-48260000D02*
X180340000Y-48260000D01*
X175260000Y-51435000D02*
X178435000Y-48260000D01*
X175260000Y-73025000D02*
X175260000Y-51435000D01*
X173355000Y-74930000D02*
X175260000Y-73025000D01*
X180340000Y-50800000D02*
X178435000Y-50800000D01*
X173355000Y-77470000D02*
X171450000Y-77470000D01*
X175895000Y-74930000D02*
X173355000Y-77470000D01*
X175895000Y-53340000D02*
X175895000Y-74930000D01*
X178435000Y-50800000D02*
X175895000Y-53340000D01*
X171450000Y-80010000D02*
X173355000Y-80010000D01*
X178435000Y-53340000D02*
X180340000Y-53340000D01*
X176530000Y-55245000D02*
X178435000Y-53340000D01*
X176530000Y-76835000D02*
X176530000Y-55245000D01*
X173355000Y-80010000D02*
X176530000Y-76835000D01*
X180340000Y-55880000D02*
X178435000Y-55880000D01*
X173355000Y-82550000D02*
X171450000Y-82550000D01*
X177165000Y-78740000D02*
X173355000Y-82550000D01*
X177165000Y-57150000D02*
X177165000Y-78740000D01*
X178435000Y-55880000D02*
X177165000Y-57150000D01*
X171450000Y-85090000D02*
X173355000Y-85090000D01*
X178435000Y-58420000D02*
X180340000Y-58420000D01*
X177800000Y-59055000D02*
X178435000Y-58420000D01*
X177800000Y-80645000D02*
X177800000Y-59055000D01*
X173355000Y-85090000D02*
X177800000Y-80645000D01*
X140970000Y-42545000D02*
X139700000Y-42545000D01*
X92710000Y-55880000D02*
X127635000Y-55880000D01*
X130175000Y-53340000D02*
X127635000Y-55880000D01*
X130175000Y-52070000D02*
X130175000Y-53340000D01*
X139700000Y-42545000D02*
X130175000Y-52070000D01*
D46*
X146050000Y-42465000D02*
X145970000Y-42545000D01*
X145970000Y-42545000D02*
X140970000Y-42545000D01*
D53*
X126365000Y-54610000D02*
X128270000Y-52705000D01*
X91440000Y-54610000D02*
X126365000Y-54610000D01*
X139700000Y-40005000D02*
X140970000Y-40005000D01*
X138430000Y-41275000D02*
X139700000Y-40005000D01*
X138430000Y-41275000D02*
X138430000Y-41275000D01*
X128270000Y-51435000D02*
X138430000Y-41275000D01*
X128270000Y-52705000D02*
X128270000Y-51435000D01*
D46*
X146050000Y-39450000D02*
X145495000Y-40005000D01*
X145495000Y-40005000D02*
X140970000Y-40005000D01*
D53*
X137160000Y-59690000D02*
X135890000Y-58420000D01*
X137160000Y-62230000D02*
X137160000Y-59690000D01*
X137795000Y-62865000D02*
X137160000Y-62230000D01*
X137795000Y-70485000D02*
X137795000Y-62865000D01*
X135255000Y-154305000D02*
X129540000Y-148590000D01*
X143510000Y-162560000D02*
X135255000Y-154305000D01*
X196215000Y-208280000D02*
X200660000Y-203835000D01*
X192379600Y-212115400D02*
X196215000Y-208280000D01*
X189484000Y-212115400D02*
X192379600Y-212115400D01*
X184150000Y-162560000D02*
X177165000Y-162560000D01*
X200660000Y-179070000D02*
X184150000Y-162560000D01*
X200660000Y-203835000D02*
X200660000Y-179070000D01*
X177165000Y-162560000D02*
X143510000Y-162560000D01*
X129540000Y-148590000D02*
X118110000Y-148590000D01*
X46964600Y-184124600D02*
X50546000Y-184124600D01*
X44450000Y-181610000D02*
X46964600Y-184124600D01*
X44450000Y-165735000D02*
X44450000Y-181610000D01*
X46990000Y-163195000D02*
X44450000Y-165735000D01*
X90805000Y-163195000D02*
X46990000Y-163195000D01*
X139700000Y-59690000D02*
X138430000Y-58420000D01*
X139700000Y-62230000D02*
X139700000Y-59690000D01*
X140335000Y-62865000D02*
X139700000Y-62230000D01*
X140335000Y-71120000D02*
X140335000Y-62865000D01*
X133350000Y-154305000D02*
X128905000Y-149860000D01*
X198120000Y-179070000D02*
X182880000Y-163830000D01*
X142875000Y-163830000D02*
X133350000Y-154305000D01*
X182880000Y-163830000D02*
X142875000Y-163830000D01*
X128905000Y-149860000D02*
X116840000Y-149860000D01*
X189484000Y-211455000D02*
X191770000Y-211455000D01*
X193040000Y-178435000D02*
X189484000Y-178435000D01*
X193675000Y-179070000D02*
X193040000Y-178435000D01*
X199390000Y-180340000D02*
X198120000Y-179070000D01*
X199390000Y-203835000D02*
X199390000Y-180340000D01*
X191770000Y-211455000D02*
X199390000Y-203835000D01*
X43180000Y-183515000D02*
X46355000Y-186690000D01*
X43180000Y-165735000D02*
X43180000Y-183515000D01*
X46990000Y-161925000D02*
X43180000Y-165735000D01*
X90805000Y-161925000D02*
X46990000Y-161925000D01*
X50546000Y-217805000D02*
X47625000Y-217805000D01*
X48260000Y-184785000D02*
X50546000Y-184785000D01*
X46355000Y-186690000D02*
X48260000Y-184785000D01*
X47625000Y-217805000D02*
X46990000Y-217170000D01*
X90805000Y-160655000D02*
X46990000Y-160655000D01*
X46990000Y-160655000D02*
X41910000Y-165735000D01*
X41910000Y-192405000D02*
X41910000Y-165735000D01*
X50546000Y-185432700D02*
X48882300Y-185432700D01*
X47002700Y-218452700D02*
X50546000Y-218452700D01*
X41910000Y-213360000D02*
X47002700Y-218452700D01*
X41910000Y-192405000D02*
X41910000Y-213360000D01*
X48882300Y-185432700D02*
X41910000Y-192405000D01*
X189484000Y-210807300D02*
X191147700Y-210807300D01*
X193662300Y-177787300D02*
X189484000Y-177787300D01*
X198120000Y-182245000D02*
X193662300Y-177787300D01*
X198120000Y-203835000D02*
X198120000Y-182245000D01*
X191147700Y-210807300D02*
X198120000Y-203835000D01*
X93980000Y-68580000D02*
X92710000Y-67310000D01*
X93980000Y-69850000D02*
X93980000Y-68580000D01*
X94615000Y-70485000D02*
X93980000Y-69850000D01*
X99060000Y-70485000D02*
X94615000Y-70485000D01*
X109220000Y-80645000D02*
X99060000Y-70485000D01*
X109220000Y-109855000D02*
X95885000Y-109855000D01*
X112315000Y-109855000D02*
X109220000Y-109855000D01*
X107950000Y-107315000D02*
X95885000Y-107315000D01*
X112315000Y-107315000D02*
X107950000Y-107315000D01*
X93980000Y-71120000D02*
X92710000Y-69850000D01*
X93980000Y-72390000D02*
X93980000Y-71120000D01*
X94615000Y-73025000D02*
X93980000Y-72390000D01*
X99060000Y-73025000D02*
X94615000Y-73025000D01*
X106680000Y-80645000D02*
X99060000Y-73025000D01*
X106680000Y-104775000D02*
X95885000Y-104775000D01*
X112315000Y-104775000D02*
X106680000Y-104775000D01*
X105410000Y-102235000D02*
X95885000Y-102235000D01*
X112315000Y-102235000D02*
X105410000Y-102235000D01*
X93980000Y-73660000D02*
X92710000Y-72390000D01*
X93980000Y-74930000D02*
X93980000Y-73660000D01*
X94615000Y-75565000D02*
X93980000Y-74930000D01*
X99060000Y-75565000D02*
X94615000Y-75565000D01*
X104140000Y-80645000D02*
X99060000Y-75565000D01*
X104140000Y-99695000D02*
X95885000Y-99695000D01*
X112315000Y-99695000D02*
X104140000Y-99695000D01*
X102870000Y-97155000D02*
X95885000Y-97155000D01*
X112315000Y-97155000D02*
X102870000Y-97155000D01*
X93980000Y-76200000D02*
X92710000Y-74930000D01*
X93980000Y-77470000D02*
X93980000Y-76200000D01*
X94615000Y-78105000D02*
X93980000Y-77470000D01*
X99060000Y-78105000D02*
X94615000Y-78105000D01*
X101600000Y-80645000D02*
X99060000Y-78105000D01*
X101600000Y-94615000D02*
X95885000Y-94615000D01*
X112315000Y-94615000D02*
X101600000Y-94615000D01*
X100330000Y-92075000D02*
X95885000Y-92075000D01*
X112315000Y-92075000D02*
X100330000Y-92075000D01*
X132715000Y-110109000D02*
X132715000Y-114300000D01*
X132715000Y-110109000D02*
X132715000Y-62865000D01*
X132715000Y-62865000D02*
X132080000Y-62230000D01*
X132080000Y-62230000D02*
X132080000Y-59690000D01*
X130810000Y-58420000D02*
X132080000Y-59690000D01*
X139954000Y-121539000D02*
X144145000Y-121539000D01*
X132715000Y-114300000D02*
X139954000Y-121539000D01*
X130175000Y-110109000D02*
X130175000Y-114935000D01*
X130175000Y-110109000D02*
X130175000Y-62865000D01*
X130175000Y-62865000D02*
X129540000Y-62230000D01*
X129540000Y-62230000D02*
X129540000Y-59690000D01*
X128270000Y-58420000D02*
X129540000Y-59690000D01*
X139319000Y-124079000D02*
X144145000Y-124079000D01*
X130175000Y-114935000D02*
X139319000Y-124079000D01*
X127635000Y-110109000D02*
X127635000Y-115570000D01*
X127635000Y-110109000D02*
X127635000Y-62865000D01*
X127635000Y-62865000D02*
X127000000Y-62230000D01*
X127000000Y-62230000D02*
X127000000Y-59690000D01*
X125730000Y-58420000D02*
X127000000Y-59690000D01*
X138684000Y-126619000D02*
X144145000Y-126619000D01*
X127635000Y-115570000D02*
X138684000Y-126619000D01*
X125095000Y-110109000D02*
X125095000Y-116205000D01*
X124460000Y-59690000D02*
X124460000Y-62230000D01*
X124460000Y-62230000D02*
X125095000Y-62865000D01*
X125095000Y-62865000D02*
X125095000Y-110109000D01*
X123190000Y-58420000D02*
X124460000Y-59690000D01*
X138049000Y-129159000D02*
X144145000Y-129159000D01*
X125095000Y-116205000D02*
X138049000Y-129159000D01*
X122555000Y-110109000D02*
X122555000Y-116840000D01*
X122555000Y-110109000D02*
X122555000Y-62865000D01*
X122555000Y-62865000D02*
X121920000Y-62230000D01*
X121920000Y-62230000D02*
X121920000Y-59690000D01*
X120650000Y-58420000D02*
X121920000Y-59690000D01*
X137414000Y-131699000D02*
X144145000Y-131699000D01*
X122555000Y-116840000D02*
X137414000Y-131699000D01*
X118745000Y-69215000D02*
X111760000Y-69215000D01*
X111760000Y-69215000D02*
X109855000Y-67310000D01*
X109855000Y-67310000D02*
X109855000Y-63500000D01*
X109855000Y-63500000D02*
X108585000Y-62230000D01*
X108585000Y-62230000D02*
X107315000Y-62230000D01*
X107315000Y-62230000D02*
X106680000Y-61595000D01*
X106680000Y-61595000D02*
X106680000Y-59690000D01*
X106680000Y-59690000D02*
X105410000Y-58420000D01*
X54292500Y-80327500D02*
X54292500Y-82232500D01*
X80645000Y-84455000D02*
X58420000Y-84455000D01*
X56515000Y-84455000D02*
X58420000Y-84455000D01*
X54292500Y-82232500D02*
X56515000Y-84455000D01*
X51752500Y-80327500D02*
X51752500Y-82232500D01*
X57785000Y-86360000D02*
X80645000Y-86360000D01*
X55880000Y-86360000D02*
X57785000Y-86360000D01*
X51752500Y-82232500D02*
X55880000Y-86360000D01*
D46*
X44132500Y-80327500D02*
X44132500Y-82232500D01*
X20002500Y-32067500D02*
X20002500Y-30637500D01*
X10160000Y-76200000D02*
X21590000Y-87630000D01*
X10160000Y-74930000D02*
X10160000Y-76200000D01*
X10160000Y-34290000D02*
X10160000Y-74930000D01*
X12065000Y-32385000D02*
X10160000Y-34290000D01*
X19685000Y-32385000D02*
X12065000Y-32385000D01*
X20002500Y-32067500D02*
X19685000Y-32385000D01*
X21590000Y-87630000D02*
X36830000Y-87630000D01*
X38735000Y-87630000D02*
X36830000Y-87630000D01*
X44132500Y-82232500D02*
X38735000Y-87630000D01*
X18732500Y-30637500D02*
X20002500Y-30637500D01*
X41592500Y-80327500D02*
X41592500Y-82232500D01*
X22860000Y-85725000D02*
X36195000Y-85725000D01*
X18732500Y-40957500D02*
X18732500Y-36037500D01*
X12065000Y-74930000D02*
X20955000Y-83820000D01*
X12065000Y-47625000D02*
X12065000Y-74930000D01*
X18732500Y-40957500D02*
X12065000Y-47625000D01*
X20955000Y-83820000D02*
X22860000Y-85725000D01*
X38100000Y-85725000D02*
X36195000Y-85725000D01*
X41592500Y-82232500D02*
X38100000Y-85725000D01*
X18732500Y-36037500D02*
X17462500Y-36037500D01*
X39052500Y-80327500D02*
X39052500Y-82232500D01*
X24130000Y-83820000D02*
X35560000Y-83820000D01*
X13970000Y-50705000D02*
X18732500Y-45942500D01*
X13970000Y-73660000D02*
X21590000Y-81280000D01*
X13970000Y-50705000D02*
X13970000Y-73660000D01*
X21590000Y-81280000D02*
X24130000Y-83820000D01*
X37465000Y-83820000D02*
X35560000Y-83820000D01*
X39052500Y-82232500D02*
X37465000Y-83820000D01*
X18732500Y-45942500D02*
X20542500Y-44132500D01*
X20542500Y-44132500D02*
X24287500Y-44132500D01*
X26257500Y-75247500D02*
X26257500Y-77692500D01*
X28892500Y-80327500D02*
X36512500Y-80327500D01*
X26257500Y-77692500D02*
X28892500Y-80327500D01*
X25082500Y-69057500D02*
X25082500Y-74072500D01*
X25082500Y-74072500D02*
X26257500Y-75247500D01*
D53*
X133350000Y-157480000D02*
X133350000Y-167005000D01*
X133350000Y-167005000D02*
X147955000Y-181610000D01*
X147955000Y-181610000D02*
X154940000Y-181610000D01*
X154940000Y-181610000D02*
X157480000Y-184150000D01*
X157480000Y-184150000D02*
X157480000Y-185039000D01*
X141605000Y-201295000D02*
X141605000Y-205740000D01*
X132080000Y-157480000D02*
X132080000Y-167005000D01*
X132080000Y-167005000D02*
X141605000Y-176530000D01*
X141605000Y-176530000D02*
X141605000Y-201295000D01*
X154940000Y-214630000D02*
X157480000Y-217170000D01*
X150495000Y-214630000D02*
X154940000Y-214630000D01*
X141605000Y-205740000D02*
X150495000Y-214630000D01*
X157480000Y-217170000D02*
X157480000Y-218059000D01*
X88900000Y-171450000D02*
X90170000Y-172720000D01*
X90170000Y-172720000D02*
X90170000Y-189865000D01*
X90170000Y-189865000D02*
X87630000Y-192405000D01*
X87630000Y-192405000D02*
X87630000Y-204470000D01*
D47*
X133350000Y-40005000D02*
X130810000Y-40005000D01*
X120650000Y-31115000D02*
X120650000Y-29845000D01*
X121920000Y-32385000D02*
X120650000Y-31115000D01*
X127000000Y-32385000D02*
X121920000Y-32385000D01*
X128905000Y-34290000D02*
X127000000Y-32385000D01*
X128905000Y-38100000D02*
X128905000Y-34290000D01*
X130810000Y-40005000D02*
X128905000Y-38100000D01*
X120650000Y-42545000D02*
X120650000Y-44450000D01*
X130175000Y-42545000D02*
X133350000Y-42545000D01*
X127000000Y-45720000D02*
X130175000Y-42545000D01*
X121920000Y-45720000D02*
X127000000Y-45720000D01*
X120650000Y-44450000D02*
X121920000Y-45720000D01*
D48*
X78105000Y-126460000D02*
X79375000Y-127730000D01*
X79375000Y-127730000D02*
X79375000Y-131900000D01*
D50*
X68580000Y-125730000D02*
X69310000Y-126460000D01*
X69310000Y-126460000D02*
X78105000Y-126460000D01*
X60325000Y-137055000D02*
X65510000Y-137055000D01*
X68580000Y-133985000D02*
X68580000Y-125730000D01*
X65510000Y-137055000D02*
X68580000Y-133985000D01*
D47*
X59690000Y-154400000D02*
X62960000Y-154400000D01*
X64770000Y-156210000D02*
X68400000Y-156210000D01*
X62960000Y-154400000D02*
X64770000Y-156210000D01*
D51*
X38100000Y-153035000D02*
X38100000Y-159915000D01*
X38100000Y-159915000D02*
X36725000Y-161290000D01*
X59690000Y-154400000D02*
X59785000Y-154305000D01*
X38100000Y-153035000D02*
X39465000Y-154400000D01*
X39465000Y-154400000D02*
X59690000Y-154400000D01*
D49*
X23572500Y-125102500D02*
X23572500Y-125172500D01*
X23572500Y-125172500D02*
X31432500Y-133032500D01*
X31432500Y-133032500D02*
X35115500Y-133032500D01*
X23177500Y-110172500D02*
X35115500Y-110172500D01*
X18972500Y-114377500D02*
X23177500Y-110172500D01*
X18972500Y-118102500D02*
X18972500Y-114377500D01*
D51*
X127635000Y-204470000D02*
X127635000Y-200025000D01*
D47*
X128585000Y-199075000D02*
X132350000Y-199075000D01*
D51*
X127635000Y-200025000D02*
X128585000Y-199075000D01*
X117370000Y-204470000D02*
X123190000Y-204470000D01*
D49*
X23572500Y-121602500D02*
X35115500Y-121602500D01*
D48*
X130715000Y-208280000D02*
X130715000Y-203740000D01*
X131130000Y-200975000D02*
X132350000Y-200975000D01*
X130175000Y-201930000D02*
X131130000Y-200975000D01*
X130175000Y-203200000D02*
X130175000Y-201930000D01*
X130715000Y-203740000D02*
X130175000Y-203200000D01*
D47*
X125730000Y-207645000D02*
X126365000Y-208280000D01*
X125730000Y-198120000D02*
X126365000Y-197485000D01*
X126365000Y-194310000D02*
X126365000Y-197485000D01*
X125730000Y-207645000D02*
X125730000Y-198120000D01*
X126365000Y-208280000D02*
X130715000Y-208280000D01*
D46*
X40325000Y-43260000D02*
X35640000Y-43260000D01*
X35242500Y-42862500D02*
X29687500Y-42862500D01*
X35640000Y-43260000D02*
X35242500Y-42862500D01*
X46355000Y-41910000D02*
X41275000Y-41910000D01*
X41275000Y-41910000D02*
X40325000Y-42860000D01*
X40325000Y-42860000D02*
X40325000Y-43260000D01*
X48800000Y-41910000D02*
X46355000Y-41910000D01*
X45005000Y-40560000D02*
X42225000Y-40560000D01*
X46355000Y-41910000D02*
X45005000Y-40560000D01*
X17782500Y-23892500D02*
X17462500Y-24212500D01*
X17462500Y-24212500D02*
X17462500Y-30637500D01*
D48*
X24987500Y-22542500D02*
X19621500Y-22542500D01*
X19682500Y-21192500D02*
X19621500Y-21253500D01*
X19621500Y-21253500D02*
X19621500Y-22542500D01*
X19621500Y-22542500D02*
X17716500Y-22542500D01*
X17716500Y-22542500D02*
X17716500Y-23826500D01*
X17716500Y-23826500D02*
X17782500Y-23892500D01*
X17782500Y-23892500D02*
X17782500Y-23492500D01*
D46*
X24287500Y-42862500D02*
X25717500Y-42862500D01*
X24352500Y-48672500D02*
X24352500Y-50482500D01*
X26352500Y-46672500D02*
X24352500Y-48672500D01*
X26352500Y-43497500D02*
X26352500Y-46672500D01*
X25717500Y-42862500D02*
X26352500Y-43497500D01*
X24352500Y-50482500D02*
X19272500Y-50482500D01*
X19272500Y-50482500D02*
X18732500Y-49942500D01*
X36215000Y-46810000D02*
X30300000Y-46810000D01*
X29687500Y-46197500D02*
X29687500Y-45402500D01*
X30300000Y-46810000D02*
X29687500Y-46197500D01*
X29687500Y-44132500D02*
X29687500Y-45402500D01*
X45405000Y-34370000D02*
X43895000Y-34370000D01*
X40545000Y-31020000D02*
X39370000Y-31020000D01*
X43895000Y-34370000D02*
X40545000Y-31020000D01*
X50165000Y-33020000D02*
X46355000Y-33020000D01*
X46355000Y-33020000D02*
X45405000Y-33970000D01*
X45405000Y-33970000D02*
X45405000Y-34370000D01*
X53880000Y-33020000D02*
X50165000Y-33020000D01*
X48815000Y-31670000D02*
X47305000Y-31670000D01*
X50165000Y-33020000D02*
X48815000Y-31670000D01*
X30935000Y-33655000D02*
X29210000Y-33655000D01*
X27210000Y-35655000D02*
X26035000Y-35655000D01*
X29210000Y-33655000D02*
X27210000Y-35655000D01*
X16510000Y-34290000D02*
X22987000Y-34290000D01*
X16192500Y-34607500D02*
X16510000Y-34290000D01*
X16192500Y-36037500D02*
X16192500Y-34607500D01*
X24352000Y-35655000D02*
X26035000Y-35655000D01*
X22987000Y-34290000D02*
X24352000Y-35655000D01*
X40960000Y-58500000D02*
X40960000Y-61915000D01*
X50705000Y-62960000D02*
X50705000Y-61595000D01*
X50165000Y-63500000D02*
X50705000Y-62960000D01*
X48260000Y-63500000D02*
X50165000Y-63500000D01*
X42545000Y-63500000D02*
X48260000Y-63500000D01*
X40960000Y-61915000D02*
X42545000Y-63500000D01*
X40960000Y-58500000D02*
X40960000Y-58100000D01*
X50705000Y-61595000D02*
X48895000Y-61595000D01*
X48895000Y-61595000D02*
X46355000Y-59055000D01*
X46355000Y-59055000D02*
X46355000Y-57150000D01*
X46355000Y-57150000D02*
X45005000Y-55800000D01*
X45005000Y-55800000D02*
X42860000Y-55800000D01*
X40960000Y-58500000D02*
X39290000Y-58500000D01*
X39290000Y-58500000D02*
X38005000Y-59785000D01*
X38005000Y-59785000D02*
X35560000Y-59785000D01*
X42860000Y-55800000D02*
X42940000Y-55880000D01*
D48*
X27125000Y-57785000D02*
X27125000Y-59235000D01*
X23812500Y-62547500D02*
X23812500Y-63657500D01*
X27125000Y-59235000D02*
X23812500Y-62547500D01*
D46*
X27125000Y-57785000D02*
X24765000Y-57785000D01*
X24130000Y-57150000D02*
X21050000Y-57150000D01*
X24765000Y-57785000D02*
X24130000Y-57150000D01*
X32702500Y-68357500D02*
X32702500Y-72802500D01*
X32702500Y-72802500D02*
X30257500Y-75247500D01*
X23812500Y-69057500D02*
X23812500Y-67627500D01*
X30892500Y-68357500D02*
X32702500Y-68357500D01*
X28892500Y-66357500D02*
X30892500Y-68357500D01*
X25082500Y-66357500D02*
X28892500Y-66357500D01*
X23812500Y-67627500D02*
X25082500Y-66357500D01*
X32702500Y-64357500D02*
X32002500Y-63657500D01*
X32002500Y-63657500D02*
X26352500Y-63657500D01*
X25082500Y-63657500D02*
X26352500Y-63657500D01*
X96520000Y-40005000D02*
X98425000Y-40005000D01*
X103505000Y-34925000D02*
X107950000Y-34925000D01*
X98425000Y-40005000D02*
X103505000Y-34925000D01*
X88900000Y-34925000D02*
X93345000Y-34925000D01*
X96520000Y-38100000D02*
X96520000Y-40005000D01*
X93345000Y-34925000D02*
X96520000Y-38100000D01*
D53*
X56134000Y-215849200D02*
X56134000Y-204321000D01*
X56134000Y-204321000D02*
X56620000Y-203835000D01*
X56134000Y-182829200D02*
X56134000Y-171301000D01*
X56134000Y-171301000D02*
X56620000Y-170815000D01*
X183896000Y-180390800D02*
X183896000Y-191919000D01*
X183896000Y-191919000D02*
X183410000Y-192405000D01*
X183896000Y-213410800D02*
X183896000Y-224939000D01*
X183896000Y-224939000D02*
X183410000Y-225425000D01*
D46*
X111760000Y-32385000D02*
X114300000Y-32385000D01*
X111760000Y-32385000D02*
X86995000Y-32385000D01*
X86995000Y-32385000D02*
X77470000Y-41910000D01*
X77470000Y-47625000D02*
X77470000Y-41910000D01*
X123190000Y-41275000D02*
X123190000Y-42545000D01*
X120650000Y-38735000D02*
X123190000Y-41275000D01*
X120650000Y-38735000D02*
X120650000Y-38735000D01*
X114300000Y-32385000D02*
X120650000Y-38735000D01*
X113030000Y-19685000D02*
X116205000Y-22860000D01*
X81280000Y-19685000D02*
X113030000Y-19685000D01*
X77470000Y-23495000D02*
X81280000Y-19685000D01*
X77470000Y-26035000D02*
X77470000Y-23495000D01*
X123190000Y-27940000D02*
X123190000Y-29845000D01*
X121920000Y-26670000D02*
X123190000Y-27940000D01*
X118110000Y-26670000D02*
X121920000Y-26670000D01*
X116205000Y-24765000D02*
X118110000Y-26670000D01*
X116205000Y-22860000D02*
X116205000Y-24765000D01*
D53*
X51990000Y-190500000D02*
X48895000Y-190500000D01*
X48234600Y-217144600D02*
X50546000Y-217144600D01*
X43180000Y-212090000D02*
X48234600Y-217144600D01*
X43180000Y-196215000D02*
X43180000Y-212090000D01*
X48895000Y-190500000D02*
X43180000Y-196215000D01*
X51990000Y-190500000D02*
X51990000Y-186610000D01*
X51460400Y-186080400D02*
X50546000Y-186080400D01*
X51990000Y-186610000D02*
X51460400Y-186080400D01*
D48*
X76200000Y-189135000D02*
X76200000Y-187325000D01*
X80244000Y-183281000D02*
X86250000Y-183281000D01*
X76200000Y-187325000D02*
X80244000Y-183281000D01*
D53*
X56134000Y-184124600D02*
X59664600Y-184124600D01*
X60274200Y-183515000D02*
X60325000Y-183515000D01*
X59664600Y-184124600D02*
X60274200Y-183515000D01*
D48*
X76200000Y-222155000D02*
X76200000Y-219075000D01*
X78974000Y-216301000D02*
X86250000Y-216301000D01*
X76200000Y-219075000D02*
X78974000Y-216301000D01*
D53*
X56134000Y-217144600D02*
X60299600Y-217144600D01*
X60909200Y-216535000D02*
X60960000Y-216535000D01*
X60299600Y-217144600D02*
X60909200Y-216535000D01*
X188040000Y-205740000D02*
X188040000Y-209630000D01*
X188569600Y-210159600D02*
X189484000Y-210159600D01*
X188040000Y-209630000D02*
X188569600Y-210159600D01*
X189484000Y-179095400D02*
X192430400Y-179095400D01*
X191135000Y-205740000D02*
X193675000Y-203200000D01*
X191135000Y-205740000D02*
X188040000Y-205740000D01*
X196850000Y-200025000D02*
X193675000Y-203200000D01*
X196850000Y-183515000D02*
X196850000Y-200025000D01*
X192430400Y-179095400D02*
X196850000Y-183515000D01*
D47*
X161634000Y-174085000D02*
X160655000Y-175064000D01*
X163830000Y-174085000D02*
X161634000Y-174085000D01*
X159581000Y-178239000D02*
X157480000Y-178239000D01*
X160655000Y-177165000D02*
X159581000Y-178239000D01*
X160655000Y-175064000D02*
X160655000Y-177165000D01*
D53*
X180975000Y-178435000D02*
X180340000Y-177800000D01*
X183896000Y-178435000D02*
X180975000Y-178435000D01*
D47*
X163830000Y-207105000D02*
X161830000Y-207105000D01*
X159581000Y-211259000D02*
X157480000Y-211259000D01*
X160655000Y-210185000D02*
X159581000Y-211259000D01*
X160655000Y-208280000D02*
X160655000Y-210185000D01*
X161830000Y-207105000D02*
X160655000Y-208280000D01*
D53*
X180340000Y-211455000D02*
X179705000Y-210820000D01*
X183896000Y-211455000D02*
X180340000Y-211455000D01*
D46*
X100330000Y-22225000D02*
X100330000Y-26670000D01*
X98425000Y-28575000D02*
X95210000Y-28575000D01*
X100330000Y-26670000D02*
X98425000Y-28575000D01*
X107950000Y-22225000D02*
X100330000Y-22225000D01*
D53*
X134620000Y-59690000D02*
X133350000Y-58420000D01*
X134620000Y-62230000D02*
X134620000Y-59690000D01*
X135255000Y-62865000D02*
X134620000Y-62230000D01*
X135255000Y-69850000D02*
X135255000Y-62865000D01*
D46*
X37465000Y-49710000D02*
X33475000Y-49710000D01*
X32702500Y-50482500D02*
X28352500Y-50482500D01*
X33475000Y-49710000D02*
X32702500Y-50482500D01*
X33835000Y-34905000D02*
X39255000Y-34905000D01*
X39255000Y-34905000D02*
X39370000Y-35020000D01*
X30025000Y-56535000D02*
X31730000Y-56535000D01*
X32480000Y-55785000D02*
X35560000Y-55785000D01*
X31730000Y-56535000D02*
X32480000Y-55785000D01*
D53*
G36*
X86242769Y-99362846D02*
X86271009Y-99404607D01*
X86313272Y-99432091D01*
X86360000Y-99441000D01*
X89388766Y-99441000D01*
X89169296Y-99660087D01*
X88989106Y-100094034D01*
X88988696Y-100563905D01*
X89168128Y-100998165D01*
X89500087Y-101330704D01*
X89934034Y-101510894D01*
X90403905Y-101511304D01*
X90838165Y-101331872D01*
X91170704Y-100999913D01*
X91350894Y-100565966D01*
X91351304Y-100096095D01*
X91171872Y-99661835D01*
X90951422Y-99441000D01*
X93853000Y-99441000D01*
X93853000Y-103759000D01*
X90951234Y-103759000D01*
X91170704Y-103539913D01*
X91350894Y-103105966D01*
X91351304Y-102636095D01*
X91171872Y-102201835D01*
X90839913Y-101869296D01*
X90405966Y-101689106D01*
X89936095Y-101688696D01*
X89501835Y-101868128D01*
X89169296Y-102200087D01*
X88989106Y-102634034D01*
X88988696Y-103103905D01*
X89168128Y-103538165D01*
X89388578Y-103759000D01*
X88944548Y-103759000D01*
X84534336Y-100230830D01*
X84489503Y-100207777D01*
X84455000Y-100203000D01*
X82677000Y-100203000D01*
X82677000Y-97917000D01*
X85640333Y-97917000D01*
X86242769Y-99362846D01*
X86242769Y-99362846D01*
G37*
X86242769Y-99362846D02*
X86271009Y-99404607D01*
X86313272Y-99432091D01*
X86360000Y-99441000D01*
X89388766Y-99441000D01*
X89169296Y-99660087D01*
X88989106Y-100094034D01*
X88988696Y-100563905D01*
X89168128Y-100998165D01*
X89500087Y-101330704D01*
X89934034Y-101510894D01*
X90403905Y-101511304D01*
X90838165Y-101331872D01*
X91170704Y-100999913D01*
X91350894Y-100565966D01*
X91351304Y-100096095D01*
X91171872Y-99661835D01*
X90951422Y-99441000D01*
X93853000Y-99441000D01*
X93853000Y-103759000D01*
X90951234Y-103759000D01*
X91170704Y-103539913D01*
X91350894Y-103105966D01*
X91351304Y-102636095D01*
X91171872Y-102201835D01*
X90839913Y-101869296D01*
X90405966Y-101689106D01*
X89936095Y-101688696D01*
X89501835Y-101868128D01*
X89169296Y-102200087D01*
X88989106Y-102634034D01*
X88988696Y-103103905D01*
X89168128Y-103538165D01*
X89388578Y-103759000D01*
X88944548Y-103759000D01*
X84534336Y-100230830D01*
X84489503Y-100207777D01*
X84455000Y-100203000D01*
X82677000Y-100203000D01*
X82677000Y-97917000D01*
X85640333Y-97917000D01*
X86242769Y-99362846D01*
G36*
X89169296Y-104740087D02*
X88989106Y-105174034D01*
X88988696Y-105643905D01*
X89168128Y-106078165D01*
X89500087Y-106410704D01*
X89934034Y-106590894D01*
X90403905Y-106591304D01*
X90838165Y-106411872D01*
X91170704Y-106079913D01*
X91350894Y-105645966D01*
X91351304Y-105176095D01*
X91171872Y-104741835D01*
X90951422Y-104521000D01*
X93853000Y-104521000D01*
X93853000Y-108839000D01*
X90951234Y-108839000D01*
X91170704Y-108619913D01*
X91350894Y-108185966D01*
X91351304Y-107716095D01*
X91171872Y-107281835D01*
X90839913Y-106949296D01*
X90405966Y-106769106D01*
X89936095Y-106768696D01*
X89501835Y-106948128D01*
X89169296Y-107280087D01*
X88989106Y-107714034D01*
X88988696Y-108183905D01*
X89168128Y-108618165D01*
X89388578Y-108839000D01*
X88900000Y-108839000D01*
X88850590Y-108849006D01*
X88808454Y-108877975D01*
X82495930Y-115443000D01*
X80391000Y-115443000D01*
X80391000Y-113082606D01*
X88952606Y-104521000D01*
X89388766Y-104521000D01*
X89169296Y-104740087D01*
X89169296Y-104740087D01*
G37*
X89169296Y-104740087D02*
X88989106Y-105174034D01*
X88988696Y-105643905D01*
X89168128Y-106078165D01*
X89500087Y-106410704D01*
X89934034Y-106590894D01*
X90403905Y-106591304D01*
X90838165Y-106411872D01*
X91170704Y-106079913D01*
X91350894Y-105645966D01*
X91351304Y-105176095D01*
X91171872Y-104741835D01*
X90951422Y-104521000D01*
X93853000Y-104521000D01*
X93853000Y-108839000D01*
X90951234Y-108839000D01*
X91170704Y-108619913D01*
X91350894Y-108185966D01*
X91351304Y-107716095D01*
X91171872Y-107281835D01*
X90839913Y-106949296D01*
X90405966Y-106769106D01*
X89936095Y-106768696D01*
X89501835Y-106948128D01*
X89169296Y-107280087D01*
X88989106Y-107714034D01*
X88988696Y-108183905D01*
X89168128Y-108618165D01*
X89388578Y-108839000D01*
X88900000Y-108839000D01*
X88850590Y-108849006D01*
X88808454Y-108877975D01*
X82495930Y-115443000D01*
X80391000Y-115443000D01*
X80391000Y-113082606D01*
X88952606Y-104521000D01*
X89388766Y-104521000D01*
X89169296Y-104740087D01*
M02*
