G04 #@! TF.FileFunction,Legend,Top*
%FSLAX46Y46*%
G04 Gerber Fmt 4.6, Leading zero omitted, Abs format (unit mm)*
G04 Created by KiCad (PCBNEW 4.0.6) date 07/21/17 01:23:24*
%MOMM*%
%LPD*%
G01*
G04 APERTURE LIST*
%ADD10C,0.100000*%
%ADD11C,0.300000*%
%ADD12C,1.270000*%
%ADD13C,0.200000*%
%ADD14C,0.381000*%
%ADD15C,0.120000*%
%ADD16C,0.150000*%
G04 APERTURE END LIST*
D10*
D11*
X14962143Y-215288571D02*
X14962143Y-213788571D01*
X15319286Y-213788571D01*
X15533571Y-213860000D01*
X15676429Y-214002857D01*
X15747857Y-214145714D01*
X15819286Y-214431429D01*
X15819286Y-214645714D01*
X15747857Y-214931429D01*
X15676429Y-215074286D01*
X15533571Y-215217143D01*
X15319286Y-215288571D01*
X14962143Y-215288571D01*
X17033571Y-215217143D02*
X16890714Y-215288571D01*
X16605000Y-215288571D01*
X16462143Y-215217143D01*
X16390714Y-215074286D01*
X16390714Y-214502857D01*
X16462143Y-214360000D01*
X16605000Y-214288571D01*
X16890714Y-214288571D01*
X17033571Y-214360000D01*
X17105000Y-214502857D01*
X17105000Y-214645714D01*
X16390714Y-214788571D01*
X17676428Y-215217143D02*
X17819285Y-215288571D01*
X18105000Y-215288571D01*
X18247857Y-215217143D01*
X18319285Y-215074286D01*
X18319285Y-215002857D01*
X18247857Y-214860000D01*
X18105000Y-214788571D01*
X17890714Y-214788571D01*
X17747857Y-214717143D01*
X17676428Y-214574286D01*
X17676428Y-214502857D01*
X17747857Y-214360000D01*
X17890714Y-214288571D01*
X18105000Y-214288571D01*
X18247857Y-214360000D01*
X18962143Y-215288571D02*
X18962143Y-214288571D01*
X18962143Y-213788571D02*
X18890714Y-213860000D01*
X18962143Y-213931429D01*
X19033571Y-213860000D01*
X18962143Y-213788571D01*
X18962143Y-213931429D01*
X20319286Y-214288571D02*
X20319286Y-215502857D01*
X20247857Y-215645714D01*
X20176429Y-215717143D01*
X20033572Y-215788571D01*
X19819286Y-215788571D01*
X19676429Y-215717143D01*
X20319286Y-215217143D02*
X20176429Y-215288571D01*
X19890715Y-215288571D01*
X19747857Y-215217143D01*
X19676429Y-215145714D01*
X19605000Y-215002857D01*
X19605000Y-214574286D01*
X19676429Y-214431429D01*
X19747857Y-214360000D01*
X19890715Y-214288571D01*
X20176429Y-214288571D01*
X20319286Y-214360000D01*
X21033572Y-214288571D02*
X21033572Y-215288571D01*
X21033572Y-214431429D02*
X21105000Y-214360000D01*
X21247858Y-214288571D01*
X21462143Y-214288571D01*
X21605000Y-214360000D01*
X21676429Y-214502857D01*
X21676429Y-215288571D01*
X22962143Y-215217143D02*
X22819286Y-215288571D01*
X22533572Y-215288571D01*
X22390715Y-215217143D01*
X22319286Y-215074286D01*
X22319286Y-214502857D01*
X22390715Y-214360000D01*
X22533572Y-214288571D01*
X22819286Y-214288571D01*
X22962143Y-214360000D01*
X23033572Y-214502857D01*
X23033572Y-214645714D01*
X22319286Y-214788571D01*
X24319286Y-215288571D02*
X24319286Y-213788571D01*
X24319286Y-215217143D02*
X24176429Y-215288571D01*
X23890715Y-215288571D01*
X23747857Y-215217143D01*
X23676429Y-215145714D01*
X23605000Y-215002857D01*
X23605000Y-214574286D01*
X23676429Y-214431429D01*
X23747857Y-214360000D01*
X23890715Y-214288571D01*
X24176429Y-214288571D01*
X24319286Y-214360000D01*
X26176429Y-215288571D02*
X26176429Y-213788571D01*
X26176429Y-214360000D02*
X26319286Y-214288571D01*
X26605000Y-214288571D01*
X26747857Y-214360000D01*
X26819286Y-214431429D01*
X26890715Y-214574286D01*
X26890715Y-215002857D01*
X26819286Y-215145714D01*
X26747857Y-215217143D01*
X26605000Y-215288571D01*
X26319286Y-215288571D01*
X26176429Y-215217143D01*
X27390715Y-214288571D02*
X27747858Y-215288571D01*
X28105000Y-214288571D02*
X27747858Y-215288571D01*
X27605000Y-215645714D01*
X27533572Y-215717143D01*
X27390715Y-215788571D01*
X28676429Y-215145714D02*
X28747857Y-215217143D01*
X28676429Y-215288571D01*
X28605000Y-215217143D01*
X28676429Y-215145714D01*
X28676429Y-215288571D01*
X28676429Y-214360000D02*
X28747857Y-214431429D01*
X28676429Y-214502857D01*
X28605000Y-214431429D01*
X28676429Y-214360000D01*
X28676429Y-214502857D01*
X14890714Y-217410000D02*
X15605000Y-217410000D01*
X14747857Y-217838571D02*
X15247857Y-216338571D01*
X15747857Y-217838571D01*
X16247857Y-216838571D02*
X16247857Y-217838571D01*
X16247857Y-216981429D02*
X16319285Y-216910000D01*
X16462143Y-216838571D01*
X16676428Y-216838571D01*
X16819285Y-216910000D01*
X16890714Y-217052857D01*
X16890714Y-217838571D01*
X18247857Y-217838571D02*
X18247857Y-216338571D01*
X18247857Y-217767143D02*
X18105000Y-217838571D01*
X17819286Y-217838571D01*
X17676428Y-217767143D01*
X17605000Y-217695714D01*
X17533571Y-217552857D01*
X17533571Y-217124286D01*
X17605000Y-216981429D01*
X17676428Y-216910000D01*
X17819286Y-216838571D01*
X18105000Y-216838571D01*
X18247857Y-216910000D01*
X18962143Y-217838571D02*
X18962143Y-216838571D01*
X18962143Y-217124286D02*
X19033571Y-216981429D01*
X19105000Y-216910000D01*
X19247857Y-216838571D01*
X19390714Y-216838571D01*
X20462142Y-217767143D02*
X20319285Y-217838571D01*
X20033571Y-217838571D01*
X19890714Y-217767143D01*
X19819285Y-217624286D01*
X19819285Y-217052857D01*
X19890714Y-216910000D01*
X20033571Y-216838571D01*
X20319285Y-216838571D01*
X20462142Y-216910000D01*
X20533571Y-217052857D01*
X20533571Y-217195714D01*
X19819285Y-217338571D01*
X21033571Y-216838571D02*
X21319285Y-217838571D01*
X21604999Y-217124286D01*
X21890714Y-217838571D01*
X22176428Y-216838571D01*
X23819285Y-217767143D02*
X24033571Y-217838571D01*
X24390714Y-217838571D01*
X24533571Y-217767143D01*
X24605000Y-217695714D01*
X24676428Y-217552857D01*
X24676428Y-217410000D01*
X24605000Y-217267143D01*
X24533571Y-217195714D01*
X24390714Y-217124286D01*
X24105000Y-217052857D01*
X23962142Y-216981429D01*
X23890714Y-216910000D01*
X23819285Y-216767143D01*
X23819285Y-216624286D01*
X23890714Y-216481429D01*
X23962142Y-216410000D01*
X24105000Y-216338571D01*
X24462142Y-216338571D01*
X24676428Y-216410000D01*
X25533571Y-217838571D02*
X25390713Y-217767143D01*
X25319285Y-217695714D01*
X25247856Y-217552857D01*
X25247856Y-217124286D01*
X25319285Y-216981429D01*
X25390713Y-216910000D01*
X25533571Y-216838571D01*
X25747856Y-216838571D01*
X25890713Y-216910000D01*
X25962142Y-216981429D01*
X26033571Y-217124286D01*
X26033571Y-217552857D01*
X25962142Y-217695714D01*
X25890713Y-217767143D01*
X25747856Y-217838571D01*
X25533571Y-217838571D01*
X26604999Y-217767143D02*
X26747856Y-217838571D01*
X27033571Y-217838571D01*
X27176428Y-217767143D01*
X27247856Y-217624286D01*
X27247856Y-217552857D01*
X27176428Y-217410000D01*
X27033571Y-217338571D01*
X26819285Y-217338571D01*
X26676428Y-217267143D01*
X26604999Y-217124286D01*
X26604999Y-217052857D01*
X26676428Y-216910000D01*
X26819285Y-216838571D01*
X27033571Y-216838571D01*
X27176428Y-216910000D01*
X27890714Y-217838571D02*
X27890714Y-216338571D01*
X28533571Y-217838571D02*
X28533571Y-217052857D01*
X28462142Y-216910000D01*
X28319285Y-216838571D01*
X28105000Y-216838571D01*
X27962142Y-216910000D01*
X27890714Y-216981429D01*
X29819285Y-217767143D02*
X29676428Y-217838571D01*
X29390714Y-217838571D01*
X29247857Y-217767143D01*
X29176428Y-217624286D01*
X29176428Y-217052857D01*
X29247857Y-216910000D01*
X29390714Y-216838571D01*
X29676428Y-216838571D01*
X29819285Y-216910000D01*
X29890714Y-217052857D01*
X29890714Y-217195714D01*
X29176428Y-217338571D01*
X31176428Y-217838571D02*
X31176428Y-217052857D01*
X31104999Y-216910000D01*
X30962142Y-216838571D01*
X30676428Y-216838571D01*
X30533571Y-216910000D01*
X31176428Y-217767143D02*
X31033571Y-217838571D01*
X30676428Y-217838571D01*
X30533571Y-217767143D01*
X30462142Y-217624286D01*
X30462142Y-217481429D01*
X30533571Y-217338571D01*
X30676428Y-217267143D01*
X31033571Y-217267143D01*
X31176428Y-217195714D01*
X15747857Y-218960000D02*
X15605000Y-218888571D01*
X15390714Y-218888571D01*
X15176429Y-218960000D01*
X15033571Y-219102857D01*
X14962143Y-219245714D01*
X14890714Y-219531429D01*
X14890714Y-219745714D01*
X14962143Y-220031429D01*
X15033571Y-220174286D01*
X15176429Y-220317143D01*
X15390714Y-220388571D01*
X15533571Y-220388571D01*
X15747857Y-220317143D01*
X15819286Y-220245714D01*
X15819286Y-219745714D01*
X15533571Y-219745714D01*
X16462143Y-220388571D02*
X16462143Y-219388571D01*
X16462143Y-219674286D02*
X16533571Y-219531429D01*
X16605000Y-219460000D01*
X16747857Y-219388571D01*
X16890714Y-219388571D01*
X17962142Y-220317143D02*
X17819285Y-220388571D01*
X17533571Y-220388571D01*
X17390714Y-220317143D01*
X17319285Y-220174286D01*
X17319285Y-219602857D01*
X17390714Y-219460000D01*
X17533571Y-219388571D01*
X17819285Y-219388571D01*
X17962142Y-219460000D01*
X18033571Y-219602857D01*
X18033571Y-219745714D01*
X17319285Y-219888571D01*
X19319285Y-219388571D02*
X19319285Y-220602857D01*
X19247856Y-220745714D01*
X19176428Y-220817143D01*
X19033571Y-220888571D01*
X18819285Y-220888571D01*
X18676428Y-220817143D01*
X19319285Y-220317143D02*
X19176428Y-220388571D01*
X18890714Y-220388571D01*
X18747856Y-220317143D01*
X18676428Y-220245714D01*
X18604999Y-220102857D01*
X18604999Y-219674286D01*
X18676428Y-219531429D01*
X18747856Y-219460000D01*
X18890714Y-219388571D01*
X19176428Y-219388571D01*
X19319285Y-219460000D01*
X20247857Y-220388571D02*
X20104999Y-220317143D01*
X20033571Y-220245714D01*
X19962142Y-220102857D01*
X19962142Y-219674286D01*
X20033571Y-219531429D01*
X20104999Y-219460000D01*
X20247857Y-219388571D01*
X20462142Y-219388571D01*
X20604999Y-219460000D01*
X20676428Y-219531429D01*
X20747857Y-219674286D01*
X20747857Y-220102857D01*
X20676428Y-220245714D01*
X20604999Y-220317143D01*
X20462142Y-220388571D01*
X20247857Y-220388571D01*
X21390714Y-220388571D02*
X21390714Y-219388571D01*
X21390714Y-219674286D02*
X21462142Y-219531429D01*
X21533571Y-219460000D01*
X21676428Y-219388571D01*
X21819285Y-219388571D01*
X22176428Y-219388571D02*
X22533571Y-220388571D01*
X22890713Y-219388571D02*
X22533571Y-220388571D01*
X22390713Y-220745714D01*
X22319285Y-220817143D01*
X22176428Y-220888571D01*
X24533570Y-219960000D02*
X25247856Y-219960000D01*
X24390713Y-220388571D02*
X24890713Y-218888571D01*
X25390713Y-220388571D01*
X25819284Y-220317143D02*
X25962141Y-220388571D01*
X26247856Y-220388571D01*
X26390713Y-220317143D01*
X26462141Y-220174286D01*
X26462141Y-220102857D01*
X26390713Y-219960000D01*
X26247856Y-219888571D01*
X26033570Y-219888571D01*
X25890713Y-219817143D01*
X25819284Y-219674286D01*
X25819284Y-219602857D01*
X25890713Y-219460000D01*
X26033570Y-219388571D01*
X26247856Y-219388571D01*
X26390713Y-219460000D01*
X27104999Y-220388571D02*
X27104999Y-218888571D01*
X27747856Y-220388571D02*
X27747856Y-219602857D01*
X27676427Y-219460000D01*
X27533570Y-219388571D01*
X27319285Y-219388571D01*
X27176427Y-219460000D01*
X27104999Y-219531429D01*
X29033570Y-220317143D02*
X28890713Y-220388571D01*
X28604999Y-220388571D01*
X28462142Y-220317143D01*
X28390713Y-220174286D01*
X28390713Y-219602857D01*
X28462142Y-219460000D01*
X28604999Y-219388571D01*
X28890713Y-219388571D01*
X29033570Y-219460000D01*
X29104999Y-219602857D01*
X29104999Y-219745714D01*
X28390713Y-219888571D01*
X29747856Y-220388571D02*
X29747856Y-219388571D01*
X29747856Y-219674286D02*
X29819284Y-219531429D01*
X29890713Y-219460000D01*
X30033570Y-219388571D01*
X30176427Y-219388571D01*
X15747857Y-221510000D02*
X15605000Y-221438571D01*
X15390714Y-221438571D01*
X15176429Y-221510000D01*
X15033571Y-221652857D01*
X14962143Y-221795714D01*
X14890714Y-222081429D01*
X14890714Y-222295714D01*
X14962143Y-222581429D01*
X15033571Y-222724286D01*
X15176429Y-222867143D01*
X15390714Y-222938571D01*
X15533571Y-222938571D01*
X15747857Y-222867143D01*
X15819286Y-222795714D01*
X15819286Y-222295714D01*
X15533571Y-222295714D01*
X16319286Y-221938571D02*
X16676429Y-222938571D01*
X17033571Y-221938571D02*
X16676429Y-222938571D01*
X16533571Y-223295714D01*
X16462143Y-223367143D01*
X16319286Y-223438571D01*
X17390714Y-221938571D02*
X17962143Y-221938571D01*
X17605000Y-221438571D02*
X17605000Y-222724286D01*
X17676428Y-222867143D01*
X17819286Y-222938571D01*
X17962143Y-222938571D01*
X19105000Y-222938571D02*
X19105000Y-222152857D01*
X19033571Y-222010000D01*
X18890714Y-221938571D01*
X18605000Y-221938571D01*
X18462143Y-222010000D01*
X19105000Y-222867143D02*
X18962143Y-222938571D01*
X18605000Y-222938571D01*
X18462143Y-222867143D01*
X18390714Y-222724286D01*
X18390714Y-222581429D01*
X18462143Y-222438571D01*
X18605000Y-222367143D01*
X18962143Y-222367143D01*
X19105000Y-222295714D01*
X20462143Y-221938571D02*
X20462143Y-222938571D01*
X19819286Y-221938571D02*
X19819286Y-222724286D01*
X19890714Y-222867143D01*
X20033572Y-222938571D01*
X20247857Y-222938571D01*
X20390714Y-222867143D01*
X20462143Y-222795714D01*
X20962143Y-221938571D02*
X21533572Y-221938571D01*
X21176429Y-221438571D02*
X21176429Y-222724286D01*
X21247857Y-222867143D01*
X21390715Y-222938571D01*
X21533572Y-222938571D01*
X22676429Y-222938571D02*
X22676429Y-222152857D01*
X22605000Y-222010000D01*
X22462143Y-221938571D01*
X22176429Y-221938571D01*
X22033572Y-222010000D01*
X22676429Y-222867143D02*
X22533572Y-222938571D01*
X22176429Y-222938571D01*
X22033572Y-222867143D01*
X21962143Y-222724286D01*
X21962143Y-222581429D01*
X22033572Y-222438571D01*
X22176429Y-222367143D01*
X22533572Y-222367143D01*
X22676429Y-222295714D01*
X23319286Y-222867143D02*
X23462143Y-222938571D01*
X23747858Y-222938571D01*
X23890715Y-222867143D01*
X23962143Y-222724286D01*
X23962143Y-222652857D01*
X23890715Y-222510000D01*
X23747858Y-222438571D01*
X23533572Y-222438571D01*
X23390715Y-222367143D01*
X23319286Y-222224286D01*
X23319286Y-222152857D01*
X23390715Y-222010000D01*
X23533572Y-221938571D01*
X23747858Y-221938571D01*
X23890715Y-222010000D01*
X26176429Y-221438571D02*
X26176429Y-222510000D01*
X26105001Y-222724286D01*
X25962144Y-222867143D01*
X25747858Y-222938571D01*
X25605001Y-222938571D01*
X27533572Y-222938571D02*
X27533572Y-222152857D01*
X27462143Y-222010000D01*
X27319286Y-221938571D01*
X27033572Y-221938571D01*
X26890715Y-222010000D01*
X27533572Y-222867143D02*
X27390715Y-222938571D01*
X27033572Y-222938571D01*
X26890715Y-222867143D01*
X26819286Y-222724286D01*
X26819286Y-222581429D01*
X26890715Y-222438571D01*
X27033572Y-222367143D01*
X27390715Y-222367143D01*
X27533572Y-222295714D01*
X28247858Y-221938571D02*
X28247858Y-222938571D01*
X28247858Y-222081429D02*
X28319286Y-222010000D01*
X28462144Y-221938571D01*
X28676429Y-221938571D01*
X28819286Y-222010000D01*
X28890715Y-222152857D01*
X28890715Y-222938571D01*
X29605001Y-222938571D02*
X29605001Y-221438571D01*
X29747858Y-222367143D02*
X30176429Y-222938571D01*
X30176429Y-221938571D02*
X29605001Y-222510000D01*
X31462144Y-222938571D02*
X31462144Y-222152857D01*
X31390715Y-222010000D01*
X31247858Y-221938571D01*
X30962144Y-221938571D01*
X30819287Y-222010000D01*
X31462144Y-222867143D02*
X31319287Y-222938571D01*
X30962144Y-222938571D01*
X30819287Y-222867143D01*
X30747858Y-222724286D01*
X30747858Y-222581429D01*
X30819287Y-222438571D01*
X30962144Y-222367143D01*
X31319287Y-222367143D01*
X31462144Y-222295714D01*
X32819287Y-221938571D02*
X32819287Y-222938571D01*
X32176430Y-221938571D02*
X32176430Y-222724286D01*
X32247858Y-222867143D01*
X32390716Y-222938571D01*
X32605001Y-222938571D01*
X32747858Y-222867143D01*
X32819287Y-222795714D01*
X33462144Y-222867143D02*
X33605001Y-222938571D01*
X33890716Y-222938571D01*
X34033573Y-222867143D01*
X34105001Y-222724286D01*
X34105001Y-222652857D01*
X34033573Y-222510000D01*
X33890716Y-222438571D01*
X33676430Y-222438571D01*
X33533573Y-222367143D01*
X33462144Y-222224286D01*
X33462144Y-222152857D01*
X33533573Y-222010000D01*
X33676430Y-221938571D01*
X33890716Y-221938571D01*
X34033573Y-222010000D01*
X34747859Y-222938571D02*
X34747859Y-221438571D01*
X34890716Y-222367143D02*
X35319287Y-222938571D01*
X35319287Y-221938571D02*
X34747859Y-222510000D01*
X36605002Y-222938571D02*
X36605002Y-222152857D01*
X36533573Y-222010000D01*
X36390716Y-221938571D01*
X36105002Y-221938571D01*
X35962145Y-222010000D01*
X36605002Y-222867143D02*
X36462145Y-222938571D01*
X36105002Y-222938571D01*
X35962145Y-222867143D01*
X35890716Y-222724286D01*
X35890716Y-222581429D01*
X35962145Y-222438571D01*
X36105002Y-222367143D01*
X36462145Y-222367143D01*
X36605002Y-222295714D01*
X37247859Y-222867143D02*
X37390716Y-222938571D01*
X37676431Y-222938571D01*
X37819288Y-222867143D01*
X37890716Y-222724286D01*
X37890716Y-222652857D01*
X37819288Y-222510000D01*
X37676431Y-222438571D01*
X37462145Y-222438571D01*
X37319288Y-222367143D01*
X37247859Y-222224286D01*
X37247859Y-222152857D01*
X37319288Y-222010000D01*
X37462145Y-221938571D01*
X37676431Y-221938571D01*
X37819288Y-222010000D01*
X14962143Y-225488571D02*
X14962143Y-223988571D01*
X15533571Y-223988571D01*
X15676429Y-224060000D01*
X15747857Y-224131429D01*
X15819286Y-224274286D01*
X15819286Y-224488571D01*
X15747857Y-224631429D01*
X15676429Y-224702857D01*
X15533571Y-224774286D01*
X14962143Y-224774286D01*
X17105000Y-225488571D02*
X17105000Y-224702857D01*
X17033571Y-224560000D01*
X16890714Y-224488571D01*
X16605000Y-224488571D01*
X16462143Y-224560000D01*
X17105000Y-225417143D02*
X16962143Y-225488571D01*
X16605000Y-225488571D01*
X16462143Y-225417143D01*
X16390714Y-225274286D01*
X16390714Y-225131429D01*
X16462143Y-224988571D01*
X16605000Y-224917143D01*
X16962143Y-224917143D01*
X17105000Y-224845714D01*
X18033572Y-225488571D02*
X17890714Y-225417143D01*
X17819286Y-225345714D01*
X17747857Y-225202857D01*
X17747857Y-224774286D01*
X17819286Y-224631429D01*
X17890714Y-224560000D01*
X18033572Y-224488571D01*
X18247857Y-224488571D01*
X18390714Y-224560000D01*
X18462143Y-224631429D01*
X18533572Y-224774286D01*
X18533572Y-225202857D01*
X18462143Y-225345714D01*
X18390714Y-225417143D01*
X18247857Y-225488571D01*
X18033572Y-225488571D01*
X19390715Y-225488571D02*
X19247857Y-225417143D01*
X19176429Y-225274286D01*
X19176429Y-223988571D01*
X20176429Y-225488571D02*
X20033571Y-225417143D01*
X19962143Y-225345714D01*
X19890714Y-225202857D01*
X19890714Y-224774286D01*
X19962143Y-224631429D01*
X20033571Y-224560000D01*
X20176429Y-224488571D01*
X20390714Y-224488571D01*
X20533571Y-224560000D01*
X20605000Y-224631429D01*
X20676429Y-224774286D01*
X20676429Y-225202857D01*
X20605000Y-225345714D01*
X20533571Y-225417143D01*
X20390714Y-225488571D01*
X20176429Y-225488571D01*
X22390714Y-225417143D02*
X22605000Y-225488571D01*
X22962143Y-225488571D01*
X23105000Y-225417143D01*
X23176429Y-225345714D01*
X23247857Y-225202857D01*
X23247857Y-225060000D01*
X23176429Y-224917143D01*
X23105000Y-224845714D01*
X22962143Y-224774286D01*
X22676429Y-224702857D01*
X22533571Y-224631429D01*
X22462143Y-224560000D01*
X22390714Y-224417143D01*
X22390714Y-224274286D01*
X22462143Y-224131429D01*
X22533571Y-224060000D01*
X22676429Y-223988571D01*
X23033571Y-223988571D01*
X23247857Y-224060000D01*
X24462142Y-225417143D02*
X24319285Y-225488571D01*
X24033571Y-225488571D01*
X23890714Y-225417143D01*
X23819285Y-225274286D01*
X23819285Y-224702857D01*
X23890714Y-224560000D01*
X24033571Y-224488571D01*
X24319285Y-224488571D01*
X24462142Y-224560000D01*
X24533571Y-224702857D01*
X24533571Y-224845714D01*
X23819285Y-224988571D01*
X25176428Y-225488571D02*
X25176428Y-223988571D01*
X25176428Y-224560000D02*
X25319285Y-224488571D01*
X25604999Y-224488571D01*
X25747856Y-224560000D01*
X25819285Y-224631429D01*
X25890714Y-224774286D01*
X25890714Y-225202857D01*
X25819285Y-225345714D01*
X25747856Y-225417143D01*
X25604999Y-225488571D01*
X25319285Y-225488571D01*
X25176428Y-225417143D01*
X27176428Y-225488571D02*
X27176428Y-224702857D01*
X27104999Y-224560000D01*
X26962142Y-224488571D01*
X26676428Y-224488571D01*
X26533571Y-224560000D01*
X27176428Y-225417143D02*
X27033571Y-225488571D01*
X26676428Y-225488571D01*
X26533571Y-225417143D01*
X26462142Y-225274286D01*
X26462142Y-225131429D01*
X26533571Y-224988571D01*
X26676428Y-224917143D01*
X27033571Y-224917143D01*
X27176428Y-224845714D01*
X27819285Y-225417143D02*
X27962142Y-225488571D01*
X28247857Y-225488571D01*
X28390714Y-225417143D01*
X28462142Y-225274286D01*
X28462142Y-225202857D01*
X28390714Y-225060000D01*
X28247857Y-224988571D01*
X28033571Y-224988571D01*
X27890714Y-224917143D01*
X27819285Y-224774286D01*
X27819285Y-224702857D01*
X27890714Y-224560000D01*
X28033571Y-224488571D01*
X28247857Y-224488571D01*
X28390714Y-224560000D01*
X28890714Y-224488571D02*
X29462143Y-224488571D01*
X29105000Y-223988571D02*
X29105000Y-225274286D01*
X29176428Y-225417143D01*
X29319286Y-225488571D01*
X29462143Y-225488571D01*
X29962143Y-225488571D02*
X29962143Y-224488571D01*
X29962143Y-223988571D02*
X29890714Y-224060000D01*
X29962143Y-224131429D01*
X30033571Y-224060000D01*
X29962143Y-223988571D01*
X29962143Y-224131429D01*
X31319286Y-225488571D02*
X31319286Y-224702857D01*
X31247857Y-224560000D01*
X31105000Y-224488571D01*
X30819286Y-224488571D01*
X30676429Y-224560000D01*
X31319286Y-225417143D02*
X31176429Y-225488571D01*
X30819286Y-225488571D01*
X30676429Y-225417143D01*
X30605000Y-225274286D01*
X30605000Y-225131429D01*
X30676429Y-224988571D01*
X30819286Y-224917143D01*
X31176429Y-224917143D01*
X31319286Y-224845714D01*
X32033572Y-224488571D02*
X32033572Y-225488571D01*
X32033572Y-224631429D02*
X32105000Y-224560000D01*
X32247858Y-224488571D01*
X32462143Y-224488571D01*
X32605000Y-224560000D01*
X32676429Y-224702857D01*
X32676429Y-225488571D01*
D12*
X191165238Y-155968095D02*
X201446190Y-155968095D01*
X202655714Y-155665714D01*
X203260476Y-155363333D01*
X203865238Y-154758571D01*
X203865238Y-153549048D01*
X203260476Y-152944286D01*
X202655714Y-152641905D01*
X201446190Y-152339524D01*
X191165238Y-152339524D01*
X191165238Y-149920476D02*
X203865238Y-148408571D01*
X194793810Y-147199048D01*
X203865238Y-145989524D01*
X191165238Y-144477619D01*
X197212857Y-139941905D02*
X197817619Y-139034762D01*
X198422381Y-138732381D01*
X199631905Y-138430000D01*
X201446190Y-138430000D01*
X202655714Y-138732381D01*
X203260476Y-139034762D01*
X203865238Y-139639524D01*
X203865238Y-142058571D01*
X191165238Y-142058571D01*
X191165238Y-139941905D01*
X191770000Y-139337143D01*
X192374762Y-139034762D01*
X193584286Y-138732381D01*
X194793810Y-138732381D01*
X196003333Y-139034762D01*
X196608095Y-139337143D01*
X197212857Y-139941905D01*
X197212857Y-142058571D01*
X203865238Y-122403810D02*
X197817619Y-124520476D01*
X203865238Y-126032381D02*
X191165238Y-126032381D01*
X191165238Y-123613334D01*
X191770000Y-123008572D01*
X192374762Y-122706191D01*
X193584286Y-122403810D01*
X195398571Y-122403810D01*
X196608095Y-122706191D01*
X197212857Y-123008572D01*
X197817619Y-123613334D01*
X197817619Y-126032381D01*
X197212857Y-119682381D02*
X197212857Y-117565715D01*
X203865238Y-116658572D02*
X203865238Y-119682381D01*
X191165238Y-119682381D01*
X191165238Y-116658572D01*
X203865238Y-113937143D02*
X191165238Y-113937143D01*
X200236667Y-111820477D01*
X191165238Y-109703810D01*
X203865238Y-109703810D01*
X191165238Y-105470476D02*
X191165238Y-104260953D01*
X191770000Y-103656191D01*
X192979524Y-103051429D01*
X195398571Y-102749048D01*
X199631905Y-102749048D01*
X202050952Y-103051429D01*
X203260476Y-103656191D01*
X203865238Y-104260953D01*
X203865238Y-105470476D01*
X203260476Y-106075238D01*
X202050952Y-106680000D01*
X199631905Y-106982381D01*
X195398571Y-106982381D01*
X192979524Y-106680000D01*
X191770000Y-106075238D01*
X191165238Y-105470476D01*
X191165238Y-100934762D02*
X191165238Y-97306191D01*
X203865238Y-99120476D02*
X191165238Y-99120476D01*
X197212857Y-95189524D02*
X197212857Y-93072858D01*
X203865238Y-92165715D02*
X203865238Y-95189524D01*
X191165238Y-95189524D01*
X191165238Y-92165715D01*
X203865238Y-76744287D02*
X203865238Y-79768096D01*
X191165238Y-79768096D01*
X200236667Y-74930001D02*
X200236667Y-71906192D01*
X203865238Y-75534763D02*
X191165238Y-73418096D01*
X203865238Y-71301430D01*
X197212857Y-67068097D02*
X197817619Y-66160954D01*
X198422381Y-65858573D01*
X199631905Y-65556192D01*
X201446190Y-65556192D01*
X202655714Y-65858573D01*
X203260476Y-66160954D01*
X203865238Y-66765716D01*
X203865238Y-69184763D01*
X191165238Y-69184763D01*
X191165238Y-67068097D01*
X191770000Y-66463335D01*
X192374762Y-66160954D01*
X193584286Y-65858573D01*
X194793810Y-65858573D01*
X196003333Y-66160954D01*
X196608095Y-66463335D01*
X197212857Y-67068097D01*
X197212857Y-69184763D01*
X203260476Y-53460954D02*
X203865238Y-52553811D01*
X203865238Y-51041907D01*
X203260476Y-50437145D01*
X202655714Y-50134764D01*
X201446190Y-49832383D01*
X200236667Y-49832383D01*
X199027143Y-50134764D01*
X198422381Y-50437145D01*
X197817619Y-51041907D01*
X197212857Y-52251430D01*
X196608095Y-52856192D01*
X196003333Y-53158573D01*
X194793810Y-53460954D01*
X193584286Y-53460954D01*
X192374762Y-53158573D01*
X191770000Y-52856192D01*
X191165238Y-52251430D01*
X191165238Y-50739526D01*
X191770000Y-49832383D01*
X197817619Y-45901430D02*
X203865238Y-45901430D01*
X191165238Y-48018097D02*
X197817619Y-45901430D01*
X191165238Y-43784764D01*
X203260476Y-41970478D02*
X203865238Y-41063335D01*
X203865238Y-39551431D01*
X203260476Y-38946669D01*
X202655714Y-38644288D01*
X201446190Y-38341907D01*
X200236667Y-38341907D01*
X199027143Y-38644288D01*
X198422381Y-38946669D01*
X197817619Y-39551431D01*
X197212857Y-40760954D01*
X196608095Y-41365716D01*
X196003333Y-41668097D01*
X194793810Y-41970478D01*
X193584286Y-41970478D01*
X192374762Y-41668097D01*
X191770000Y-41365716D01*
X191165238Y-40760954D01*
X191165238Y-39249050D01*
X191770000Y-38341907D01*
X191165238Y-36527621D02*
X191165238Y-32899050D01*
X203865238Y-34713335D02*
X191165238Y-34713335D01*
X197212857Y-30782383D02*
X197212857Y-28665717D01*
X203865238Y-27758574D02*
X203865238Y-30782383D01*
X191165238Y-30782383D01*
X191165238Y-27758574D01*
X203865238Y-25037145D02*
X191165238Y-25037145D01*
X200236667Y-22920479D01*
X191165238Y-20803812D01*
X203865238Y-20803812D01*
D13*
X32702500Y-95567500D02*
X32702500Y-77787500D01*
X63182500Y-95567500D02*
X32702500Y-95567500D01*
X63182500Y-77787500D02*
X63182500Y-95567500D01*
X32702500Y-77787500D02*
X63182500Y-77787500D01*
X117475000Y-111760000D02*
X113665000Y-111760000D01*
X117475000Y-104140000D02*
X117475000Y-111760000D01*
X117475000Y-90170000D02*
X113665000Y-90170000D01*
X117475000Y-97790000D02*
X117475000Y-90170000D01*
D11*
X117796429Y-99429286D02*
X116796429Y-99429286D01*
X118367857Y-99072143D02*
X117296429Y-98715000D01*
X117296429Y-99643572D01*
X116939286Y-100215000D02*
X116867857Y-100286428D01*
X116796429Y-100215000D01*
X116867857Y-100143571D01*
X116939286Y-100215000D01*
X116796429Y-100215000D01*
X118296429Y-100786429D02*
X118296429Y-101786429D01*
X116796429Y-101143572D01*
X116796429Y-102357857D02*
X118296429Y-102357857D01*
X116796429Y-103215000D02*
X117653571Y-102572143D01*
X118296429Y-103215000D02*
X117439286Y-102357857D01*
D13*
X172720000Y-159385000D02*
X172720000Y-26035000D01*
X185420000Y-159385000D02*
X172720000Y-159385000D01*
X185420000Y-26035000D02*
X185420000Y-159385000D01*
X172720000Y-26035000D02*
X185420000Y-26035000D01*
X151130000Y-159385000D02*
X151130000Y-26035000D01*
X163830000Y-159385000D02*
X151130000Y-159385000D01*
X163830000Y-26035000D02*
X163830000Y-159385000D01*
X151130000Y-26035000D02*
X163830000Y-26035000D01*
D14*
X93345000Y-61595000D02*
X93345000Y-160655000D01*
X146685000Y-62865000D02*
X146685000Y-160655000D01*
X133985000Y-61595000D02*
X145415000Y-61595000D01*
X145415000Y-61595000D02*
X146685000Y-62865000D01*
X93345000Y-160655000D02*
X146685000Y-160655000D01*
X133985000Y-61595000D02*
X131445000Y-59055000D01*
X131445000Y-59055000D02*
X98425000Y-59055000D01*
X98425000Y-59055000D02*
X95885000Y-61595000D01*
X95885000Y-61595000D02*
X93345000Y-61595000D01*
D15*
X78800000Y-48955000D02*
X78800000Y-46295000D01*
X73660000Y-48955000D02*
X78800000Y-48955000D01*
X73660000Y-46295000D02*
X78800000Y-46295000D01*
X73660000Y-48955000D02*
X73660000Y-46295000D01*
X72390000Y-48955000D02*
X71060000Y-48955000D01*
X71060000Y-48955000D02*
X71060000Y-47625000D01*
X157420000Y-87690000D02*
X162620000Y-87690000D01*
X157420000Y-39370000D02*
X157420000Y-87690000D01*
X162620000Y-36770000D02*
X162620000Y-87690000D01*
X157420000Y-39370000D02*
X160020000Y-39370000D01*
X160020000Y-39370000D02*
X160020000Y-36770000D01*
X160020000Y-36770000D02*
X162620000Y-36770000D01*
X157420000Y-38100000D02*
X157420000Y-36770000D01*
X157420000Y-36770000D02*
X158750000Y-36770000D01*
X41977500Y-136082500D02*
X34857500Y-136082500D01*
X41977500Y-129982500D02*
X34857500Y-129982500D01*
D10*
X16272500Y-117702500D02*
X16272500Y-114002500D01*
X16272500Y-129202500D02*
X16272500Y-125502500D01*
X16272500Y-125502500D02*
X13272500Y-125502500D01*
X13272500Y-125502500D02*
X13272500Y-117702500D01*
X13272500Y-117702500D02*
X16272500Y-117702500D01*
X16272500Y-129202500D02*
X26272500Y-129202500D01*
X26272500Y-129202500D02*
X26272500Y-114002500D01*
X26272500Y-114002500D02*
X16272500Y-114002500D01*
D15*
X97880000Y-39295000D02*
X97880000Y-43215000D01*
X95160000Y-39295000D02*
X95160000Y-43215000D01*
X97880000Y-39295000D02*
X97270000Y-39295000D01*
X95770000Y-39295000D02*
X95160000Y-39295000D01*
X97880000Y-43215000D02*
X97270000Y-43215000D01*
X95770000Y-43215000D02*
X95160000Y-43215000D01*
X92000000Y-27215000D02*
X95920000Y-27215000D01*
X92000000Y-29935000D02*
X95920000Y-29935000D01*
X92000000Y-27215000D02*
X92000000Y-27825000D01*
X92000000Y-29325000D02*
X92000000Y-29935000D01*
X95920000Y-27215000D02*
X95920000Y-27825000D01*
X95920000Y-29325000D02*
X95920000Y-29935000D01*
X70870000Y-172335000D02*
X70870000Y-171935000D01*
X66290000Y-173105000D02*
X66290000Y-171935000D01*
X66290000Y-168525000D02*
X66290000Y-169695000D01*
X70870000Y-169295000D02*
X70870000Y-169695000D01*
X70100000Y-168525000D02*
X66290000Y-168525000D01*
X70100000Y-168525000D02*
X70870000Y-169295000D01*
X70100000Y-173105000D02*
X66290000Y-173105000D01*
X70100000Y-173105000D02*
X70870000Y-172335000D01*
X61345000Y-193425000D02*
X61745000Y-193425000D01*
X60575000Y-188845000D02*
X61745000Y-188845000D01*
X65155000Y-188845000D02*
X63985000Y-188845000D01*
X64385000Y-193425000D02*
X63985000Y-193425000D01*
X65155000Y-192655000D02*
X65155000Y-188845000D01*
X65155000Y-192655000D02*
X64385000Y-193425000D01*
X60575000Y-192655000D02*
X60575000Y-188845000D01*
X60575000Y-192655000D02*
X61345000Y-193425000D01*
X50550000Y-172335000D02*
X50550000Y-171935000D01*
X45970000Y-173105000D02*
X45970000Y-171935000D01*
X45970000Y-168525000D02*
X45970000Y-169695000D01*
X50550000Y-169295000D02*
X50550000Y-169695000D01*
X49780000Y-168525000D02*
X45970000Y-168525000D01*
X49780000Y-168525000D02*
X50550000Y-169295000D01*
X49780000Y-173105000D02*
X45970000Y-173105000D01*
X49780000Y-173105000D02*
X50550000Y-172335000D01*
X70870000Y-205355000D02*
X70870000Y-204955000D01*
X66290000Y-206125000D02*
X66290000Y-204955000D01*
X66290000Y-201545000D02*
X66290000Y-202715000D01*
X70870000Y-202315000D02*
X70870000Y-202715000D01*
X70100000Y-201545000D02*
X66290000Y-201545000D01*
X70100000Y-201545000D02*
X70870000Y-202315000D01*
X70100000Y-206125000D02*
X66290000Y-206125000D01*
X70100000Y-206125000D02*
X70870000Y-205355000D01*
X61345000Y-226445000D02*
X61745000Y-226445000D01*
X60575000Y-221865000D02*
X61745000Y-221865000D01*
X65155000Y-221865000D02*
X63985000Y-221865000D01*
X64385000Y-226445000D02*
X63985000Y-226445000D01*
X65155000Y-225675000D02*
X65155000Y-221865000D01*
X65155000Y-225675000D02*
X64385000Y-226445000D01*
X60575000Y-225675000D02*
X60575000Y-221865000D01*
X60575000Y-225675000D02*
X61345000Y-226445000D01*
X50550000Y-205355000D02*
X50550000Y-204955000D01*
X45970000Y-206125000D02*
X45970000Y-204955000D01*
X45970000Y-201545000D02*
X45970000Y-202715000D01*
X50550000Y-202315000D02*
X50550000Y-202715000D01*
X49780000Y-201545000D02*
X45970000Y-201545000D01*
X49780000Y-201545000D02*
X50550000Y-202315000D01*
X49780000Y-206125000D02*
X45970000Y-206125000D01*
X49780000Y-206125000D02*
X50550000Y-205355000D01*
X56130000Y-202315000D02*
X56130000Y-202715000D01*
X60710000Y-201545000D02*
X60710000Y-202715000D01*
X60710000Y-206125000D02*
X60710000Y-204955000D01*
X56130000Y-205355000D02*
X56130000Y-204955000D01*
X56900000Y-206125000D02*
X60710000Y-206125000D01*
X56900000Y-206125000D02*
X56130000Y-205355000D01*
X56900000Y-201545000D02*
X60710000Y-201545000D01*
X56900000Y-201545000D02*
X56130000Y-202315000D01*
X56130000Y-169295000D02*
X56130000Y-169695000D01*
X60710000Y-168525000D02*
X60710000Y-169695000D01*
X60710000Y-173105000D02*
X60710000Y-171935000D01*
X56130000Y-172335000D02*
X56130000Y-171935000D01*
X56900000Y-173105000D02*
X60710000Y-173105000D01*
X56900000Y-173105000D02*
X56130000Y-172335000D01*
X56900000Y-168525000D02*
X60710000Y-168525000D01*
X56900000Y-168525000D02*
X56130000Y-169295000D01*
X82300000Y-193425000D02*
X82700000Y-193425000D01*
X81530000Y-188845000D02*
X82700000Y-188845000D01*
X86110000Y-188845000D02*
X84940000Y-188845000D01*
X85340000Y-193425000D02*
X84940000Y-193425000D01*
X86110000Y-192655000D02*
X86110000Y-188845000D01*
X86110000Y-192655000D02*
X85340000Y-193425000D01*
X81530000Y-192655000D02*
X81530000Y-188845000D01*
X81530000Y-192655000D02*
X82300000Y-193425000D01*
X81030000Y-172335000D02*
X81030000Y-171935000D01*
X76450000Y-173105000D02*
X76450000Y-171935000D01*
X76450000Y-168525000D02*
X76450000Y-169695000D01*
X81030000Y-169295000D02*
X81030000Y-169695000D01*
X80260000Y-168525000D02*
X76450000Y-168525000D01*
X80260000Y-168525000D02*
X81030000Y-169295000D01*
X80260000Y-173105000D02*
X76450000Y-173105000D01*
X80260000Y-173105000D02*
X81030000Y-172335000D01*
X82300000Y-226445000D02*
X82700000Y-226445000D01*
X81530000Y-221865000D02*
X82700000Y-221865000D01*
X86110000Y-221865000D02*
X84940000Y-221865000D01*
X85340000Y-226445000D02*
X84940000Y-226445000D01*
X86110000Y-225675000D02*
X86110000Y-221865000D01*
X86110000Y-225675000D02*
X85340000Y-226445000D01*
X81530000Y-225675000D02*
X81530000Y-221865000D01*
X81530000Y-225675000D02*
X82300000Y-226445000D01*
X81030000Y-205355000D02*
X81030000Y-204955000D01*
X76450000Y-206125000D02*
X76450000Y-204955000D01*
X76450000Y-201545000D02*
X76450000Y-202715000D01*
X81030000Y-202315000D02*
X81030000Y-202715000D01*
X80260000Y-201545000D02*
X76450000Y-201545000D01*
X80260000Y-201545000D02*
X81030000Y-202315000D01*
X80260000Y-206125000D02*
X76450000Y-206125000D01*
X80260000Y-206125000D02*
X81030000Y-205355000D01*
X169160000Y-223905000D02*
X169160000Y-224305000D01*
X173740000Y-223135000D02*
X173740000Y-224305000D01*
X173740000Y-227715000D02*
X173740000Y-226545000D01*
X169160000Y-226945000D02*
X169160000Y-226545000D01*
X169930000Y-227715000D02*
X173740000Y-227715000D01*
X169930000Y-227715000D02*
X169160000Y-226945000D01*
X169930000Y-223135000D02*
X173740000Y-223135000D01*
X169930000Y-223135000D02*
X169160000Y-223905000D01*
X178685000Y-202815000D02*
X178285000Y-202815000D01*
X179455000Y-207395000D02*
X178285000Y-207395000D01*
X174875000Y-207395000D02*
X176045000Y-207395000D01*
X175645000Y-202815000D02*
X176045000Y-202815000D01*
X174875000Y-203585000D02*
X174875000Y-207395000D01*
X174875000Y-203585000D02*
X175645000Y-202815000D01*
X179455000Y-203585000D02*
X179455000Y-207395000D01*
X179455000Y-203585000D02*
X178685000Y-202815000D01*
X189480000Y-223905000D02*
X189480000Y-224305000D01*
X194060000Y-223135000D02*
X194060000Y-224305000D01*
X194060000Y-227715000D02*
X194060000Y-226545000D01*
X189480000Y-226945000D02*
X189480000Y-226545000D01*
X190250000Y-227715000D02*
X194060000Y-227715000D01*
X190250000Y-227715000D02*
X189480000Y-226945000D01*
X190250000Y-223135000D02*
X194060000Y-223135000D01*
X190250000Y-223135000D02*
X189480000Y-223905000D01*
X169160000Y-190885000D02*
X169160000Y-191285000D01*
X173740000Y-190115000D02*
X173740000Y-191285000D01*
X173740000Y-194695000D02*
X173740000Y-193525000D01*
X169160000Y-193925000D02*
X169160000Y-193525000D01*
X169930000Y-194695000D02*
X173740000Y-194695000D01*
X169930000Y-194695000D02*
X169160000Y-193925000D01*
X169930000Y-190115000D02*
X173740000Y-190115000D01*
X169930000Y-190115000D02*
X169160000Y-190885000D01*
X178685000Y-169795000D02*
X178285000Y-169795000D01*
X179455000Y-174375000D02*
X178285000Y-174375000D01*
X174875000Y-174375000D02*
X176045000Y-174375000D01*
X175645000Y-169795000D02*
X176045000Y-169795000D01*
X174875000Y-170565000D02*
X174875000Y-174375000D01*
X174875000Y-170565000D02*
X175645000Y-169795000D01*
X179455000Y-170565000D02*
X179455000Y-174375000D01*
X179455000Y-170565000D02*
X178685000Y-169795000D01*
X189480000Y-190885000D02*
X189480000Y-191285000D01*
X194060000Y-190115000D02*
X194060000Y-191285000D01*
X194060000Y-194695000D02*
X194060000Y-193525000D01*
X189480000Y-193925000D02*
X189480000Y-193525000D01*
X190250000Y-194695000D02*
X194060000Y-194695000D01*
X190250000Y-194695000D02*
X189480000Y-193925000D01*
X190250000Y-190115000D02*
X194060000Y-190115000D01*
X190250000Y-190115000D02*
X189480000Y-190885000D01*
X183900000Y-193925000D02*
X183900000Y-193525000D01*
X179320000Y-194695000D02*
X179320000Y-193525000D01*
X179320000Y-190115000D02*
X179320000Y-191285000D01*
X183900000Y-190885000D02*
X183900000Y-191285000D01*
X183130000Y-190115000D02*
X179320000Y-190115000D01*
X183130000Y-190115000D02*
X183900000Y-190885000D01*
X183130000Y-194695000D02*
X179320000Y-194695000D01*
X183130000Y-194695000D02*
X183900000Y-193925000D01*
X183900000Y-226945000D02*
X183900000Y-226545000D01*
X179320000Y-227715000D02*
X179320000Y-226545000D01*
X179320000Y-223135000D02*
X179320000Y-224305000D01*
X183900000Y-223905000D02*
X183900000Y-224305000D01*
X183130000Y-223135000D02*
X179320000Y-223135000D01*
X183130000Y-223135000D02*
X183900000Y-223905000D01*
X183130000Y-227715000D02*
X179320000Y-227715000D01*
X183130000Y-227715000D02*
X183900000Y-226945000D01*
X157730000Y-202815000D02*
X157330000Y-202815000D01*
X158500000Y-207395000D02*
X157330000Y-207395000D01*
X153920000Y-207395000D02*
X155090000Y-207395000D01*
X154690000Y-202815000D02*
X155090000Y-202815000D01*
X153920000Y-203585000D02*
X153920000Y-207395000D01*
X153920000Y-203585000D02*
X154690000Y-202815000D01*
X158500000Y-203585000D02*
X158500000Y-207395000D01*
X158500000Y-203585000D02*
X157730000Y-202815000D01*
X159000000Y-223905000D02*
X159000000Y-224305000D01*
X163580000Y-223135000D02*
X163580000Y-224305000D01*
X163580000Y-227715000D02*
X163580000Y-226545000D01*
X159000000Y-226945000D02*
X159000000Y-226545000D01*
X159770000Y-227715000D02*
X163580000Y-227715000D01*
X159770000Y-227715000D02*
X159000000Y-226945000D01*
X159770000Y-223135000D02*
X163580000Y-223135000D01*
X159770000Y-223135000D02*
X159000000Y-223905000D01*
X157730000Y-169795000D02*
X157330000Y-169795000D01*
X158500000Y-174375000D02*
X157330000Y-174375000D01*
X153920000Y-174375000D02*
X155090000Y-174375000D01*
X154690000Y-169795000D02*
X155090000Y-169795000D01*
X153920000Y-170565000D02*
X153920000Y-174375000D01*
X153920000Y-170565000D02*
X154690000Y-169795000D01*
X158500000Y-170565000D02*
X158500000Y-174375000D01*
X158500000Y-170565000D02*
X157730000Y-169795000D01*
X159000000Y-190885000D02*
X159000000Y-191285000D01*
X163580000Y-190115000D02*
X163580000Y-191285000D01*
X163580000Y-194695000D02*
X163580000Y-193525000D01*
X159000000Y-193925000D02*
X159000000Y-193525000D01*
X159770000Y-194695000D02*
X163580000Y-194695000D01*
X159770000Y-194695000D02*
X159000000Y-193925000D01*
X159770000Y-190115000D02*
X163580000Y-190115000D01*
X159770000Y-190115000D02*
X159000000Y-190885000D01*
X58805000Y-137545000D02*
X59205000Y-137545000D01*
X58035000Y-132965000D02*
X59205000Y-132965000D01*
X62615000Y-132965000D02*
X61445000Y-132965000D01*
X61845000Y-137545000D02*
X61445000Y-137545000D01*
X62615000Y-136775000D02*
X62615000Y-132965000D01*
X62615000Y-136775000D02*
X61845000Y-137545000D01*
X58035000Y-136775000D02*
X58035000Y-132965000D01*
X58035000Y-136775000D02*
X58805000Y-137545000D01*
X32635000Y-159770000D02*
X32635000Y-160170000D01*
X37215000Y-159000000D02*
X37215000Y-160170000D01*
X37215000Y-163580000D02*
X37215000Y-162410000D01*
X32635000Y-162810000D02*
X32635000Y-162410000D01*
X33405000Y-163580000D02*
X37215000Y-163580000D01*
X33405000Y-163580000D02*
X32635000Y-162810000D01*
X33405000Y-159000000D02*
X37215000Y-159000000D01*
X33405000Y-159000000D02*
X32635000Y-159770000D01*
X86610000Y-122170000D02*
X86210000Y-122170000D01*
X87380000Y-126750000D02*
X86210000Y-126750000D01*
X82800000Y-126750000D02*
X83970000Y-126750000D01*
X83570000Y-122170000D02*
X83970000Y-122170000D01*
X82800000Y-122940000D02*
X82800000Y-126750000D01*
X82800000Y-122940000D02*
X83570000Y-122170000D01*
X87380000Y-122940000D02*
X87380000Y-126750000D01*
X87380000Y-122940000D02*
X86610000Y-122170000D01*
X69600000Y-149610000D02*
X70000000Y-149610000D01*
X68830000Y-145030000D02*
X70000000Y-145030000D01*
X73410000Y-145030000D02*
X72240000Y-145030000D01*
X72640000Y-149610000D02*
X72240000Y-149610000D01*
X73410000Y-148840000D02*
X73410000Y-145030000D01*
X73410000Y-148840000D02*
X72640000Y-149610000D01*
X68830000Y-148840000D02*
X68830000Y-145030000D01*
X68830000Y-148840000D02*
X69600000Y-149610000D01*
X113280000Y-202950000D02*
X113280000Y-203350000D01*
X117860000Y-202180000D02*
X117860000Y-203350000D01*
X117860000Y-206760000D02*
X117860000Y-205590000D01*
X113280000Y-205990000D02*
X113280000Y-205590000D01*
X114050000Y-206760000D02*
X117860000Y-206760000D01*
X114050000Y-206760000D02*
X113280000Y-205990000D01*
X114050000Y-202180000D02*
X117860000Y-202180000D01*
X114050000Y-202180000D02*
X113280000Y-202950000D01*
X58102500Y-78997500D02*
X35182500Y-78997500D01*
X35182500Y-78997500D02*
X35182500Y-81657500D01*
X35182500Y-81657500D02*
X58102500Y-81657500D01*
X58102500Y-81657500D02*
X58102500Y-78997500D01*
X59372500Y-78997500D02*
X60702500Y-78997500D01*
X60702500Y-78997500D02*
X60702500Y-80327500D01*
X26730000Y-200660000D02*
X26730000Y-195520000D01*
X26730000Y-195520000D02*
X24070000Y-195520000D01*
X24070000Y-195520000D02*
X24070000Y-200660000D01*
X24070000Y-200660000D02*
X26730000Y-200660000D01*
X26730000Y-201930000D02*
X26730000Y-203260000D01*
X26730000Y-203260000D02*
X25400000Y-203260000D01*
X134110000Y-201605000D02*
X134110000Y-200675000D01*
X134110000Y-198445000D02*
X134110000Y-199375000D01*
X134110000Y-198445000D02*
X131950000Y-198445000D01*
X134110000Y-201605000D02*
X132650000Y-201605000D01*
X146930000Y-43215000D02*
X146930000Y-44415000D01*
X145170000Y-44415000D02*
X145170000Y-43215000D01*
X145170000Y-38700000D02*
X145170000Y-37500000D01*
X146930000Y-37500000D02*
X146930000Y-38700000D01*
X114265000Y-110735000D02*
X113065000Y-110735000D01*
X113065000Y-108975000D02*
X114265000Y-108975000D01*
X114265000Y-105655000D02*
X113065000Y-105655000D01*
X113065000Y-103895000D02*
X114265000Y-103895000D01*
X114265000Y-100575000D02*
X113065000Y-100575000D01*
X113065000Y-98815000D02*
X114265000Y-98815000D01*
X114265000Y-95495000D02*
X113065000Y-95495000D01*
X113065000Y-93735000D02*
X114265000Y-93735000D01*
X114265000Y-108195000D02*
X113065000Y-108195000D01*
X113065000Y-106435000D02*
X114265000Y-106435000D01*
X114265000Y-103115000D02*
X113065000Y-103115000D01*
X113065000Y-101355000D02*
X114265000Y-101355000D01*
X114265000Y-98035000D02*
X113065000Y-98035000D01*
X113065000Y-96275000D02*
X114265000Y-96275000D01*
X114265000Y-92955000D02*
X113065000Y-92955000D01*
X113065000Y-91195000D02*
X114265000Y-91195000D01*
X51800000Y-42980000D02*
X49800000Y-42980000D01*
X49800000Y-40840000D02*
X51800000Y-40840000D01*
X27987500Y-23612500D02*
X25987500Y-23612500D01*
X25987500Y-21472500D02*
X27987500Y-21472500D01*
X27352500Y-51552500D02*
X25352500Y-51552500D01*
X25352500Y-49412500D02*
X27352500Y-49412500D01*
X17662500Y-48942500D02*
X17662500Y-46942500D01*
X19802500Y-46942500D02*
X19802500Y-48942500D01*
X56880000Y-34090000D02*
X54880000Y-34090000D01*
X54880000Y-31950000D02*
X56880000Y-31950000D01*
X40440000Y-32020000D02*
X40440000Y-34020000D01*
X38300000Y-34020000D02*
X38300000Y-32020000D01*
X87240000Y-45835000D02*
X90560000Y-45835000D01*
X90560000Y-45835000D02*
X90560000Y-36715000D01*
X90560000Y-36715000D02*
X87240000Y-36715000D01*
X87240000Y-36715000D02*
X87240000Y-45835000D01*
X88900000Y-46645000D02*
X88900000Y-45835000D01*
X88900000Y-35905000D02*
X88900000Y-36715000D01*
X98540000Y-23885000D02*
X98540000Y-20565000D01*
X98540000Y-20565000D02*
X89420000Y-20565000D01*
X89420000Y-20565000D02*
X89420000Y-23885000D01*
X89420000Y-23885000D02*
X98540000Y-23885000D01*
X99350000Y-22225000D02*
X98540000Y-22225000D01*
X88610000Y-22225000D02*
X89420000Y-22225000D01*
X53940000Y-191380000D02*
X52740000Y-191380000D01*
X52740000Y-189620000D02*
X53940000Y-189620000D01*
X75130000Y-192135000D02*
X75130000Y-190135000D01*
X77270000Y-190135000D02*
X77270000Y-192135000D01*
X75130000Y-225155000D02*
X75130000Y-223155000D01*
X77270000Y-223155000D02*
X77270000Y-225155000D01*
X186090000Y-204860000D02*
X187290000Y-204860000D01*
X187290000Y-206620000D02*
X186090000Y-206620000D01*
X164900000Y-171085000D02*
X164900000Y-173085000D01*
X162760000Y-173085000D02*
X162760000Y-171085000D01*
X164900000Y-204105000D02*
X164900000Y-206105000D01*
X162760000Y-206105000D02*
X162760000Y-204105000D01*
X77035000Y-125460000D02*
X77035000Y-123460000D01*
X79175000Y-123460000D02*
X79175000Y-125460000D01*
X60760000Y-151400000D02*
X60760000Y-153400000D01*
X58620000Y-153400000D02*
X58620000Y-151400000D01*
X133715000Y-209350000D02*
X131715000Y-209350000D01*
X131715000Y-207210000D02*
X133715000Y-207210000D01*
X24965000Y-34655000D02*
X24965000Y-32655000D01*
X27105000Y-32655000D02*
X27105000Y-34655000D01*
X53705000Y-62665000D02*
X51705000Y-62665000D01*
X51705000Y-60525000D02*
X53705000Y-60525000D01*
X34490000Y-58785000D02*
X34490000Y-56785000D01*
X36630000Y-56785000D02*
X36630000Y-58785000D01*
X20050000Y-58220000D02*
X18050000Y-58220000D01*
X18050000Y-56080000D02*
X20050000Y-56080000D01*
X33772500Y-65357500D02*
X33772500Y-67357500D01*
X31632500Y-67357500D02*
X31632500Y-65357500D01*
X29257500Y-76317500D02*
X27257500Y-76317500D01*
X27257500Y-74177500D02*
X29257500Y-74177500D01*
X115005000Y-192930000D02*
X115005000Y-192450000D01*
X115005000Y-192450000D02*
X125025000Y-192450000D01*
X125025000Y-192450000D02*
X125025000Y-192930000D01*
X115005000Y-195690000D02*
X115005000Y-196170000D01*
X115005000Y-196170000D02*
X125025000Y-196170000D01*
X125025000Y-196170000D02*
X125025000Y-195690000D01*
X65960000Y-128310000D02*
X65960000Y-118070000D01*
X70601000Y-128310000D02*
X70601000Y-118070000D01*
X65960000Y-128310000D02*
X70601000Y-128310000D01*
X65960000Y-118070000D02*
X70601000Y-118070000D01*
X67470000Y-128310000D02*
X67470000Y-118070000D01*
X65960000Y-125040000D02*
X67470000Y-125040000D01*
X65960000Y-121339000D02*
X67470000Y-121339000D01*
X35480000Y-155615000D02*
X35480000Y-145375000D01*
X40121000Y-155615000D02*
X40121000Y-145375000D01*
X35480000Y-155615000D02*
X40121000Y-155615000D01*
X35480000Y-145375000D02*
X40121000Y-145375000D01*
X36990000Y-155615000D02*
X36990000Y-145375000D01*
X35480000Y-152345000D02*
X36990000Y-152345000D01*
X35480000Y-148644000D02*
X36990000Y-148644000D01*
X138160000Y-43935000D02*
X139930000Y-43935000D01*
X139930000Y-43935000D02*
X139930000Y-20835000D01*
X139930000Y-20835000D02*
X134390000Y-20835000D01*
X134390000Y-20835000D02*
X134390000Y-43935000D01*
X134390000Y-43935000D02*
X136160000Y-43935000D01*
X136160000Y-43935000D02*
G75*
G02X138160000Y-43935000I1000000J0D01*
G01*
X106560000Y-39735000D02*
X106560000Y-41505000D01*
X106560000Y-41505000D02*
X124580000Y-41505000D01*
X124580000Y-41505000D02*
X124580000Y-35965000D01*
X124580000Y-35965000D02*
X106560000Y-35965000D01*
X106560000Y-35965000D02*
X106560000Y-37735000D01*
X106560000Y-37735000D02*
G75*
G02X106560000Y-39735000I0J-1000000D01*
G01*
X106560000Y-27035000D02*
X106560000Y-28805000D01*
X106560000Y-28805000D02*
X124580000Y-28805000D01*
X124580000Y-28805000D02*
X124580000Y-23265000D01*
X124580000Y-23265000D02*
X106560000Y-23265000D01*
X106560000Y-23265000D02*
X106560000Y-25035000D01*
X106560000Y-25035000D02*
G75*
G02X106560000Y-27035000I0J-1000000D01*
G01*
X39665000Y-41010000D02*
X39665000Y-42810000D01*
X42885000Y-42810000D02*
X42885000Y-40360000D01*
X17122500Y-21642500D02*
X17122500Y-23442500D01*
X20342500Y-23442500D02*
X20342500Y-20992500D01*
D16*
X20672500Y-31262500D02*
X20622500Y-31262500D01*
X20672500Y-35412500D02*
X20527500Y-35412500D01*
X15522500Y-35412500D02*
X15667500Y-35412500D01*
X15522500Y-31262500D02*
X15667500Y-31262500D01*
X20672500Y-31262500D02*
X20672500Y-35412500D01*
X15522500Y-31262500D02*
X15522500Y-35412500D01*
X20622500Y-31262500D02*
X20622500Y-29862500D01*
X29062500Y-46072500D02*
X29062500Y-46022500D01*
X24912500Y-46072500D02*
X24912500Y-45927500D01*
X24912500Y-40922500D02*
X24912500Y-41067500D01*
X29062500Y-40922500D02*
X29062500Y-41067500D01*
X29062500Y-46072500D02*
X24912500Y-46072500D01*
X29062500Y-40922500D02*
X24912500Y-40922500D01*
X29062500Y-46022500D02*
X30462500Y-46022500D01*
D15*
X44745000Y-32120000D02*
X44745000Y-33920000D01*
X47965000Y-33920000D02*
X47965000Y-31470000D01*
X40300000Y-56250000D02*
X40300000Y-58050000D01*
X43520000Y-58050000D02*
X43520000Y-55600000D01*
D16*
X27022500Y-64282500D02*
X26972500Y-64282500D01*
X27022500Y-68432500D02*
X26877500Y-68432500D01*
X21872500Y-68432500D02*
X22017500Y-68432500D01*
X21872500Y-64282500D02*
X22017500Y-64282500D01*
X27022500Y-64282500D02*
X27022500Y-68432500D01*
X21872500Y-64282500D02*
X21872500Y-68432500D01*
X26972500Y-64282500D02*
X26972500Y-62882500D01*
D15*
X67580000Y-178820000D02*
X69580000Y-178820000D01*
X69580000Y-176780000D02*
X67580000Y-176780000D01*
X70870000Y-192135000D02*
X70870000Y-190135000D01*
X68830000Y-190135000D02*
X68830000Y-192135000D01*
X47260000Y-178820000D02*
X49260000Y-178820000D01*
X49260000Y-176780000D02*
X47260000Y-176780000D01*
X67580000Y-211840000D02*
X69580000Y-211840000D01*
X69580000Y-209800000D02*
X67580000Y-209800000D01*
X70870000Y-225155000D02*
X70870000Y-223155000D01*
X68830000Y-223155000D02*
X68830000Y-225155000D01*
X172450000Y-217420000D02*
X170450000Y-217420000D01*
X170450000Y-219460000D02*
X172450000Y-219460000D01*
X169160000Y-204105000D02*
X169160000Y-206105000D01*
X171200000Y-206105000D02*
X171200000Y-204105000D01*
X192770000Y-217420000D02*
X190770000Y-217420000D01*
X190770000Y-219460000D02*
X192770000Y-219460000D01*
X172450000Y-184400000D02*
X170450000Y-184400000D01*
X170450000Y-186440000D02*
X172450000Y-186440000D01*
X169160000Y-171085000D02*
X169160000Y-173085000D01*
X171200000Y-173085000D02*
X171200000Y-171085000D01*
X192770000Y-184400000D02*
X190770000Y-184400000D01*
X190770000Y-186440000D02*
X192770000Y-186440000D01*
X61345000Y-123555000D02*
X61345000Y-121555000D01*
X59305000Y-121555000D02*
X59305000Y-123555000D01*
X30095000Y-151400000D02*
X30095000Y-153400000D01*
X32135000Y-153400000D02*
X32135000Y-151400000D01*
X47260000Y-211840000D02*
X49260000Y-211840000D01*
X49260000Y-209800000D02*
X47260000Y-209800000D01*
X78800000Y-74355000D02*
X78800000Y-71695000D01*
X73660000Y-74355000D02*
X78800000Y-74355000D01*
X73660000Y-71695000D02*
X78800000Y-71695000D01*
X73660000Y-74355000D02*
X73660000Y-71695000D01*
X72390000Y-74355000D02*
X71060000Y-74355000D01*
X71060000Y-74355000D02*
X71060000Y-73025000D01*
X78800000Y-27365000D02*
X78800000Y-24705000D01*
X73660000Y-27365000D02*
X78800000Y-27365000D01*
X73660000Y-24705000D02*
X78800000Y-24705000D01*
X73660000Y-27365000D02*
X73660000Y-24705000D01*
X72390000Y-27365000D02*
X71060000Y-27365000D01*
X71060000Y-27365000D02*
X71060000Y-26035000D01*
X179010000Y-87690000D02*
X184210000Y-87690000D01*
X179010000Y-39370000D02*
X179010000Y-87690000D01*
X184210000Y-36770000D02*
X184210000Y-87690000D01*
X179010000Y-39370000D02*
X181610000Y-39370000D01*
X181610000Y-39370000D02*
X181610000Y-36770000D01*
X181610000Y-36770000D02*
X184210000Y-36770000D01*
X179010000Y-38100000D02*
X179010000Y-36770000D01*
X179010000Y-36770000D02*
X180340000Y-36770000D01*
D16*
X55665000Y-220430000D02*
X55665000Y-220305000D01*
X51015000Y-220430000D02*
X51015000Y-220205000D01*
X51015000Y-215180000D02*
X51015000Y-215405000D01*
X55665000Y-215180000D02*
X55665000Y-215405000D01*
X55665000Y-220430000D02*
X51015000Y-220430000D01*
X55665000Y-215180000D02*
X51015000Y-215180000D01*
X55665000Y-220305000D02*
X57015000Y-220305000D01*
X55665000Y-187410000D02*
X55665000Y-187285000D01*
X51015000Y-187410000D02*
X51015000Y-187185000D01*
X51015000Y-182160000D02*
X51015000Y-182385000D01*
X55665000Y-182160000D02*
X55665000Y-182385000D01*
X55665000Y-187410000D02*
X51015000Y-187410000D01*
X55665000Y-182160000D02*
X51015000Y-182160000D01*
X55665000Y-187285000D02*
X57015000Y-187285000D01*
X184365000Y-175810000D02*
X184365000Y-175935000D01*
X189015000Y-175810000D02*
X189015000Y-176035000D01*
X189015000Y-181060000D02*
X189015000Y-180835000D01*
X184365000Y-181060000D02*
X184365000Y-180835000D01*
X184365000Y-175810000D02*
X189015000Y-175810000D01*
X184365000Y-181060000D02*
X189015000Y-181060000D01*
X184365000Y-175935000D02*
X183015000Y-175935000D01*
X184365000Y-208830000D02*
X184365000Y-208955000D01*
X189015000Y-208830000D02*
X189015000Y-209055000D01*
X189015000Y-214080000D02*
X189015000Y-213855000D01*
X184365000Y-214080000D02*
X184365000Y-213855000D01*
X184365000Y-208830000D02*
X189015000Y-208830000D01*
X184365000Y-214080000D02*
X189015000Y-214080000D01*
X184365000Y-208955000D02*
X183015000Y-208955000D01*
D15*
X41977500Y-124652500D02*
X34857500Y-124652500D01*
X41977500Y-118552500D02*
X34857500Y-118552500D01*
X41977500Y-113222500D02*
X34857500Y-113222500D01*
X41977500Y-107122500D02*
X34857500Y-107122500D01*
D16*
X100965000Y-194310000D02*
X83185000Y-194310000D01*
X83185000Y-194310000D02*
X83185000Y-168910000D01*
X83185000Y-168910000D02*
X100965000Y-168910000D01*
X100965000Y-168910000D02*
X100965000Y-194310000D01*
X90805000Y-194310000D02*
X90805000Y-168910000D01*
D15*
X90870000Y-176460000D02*
X90870000Y-186701000D01*
X86229000Y-176460000D02*
X86229000Y-178816000D01*
X86229000Y-180946000D02*
X86229000Y-182216000D01*
X86229000Y-184346000D02*
X86229000Y-186701000D01*
X90870000Y-176460000D02*
X86229000Y-176460000D01*
X90870000Y-186701000D02*
X86229000Y-186701000D01*
X89361000Y-176460000D02*
X89361000Y-186701000D01*
X90870000Y-179731000D02*
X89361000Y-179731000D01*
X90870000Y-183431000D02*
X89361000Y-183431000D01*
X86229000Y-178181000D02*
X83599000Y-178181000D01*
X86229000Y-181581000D02*
X83615000Y-181581000D01*
X86229000Y-184981000D02*
X83615000Y-184981000D01*
D16*
X100965000Y-227330000D02*
X83185000Y-227330000D01*
X83185000Y-227330000D02*
X83185000Y-201930000D01*
X83185000Y-201930000D02*
X100965000Y-201930000D01*
X100965000Y-201930000D02*
X100965000Y-227330000D01*
X90805000Y-227330000D02*
X90805000Y-201930000D01*
D15*
X90870000Y-209480000D02*
X90870000Y-219721000D01*
X86229000Y-209480000D02*
X86229000Y-211836000D01*
X86229000Y-213966000D02*
X86229000Y-215236000D01*
X86229000Y-217366000D02*
X86229000Y-219721000D01*
X90870000Y-209480000D02*
X86229000Y-209480000D01*
X90870000Y-219721000D02*
X86229000Y-219721000D01*
X89361000Y-209480000D02*
X89361000Y-219721000D01*
X90870000Y-212751000D02*
X89361000Y-212751000D01*
X90870000Y-216451000D02*
X89361000Y-216451000D01*
X86229000Y-211201000D02*
X83599000Y-211201000D01*
X86229000Y-214601000D02*
X83615000Y-214601000D01*
X86229000Y-218001000D02*
X83615000Y-218001000D01*
D16*
X139065000Y-201930000D02*
X156845000Y-201930000D01*
X156845000Y-201930000D02*
X156845000Y-227330000D01*
X156845000Y-227330000D02*
X139065000Y-227330000D01*
X139065000Y-227330000D02*
X139065000Y-201930000D01*
X149225000Y-201930000D02*
X149225000Y-227330000D01*
D15*
X149160000Y-219780000D02*
X149160000Y-209539000D01*
X153801000Y-219780000D02*
X153801000Y-217424000D01*
X153801000Y-215294000D02*
X153801000Y-214024000D01*
X153801000Y-211894000D02*
X153801000Y-209539000D01*
X149160000Y-219780000D02*
X153801000Y-219780000D01*
X149160000Y-209539000D02*
X153801000Y-209539000D01*
X150669000Y-219780000D02*
X150669000Y-209539000D01*
X149160000Y-216509000D02*
X150669000Y-216509000D01*
X149160000Y-212809000D02*
X150669000Y-212809000D01*
X153801000Y-218059000D02*
X156431000Y-218059000D01*
X153801000Y-214659000D02*
X156415000Y-214659000D01*
X153801000Y-211259000D02*
X156415000Y-211259000D01*
D16*
X139065000Y-168910000D02*
X156845000Y-168910000D01*
X156845000Y-168910000D02*
X156845000Y-194310000D01*
X156845000Y-194310000D02*
X139065000Y-194310000D01*
X139065000Y-194310000D02*
X139065000Y-168910000D01*
X149225000Y-168910000D02*
X149225000Y-194310000D01*
D15*
X149160000Y-186760000D02*
X149160000Y-176519000D01*
X153801000Y-186760000D02*
X153801000Y-184404000D01*
X153801000Y-182274000D02*
X153801000Y-181004000D01*
X153801000Y-178874000D02*
X153801000Y-176519000D01*
X149160000Y-186760000D02*
X153801000Y-186760000D01*
X149160000Y-176519000D02*
X153801000Y-176519000D01*
X150669000Y-186760000D02*
X150669000Y-176519000D01*
X149160000Y-183489000D02*
X150669000Y-183489000D01*
X149160000Y-179789000D02*
X150669000Y-179789000D01*
X153801000Y-185039000D02*
X156431000Y-185039000D01*
X153801000Y-181639000D02*
X156415000Y-181639000D01*
X153801000Y-178239000D02*
X156415000Y-178239000D01*
D10*
X67350000Y-158960000D02*
X67350000Y-153460000D01*
X67350000Y-153460000D02*
X72350000Y-153460000D01*
X72350000Y-153460000D02*
X72350000Y-158960000D01*
X72350000Y-158960000D02*
X67350000Y-158960000D01*
X76625000Y-130850000D02*
X82125000Y-130850000D01*
X82125000Y-130850000D02*
X82125000Y-135850000D01*
X82125000Y-135850000D02*
X76625000Y-135850000D01*
X76625000Y-135850000D02*
X76625000Y-130850000D01*
X26075000Y-60535000D02*
X26075000Y-55035000D01*
X26075000Y-55035000D02*
X31075000Y-55035000D01*
X31075000Y-55035000D02*
X31075000Y-60535000D01*
X31075000Y-60535000D02*
X26075000Y-60535000D01*
X40215000Y-50760000D02*
X34715000Y-50760000D01*
X34715000Y-50760000D02*
X34715000Y-45760000D01*
X34715000Y-45760000D02*
X40215000Y-45760000D01*
X40215000Y-45760000D02*
X40215000Y-50760000D01*
X29885000Y-36405000D02*
X29885000Y-30905000D01*
X29885000Y-30905000D02*
X34885000Y-30905000D01*
X34885000Y-30905000D02*
X34885000Y-36405000D01*
X34885000Y-36405000D02*
X29885000Y-36405000D01*
D16*
X69512381Y-47958333D02*
X70226667Y-47958333D01*
X70369524Y-48005953D01*
X70464762Y-48101191D01*
X70512381Y-48244048D01*
X70512381Y-48339286D01*
X69512381Y-47577381D02*
X69512381Y-46958333D01*
X69893333Y-47291667D01*
X69893333Y-47148809D01*
X69940952Y-47053571D01*
X69988571Y-47005952D01*
X70083810Y-46958333D01*
X70321905Y-46958333D01*
X70417143Y-47005952D01*
X70464762Y-47053571D01*
X70512381Y-47148809D01*
X70512381Y-47434524D01*
X70464762Y-47529762D01*
X70417143Y-47577381D01*
X159686667Y-35222381D02*
X159686667Y-35936667D01*
X159639047Y-36079524D01*
X159543809Y-36174762D01*
X159400952Y-36222381D01*
X159305714Y-36222381D01*
X160591429Y-35222381D02*
X160400952Y-35222381D01*
X160305714Y-35270000D01*
X160258095Y-35317619D01*
X160162857Y-35460476D01*
X160115238Y-35650952D01*
X160115238Y-36031905D01*
X160162857Y-36127143D01*
X160210476Y-36174762D01*
X160305714Y-36222381D01*
X160496191Y-36222381D01*
X160591429Y-36174762D01*
X160639048Y-36127143D01*
X160686667Y-36031905D01*
X160686667Y-35793810D01*
X160639048Y-35698571D01*
X160591429Y-35650952D01*
X160496191Y-35603333D01*
X160305714Y-35603333D01*
X160210476Y-35650952D01*
X160162857Y-35698571D01*
X160115238Y-35793810D01*
X38084167Y-137091071D02*
X37750833Y-137091071D01*
X37750833Y-137614881D02*
X37750833Y-136614881D01*
X38227024Y-136614881D01*
X39131786Y-137614881D02*
X38560357Y-137614881D01*
X38846071Y-137614881D02*
X38846071Y-136614881D01*
X38750833Y-136757738D01*
X38655595Y-136852976D01*
X38560357Y-136900595D01*
X11882381Y-123023095D02*
X10882381Y-123023095D01*
X10882381Y-122642142D01*
X10930000Y-122546904D01*
X10977619Y-122499285D01*
X11072857Y-122451666D01*
X11215714Y-122451666D01*
X11310952Y-122499285D01*
X11358571Y-122546904D01*
X11406190Y-122642142D01*
X11406190Y-123023095D01*
X11834762Y-122070714D02*
X11882381Y-121927857D01*
X11882381Y-121689761D01*
X11834762Y-121594523D01*
X11787143Y-121546904D01*
X11691905Y-121499285D01*
X11596667Y-121499285D01*
X11501429Y-121546904D01*
X11453810Y-121594523D01*
X11406190Y-121689761D01*
X11358571Y-121880238D01*
X11310952Y-121975476D01*
X11263333Y-122023095D01*
X11168095Y-122070714D01*
X11072857Y-122070714D01*
X10977619Y-122023095D01*
X10930000Y-121975476D01*
X10882381Y-121880238D01*
X10882381Y-121642142D01*
X10930000Y-121499285D01*
X10882381Y-121070714D02*
X11691905Y-121070714D01*
X11787143Y-121023095D01*
X11834762Y-120975476D01*
X11882381Y-120880238D01*
X11882381Y-120689761D01*
X11834762Y-120594523D01*
X11787143Y-120546904D01*
X11691905Y-120499285D01*
X10882381Y-120499285D01*
X11882381Y-119499285D02*
X11882381Y-120070714D01*
X11882381Y-119785000D02*
X10882381Y-119785000D01*
X11025238Y-119880238D01*
X11120476Y-119975476D01*
X11168095Y-120070714D01*
X99237143Y-41421666D02*
X99284762Y-41469285D01*
X99332381Y-41612142D01*
X99332381Y-41707380D01*
X99284762Y-41850238D01*
X99189524Y-41945476D01*
X99094286Y-41993095D01*
X98903810Y-42040714D01*
X98760952Y-42040714D01*
X98570476Y-41993095D01*
X98475238Y-41945476D01*
X98380000Y-41850238D01*
X98332381Y-41707380D01*
X98332381Y-41612142D01*
X98380000Y-41469285D01*
X98427619Y-41421666D01*
X98427619Y-41040714D02*
X98380000Y-40993095D01*
X98332381Y-40897857D01*
X98332381Y-40659761D01*
X98380000Y-40564523D01*
X98427619Y-40516904D01*
X98522857Y-40469285D01*
X98618095Y-40469285D01*
X98760952Y-40516904D01*
X99332381Y-41088333D01*
X99332381Y-40469285D01*
X93793334Y-26572143D02*
X93745715Y-26619762D01*
X93602858Y-26667381D01*
X93507620Y-26667381D01*
X93364762Y-26619762D01*
X93269524Y-26524524D01*
X93221905Y-26429286D01*
X93174286Y-26238810D01*
X93174286Y-26095952D01*
X93221905Y-25905476D01*
X93269524Y-25810238D01*
X93364762Y-25715000D01*
X93507620Y-25667381D01*
X93602858Y-25667381D01*
X93745715Y-25715000D01*
X93793334Y-25762619D01*
X94126667Y-25667381D02*
X94745715Y-25667381D01*
X94412381Y-26048333D01*
X94555239Y-26048333D01*
X94650477Y-26095952D01*
X94698096Y-26143571D01*
X94745715Y-26238810D01*
X94745715Y-26476905D01*
X94698096Y-26572143D01*
X94650477Y-26619762D01*
X94555239Y-26667381D01*
X94269524Y-26667381D01*
X94174286Y-26619762D01*
X94126667Y-26572143D01*
X67937143Y-167632143D02*
X67889524Y-167679762D01*
X67746667Y-167727381D01*
X67651429Y-167727381D01*
X67508571Y-167679762D01*
X67413333Y-167584524D01*
X67365714Y-167489286D01*
X67318095Y-167298810D01*
X67318095Y-167155952D01*
X67365714Y-166965476D01*
X67413333Y-166870238D01*
X67508571Y-166775000D01*
X67651429Y-166727381D01*
X67746667Y-166727381D01*
X67889524Y-166775000D01*
X67937143Y-166822619D01*
X68889524Y-167727381D02*
X68318095Y-167727381D01*
X68603809Y-167727381D02*
X68603809Y-166727381D01*
X68508571Y-166870238D01*
X68413333Y-166965476D01*
X68318095Y-167013095D01*
X69746667Y-167060714D02*
X69746667Y-167727381D01*
X69508571Y-166679762D02*
X69270476Y-167394048D01*
X69889524Y-167394048D01*
X70969048Y-168876429D02*
X71730953Y-168876429D01*
X71350001Y-169257381D02*
X71350001Y-168495476D01*
X66762143Y-191777857D02*
X66809762Y-191825476D01*
X66857381Y-191968333D01*
X66857381Y-192063571D01*
X66809762Y-192206429D01*
X66714524Y-192301667D01*
X66619286Y-192349286D01*
X66428810Y-192396905D01*
X66285952Y-192396905D01*
X66095476Y-192349286D01*
X66000238Y-192301667D01*
X65905000Y-192206429D01*
X65857381Y-192063571D01*
X65857381Y-191968333D01*
X65905000Y-191825476D01*
X65952619Y-191777857D01*
X66857381Y-190825476D02*
X66857381Y-191396905D01*
X66857381Y-191111191D02*
X65857381Y-191111191D01*
X66000238Y-191206429D01*
X66095476Y-191301667D01*
X66143095Y-191396905D01*
X65857381Y-190492143D02*
X65857381Y-189825476D01*
X66857381Y-190254048D01*
X64946429Y-194285952D02*
X64946429Y-193524047D01*
X65327381Y-193904999D02*
X64565476Y-193904999D01*
X48093334Y-167632143D02*
X48045715Y-167679762D01*
X47902858Y-167727381D01*
X47807620Y-167727381D01*
X47664762Y-167679762D01*
X47569524Y-167584524D01*
X47521905Y-167489286D01*
X47474286Y-167298810D01*
X47474286Y-167155952D01*
X47521905Y-166965476D01*
X47569524Y-166870238D01*
X47664762Y-166775000D01*
X47807620Y-166727381D01*
X47902858Y-166727381D01*
X48045715Y-166775000D01*
X48093334Y-166822619D01*
X48664762Y-167155952D02*
X48569524Y-167108333D01*
X48521905Y-167060714D01*
X48474286Y-166965476D01*
X48474286Y-166917857D01*
X48521905Y-166822619D01*
X48569524Y-166775000D01*
X48664762Y-166727381D01*
X48855239Y-166727381D01*
X48950477Y-166775000D01*
X48998096Y-166822619D01*
X49045715Y-166917857D01*
X49045715Y-166965476D01*
X48998096Y-167060714D01*
X48950477Y-167108333D01*
X48855239Y-167155952D01*
X48664762Y-167155952D01*
X48569524Y-167203571D01*
X48521905Y-167251190D01*
X48474286Y-167346429D01*
X48474286Y-167536905D01*
X48521905Y-167632143D01*
X48569524Y-167679762D01*
X48664762Y-167727381D01*
X48855239Y-167727381D01*
X48950477Y-167679762D01*
X48998096Y-167632143D01*
X49045715Y-167536905D01*
X49045715Y-167346429D01*
X48998096Y-167251190D01*
X48950477Y-167203571D01*
X48855239Y-167155952D01*
X50649048Y-168876429D02*
X51410953Y-168876429D01*
X51030001Y-169257381D02*
X51030001Y-168495476D01*
X67937143Y-200652143D02*
X67889524Y-200699762D01*
X67746667Y-200747381D01*
X67651429Y-200747381D01*
X67508571Y-200699762D01*
X67413333Y-200604524D01*
X67365714Y-200509286D01*
X67318095Y-200318810D01*
X67318095Y-200175952D01*
X67365714Y-199985476D01*
X67413333Y-199890238D01*
X67508571Y-199795000D01*
X67651429Y-199747381D01*
X67746667Y-199747381D01*
X67889524Y-199795000D01*
X67937143Y-199842619D01*
X68889524Y-200747381D02*
X68318095Y-200747381D01*
X68603809Y-200747381D02*
X68603809Y-199747381D01*
X68508571Y-199890238D01*
X68413333Y-199985476D01*
X68318095Y-200033095D01*
X69508571Y-199747381D02*
X69603810Y-199747381D01*
X69699048Y-199795000D01*
X69746667Y-199842619D01*
X69794286Y-199937857D01*
X69841905Y-200128333D01*
X69841905Y-200366429D01*
X69794286Y-200556905D01*
X69746667Y-200652143D01*
X69699048Y-200699762D01*
X69603810Y-200747381D01*
X69508571Y-200747381D01*
X69413333Y-200699762D01*
X69365714Y-200652143D01*
X69318095Y-200556905D01*
X69270476Y-200366429D01*
X69270476Y-200128333D01*
X69318095Y-199937857D01*
X69365714Y-199842619D01*
X69413333Y-199795000D01*
X69508571Y-199747381D01*
X70969048Y-201896429D02*
X71730953Y-201896429D01*
X71350001Y-202277381D02*
X71350001Y-201515476D01*
X66762143Y-224797857D02*
X66809762Y-224845476D01*
X66857381Y-224988333D01*
X66857381Y-225083571D01*
X66809762Y-225226429D01*
X66714524Y-225321667D01*
X66619286Y-225369286D01*
X66428810Y-225416905D01*
X66285952Y-225416905D01*
X66095476Y-225369286D01*
X66000238Y-225321667D01*
X65905000Y-225226429D01*
X65857381Y-225083571D01*
X65857381Y-224988333D01*
X65905000Y-224845476D01*
X65952619Y-224797857D01*
X66857381Y-223845476D02*
X66857381Y-224416905D01*
X66857381Y-224131191D02*
X65857381Y-224131191D01*
X66000238Y-224226429D01*
X66095476Y-224321667D01*
X66143095Y-224416905D01*
X65857381Y-223512143D02*
X65857381Y-222893095D01*
X66238333Y-223226429D01*
X66238333Y-223083571D01*
X66285952Y-222988333D01*
X66333571Y-222940714D01*
X66428810Y-222893095D01*
X66666905Y-222893095D01*
X66762143Y-222940714D01*
X66809762Y-222988333D01*
X66857381Y-223083571D01*
X66857381Y-223369286D01*
X66809762Y-223464524D01*
X66762143Y-223512143D01*
X64946429Y-227305952D02*
X64946429Y-226544047D01*
X65327381Y-226924999D02*
X64565476Y-226924999D01*
X48093334Y-200652143D02*
X48045715Y-200699762D01*
X47902858Y-200747381D01*
X47807620Y-200747381D01*
X47664762Y-200699762D01*
X47569524Y-200604524D01*
X47521905Y-200509286D01*
X47474286Y-200318810D01*
X47474286Y-200175952D01*
X47521905Y-199985476D01*
X47569524Y-199890238D01*
X47664762Y-199795000D01*
X47807620Y-199747381D01*
X47902858Y-199747381D01*
X48045715Y-199795000D01*
X48093334Y-199842619D01*
X48950477Y-199747381D02*
X48760000Y-199747381D01*
X48664762Y-199795000D01*
X48617143Y-199842619D01*
X48521905Y-199985476D01*
X48474286Y-200175952D01*
X48474286Y-200556905D01*
X48521905Y-200652143D01*
X48569524Y-200699762D01*
X48664762Y-200747381D01*
X48855239Y-200747381D01*
X48950477Y-200699762D01*
X48998096Y-200652143D01*
X49045715Y-200556905D01*
X49045715Y-200318810D01*
X48998096Y-200223571D01*
X48950477Y-200175952D01*
X48855239Y-200128333D01*
X48664762Y-200128333D01*
X48569524Y-200175952D01*
X48521905Y-200223571D01*
X48474286Y-200318810D01*
X50649048Y-201896429D02*
X51410953Y-201896429D01*
X51030001Y-202277381D02*
X51030001Y-201515476D01*
X58253334Y-207732143D02*
X58205715Y-207779762D01*
X58062858Y-207827381D01*
X57967620Y-207827381D01*
X57824762Y-207779762D01*
X57729524Y-207684524D01*
X57681905Y-207589286D01*
X57634286Y-207398810D01*
X57634286Y-207255952D01*
X57681905Y-207065476D01*
X57729524Y-206970238D01*
X57824762Y-206875000D01*
X57967620Y-206827381D01*
X58062858Y-206827381D01*
X58205715Y-206875000D01*
X58253334Y-206922619D01*
X59110477Y-207160714D02*
X59110477Y-207827381D01*
X58872381Y-206779762D02*
X58634286Y-207494048D01*
X59253334Y-207494048D01*
X55269048Y-205916429D02*
X56030953Y-205916429D01*
X55650001Y-206297381D02*
X55650001Y-205535476D01*
X58253334Y-174712143D02*
X58205715Y-174759762D01*
X58062858Y-174807381D01*
X57967620Y-174807381D01*
X57824762Y-174759762D01*
X57729524Y-174664524D01*
X57681905Y-174569286D01*
X57634286Y-174378810D01*
X57634286Y-174235952D01*
X57681905Y-174045476D01*
X57729524Y-173950238D01*
X57824762Y-173855000D01*
X57967620Y-173807381D01*
X58062858Y-173807381D01*
X58205715Y-173855000D01*
X58253334Y-173902619D01*
X59158096Y-173807381D02*
X58681905Y-173807381D01*
X58634286Y-174283571D01*
X58681905Y-174235952D01*
X58777143Y-174188333D01*
X59015239Y-174188333D01*
X59110477Y-174235952D01*
X59158096Y-174283571D01*
X59205715Y-174378810D01*
X59205715Y-174616905D01*
X59158096Y-174712143D01*
X59110477Y-174759762D01*
X59015239Y-174807381D01*
X58777143Y-174807381D01*
X58681905Y-174759762D01*
X58634286Y-174712143D01*
X55269048Y-172896429D02*
X56030953Y-172896429D01*
X55650001Y-173277381D02*
X55650001Y-172515476D01*
X87717143Y-191777857D02*
X87764762Y-191825476D01*
X87812381Y-191968333D01*
X87812381Y-192063571D01*
X87764762Y-192206429D01*
X87669524Y-192301667D01*
X87574286Y-192349286D01*
X87383810Y-192396905D01*
X87240952Y-192396905D01*
X87050476Y-192349286D01*
X86955238Y-192301667D01*
X86860000Y-192206429D01*
X86812381Y-192063571D01*
X86812381Y-191968333D01*
X86860000Y-191825476D01*
X86907619Y-191777857D01*
X87812381Y-190825476D02*
X87812381Y-191396905D01*
X87812381Y-191111191D02*
X86812381Y-191111191D01*
X86955238Y-191206429D01*
X87050476Y-191301667D01*
X87098095Y-191396905D01*
X87812381Y-190349286D02*
X87812381Y-190158810D01*
X87764762Y-190063571D01*
X87717143Y-190015952D01*
X87574286Y-189920714D01*
X87383810Y-189873095D01*
X87002857Y-189873095D01*
X86907619Y-189920714D01*
X86860000Y-189968333D01*
X86812381Y-190063571D01*
X86812381Y-190254048D01*
X86860000Y-190349286D01*
X86907619Y-190396905D01*
X87002857Y-190444524D01*
X87240952Y-190444524D01*
X87336190Y-190396905D01*
X87383810Y-190349286D01*
X87431429Y-190254048D01*
X87431429Y-190063571D01*
X87383810Y-189968333D01*
X87336190Y-189920714D01*
X87240952Y-189873095D01*
X85901429Y-194285952D02*
X85901429Y-193524047D01*
X86282381Y-193904999D02*
X85520476Y-193904999D01*
X78097143Y-167632143D02*
X78049524Y-167679762D01*
X77906667Y-167727381D01*
X77811429Y-167727381D01*
X77668571Y-167679762D01*
X77573333Y-167584524D01*
X77525714Y-167489286D01*
X77478095Y-167298810D01*
X77478095Y-167155952D01*
X77525714Y-166965476D01*
X77573333Y-166870238D01*
X77668571Y-166775000D01*
X77811429Y-166727381D01*
X77906667Y-166727381D01*
X78049524Y-166775000D01*
X78097143Y-166822619D01*
X78478095Y-166822619D02*
X78525714Y-166775000D01*
X78620952Y-166727381D01*
X78859048Y-166727381D01*
X78954286Y-166775000D01*
X79001905Y-166822619D01*
X79049524Y-166917857D01*
X79049524Y-167013095D01*
X79001905Y-167155952D01*
X78430476Y-167727381D01*
X79049524Y-167727381D01*
X80001905Y-167727381D02*
X79430476Y-167727381D01*
X79716190Y-167727381D02*
X79716190Y-166727381D01*
X79620952Y-166870238D01*
X79525714Y-166965476D01*
X79430476Y-167013095D01*
X81129048Y-168876429D02*
X81890953Y-168876429D01*
X81510001Y-169257381D02*
X81510001Y-168495476D01*
X87717143Y-224797857D02*
X87764762Y-224845476D01*
X87812381Y-224988333D01*
X87812381Y-225083571D01*
X87764762Y-225226429D01*
X87669524Y-225321667D01*
X87574286Y-225369286D01*
X87383810Y-225416905D01*
X87240952Y-225416905D01*
X87050476Y-225369286D01*
X86955238Y-225321667D01*
X86860000Y-225226429D01*
X86812381Y-225083571D01*
X86812381Y-224988333D01*
X86860000Y-224845476D01*
X86907619Y-224797857D01*
X87812381Y-223845476D02*
X87812381Y-224416905D01*
X87812381Y-224131191D02*
X86812381Y-224131191D01*
X86955238Y-224226429D01*
X87050476Y-224321667D01*
X87098095Y-224416905D01*
X87240952Y-223274048D02*
X87193333Y-223369286D01*
X87145714Y-223416905D01*
X87050476Y-223464524D01*
X87002857Y-223464524D01*
X86907619Y-223416905D01*
X86860000Y-223369286D01*
X86812381Y-223274048D01*
X86812381Y-223083571D01*
X86860000Y-222988333D01*
X86907619Y-222940714D01*
X87002857Y-222893095D01*
X87050476Y-222893095D01*
X87145714Y-222940714D01*
X87193333Y-222988333D01*
X87240952Y-223083571D01*
X87240952Y-223274048D01*
X87288571Y-223369286D01*
X87336190Y-223416905D01*
X87431429Y-223464524D01*
X87621905Y-223464524D01*
X87717143Y-223416905D01*
X87764762Y-223369286D01*
X87812381Y-223274048D01*
X87812381Y-223083571D01*
X87764762Y-222988333D01*
X87717143Y-222940714D01*
X87621905Y-222893095D01*
X87431429Y-222893095D01*
X87336190Y-222940714D01*
X87288571Y-222988333D01*
X87240952Y-223083571D01*
X85901429Y-227305952D02*
X85901429Y-226544047D01*
X86282381Y-226924999D02*
X85520476Y-226924999D01*
X78097143Y-200652143D02*
X78049524Y-200699762D01*
X77906667Y-200747381D01*
X77811429Y-200747381D01*
X77668571Y-200699762D01*
X77573333Y-200604524D01*
X77525714Y-200509286D01*
X77478095Y-200318810D01*
X77478095Y-200175952D01*
X77525714Y-199985476D01*
X77573333Y-199890238D01*
X77668571Y-199795000D01*
X77811429Y-199747381D01*
X77906667Y-199747381D01*
X78049524Y-199795000D01*
X78097143Y-199842619D01*
X78478095Y-199842619D02*
X78525714Y-199795000D01*
X78620952Y-199747381D01*
X78859048Y-199747381D01*
X78954286Y-199795000D01*
X79001905Y-199842619D01*
X79049524Y-199937857D01*
X79049524Y-200033095D01*
X79001905Y-200175952D01*
X78430476Y-200747381D01*
X79049524Y-200747381D01*
X79668571Y-199747381D02*
X79763810Y-199747381D01*
X79859048Y-199795000D01*
X79906667Y-199842619D01*
X79954286Y-199937857D01*
X80001905Y-200128333D01*
X80001905Y-200366429D01*
X79954286Y-200556905D01*
X79906667Y-200652143D01*
X79859048Y-200699762D01*
X79763810Y-200747381D01*
X79668571Y-200747381D01*
X79573333Y-200699762D01*
X79525714Y-200652143D01*
X79478095Y-200556905D01*
X79430476Y-200366429D01*
X79430476Y-200128333D01*
X79478095Y-199937857D01*
X79525714Y-199842619D01*
X79573333Y-199795000D01*
X79668571Y-199747381D01*
X81129048Y-201896429D02*
X81890953Y-201896429D01*
X81510001Y-202277381D02*
X81510001Y-201515476D01*
X170807143Y-229322143D02*
X170759524Y-229369762D01*
X170616667Y-229417381D01*
X170521429Y-229417381D01*
X170378571Y-229369762D01*
X170283333Y-229274524D01*
X170235714Y-229179286D01*
X170188095Y-228988810D01*
X170188095Y-228845952D01*
X170235714Y-228655476D01*
X170283333Y-228560238D01*
X170378571Y-228465000D01*
X170521429Y-228417381D01*
X170616667Y-228417381D01*
X170759524Y-228465000D01*
X170807143Y-228512619D01*
X171140476Y-228417381D02*
X171759524Y-228417381D01*
X171426190Y-228798333D01*
X171569048Y-228798333D01*
X171664286Y-228845952D01*
X171711905Y-228893571D01*
X171759524Y-228988810D01*
X171759524Y-229226905D01*
X171711905Y-229322143D01*
X171664286Y-229369762D01*
X171569048Y-229417381D01*
X171283333Y-229417381D01*
X171188095Y-229369762D01*
X171140476Y-229322143D01*
X172140476Y-228512619D02*
X172188095Y-228465000D01*
X172283333Y-228417381D01*
X172521429Y-228417381D01*
X172616667Y-228465000D01*
X172664286Y-228512619D01*
X172711905Y-228607857D01*
X172711905Y-228703095D01*
X172664286Y-228845952D01*
X172092857Y-229417381D01*
X172711905Y-229417381D01*
X168299048Y-227506429D02*
X169060953Y-227506429D01*
X168680001Y-227887381D02*
X168680001Y-227125476D01*
X173982143Y-205747857D02*
X174029762Y-205795476D01*
X174077381Y-205938333D01*
X174077381Y-206033571D01*
X174029762Y-206176429D01*
X173934524Y-206271667D01*
X173839286Y-206319286D01*
X173648810Y-206366905D01*
X173505952Y-206366905D01*
X173315476Y-206319286D01*
X173220238Y-206271667D01*
X173125000Y-206176429D01*
X173077381Y-206033571D01*
X173077381Y-205938333D01*
X173125000Y-205795476D01*
X173172619Y-205747857D01*
X173077381Y-205414524D02*
X173077381Y-204795476D01*
X173458333Y-205128810D01*
X173458333Y-204985952D01*
X173505952Y-204890714D01*
X173553571Y-204843095D01*
X173648810Y-204795476D01*
X173886905Y-204795476D01*
X173982143Y-204843095D01*
X174029762Y-204890714D01*
X174077381Y-204985952D01*
X174077381Y-205271667D01*
X174029762Y-205366905D01*
X173982143Y-205414524D01*
X173077381Y-203890714D02*
X173077381Y-204366905D01*
X173553571Y-204414524D01*
X173505952Y-204366905D01*
X173458333Y-204271667D01*
X173458333Y-204033571D01*
X173505952Y-203938333D01*
X173553571Y-203890714D01*
X173648810Y-203843095D01*
X173886905Y-203843095D01*
X173982143Y-203890714D01*
X174029762Y-203938333D01*
X174077381Y-204033571D01*
X174077381Y-204271667D01*
X174029762Y-204366905D01*
X173982143Y-204414524D01*
X175226429Y-202715952D02*
X175226429Y-201954047D01*
X175607381Y-202334999D02*
X174845476Y-202334999D01*
X191127143Y-229322143D02*
X191079524Y-229369762D01*
X190936667Y-229417381D01*
X190841429Y-229417381D01*
X190698571Y-229369762D01*
X190603333Y-229274524D01*
X190555714Y-229179286D01*
X190508095Y-228988810D01*
X190508095Y-228845952D01*
X190555714Y-228655476D01*
X190603333Y-228560238D01*
X190698571Y-228465000D01*
X190841429Y-228417381D01*
X190936667Y-228417381D01*
X191079524Y-228465000D01*
X191127143Y-228512619D01*
X191508095Y-228512619D02*
X191555714Y-228465000D01*
X191650952Y-228417381D01*
X191889048Y-228417381D01*
X191984286Y-228465000D01*
X192031905Y-228512619D01*
X192079524Y-228607857D01*
X192079524Y-228703095D01*
X192031905Y-228845952D01*
X191460476Y-229417381D01*
X192079524Y-229417381D01*
X192936667Y-228417381D02*
X192746190Y-228417381D01*
X192650952Y-228465000D01*
X192603333Y-228512619D01*
X192508095Y-228655476D01*
X192460476Y-228845952D01*
X192460476Y-229226905D01*
X192508095Y-229322143D01*
X192555714Y-229369762D01*
X192650952Y-229417381D01*
X192841429Y-229417381D01*
X192936667Y-229369762D01*
X192984286Y-229322143D01*
X193031905Y-229226905D01*
X193031905Y-228988810D01*
X192984286Y-228893571D01*
X192936667Y-228845952D01*
X192841429Y-228798333D01*
X192650952Y-228798333D01*
X192555714Y-228845952D01*
X192508095Y-228893571D01*
X192460476Y-228988810D01*
X188619048Y-227506429D02*
X189380953Y-227506429D01*
X189000001Y-227887381D02*
X189000001Y-227125476D01*
X170807143Y-196302143D02*
X170759524Y-196349762D01*
X170616667Y-196397381D01*
X170521429Y-196397381D01*
X170378571Y-196349762D01*
X170283333Y-196254524D01*
X170235714Y-196159286D01*
X170188095Y-195968810D01*
X170188095Y-195825952D01*
X170235714Y-195635476D01*
X170283333Y-195540238D01*
X170378571Y-195445000D01*
X170521429Y-195397381D01*
X170616667Y-195397381D01*
X170759524Y-195445000D01*
X170807143Y-195492619D01*
X171188095Y-195492619D02*
X171235714Y-195445000D01*
X171330952Y-195397381D01*
X171569048Y-195397381D01*
X171664286Y-195445000D01*
X171711905Y-195492619D01*
X171759524Y-195587857D01*
X171759524Y-195683095D01*
X171711905Y-195825952D01*
X171140476Y-196397381D01*
X171759524Y-196397381D01*
X172330952Y-195825952D02*
X172235714Y-195778333D01*
X172188095Y-195730714D01*
X172140476Y-195635476D01*
X172140476Y-195587857D01*
X172188095Y-195492619D01*
X172235714Y-195445000D01*
X172330952Y-195397381D01*
X172521429Y-195397381D01*
X172616667Y-195445000D01*
X172664286Y-195492619D01*
X172711905Y-195587857D01*
X172711905Y-195635476D01*
X172664286Y-195730714D01*
X172616667Y-195778333D01*
X172521429Y-195825952D01*
X172330952Y-195825952D01*
X172235714Y-195873571D01*
X172188095Y-195921190D01*
X172140476Y-196016429D01*
X172140476Y-196206905D01*
X172188095Y-196302143D01*
X172235714Y-196349762D01*
X172330952Y-196397381D01*
X172521429Y-196397381D01*
X172616667Y-196349762D01*
X172664286Y-196302143D01*
X172711905Y-196206905D01*
X172711905Y-196016429D01*
X172664286Y-195921190D01*
X172616667Y-195873571D01*
X172521429Y-195825952D01*
X168299048Y-194486429D02*
X169060953Y-194486429D01*
X168680001Y-194867381D02*
X168680001Y-194105476D01*
X173982143Y-172727857D02*
X174029762Y-172775476D01*
X174077381Y-172918333D01*
X174077381Y-173013571D01*
X174029762Y-173156429D01*
X173934524Y-173251667D01*
X173839286Y-173299286D01*
X173648810Y-173346905D01*
X173505952Y-173346905D01*
X173315476Y-173299286D01*
X173220238Y-173251667D01*
X173125000Y-173156429D01*
X173077381Y-173013571D01*
X173077381Y-172918333D01*
X173125000Y-172775476D01*
X173172619Y-172727857D01*
X173077381Y-172394524D02*
X173077381Y-171775476D01*
X173458333Y-172108810D01*
X173458333Y-171965952D01*
X173505952Y-171870714D01*
X173553571Y-171823095D01*
X173648810Y-171775476D01*
X173886905Y-171775476D01*
X173982143Y-171823095D01*
X174029762Y-171870714D01*
X174077381Y-171965952D01*
X174077381Y-172251667D01*
X174029762Y-172346905D01*
X173982143Y-172394524D01*
X174077381Y-170823095D02*
X174077381Y-171394524D01*
X174077381Y-171108810D02*
X173077381Y-171108810D01*
X173220238Y-171204048D01*
X173315476Y-171299286D01*
X173363095Y-171394524D01*
X175226429Y-169695952D02*
X175226429Y-168934047D01*
X175607381Y-169314999D02*
X174845476Y-169314999D01*
X191127143Y-196302143D02*
X191079524Y-196349762D01*
X190936667Y-196397381D01*
X190841429Y-196397381D01*
X190698571Y-196349762D01*
X190603333Y-196254524D01*
X190555714Y-196159286D01*
X190508095Y-195968810D01*
X190508095Y-195825952D01*
X190555714Y-195635476D01*
X190603333Y-195540238D01*
X190698571Y-195445000D01*
X190841429Y-195397381D01*
X190936667Y-195397381D01*
X191079524Y-195445000D01*
X191127143Y-195492619D01*
X191508095Y-195492619D02*
X191555714Y-195445000D01*
X191650952Y-195397381D01*
X191889048Y-195397381D01*
X191984286Y-195445000D01*
X192031905Y-195492619D01*
X192079524Y-195587857D01*
X192079524Y-195683095D01*
X192031905Y-195825952D01*
X191460476Y-196397381D01*
X192079524Y-196397381D01*
X192936667Y-195730714D02*
X192936667Y-196397381D01*
X192698571Y-195349762D02*
X192460476Y-196064048D01*
X193079524Y-196064048D01*
X188619048Y-194486429D02*
X189380953Y-194486429D01*
X189000001Y-194867381D02*
X189000001Y-194105476D01*
X180967143Y-189222143D02*
X180919524Y-189269762D01*
X180776667Y-189317381D01*
X180681429Y-189317381D01*
X180538571Y-189269762D01*
X180443333Y-189174524D01*
X180395714Y-189079286D01*
X180348095Y-188888810D01*
X180348095Y-188745952D01*
X180395714Y-188555476D01*
X180443333Y-188460238D01*
X180538571Y-188365000D01*
X180681429Y-188317381D01*
X180776667Y-188317381D01*
X180919524Y-188365000D01*
X180967143Y-188412619D01*
X181348095Y-188412619D02*
X181395714Y-188365000D01*
X181490952Y-188317381D01*
X181729048Y-188317381D01*
X181824286Y-188365000D01*
X181871905Y-188412619D01*
X181919524Y-188507857D01*
X181919524Y-188603095D01*
X181871905Y-188745952D01*
X181300476Y-189317381D01*
X181919524Y-189317381D01*
X182300476Y-188412619D02*
X182348095Y-188365000D01*
X182443333Y-188317381D01*
X182681429Y-188317381D01*
X182776667Y-188365000D01*
X182824286Y-188412619D01*
X182871905Y-188507857D01*
X182871905Y-188603095D01*
X182824286Y-188745952D01*
X182252857Y-189317381D01*
X182871905Y-189317381D01*
X183999048Y-190466429D02*
X184760953Y-190466429D01*
X184380001Y-190847381D02*
X184380001Y-190085476D01*
X180967143Y-222242143D02*
X180919524Y-222289762D01*
X180776667Y-222337381D01*
X180681429Y-222337381D01*
X180538571Y-222289762D01*
X180443333Y-222194524D01*
X180395714Y-222099286D01*
X180348095Y-221908810D01*
X180348095Y-221765952D01*
X180395714Y-221575476D01*
X180443333Y-221480238D01*
X180538571Y-221385000D01*
X180681429Y-221337381D01*
X180776667Y-221337381D01*
X180919524Y-221385000D01*
X180967143Y-221432619D01*
X181348095Y-221432619D02*
X181395714Y-221385000D01*
X181490952Y-221337381D01*
X181729048Y-221337381D01*
X181824286Y-221385000D01*
X181871905Y-221432619D01*
X181919524Y-221527857D01*
X181919524Y-221623095D01*
X181871905Y-221765952D01*
X181300476Y-222337381D01*
X181919524Y-222337381D01*
X182252857Y-221337381D02*
X182871905Y-221337381D01*
X182538571Y-221718333D01*
X182681429Y-221718333D01*
X182776667Y-221765952D01*
X182824286Y-221813571D01*
X182871905Y-221908810D01*
X182871905Y-222146905D01*
X182824286Y-222242143D01*
X182776667Y-222289762D01*
X182681429Y-222337381D01*
X182395714Y-222337381D01*
X182300476Y-222289762D01*
X182252857Y-222242143D01*
X183999048Y-223486429D02*
X184760953Y-223486429D01*
X184380001Y-223867381D02*
X184380001Y-223105476D01*
X153027143Y-205747857D02*
X153074762Y-205795476D01*
X153122381Y-205938333D01*
X153122381Y-206033571D01*
X153074762Y-206176429D01*
X152979524Y-206271667D01*
X152884286Y-206319286D01*
X152693810Y-206366905D01*
X152550952Y-206366905D01*
X152360476Y-206319286D01*
X152265238Y-206271667D01*
X152170000Y-206176429D01*
X152122381Y-206033571D01*
X152122381Y-205938333D01*
X152170000Y-205795476D01*
X152217619Y-205747857D01*
X152122381Y-205414524D02*
X152122381Y-204795476D01*
X152503333Y-205128810D01*
X152503333Y-204985952D01*
X152550952Y-204890714D01*
X152598571Y-204843095D01*
X152693810Y-204795476D01*
X152931905Y-204795476D01*
X153027143Y-204843095D01*
X153074762Y-204890714D01*
X153122381Y-204985952D01*
X153122381Y-205271667D01*
X153074762Y-205366905D01*
X153027143Y-205414524D01*
X152122381Y-204462143D02*
X152122381Y-203795476D01*
X153122381Y-204224048D01*
X154271429Y-202715952D02*
X154271429Y-201954047D01*
X154652381Y-202334999D02*
X153890476Y-202334999D01*
X160647143Y-229322143D02*
X160599524Y-229369762D01*
X160456667Y-229417381D01*
X160361429Y-229417381D01*
X160218571Y-229369762D01*
X160123333Y-229274524D01*
X160075714Y-229179286D01*
X160028095Y-228988810D01*
X160028095Y-228845952D01*
X160075714Y-228655476D01*
X160123333Y-228560238D01*
X160218571Y-228465000D01*
X160361429Y-228417381D01*
X160456667Y-228417381D01*
X160599524Y-228465000D01*
X160647143Y-228512619D01*
X160980476Y-228417381D02*
X161599524Y-228417381D01*
X161266190Y-228798333D01*
X161409048Y-228798333D01*
X161504286Y-228845952D01*
X161551905Y-228893571D01*
X161599524Y-228988810D01*
X161599524Y-229226905D01*
X161551905Y-229322143D01*
X161504286Y-229369762D01*
X161409048Y-229417381D01*
X161123333Y-229417381D01*
X161028095Y-229369762D01*
X160980476Y-229322143D01*
X162075714Y-229417381D02*
X162266190Y-229417381D01*
X162361429Y-229369762D01*
X162409048Y-229322143D01*
X162504286Y-229179286D01*
X162551905Y-228988810D01*
X162551905Y-228607857D01*
X162504286Y-228512619D01*
X162456667Y-228465000D01*
X162361429Y-228417381D01*
X162170952Y-228417381D01*
X162075714Y-228465000D01*
X162028095Y-228512619D01*
X161980476Y-228607857D01*
X161980476Y-228845952D01*
X162028095Y-228941190D01*
X162075714Y-228988810D01*
X162170952Y-229036429D01*
X162361429Y-229036429D01*
X162456667Y-228988810D01*
X162504286Y-228941190D01*
X162551905Y-228845952D01*
X158139048Y-227506429D02*
X158900953Y-227506429D01*
X158520001Y-227887381D02*
X158520001Y-227125476D01*
X153027143Y-172727857D02*
X153074762Y-172775476D01*
X153122381Y-172918333D01*
X153122381Y-173013571D01*
X153074762Y-173156429D01*
X152979524Y-173251667D01*
X152884286Y-173299286D01*
X152693810Y-173346905D01*
X152550952Y-173346905D01*
X152360476Y-173299286D01*
X152265238Y-173251667D01*
X152170000Y-173156429D01*
X152122381Y-173013571D01*
X152122381Y-172918333D01*
X152170000Y-172775476D01*
X152217619Y-172727857D01*
X152122381Y-172394524D02*
X152122381Y-171775476D01*
X152503333Y-172108810D01*
X152503333Y-171965952D01*
X152550952Y-171870714D01*
X152598571Y-171823095D01*
X152693810Y-171775476D01*
X152931905Y-171775476D01*
X153027143Y-171823095D01*
X153074762Y-171870714D01*
X153122381Y-171965952D01*
X153122381Y-172251667D01*
X153074762Y-172346905D01*
X153027143Y-172394524D01*
X152122381Y-170918333D02*
X152122381Y-171108810D01*
X152170000Y-171204048D01*
X152217619Y-171251667D01*
X152360476Y-171346905D01*
X152550952Y-171394524D01*
X152931905Y-171394524D01*
X153027143Y-171346905D01*
X153074762Y-171299286D01*
X153122381Y-171204048D01*
X153122381Y-171013571D01*
X153074762Y-170918333D01*
X153027143Y-170870714D01*
X152931905Y-170823095D01*
X152693810Y-170823095D01*
X152598571Y-170870714D01*
X152550952Y-170918333D01*
X152503333Y-171013571D01*
X152503333Y-171204048D01*
X152550952Y-171299286D01*
X152598571Y-171346905D01*
X152693810Y-171394524D01*
X154271429Y-169695952D02*
X154271429Y-168934047D01*
X154652381Y-169314999D02*
X153890476Y-169314999D01*
X160647143Y-196302143D02*
X160599524Y-196349762D01*
X160456667Y-196397381D01*
X160361429Y-196397381D01*
X160218571Y-196349762D01*
X160123333Y-196254524D01*
X160075714Y-196159286D01*
X160028095Y-195968810D01*
X160028095Y-195825952D01*
X160075714Y-195635476D01*
X160123333Y-195540238D01*
X160218571Y-195445000D01*
X160361429Y-195397381D01*
X160456667Y-195397381D01*
X160599524Y-195445000D01*
X160647143Y-195492619D01*
X160980476Y-195397381D02*
X161599524Y-195397381D01*
X161266190Y-195778333D01*
X161409048Y-195778333D01*
X161504286Y-195825952D01*
X161551905Y-195873571D01*
X161599524Y-195968810D01*
X161599524Y-196206905D01*
X161551905Y-196302143D01*
X161504286Y-196349762D01*
X161409048Y-196397381D01*
X161123333Y-196397381D01*
X161028095Y-196349762D01*
X160980476Y-196302143D01*
X162170952Y-195825952D02*
X162075714Y-195778333D01*
X162028095Y-195730714D01*
X161980476Y-195635476D01*
X161980476Y-195587857D01*
X162028095Y-195492619D01*
X162075714Y-195445000D01*
X162170952Y-195397381D01*
X162361429Y-195397381D01*
X162456667Y-195445000D01*
X162504286Y-195492619D01*
X162551905Y-195587857D01*
X162551905Y-195635476D01*
X162504286Y-195730714D01*
X162456667Y-195778333D01*
X162361429Y-195825952D01*
X162170952Y-195825952D01*
X162075714Y-195873571D01*
X162028095Y-195921190D01*
X161980476Y-196016429D01*
X161980476Y-196206905D01*
X162028095Y-196302143D01*
X162075714Y-196349762D01*
X162170952Y-196397381D01*
X162361429Y-196397381D01*
X162456667Y-196349762D01*
X162504286Y-196302143D01*
X162551905Y-196206905D01*
X162551905Y-196016429D01*
X162504286Y-195921190D01*
X162456667Y-195873571D01*
X162361429Y-195825952D01*
X158139048Y-194486429D02*
X158900953Y-194486429D01*
X158520001Y-194867381D02*
X158520001Y-194105476D01*
X64222143Y-135897857D02*
X64269762Y-135945476D01*
X64317381Y-136088333D01*
X64317381Y-136183571D01*
X64269762Y-136326429D01*
X64174524Y-136421667D01*
X64079286Y-136469286D01*
X63888810Y-136516905D01*
X63745952Y-136516905D01*
X63555476Y-136469286D01*
X63460238Y-136421667D01*
X63365000Y-136326429D01*
X63317381Y-136183571D01*
X63317381Y-136088333D01*
X63365000Y-135945476D01*
X63412619Y-135897857D01*
X63650714Y-135040714D02*
X64317381Y-135040714D01*
X63269762Y-135278810D02*
X63984048Y-135516905D01*
X63984048Y-134897857D01*
X63412619Y-134564524D02*
X63365000Y-134516905D01*
X63317381Y-134421667D01*
X63317381Y-134183571D01*
X63365000Y-134088333D01*
X63412619Y-134040714D01*
X63507857Y-133993095D01*
X63603095Y-133993095D01*
X63745952Y-134040714D01*
X64317381Y-134612143D01*
X64317381Y-133993095D01*
X62406429Y-138405952D02*
X62406429Y-137644047D01*
X62787381Y-138024999D02*
X62025476Y-138024999D01*
X34282143Y-165187143D02*
X34234524Y-165234762D01*
X34091667Y-165282381D01*
X33996429Y-165282381D01*
X33853571Y-165234762D01*
X33758333Y-165139524D01*
X33710714Y-165044286D01*
X33663095Y-164853810D01*
X33663095Y-164710952D01*
X33710714Y-164520476D01*
X33758333Y-164425238D01*
X33853571Y-164330000D01*
X33996429Y-164282381D01*
X34091667Y-164282381D01*
X34234524Y-164330000D01*
X34282143Y-164377619D01*
X35139286Y-164615714D02*
X35139286Y-165282381D01*
X34901190Y-164234762D02*
X34663095Y-164949048D01*
X35282143Y-164949048D01*
X35567857Y-164282381D02*
X36186905Y-164282381D01*
X35853571Y-164663333D01*
X35996429Y-164663333D01*
X36091667Y-164710952D01*
X36139286Y-164758571D01*
X36186905Y-164853810D01*
X36186905Y-165091905D01*
X36139286Y-165187143D01*
X36091667Y-165234762D01*
X35996429Y-165282381D01*
X35710714Y-165282381D01*
X35615476Y-165234762D01*
X35567857Y-165187143D01*
X31774048Y-163371429D02*
X32535953Y-163371429D01*
X32155001Y-163752381D02*
X32155001Y-162990476D01*
X81907143Y-125102857D02*
X81954762Y-125150476D01*
X82002381Y-125293333D01*
X82002381Y-125388571D01*
X81954762Y-125531429D01*
X81859524Y-125626667D01*
X81764286Y-125674286D01*
X81573810Y-125721905D01*
X81430952Y-125721905D01*
X81240476Y-125674286D01*
X81145238Y-125626667D01*
X81050000Y-125531429D01*
X81002381Y-125388571D01*
X81002381Y-125293333D01*
X81050000Y-125150476D01*
X81097619Y-125102857D01*
X81335714Y-124245714D02*
X82002381Y-124245714D01*
X80954762Y-124483810D02*
X81669048Y-124721905D01*
X81669048Y-124102857D01*
X81335714Y-123293333D02*
X82002381Y-123293333D01*
X80954762Y-123531429D02*
X81669048Y-123769524D01*
X81669048Y-123150476D01*
X83151429Y-122070952D02*
X83151429Y-121309047D01*
X83532381Y-121689999D02*
X82770476Y-121689999D01*
X75017143Y-147962857D02*
X75064762Y-148010476D01*
X75112381Y-148153333D01*
X75112381Y-148248571D01*
X75064762Y-148391429D01*
X74969524Y-148486667D01*
X74874286Y-148534286D01*
X74683810Y-148581905D01*
X74540952Y-148581905D01*
X74350476Y-148534286D01*
X74255238Y-148486667D01*
X74160000Y-148391429D01*
X74112381Y-148248571D01*
X74112381Y-148153333D01*
X74160000Y-148010476D01*
X74207619Y-147962857D01*
X74445714Y-147105714D02*
X75112381Y-147105714D01*
X74064762Y-147343810D02*
X74779048Y-147581905D01*
X74779048Y-146962857D01*
X74112381Y-146105714D02*
X74112381Y-146581905D01*
X74588571Y-146629524D01*
X74540952Y-146581905D01*
X74493333Y-146486667D01*
X74493333Y-146248571D01*
X74540952Y-146153333D01*
X74588571Y-146105714D01*
X74683810Y-146058095D01*
X74921905Y-146058095D01*
X75017143Y-146105714D01*
X75064762Y-146153333D01*
X75112381Y-146248571D01*
X75112381Y-146486667D01*
X75064762Y-146581905D01*
X75017143Y-146629524D01*
X73201429Y-150470952D02*
X73201429Y-149709047D01*
X73582381Y-150089999D02*
X72820476Y-150089999D01*
X115403334Y-208367143D02*
X115355715Y-208414762D01*
X115212858Y-208462381D01*
X115117620Y-208462381D01*
X114974762Y-208414762D01*
X114879524Y-208319524D01*
X114831905Y-208224286D01*
X114784286Y-208033810D01*
X114784286Y-207890952D01*
X114831905Y-207700476D01*
X114879524Y-207605238D01*
X114974762Y-207510000D01*
X115117620Y-207462381D01*
X115212858Y-207462381D01*
X115355715Y-207510000D01*
X115403334Y-207557619D01*
X116355715Y-208462381D02*
X115784286Y-208462381D01*
X116070000Y-208462381D02*
X116070000Y-207462381D01*
X115974762Y-207605238D01*
X115879524Y-207700476D01*
X115784286Y-207748095D01*
X112419048Y-206551429D02*
X113180953Y-206551429D01*
X112800001Y-206932381D02*
X112800001Y-206170476D01*
X61154881Y-80660833D02*
X61869167Y-80660833D01*
X62012024Y-80708453D01*
X62107262Y-80803691D01*
X62154881Y-80946548D01*
X62154881Y-81041786D01*
X62154881Y-79660833D02*
X62154881Y-80232262D01*
X62154881Y-79946548D02*
X61154881Y-79946548D01*
X61297738Y-80041786D01*
X61392976Y-80137024D01*
X61440595Y-80232262D01*
X25066667Y-203712381D02*
X25066667Y-204426667D01*
X25019047Y-204569524D01*
X24923809Y-204664762D01*
X24780952Y-204712381D01*
X24685714Y-204712381D01*
X25495238Y-203807619D02*
X25542857Y-203760000D01*
X25638095Y-203712381D01*
X25876191Y-203712381D01*
X25971429Y-203760000D01*
X26019048Y-203807619D01*
X26066667Y-203902857D01*
X26066667Y-203998095D01*
X26019048Y-204140952D01*
X25447619Y-204712381D01*
X26066667Y-204712381D01*
X133254762Y-198072619D02*
X133159524Y-198025000D01*
X133064286Y-197929762D01*
X132921429Y-197786905D01*
X132826190Y-197739286D01*
X132730952Y-197739286D01*
X132778571Y-197977381D02*
X132683333Y-197929762D01*
X132588095Y-197834524D01*
X132540476Y-197644048D01*
X132540476Y-197310714D01*
X132588095Y-197120238D01*
X132683333Y-197025000D01*
X132778571Y-196977381D01*
X132969048Y-196977381D01*
X133064286Y-197025000D01*
X133159524Y-197120238D01*
X133207143Y-197310714D01*
X133207143Y-197644048D01*
X133159524Y-197834524D01*
X133064286Y-197929762D01*
X132969048Y-197977381D01*
X132778571Y-197977381D01*
X134159524Y-197977381D02*
X133588095Y-197977381D01*
X133873809Y-197977381D02*
X133873809Y-196977381D01*
X133778571Y-197120238D01*
X133683333Y-197215476D01*
X133588095Y-197263095D01*
X148407381Y-44457857D02*
X147931190Y-44791191D01*
X148407381Y-45029286D02*
X147407381Y-45029286D01*
X147407381Y-44648333D01*
X147455000Y-44553095D01*
X147502619Y-44505476D01*
X147597857Y-44457857D01*
X147740714Y-44457857D01*
X147835952Y-44505476D01*
X147883571Y-44553095D01*
X147931190Y-44648333D01*
X147931190Y-45029286D01*
X147502619Y-44076905D02*
X147455000Y-44029286D01*
X147407381Y-43934048D01*
X147407381Y-43695952D01*
X147455000Y-43600714D01*
X147502619Y-43553095D01*
X147597857Y-43505476D01*
X147693095Y-43505476D01*
X147835952Y-43553095D01*
X148407381Y-44124524D01*
X148407381Y-43505476D01*
X147740714Y-42648333D02*
X148407381Y-42648333D01*
X147359762Y-42886429D02*
X148074048Y-43124524D01*
X148074048Y-42505476D01*
X148407381Y-38742857D02*
X147931190Y-39076191D01*
X148407381Y-39314286D02*
X147407381Y-39314286D01*
X147407381Y-38933333D01*
X147455000Y-38838095D01*
X147502619Y-38790476D01*
X147597857Y-38742857D01*
X147740714Y-38742857D01*
X147835952Y-38790476D01*
X147883571Y-38838095D01*
X147931190Y-38933333D01*
X147931190Y-39314286D01*
X147502619Y-38361905D02*
X147455000Y-38314286D01*
X147407381Y-38219048D01*
X147407381Y-37980952D01*
X147455000Y-37885714D01*
X147502619Y-37838095D01*
X147597857Y-37790476D01*
X147693095Y-37790476D01*
X147835952Y-37838095D01*
X148407381Y-38409524D01*
X148407381Y-37790476D01*
X147407381Y-36885714D02*
X147407381Y-37361905D01*
X147883571Y-37409524D01*
X147835952Y-37361905D01*
X147788333Y-37266667D01*
X147788333Y-37028571D01*
X147835952Y-36933333D01*
X147883571Y-36885714D01*
X147978810Y-36838095D01*
X148216905Y-36838095D01*
X148312143Y-36885714D01*
X148359762Y-36933333D01*
X148407381Y-37028571D01*
X148407381Y-37266667D01*
X148359762Y-37361905D01*
X148312143Y-37409524D01*
X50157143Y-40512381D02*
X49823809Y-40036190D01*
X49585714Y-40512381D02*
X49585714Y-39512381D01*
X49966667Y-39512381D01*
X50061905Y-39560000D01*
X50109524Y-39607619D01*
X50157143Y-39702857D01*
X50157143Y-39845714D01*
X50109524Y-39940952D01*
X50061905Y-39988571D01*
X49966667Y-40036190D01*
X49585714Y-40036190D01*
X51109524Y-40512381D02*
X50538095Y-40512381D01*
X50823809Y-40512381D02*
X50823809Y-39512381D01*
X50728571Y-39655238D01*
X50633333Y-39750476D01*
X50538095Y-39798095D01*
X52061905Y-40512381D02*
X51490476Y-40512381D01*
X51776190Y-40512381D02*
X51776190Y-39512381D01*
X51680952Y-39655238D01*
X51585714Y-39750476D01*
X51490476Y-39798095D01*
X26344643Y-21144881D02*
X26011309Y-20668690D01*
X25773214Y-21144881D02*
X25773214Y-20144881D01*
X26154167Y-20144881D01*
X26249405Y-20192500D01*
X26297024Y-20240119D01*
X26344643Y-20335357D01*
X26344643Y-20478214D01*
X26297024Y-20573452D01*
X26249405Y-20621071D01*
X26154167Y-20668690D01*
X25773214Y-20668690D01*
X27297024Y-21144881D02*
X26725595Y-21144881D01*
X27011309Y-21144881D02*
X27011309Y-20144881D01*
X26916071Y-20287738D01*
X26820833Y-20382976D01*
X26725595Y-20430595D01*
X27677976Y-20240119D02*
X27725595Y-20192500D01*
X27820833Y-20144881D01*
X28058929Y-20144881D01*
X28154167Y-20192500D01*
X28201786Y-20240119D01*
X28249405Y-20335357D01*
X28249405Y-20430595D01*
X28201786Y-20573452D01*
X27630357Y-21144881D01*
X28249405Y-21144881D01*
X25709643Y-49084881D02*
X25376309Y-48608690D01*
X25138214Y-49084881D02*
X25138214Y-48084881D01*
X25519167Y-48084881D01*
X25614405Y-48132500D01*
X25662024Y-48180119D01*
X25709643Y-48275357D01*
X25709643Y-48418214D01*
X25662024Y-48513452D01*
X25614405Y-48561071D01*
X25519167Y-48608690D01*
X25138214Y-48608690D01*
X26662024Y-49084881D02*
X26090595Y-49084881D01*
X26376309Y-49084881D02*
X26376309Y-48084881D01*
X26281071Y-48227738D01*
X26185833Y-48322976D01*
X26090595Y-48370595D01*
X26995357Y-48084881D02*
X27614405Y-48084881D01*
X27281071Y-48465833D01*
X27423929Y-48465833D01*
X27519167Y-48513452D01*
X27566786Y-48561071D01*
X27614405Y-48656310D01*
X27614405Y-48894405D01*
X27566786Y-48989643D01*
X27519167Y-49037262D01*
X27423929Y-49084881D01*
X27138214Y-49084881D01*
X27042976Y-49037262D01*
X26995357Y-48989643D01*
X21034881Y-48585357D02*
X20558690Y-48918691D01*
X21034881Y-49156786D02*
X20034881Y-49156786D01*
X20034881Y-48775833D01*
X20082500Y-48680595D01*
X20130119Y-48632976D01*
X20225357Y-48585357D01*
X20368214Y-48585357D01*
X20463452Y-48632976D01*
X20511071Y-48680595D01*
X20558690Y-48775833D01*
X20558690Y-49156786D01*
X21034881Y-47632976D02*
X21034881Y-48204405D01*
X21034881Y-47918691D02*
X20034881Y-47918691D01*
X20177738Y-48013929D01*
X20272976Y-48109167D01*
X20320595Y-48204405D01*
X20368214Y-46775833D02*
X21034881Y-46775833D01*
X19987262Y-47013929D02*
X20701548Y-47252024D01*
X20701548Y-46632976D01*
X55237143Y-31622381D02*
X54903809Y-31146190D01*
X54665714Y-31622381D02*
X54665714Y-30622381D01*
X55046667Y-30622381D01*
X55141905Y-30670000D01*
X55189524Y-30717619D01*
X55237143Y-30812857D01*
X55237143Y-30955714D01*
X55189524Y-31050952D01*
X55141905Y-31098571D01*
X55046667Y-31146190D01*
X54665714Y-31146190D01*
X56189524Y-31622381D02*
X55618095Y-31622381D01*
X55903809Y-31622381D02*
X55903809Y-30622381D01*
X55808571Y-30765238D01*
X55713333Y-30860476D01*
X55618095Y-30908095D01*
X57094286Y-30622381D02*
X56618095Y-30622381D01*
X56570476Y-31098571D01*
X56618095Y-31050952D01*
X56713333Y-31003333D01*
X56951429Y-31003333D01*
X57046667Y-31050952D01*
X57094286Y-31098571D01*
X57141905Y-31193810D01*
X57141905Y-31431905D01*
X57094286Y-31527143D01*
X57046667Y-31574762D01*
X56951429Y-31622381D01*
X56713333Y-31622381D01*
X56618095Y-31574762D01*
X56570476Y-31527143D01*
X37972381Y-33662857D02*
X37496190Y-33996191D01*
X37972381Y-34234286D02*
X36972381Y-34234286D01*
X36972381Y-33853333D01*
X37020000Y-33758095D01*
X37067619Y-33710476D01*
X37162857Y-33662857D01*
X37305714Y-33662857D01*
X37400952Y-33710476D01*
X37448571Y-33758095D01*
X37496190Y-33853333D01*
X37496190Y-34234286D01*
X37972381Y-32710476D02*
X37972381Y-33281905D01*
X37972381Y-32996191D02*
X36972381Y-32996191D01*
X37115238Y-33091429D01*
X37210476Y-33186667D01*
X37258095Y-33281905D01*
X36972381Y-31853333D02*
X36972381Y-32043810D01*
X37020000Y-32139048D01*
X37067619Y-32186667D01*
X37210476Y-32281905D01*
X37400952Y-32329524D01*
X37781905Y-32329524D01*
X37877143Y-32281905D01*
X37924762Y-32234286D01*
X37972381Y-32139048D01*
X37972381Y-31948571D01*
X37924762Y-31853333D01*
X37877143Y-31805714D01*
X37781905Y-31758095D01*
X37543810Y-31758095D01*
X37448571Y-31805714D01*
X37400952Y-31853333D01*
X37353333Y-31948571D01*
X37353333Y-32139048D01*
X37400952Y-32234286D01*
X37448571Y-32281905D01*
X37543810Y-32329524D01*
X86692381Y-41917857D02*
X86216190Y-42251191D01*
X86692381Y-42489286D02*
X85692381Y-42489286D01*
X85692381Y-42108333D01*
X85740000Y-42013095D01*
X85787619Y-41965476D01*
X85882857Y-41917857D01*
X86025714Y-41917857D01*
X86120952Y-41965476D01*
X86168571Y-42013095D01*
X86216190Y-42108333D01*
X86216190Y-42489286D01*
X85787619Y-41536905D02*
X85740000Y-41489286D01*
X85692381Y-41394048D01*
X85692381Y-41155952D01*
X85740000Y-41060714D01*
X85787619Y-41013095D01*
X85882857Y-40965476D01*
X85978095Y-40965476D01*
X86120952Y-41013095D01*
X86692381Y-41584524D01*
X86692381Y-40965476D01*
X85692381Y-40108333D02*
X85692381Y-40298810D01*
X85740000Y-40394048D01*
X85787619Y-40441667D01*
X85930476Y-40536905D01*
X86120952Y-40584524D01*
X86501905Y-40584524D01*
X86597143Y-40536905D01*
X86644762Y-40489286D01*
X86692381Y-40394048D01*
X86692381Y-40203571D01*
X86644762Y-40108333D01*
X86597143Y-40060714D01*
X86501905Y-40013095D01*
X86263810Y-40013095D01*
X86168571Y-40060714D01*
X86120952Y-40108333D01*
X86073333Y-40203571D01*
X86073333Y-40394048D01*
X86120952Y-40489286D01*
X86168571Y-40536905D01*
X86263810Y-40584524D01*
X83177143Y-22677381D02*
X82843809Y-22201190D01*
X82605714Y-22677381D02*
X82605714Y-21677381D01*
X82986667Y-21677381D01*
X83081905Y-21725000D01*
X83129524Y-21772619D01*
X83177143Y-21867857D01*
X83177143Y-22010714D01*
X83129524Y-22105952D01*
X83081905Y-22153571D01*
X82986667Y-22201190D01*
X82605714Y-22201190D01*
X83558095Y-21772619D02*
X83605714Y-21725000D01*
X83700952Y-21677381D01*
X83939048Y-21677381D01*
X84034286Y-21725000D01*
X84081905Y-21772619D01*
X84129524Y-21867857D01*
X84129524Y-21963095D01*
X84081905Y-22105952D01*
X83510476Y-22677381D01*
X84129524Y-22677381D01*
X84462857Y-21677381D02*
X85129524Y-21677381D01*
X84700952Y-22677381D01*
X52697143Y-192857381D02*
X52363809Y-192381190D01*
X52125714Y-192857381D02*
X52125714Y-191857381D01*
X52506667Y-191857381D01*
X52601905Y-191905000D01*
X52649524Y-191952619D01*
X52697143Y-192047857D01*
X52697143Y-192190714D01*
X52649524Y-192285952D01*
X52601905Y-192333571D01*
X52506667Y-192381190D01*
X52125714Y-192381190D01*
X53078095Y-191952619D02*
X53125714Y-191905000D01*
X53220952Y-191857381D01*
X53459048Y-191857381D01*
X53554286Y-191905000D01*
X53601905Y-191952619D01*
X53649524Y-192047857D01*
X53649524Y-192143095D01*
X53601905Y-192285952D01*
X53030476Y-192857381D01*
X53649524Y-192857381D01*
X54220952Y-192285952D02*
X54125714Y-192238333D01*
X54078095Y-192190714D01*
X54030476Y-192095476D01*
X54030476Y-192047857D01*
X54078095Y-191952619D01*
X54125714Y-191905000D01*
X54220952Y-191857381D01*
X54411429Y-191857381D01*
X54506667Y-191905000D01*
X54554286Y-191952619D01*
X54601905Y-192047857D01*
X54601905Y-192095476D01*
X54554286Y-192190714D01*
X54506667Y-192238333D01*
X54411429Y-192285952D01*
X54220952Y-192285952D01*
X54125714Y-192333571D01*
X54078095Y-192381190D01*
X54030476Y-192476429D01*
X54030476Y-192666905D01*
X54078095Y-192762143D01*
X54125714Y-192809762D01*
X54220952Y-192857381D01*
X54411429Y-192857381D01*
X54506667Y-192809762D01*
X54554286Y-192762143D01*
X54601905Y-192666905D01*
X54601905Y-192476429D01*
X54554286Y-192381190D01*
X54506667Y-192333571D01*
X54411429Y-192285952D01*
X78502381Y-191777857D02*
X78026190Y-192111191D01*
X78502381Y-192349286D02*
X77502381Y-192349286D01*
X77502381Y-191968333D01*
X77550000Y-191873095D01*
X77597619Y-191825476D01*
X77692857Y-191777857D01*
X77835714Y-191777857D01*
X77930952Y-191825476D01*
X77978571Y-191873095D01*
X78026190Y-191968333D01*
X78026190Y-192349286D01*
X77502381Y-191444524D02*
X77502381Y-190825476D01*
X77883333Y-191158810D01*
X77883333Y-191015952D01*
X77930952Y-190920714D01*
X77978571Y-190873095D01*
X78073810Y-190825476D01*
X78311905Y-190825476D01*
X78407143Y-190873095D01*
X78454762Y-190920714D01*
X78502381Y-191015952D01*
X78502381Y-191301667D01*
X78454762Y-191396905D01*
X78407143Y-191444524D01*
X77502381Y-190206429D02*
X77502381Y-190111190D01*
X77550000Y-190015952D01*
X77597619Y-189968333D01*
X77692857Y-189920714D01*
X77883333Y-189873095D01*
X78121429Y-189873095D01*
X78311905Y-189920714D01*
X78407143Y-189968333D01*
X78454762Y-190015952D01*
X78502381Y-190111190D01*
X78502381Y-190206429D01*
X78454762Y-190301667D01*
X78407143Y-190349286D01*
X78311905Y-190396905D01*
X78121429Y-190444524D01*
X77883333Y-190444524D01*
X77692857Y-190396905D01*
X77597619Y-190349286D01*
X77550000Y-190301667D01*
X77502381Y-190206429D01*
X78502381Y-224797857D02*
X78026190Y-225131191D01*
X78502381Y-225369286D02*
X77502381Y-225369286D01*
X77502381Y-224988333D01*
X77550000Y-224893095D01*
X77597619Y-224845476D01*
X77692857Y-224797857D01*
X77835714Y-224797857D01*
X77930952Y-224845476D01*
X77978571Y-224893095D01*
X78026190Y-224988333D01*
X78026190Y-225369286D01*
X77597619Y-224416905D02*
X77550000Y-224369286D01*
X77502381Y-224274048D01*
X77502381Y-224035952D01*
X77550000Y-223940714D01*
X77597619Y-223893095D01*
X77692857Y-223845476D01*
X77788095Y-223845476D01*
X77930952Y-223893095D01*
X78502381Y-224464524D01*
X78502381Y-223845476D01*
X78502381Y-223369286D02*
X78502381Y-223178810D01*
X78454762Y-223083571D01*
X78407143Y-223035952D01*
X78264286Y-222940714D01*
X78073810Y-222893095D01*
X77692857Y-222893095D01*
X77597619Y-222940714D01*
X77550000Y-222988333D01*
X77502381Y-223083571D01*
X77502381Y-223274048D01*
X77550000Y-223369286D01*
X77597619Y-223416905D01*
X77692857Y-223464524D01*
X77930952Y-223464524D01*
X78026190Y-223416905D01*
X78073810Y-223369286D01*
X78121429Y-223274048D01*
X78121429Y-223083571D01*
X78073810Y-222988333D01*
X78026190Y-222940714D01*
X77930952Y-222893095D01*
X186047143Y-204287381D02*
X185713809Y-203811190D01*
X185475714Y-204287381D02*
X185475714Y-203287381D01*
X185856667Y-203287381D01*
X185951905Y-203335000D01*
X185999524Y-203382619D01*
X186047143Y-203477857D01*
X186047143Y-203620714D01*
X185999524Y-203715952D01*
X185951905Y-203763571D01*
X185856667Y-203811190D01*
X185475714Y-203811190D01*
X186380476Y-203287381D02*
X186999524Y-203287381D01*
X186666190Y-203668333D01*
X186809048Y-203668333D01*
X186904286Y-203715952D01*
X186951905Y-203763571D01*
X186999524Y-203858810D01*
X186999524Y-204096905D01*
X186951905Y-204192143D01*
X186904286Y-204239762D01*
X186809048Y-204287381D01*
X186523333Y-204287381D01*
X186428095Y-204239762D01*
X186380476Y-204192143D01*
X187951905Y-204287381D02*
X187380476Y-204287381D01*
X187666190Y-204287381D02*
X187666190Y-203287381D01*
X187570952Y-203430238D01*
X187475714Y-203525476D01*
X187380476Y-203573095D01*
X162432381Y-172727857D02*
X161956190Y-173061191D01*
X162432381Y-173299286D02*
X161432381Y-173299286D01*
X161432381Y-172918333D01*
X161480000Y-172823095D01*
X161527619Y-172775476D01*
X161622857Y-172727857D01*
X161765714Y-172727857D01*
X161860952Y-172775476D01*
X161908571Y-172823095D01*
X161956190Y-172918333D01*
X161956190Y-173299286D01*
X161432381Y-172394524D02*
X161432381Y-171775476D01*
X161813333Y-172108810D01*
X161813333Y-171965952D01*
X161860952Y-171870714D01*
X161908571Y-171823095D01*
X162003810Y-171775476D01*
X162241905Y-171775476D01*
X162337143Y-171823095D01*
X162384762Y-171870714D01*
X162432381Y-171965952D01*
X162432381Y-172251667D01*
X162384762Y-172346905D01*
X162337143Y-172394524D01*
X161527619Y-171394524D02*
X161480000Y-171346905D01*
X161432381Y-171251667D01*
X161432381Y-171013571D01*
X161480000Y-170918333D01*
X161527619Y-170870714D01*
X161622857Y-170823095D01*
X161718095Y-170823095D01*
X161860952Y-170870714D01*
X162432381Y-171442143D01*
X162432381Y-170823095D01*
X162432381Y-205747857D02*
X161956190Y-206081191D01*
X162432381Y-206319286D02*
X161432381Y-206319286D01*
X161432381Y-205938333D01*
X161480000Y-205843095D01*
X161527619Y-205795476D01*
X161622857Y-205747857D01*
X161765714Y-205747857D01*
X161860952Y-205795476D01*
X161908571Y-205843095D01*
X161956190Y-205938333D01*
X161956190Y-206319286D01*
X161432381Y-205414524D02*
X161432381Y-204795476D01*
X161813333Y-205128810D01*
X161813333Y-204985952D01*
X161860952Y-204890714D01*
X161908571Y-204843095D01*
X162003810Y-204795476D01*
X162241905Y-204795476D01*
X162337143Y-204843095D01*
X162384762Y-204890714D01*
X162432381Y-204985952D01*
X162432381Y-205271667D01*
X162384762Y-205366905D01*
X162337143Y-205414524D01*
X161432381Y-204462143D02*
X161432381Y-203843095D01*
X161813333Y-204176429D01*
X161813333Y-204033571D01*
X161860952Y-203938333D01*
X161908571Y-203890714D01*
X162003810Y-203843095D01*
X162241905Y-203843095D01*
X162337143Y-203890714D01*
X162384762Y-203938333D01*
X162432381Y-204033571D01*
X162432381Y-204319286D01*
X162384762Y-204414524D01*
X162337143Y-204462143D01*
X80407381Y-125102857D02*
X79931190Y-125436191D01*
X80407381Y-125674286D02*
X79407381Y-125674286D01*
X79407381Y-125293333D01*
X79455000Y-125198095D01*
X79502619Y-125150476D01*
X79597857Y-125102857D01*
X79740714Y-125102857D01*
X79835952Y-125150476D01*
X79883571Y-125198095D01*
X79931190Y-125293333D01*
X79931190Y-125674286D01*
X79407381Y-124769524D02*
X79407381Y-124150476D01*
X79788333Y-124483810D01*
X79788333Y-124340952D01*
X79835952Y-124245714D01*
X79883571Y-124198095D01*
X79978810Y-124150476D01*
X80216905Y-124150476D01*
X80312143Y-124198095D01*
X80359762Y-124245714D01*
X80407381Y-124340952D01*
X80407381Y-124626667D01*
X80359762Y-124721905D01*
X80312143Y-124769524D01*
X79740714Y-123293333D02*
X80407381Y-123293333D01*
X79359762Y-123531429D02*
X80074048Y-123769524D01*
X80074048Y-123150476D01*
X58292381Y-153042857D02*
X57816190Y-153376191D01*
X58292381Y-153614286D02*
X57292381Y-153614286D01*
X57292381Y-153233333D01*
X57340000Y-153138095D01*
X57387619Y-153090476D01*
X57482857Y-153042857D01*
X57625714Y-153042857D01*
X57720952Y-153090476D01*
X57768571Y-153138095D01*
X57816190Y-153233333D01*
X57816190Y-153614286D01*
X57292381Y-152709524D02*
X57292381Y-152090476D01*
X57673333Y-152423810D01*
X57673333Y-152280952D01*
X57720952Y-152185714D01*
X57768571Y-152138095D01*
X57863810Y-152090476D01*
X58101905Y-152090476D01*
X58197143Y-152138095D01*
X58244762Y-152185714D01*
X58292381Y-152280952D01*
X58292381Y-152566667D01*
X58244762Y-152661905D01*
X58197143Y-152709524D01*
X57292381Y-151185714D02*
X57292381Y-151661905D01*
X57768571Y-151709524D01*
X57720952Y-151661905D01*
X57673333Y-151566667D01*
X57673333Y-151328571D01*
X57720952Y-151233333D01*
X57768571Y-151185714D01*
X57863810Y-151138095D01*
X58101905Y-151138095D01*
X58197143Y-151185714D01*
X58244762Y-151233333D01*
X58292381Y-151328571D01*
X58292381Y-151566667D01*
X58244762Y-151661905D01*
X58197143Y-151709524D01*
X132072143Y-206882381D02*
X131738809Y-206406190D01*
X131500714Y-206882381D02*
X131500714Y-205882381D01*
X131881667Y-205882381D01*
X131976905Y-205930000D01*
X132024524Y-205977619D01*
X132072143Y-206072857D01*
X132072143Y-206215714D01*
X132024524Y-206310952D01*
X131976905Y-206358571D01*
X131881667Y-206406190D01*
X131500714Y-206406190D01*
X132453095Y-205977619D02*
X132500714Y-205930000D01*
X132595952Y-205882381D01*
X132834048Y-205882381D01*
X132929286Y-205930000D01*
X132976905Y-205977619D01*
X133024524Y-206072857D01*
X133024524Y-206168095D01*
X132976905Y-206310952D01*
X132405476Y-206882381D01*
X133024524Y-206882381D01*
X133357857Y-205882381D02*
X133976905Y-205882381D01*
X133643571Y-206263333D01*
X133786429Y-206263333D01*
X133881667Y-206310952D01*
X133929286Y-206358571D01*
X133976905Y-206453810D01*
X133976905Y-206691905D01*
X133929286Y-206787143D01*
X133881667Y-206834762D01*
X133786429Y-206882381D01*
X133500714Y-206882381D01*
X133405476Y-206834762D01*
X133357857Y-206787143D01*
X28337381Y-34297857D02*
X27861190Y-34631191D01*
X28337381Y-34869286D02*
X27337381Y-34869286D01*
X27337381Y-34488333D01*
X27385000Y-34393095D01*
X27432619Y-34345476D01*
X27527857Y-34297857D01*
X27670714Y-34297857D01*
X27765952Y-34345476D01*
X27813571Y-34393095D01*
X27861190Y-34488333D01*
X27861190Y-34869286D01*
X28337381Y-33345476D02*
X28337381Y-33916905D01*
X28337381Y-33631191D02*
X27337381Y-33631191D01*
X27480238Y-33726429D01*
X27575476Y-33821667D01*
X27623095Y-33916905D01*
X27765952Y-32774048D02*
X27718333Y-32869286D01*
X27670714Y-32916905D01*
X27575476Y-32964524D01*
X27527857Y-32964524D01*
X27432619Y-32916905D01*
X27385000Y-32869286D01*
X27337381Y-32774048D01*
X27337381Y-32583571D01*
X27385000Y-32488333D01*
X27432619Y-32440714D01*
X27527857Y-32393095D01*
X27575476Y-32393095D01*
X27670714Y-32440714D01*
X27718333Y-32488333D01*
X27765952Y-32583571D01*
X27765952Y-32774048D01*
X27813571Y-32869286D01*
X27861190Y-32916905D01*
X27956429Y-32964524D01*
X28146905Y-32964524D01*
X28242143Y-32916905D01*
X28289762Y-32869286D01*
X28337381Y-32774048D01*
X28337381Y-32583571D01*
X28289762Y-32488333D01*
X28242143Y-32440714D01*
X28146905Y-32393095D01*
X27956429Y-32393095D01*
X27861190Y-32440714D01*
X27813571Y-32488333D01*
X27765952Y-32583571D01*
X52062143Y-60197381D02*
X51728809Y-59721190D01*
X51490714Y-60197381D02*
X51490714Y-59197381D01*
X51871667Y-59197381D01*
X51966905Y-59245000D01*
X52014524Y-59292619D01*
X52062143Y-59387857D01*
X52062143Y-59530714D01*
X52014524Y-59625952D01*
X51966905Y-59673571D01*
X51871667Y-59721190D01*
X51490714Y-59721190D01*
X53014524Y-60197381D02*
X52443095Y-60197381D01*
X52728809Y-60197381D02*
X52728809Y-59197381D01*
X52633571Y-59340238D01*
X52538333Y-59435476D01*
X52443095Y-59483095D01*
X53347857Y-59197381D02*
X54014524Y-59197381D01*
X53585952Y-60197381D01*
X37862381Y-58427857D02*
X37386190Y-58761191D01*
X37862381Y-58999286D02*
X36862381Y-58999286D01*
X36862381Y-58618333D01*
X36910000Y-58523095D01*
X36957619Y-58475476D01*
X37052857Y-58427857D01*
X37195714Y-58427857D01*
X37290952Y-58475476D01*
X37338571Y-58523095D01*
X37386190Y-58618333D01*
X37386190Y-58999286D01*
X37862381Y-57475476D02*
X37862381Y-58046905D01*
X37862381Y-57761191D02*
X36862381Y-57761191D01*
X37005238Y-57856429D01*
X37100476Y-57951667D01*
X37148095Y-58046905D01*
X37862381Y-56999286D02*
X37862381Y-56808810D01*
X37814762Y-56713571D01*
X37767143Y-56665952D01*
X37624286Y-56570714D01*
X37433810Y-56523095D01*
X37052857Y-56523095D01*
X36957619Y-56570714D01*
X36910000Y-56618333D01*
X36862381Y-56713571D01*
X36862381Y-56904048D01*
X36910000Y-56999286D01*
X36957619Y-57046905D01*
X37052857Y-57094524D01*
X37290952Y-57094524D01*
X37386190Y-57046905D01*
X37433810Y-56999286D01*
X37481429Y-56904048D01*
X37481429Y-56713571D01*
X37433810Y-56618333D01*
X37386190Y-56570714D01*
X37290952Y-56523095D01*
X18407143Y-55752381D02*
X18073809Y-55276190D01*
X17835714Y-55752381D02*
X17835714Y-54752381D01*
X18216667Y-54752381D01*
X18311905Y-54800000D01*
X18359524Y-54847619D01*
X18407143Y-54942857D01*
X18407143Y-55085714D01*
X18359524Y-55180952D01*
X18311905Y-55228571D01*
X18216667Y-55276190D01*
X17835714Y-55276190D01*
X18788095Y-54847619D02*
X18835714Y-54800000D01*
X18930952Y-54752381D01*
X19169048Y-54752381D01*
X19264286Y-54800000D01*
X19311905Y-54847619D01*
X19359524Y-54942857D01*
X19359524Y-55038095D01*
X19311905Y-55180952D01*
X18740476Y-55752381D01*
X19359524Y-55752381D01*
X19978571Y-54752381D02*
X20073810Y-54752381D01*
X20169048Y-54800000D01*
X20216667Y-54847619D01*
X20264286Y-54942857D01*
X20311905Y-55133333D01*
X20311905Y-55371429D01*
X20264286Y-55561905D01*
X20216667Y-55657143D01*
X20169048Y-55704762D01*
X20073810Y-55752381D01*
X19978571Y-55752381D01*
X19883333Y-55704762D01*
X19835714Y-55657143D01*
X19788095Y-55561905D01*
X19740476Y-55371429D01*
X19740476Y-55133333D01*
X19788095Y-54942857D01*
X19835714Y-54847619D01*
X19883333Y-54800000D01*
X19978571Y-54752381D01*
X31304881Y-67000357D02*
X30828690Y-67333691D01*
X31304881Y-67571786D02*
X30304881Y-67571786D01*
X30304881Y-67190833D01*
X30352500Y-67095595D01*
X30400119Y-67047976D01*
X30495357Y-67000357D01*
X30638214Y-67000357D01*
X30733452Y-67047976D01*
X30781071Y-67095595D01*
X30828690Y-67190833D01*
X30828690Y-67571786D01*
X30400119Y-66619405D02*
X30352500Y-66571786D01*
X30304881Y-66476548D01*
X30304881Y-66238452D01*
X30352500Y-66143214D01*
X30400119Y-66095595D01*
X30495357Y-66047976D01*
X30590595Y-66047976D01*
X30733452Y-66095595D01*
X31304881Y-66667024D01*
X31304881Y-66047976D01*
X31304881Y-65095595D02*
X31304881Y-65667024D01*
X31304881Y-65381310D02*
X30304881Y-65381310D01*
X30447738Y-65476548D01*
X30542976Y-65571786D01*
X30590595Y-65667024D01*
X27614643Y-73849881D02*
X27281309Y-73373690D01*
X27043214Y-73849881D02*
X27043214Y-72849881D01*
X27424167Y-72849881D01*
X27519405Y-72897500D01*
X27567024Y-72945119D01*
X27614643Y-73040357D01*
X27614643Y-73183214D01*
X27567024Y-73278452D01*
X27519405Y-73326071D01*
X27424167Y-73373690D01*
X27043214Y-73373690D01*
X27995595Y-72945119D02*
X28043214Y-72897500D01*
X28138452Y-72849881D01*
X28376548Y-72849881D01*
X28471786Y-72897500D01*
X28519405Y-72945119D01*
X28567024Y-73040357D01*
X28567024Y-73135595D01*
X28519405Y-73278452D01*
X27947976Y-73849881D01*
X28567024Y-73849881D01*
X28947976Y-72945119D02*
X28995595Y-72897500D01*
X29090833Y-72849881D01*
X29328929Y-72849881D01*
X29424167Y-72897500D01*
X29471786Y-72945119D01*
X29519405Y-73040357D01*
X29519405Y-73135595D01*
X29471786Y-73278452D01*
X28900357Y-73849881D01*
X29519405Y-73849881D01*
X118729286Y-190902381D02*
X119300715Y-190902381D01*
X119015000Y-191902381D02*
X119015000Y-190902381D01*
X119634048Y-191902381D02*
X119634048Y-190902381D01*
X119634048Y-191378571D02*
X120205477Y-191378571D01*
X120205477Y-191902381D02*
X120205477Y-190902381D01*
X121205477Y-191902381D02*
X120634048Y-191902381D01*
X120919762Y-191902381D02*
X120919762Y-190902381D01*
X120824524Y-191045238D01*
X120729286Y-191140476D01*
X120634048Y-191188095D01*
X66706905Y-115657381D02*
X66706905Y-116466905D01*
X66754524Y-116562143D01*
X66802143Y-116609762D01*
X66897381Y-116657381D01*
X67087858Y-116657381D01*
X67183096Y-116609762D01*
X67230715Y-116562143D01*
X67278334Y-116466905D01*
X67278334Y-115657381D01*
X67706905Y-115752619D02*
X67754524Y-115705000D01*
X67849762Y-115657381D01*
X68087858Y-115657381D01*
X68183096Y-115705000D01*
X68230715Y-115752619D01*
X68278334Y-115847857D01*
X68278334Y-115943095D01*
X68230715Y-116085952D01*
X67659286Y-116657381D01*
X68278334Y-116657381D01*
X68897381Y-115657381D02*
X68992620Y-115657381D01*
X69087858Y-115705000D01*
X69135477Y-115752619D01*
X69183096Y-115847857D01*
X69230715Y-116038333D01*
X69230715Y-116276429D01*
X69183096Y-116466905D01*
X69135477Y-116562143D01*
X69087858Y-116609762D01*
X68992620Y-116657381D01*
X68897381Y-116657381D01*
X68802143Y-116609762D01*
X68754524Y-116562143D01*
X68706905Y-116466905D01*
X68659286Y-116276429D01*
X68659286Y-116038333D01*
X68706905Y-115847857D01*
X68754524Y-115752619D01*
X68802143Y-115705000D01*
X68897381Y-115657381D01*
X37496905Y-143597381D02*
X37496905Y-144406905D01*
X37544524Y-144502143D01*
X37592143Y-144549762D01*
X37687381Y-144597381D01*
X37877858Y-144597381D01*
X37973096Y-144549762D01*
X38020715Y-144502143D01*
X38068334Y-144406905D01*
X38068334Y-143597381D01*
X38496905Y-143692619D02*
X38544524Y-143645000D01*
X38639762Y-143597381D01*
X38877858Y-143597381D01*
X38973096Y-143645000D01*
X39020715Y-143692619D01*
X39068334Y-143787857D01*
X39068334Y-143883095D01*
X39020715Y-144025952D01*
X38449286Y-144597381D01*
X39068334Y-144597381D01*
X40020715Y-144597381D02*
X39449286Y-144597381D01*
X39735000Y-144597381D02*
X39735000Y-143597381D01*
X39639762Y-143740238D01*
X39544524Y-143835476D01*
X39449286Y-143883095D01*
X136398095Y-45172381D02*
X136398095Y-45981905D01*
X136445714Y-46077143D01*
X136493333Y-46124762D01*
X136588571Y-46172381D01*
X136779048Y-46172381D01*
X136874286Y-46124762D01*
X136921905Y-46077143D01*
X136969524Y-45981905D01*
X136969524Y-45172381D01*
X137493333Y-46172381D02*
X137683809Y-46172381D01*
X137779048Y-46124762D01*
X137826667Y-46077143D01*
X137921905Y-45934286D01*
X137969524Y-45743810D01*
X137969524Y-45362857D01*
X137921905Y-45267619D01*
X137874286Y-45220000D01*
X137779048Y-45172381D01*
X137588571Y-45172381D01*
X137493333Y-45220000D01*
X137445714Y-45267619D01*
X137398095Y-45362857D01*
X137398095Y-45600952D01*
X137445714Y-45696190D01*
X137493333Y-45743810D01*
X137588571Y-45791429D01*
X137779048Y-45791429D01*
X137874286Y-45743810D01*
X137921905Y-45696190D01*
X137969524Y-45600952D01*
X104227381Y-39973095D02*
X105036905Y-39973095D01*
X105132143Y-39925476D01*
X105179762Y-39877857D01*
X105227381Y-39782619D01*
X105227381Y-39592142D01*
X105179762Y-39496904D01*
X105132143Y-39449285D01*
X105036905Y-39401666D01*
X104227381Y-39401666D01*
X105227381Y-38401666D02*
X105227381Y-38973095D01*
X105227381Y-38687381D02*
X104227381Y-38687381D01*
X104370238Y-38782619D01*
X104465476Y-38877857D01*
X104513095Y-38973095D01*
X104227381Y-37782619D02*
X104227381Y-37687380D01*
X104275000Y-37592142D01*
X104322619Y-37544523D01*
X104417857Y-37496904D01*
X104608333Y-37449285D01*
X104846429Y-37449285D01*
X105036905Y-37496904D01*
X105132143Y-37544523D01*
X105179762Y-37592142D01*
X105227381Y-37687380D01*
X105227381Y-37782619D01*
X105179762Y-37877857D01*
X105132143Y-37925476D01*
X105036905Y-37973095D01*
X104846429Y-38020714D01*
X104608333Y-38020714D01*
X104417857Y-37973095D01*
X104322619Y-37925476D01*
X104275000Y-37877857D01*
X104227381Y-37782619D01*
X104227381Y-27273095D02*
X105036905Y-27273095D01*
X105132143Y-27225476D01*
X105179762Y-27177857D01*
X105227381Y-27082619D01*
X105227381Y-26892142D01*
X105179762Y-26796904D01*
X105132143Y-26749285D01*
X105036905Y-26701666D01*
X104227381Y-26701666D01*
X105227381Y-25701666D02*
X105227381Y-26273095D01*
X105227381Y-25987381D02*
X104227381Y-25987381D01*
X104370238Y-26082619D01*
X104465476Y-26177857D01*
X104513095Y-26273095D01*
X105227381Y-24749285D02*
X105227381Y-25320714D01*
X105227381Y-25035000D02*
X104227381Y-25035000D01*
X104370238Y-25130238D01*
X104465476Y-25225476D01*
X104513095Y-25320714D01*
X43627381Y-42671905D02*
X44436905Y-42671905D01*
X44532143Y-42624286D01*
X44579762Y-42576667D01*
X44627381Y-42481429D01*
X44627381Y-42290952D01*
X44579762Y-42195714D01*
X44532143Y-42148095D01*
X44436905Y-42100476D01*
X43627381Y-42100476D01*
X43722619Y-41671905D02*
X43675000Y-41624286D01*
X43627381Y-41529048D01*
X43627381Y-41290952D01*
X43675000Y-41195714D01*
X43722619Y-41148095D01*
X43817857Y-41100476D01*
X43913095Y-41100476D01*
X44055952Y-41148095D01*
X44627381Y-41719524D01*
X44627381Y-41100476D01*
X21084881Y-23304405D02*
X21894405Y-23304405D01*
X21989643Y-23256786D01*
X22037262Y-23209167D01*
X22084881Y-23113929D01*
X22084881Y-22923452D01*
X22037262Y-22828214D01*
X21989643Y-22780595D01*
X21894405Y-22732976D01*
X21084881Y-22732976D01*
X21084881Y-22352024D02*
X21084881Y-21732976D01*
X21465833Y-22066310D01*
X21465833Y-21923452D01*
X21513452Y-21828214D01*
X21561071Y-21780595D01*
X21656310Y-21732976D01*
X21894405Y-21732976D01*
X21989643Y-21780595D01*
X22037262Y-21828214D01*
X22084881Y-21923452D01*
X22084881Y-22209167D01*
X22037262Y-22304405D01*
X21989643Y-22352024D01*
X21049881Y-34099405D02*
X21859405Y-34099405D01*
X21954643Y-34051786D01*
X22002262Y-34004167D01*
X22049881Y-33908929D01*
X22049881Y-33718452D01*
X22002262Y-33623214D01*
X21954643Y-33575595D01*
X21859405Y-33527976D01*
X21049881Y-33527976D01*
X21383214Y-32623214D02*
X22049881Y-32623214D01*
X21002262Y-32861310D02*
X21716548Y-33099405D01*
X21716548Y-32480357D01*
X26225595Y-46449881D02*
X26225595Y-47259405D01*
X26273214Y-47354643D01*
X26320833Y-47402262D01*
X26416071Y-47449881D01*
X26606548Y-47449881D01*
X26701786Y-47402262D01*
X26749405Y-47354643D01*
X26797024Y-47259405D01*
X26797024Y-46449881D01*
X27749405Y-46449881D02*
X27273214Y-46449881D01*
X27225595Y-46926071D01*
X27273214Y-46878452D01*
X27368452Y-46830833D01*
X27606548Y-46830833D01*
X27701786Y-46878452D01*
X27749405Y-46926071D01*
X27797024Y-47021310D01*
X27797024Y-47259405D01*
X27749405Y-47354643D01*
X27701786Y-47402262D01*
X27606548Y-47449881D01*
X27368452Y-47449881D01*
X27273214Y-47402262D01*
X27225595Y-47354643D01*
X48347381Y-35051905D02*
X49156905Y-35051905D01*
X49252143Y-35004286D01*
X49299762Y-34956667D01*
X49347381Y-34861429D01*
X49347381Y-34670952D01*
X49299762Y-34575714D01*
X49252143Y-34528095D01*
X49156905Y-34480476D01*
X48347381Y-34480476D01*
X48347381Y-33575714D02*
X48347381Y-33766191D01*
X48395000Y-33861429D01*
X48442619Y-33909048D01*
X48585476Y-34004286D01*
X48775952Y-34051905D01*
X49156905Y-34051905D01*
X49252143Y-34004286D01*
X49299762Y-33956667D01*
X49347381Y-33861429D01*
X49347381Y-33670952D01*
X49299762Y-33575714D01*
X49252143Y-33528095D01*
X49156905Y-33480476D01*
X48918810Y-33480476D01*
X48823571Y-33528095D01*
X48775952Y-33575714D01*
X48728333Y-33670952D01*
X48728333Y-33861429D01*
X48775952Y-33956667D01*
X48823571Y-34004286D01*
X48918810Y-34051905D01*
X44262381Y-57911905D02*
X45071905Y-57911905D01*
X45167143Y-57864286D01*
X45214762Y-57816667D01*
X45262381Y-57721429D01*
X45262381Y-57530952D01*
X45214762Y-57435714D01*
X45167143Y-57388095D01*
X45071905Y-57340476D01*
X44262381Y-57340476D01*
X44262381Y-56959524D02*
X44262381Y-56292857D01*
X45262381Y-56721429D01*
X27399881Y-67119405D02*
X28209405Y-67119405D01*
X28304643Y-67071786D01*
X28352262Y-67024167D01*
X28399881Y-66928929D01*
X28399881Y-66738452D01*
X28352262Y-66643214D01*
X28304643Y-66595595D01*
X28209405Y-66547976D01*
X27399881Y-66547976D01*
X27828452Y-65928929D02*
X27780833Y-66024167D01*
X27733214Y-66071786D01*
X27637976Y-66119405D01*
X27590357Y-66119405D01*
X27495119Y-66071786D01*
X27447500Y-66024167D01*
X27399881Y-65928929D01*
X27399881Y-65738452D01*
X27447500Y-65643214D01*
X27495119Y-65595595D01*
X27590357Y-65547976D01*
X27637976Y-65547976D01*
X27733214Y-65595595D01*
X27780833Y-65643214D01*
X27828452Y-65738452D01*
X27828452Y-65928929D01*
X27876071Y-66024167D01*
X27923690Y-66071786D01*
X28018929Y-66119405D01*
X28209405Y-66119405D01*
X28304643Y-66071786D01*
X28352262Y-66024167D01*
X28399881Y-65928929D01*
X28399881Y-65738452D01*
X28352262Y-65643214D01*
X28304643Y-65595595D01*
X28209405Y-65547976D01*
X28018929Y-65547976D01*
X27923690Y-65595595D01*
X27876071Y-65643214D01*
X27828452Y-65738452D01*
X67937143Y-179907143D02*
X67889524Y-179954762D01*
X67746667Y-180002381D01*
X67651429Y-180002381D01*
X67508571Y-179954762D01*
X67413333Y-179859524D01*
X67365714Y-179764286D01*
X67318095Y-179573810D01*
X67318095Y-179430952D01*
X67365714Y-179240476D01*
X67413333Y-179145238D01*
X67508571Y-179050000D01*
X67651429Y-179002381D01*
X67746667Y-179002381D01*
X67889524Y-179050000D01*
X67937143Y-179097619D01*
X68889524Y-180002381D02*
X68318095Y-180002381D01*
X68603809Y-180002381D02*
X68603809Y-179002381D01*
X68508571Y-179145238D01*
X68413333Y-179240476D01*
X68318095Y-179288095D01*
X69794286Y-179002381D02*
X69318095Y-179002381D01*
X69270476Y-179478571D01*
X69318095Y-179430952D01*
X69413333Y-179383333D01*
X69651429Y-179383333D01*
X69746667Y-179430952D01*
X69794286Y-179478571D01*
X69841905Y-179573810D01*
X69841905Y-179811905D01*
X69794286Y-179907143D01*
X69746667Y-179954762D01*
X69651429Y-180002381D01*
X69413333Y-180002381D01*
X69318095Y-179954762D01*
X69270476Y-179907143D01*
X71957143Y-191777857D02*
X72004762Y-191825476D01*
X72052381Y-191968333D01*
X72052381Y-192063571D01*
X72004762Y-192206429D01*
X71909524Y-192301667D01*
X71814286Y-192349286D01*
X71623810Y-192396905D01*
X71480952Y-192396905D01*
X71290476Y-192349286D01*
X71195238Y-192301667D01*
X71100000Y-192206429D01*
X71052381Y-192063571D01*
X71052381Y-191968333D01*
X71100000Y-191825476D01*
X71147619Y-191777857D01*
X72052381Y-190825476D02*
X72052381Y-191396905D01*
X72052381Y-191111191D02*
X71052381Y-191111191D01*
X71195238Y-191206429D01*
X71290476Y-191301667D01*
X71338095Y-191396905D01*
X71052381Y-189968333D02*
X71052381Y-190158810D01*
X71100000Y-190254048D01*
X71147619Y-190301667D01*
X71290476Y-190396905D01*
X71480952Y-190444524D01*
X71861905Y-190444524D01*
X71957143Y-190396905D01*
X72004762Y-190349286D01*
X72052381Y-190254048D01*
X72052381Y-190063571D01*
X72004762Y-189968333D01*
X71957143Y-189920714D01*
X71861905Y-189873095D01*
X71623810Y-189873095D01*
X71528571Y-189920714D01*
X71480952Y-189968333D01*
X71433333Y-190063571D01*
X71433333Y-190254048D01*
X71480952Y-190349286D01*
X71528571Y-190396905D01*
X71623810Y-190444524D01*
X48093334Y-179907143D02*
X48045715Y-179954762D01*
X47902858Y-180002381D01*
X47807620Y-180002381D01*
X47664762Y-179954762D01*
X47569524Y-179859524D01*
X47521905Y-179764286D01*
X47474286Y-179573810D01*
X47474286Y-179430952D01*
X47521905Y-179240476D01*
X47569524Y-179145238D01*
X47664762Y-179050000D01*
X47807620Y-179002381D01*
X47902858Y-179002381D01*
X48045715Y-179050000D01*
X48093334Y-179097619D01*
X48569524Y-180002381D02*
X48760000Y-180002381D01*
X48855239Y-179954762D01*
X48902858Y-179907143D01*
X48998096Y-179764286D01*
X49045715Y-179573810D01*
X49045715Y-179192857D01*
X48998096Y-179097619D01*
X48950477Y-179050000D01*
X48855239Y-179002381D01*
X48664762Y-179002381D01*
X48569524Y-179050000D01*
X48521905Y-179097619D01*
X48474286Y-179192857D01*
X48474286Y-179430952D01*
X48521905Y-179526190D01*
X48569524Y-179573810D01*
X48664762Y-179621429D01*
X48855239Y-179621429D01*
X48950477Y-179573810D01*
X48998096Y-179526190D01*
X49045715Y-179430952D01*
X67937143Y-212927143D02*
X67889524Y-212974762D01*
X67746667Y-213022381D01*
X67651429Y-213022381D01*
X67508571Y-212974762D01*
X67413333Y-212879524D01*
X67365714Y-212784286D01*
X67318095Y-212593810D01*
X67318095Y-212450952D01*
X67365714Y-212260476D01*
X67413333Y-212165238D01*
X67508571Y-212070000D01*
X67651429Y-212022381D01*
X67746667Y-212022381D01*
X67889524Y-212070000D01*
X67937143Y-212117619D01*
X68889524Y-213022381D02*
X68318095Y-213022381D01*
X68603809Y-213022381D02*
X68603809Y-212022381D01*
X68508571Y-212165238D01*
X68413333Y-212260476D01*
X68318095Y-212308095D01*
X69841905Y-213022381D02*
X69270476Y-213022381D01*
X69556190Y-213022381D02*
X69556190Y-212022381D01*
X69460952Y-212165238D01*
X69365714Y-212260476D01*
X69270476Y-212308095D01*
X71957143Y-224797857D02*
X72004762Y-224845476D01*
X72052381Y-224988333D01*
X72052381Y-225083571D01*
X72004762Y-225226429D01*
X71909524Y-225321667D01*
X71814286Y-225369286D01*
X71623810Y-225416905D01*
X71480952Y-225416905D01*
X71290476Y-225369286D01*
X71195238Y-225321667D01*
X71100000Y-225226429D01*
X71052381Y-225083571D01*
X71052381Y-224988333D01*
X71100000Y-224845476D01*
X71147619Y-224797857D01*
X72052381Y-223845476D02*
X72052381Y-224416905D01*
X72052381Y-224131191D02*
X71052381Y-224131191D01*
X71195238Y-224226429D01*
X71290476Y-224321667D01*
X71338095Y-224416905D01*
X71147619Y-223464524D02*
X71100000Y-223416905D01*
X71052381Y-223321667D01*
X71052381Y-223083571D01*
X71100000Y-222988333D01*
X71147619Y-222940714D01*
X71242857Y-222893095D01*
X71338095Y-222893095D01*
X71480952Y-222940714D01*
X72052381Y-223512143D01*
X72052381Y-222893095D01*
X170807143Y-217047143D02*
X170759524Y-217094762D01*
X170616667Y-217142381D01*
X170521429Y-217142381D01*
X170378571Y-217094762D01*
X170283333Y-216999524D01*
X170235714Y-216904286D01*
X170188095Y-216713810D01*
X170188095Y-216570952D01*
X170235714Y-216380476D01*
X170283333Y-216285238D01*
X170378571Y-216190000D01*
X170521429Y-216142381D01*
X170616667Y-216142381D01*
X170759524Y-216190000D01*
X170807143Y-216237619D01*
X171140476Y-216142381D02*
X171759524Y-216142381D01*
X171426190Y-216523333D01*
X171569048Y-216523333D01*
X171664286Y-216570952D01*
X171711905Y-216618571D01*
X171759524Y-216713810D01*
X171759524Y-216951905D01*
X171711905Y-217047143D01*
X171664286Y-217094762D01*
X171569048Y-217142381D01*
X171283333Y-217142381D01*
X171188095Y-217094762D01*
X171140476Y-217047143D01*
X172092857Y-216142381D02*
X172711905Y-216142381D01*
X172378571Y-216523333D01*
X172521429Y-216523333D01*
X172616667Y-216570952D01*
X172664286Y-216618571D01*
X172711905Y-216713810D01*
X172711905Y-216951905D01*
X172664286Y-217047143D01*
X172616667Y-217094762D01*
X172521429Y-217142381D01*
X172235714Y-217142381D01*
X172140476Y-217094762D01*
X172092857Y-217047143D01*
X168787143Y-205747857D02*
X168834762Y-205795476D01*
X168882381Y-205938333D01*
X168882381Y-206033571D01*
X168834762Y-206176429D01*
X168739524Y-206271667D01*
X168644286Y-206319286D01*
X168453810Y-206366905D01*
X168310952Y-206366905D01*
X168120476Y-206319286D01*
X168025238Y-206271667D01*
X167930000Y-206176429D01*
X167882381Y-206033571D01*
X167882381Y-205938333D01*
X167930000Y-205795476D01*
X167977619Y-205747857D01*
X167882381Y-205414524D02*
X167882381Y-204795476D01*
X168263333Y-205128810D01*
X168263333Y-204985952D01*
X168310952Y-204890714D01*
X168358571Y-204843095D01*
X168453810Y-204795476D01*
X168691905Y-204795476D01*
X168787143Y-204843095D01*
X168834762Y-204890714D01*
X168882381Y-204985952D01*
X168882381Y-205271667D01*
X168834762Y-205366905D01*
X168787143Y-205414524D01*
X168215714Y-203938333D02*
X168882381Y-203938333D01*
X167834762Y-204176429D02*
X168549048Y-204414524D01*
X168549048Y-203795476D01*
X191127143Y-217047143D02*
X191079524Y-217094762D01*
X190936667Y-217142381D01*
X190841429Y-217142381D01*
X190698571Y-217094762D01*
X190603333Y-216999524D01*
X190555714Y-216904286D01*
X190508095Y-216713810D01*
X190508095Y-216570952D01*
X190555714Y-216380476D01*
X190603333Y-216285238D01*
X190698571Y-216190000D01*
X190841429Y-216142381D01*
X190936667Y-216142381D01*
X191079524Y-216190000D01*
X191127143Y-216237619D01*
X191508095Y-216237619D02*
X191555714Y-216190000D01*
X191650952Y-216142381D01*
X191889048Y-216142381D01*
X191984286Y-216190000D01*
X192031905Y-216237619D01*
X192079524Y-216332857D01*
X192079524Y-216428095D01*
X192031905Y-216570952D01*
X191460476Y-217142381D01*
X192079524Y-217142381D01*
X192412857Y-216142381D02*
X193079524Y-216142381D01*
X192650952Y-217142381D01*
X170807143Y-184027143D02*
X170759524Y-184074762D01*
X170616667Y-184122381D01*
X170521429Y-184122381D01*
X170378571Y-184074762D01*
X170283333Y-183979524D01*
X170235714Y-183884286D01*
X170188095Y-183693810D01*
X170188095Y-183550952D01*
X170235714Y-183360476D01*
X170283333Y-183265238D01*
X170378571Y-183170000D01*
X170521429Y-183122381D01*
X170616667Y-183122381D01*
X170759524Y-183170000D01*
X170807143Y-183217619D01*
X171188095Y-183217619D02*
X171235714Y-183170000D01*
X171330952Y-183122381D01*
X171569048Y-183122381D01*
X171664286Y-183170000D01*
X171711905Y-183217619D01*
X171759524Y-183312857D01*
X171759524Y-183408095D01*
X171711905Y-183550952D01*
X171140476Y-184122381D01*
X171759524Y-184122381D01*
X172235714Y-184122381D02*
X172426190Y-184122381D01*
X172521429Y-184074762D01*
X172569048Y-184027143D01*
X172664286Y-183884286D01*
X172711905Y-183693810D01*
X172711905Y-183312857D01*
X172664286Y-183217619D01*
X172616667Y-183170000D01*
X172521429Y-183122381D01*
X172330952Y-183122381D01*
X172235714Y-183170000D01*
X172188095Y-183217619D01*
X172140476Y-183312857D01*
X172140476Y-183550952D01*
X172188095Y-183646190D01*
X172235714Y-183693810D01*
X172330952Y-183741429D01*
X172521429Y-183741429D01*
X172616667Y-183693810D01*
X172664286Y-183646190D01*
X172711905Y-183550952D01*
X168787143Y-172727857D02*
X168834762Y-172775476D01*
X168882381Y-172918333D01*
X168882381Y-173013571D01*
X168834762Y-173156429D01*
X168739524Y-173251667D01*
X168644286Y-173299286D01*
X168453810Y-173346905D01*
X168310952Y-173346905D01*
X168120476Y-173299286D01*
X168025238Y-173251667D01*
X167930000Y-173156429D01*
X167882381Y-173013571D01*
X167882381Y-172918333D01*
X167930000Y-172775476D01*
X167977619Y-172727857D01*
X167882381Y-172394524D02*
X167882381Y-171775476D01*
X168263333Y-172108810D01*
X168263333Y-171965952D01*
X168310952Y-171870714D01*
X168358571Y-171823095D01*
X168453810Y-171775476D01*
X168691905Y-171775476D01*
X168787143Y-171823095D01*
X168834762Y-171870714D01*
X168882381Y-171965952D01*
X168882381Y-172251667D01*
X168834762Y-172346905D01*
X168787143Y-172394524D01*
X167882381Y-171156429D02*
X167882381Y-171061190D01*
X167930000Y-170965952D01*
X167977619Y-170918333D01*
X168072857Y-170870714D01*
X168263333Y-170823095D01*
X168501429Y-170823095D01*
X168691905Y-170870714D01*
X168787143Y-170918333D01*
X168834762Y-170965952D01*
X168882381Y-171061190D01*
X168882381Y-171156429D01*
X168834762Y-171251667D01*
X168787143Y-171299286D01*
X168691905Y-171346905D01*
X168501429Y-171394524D01*
X168263333Y-171394524D01*
X168072857Y-171346905D01*
X167977619Y-171299286D01*
X167930000Y-171251667D01*
X167882381Y-171156429D01*
X191127143Y-184027143D02*
X191079524Y-184074762D01*
X190936667Y-184122381D01*
X190841429Y-184122381D01*
X190698571Y-184074762D01*
X190603333Y-183979524D01*
X190555714Y-183884286D01*
X190508095Y-183693810D01*
X190508095Y-183550952D01*
X190555714Y-183360476D01*
X190603333Y-183265238D01*
X190698571Y-183170000D01*
X190841429Y-183122381D01*
X190936667Y-183122381D01*
X191079524Y-183170000D01*
X191127143Y-183217619D01*
X191508095Y-183217619D02*
X191555714Y-183170000D01*
X191650952Y-183122381D01*
X191889048Y-183122381D01*
X191984286Y-183170000D01*
X192031905Y-183217619D01*
X192079524Y-183312857D01*
X192079524Y-183408095D01*
X192031905Y-183550952D01*
X191460476Y-184122381D01*
X192079524Y-184122381D01*
X192984286Y-183122381D02*
X192508095Y-183122381D01*
X192460476Y-183598571D01*
X192508095Y-183550952D01*
X192603333Y-183503333D01*
X192841429Y-183503333D01*
X192936667Y-183550952D01*
X192984286Y-183598571D01*
X193031905Y-183693810D01*
X193031905Y-183931905D01*
X192984286Y-184027143D01*
X192936667Y-184074762D01*
X192841429Y-184122381D01*
X192603333Y-184122381D01*
X192508095Y-184074762D01*
X192460476Y-184027143D01*
X62432143Y-123197857D02*
X62479762Y-123245476D01*
X62527381Y-123388333D01*
X62527381Y-123483571D01*
X62479762Y-123626429D01*
X62384524Y-123721667D01*
X62289286Y-123769286D01*
X62098810Y-123816905D01*
X61955952Y-123816905D01*
X61765476Y-123769286D01*
X61670238Y-123721667D01*
X61575000Y-123626429D01*
X61527381Y-123483571D01*
X61527381Y-123388333D01*
X61575000Y-123245476D01*
X61622619Y-123197857D01*
X61860714Y-122340714D02*
X62527381Y-122340714D01*
X61479762Y-122578810D02*
X62194048Y-122816905D01*
X62194048Y-122197857D01*
X61527381Y-121626429D02*
X61527381Y-121531190D01*
X61575000Y-121435952D01*
X61622619Y-121388333D01*
X61717857Y-121340714D01*
X61908333Y-121293095D01*
X62146429Y-121293095D01*
X62336905Y-121340714D01*
X62432143Y-121388333D01*
X62479762Y-121435952D01*
X62527381Y-121531190D01*
X62527381Y-121626429D01*
X62479762Y-121721667D01*
X62432143Y-121769286D01*
X62336905Y-121816905D01*
X62146429Y-121864524D01*
X61908333Y-121864524D01*
X61717857Y-121816905D01*
X61622619Y-121769286D01*
X61575000Y-121721667D01*
X61527381Y-121626429D01*
X29722143Y-153042857D02*
X29769762Y-153090476D01*
X29817381Y-153233333D01*
X29817381Y-153328571D01*
X29769762Y-153471429D01*
X29674524Y-153566667D01*
X29579286Y-153614286D01*
X29388810Y-153661905D01*
X29245952Y-153661905D01*
X29055476Y-153614286D01*
X28960238Y-153566667D01*
X28865000Y-153471429D01*
X28817381Y-153328571D01*
X28817381Y-153233333D01*
X28865000Y-153090476D01*
X28912619Y-153042857D01*
X29150714Y-152185714D02*
X29817381Y-152185714D01*
X28769762Y-152423810D02*
X29484048Y-152661905D01*
X29484048Y-152042857D01*
X29817381Y-151138095D02*
X29817381Y-151709524D01*
X29817381Y-151423810D02*
X28817381Y-151423810D01*
X28960238Y-151519048D01*
X29055476Y-151614286D01*
X29103095Y-151709524D01*
X48093334Y-212927143D02*
X48045715Y-212974762D01*
X47902858Y-213022381D01*
X47807620Y-213022381D01*
X47664762Y-212974762D01*
X47569524Y-212879524D01*
X47521905Y-212784286D01*
X47474286Y-212593810D01*
X47474286Y-212450952D01*
X47521905Y-212260476D01*
X47569524Y-212165238D01*
X47664762Y-212070000D01*
X47807620Y-212022381D01*
X47902858Y-212022381D01*
X48045715Y-212070000D01*
X48093334Y-212117619D01*
X48426667Y-212022381D02*
X49093334Y-212022381D01*
X48664762Y-213022381D01*
X69512381Y-73358333D02*
X70226667Y-73358333D01*
X70369524Y-73405953D01*
X70464762Y-73501191D01*
X70512381Y-73644048D01*
X70512381Y-73739286D01*
X69845714Y-72453571D02*
X70512381Y-72453571D01*
X69464762Y-72691667D02*
X70179048Y-72929762D01*
X70179048Y-72310714D01*
X69512381Y-26368333D02*
X70226667Y-26368333D01*
X70369524Y-26415953D01*
X70464762Y-26511191D01*
X70512381Y-26654048D01*
X70512381Y-26749286D01*
X69512381Y-25415952D02*
X69512381Y-25892143D01*
X69988571Y-25939762D01*
X69940952Y-25892143D01*
X69893333Y-25796905D01*
X69893333Y-25558809D01*
X69940952Y-25463571D01*
X69988571Y-25415952D01*
X70083810Y-25368333D01*
X70321905Y-25368333D01*
X70417143Y-25415952D01*
X70464762Y-25463571D01*
X70512381Y-25558809D01*
X70512381Y-25796905D01*
X70464762Y-25892143D01*
X70417143Y-25939762D01*
X181276667Y-35222381D02*
X181276667Y-35936667D01*
X181229047Y-36079524D01*
X181133809Y-36174762D01*
X180990952Y-36222381D01*
X180895714Y-36222381D01*
X181657619Y-35222381D02*
X182324286Y-35222381D01*
X181895714Y-36222381D01*
X52101905Y-220807381D02*
X52101905Y-221616905D01*
X52149524Y-221712143D01*
X52197143Y-221759762D01*
X52292381Y-221807381D01*
X52482858Y-221807381D01*
X52578096Y-221759762D01*
X52625715Y-221712143D01*
X52673334Y-221616905D01*
X52673334Y-220807381D01*
X53673334Y-221807381D02*
X53101905Y-221807381D01*
X53387619Y-221807381D02*
X53387619Y-220807381D01*
X53292381Y-220950238D01*
X53197143Y-221045476D01*
X53101905Y-221093095D01*
X54054286Y-220902619D02*
X54101905Y-220855000D01*
X54197143Y-220807381D01*
X54435239Y-220807381D01*
X54530477Y-220855000D01*
X54578096Y-220902619D01*
X54625715Y-220997857D01*
X54625715Y-221093095D01*
X54578096Y-221235952D01*
X54006667Y-221807381D01*
X54625715Y-221807381D01*
X52101905Y-187787381D02*
X52101905Y-188596905D01*
X52149524Y-188692143D01*
X52197143Y-188739762D01*
X52292381Y-188787381D01*
X52482858Y-188787381D01*
X52578096Y-188739762D01*
X52625715Y-188692143D01*
X52673334Y-188596905D01*
X52673334Y-187787381D01*
X53673334Y-188787381D02*
X53101905Y-188787381D01*
X53387619Y-188787381D02*
X53387619Y-187787381D01*
X53292381Y-187930238D01*
X53197143Y-188025476D01*
X53101905Y-188073095D01*
X54006667Y-187787381D02*
X54625715Y-187787381D01*
X54292381Y-188168333D01*
X54435239Y-188168333D01*
X54530477Y-188215952D01*
X54578096Y-188263571D01*
X54625715Y-188358810D01*
X54625715Y-188596905D01*
X54578096Y-188692143D01*
X54530477Y-188739762D01*
X54435239Y-188787381D01*
X54149524Y-188787381D01*
X54054286Y-188739762D01*
X54006667Y-188692143D01*
X185451905Y-174337381D02*
X185451905Y-175146905D01*
X185499524Y-175242143D01*
X185547143Y-175289762D01*
X185642381Y-175337381D01*
X185832858Y-175337381D01*
X185928096Y-175289762D01*
X185975715Y-175242143D01*
X186023334Y-175146905D01*
X186023334Y-174337381D01*
X187023334Y-175337381D02*
X186451905Y-175337381D01*
X186737619Y-175337381D02*
X186737619Y-174337381D01*
X186642381Y-174480238D01*
X186547143Y-174575476D01*
X186451905Y-174623095D01*
X187880477Y-174337381D02*
X187690000Y-174337381D01*
X187594762Y-174385000D01*
X187547143Y-174432619D01*
X187451905Y-174575476D01*
X187404286Y-174765952D01*
X187404286Y-175146905D01*
X187451905Y-175242143D01*
X187499524Y-175289762D01*
X187594762Y-175337381D01*
X187785239Y-175337381D01*
X187880477Y-175289762D01*
X187928096Y-175242143D01*
X187975715Y-175146905D01*
X187975715Y-174908810D01*
X187928096Y-174813571D01*
X187880477Y-174765952D01*
X187785239Y-174718333D01*
X187594762Y-174718333D01*
X187499524Y-174765952D01*
X187451905Y-174813571D01*
X187404286Y-174908810D01*
X185451905Y-207357381D02*
X185451905Y-208166905D01*
X185499524Y-208262143D01*
X185547143Y-208309762D01*
X185642381Y-208357381D01*
X185832858Y-208357381D01*
X185928096Y-208309762D01*
X185975715Y-208262143D01*
X186023334Y-208166905D01*
X186023334Y-207357381D01*
X187023334Y-208357381D02*
X186451905Y-208357381D01*
X186737619Y-208357381D02*
X186737619Y-207357381D01*
X186642381Y-207500238D01*
X186547143Y-207595476D01*
X186451905Y-207643095D01*
X187356667Y-207357381D02*
X188023334Y-207357381D01*
X187594762Y-208357381D01*
X38084167Y-125661071D02*
X37750833Y-125661071D01*
X37750833Y-126184881D02*
X37750833Y-125184881D01*
X38227024Y-125184881D01*
X38560357Y-125280119D02*
X38607976Y-125232500D01*
X38703214Y-125184881D01*
X38941310Y-125184881D01*
X39036548Y-125232500D01*
X39084167Y-125280119D01*
X39131786Y-125375357D01*
X39131786Y-125470595D01*
X39084167Y-125613452D01*
X38512738Y-126184881D01*
X39131786Y-126184881D01*
X38084167Y-114231071D02*
X37750833Y-114231071D01*
X37750833Y-114754881D02*
X37750833Y-113754881D01*
X38227024Y-113754881D01*
X38512738Y-113754881D02*
X39131786Y-113754881D01*
X38798452Y-114135833D01*
X38941310Y-114135833D01*
X39036548Y-114183452D01*
X39084167Y-114231071D01*
X39131786Y-114326310D01*
X39131786Y-114564405D01*
X39084167Y-114659643D01*
X39036548Y-114707262D01*
X38941310Y-114754881D01*
X38655595Y-114754881D01*
X38560357Y-114707262D01*
X38512738Y-114659643D01*
X91322381Y-182819095D02*
X92131905Y-182819095D01*
X92227143Y-182771476D01*
X92274762Y-182723857D01*
X92322381Y-182628619D01*
X92322381Y-182438142D01*
X92274762Y-182342904D01*
X92227143Y-182295285D01*
X92131905Y-182247666D01*
X91322381Y-182247666D01*
X92322381Y-181247666D02*
X92322381Y-181819095D01*
X92322381Y-181533381D02*
X91322381Y-181533381D01*
X91465238Y-181628619D01*
X91560476Y-181723857D01*
X91608095Y-181819095D01*
X91322381Y-180342904D02*
X91322381Y-180819095D01*
X91798571Y-180866714D01*
X91750952Y-180819095D01*
X91703333Y-180723857D01*
X91703333Y-180485761D01*
X91750952Y-180390523D01*
X91798571Y-180342904D01*
X91893810Y-180295285D01*
X92131905Y-180295285D01*
X92227143Y-180342904D01*
X92274762Y-180390523D01*
X92322381Y-180485761D01*
X92322381Y-180723857D01*
X92274762Y-180819095D01*
X92227143Y-180866714D01*
X91322381Y-215839095D02*
X92131905Y-215839095D01*
X92227143Y-215791476D01*
X92274762Y-215743857D01*
X92322381Y-215648619D01*
X92322381Y-215458142D01*
X92274762Y-215362904D01*
X92227143Y-215315285D01*
X92131905Y-215267666D01*
X91322381Y-215267666D01*
X92322381Y-214267666D02*
X92322381Y-214839095D01*
X92322381Y-214553381D02*
X91322381Y-214553381D01*
X91465238Y-214648619D01*
X91560476Y-214743857D01*
X91608095Y-214839095D01*
X91655714Y-213410523D02*
X92322381Y-213410523D01*
X91274762Y-213648619D02*
X91989048Y-213886714D01*
X91989048Y-213267666D01*
X147612381Y-215897095D02*
X148421905Y-215897095D01*
X148517143Y-215849476D01*
X148564762Y-215801857D01*
X148612381Y-215706619D01*
X148612381Y-215516142D01*
X148564762Y-215420904D01*
X148517143Y-215373285D01*
X148421905Y-215325666D01*
X147612381Y-215325666D01*
X148612381Y-214325666D02*
X148612381Y-214897095D01*
X148612381Y-214611381D02*
X147612381Y-214611381D01*
X147755238Y-214706619D01*
X147850476Y-214801857D01*
X147898095Y-214897095D01*
X148612381Y-213849476D02*
X148612381Y-213659000D01*
X148564762Y-213563761D01*
X148517143Y-213516142D01*
X148374286Y-213420904D01*
X148183810Y-213373285D01*
X147802857Y-213373285D01*
X147707619Y-213420904D01*
X147660000Y-213468523D01*
X147612381Y-213563761D01*
X147612381Y-213754238D01*
X147660000Y-213849476D01*
X147707619Y-213897095D01*
X147802857Y-213944714D01*
X148040952Y-213944714D01*
X148136190Y-213897095D01*
X148183810Y-213849476D01*
X148231429Y-213754238D01*
X148231429Y-213563761D01*
X148183810Y-213468523D01*
X148136190Y-213420904D01*
X148040952Y-213373285D01*
X147612381Y-182877095D02*
X148421905Y-182877095D01*
X148517143Y-182829476D01*
X148564762Y-182781857D01*
X148612381Y-182686619D01*
X148612381Y-182496142D01*
X148564762Y-182400904D01*
X148517143Y-182353285D01*
X148421905Y-182305666D01*
X147612381Y-182305666D01*
X148612381Y-181305666D02*
X148612381Y-181877095D01*
X148612381Y-181591381D02*
X147612381Y-181591381D01*
X147755238Y-181686619D01*
X147850476Y-181781857D01*
X147898095Y-181877095D01*
X148040952Y-180734238D02*
X147993333Y-180829476D01*
X147945714Y-180877095D01*
X147850476Y-180924714D01*
X147802857Y-180924714D01*
X147707619Y-180877095D01*
X147660000Y-180829476D01*
X147612381Y-180734238D01*
X147612381Y-180543761D01*
X147660000Y-180448523D01*
X147707619Y-180400904D01*
X147802857Y-180353285D01*
X147850476Y-180353285D01*
X147945714Y-180400904D01*
X147993333Y-180448523D01*
X148040952Y-180543761D01*
X148040952Y-180734238D01*
X148088571Y-180829476D01*
X148136190Y-180877095D01*
X148231429Y-180924714D01*
X148421905Y-180924714D01*
X148517143Y-180877095D01*
X148564762Y-180829476D01*
X148612381Y-180734238D01*
X148612381Y-180543761D01*
X148564762Y-180448523D01*
X148517143Y-180400904D01*
X148421905Y-180353285D01*
X148231429Y-180353285D01*
X148136190Y-180400904D01*
X148088571Y-180448523D01*
X148040952Y-180543761D01*
X74552381Y-156805238D02*
X74076190Y-157138572D01*
X74552381Y-157376667D02*
X73552381Y-157376667D01*
X73552381Y-156995714D01*
X73600000Y-156900476D01*
X73647619Y-156852857D01*
X73742857Y-156805238D01*
X73885714Y-156805238D01*
X73980952Y-156852857D01*
X74028571Y-156900476D01*
X74076190Y-156995714D01*
X74076190Y-157376667D01*
X73552381Y-156519524D02*
X74552381Y-156186191D01*
X73552381Y-155852857D01*
X73552381Y-155043333D02*
X73552381Y-155519524D01*
X74028571Y-155567143D01*
X73980952Y-155519524D01*
X73933333Y-155424286D01*
X73933333Y-155186190D01*
X73980952Y-155090952D01*
X74028571Y-155043333D01*
X74123810Y-154995714D01*
X74361905Y-154995714D01*
X74457143Y-155043333D01*
X74504762Y-155090952D01*
X74552381Y-155186190D01*
X74552381Y-155424286D01*
X74504762Y-155519524D01*
X74457143Y-155567143D01*
X78779762Y-138052381D02*
X78446428Y-137576190D01*
X78208333Y-138052381D02*
X78208333Y-137052381D01*
X78589286Y-137052381D01*
X78684524Y-137100000D01*
X78732143Y-137147619D01*
X78779762Y-137242857D01*
X78779762Y-137385714D01*
X78732143Y-137480952D01*
X78684524Y-137528571D01*
X78589286Y-137576190D01*
X78208333Y-137576190D01*
X79065476Y-137052381D02*
X79398809Y-138052381D01*
X79732143Y-137052381D01*
X80494048Y-137385714D02*
X80494048Y-138052381D01*
X80255952Y-137004762D02*
X80017857Y-137719048D01*
X80636905Y-137719048D01*
X33277381Y-58380238D02*
X32801190Y-58713572D01*
X33277381Y-58951667D02*
X32277381Y-58951667D01*
X32277381Y-58570714D01*
X32325000Y-58475476D01*
X32372619Y-58427857D01*
X32467857Y-58380238D01*
X32610714Y-58380238D01*
X32705952Y-58427857D01*
X32753571Y-58475476D01*
X32801190Y-58570714D01*
X32801190Y-58951667D01*
X32277381Y-58094524D02*
X33277381Y-57761191D01*
X32277381Y-57427857D01*
X32277381Y-57189762D02*
X32277381Y-56570714D01*
X32658333Y-56904048D01*
X32658333Y-56761190D01*
X32705952Y-56665952D01*
X32753571Y-56618333D01*
X32848810Y-56570714D01*
X33086905Y-56570714D01*
X33182143Y-56618333D01*
X33229762Y-56665952D01*
X33277381Y-56761190D01*
X33277381Y-57046905D01*
X33229762Y-57142143D01*
X33182143Y-57189762D01*
X36869762Y-44462381D02*
X36536428Y-43986190D01*
X36298333Y-44462381D02*
X36298333Y-43462381D01*
X36679286Y-43462381D01*
X36774524Y-43510000D01*
X36822143Y-43557619D01*
X36869762Y-43652857D01*
X36869762Y-43795714D01*
X36822143Y-43890952D01*
X36774524Y-43938571D01*
X36679286Y-43986190D01*
X36298333Y-43986190D01*
X37155476Y-43462381D02*
X37488809Y-44462381D01*
X37822143Y-43462381D01*
X38679286Y-44462381D02*
X38107857Y-44462381D01*
X38393571Y-44462381D02*
X38393571Y-43462381D01*
X38298333Y-43605238D01*
X38203095Y-43700476D01*
X38107857Y-43748095D01*
X37087381Y-34250238D02*
X36611190Y-34583572D01*
X37087381Y-34821667D02*
X36087381Y-34821667D01*
X36087381Y-34440714D01*
X36135000Y-34345476D01*
X36182619Y-34297857D01*
X36277857Y-34250238D01*
X36420714Y-34250238D01*
X36515952Y-34297857D01*
X36563571Y-34345476D01*
X36611190Y-34440714D01*
X36611190Y-34821667D01*
X36087381Y-33964524D02*
X37087381Y-33631191D01*
X36087381Y-33297857D01*
X36182619Y-33012143D02*
X36135000Y-32964524D01*
X36087381Y-32869286D01*
X36087381Y-32631190D01*
X36135000Y-32535952D01*
X36182619Y-32488333D01*
X36277857Y-32440714D01*
X36373095Y-32440714D01*
X36515952Y-32488333D01*
X37087381Y-33059762D01*
X37087381Y-32440714D01*
M02*
