G04 #@! TF.FileFunction,Soldermask,Top*
%FSLAX46Y46*%
G04 Gerber Fmt 4.6, Leading zero omitted, Abs format (unit mm)*
G04 Created by KiCad (PCBNEW 4.0.6) date 07/21/17 01:23:25*
%MOMM*%
%LPD*%
G01*
G04 APERTURE LIST*
%ADD10C,0.100000*%
%ADD11O,2.800000X1.924000*%
%ADD12O,2.940000X1.924000*%
%ADD13C,1.924000*%
%ADD14R,2.000200X2.000200*%
%ADD15C,2.000200*%
%ADD16R,2.100000X2.100000*%
%ADD17O,2.100000X2.100000*%
%ADD18C,5.539994*%
%ADD19C,5.539740*%
%ADD20R,3.702000X5.988000*%
%ADD21C,2.700000*%
%ADD22R,2.400000X2.400000*%
%ADD23C,2.400000*%
%ADD24C,2.000000*%
%ADD25R,3.000000X2.000000*%
%ADD26R,2.000000X3.000000*%
%ADD27R,1.300000X1.200000*%
%ADD28R,1.700000X1.900000*%
%ADD29R,1.900000X1.700000*%
%ADD30R,2.400000X2.100000*%
%ADD31R,2.100000X2.400000*%
%ADD32O,2.000000X2.000000*%
%ADD33C,2.800000*%
%ADD34O,2.800000X2.800000*%
%ADD35R,2.200000X2.200000*%
%ADD36O,2.200000X2.200000*%
%ADD37R,2.000000X2.000000*%
%ADD38R,1.050000X1.960000*%
%ADD39R,1.000000X1.950000*%
%ADD40R,1.950000X1.000000*%
%ADD41R,2.400000X2.000000*%
%ADD42R,2.000000X2.400000*%
%ADD43R,1.850000X0.850000*%
%ADD44C,5.226000*%
%ADD45R,2.000000X1.700000*%
%ADD46R,1.700000X2.000000*%
G04 APERTURE END LIST*
D10*
D11*
X144145000Y-92075000D03*
X144145000Y-89535000D03*
X144145000Y-86995000D03*
X144145000Y-84455000D03*
X144145000Y-81915000D03*
X144145000Y-79375000D03*
X144145000Y-76835000D03*
X144145000Y-74295000D03*
X95885000Y-69215000D03*
X95885000Y-71755000D03*
X95885000Y-74295000D03*
X95885000Y-76835000D03*
X95885000Y-86995000D03*
X95885000Y-92075000D03*
X95885000Y-94615000D03*
X95885000Y-84455000D03*
X95885000Y-81915000D03*
X95885000Y-79375000D03*
X95885000Y-97155000D03*
X95885000Y-99695000D03*
X95885000Y-102235000D03*
X95885000Y-109855000D03*
X95885000Y-107315000D03*
X95885000Y-104775000D03*
D12*
X95885000Y-114935000D03*
X95885000Y-117475000D03*
X95885000Y-120015000D03*
X95885000Y-125095000D03*
X95885000Y-127635000D03*
D11*
X144145000Y-97155000D03*
X144145000Y-99695000D03*
X144145000Y-102235000D03*
X144145000Y-104775000D03*
X144145000Y-107315000D03*
X144145000Y-109855000D03*
X144145000Y-112395000D03*
X144145000Y-114935000D03*
X144145000Y-118999000D03*
X144145000Y-121539000D03*
X144145000Y-124079000D03*
X144145000Y-126619000D03*
X144145000Y-129159000D03*
X144145000Y-131699000D03*
X144145000Y-134239000D03*
X144145000Y-136779000D03*
D12*
X95885000Y-122555000D03*
D13*
X141605000Y-66675000D03*
X141605000Y-64135000D03*
X139065000Y-66675000D03*
X139065000Y-64135000D03*
X136525000Y-66675000D03*
X136525000Y-64135000D03*
X133985000Y-66675000D03*
X133985000Y-64135000D03*
X144145000Y-66675000D03*
X144145000Y-64135000D03*
X131445000Y-64135000D03*
X131445000Y-66675000D03*
X128905000Y-66675000D03*
X128905000Y-64135000D03*
X126365000Y-66675000D03*
X126365000Y-64135000D03*
X123825000Y-66675000D03*
X123825000Y-64135000D03*
X121285000Y-66675000D03*
X121285000Y-64135000D03*
X118745000Y-66675000D03*
X118745000Y-64135000D03*
X116205000Y-66675000D03*
X116205000Y-64135000D03*
X113665000Y-66675000D03*
X113665000Y-64135000D03*
X111125000Y-66675000D03*
X111125000Y-64135000D03*
X108585000Y-66675000D03*
X108585000Y-64135000D03*
X106045000Y-66675000D03*
X106045000Y-64135000D03*
X103505000Y-66675000D03*
X103505000Y-64135000D03*
X100965000Y-66675000D03*
X100965000Y-64135000D03*
D14*
X92710000Y-64770000D03*
D15*
X90170000Y-64770000D03*
X92710000Y-67310000D03*
X90170000Y-67310000D03*
X92710000Y-69850000D03*
X90170000Y-69850000D03*
X92710000Y-72390000D03*
X90170000Y-72390000D03*
X92710000Y-74930000D03*
X90170000Y-74930000D03*
X92710000Y-77470000D03*
X90170000Y-77470000D03*
X92710000Y-80010000D03*
X90170000Y-80010000D03*
X92710000Y-82550000D03*
X90170000Y-82550000D03*
X92710000Y-85090000D03*
X90170000Y-85090000D03*
X92710000Y-87630000D03*
X90170000Y-87630000D03*
X92710000Y-90170000D03*
X90170000Y-90170000D03*
X92710000Y-92710000D03*
X90170000Y-92710000D03*
X92710000Y-95250000D03*
X90170000Y-95250000D03*
X92710000Y-97790000D03*
X90170000Y-97790000D03*
X92710000Y-100330000D03*
X90170000Y-100330000D03*
X92710000Y-102870000D03*
X90170000Y-102870000D03*
X92710000Y-105410000D03*
X90170000Y-105410000D03*
X92710000Y-107950000D03*
X90170000Y-107950000D03*
X92710000Y-110490000D03*
X90170000Y-110490000D03*
X92710000Y-113030000D03*
X90170000Y-113030000D03*
D14*
X143510000Y-60960000D03*
D15*
X143510000Y-58420000D03*
X140970000Y-60960000D03*
X140970000Y-58420000D03*
X138430000Y-60960000D03*
X138430000Y-58420000D03*
X135890000Y-60960000D03*
X135890000Y-58420000D03*
X133350000Y-60960000D03*
X133350000Y-58420000D03*
X130810000Y-60960000D03*
X130810000Y-58420000D03*
X128270000Y-60960000D03*
X128270000Y-58420000D03*
X125730000Y-60960000D03*
X125730000Y-58420000D03*
X123190000Y-60960000D03*
X123190000Y-58420000D03*
X120650000Y-60960000D03*
X120650000Y-58420000D03*
X118110000Y-60960000D03*
X118110000Y-58420000D03*
X115570000Y-60960000D03*
X115570000Y-58420000D03*
X113030000Y-60960000D03*
X113030000Y-58420000D03*
X110490000Y-60960000D03*
X110490000Y-58420000D03*
X107950000Y-60960000D03*
X107950000Y-58420000D03*
X105410000Y-60960000D03*
X105410000Y-58420000D03*
X102870000Y-60960000D03*
X102870000Y-58420000D03*
X100330000Y-60960000D03*
X100330000Y-58420000D03*
X97790000Y-60960000D03*
X97790000Y-58420000D03*
X95250000Y-60960000D03*
X95250000Y-58420000D03*
D14*
X149860000Y-64770000D03*
D15*
X147320000Y-64770000D03*
X149860000Y-67310000D03*
X147320000Y-67310000D03*
X149860000Y-69850000D03*
X147320000Y-69850000D03*
X149860000Y-72390000D03*
X147320000Y-72390000D03*
X149860000Y-74930000D03*
X147320000Y-74930000D03*
X149860000Y-77470000D03*
X147320000Y-77470000D03*
X149860000Y-80010000D03*
X147320000Y-80010000D03*
X149860000Y-82550000D03*
X147320000Y-82550000D03*
X149860000Y-85090000D03*
X147320000Y-85090000D03*
X149860000Y-87630000D03*
X147320000Y-87630000D03*
X149860000Y-90170000D03*
X147320000Y-90170000D03*
X149860000Y-92710000D03*
X147320000Y-92710000D03*
X149860000Y-95250000D03*
X147320000Y-95250000D03*
X149860000Y-97790000D03*
X147320000Y-97790000D03*
X149860000Y-100330000D03*
X147320000Y-100330000D03*
X149860000Y-102870000D03*
X147320000Y-102870000D03*
X149860000Y-105410000D03*
X147320000Y-105410000D03*
X149860000Y-107950000D03*
X147320000Y-107950000D03*
X149860000Y-110490000D03*
X147320000Y-110490000D03*
X149860000Y-113030000D03*
X147320000Y-113030000D03*
D14*
X171450000Y-64770000D03*
D15*
X168910000Y-64770000D03*
X171450000Y-67310000D03*
X168910000Y-67310000D03*
X171450000Y-69850000D03*
X168910000Y-69850000D03*
X171450000Y-72390000D03*
X168910000Y-72390000D03*
X171450000Y-74930000D03*
X168910000Y-74930000D03*
X171450000Y-77470000D03*
X168910000Y-77470000D03*
X171450000Y-80010000D03*
X168910000Y-80010000D03*
X171450000Y-82550000D03*
X168910000Y-82550000D03*
X171450000Y-85090000D03*
X168910000Y-85090000D03*
X171450000Y-87630000D03*
X168910000Y-87630000D03*
X171450000Y-90170000D03*
X168910000Y-90170000D03*
X171450000Y-92710000D03*
X168910000Y-92710000D03*
X171450000Y-95250000D03*
X168910000Y-95250000D03*
X171450000Y-97790000D03*
X168910000Y-97790000D03*
X171450000Y-100330000D03*
X168910000Y-100330000D03*
X171450000Y-102870000D03*
X168910000Y-102870000D03*
X171450000Y-105410000D03*
X168910000Y-105410000D03*
X171450000Y-107950000D03*
X168910000Y-107950000D03*
X171450000Y-110490000D03*
X168910000Y-110490000D03*
X171450000Y-113030000D03*
X168910000Y-113030000D03*
D16*
X72390000Y-47625000D03*
D17*
X74930000Y-47625000D03*
X77470000Y-47625000D03*
D16*
X158750000Y-38100000D03*
D17*
X161290000Y-38100000D03*
X158750000Y-40640000D03*
X161290000Y-40640000D03*
X158750000Y-43180000D03*
X161290000Y-43180000D03*
X158750000Y-45720000D03*
X161290000Y-45720000D03*
X158750000Y-48260000D03*
X161290000Y-48260000D03*
X158750000Y-50800000D03*
X161290000Y-50800000D03*
X158750000Y-53340000D03*
X161290000Y-53340000D03*
X158750000Y-55880000D03*
X161290000Y-55880000D03*
X158750000Y-58420000D03*
X161290000Y-58420000D03*
X158750000Y-60960000D03*
X161290000Y-60960000D03*
X158750000Y-63500000D03*
X161290000Y-63500000D03*
X158750000Y-66040000D03*
X161290000Y-66040000D03*
X158750000Y-68580000D03*
X161290000Y-68580000D03*
X158750000Y-71120000D03*
X161290000Y-71120000D03*
X158750000Y-73660000D03*
X161290000Y-73660000D03*
X158750000Y-76200000D03*
X161290000Y-76200000D03*
X158750000Y-78740000D03*
X161290000Y-78740000D03*
X158750000Y-81280000D03*
X161290000Y-81280000D03*
X158750000Y-83820000D03*
X161290000Y-83820000D03*
X158750000Y-86360000D03*
X161290000Y-86360000D03*
D18*
X119380000Y-181610000D03*
D19*
X33020000Y-181610000D03*
D20*
X41719500Y-133032500D03*
X35115500Y-133032500D03*
D21*
X22152500Y-127602500D03*
D22*
X18972500Y-125102500D03*
D23*
X18972500Y-121602500D03*
X18972500Y-118102500D03*
X23572500Y-125102500D03*
X23572500Y-121602500D03*
X23572500Y-118102500D03*
D21*
X22152500Y-115602500D03*
D24*
X96520000Y-40005000D03*
X96520000Y-42505000D03*
X92710000Y-28575000D03*
X95210000Y-28575000D03*
D25*
X70380000Y-170815000D03*
X66780000Y-170815000D03*
D26*
X62865000Y-192935000D03*
X62865000Y-189335000D03*
D25*
X50060000Y-170815000D03*
X46460000Y-170815000D03*
X70380000Y-203835000D03*
X66780000Y-203835000D03*
D26*
X62865000Y-225955000D03*
X62865000Y-222355000D03*
D25*
X50060000Y-203835000D03*
X46460000Y-203835000D03*
X56620000Y-203835000D03*
X60220000Y-203835000D03*
X56620000Y-170815000D03*
X60220000Y-170815000D03*
D26*
X83820000Y-192935000D03*
X83820000Y-189335000D03*
D25*
X80540000Y-170815000D03*
X76940000Y-170815000D03*
D26*
X83820000Y-225955000D03*
X83820000Y-222355000D03*
D25*
X80540000Y-203835000D03*
X76940000Y-203835000D03*
X169650000Y-225425000D03*
X173250000Y-225425000D03*
D26*
X177165000Y-203305000D03*
X177165000Y-206905000D03*
D25*
X189970000Y-225425000D03*
X193570000Y-225425000D03*
X169650000Y-192405000D03*
X173250000Y-192405000D03*
D26*
X177165000Y-170285000D03*
X177165000Y-173885000D03*
D25*
X189970000Y-192405000D03*
X193570000Y-192405000D03*
X183410000Y-192405000D03*
X179810000Y-192405000D03*
X183410000Y-225425000D03*
X179810000Y-225425000D03*
D26*
X156210000Y-203305000D03*
X156210000Y-206905000D03*
D25*
X159490000Y-225425000D03*
X163090000Y-225425000D03*
D26*
X156210000Y-170285000D03*
X156210000Y-173885000D03*
D25*
X159490000Y-192405000D03*
X163090000Y-192405000D03*
D26*
X60325000Y-137055000D03*
X60325000Y-133455000D03*
D25*
X33125000Y-161290000D03*
X36725000Y-161290000D03*
D26*
X85090000Y-122660000D03*
X85090000Y-126260000D03*
X71120000Y-149120000D03*
X71120000Y-145520000D03*
D25*
X113770000Y-204470000D03*
X117370000Y-204470000D03*
D16*
X59372500Y-80327500D03*
D17*
X56832500Y-80327500D03*
X54292500Y-80327500D03*
X51752500Y-80327500D03*
X49212500Y-80327500D03*
X46672500Y-80327500D03*
X44132500Y-80327500D03*
X41592500Y-80327500D03*
X39052500Y-80327500D03*
X36512500Y-80327500D03*
D16*
X25400000Y-201930000D03*
D17*
X25400000Y-199390000D03*
X25400000Y-196850000D03*
D27*
X132350000Y-199075000D03*
X132350000Y-200975000D03*
X134350000Y-200025000D03*
D28*
X146050000Y-45165000D03*
X146050000Y-42465000D03*
X146050000Y-36750000D03*
X146050000Y-39450000D03*
D29*
X112315000Y-109855000D03*
X115015000Y-109855000D03*
X112315000Y-104775000D03*
X115015000Y-104775000D03*
X112315000Y-99695000D03*
X115015000Y-99695000D03*
X112315000Y-94615000D03*
X115015000Y-94615000D03*
X112315000Y-107315000D03*
X115015000Y-107315000D03*
X112315000Y-102235000D03*
X115015000Y-102235000D03*
X112315000Y-97155000D03*
X115015000Y-97155000D03*
X112315000Y-92075000D03*
X115015000Y-92075000D03*
D30*
X48800000Y-41910000D03*
X52800000Y-41910000D03*
X24987500Y-22542500D03*
X28987500Y-22542500D03*
X24352500Y-50482500D03*
X28352500Y-50482500D03*
D31*
X18732500Y-45942500D03*
X18732500Y-49942500D03*
D30*
X53880000Y-33020000D03*
X57880000Y-33020000D03*
D31*
X39370000Y-35020000D03*
X39370000Y-31020000D03*
D24*
X88900000Y-47625000D03*
D32*
X88900000Y-34925000D03*
D24*
X100330000Y-22225000D03*
D32*
X87630000Y-22225000D03*
D29*
X51990000Y-190500000D03*
X54690000Y-190500000D03*
D31*
X76200000Y-189135000D03*
X76200000Y-193135000D03*
X76200000Y-222155000D03*
X76200000Y-226155000D03*
D29*
X188040000Y-205740000D03*
X185340000Y-205740000D03*
D31*
X163830000Y-174085000D03*
X163830000Y-170085000D03*
X163830000Y-207105000D03*
X163830000Y-203105000D03*
X78105000Y-122460000D03*
X78105000Y-126460000D03*
X59690000Y-154400000D03*
X59690000Y-150400000D03*
D30*
X130715000Y-208280000D03*
X134715000Y-208280000D03*
D31*
X26035000Y-31655000D03*
X26035000Y-35655000D03*
D30*
X50705000Y-61595000D03*
X54705000Y-61595000D03*
D31*
X35560000Y-55785000D03*
X35560000Y-59785000D03*
D30*
X17050000Y-57150000D03*
X21050000Y-57150000D03*
D31*
X32702500Y-68357500D03*
X32702500Y-64357500D03*
D30*
X26257500Y-75247500D03*
X30257500Y-75247500D03*
D33*
X113665000Y-194310000D03*
D34*
X126365000Y-194310000D03*
D35*
X68580000Y-125730000D03*
D36*
X68580000Y-123190000D03*
X68580000Y-120650000D03*
D35*
X38100000Y-153035000D03*
D36*
X38100000Y-150495000D03*
X38100000Y-147955000D03*
D37*
X140970000Y-42545000D03*
D32*
X133350000Y-22225000D03*
X140970000Y-40005000D03*
X133350000Y-24765000D03*
X140970000Y-37465000D03*
X133350000Y-27305000D03*
X140970000Y-34925000D03*
X133350000Y-29845000D03*
X140970000Y-32385000D03*
X133350000Y-32385000D03*
X140970000Y-29845000D03*
X133350000Y-34925000D03*
X140970000Y-27305000D03*
X133350000Y-37465000D03*
X140970000Y-24765000D03*
X133350000Y-40005000D03*
X140970000Y-22225000D03*
X133350000Y-42545000D03*
D37*
X107950000Y-42545000D03*
D32*
X123190000Y-34925000D03*
X110490000Y-42545000D03*
X120650000Y-34925000D03*
X120650000Y-42545000D03*
X110490000Y-34925000D03*
X123190000Y-42545000D03*
X107950000Y-34925000D03*
D37*
X107950000Y-29845000D03*
D32*
X123190000Y-22225000D03*
X110490000Y-29845000D03*
X120650000Y-22225000D03*
X120650000Y-29845000D03*
X110490000Y-22225000D03*
X123190000Y-29845000D03*
X107950000Y-22225000D03*
D38*
X42225000Y-40560000D03*
X41275000Y-40560000D03*
X40325000Y-40560000D03*
X40325000Y-43260000D03*
X42225000Y-43260000D03*
X19682500Y-21192500D03*
X18732500Y-21192500D03*
X17782500Y-21192500D03*
X17782500Y-23892500D03*
X19682500Y-23892500D03*
D39*
X20002500Y-30637500D03*
X18732500Y-30637500D03*
X17462500Y-30637500D03*
X16192500Y-30637500D03*
X16192500Y-36037500D03*
X17462500Y-36037500D03*
X18732500Y-36037500D03*
X20002500Y-36037500D03*
D40*
X29687500Y-45402500D03*
X29687500Y-44132500D03*
X29687500Y-42862500D03*
X29687500Y-41592500D03*
X24287500Y-41592500D03*
X24287500Y-42862500D03*
X24287500Y-44132500D03*
X24287500Y-45402500D03*
D38*
X47305000Y-31670000D03*
X46355000Y-31670000D03*
X45405000Y-31670000D03*
X45405000Y-34370000D03*
X47305000Y-34370000D03*
X42860000Y-55800000D03*
X41910000Y-55800000D03*
X40960000Y-55800000D03*
X40960000Y-58500000D03*
X42860000Y-58500000D03*
D39*
X26352500Y-63657500D03*
X25082500Y-63657500D03*
X23812500Y-63657500D03*
X22542500Y-63657500D03*
X22542500Y-69057500D03*
X23812500Y-69057500D03*
X25082500Y-69057500D03*
X26352500Y-69057500D03*
D41*
X70580000Y-177800000D03*
X66580000Y-177800000D03*
D42*
X69850000Y-189135000D03*
X69850000Y-193135000D03*
D41*
X50260000Y-177800000D03*
X46260000Y-177800000D03*
X70580000Y-210820000D03*
X66580000Y-210820000D03*
D42*
X69850000Y-222155000D03*
X69850000Y-226155000D03*
D41*
X169450000Y-218440000D03*
X173450000Y-218440000D03*
D42*
X170180000Y-207105000D03*
X170180000Y-203105000D03*
D41*
X189770000Y-218440000D03*
X193770000Y-218440000D03*
X169450000Y-185420000D03*
X173450000Y-185420000D03*
D42*
X170180000Y-174085000D03*
X170180000Y-170085000D03*
D41*
X189770000Y-185420000D03*
X193770000Y-185420000D03*
D42*
X60325000Y-120555000D03*
X60325000Y-124555000D03*
X31115000Y-154400000D03*
X31115000Y-150400000D03*
D41*
X50260000Y-210820000D03*
X46260000Y-210820000D03*
D16*
X72390000Y-73025000D03*
D17*
X74930000Y-73025000D03*
X77470000Y-73025000D03*
D16*
X72390000Y-26035000D03*
D17*
X74930000Y-26035000D03*
X77470000Y-26035000D03*
D16*
X180340000Y-38100000D03*
D17*
X182880000Y-38100000D03*
X180340000Y-40640000D03*
X182880000Y-40640000D03*
X180340000Y-43180000D03*
X182880000Y-43180000D03*
X180340000Y-45720000D03*
X182880000Y-45720000D03*
X180340000Y-48260000D03*
X182880000Y-48260000D03*
X180340000Y-50800000D03*
X182880000Y-50800000D03*
X180340000Y-53340000D03*
X182880000Y-53340000D03*
X180340000Y-55880000D03*
X182880000Y-55880000D03*
X180340000Y-58420000D03*
X182880000Y-58420000D03*
X180340000Y-60960000D03*
X182880000Y-60960000D03*
X180340000Y-63500000D03*
X182880000Y-63500000D03*
X180340000Y-66040000D03*
X182880000Y-66040000D03*
X180340000Y-68580000D03*
X182880000Y-68580000D03*
X180340000Y-71120000D03*
X182880000Y-71120000D03*
X180340000Y-73660000D03*
X182880000Y-73660000D03*
X180340000Y-76200000D03*
X182880000Y-76200000D03*
X180340000Y-78740000D03*
X182880000Y-78740000D03*
X180340000Y-81280000D03*
X182880000Y-81280000D03*
X180340000Y-83820000D03*
X182880000Y-83820000D03*
X180340000Y-86360000D03*
X182880000Y-86360000D03*
D43*
X56290000Y-219755000D03*
X56290000Y-219105000D03*
X56290000Y-218455000D03*
X56290000Y-217805000D03*
X56290000Y-217155000D03*
X56290000Y-216505000D03*
X56290000Y-215855000D03*
X50390000Y-215855000D03*
X50390000Y-216505000D03*
X50390000Y-217155000D03*
X50390000Y-217805000D03*
X50390000Y-218455000D03*
X50390000Y-219105000D03*
X50390000Y-219755000D03*
X56290000Y-186735000D03*
X56290000Y-186085000D03*
X56290000Y-185435000D03*
X56290000Y-184785000D03*
X56290000Y-184135000D03*
X56290000Y-183485000D03*
X56290000Y-182835000D03*
X50390000Y-182835000D03*
X50390000Y-183485000D03*
X50390000Y-184135000D03*
X50390000Y-184785000D03*
X50390000Y-185435000D03*
X50390000Y-186085000D03*
X50390000Y-186735000D03*
X183740000Y-176485000D03*
X183740000Y-177135000D03*
X183740000Y-177785000D03*
X183740000Y-178435000D03*
X183740000Y-179085000D03*
X183740000Y-179735000D03*
X183740000Y-180385000D03*
X189640000Y-180385000D03*
X189640000Y-179735000D03*
X189640000Y-179085000D03*
X189640000Y-178435000D03*
X189640000Y-177785000D03*
X189640000Y-177135000D03*
X189640000Y-176485000D03*
X183740000Y-209505000D03*
X183740000Y-210155000D03*
X183740000Y-210805000D03*
X183740000Y-211455000D03*
X183740000Y-212105000D03*
X183740000Y-212755000D03*
X183740000Y-213405000D03*
X189640000Y-213405000D03*
X189640000Y-212755000D03*
X189640000Y-212105000D03*
X189640000Y-211455000D03*
X189640000Y-210805000D03*
X189640000Y-210155000D03*
X189640000Y-209505000D03*
D18*
X168275000Y-52705000D03*
X55880000Y-52705000D03*
X193040000Y-132715000D03*
D19*
X106680000Y-132715000D03*
D20*
X41719500Y-121602500D03*
X35115500Y-121602500D03*
X41719500Y-110172500D03*
X35115500Y-110172500D03*
D35*
X82550000Y-178181000D03*
D36*
X86250000Y-179881000D03*
X82550000Y-181581000D03*
X86250000Y-183281000D03*
X82550000Y-184981000D03*
D44*
X93599000Y-171196000D03*
X93599000Y-192024000D03*
D35*
X82550000Y-211201000D03*
D36*
X86250000Y-212901000D03*
X82550000Y-214601000D03*
X86250000Y-216301000D03*
X82550000Y-218001000D03*
D44*
X93599000Y-204216000D03*
X93599000Y-225044000D03*
D35*
X157480000Y-218059000D03*
D36*
X153780000Y-216359000D03*
X157480000Y-214659000D03*
X153780000Y-212959000D03*
X157480000Y-211259000D03*
D44*
X146431000Y-225044000D03*
X146431000Y-204216000D03*
D35*
X157480000Y-185039000D03*
D36*
X153780000Y-183339000D03*
X157480000Y-181639000D03*
X153780000Y-179939000D03*
X157480000Y-178239000D03*
D44*
X146431000Y-192024000D03*
X146431000Y-171196000D03*
D45*
X71300000Y-154960000D03*
X71300000Y-157460000D03*
D42*
X68400000Y-156210000D03*
D46*
X80625000Y-134800000D03*
X78125000Y-134800000D03*
D41*
X79375000Y-131900000D03*
D45*
X30025000Y-56535000D03*
X30025000Y-59035000D03*
D42*
X27125000Y-57785000D03*
D46*
X36215000Y-46810000D03*
X38715000Y-46810000D03*
D41*
X37465000Y-49710000D03*
D45*
X33835000Y-32405000D03*
X33835000Y-34905000D03*
D42*
X30935000Y-33655000D03*
M02*
