G04 #@! TF.FileFunction,Copper,L2,Inr,Signal*
%FSLAX46Y46*%
G04 Gerber Fmt 4.6, Leading zero omitted, Abs format (unit mm)*
G04 Created by KiCad (PCBNEW 4.0.6) date 07/21/17 01:23:24*
%MOMM*%
%LPD*%
G01*
G04 APERTURE LIST*
%ADD10C,0.100000*%
%ADD11O,2.400000X1.524000*%
%ADD12O,2.540000X1.524000*%
%ADD13C,1.524000*%
%ADD14R,1.600200X1.600200*%
%ADD15C,1.600200*%
%ADD16R,1.700000X1.700000*%
%ADD17O,1.700000X1.700000*%
%ADD18R,2.000000X2.000000*%
%ADD19C,2.000000*%
%ADD20C,1.600000*%
%ADD21O,1.600000X1.600000*%
%ADD22C,2.400000*%
%ADD23O,2.400000X2.400000*%
%ADD24R,1.800000X1.800000*%
%ADD25O,1.800000X1.800000*%
%ADD26R,1.600000X1.600000*%
%ADD27C,0.762000*%
%ADD28C,1.270000*%
%ADD29C,0.600000*%
%ADD30C,0.635000*%
%ADD31C,0.381000*%
%ADD32C,0.762000*%
%ADD33C,1.905000*%
%ADD34C,0.508000*%
%ADD35C,1.270000*%
%ADD36C,0.254000*%
G04 APERTURE END LIST*
D10*
D11*
X144145000Y-92075000D03*
X144145000Y-89535000D03*
X144145000Y-86995000D03*
X144145000Y-84455000D03*
X144145000Y-81915000D03*
X144145000Y-79375000D03*
X144145000Y-76835000D03*
X144145000Y-74295000D03*
X95885000Y-69215000D03*
X95885000Y-71755000D03*
X95885000Y-74295000D03*
X95885000Y-76835000D03*
X95885000Y-86995000D03*
X95885000Y-92075000D03*
X95885000Y-94615000D03*
X95885000Y-84455000D03*
X95885000Y-81915000D03*
X95885000Y-79375000D03*
X95885000Y-97155000D03*
X95885000Y-99695000D03*
X95885000Y-102235000D03*
X95885000Y-109855000D03*
X95885000Y-107315000D03*
X95885000Y-104775000D03*
D12*
X95885000Y-114935000D03*
X95885000Y-117475000D03*
X95885000Y-120015000D03*
X95885000Y-125095000D03*
X95885000Y-127635000D03*
D11*
X144145000Y-97155000D03*
X144145000Y-99695000D03*
X144145000Y-102235000D03*
X144145000Y-104775000D03*
X144145000Y-107315000D03*
X144145000Y-109855000D03*
X144145000Y-112395000D03*
X144145000Y-114935000D03*
X144145000Y-118999000D03*
X144145000Y-121539000D03*
X144145000Y-124079000D03*
X144145000Y-126619000D03*
X144145000Y-129159000D03*
X144145000Y-131699000D03*
X144145000Y-134239000D03*
X144145000Y-136779000D03*
D12*
X95885000Y-122555000D03*
D13*
X141605000Y-66675000D03*
X141605000Y-64135000D03*
X139065000Y-66675000D03*
X139065000Y-64135000D03*
X136525000Y-66675000D03*
X136525000Y-64135000D03*
X133985000Y-66675000D03*
X133985000Y-64135000D03*
X144145000Y-66675000D03*
X144145000Y-64135000D03*
X131445000Y-64135000D03*
X131445000Y-66675000D03*
X128905000Y-66675000D03*
X128905000Y-64135000D03*
X126365000Y-66675000D03*
X126365000Y-64135000D03*
X123825000Y-66675000D03*
X123825000Y-64135000D03*
X121285000Y-66675000D03*
X121285000Y-64135000D03*
X118745000Y-66675000D03*
X118745000Y-64135000D03*
X116205000Y-66675000D03*
X116205000Y-64135000D03*
X113665000Y-66675000D03*
X113665000Y-64135000D03*
X111125000Y-66675000D03*
X111125000Y-64135000D03*
X108585000Y-66675000D03*
X108585000Y-64135000D03*
X106045000Y-66675000D03*
X106045000Y-64135000D03*
X103505000Y-66675000D03*
X103505000Y-64135000D03*
X100965000Y-66675000D03*
X100965000Y-64135000D03*
D14*
X92710000Y-64770000D03*
D15*
X90170000Y-64770000D03*
X92710000Y-67310000D03*
X90170000Y-67310000D03*
X92710000Y-69850000D03*
X90170000Y-69850000D03*
X92710000Y-72390000D03*
X90170000Y-72390000D03*
X92710000Y-74930000D03*
X90170000Y-74930000D03*
X92710000Y-77470000D03*
X90170000Y-77470000D03*
X92710000Y-80010000D03*
X90170000Y-80010000D03*
X92710000Y-82550000D03*
X90170000Y-82550000D03*
X92710000Y-85090000D03*
X90170000Y-85090000D03*
X92710000Y-87630000D03*
X90170000Y-87630000D03*
X92710000Y-90170000D03*
X90170000Y-90170000D03*
X92710000Y-92710000D03*
X90170000Y-92710000D03*
X92710000Y-95250000D03*
X90170000Y-95250000D03*
X92710000Y-97790000D03*
X90170000Y-97790000D03*
X92710000Y-100330000D03*
X90170000Y-100330000D03*
X92710000Y-102870000D03*
X90170000Y-102870000D03*
X92710000Y-105410000D03*
X90170000Y-105410000D03*
X92710000Y-107950000D03*
X90170000Y-107950000D03*
X92710000Y-110490000D03*
X90170000Y-110490000D03*
X92710000Y-113030000D03*
X90170000Y-113030000D03*
D14*
X143510000Y-60960000D03*
D15*
X143510000Y-58420000D03*
X140970000Y-60960000D03*
X140970000Y-58420000D03*
X138430000Y-60960000D03*
X138430000Y-58420000D03*
X135890000Y-60960000D03*
X135890000Y-58420000D03*
X133350000Y-60960000D03*
X133350000Y-58420000D03*
X130810000Y-60960000D03*
X130810000Y-58420000D03*
X128270000Y-60960000D03*
X128270000Y-58420000D03*
X125730000Y-60960000D03*
X125730000Y-58420000D03*
X123190000Y-60960000D03*
X123190000Y-58420000D03*
X120650000Y-60960000D03*
X120650000Y-58420000D03*
X118110000Y-60960000D03*
X118110000Y-58420000D03*
X115570000Y-60960000D03*
X115570000Y-58420000D03*
X113030000Y-60960000D03*
X113030000Y-58420000D03*
X110490000Y-60960000D03*
X110490000Y-58420000D03*
X107950000Y-60960000D03*
X107950000Y-58420000D03*
X105410000Y-60960000D03*
X105410000Y-58420000D03*
X102870000Y-60960000D03*
X102870000Y-58420000D03*
X100330000Y-60960000D03*
X100330000Y-58420000D03*
X97790000Y-60960000D03*
X97790000Y-58420000D03*
X95250000Y-60960000D03*
X95250000Y-58420000D03*
D14*
X149860000Y-64770000D03*
D15*
X147320000Y-64770000D03*
X149860000Y-67310000D03*
X147320000Y-67310000D03*
X149860000Y-69850000D03*
X147320000Y-69850000D03*
X149860000Y-72390000D03*
X147320000Y-72390000D03*
X149860000Y-74930000D03*
X147320000Y-74930000D03*
X149860000Y-77470000D03*
X147320000Y-77470000D03*
X149860000Y-80010000D03*
X147320000Y-80010000D03*
X149860000Y-82550000D03*
X147320000Y-82550000D03*
X149860000Y-85090000D03*
X147320000Y-85090000D03*
X149860000Y-87630000D03*
X147320000Y-87630000D03*
X149860000Y-90170000D03*
X147320000Y-90170000D03*
X149860000Y-92710000D03*
X147320000Y-92710000D03*
X149860000Y-95250000D03*
X147320000Y-95250000D03*
X149860000Y-97790000D03*
X147320000Y-97790000D03*
X149860000Y-100330000D03*
X147320000Y-100330000D03*
X149860000Y-102870000D03*
X147320000Y-102870000D03*
X149860000Y-105410000D03*
X147320000Y-105410000D03*
X149860000Y-107950000D03*
X147320000Y-107950000D03*
X149860000Y-110490000D03*
X147320000Y-110490000D03*
X149860000Y-113030000D03*
X147320000Y-113030000D03*
D14*
X171450000Y-64770000D03*
D15*
X168910000Y-64770000D03*
X171450000Y-67310000D03*
X168910000Y-67310000D03*
X171450000Y-69850000D03*
X168910000Y-69850000D03*
X171450000Y-72390000D03*
X168910000Y-72390000D03*
X171450000Y-74930000D03*
X168910000Y-74930000D03*
X171450000Y-77470000D03*
X168910000Y-77470000D03*
X171450000Y-80010000D03*
X168910000Y-80010000D03*
X171450000Y-82550000D03*
X168910000Y-82550000D03*
X171450000Y-85090000D03*
X168910000Y-85090000D03*
X171450000Y-87630000D03*
X168910000Y-87630000D03*
X171450000Y-90170000D03*
X168910000Y-90170000D03*
X171450000Y-92710000D03*
X168910000Y-92710000D03*
X171450000Y-95250000D03*
X168910000Y-95250000D03*
X171450000Y-97790000D03*
X168910000Y-97790000D03*
X171450000Y-100330000D03*
X168910000Y-100330000D03*
X171450000Y-102870000D03*
X168910000Y-102870000D03*
X171450000Y-105410000D03*
X168910000Y-105410000D03*
X171450000Y-107950000D03*
X168910000Y-107950000D03*
X171450000Y-110490000D03*
X168910000Y-110490000D03*
X171450000Y-113030000D03*
X168910000Y-113030000D03*
D16*
X72390000Y-47625000D03*
D17*
X74930000Y-47625000D03*
X77470000Y-47625000D03*
D16*
X158750000Y-38100000D03*
D17*
X161290000Y-38100000D03*
X158750000Y-40640000D03*
X161290000Y-40640000D03*
X158750000Y-43180000D03*
X161290000Y-43180000D03*
X158750000Y-45720000D03*
X161290000Y-45720000D03*
X158750000Y-48260000D03*
X161290000Y-48260000D03*
X158750000Y-50800000D03*
X161290000Y-50800000D03*
X158750000Y-53340000D03*
X161290000Y-53340000D03*
X158750000Y-55880000D03*
X161290000Y-55880000D03*
X158750000Y-58420000D03*
X161290000Y-58420000D03*
X158750000Y-60960000D03*
X161290000Y-60960000D03*
X158750000Y-63500000D03*
X161290000Y-63500000D03*
X158750000Y-66040000D03*
X161290000Y-66040000D03*
X158750000Y-68580000D03*
X161290000Y-68580000D03*
X158750000Y-71120000D03*
X161290000Y-71120000D03*
X158750000Y-73660000D03*
X161290000Y-73660000D03*
X158750000Y-76200000D03*
X161290000Y-76200000D03*
X158750000Y-78740000D03*
X161290000Y-78740000D03*
X158750000Y-81280000D03*
X161290000Y-81280000D03*
X158750000Y-83820000D03*
X161290000Y-83820000D03*
X158750000Y-86360000D03*
X161290000Y-86360000D03*
D18*
X18972500Y-125102500D03*
D19*
X18972500Y-121602500D03*
X18972500Y-118102500D03*
X23572500Y-125102500D03*
X23572500Y-121602500D03*
X23572500Y-118102500D03*
D20*
X96520000Y-40005000D03*
X96520000Y-42505000D03*
X92710000Y-28575000D03*
X95210000Y-28575000D03*
D16*
X59372500Y-80327500D03*
D17*
X56832500Y-80327500D03*
X54292500Y-80327500D03*
X51752500Y-80327500D03*
X49212500Y-80327500D03*
X46672500Y-80327500D03*
X44132500Y-80327500D03*
X41592500Y-80327500D03*
X39052500Y-80327500D03*
X36512500Y-80327500D03*
D16*
X25400000Y-201930000D03*
D17*
X25400000Y-199390000D03*
X25400000Y-196850000D03*
D20*
X88900000Y-47625000D03*
D21*
X88900000Y-34925000D03*
D20*
X100330000Y-22225000D03*
D21*
X87630000Y-22225000D03*
D22*
X113665000Y-194310000D03*
D23*
X126365000Y-194310000D03*
D24*
X68580000Y-125730000D03*
D25*
X68580000Y-123190000D03*
X68580000Y-120650000D03*
D24*
X38100000Y-153035000D03*
D25*
X38100000Y-150495000D03*
X38100000Y-147955000D03*
D26*
X140970000Y-42545000D03*
D21*
X133350000Y-22225000D03*
X140970000Y-40005000D03*
X133350000Y-24765000D03*
X140970000Y-37465000D03*
X133350000Y-27305000D03*
X140970000Y-34925000D03*
X133350000Y-29845000D03*
X140970000Y-32385000D03*
X133350000Y-32385000D03*
X140970000Y-29845000D03*
X133350000Y-34925000D03*
X140970000Y-27305000D03*
X133350000Y-37465000D03*
X140970000Y-24765000D03*
X133350000Y-40005000D03*
X140970000Y-22225000D03*
X133350000Y-42545000D03*
D26*
X107950000Y-42545000D03*
D21*
X123190000Y-34925000D03*
X110490000Y-42545000D03*
X120650000Y-34925000D03*
X120650000Y-42545000D03*
X110490000Y-34925000D03*
X123190000Y-42545000D03*
X107950000Y-34925000D03*
D26*
X107950000Y-29845000D03*
D21*
X123190000Y-22225000D03*
X110490000Y-29845000D03*
X120650000Y-22225000D03*
X120650000Y-29845000D03*
X110490000Y-22225000D03*
X123190000Y-29845000D03*
X107950000Y-22225000D03*
D16*
X72390000Y-73025000D03*
D17*
X74930000Y-73025000D03*
X77470000Y-73025000D03*
D16*
X72390000Y-26035000D03*
D17*
X74930000Y-26035000D03*
X77470000Y-26035000D03*
D16*
X180340000Y-38100000D03*
D17*
X182880000Y-38100000D03*
X180340000Y-40640000D03*
X182880000Y-40640000D03*
X180340000Y-43180000D03*
X182880000Y-43180000D03*
X180340000Y-45720000D03*
X182880000Y-45720000D03*
X180340000Y-48260000D03*
X182880000Y-48260000D03*
X180340000Y-50800000D03*
X182880000Y-50800000D03*
X180340000Y-53340000D03*
X182880000Y-53340000D03*
X180340000Y-55880000D03*
X182880000Y-55880000D03*
X180340000Y-58420000D03*
X182880000Y-58420000D03*
X180340000Y-60960000D03*
X182880000Y-60960000D03*
X180340000Y-63500000D03*
X182880000Y-63500000D03*
X180340000Y-66040000D03*
X182880000Y-66040000D03*
X180340000Y-68580000D03*
X182880000Y-68580000D03*
X180340000Y-71120000D03*
X182880000Y-71120000D03*
X180340000Y-73660000D03*
X182880000Y-73660000D03*
X180340000Y-76200000D03*
X182880000Y-76200000D03*
X180340000Y-78740000D03*
X182880000Y-78740000D03*
X180340000Y-81280000D03*
X182880000Y-81280000D03*
X180340000Y-83820000D03*
X182880000Y-83820000D03*
X180340000Y-86360000D03*
X182880000Y-86360000D03*
D24*
X82550000Y-178181000D03*
D25*
X86250000Y-179881000D03*
X82550000Y-181581000D03*
X86250000Y-183281000D03*
X82550000Y-184981000D03*
D24*
X82550000Y-211201000D03*
D25*
X86250000Y-212901000D03*
X82550000Y-214601000D03*
X86250000Y-216301000D03*
X82550000Y-218001000D03*
D24*
X157480000Y-218059000D03*
D25*
X153780000Y-216359000D03*
X157480000Y-214659000D03*
X153780000Y-212959000D03*
X157480000Y-211259000D03*
D24*
X157480000Y-185039000D03*
D25*
X153780000Y-183339000D03*
X157480000Y-181639000D03*
X153780000Y-179939000D03*
X157480000Y-178239000D03*
D27*
X58420000Y-165100000D03*
X73660000Y-207645000D03*
X71755000Y-96520000D03*
D28*
X23495000Y-37465000D03*
D27*
X23495000Y-47625000D03*
X27940000Y-71120000D03*
D28*
X47625000Y-122555000D03*
D29*
X167005000Y-216535000D03*
D27*
X168910000Y-182880000D03*
X58420000Y-178435000D03*
D29*
X137160000Y-205105000D03*
X83820000Y-133350000D03*
X168910000Y-195580000D03*
X167005000Y-227965000D03*
X63500000Y-206375000D03*
X44450000Y-61595000D03*
X43815000Y-45720000D03*
X36195000Y-26035000D03*
X74930000Y-152400000D03*
X161290000Y-170180000D03*
X193675000Y-213360000D03*
X191770000Y-182245000D03*
X48895000Y-213360000D03*
X69850000Y-229235000D03*
X69850000Y-196215000D03*
X63500000Y-168910000D03*
X46355000Y-168275000D03*
X20320000Y-69215000D03*
X17145000Y-53975000D03*
X24130000Y-40005000D03*
X15875000Y-20955000D03*
D28*
X30480000Y-158750000D03*
X60325000Y-129540000D03*
X83820000Y-99060000D03*
D27*
X15875000Y-52705000D03*
D28*
X12065000Y-30480000D03*
D27*
X17780000Y-43180000D03*
X15240000Y-63500000D03*
D28*
X46355000Y-132715000D03*
D27*
X73660000Y-167640000D03*
X182245000Y-173990000D03*
X181610000Y-207645000D03*
D29*
X66675000Y-188595000D03*
D27*
X66675000Y-220980000D03*
X53340000Y-174625000D03*
D28*
X83820000Y-116840000D03*
D29*
X146050000Y-33020000D03*
D27*
X53340000Y-210820000D03*
D28*
X51435000Y-109855000D03*
D27*
X186690000Y-182880000D03*
D29*
X186690000Y-215265000D03*
D27*
X53340000Y-180340000D03*
D28*
X94615000Y-185420000D03*
X79375000Y-106045000D03*
X101600000Y-141605000D03*
D29*
X60325000Y-185420000D03*
D28*
X94615000Y-217805000D03*
X104775000Y-141605000D03*
D29*
X60960000Y-218440000D03*
D28*
X107315000Y-149225000D03*
X74295000Y-106045000D03*
X141605000Y-210820000D03*
D29*
X179705000Y-212725000D03*
D28*
X107950000Y-146685000D03*
X139065000Y-178435000D03*
D29*
X180340000Y-179705000D03*
D28*
X19685000Y-26670000D03*
X33655000Y-92710000D03*
X33020000Y-40005000D03*
X73660000Y-130810000D03*
X29210000Y-101600000D03*
D29*
X34290000Y-22860000D03*
X63500000Y-33020000D03*
X57785000Y-41910000D03*
X61595000Y-61595000D03*
X92710000Y-55880000D03*
X91440000Y-54610000D03*
X137795000Y-70485000D03*
X118110000Y-148590000D03*
X90805000Y-163195000D03*
X140335000Y-71120000D03*
X116840000Y-149860000D03*
X193675000Y-179070000D03*
X198120000Y-179070000D03*
X90805000Y-161925000D03*
X46355000Y-186690000D03*
X46990000Y-217170000D03*
X90805000Y-160655000D03*
X193662300Y-177787300D03*
X109220000Y-109855000D03*
X109220000Y-80645000D03*
X107950000Y-107315000D03*
X106680000Y-104775000D03*
X106680000Y-80645000D03*
X105410000Y-102235000D03*
X104140000Y-99695000D03*
X104140000Y-80645000D03*
X102870000Y-97155000D03*
X101600000Y-94615000D03*
X101600000Y-80645000D03*
X100330000Y-92075000D03*
X118745000Y-69215000D03*
X80645000Y-84455000D03*
X80645000Y-86360000D03*
X133350000Y-157480000D03*
X132080000Y-157480000D03*
X88900000Y-171450000D03*
X87630000Y-204470000D03*
D28*
X127635000Y-204470000D03*
X123190000Y-204470000D03*
D29*
X60325000Y-183515000D03*
X60960000Y-216535000D03*
X180340000Y-177800000D03*
X179705000Y-210820000D03*
X135255000Y-69850000D03*
D30*
X92075000Y-95250000D02*
X91440000Y-95885000D01*
D31*
X91440000Y-95885000D02*
X90805000Y-96520000D01*
D30*
X92075000Y-95250000D02*
X92710000Y-95250000D01*
X92075000Y-97790000D02*
X91440000Y-97155000D01*
D31*
X91440000Y-97155000D02*
X90805000Y-96520000D01*
D30*
X92075000Y-97790000D02*
X92710000Y-97790000D01*
D32*
X91440000Y-96520000D02*
X92710000Y-97790000D01*
X91440000Y-96520000D02*
X92710000Y-95250000D01*
D33*
X92710000Y-95250000D02*
X92710000Y-97790000D01*
D34*
X92710000Y-96520000D02*
X92075000Y-96520000D01*
D32*
X72263000Y-96520000D02*
X89408000Y-96520000D01*
X71755000Y-96520000D02*
X72263000Y-96520000D01*
D31*
X90805000Y-96520000D02*
X89408000Y-96520000D01*
D34*
X92075000Y-96520000D02*
X91440000Y-96520000D01*
X91440000Y-96520000D02*
X90805000Y-96520000D01*
D35*
X73660000Y-109855000D02*
X78740000Y-116840000D01*
X51435000Y-109855000D02*
X73660000Y-109855000D01*
X78740000Y-116840000D02*
X83820000Y-116840000D01*
X153780000Y-212959000D02*
X143744000Y-212959000D01*
X143744000Y-212959000D02*
X141605000Y-210820000D01*
X153780000Y-179939000D02*
X140569000Y-179939000D01*
X140569000Y-179939000D02*
X139065000Y-178435000D01*
D36*
X158750000Y-86360000D02*
X158750000Y-88265000D01*
X151765000Y-113030000D02*
X149860000Y-113030000D01*
X157480000Y-107315000D02*
X151765000Y-113030000D01*
X157480000Y-89535000D02*
X157480000Y-107315000D01*
X158750000Y-88265000D02*
X157480000Y-89535000D01*
X158750000Y-73660000D02*
X156845000Y-73660000D01*
X151765000Y-100330000D02*
X149860000Y-100330000D01*
X154305000Y-97790000D02*
X151765000Y-100330000D01*
X154305000Y-76200000D02*
X154305000Y-97790000D01*
X156845000Y-73660000D02*
X154305000Y-76200000D01*
X149860000Y-90170000D02*
X151130000Y-90170000D01*
X156845000Y-63500000D02*
X158750000Y-63500000D01*
X151765000Y-68580000D02*
X156845000Y-63500000D01*
X151765000Y-89535000D02*
X151765000Y-68580000D01*
X151130000Y-90170000D02*
X151765000Y-89535000D01*
X149860000Y-92710000D02*
X151765000Y-92710000D01*
X156845000Y-66040000D02*
X158750000Y-66040000D01*
X152400000Y-70485000D02*
X156845000Y-66040000D01*
X152400000Y-92075000D02*
X152400000Y-70485000D01*
X151765000Y-92710000D02*
X152400000Y-92075000D01*
X158750000Y-68580000D02*
X156845000Y-68580000D01*
X151765000Y-95250000D02*
X149860000Y-95250000D01*
X153035000Y-93980000D02*
X151765000Y-95250000D01*
X153035000Y-72390000D02*
X153035000Y-93980000D01*
X156845000Y-68580000D02*
X153035000Y-72390000D01*
X149860000Y-97790000D02*
X151765000Y-97790000D01*
X156845000Y-71120000D02*
X158750000Y-71120000D01*
X153670000Y-74295000D02*
X156845000Y-71120000D01*
X153670000Y-95885000D02*
X153670000Y-74295000D01*
X151765000Y-97790000D02*
X153670000Y-95885000D01*
X149860000Y-102870000D02*
X151765000Y-102870000D01*
X156845000Y-76200000D02*
X158750000Y-76200000D01*
X154940000Y-78105000D02*
X156845000Y-76200000D01*
X154940000Y-99695000D02*
X154940000Y-78105000D01*
X151765000Y-102870000D02*
X154940000Y-99695000D01*
X158750000Y-78740000D02*
X156845000Y-78740000D01*
X151765000Y-105410000D02*
X149860000Y-105410000D01*
X155575000Y-101600000D02*
X151765000Y-105410000D01*
X155575000Y-80010000D02*
X155575000Y-101600000D01*
X156845000Y-78740000D02*
X155575000Y-80010000D01*
X158750000Y-81280000D02*
X156845000Y-81280000D01*
X151765000Y-107950000D02*
X149860000Y-107950000D01*
X156210000Y-103505000D02*
X151765000Y-107950000D01*
X156210000Y-81915000D02*
X156210000Y-103505000D01*
X156845000Y-81280000D02*
X156210000Y-81915000D01*
X149860000Y-110490000D02*
X151765000Y-110490000D01*
X157480000Y-83820000D02*
X158750000Y-83820000D01*
X156845000Y-84455000D02*
X157480000Y-83820000D01*
X156845000Y-105410000D02*
X156845000Y-84455000D01*
X151765000Y-110490000D02*
X156845000Y-105410000D01*
X180340000Y-86360000D02*
X180340000Y-88265000D01*
X173355000Y-113030000D02*
X171450000Y-113030000D01*
X179070000Y-107315000D02*
X173355000Y-113030000D01*
X179070000Y-89535000D02*
X179070000Y-107315000D01*
X180340000Y-88265000D02*
X179070000Y-89535000D01*
X171450000Y-100330000D02*
X173355000Y-100330000D01*
X178435000Y-73660000D02*
X180340000Y-73660000D01*
X175895000Y-76200000D02*
X178435000Y-73660000D01*
X175895000Y-97790000D02*
X175895000Y-76200000D01*
X173355000Y-100330000D02*
X175895000Y-97790000D01*
X171450000Y-90170000D02*
X172720000Y-90170000D01*
X178435000Y-63500000D02*
X180340000Y-63500000D01*
X173355000Y-68580000D02*
X178435000Y-63500000D01*
X173355000Y-89535000D02*
X173355000Y-68580000D01*
X172720000Y-90170000D02*
X173355000Y-89535000D01*
X180340000Y-66040000D02*
X178435000Y-66040000D01*
X173355000Y-92710000D02*
X171450000Y-92710000D01*
X173990000Y-92075000D02*
X173355000Y-92710000D01*
X173990000Y-70485000D02*
X173990000Y-92075000D01*
X178435000Y-66040000D02*
X173990000Y-70485000D01*
X171450000Y-95250000D02*
X173355000Y-95250000D01*
X178435000Y-68580000D02*
X180340000Y-68580000D01*
X174625000Y-72390000D02*
X178435000Y-68580000D01*
X174625000Y-93980000D02*
X174625000Y-72390000D01*
X173355000Y-95250000D02*
X174625000Y-93980000D01*
X180340000Y-71120000D02*
X178435000Y-71120000D01*
X173355000Y-97790000D02*
X171450000Y-97790000D01*
X175260000Y-95885000D02*
X173355000Y-97790000D01*
X175260000Y-74295000D02*
X175260000Y-95885000D01*
X178435000Y-71120000D02*
X175260000Y-74295000D01*
X180340000Y-76200000D02*
X178435000Y-76200000D01*
X173355000Y-102870000D02*
X171450000Y-102870000D01*
X176530000Y-99695000D02*
X173355000Y-102870000D01*
X176530000Y-78105000D02*
X176530000Y-99695000D01*
X178435000Y-76200000D02*
X176530000Y-78105000D01*
X171450000Y-105410000D02*
X173355000Y-105410000D01*
X178435000Y-78740000D02*
X180340000Y-78740000D01*
X177165000Y-80010000D02*
X178435000Y-78740000D01*
X177165000Y-101600000D02*
X177165000Y-80010000D01*
X173355000Y-105410000D02*
X177165000Y-101600000D01*
X180340000Y-81280000D02*
X178435000Y-81280000D01*
X173355000Y-107950000D02*
X171450000Y-107950000D01*
X177800000Y-103505000D02*
X173355000Y-107950000D01*
X177800000Y-81915000D02*
X177800000Y-103505000D01*
X178435000Y-81280000D02*
X177800000Y-81915000D01*
X171450000Y-110490000D02*
X173355000Y-110490000D01*
X179070000Y-83820000D02*
X180340000Y-83820000D01*
X178435000Y-84455000D02*
X179070000Y-83820000D01*
X178435000Y-105410000D02*
X178435000Y-84455000D01*
X173355000Y-110490000D02*
X178435000Y-105410000D01*
X99060000Y-73660000D02*
X99060000Y-67310000D01*
X99060000Y-67310000D02*
X92710000Y-60960000D01*
X92710000Y-60960000D02*
X92710000Y-55880000D01*
X99060000Y-73660000D02*
X95885000Y-76835000D01*
X97790000Y-72390000D02*
X97790000Y-67310000D01*
X97790000Y-67310000D02*
X91440000Y-60960000D01*
X91440000Y-60960000D02*
X91440000Y-54610000D01*
X95885000Y-74295000D02*
X97790000Y-72390000D01*
X118110000Y-114935000D02*
X118110000Y-148590000D01*
X118110000Y-148590000D02*
X118110000Y-150495000D01*
X104775000Y-72390000D02*
X109220000Y-76835000D01*
X109220000Y-76835000D02*
X113665000Y-76835000D01*
X113665000Y-76835000D02*
X118110000Y-81280000D01*
X118110000Y-81280000D02*
X118110000Y-114935000D01*
X106045000Y-64135000D02*
X104775000Y-65405000D01*
X104775000Y-65405000D02*
X104775000Y-69850000D01*
X104775000Y-69850000D02*
X104775000Y-72390000D01*
X105410000Y-163195000D02*
X90805000Y-163195000D01*
X118110000Y-150495000D02*
X105410000Y-163195000D01*
X198120000Y-179070000D02*
X193675000Y-179070000D01*
X116840000Y-114935000D02*
X116840000Y-149860000D01*
X103505000Y-69850000D02*
X103505000Y-72390000D01*
X103505000Y-66675000D02*
X103505000Y-69850000D01*
X116840000Y-81915000D02*
X116840000Y-114935000D01*
X113030000Y-78105000D02*
X116840000Y-81915000D01*
X109220000Y-78105000D02*
X113030000Y-78105000D01*
X103505000Y-72390000D02*
X109220000Y-78105000D01*
X104775000Y-161925000D02*
X90805000Y-161925000D01*
X116840000Y-149860000D02*
X104775000Y-161925000D01*
X42545000Y-190500000D02*
X46355000Y-186690000D01*
X42545000Y-212725000D02*
X42545000Y-190500000D01*
X46990000Y-217170000D02*
X42545000Y-212725000D01*
X115570000Y-114935000D02*
X115570000Y-149225000D01*
X102235000Y-72390000D02*
X109220000Y-79375000D01*
X109220000Y-79375000D02*
X112395000Y-79375000D01*
X112395000Y-79375000D02*
X115570000Y-82550000D01*
X115570000Y-82550000D02*
X115570000Y-114935000D01*
X102235000Y-65405000D02*
X103505000Y-64135000D01*
X102235000Y-65405000D02*
X102235000Y-69850000D01*
X102235000Y-69850000D02*
X102235000Y-72390000D01*
X115570000Y-149225000D02*
X104140000Y-160655000D01*
X104140000Y-160655000D02*
X90805000Y-160655000D01*
X108585000Y-66675000D02*
X108585000Y-74930000D01*
X131445000Y-155575000D02*
X136525000Y-155575000D01*
X119380000Y-143510000D02*
X131445000Y-155575000D01*
X193662300Y-172072300D02*
X193662300Y-177787300D01*
X193662300Y-172072300D02*
X187325000Y-165735000D01*
X184150000Y-162560000D02*
X187325000Y-165735000D01*
X143510000Y-162560000D02*
X184150000Y-162560000D01*
X136525000Y-155575000D02*
X143510000Y-162560000D01*
X119380000Y-80645000D02*
X119380000Y-143510000D01*
X114300000Y-75565000D02*
X119380000Y-80645000D01*
X109220000Y-75565000D02*
X114300000Y-75565000D01*
X108585000Y-74930000D02*
X109220000Y-75565000D01*
X128905000Y-66675000D02*
X128905000Y-66040000D01*
X128905000Y-66040000D02*
X129540000Y-65405000D01*
X129540000Y-65405000D02*
X132080000Y-65405000D01*
X132080000Y-65405000D02*
X132715000Y-64770000D01*
X132715000Y-64770000D02*
X132715000Y-63500000D01*
X132715000Y-63500000D02*
X133350000Y-62865000D01*
X133350000Y-62865000D02*
X137160000Y-62865000D01*
X137160000Y-62865000D02*
X137795000Y-62230000D01*
X137795000Y-62230000D02*
X141605000Y-62230000D01*
X141605000Y-62230000D02*
X142875000Y-60960000D01*
X142875000Y-60960000D02*
X143510000Y-60960000D01*
X126365000Y-66675000D02*
X126365000Y-66040000D01*
X126365000Y-66040000D02*
X127635000Y-64770000D01*
X127635000Y-64770000D02*
X127635000Y-63500000D01*
X127635000Y-63500000D02*
X128270000Y-62865000D01*
X128270000Y-62865000D02*
X132080000Y-62865000D01*
X132080000Y-62865000D02*
X132715000Y-62230000D01*
X132715000Y-62230000D02*
X136525000Y-62230000D01*
X136525000Y-62230000D02*
X137795000Y-60960000D01*
X137795000Y-60960000D02*
X138430000Y-60960000D01*
X123825000Y-66675000D02*
X123825000Y-66040000D01*
X123825000Y-66040000D02*
X125095000Y-64770000D01*
X125095000Y-64770000D02*
X125095000Y-63500000D01*
X125095000Y-63500000D02*
X125730000Y-62865000D01*
X125730000Y-62865000D02*
X127000000Y-62865000D01*
X127000000Y-62865000D02*
X127635000Y-62230000D01*
X127635000Y-62230000D02*
X131445000Y-62230000D01*
X131445000Y-62230000D02*
X132715000Y-60960000D01*
X132715000Y-60960000D02*
X133350000Y-60960000D01*
X121285000Y-66675000D02*
X121285000Y-66040000D01*
X121285000Y-66040000D02*
X122555000Y-64770000D01*
X122555000Y-64770000D02*
X122555000Y-62865000D01*
X122555000Y-62865000D02*
X123190000Y-62230000D01*
X123190000Y-62230000D02*
X126365000Y-62230000D01*
X126365000Y-62230000D02*
X127635000Y-60960000D01*
X127635000Y-60960000D02*
X128270000Y-60960000D01*
X118745000Y-66675000D02*
X118745000Y-66040000D01*
X118745000Y-66040000D02*
X120015000Y-64770000D01*
X120015000Y-64770000D02*
X120015000Y-63500000D01*
X120015000Y-63500000D02*
X122555000Y-60960000D01*
X122555000Y-60960000D02*
X123190000Y-60960000D01*
X116205000Y-66675000D02*
X117475000Y-65405000D01*
X117475000Y-61595000D02*
X118110000Y-60960000D01*
X117475000Y-65405000D02*
X117475000Y-61595000D01*
X113665000Y-66675000D02*
X114935000Y-65405000D01*
X114935000Y-62865000D02*
X113030000Y-60960000D01*
X114935000Y-65405000D02*
X114935000Y-62865000D01*
X111125000Y-66675000D02*
X112395000Y-65405000D01*
X109220000Y-62230000D02*
X107950000Y-60960000D01*
X111125000Y-62230000D02*
X109220000Y-62230000D01*
X112395000Y-63500000D02*
X111125000Y-62230000D01*
X112395000Y-65405000D02*
X112395000Y-63500000D01*
X136525000Y-64135000D02*
X136525000Y-64770000D01*
X136525000Y-64770000D02*
X135255000Y-66040000D01*
X135255000Y-66040000D02*
X135255000Y-67310000D01*
X135255000Y-67310000D02*
X133350000Y-69215000D01*
X133350000Y-69215000D02*
X118745000Y-69215000D01*
X133985000Y-64135000D02*
X133985000Y-64770000D01*
X133985000Y-64770000D02*
X132715000Y-66040000D01*
X132715000Y-66040000D02*
X132715000Y-67310000D01*
X132715000Y-67310000D02*
X132080000Y-67945000D01*
X132080000Y-67945000D02*
X110490000Y-67945000D01*
X110490000Y-67945000D02*
X109855000Y-67310000D01*
X109855000Y-67310000D02*
X109855000Y-63500000D01*
X109855000Y-63500000D02*
X109220000Y-62865000D01*
X109220000Y-62865000D02*
X107950000Y-62865000D01*
X107950000Y-62865000D02*
X106680000Y-61595000D01*
X106680000Y-61595000D02*
X106680000Y-60325000D01*
X106680000Y-60325000D02*
X106045000Y-59690000D01*
X106045000Y-59690000D02*
X101600000Y-59690000D01*
X101600000Y-59690000D02*
X100330000Y-58420000D01*
X99060000Y-81915000D02*
X99060000Y-80645000D01*
X99060000Y-81915000D02*
X99060000Y-130810000D01*
X99060000Y-130810000D02*
X95250000Y-134620000D01*
X95250000Y-134620000D02*
X95250000Y-153035000D01*
X95250000Y-153035000D02*
X88900000Y-159385000D01*
X88900000Y-159385000D02*
X88900000Y-171450000D01*
X83439000Y-211201000D02*
X87630000Y-204470000D01*
X97790000Y-79375000D02*
X95885000Y-79375000D01*
X99060000Y-80645000D02*
X97790000Y-79375000D01*
X83439000Y-211201000D02*
X82550000Y-211201000D01*
X82550000Y-178181000D02*
X84074000Y-178181000D01*
X97155000Y-81915000D02*
X95885000Y-81915000D01*
X97790000Y-82550000D02*
X97155000Y-81915000D01*
X97790000Y-130810000D02*
X97790000Y-82550000D01*
X93980000Y-134620000D02*
X97790000Y-130810000D01*
X93980000Y-153035000D02*
X93980000Y-134620000D01*
X87630000Y-159385000D02*
X93980000Y-153035000D01*
X87630000Y-174625000D02*
X87630000Y-159385000D01*
X84074000Y-178181000D02*
X87630000Y-174625000D01*
G36*
X149733000Y-50673000D02*
X68580000Y-50673000D01*
X68530590Y-50683006D01*
X68488965Y-50711447D01*
X68461685Y-50753841D01*
X68453000Y-50800000D01*
X68453000Y-99060000D01*
X68463006Y-99109410D01*
X68491447Y-99151035D01*
X68533841Y-99178315D01*
X68580000Y-99187000D01*
X82549889Y-99187000D01*
X82549780Y-99311510D01*
X82742718Y-99778458D01*
X83099663Y-100136026D01*
X83566273Y-100329779D01*
X84071510Y-100330220D01*
X84538458Y-100137282D01*
X84562582Y-100113200D01*
X88722936Y-100113200D01*
X88750121Y-100683470D01*
X88916053Y-101084065D01*
X89162183Y-101158212D01*
X89990395Y-100330000D01*
X89162183Y-99501788D01*
X88916053Y-99575935D01*
X88722936Y-100113200D01*
X84562582Y-100113200D01*
X84896026Y-99780337D01*
X85089779Y-99313727D01*
X85089890Y-99187000D01*
X89382512Y-99187000D01*
X89341788Y-99322183D01*
X90170000Y-100150395D01*
X90184143Y-100136253D01*
X90363748Y-100315858D01*
X90349605Y-100330000D01*
X91177817Y-101158212D01*
X91313000Y-101117488D01*
X91313000Y-102082512D01*
X91177817Y-102041788D01*
X90349605Y-102870000D01*
X91177817Y-103698212D01*
X91313000Y-103657488D01*
X91313000Y-104622512D01*
X91177817Y-104581788D01*
X90349605Y-105410000D01*
X91177817Y-106238212D01*
X91313000Y-106197488D01*
X91313000Y-107162512D01*
X91177817Y-107121788D01*
X90349605Y-107950000D01*
X91177817Y-108778212D01*
X91313000Y-108737488D01*
X91313000Y-109702512D01*
X91177817Y-109661788D01*
X90349605Y-110490000D01*
X91177817Y-111318212D01*
X91313000Y-111277488D01*
X91313000Y-112242512D01*
X91177817Y-112201788D01*
X90349605Y-113030000D01*
X91177817Y-113858212D01*
X91313000Y-113817488D01*
X91313000Y-154624370D01*
X87091185Y-158846185D01*
X86926004Y-159093395D01*
X86868000Y-159385000D01*
X86868000Y-174309369D01*
X84065598Y-177111772D01*
X84053162Y-177045683D01*
X83914090Y-176829559D01*
X83701890Y-176684569D01*
X83450000Y-176633560D01*
X81650000Y-176633560D01*
X81414683Y-176677838D01*
X81198559Y-176816910D01*
X81053569Y-177029110D01*
X81002560Y-177281000D01*
X81002560Y-179081000D01*
X81046838Y-179316317D01*
X81185910Y-179532441D01*
X81398110Y-179677431D01*
X81650000Y-179728440D01*
X83450000Y-179728440D01*
X83685317Y-179684162D01*
X83901441Y-179545090D01*
X83921141Y-179516258D01*
X84758954Y-179516258D01*
X84879003Y-179754000D01*
X86123000Y-179754000D01*
X86123000Y-178510622D01*
X86377000Y-178510622D01*
X86377000Y-179754000D01*
X87620997Y-179754000D01*
X87741046Y-179516258D01*
X87487966Y-178973424D01*
X87174900Y-178686510D01*
X137794780Y-178686510D01*
X137987718Y-179153458D01*
X138344663Y-179511026D01*
X138345195Y-179511247D01*
X139670972Y-180837023D01*
X139670974Y-180837026D01*
X139969217Y-181036305D01*
X140082992Y-181112327D01*
X140569000Y-181209000D01*
X152925845Y-181209000D01*
X153192581Y-181387227D01*
X153780000Y-181504072D01*
X154367419Y-181387227D01*
X154536489Y-181274258D01*
X155988954Y-181274258D01*
X156109003Y-181512000D01*
X157353000Y-181512000D01*
X157353000Y-180268622D01*
X157607000Y-180268622D01*
X157607000Y-181512000D01*
X158850997Y-181512000D01*
X158971046Y-181274258D01*
X158717966Y-180731424D01*
X158276417Y-180326760D01*
X157844740Y-180147964D01*
X157607000Y-180268622D01*
X157353000Y-180268622D01*
X157115260Y-180147964D01*
X156683583Y-180326760D01*
X156242034Y-180731424D01*
X155988954Y-181274258D01*
X154536489Y-181274258D01*
X154865409Y-181054481D01*
X155198155Y-180556491D01*
X155315000Y-179969072D01*
X155315000Y-179908928D01*
X155311269Y-179890167D01*
X179404838Y-179890167D01*
X179546883Y-180233943D01*
X179809673Y-180497192D01*
X180153201Y-180639838D01*
X180525167Y-180640162D01*
X180868943Y-180498117D01*
X181132192Y-180235327D01*
X181274838Y-179891799D01*
X181275162Y-179519833D01*
X181133117Y-179176057D01*
X180870327Y-178912808D01*
X180526799Y-178770162D01*
X180154833Y-178769838D01*
X179811057Y-178911883D01*
X179547808Y-179174673D01*
X179405162Y-179518201D01*
X179404838Y-179890167D01*
X155311269Y-179890167D01*
X155198155Y-179321509D01*
X154865409Y-178823519D01*
X154367419Y-178490773D01*
X153780000Y-178373928D01*
X153192581Y-178490773D01*
X152925845Y-178669000D01*
X141095051Y-178669000D01*
X140634980Y-178208928D01*
X155945000Y-178208928D01*
X155945000Y-178269072D01*
X156061845Y-178856491D01*
X156394591Y-179354481D01*
X156892581Y-179687227D01*
X157480000Y-179804072D01*
X158067419Y-179687227D01*
X158565409Y-179354481D01*
X158898155Y-178856491D01*
X159015000Y-178269072D01*
X159015000Y-178208928D01*
X158970492Y-177985167D01*
X179404838Y-177985167D01*
X179546883Y-178328943D01*
X179809673Y-178592192D01*
X180153201Y-178734838D01*
X180525167Y-178735162D01*
X180868943Y-178593117D01*
X181132192Y-178330327D01*
X181274838Y-177986799D01*
X181275162Y-177614833D01*
X181133117Y-177271057D01*
X180870327Y-177007808D01*
X180526799Y-176865162D01*
X180154833Y-176864838D01*
X179811057Y-177006883D01*
X179547808Y-177269673D01*
X179405162Y-177613201D01*
X179404838Y-177985167D01*
X158970492Y-177985167D01*
X158898155Y-177621509D01*
X158565409Y-177123519D01*
X158067419Y-176790773D01*
X157480000Y-176673928D01*
X156892581Y-176790773D01*
X156394591Y-177123519D01*
X156061845Y-177621509D01*
X155945000Y-178208928D01*
X140634980Y-178208928D01*
X139963523Y-177537471D01*
X139785337Y-177358974D01*
X139318727Y-177165221D01*
X139065003Y-177165000D01*
X139065000Y-177164999D01*
X139064997Y-177165000D01*
X138813490Y-177164780D01*
X138346542Y-177357718D01*
X137988974Y-177714663D01*
X137795221Y-178181273D01*
X137795000Y-178434997D01*
X137794999Y-178435000D01*
X137795000Y-178435003D01*
X137794780Y-178686510D01*
X87174900Y-178686510D01*
X87046417Y-178568760D01*
X86614740Y-178389964D01*
X86377000Y-178510622D01*
X86123000Y-178510622D01*
X85885260Y-178389964D01*
X85453583Y-178568760D01*
X85012034Y-178973424D01*
X84758954Y-179516258D01*
X83921141Y-179516258D01*
X84046431Y-179332890D01*
X84097440Y-179081000D01*
X84097440Y-178938337D01*
X84365605Y-178884996D01*
X84612815Y-178719815D01*
X88168815Y-175163816D01*
X88333996Y-174916605D01*
X88392000Y-174625000D01*
X88392000Y-172251463D01*
X88713201Y-172384838D01*
X89085167Y-172385162D01*
X89428943Y-172243117D01*
X89692192Y-171980327D01*
X89767226Y-171799625D01*
X90550472Y-171799625D01*
X91013525Y-172920298D01*
X91870192Y-173778462D01*
X92990055Y-174243470D01*
X94202625Y-174244528D01*
X95323298Y-173781475D01*
X96181462Y-172924808D01*
X96646470Y-171804945D01*
X96646474Y-171799625D01*
X143382472Y-171799625D01*
X143845525Y-172920298D01*
X144702192Y-173778462D01*
X145822055Y-174243470D01*
X147034625Y-174244528D01*
X147163669Y-174191208D01*
X181228824Y-174191208D01*
X181383175Y-174564766D01*
X181668731Y-174850821D01*
X182042018Y-175005824D01*
X182446208Y-175006176D01*
X182819766Y-174851825D01*
X183105821Y-174566269D01*
X183260824Y-174192982D01*
X183261176Y-173788792D01*
X183106825Y-173415234D01*
X182821269Y-173129179D01*
X182447982Y-172974176D01*
X182043792Y-172973824D01*
X181670234Y-173128175D01*
X181384179Y-173413731D01*
X181229176Y-173787018D01*
X181228824Y-174191208D01*
X147163669Y-174191208D01*
X148155298Y-173781475D01*
X149013462Y-172924808D01*
X149478470Y-171804945D01*
X149479528Y-170592375D01*
X149016475Y-169471702D01*
X148159808Y-168613538D01*
X147039945Y-168148530D01*
X145827375Y-168147472D01*
X144706702Y-168610525D01*
X143848538Y-169467192D01*
X143383530Y-170587055D01*
X143382472Y-171799625D01*
X96646474Y-171799625D01*
X96647528Y-170592375D01*
X96184475Y-169471702D01*
X95327808Y-168613538D01*
X94207945Y-168148530D01*
X92995375Y-168147472D01*
X91874702Y-168610525D01*
X91016538Y-169467192D01*
X90551530Y-170587055D01*
X90550472Y-171799625D01*
X89767226Y-171799625D01*
X89834838Y-171636799D01*
X89835162Y-171264833D01*
X89693117Y-170921057D01*
X89662000Y-170889886D01*
X89662000Y-159700630D01*
X91313000Y-158049630D01*
X91313000Y-159853537D01*
X90991799Y-159720162D01*
X90619833Y-159719838D01*
X90276057Y-159861883D01*
X90012808Y-160124673D01*
X89870162Y-160468201D01*
X89869838Y-160840167D01*
X90011883Y-161183943D01*
X90117710Y-161289954D01*
X90012808Y-161394673D01*
X89870162Y-161738201D01*
X89869838Y-162110167D01*
X90011883Y-162453943D01*
X90117710Y-162559954D01*
X90012808Y-162664673D01*
X89870162Y-163008201D01*
X89869838Y-163380167D01*
X90011883Y-163723943D01*
X90274673Y-163987192D01*
X90618201Y-164129838D01*
X90990167Y-164130162D01*
X91313000Y-163996770D01*
X91313000Y-167005000D01*
X91323006Y-167054410D01*
X91351447Y-167096035D01*
X91393841Y-167123315D01*
X91440000Y-167132000D01*
X187644370Y-167132000D01*
X192900300Y-172387931D01*
X192900300Y-177226834D01*
X192870108Y-177256973D01*
X192727462Y-177600501D01*
X192727138Y-177972467D01*
X192869183Y-178316243D01*
X192987698Y-178434965D01*
X192882808Y-178539673D01*
X192740162Y-178883201D01*
X192739838Y-179255167D01*
X192881883Y-179598943D01*
X193144673Y-179862192D01*
X193488201Y-180004838D01*
X193860167Y-180005162D01*
X194203943Y-179863117D01*
X194235114Y-179832000D01*
X197559534Y-179832000D01*
X197589673Y-179862192D01*
X197933201Y-180004838D01*
X198305167Y-180005162D01*
X198648943Y-179863117D01*
X198912192Y-179600327D01*
X199054838Y-179256799D01*
X199055162Y-178884833D01*
X198913117Y-178541057D01*
X198650327Y-178277808D01*
X198306799Y-178135162D01*
X197934833Y-178134838D01*
X197591057Y-178276883D01*
X197559886Y-178308000D01*
X194458489Y-178308000D01*
X194597138Y-177974099D01*
X194597462Y-177602133D01*
X194455417Y-177258357D01*
X194424300Y-177227186D01*
X194424300Y-172072300D01*
X194366296Y-171780695D01*
X194300134Y-171681677D01*
X194201116Y-171533485D01*
X189799630Y-167132000D01*
X207518000Y-167132000D01*
X207518000Y-231013000D01*
X9652000Y-231013000D01*
X9652000Y-225647625D01*
X90550472Y-225647625D01*
X91013525Y-226768298D01*
X91870192Y-227626462D01*
X92990055Y-228091470D01*
X94202625Y-228092528D01*
X95323298Y-227629475D01*
X96181462Y-226772808D01*
X96646470Y-225652945D01*
X96646474Y-225647625D01*
X143382472Y-225647625D01*
X143845525Y-226768298D01*
X144702192Y-227626462D01*
X145822055Y-228091470D01*
X147034625Y-228092528D01*
X148155298Y-227629475D01*
X149013462Y-226772808D01*
X149478470Y-225652945D01*
X149479528Y-224440375D01*
X149016475Y-223319702D01*
X148159808Y-222461538D01*
X147039945Y-221996530D01*
X145827375Y-221995472D01*
X144706702Y-222458525D01*
X143848538Y-223315192D01*
X143383530Y-224435055D01*
X143382472Y-225647625D01*
X96646474Y-225647625D01*
X96647528Y-224440375D01*
X96184475Y-223319702D01*
X95327808Y-222461538D01*
X94207945Y-221996530D01*
X92995375Y-221995472D01*
X91874702Y-222458525D01*
X91016538Y-223315192D01*
X90551530Y-224435055D01*
X90550472Y-225647625D01*
X9652000Y-225647625D01*
X9652000Y-221181208D01*
X65658824Y-221181208D01*
X65813175Y-221554766D01*
X66098731Y-221840821D01*
X66472018Y-221995824D01*
X66876208Y-221996176D01*
X67249766Y-221841825D01*
X67535821Y-221556269D01*
X67690824Y-221182982D01*
X67691176Y-220778792D01*
X67536825Y-220405234D01*
X67251269Y-220119179D01*
X66877982Y-219964176D01*
X66473792Y-219963824D01*
X66100234Y-220118175D01*
X65814179Y-220403731D01*
X65659176Y-220777018D01*
X65658824Y-221181208D01*
X9652000Y-221181208D01*
X9652000Y-218625167D01*
X60024838Y-218625167D01*
X60166883Y-218968943D01*
X60429673Y-219232192D01*
X60773201Y-219374838D01*
X61145167Y-219375162D01*
X61488943Y-219233117D01*
X61752192Y-218970327D01*
X61894838Y-218626799D01*
X61895162Y-218254833D01*
X61777856Y-217970928D01*
X81015000Y-217970928D01*
X81015000Y-218031072D01*
X81131845Y-218618491D01*
X81464591Y-219116481D01*
X81962581Y-219449227D01*
X82550000Y-219566072D01*
X83137419Y-219449227D01*
X83635409Y-219116481D01*
X83968155Y-218618491D01*
X84079940Y-218056510D01*
X93344780Y-218056510D01*
X93537718Y-218523458D01*
X93894663Y-218881026D01*
X94361273Y-219074779D01*
X94866510Y-219075220D01*
X95333458Y-218882282D01*
X95691026Y-218525337D01*
X95884779Y-218058727D01*
X95885220Y-217553490D01*
X95692282Y-217086542D01*
X95335337Y-216728974D01*
X94868727Y-216535221D01*
X94363490Y-216534780D01*
X93896542Y-216727718D01*
X93538974Y-217084663D01*
X93345221Y-217551273D01*
X93344780Y-218056510D01*
X84079940Y-218056510D01*
X84085000Y-218031072D01*
X84085000Y-217970928D01*
X83968155Y-217383509D01*
X83635409Y-216885519D01*
X83137419Y-216552773D01*
X82550000Y-216435928D01*
X81962581Y-216552773D01*
X81464591Y-216885519D01*
X81131845Y-217383509D01*
X81015000Y-217970928D01*
X61777856Y-217970928D01*
X61753117Y-217911057D01*
X61490327Y-217647808D01*
X61146799Y-217505162D01*
X60774833Y-217504838D01*
X60431057Y-217646883D01*
X60167808Y-217909673D01*
X60025162Y-218253201D01*
X60024838Y-218625167D01*
X9652000Y-218625167D01*
X9652000Y-213360000D01*
X13843000Y-213360000D01*
X13843000Y-218440000D01*
X13851685Y-218486159D01*
X13878965Y-218528553D01*
X13920590Y-218556994D01*
X13970000Y-218567000D01*
X32385000Y-218567000D01*
X32431159Y-218558315D01*
X32473553Y-218531035D01*
X32501994Y-218489410D01*
X32512000Y-218440000D01*
X32512000Y-213360000D01*
X32503315Y-213313841D01*
X32476035Y-213271447D01*
X32434410Y-213243006D01*
X32385000Y-213233000D01*
X13970000Y-213233000D01*
X13923841Y-213241685D01*
X13881447Y-213268965D01*
X13853006Y-213310590D01*
X13843000Y-213360000D01*
X9652000Y-213360000D01*
X9652000Y-196850000D01*
X23885907Y-196850000D01*
X23998946Y-197418285D01*
X24320853Y-197900054D01*
X24650026Y-198120000D01*
X24320853Y-198339946D01*
X23998946Y-198821715D01*
X23885907Y-199390000D01*
X23998946Y-199958285D01*
X24320853Y-200440054D01*
X24362452Y-200467850D01*
X24314683Y-200476838D01*
X24098559Y-200615910D01*
X23953569Y-200828110D01*
X23902560Y-201080000D01*
X23902560Y-202780000D01*
X23946838Y-203015317D01*
X24085910Y-203231441D01*
X24298110Y-203376431D01*
X24550000Y-203427440D01*
X26250000Y-203427440D01*
X26485317Y-203383162D01*
X26701441Y-203244090D01*
X26846431Y-203031890D01*
X26897440Y-202780000D01*
X26897440Y-201080000D01*
X26853162Y-200844683D01*
X26714090Y-200628559D01*
X26501890Y-200483569D01*
X26434459Y-200469914D01*
X26479147Y-200440054D01*
X26801054Y-199958285D01*
X26914093Y-199390000D01*
X26801054Y-198821715D01*
X26479147Y-198339946D01*
X26149974Y-198120000D01*
X26479147Y-197900054D01*
X26801054Y-197418285D01*
X26914093Y-196850000D01*
X26801054Y-196281715D01*
X26479147Y-195799946D01*
X25997378Y-195478039D01*
X25429093Y-195365000D01*
X25370907Y-195365000D01*
X24802622Y-195478039D01*
X24320853Y-195799946D01*
X23998946Y-196281715D01*
X23885907Y-196850000D01*
X9652000Y-196850000D01*
X9652000Y-190500000D01*
X41783000Y-190500000D01*
X41783000Y-212725000D01*
X41841004Y-213016605D01*
X42006185Y-213263815D01*
X46054875Y-217312506D01*
X46054838Y-217355167D01*
X46196883Y-217698943D01*
X46459673Y-217962192D01*
X46803201Y-218104838D01*
X47175167Y-218105162D01*
X47518943Y-217963117D01*
X47782192Y-217700327D01*
X47924838Y-217356799D01*
X47925162Y-216984833D01*
X47815805Y-216720167D01*
X60024838Y-216720167D01*
X60166883Y-217063943D01*
X60429673Y-217327192D01*
X60773201Y-217469838D01*
X61145167Y-217470162D01*
X61488943Y-217328117D01*
X61752192Y-217065327D01*
X61894838Y-216721799D01*
X61895162Y-216349833D01*
X61862560Y-216270928D01*
X84715000Y-216270928D01*
X84715000Y-216331072D01*
X84831845Y-216918491D01*
X85164591Y-217416481D01*
X85662581Y-217749227D01*
X86250000Y-217866072D01*
X86837419Y-217749227D01*
X87335409Y-217416481D01*
X87668155Y-216918491D01*
X87785000Y-216331072D01*
X87785000Y-216328928D01*
X152245000Y-216328928D01*
X152245000Y-216389072D01*
X152361845Y-216976491D01*
X152694591Y-217474481D01*
X153192581Y-217807227D01*
X153780000Y-217924072D01*
X154367419Y-217807227D01*
X154865409Y-217474481D01*
X155076206Y-217159000D01*
X155932560Y-217159000D01*
X155932560Y-218959000D01*
X155976838Y-219194317D01*
X156115910Y-219410441D01*
X156328110Y-219555431D01*
X156580000Y-219606440D01*
X158380000Y-219606440D01*
X158615317Y-219562162D01*
X158831441Y-219423090D01*
X158976431Y-219210890D01*
X159027440Y-218959000D01*
X159027440Y-217159000D01*
X158983162Y-216923683D01*
X158852204Y-216720167D01*
X166069838Y-216720167D01*
X166211883Y-217063943D01*
X166474673Y-217327192D01*
X166818201Y-217469838D01*
X167190167Y-217470162D01*
X167533943Y-217328117D01*
X167797192Y-217065327D01*
X167939838Y-216721799D01*
X167940162Y-216349833D01*
X167798117Y-216006057D01*
X167535327Y-215742808D01*
X167191799Y-215600162D01*
X166819833Y-215599838D01*
X166476057Y-215741883D01*
X166212808Y-216004673D01*
X166070162Y-216348201D01*
X166069838Y-216720167D01*
X158852204Y-216720167D01*
X158844090Y-216707559D01*
X158631890Y-216562569D01*
X158380000Y-216511560D01*
X156580000Y-216511560D01*
X156344683Y-216555838D01*
X156128559Y-216694910D01*
X155983569Y-216907110D01*
X155932560Y-217159000D01*
X155076206Y-217159000D01*
X155198155Y-216976491D01*
X155315000Y-216389072D01*
X155315000Y-216328928D01*
X155198155Y-215741509D01*
X154865409Y-215243519D01*
X154536490Y-215023742D01*
X155988954Y-215023742D01*
X156242034Y-215566576D01*
X156683583Y-215971240D01*
X157115260Y-216150036D01*
X157353000Y-216029378D01*
X157353000Y-214786000D01*
X157607000Y-214786000D01*
X157607000Y-216029378D01*
X157844740Y-216150036D01*
X158276417Y-215971240D01*
X158717966Y-215566576D01*
X158772238Y-215450167D01*
X185754838Y-215450167D01*
X185896883Y-215793943D01*
X186159673Y-216057192D01*
X186503201Y-216199838D01*
X186875167Y-216200162D01*
X187218943Y-216058117D01*
X187482192Y-215795327D01*
X187624838Y-215451799D01*
X187625162Y-215079833D01*
X187483117Y-214736057D01*
X187220327Y-214472808D01*
X186876799Y-214330162D01*
X186504833Y-214329838D01*
X186161057Y-214471883D01*
X185897808Y-214734673D01*
X185755162Y-215078201D01*
X185754838Y-215450167D01*
X158772238Y-215450167D01*
X158971046Y-215023742D01*
X158850997Y-214786000D01*
X157607000Y-214786000D01*
X157353000Y-214786000D01*
X156109003Y-214786000D01*
X155988954Y-215023742D01*
X154536490Y-215023742D01*
X154367419Y-214910773D01*
X153780000Y-214793928D01*
X153192581Y-214910773D01*
X152694591Y-215243519D01*
X152361845Y-215741509D01*
X152245000Y-216328928D01*
X87785000Y-216328928D01*
X87785000Y-216270928D01*
X87668155Y-215683509D01*
X87335409Y-215185519D01*
X86837419Y-214852773D01*
X86250000Y-214735928D01*
X85662581Y-214852773D01*
X85164591Y-215185519D01*
X84831845Y-215683509D01*
X84715000Y-216270928D01*
X61862560Y-216270928D01*
X61753117Y-216006057D01*
X61490327Y-215742808D01*
X61146799Y-215600162D01*
X60774833Y-215599838D01*
X60431057Y-215741883D01*
X60167808Y-216004673D01*
X60025162Y-216348201D01*
X60024838Y-216720167D01*
X47815805Y-216720167D01*
X47783117Y-216641057D01*
X47520327Y-216377808D01*
X47176799Y-216235162D01*
X47132755Y-216235124D01*
X45468559Y-214570928D01*
X81015000Y-214570928D01*
X81015000Y-214631072D01*
X81131845Y-215218491D01*
X81464591Y-215716481D01*
X81962581Y-216049227D01*
X82550000Y-216166072D01*
X83137419Y-216049227D01*
X83635409Y-215716481D01*
X83968155Y-215218491D01*
X84085000Y-214631072D01*
X84085000Y-214570928D01*
X83968155Y-213983509D01*
X83635409Y-213485519D01*
X83306490Y-213265742D01*
X84758954Y-213265742D01*
X85012034Y-213808576D01*
X85453583Y-214213240D01*
X85885260Y-214392036D01*
X86123000Y-214271378D01*
X86123000Y-213028000D01*
X86377000Y-213028000D01*
X86377000Y-214271378D01*
X86614740Y-214392036D01*
X87046417Y-214213240D01*
X87487966Y-213808576D01*
X87741046Y-213265742D01*
X87620997Y-213028000D01*
X86377000Y-213028000D01*
X86123000Y-213028000D01*
X84879003Y-213028000D01*
X84758954Y-213265742D01*
X83306490Y-213265742D01*
X83137419Y-213152773D01*
X82550000Y-213035928D01*
X81962581Y-213152773D01*
X81464591Y-213485519D01*
X81131845Y-213983509D01*
X81015000Y-214570928D01*
X45468559Y-214570928D01*
X43307000Y-212409370D01*
X43307000Y-211021208D01*
X52323824Y-211021208D01*
X52478175Y-211394766D01*
X52763731Y-211680821D01*
X53137018Y-211835824D01*
X53541208Y-211836176D01*
X53914766Y-211681825D01*
X54200821Y-211396269D01*
X54355824Y-211022982D01*
X54356176Y-210618792D01*
X54224868Y-210301000D01*
X81002560Y-210301000D01*
X81002560Y-212101000D01*
X81046838Y-212336317D01*
X81185910Y-212552441D01*
X81398110Y-212697431D01*
X81650000Y-212748440D01*
X83450000Y-212748440D01*
X83685317Y-212704162D01*
X83901441Y-212565090D01*
X83921141Y-212536258D01*
X84758954Y-212536258D01*
X84879003Y-212774000D01*
X86123000Y-212774000D01*
X86123000Y-211530622D01*
X86377000Y-211530622D01*
X86377000Y-212774000D01*
X87620997Y-212774000D01*
X87741046Y-212536258D01*
X87487966Y-211993424D01*
X87046417Y-211588760D01*
X86614740Y-211409964D01*
X86377000Y-211530622D01*
X86123000Y-211530622D01*
X85885260Y-211409964D01*
X85453583Y-211588760D01*
X85012034Y-211993424D01*
X84758954Y-212536258D01*
X83921141Y-212536258D01*
X84046431Y-212352890D01*
X84097440Y-212101000D01*
X84097440Y-211585162D01*
X84417261Y-211071510D01*
X140334780Y-211071510D01*
X140527718Y-211538458D01*
X140884663Y-211896026D01*
X140885195Y-211896247D01*
X142845972Y-213857023D01*
X142845974Y-213857026D01*
X143035270Y-213983509D01*
X143257992Y-214132327D01*
X143744000Y-214229001D01*
X143744005Y-214229000D01*
X152925845Y-214229000D01*
X153192581Y-214407227D01*
X153780000Y-214524072D01*
X154367419Y-214407227D01*
X154536489Y-214294258D01*
X155988954Y-214294258D01*
X156109003Y-214532000D01*
X157353000Y-214532000D01*
X157353000Y-213288622D01*
X157607000Y-213288622D01*
X157607000Y-214532000D01*
X158850997Y-214532000D01*
X158971046Y-214294258D01*
X158717966Y-213751424D01*
X158276417Y-213346760D01*
X157844740Y-213167964D01*
X157607000Y-213288622D01*
X157353000Y-213288622D01*
X157115260Y-213167964D01*
X156683583Y-213346760D01*
X156242034Y-213751424D01*
X155988954Y-214294258D01*
X154536489Y-214294258D01*
X154865409Y-214074481D01*
X155198155Y-213576491D01*
X155315000Y-212989072D01*
X155315000Y-212928928D01*
X155311269Y-212910167D01*
X178769838Y-212910167D01*
X178911883Y-213253943D01*
X179174673Y-213517192D01*
X179518201Y-213659838D01*
X179890167Y-213660162D01*
X180233943Y-213518117D01*
X180497192Y-213255327D01*
X180639838Y-212911799D01*
X180640162Y-212539833D01*
X180498117Y-212196057D01*
X180235327Y-211932808D01*
X179891799Y-211790162D01*
X179519833Y-211789838D01*
X179176057Y-211931883D01*
X178912808Y-212194673D01*
X178770162Y-212538201D01*
X178769838Y-212910167D01*
X155311269Y-212910167D01*
X155198155Y-212341509D01*
X154865409Y-211843519D01*
X154367419Y-211510773D01*
X153780000Y-211393928D01*
X153192581Y-211510773D01*
X152925845Y-211689000D01*
X144270051Y-211689000D01*
X143809980Y-211228928D01*
X155945000Y-211228928D01*
X155945000Y-211289072D01*
X156061845Y-211876491D01*
X156394591Y-212374481D01*
X156892581Y-212707227D01*
X157480000Y-212824072D01*
X158067419Y-212707227D01*
X158565409Y-212374481D01*
X158898155Y-211876491D01*
X159015000Y-211289072D01*
X159015000Y-211228928D01*
X158970492Y-211005167D01*
X178769838Y-211005167D01*
X178911883Y-211348943D01*
X179174673Y-211612192D01*
X179518201Y-211754838D01*
X179890167Y-211755162D01*
X180233943Y-211613117D01*
X180497192Y-211350327D01*
X180639838Y-211006799D01*
X180640162Y-210634833D01*
X180498117Y-210291057D01*
X180235327Y-210027808D01*
X179891799Y-209885162D01*
X179519833Y-209884838D01*
X179176057Y-210026883D01*
X178912808Y-210289673D01*
X178770162Y-210633201D01*
X178769838Y-211005167D01*
X158970492Y-211005167D01*
X158898155Y-210641509D01*
X158565409Y-210143519D01*
X158067419Y-209810773D01*
X157480000Y-209693928D01*
X156892581Y-209810773D01*
X156394591Y-210143519D01*
X156061845Y-210641509D01*
X155945000Y-211228928D01*
X143809980Y-211228928D01*
X142503523Y-209922471D01*
X142325337Y-209743974D01*
X141858727Y-209550221D01*
X141605003Y-209550000D01*
X141605000Y-209549999D01*
X141604997Y-209550000D01*
X141353490Y-209549780D01*
X140886542Y-209742718D01*
X140528974Y-210099663D01*
X140335221Y-210566273D01*
X140335000Y-210819997D01*
X140334999Y-210820000D01*
X140335000Y-210820003D01*
X140334780Y-211071510D01*
X84417261Y-211071510D01*
X86425467Y-207846208D01*
X180593824Y-207846208D01*
X180748175Y-208219766D01*
X181033731Y-208505821D01*
X181407018Y-208660824D01*
X181811208Y-208661176D01*
X182184766Y-208506825D01*
X182470821Y-208221269D01*
X182625824Y-207847982D01*
X182626176Y-207443792D01*
X182471825Y-207070234D01*
X182186269Y-206784179D01*
X181812982Y-206629176D01*
X181408792Y-206628824D01*
X181035234Y-206783175D01*
X180749179Y-207068731D01*
X180594176Y-207442018D01*
X180593824Y-207846208D01*
X86425467Y-207846208D01*
X87990463Y-205332731D01*
X88158943Y-205263117D01*
X88422192Y-205000327D01*
X88497226Y-204819625D01*
X90550472Y-204819625D01*
X91013525Y-205940298D01*
X91870192Y-206798462D01*
X92990055Y-207263470D01*
X94202625Y-207264528D01*
X95323298Y-206801475D01*
X96181462Y-205944808D01*
X96646470Y-204824945D01*
X96646560Y-204721510D01*
X121919780Y-204721510D01*
X122112718Y-205188458D01*
X122469663Y-205546026D01*
X122936273Y-205739779D01*
X123441510Y-205740220D01*
X123908458Y-205547282D01*
X124266026Y-205190337D01*
X124459779Y-204723727D01*
X124459780Y-204721510D01*
X126364780Y-204721510D01*
X126557718Y-205188458D01*
X126914663Y-205546026D01*
X127381273Y-205739779D01*
X127886510Y-205740220D01*
X128353458Y-205547282D01*
X128711026Y-205190337D01*
X128864958Y-204819625D01*
X143382472Y-204819625D01*
X143845525Y-205940298D01*
X144702192Y-206798462D01*
X145822055Y-207263470D01*
X147034625Y-207264528D01*
X148155298Y-206801475D01*
X149013462Y-205944808D01*
X149478470Y-204824945D01*
X149479528Y-203612375D01*
X149016475Y-202491702D01*
X148159808Y-201633538D01*
X147039945Y-201168530D01*
X145827375Y-201167472D01*
X144706702Y-201630525D01*
X143848538Y-202487192D01*
X143383530Y-203607055D01*
X143382472Y-204819625D01*
X128864958Y-204819625D01*
X128904779Y-204723727D01*
X128905220Y-204218490D01*
X128712282Y-203751542D01*
X128355337Y-203393974D01*
X127888727Y-203200221D01*
X127383490Y-203199780D01*
X126916542Y-203392718D01*
X126558974Y-203749663D01*
X126365221Y-204216273D01*
X126364780Y-204721510D01*
X124459780Y-204721510D01*
X124460220Y-204218490D01*
X124267282Y-203751542D01*
X123910337Y-203393974D01*
X123443727Y-203200221D01*
X122938490Y-203199780D01*
X122471542Y-203392718D01*
X122113974Y-203749663D01*
X121920221Y-204216273D01*
X121919780Y-204721510D01*
X96646560Y-204721510D01*
X96647528Y-203612375D01*
X96184475Y-202491702D01*
X95327808Y-201633538D01*
X94207945Y-201168530D01*
X92995375Y-201167472D01*
X91874702Y-201630525D01*
X91016538Y-202487192D01*
X90551530Y-203607055D01*
X90550472Y-204819625D01*
X88497226Y-204819625D01*
X88564838Y-204656799D01*
X88565162Y-204284833D01*
X88423117Y-203941057D01*
X88160327Y-203677808D01*
X87816799Y-203535162D01*
X87444833Y-203534838D01*
X87101057Y-203676883D01*
X86837808Y-203939673D01*
X86695162Y-204283201D01*
X86694947Y-204530095D01*
X83498722Y-209663426D01*
X83450000Y-209653560D01*
X81650000Y-209653560D01*
X81414683Y-209697838D01*
X81198559Y-209836910D01*
X81053569Y-210049110D01*
X81002560Y-210301000D01*
X54224868Y-210301000D01*
X54201825Y-210245234D01*
X53916269Y-209959179D01*
X53542982Y-209804176D01*
X53138792Y-209803824D01*
X52765234Y-209958175D01*
X52479179Y-210243731D01*
X52324176Y-210617018D01*
X52323824Y-211021208D01*
X43307000Y-211021208D01*
X43307000Y-207846208D01*
X72643824Y-207846208D01*
X72798175Y-208219766D01*
X73083731Y-208505821D01*
X73457018Y-208660824D01*
X73861208Y-208661176D01*
X74234766Y-208506825D01*
X74520821Y-208221269D01*
X74675824Y-207847982D01*
X74676176Y-207443792D01*
X74521825Y-207070234D01*
X74236269Y-206784179D01*
X73862982Y-206629176D01*
X73458792Y-206628824D01*
X73085234Y-206783175D01*
X72799179Y-207068731D01*
X72644176Y-207442018D01*
X72643824Y-207846208D01*
X43307000Y-207846208D01*
X43307000Y-192627625D01*
X90550472Y-192627625D01*
X91013525Y-193748298D01*
X91870192Y-194606462D01*
X92990055Y-195071470D01*
X94202625Y-195072528D01*
X95168580Y-194673403D01*
X111829682Y-194673403D01*
X112108455Y-195348086D01*
X112624199Y-195864730D01*
X113298395Y-196144681D01*
X114028403Y-196145318D01*
X114703086Y-195866545D01*
X115219730Y-195350801D01*
X115499681Y-194676605D01*
X115500000Y-194310000D01*
X124494050Y-194310000D01*
X124633731Y-195012224D01*
X125031509Y-195607541D01*
X125626826Y-196005319D01*
X126329050Y-196145000D01*
X126400950Y-196145000D01*
X127103174Y-196005319D01*
X127698491Y-195607541D01*
X128096269Y-195012224D01*
X128235950Y-194310000D01*
X128096269Y-193607776D01*
X127698491Y-193012459D01*
X127122547Y-192627625D01*
X143382472Y-192627625D01*
X143845525Y-193748298D01*
X144702192Y-194606462D01*
X145822055Y-195071470D01*
X147034625Y-195072528D01*
X148155298Y-194609475D01*
X149013462Y-193752808D01*
X149478470Y-192632945D01*
X149479528Y-191420375D01*
X149016475Y-190299702D01*
X148159808Y-189441538D01*
X147039945Y-188976530D01*
X145827375Y-188975472D01*
X144706702Y-189438525D01*
X143848538Y-190295192D01*
X143383530Y-191415055D01*
X143382472Y-192627625D01*
X127122547Y-192627625D01*
X127103174Y-192614681D01*
X126400950Y-192475000D01*
X126329050Y-192475000D01*
X125626826Y-192614681D01*
X125031509Y-193012459D01*
X124633731Y-193607776D01*
X124494050Y-194310000D01*
X115500000Y-194310000D01*
X115500318Y-193946597D01*
X115221545Y-193271914D01*
X114705801Y-192755270D01*
X114031605Y-192475319D01*
X113301597Y-192474682D01*
X112626914Y-192753455D01*
X112110270Y-193269199D01*
X111830319Y-193943395D01*
X111829682Y-194673403D01*
X95168580Y-194673403D01*
X95323298Y-194609475D01*
X96181462Y-193752808D01*
X96646470Y-192632945D01*
X96647528Y-191420375D01*
X96184475Y-190299702D01*
X95327808Y-189441538D01*
X94207945Y-188976530D01*
X92995375Y-188975472D01*
X91874702Y-189438525D01*
X91016538Y-190295192D01*
X90551530Y-191415055D01*
X90550472Y-192627625D01*
X43307000Y-192627625D01*
X43307000Y-190815630D01*
X45342463Y-188780167D01*
X65739838Y-188780167D01*
X65881883Y-189123943D01*
X66144673Y-189387192D01*
X66488201Y-189529838D01*
X66860167Y-189530162D01*
X67203943Y-189388117D01*
X67467192Y-189125327D01*
X67609838Y-188781799D01*
X67610162Y-188409833D01*
X67468117Y-188066057D01*
X67205327Y-187802808D01*
X66861799Y-187660162D01*
X66489833Y-187659838D01*
X66146057Y-187801883D01*
X65882808Y-188064673D01*
X65740162Y-188408201D01*
X65739838Y-188780167D01*
X45342463Y-188780167D01*
X46497506Y-187625125D01*
X46540167Y-187625162D01*
X46883943Y-187483117D01*
X47147192Y-187220327D01*
X47289838Y-186876799D01*
X47290162Y-186504833D01*
X47148117Y-186161057D01*
X46885327Y-185897808D01*
X46541799Y-185755162D01*
X46169833Y-185754838D01*
X45826057Y-185896883D01*
X45562808Y-186159673D01*
X45420162Y-186503201D01*
X45420124Y-186547245D01*
X42006185Y-189961185D01*
X41841004Y-190208395D01*
X41783000Y-190500000D01*
X9652000Y-190500000D01*
X9652000Y-185605167D01*
X59389838Y-185605167D01*
X59531883Y-185948943D01*
X59794673Y-186212192D01*
X60138201Y-186354838D01*
X60510167Y-186355162D01*
X60853943Y-186213117D01*
X61117192Y-185950327D01*
X61259838Y-185606799D01*
X61260162Y-185234833D01*
X61142856Y-184950928D01*
X81015000Y-184950928D01*
X81015000Y-185011072D01*
X81131845Y-185598491D01*
X81464591Y-186096481D01*
X81962581Y-186429227D01*
X82550000Y-186546072D01*
X83137419Y-186429227D01*
X83635409Y-186096481D01*
X83919365Y-185671510D01*
X93344780Y-185671510D01*
X93537718Y-186138458D01*
X93894663Y-186496026D01*
X94361273Y-186689779D01*
X94866510Y-186690220D01*
X95333458Y-186497282D01*
X95691026Y-186140337D01*
X95884779Y-185673727D01*
X95885220Y-185168490D01*
X95692282Y-184701542D01*
X95335337Y-184343974D01*
X94868727Y-184150221D01*
X94363490Y-184149780D01*
X93896542Y-184342718D01*
X93538974Y-184699663D01*
X93345221Y-185166273D01*
X93344780Y-185671510D01*
X83919365Y-185671510D01*
X83968155Y-185598491D01*
X84085000Y-185011072D01*
X84085000Y-184950928D01*
X83968155Y-184363509D01*
X83635409Y-183865519D01*
X83137419Y-183532773D01*
X82550000Y-183415928D01*
X81962581Y-183532773D01*
X81464591Y-183865519D01*
X81131845Y-184363509D01*
X81015000Y-184950928D01*
X61142856Y-184950928D01*
X61118117Y-184891057D01*
X60855327Y-184627808D01*
X60511799Y-184485162D01*
X60139833Y-184484838D01*
X59796057Y-184626883D01*
X59532808Y-184889673D01*
X59390162Y-185233201D01*
X59389838Y-185605167D01*
X9652000Y-185605167D01*
X9652000Y-182183695D01*
X30122628Y-182183695D01*
X30562721Y-183248801D01*
X31376912Y-184064415D01*
X32441249Y-184506366D01*
X33593695Y-184507372D01*
X34658801Y-184067279D01*
X35026554Y-183700167D01*
X59389838Y-183700167D01*
X59531883Y-184043943D01*
X59794673Y-184307192D01*
X60138201Y-184449838D01*
X60510167Y-184450162D01*
X60853943Y-184308117D01*
X61117192Y-184045327D01*
X61259838Y-183701799D01*
X61260162Y-183329833D01*
X61227560Y-183250928D01*
X84715000Y-183250928D01*
X84715000Y-183311072D01*
X84831845Y-183898491D01*
X85164591Y-184396481D01*
X85662581Y-184729227D01*
X86250000Y-184846072D01*
X86837419Y-184729227D01*
X87335409Y-184396481D01*
X87668155Y-183898491D01*
X87785000Y-183311072D01*
X87785000Y-183250928D01*
X87668155Y-182663509D01*
X87347571Y-182183720D01*
X116482501Y-182183720D01*
X116922613Y-183248873D01*
X117736840Y-184064523D01*
X118801223Y-184506493D01*
X119953720Y-184507499D01*
X121018873Y-184067387D01*
X121778657Y-183308928D01*
X152245000Y-183308928D01*
X152245000Y-183369072D01*
X152361845Y-183956491D01*
X152694591Y-184454481D01*
X153192581Y-184787227D01*
X153780000Y-184904072D01*
X154367419Y-184787227D01*
X154865409Y-184454481D01*
X155076206Y-184139000D01*
X155932560Y-184139000D01*
X155932560Y-185939000D01*
X155976838Y-186174317D01*
X156115910Y-186390441D01*
X156328110Y-186535431D01*
X156580000Y-186586440D01*
X158380000Y-186586440D01*
X158615317Y-186542162D01*
X158831441Y-186403090D01*
X158976431Y-186190890D01*
X159027440Y-185939000D01*
X159027440Y-184139000D01*
X158983162Y-183903683D01*
X158844090Y-183687559D01*
X158631890Y-183542569D01*
X158380000Y-183491560D01*
X156580000Y-183491560D01*
X156344683Y-183535838D01*
X156128559Y-183674910D01*
X155983569Y-183887110D01*
X155932560Y-184139000D01*
X155076206Y-184139000D01*
X155198155Y-183956491D01*
X155315000Y-183369072D01*
X155315000Y-183308928D01*
X155198155Y-182721509D01*
X154865409Y-182223519D01*
X154536490Y-182003742D01*
X155988954Y-182003742D01*
X156242034Y-182546576D01*
X156683583Y-182951240D01*
X157115260Y-183130036D01*
X157353000Y-183009378D01*
X157353000Y-181766000D01*
X157607000Y-181766000D01*
X157607000Y-183009378D01*
X157844740Y-183130036D01*
X157962628Y-183081208D01*
X167893824Y-183081208D01*
X168048175Y-183454766D01*
X168333731Y-183740821D01*
X168707018Y-183895824D01*
X169111208Y-183896176D01*
X169484766Y-183741825D01*
X169770821Y-183456269D01*
X169925824Y-183082982D01*
X169925825Y-183081208D01*
X185673824Y-183081208D01*
X185828175Y-183454766D01*
X186113731Y-183740821D01*
X186487018Y-183895824D01*
X186891208Y-183896176D01*
X187264766Y-183741825D01*
X187550821Y-183456269D01*
X187705824Y-183082982D01*
X187706176Y-182678792D01*
X187551825Y-182305234D01*
X187266269Y-182019179D01*
X186892982Y-181864176D01*
X186488792Y-181863824D01*
X186115234Y-182018175D01*
X185829179Y-182303731D01*
X185674176Y-182677018D01*
X185673824Y-183081208D01*
X169925825Y-183081208D01*
X169926176Y-182678792D01*
X169771825Y-182305234D01*
X169486269Y-182019179D01*
X169112982Y-181864176D01*
X168708792Y-181863824D01*
X168335234Y-182018175D01*
X168049179Y-182303731D01*
X167894176Y-182677018D01*
X167893824Y-183081208D01*
X157962628Y-183081208D01*
X158276417Y-182951240D01*
X158717966Y-182546576D01*
X158971046Y-182003742D01*
X158850997Y-181766000D01*
X157607000Y-181766000D01*
X157353000Y-181766000D01*
X156109003Y-181766000D01*
X155988954Y-182003742D01*
X154536490Y-182003742D01*
X154367419Y-181890773D01*
X153780000Y-181773928D01*
X153192581Y-181890773D01*
X152694591Y-182223519D01*
X152361845Y-182721509D01*
X152245000Y-183308928D01*
X121778657Y-183308928D01*
X121834523Y-183253160D01*
X122276493Y-182188777D01*
X122277499Y-181036280D01*
X121837387Y-179971127D01*
X121023160Y-179155477D01*
X119958777Y-178713507D01*
X118806280Y-178712501D01*
X117741127Y-179152613D01*
X116925477Y-179966840D01*
X116483507Y-181031223D01*
X116482501Y-182183720D01*
X87347571Y-182183720D01*
X87335409Y-182165519D01*
X86837419Y-181832773D01*
X86250000Y-181715928D01*
X85662581Y-181832773D01*
X85164591Y-182165519D01*
X84831845Y-182663509D01*
X84715000Y-183250928D01*
X61227560Y-183250928D01*
X61118117Y-182986057D01*
X60855327Y-182722808D01*
X60511799Y-182580162D01*
X60139833Y-182579838D01*
X59796057Y-182721883D01*
X59532808Y-182984673D01*
X59390162Y-183328201D01*
X59389838Y-183700167D01*
X35026554Y-183700167D01*
X35474415Y-183253088D01*
X35916366Y-182188751D01*
X35916922Y-181550928D01*
X81015000Y-181550928D01*
X81015000Y-181611072D01*
X81131845Y-182198491D01*
X81464591Y-182696481D01*
X81962581Y-183029227D01*
X82550000Y-183146072D01*
X83137419Y-183029227D01*
X83635409Y-182696481D01*
X83968155Y-182198491D01*
X84085000Y-181611072D01*
X84085000Y-181550928D01*
X83968155Y-180963509D01*
X83635409Y-180465519D01*
X83306490Y-180245742D01*
X84758954Y-180245742D01*
X85012034Y-180788576D01*
X85453583Y-181193240D01*
X85885260Y-181372036D01*
X86123000Y-181251378D01*
X86123000Y-180008000D01*
X86377000Y-180008000D01*
X86377000Y-181251378D01*
X86614740Y-181372036D01*
X87046417Y-181193240D01*
X87487966Y-180788576D01*
X87741046Y-180245742D01*
X87620997Y-180008000D01*
X86377000Y-180008000D01*
X86123000Y-180008000D01*
X84879003Y-180008000D01*
X84758954Y-180245742D01*
X83306490Y-180245742D01*
X83137419Y-180132773D01*
X82550000Y-180015928D01*
X81962581Y-180132773D01*
X81464591Y-180465519D01*
X81131845Y-180963509D01*
X81015000Y-181550928D01*
X35916922Y-181550928D01*
X35917372Y-181036305D01*
X35712803Y-180541208D01*
X52323824Y-180541208D01*
X52478175Y-180914766D01*
X52763731Y-181200821D01*
X53137018Y-181355824D01*
X53541208Y-181356176D01*
X53914766Y-181201825D01*
X54200821Y-180916269D01*
X54355824Y-180542982D01*
X54356176Y-180138792D01*
X54201825Y-179765234D01*
X53916269Y-179479179D01*
X53542982Y-179324176D01*
X53138792Y-179323824D01*
X52765234Y-179478175D01*
X52479179Y-179763731D01*
X52324176Y-180137018D01*
X52323824Y-180541208D01*
X35712803Y-180541208D01*
X35477279Y-179971199D01*
X34663088Y-179155585D01*
X33598751Y-178713634D01*
X32446305Y-178712628D01*
X31381199Y-179152721D01*
X30565585Y-179966912D01*
X30123634Y-181031249D01*
X30122628Y-182183695D01*
X9652000Y-182183695D01*
X9652000Y-178636208D01*
X57403824Y-178636208D01*
X57558175Y-179009766D01*
X57843731Y-179295821D01*
X58217018Y-179450824D01*
X58621208Y-179451176D01*
X58994766Y-179296825D01*
X59280821Y-179011269D01*
X59435824Y-178637982D01*
X59436176Y-178233792D01*
X59281825Y-177860234D01*
X58996269Y-177574179D01*
X58622982Y-177419176D01*
X58218792Y-177418824D01*
X57845234Y-177573175D01*
X57559179Y-177858731D01*
X57404176Y-178232018D01*
X57403824Y-178636208D01*
X9652000Y-178636208D01*
X9652000Y-174826208D01*
X52323824Y-174826208D01*
X52478175Y-175199766D01*
X52763731Y-175485821D01*
X53137018Y-175640824D01*
X53541208Y-175641176D01*
X53914766Y-175486825D01*
X54200821Y-175201269D01*
X54355824Y-174827982D01*
X54356176Y-174423792D01*
X54201825Y-174050234D01*
X53916269Y-173764179D01*
X53542982Y-173609176D01*
X53138792Y-173608824D01*
X52765234Y-173763175D01*
X52479179Y-174048731D01*
X52324176Y-174422018D01*
X52323824Y-174826208D01*
X9652000Y-174826208D01*
X9652000Y-167841208D01*
X72643824Y-167841208D01*
X72798175Y-168214766D01*
X73083731Y-168500821D01*
X73457018Y-168655824D01*
X73861208Y-168656176D01*
X74234766Y-168501825D01*
X74520821Y-168216269D01*
X74675824Y-167842982D01*
X74676176Y-167438792D01*
X74521825Y-167065234D01*
X74236269Y-166779179D01*
X73862982Y-166624176D01*
X73458792Y-166623824D01*
X73085234Y-166778175D01*
X72799179Y-167063731D01*
X72644176Y-167437018D01*
X72643824Y-167841208D01*
X9652000Y-167841208D01*
X9652000Y-165301208D01*
X57403824Y-165301208D01*
X57558175Y-165674766D01*
X57843731Y-165960821D01*
X58217018Y-166115824D01*
X58621208Y-166116176D01*
X58994766Y-165961825D01*
X59280821Y-165676269D01*
X59435824Y-165302982D01*
X59436176Y-164898792D01*
X59281825Y-164525234D01*
X58996269Y-164239179D01*
X58622982Y-164084176D01*
X58218792Y-164083824D01*
X57845234Y-164238175D01*
X57559179Y-164523731D01*
X57404176Y-164897018D01*
X57403824Y-165301208D01*
X9652000Y-165301208D01*
X9652000Y-152135000D01*
X36552560Y-152135000D01*
X36552560Y-153935000D01*
X36596838Y-154170317D01*
X36735910Y-154386441D01*
X36948110Y-154531431D01*
X37200000Y-154582440D01*
X39000000Y-154582440D01*
X39235317Y-154538162D01*
X39451441Y-154399090D01*
X39596431Y-154186890D01*
X39647440Y-153935000D01*
X39647440Y-152135000D01*
X39603162Y-151899683D01*
X39464090Y-151683559D01*
X39251890Y-151538569D01*
X39235656Y-151535281D01*
X39518155Y-151112491D01*
X39635000Y-150525072D01*
X39635000Y-150464928D01*
X39518155Y-149877509D01*
X39185409Y-149379519D01*
X38954155Y-149225000D01*
X39185409Y-149070481D01*
X39518155Y-148572491D01*
X39635000Y-147985072D01*
X39635000Y-147924928D01*
X39518155Y-147337509D01*
X39185409Y-146839519D01*
X38687419Y-146506773D01*
X38100000Y-146389928D01*
X37512581Y-146506773D01*
X37014591Y-146839519D01*
X36681845Y-147337509D01*
X36565000Y-147924928D01*
X36565000Y-147985072D01*
X36681845Y-148572491D01*
X37014591Y-149070481D01*
X37245845Y-149225000D01*
X37014591Y-149379519D01*
X36681845Y-149877509D01*
X36565000Y-150464928D01*
X36565000Y-150525072D01*
X36681845Y-151112491D01*
X36962837Y-151533026D01*
X36748559Y-151670910D01*
X36603569Y-151883110D01*
X36552560Y-152135000D01*
X9652000Y-152135000D01*
X9652000Y-132966510D01*
X45084780Y-132966510D01*
X45277718Y-133433458D01*
X45634663Y-133791026D01*
X46101273Y-133984779D01*
X46606510Y-133985220D01*
X47073458Y-133792282D01*
X47431026Y-133435337D01*
X47624779Y-132968727D01*
X47625220Y-132463490D01*
X47432282Y-131996542D01*
X47075337Y-131638974D01*
X46608727Y-131445221D01*
X46103490Y-131444780D01*
X45636542Y-131637718D01*
X45278974Y-131994663D01*
X45085221Y-132461273D01*
X45084780Y-132966510D01*
X9652000Y-132966510D01*
X9652000Y-127956001D01*
X20367191Y-127956001D01*
X20638368Y-128612300D01*
X21140059Y-129114867D01*
X21795884Y-129387189D01*
X22506001Y-129387809D01*
X23162300Y-129116632D01*
X23664867Y-128614941D01*
X23937189Y-127959116D01*
X23937809Y-127248999D01*
X23726518Y-126737636D01*
X23896295Y-126737784D01*
X24497443Y-126489394D01*
X24957778Y-126029863D01*
X25207216Y-125429148D01*
X25207784Y-124778705D01*
X24959394Y-124177557D01*
X24499863Y-123717222D01*
X23899148Y-123467784D01*
X23248705Y-123467216D01*
X22647557Y-123715606D01*
X22187222Y-124175137D01*
X21937784Y-124775852D01*
X21937216Y-125426295D01*
X22098840Y-125817453D01*
X21798999Y-125817191D01*
X21142700Y-126088368D01*
X20640133Y-126590059D01*
X20367811Y-127245884D01*
X20367191Y-127956001D01*
X9652000Y-127956001D01*
X9652000Y-124102500D01*
X17325060Y-124102500D01*
X17325060Y-126102500D01*
X17369338Y-126337817D01*
X17508410Y-126553941D01*
X17720610Y-126698931D01*
X17972500Y-126749940D01*
X19972500Y-126749940D01*
X20207817Y-126705662D01*
X20423941Y-126566590D01*
X20568931Y-126354390D01*
X20619940Y-126102500D01*
X20619940Y-124102500D01*
X20575662Y-123867183D01*
X20436590Y-123651059D01*
X20224390Y-123506069D01*
X19972500Y-123455060D01*
X17972500Y-123455060D01*
X17737183Y-123499338D01*
X17521059Y-123638410D01*
X17376069Y-123850610D01*
X17325060Y-124102500D01*
X9652000Y-124102500D01*
X9652000Y-122755032D01*
X17999573Y-122755032D01*
X18098236Y-123021887D01*
X18707961Y-123248408D01*
X19357960Y-123224356D01*
X19846764Y-123021887D01*
X19945427Y-122755032D01*
X18972500Y-121782105D01*
X17999573Y-122755032D01*
X9652000Y-122755032D01*
X9652000Y-121337961D01*
X17326592Y-121337961D01*
X17350644Y-121987960D01*
X17553113Y-122476764D01*
X17819968Y-122575427D01*
X18792895Y-121602500D01*
X19152105Y-121602500D01*
X20125032Y-122575427D01*
X20391887Y-122476764D01*
X20618408Y-121867039D01*
X20594356Y-121217040D01*
X20391887Y-120728236D01*
X20125032Y-120629573D01*
X19152105Y-121602500D01*
X18792895Y-121602500D01*
X17819968Y-120629573D01*
X17553113Y-120728236D01*
X17326592Y-121337961D01*
X9652000Y-121337961D01*
X9652000Y-112395000D01*
X17018000Y-112395000D01*
X17018000Y-120015000D01*
X17028006Y-120064410D01*
X17056447Y-120106035D01*
X17098841Y-120133315D01*
X17145000Y-120142000D01*
X18197492Y-120142000D01*
X18098236Y-120183113D01*
X17999573Y-120449968D01*
X18972500Y-121422895D01*
X19945427Y-120449968D01*
X19846764Y-120183113D01*
X19736100Y-120142000D01*
X20828000Y-120142000D01*
X20828000Y-123190000D01*
X20838006Y-123239410D01*
X20866447Y-123281035D01*
X20908841Y-123308315D01*
X20955000Y-123317000D01*
X31697394Y-123317000D01*
X34835197Y-126454803D01*
X34877211Y-126482666D01*
X34925000Y-126492000D01*
X64643000Y-126492000D01*
X64643000Y-135255000D01*
X64653006Y-135304410D01*
X64681447Y-135346035D01*
X64723841Y-135373315D01*
X64770000Y-135382000D01*
X81915000Y-135382000D01*
X81964410Y-135371994D01*
X82006035Y-135343553D01*
X82033315Y-135301159D01*
X82042000Y-135255000D01*
X82042000Y-118110000D01*
X83819464Y-118110000D01*
X84071510Y-118110220D01*
X84538458Y-117917282D01*
X84896026Y-117560337D01*
X85089779Y-117093727D01*
X85090220Y-116588490D01*
X84897282Y-116121542D01*
X84540337Y-115763974D01*
X84073727Y-115570221D01*
X83568490Y-115569780D01*
X83567958Y-115570000D01*
X82042000Y-115570000D01*
X82042000Y-114037817D01*
X89341788Y-114037817D01*
X89415935Y-114283947D01*
X89953200Y-114477064D01*
X90523470Y-114449879D01*
X90924065Y-114283947D01*
X90998212Y-114037817D01*
X90170000Y-113209605D01*
X89341788Y-114037817D01*
X82042000Y-114037817D01*
X82042000Y-112813200D01*
X88722936Y-112813200D01*
X88750121Y-113383470D01*
X88916053Y-113784065D01*
X89162183Y-113858212D01*
X89990395Y-113030000D01*
X89162183Y-112201788D01*
X88916053Y-112275935D01*
X88722936Y-112813200D01*
X82042000Y-112813200D01*
X82042000Y-111497817D01*
X89341788Y-111497817D01*
X89415935Y-111743947D01*
X89457434Y-111758864D01*
X89415935Y-111776053D01*
X89341788Y-112022183D01*
X90170000Y-112850395D01*
X90998212Y-112022183D01*
X90924065Y-111776053D01*
X90882566Y-111761136D01*
X90924065Y-111743947D01*
X90998212Y-111497817D01*
X90170000Y-110669605D01*
X89341788Y-111497817D01*
X82042000Y-111497817D01*
X82042000Y-110273200D01*
X88722936Y-110273200D01*
X88750121Y-110843470D01*
X88916053Y-111244065D01*
X89162183Y-111318212D01*
X89990395Y-110490000D01*
X89162183Y-109661788D01*
X88916053Y-109735935D01*
X88722936Y-110273200D01*
X82042000Y-110273200D01*
X82042000Y-108957817D01*
X89341788Y-108957817D01*
X89415935Y-109203947D01*
X89457434Y-109218864D01*
X89415935Y-109236053D01*
X89341788Y-109482183D01*
X90170000Y-110310395D01*
X90998212Y-109482183D01*
X90924065Y-109236053D01*
X90882566Y-109221136D01*
X90924065Y-109203947D01*
X90998212Y-108957817D01*
X90170000Y-108129605D01*
X89341788Y-108957817D01*
X82042000Y-108957817D01*
X82042000Y-107733200D01*
X88722936Y-107733200D01*
X88750121Y-108303470D01*
X88916053Y-108704065D01*
X89162183Y-108778212D01*
X89990395Y-107950000D01*
X89162183Y-107121788D01*
X88916053Y-107195935D01*
X88722936Y-107733200D01*
X82042000Y-107733200D01*
X82042000Y-106417817D01*
X89341788Y-106417817D01*
X89415935Y-106663947D01*
X89457434Y-106678864D01*
X89415935Y-106696053D01*
X89341788Y-106942183D01*
X90170000Y-107770395D01*
X90998212Y-106942183D01*
X90924065Y-106696053D01*
X90882566Y-106681136D01*
X90924065Y-106663947D01*
X90998212Y-106417817D01*
X90170000Y-105589605D01*
X89341788Y-106417817D01*
X82042000Y-106417817D01*
X82042000Y-105193200D01*
X88722936Y-105193200D01*
X88750121Y-105763470D01*
X88916053Y-106164065D01*
X89162183Y-106238212D01*
X89990395Y-105410000D01*
X89162183Y-104581788D01*
X88916053Y-104655935D01*
X88722936Y-105193200D01*
X82042000Y-105193200D01*
X82042000Y-104140000D01*
X82031994Y-104090590D01*
X82003553Y-104048965D01*
X81961159Y-104021685D01*
X81915000Y-104013000D01*
X25400000Y-104013000D01*
X25350590Y-104023006D01*
X25310197Y-104050197D01*
X17055197Y-112305197D01*
X17027334Y-112347211D01*
X17018000Y-112395000D01*
X9652000Y-112395000D01*
X9652000Y-103877817D01*
X89341788Y-103877817D01*
X89415935Y-104123947D01*
X89457434Y-104138864D01*
X89415935Y-104156053D01*
X89341788Y-104402183D01*
X90170000Y-105230395D01*
X90998212Y-104402183D01*
X90924065Y-104156053D01*
X90882566Y-104141136D01*
X90924065Y-104123947D01*
X90998212Y-103877817D01*
X90170000Y-103049605D01*
X89341788Y-103877817D01*
X9652000Y-103877817D01*
X9652000Y-101851510D01*
X27939780Y-101851510D01*
X28132718Y-102318458D01*
X28489663Y-102676026D01*
X28956273Y-102869779D01*
X29461510Y-102870220D01*
X29928458Y-102677282D01*
X29952582Y-102653200D01*
X88722936Y-102653200D01*
X88750121Y-103223470D01*
X88916053Y-103624065D01*
X89162183Y-103698212D01*
X89990395Y-102870000D01*
X89162183Y-102041788D01*
X88916053Y-102115935D01*
X88722936Y-102653200D01*
X29952582Y-102653200D01*
X30286026Y-102320337D01*
X30479779Y-101853727D01*
X30480220Y-101348490D01*
X30475811Y-101337817D01*
X89341788Y-101337817D01*
X89415935Y-101583947D01*
X89457434Y-101598864D01*
X89415935Y-101616053D01*
X89341788Y-101862183D01*
X90170000Y-102690395D01*
X90998212Y-101862183D01*
X90924065Y-101616053D01*
X90882566Y-101601136D01*
X90924065Y-101583947D01*
X90998212Y-101337817D01*
X90170000Y-100509605D01*
X89341788Y-101337817D01*
X30475811Y-101337817D01*
X30287282Y-100881542D01*
X29930337Y-100523974D01*
X29463727Y-100330221D01*
X28958490Y-100329780D01*
X28491542Y-100522718D01*
X28133974Y-100879663D01*
X27940221Y-101346273D01*
X27939780Y-101851510D01*
X9652000Y-101851510D01*
X9652000Y-92961510D01*
X32384780Y-92961510D01*
X32577718Y-93428458D01*
X32934663Y-93786026D01*
X33401273Y-93979779D01*
X33906510Y-93980220D01*
X34373458Y-93787282D01*
X34731026Y-93430337D01*
X34924779Y-92963727D01*
X34925220Y-92458490D01*
X34732282Y-91991542D01*
X34375337Y-91633974D01*
X33908727Y-91440221D01*
X33403490Y-91439780D01*
X32936542Y-91632718D01*
X32578974Y-91989663D01*
X32385221Y-92456273D01*
X32384780Y-92961510D01*
X9652000Y-92961510D01*
X9652000Y-80298407D01*
X35027500Y-80298407D01*
X35027500Y-80356593D01*
X35140539Y-80924878D01*
X35462446Y-81406647D01*
X35944215Y-81728554D01*
X36512500Y-81841593D01*
X37080785Y-81728554D01*
X37562554Y-81406647D01*
X37782500Y-81077474D01*
X38002446Y-81406647D01*
X38484215Y-81728554D01*
X39052500Y-81841593D01*
X39620785Y-81728554D01*
X40102554Y-81406647D01*
X40322500Y-81077474D01*
X40542446Y-81406647D01*
X41024215Y-81728554D01*
X41592500Y-81841593D01*
X42160785Y-81728554D01*
X42642554Y-81406647D01*
X42862500Y-81077474D01*
X43082446Y-81406647D01*
X43564215Y-81728554D01*
X44132500Y-81841593D01*
X44700785Y-81728554D01*
X45182554Y-81406647D01*
X45402500Y-81077474D01*
X45622446Y-81406647D01*
X46104215Y-81728554D01*
X46672500Y-81841593D01*
X47240785Y-81728554D01*
X47722554Y-81406647D01*
X47950202Y-81065947D01*
X48017317Y-81208858D01*
X48445576Y-81599145D01*
X48855610Y-81768976D01*
X49085500Y-81647655D01*
X49085500Y-80454500D01*
X49065500Y-80454500D01*
X49065500Y-80200500D01*
X49085500Y-80200500D01*
X49085500Y-79007345D01*
X49339500Y-79007345D01*
X49339500Y-80200500D01*
X49359500Y-80200500D01*
X49359500Y-80454500D01*
X49339500Y-80454500D01*
X49339500Y-81647655D01*
X49569390Y-81768976D01*
X49979424Y-81599145D01*
X50407683Y-81208858D01*
X50474798Y-81065947D01*
X50702446Y-81406647D01*
X51184215Y-81728554D01*
X51752500Y-81841593D01*
X52320785Y-81728554D01*
X52802554Y-81406647D01*
X53022500Y-81077474D01*
X53242446Y-81406647D01*
X53724215Y-81728554D01*
X54292500Y-81841593D01*
X54860785Y-81728554D01*
X55342554Y-81406647D01*
X55570202Y-81065947D01*
X55637317Y-81208858D01*
X56065576Y-81599145D01*
X56475610Y-81768976D01*
X56705500Y-81647655D01*
X56705500Y-80454500D01*
X56685500Y-80454500D01*
X56685500Y-80200500D01*
X56705500Y-80200500D01*
X56705500Y-79007345D01*
X56959500Y-79007345D01*
X56959500Y-80200500D01*
X56979500Y-80200500D01*
X56979500Y-80454500D01*
X56959500Y-80454500D01*
X56959500Y-81647655D01*
X57189390Y-81768976D01*
X57599424Y-81599145D01*
X57902437Y-81322999D01*
X57919338Y-81412817D01*
X58058410Y-81628941D01*
X58270610Y-81773931D01*
X58522500Y-81824940D01*
X60222500Y-81824940D01*
X60457817Y-81780662D01*
X60673941Y-81641590D01*
X60818931Y-81429390D01*
X60869940Y-81177500D01*
X60869940Y-79477500D01*
X60825662Y-79242183D01*
X60686590Y-79026059D01*
X60474390Y-78881069D01*
X60222500Y-78830060D01*
X58522500Y-78830060D01*
X58287183Y-78874338D01*
X58071059Y-79013410D01*
X57926069Y-79225610D01*
X57904199Y-79333607D01*
X57599424Y-79055855D01*
X57189390Y-78886024D01*
X56959500Y-79007345D01*
X56705500Y-79007345D01*
X56475610Y-78886024D01*
X56065576Y-79055855D01*
X55637317Y-79446142D01*
X55570202Y-79589053D01*
X55342554Y-79248353D01*
X54860785Y-78926446D01*
X54292500Y-78813407D01*
X53724215Y-78926446D01*
X53242446Y-79248353D01*
X53022500Y-79577526D01*
X52802554Y-79248353D01*
X52320785Y-78926446D01*
X51752500Y-78813407D01*
X51184215Y-78926446D01*
X50702446Y-79248353D01*
X50474798Y-79589053D01*
X50407683Y-79446142D01*
X49979424Y-79055855D01*
X49569390Y-78886024D01*
X49339500Y-79007345D01*
X49085500Y-79007345D01*
X48855610Y-78886024D01*
X48445576Y-79055855D01*
X48017317Y-79446142D01*
X47950202Y-79589053D01*
X47722554Y-79248353D01*
X47240785Y-78926446D01*
X46672500Y-78813407D01*
X46104215Y-78926446D01*
X45622446Y-79248353D01*
X45402500Y-79577526D01*
X45182554Y-79248353D01*
X44700785Y-78926446D01*
X44132500Y-78813407D01*
X43564215Y-78926446D01*
X43082446Y-79248353D01*
X42862500Y-79577526D01*
X42642554Y-79248353D01*
X42160785Y-78926446D01*
X41592500Y-78813407D01*
X41024215Y-78926446D01*
X40542446Y-79248353D01*
X40322500Y-79577526D01*
X40102554Y-79248353D01*
X39620785Y-78926446D01*
X39052500Y-78813407D01*
X38484215Y-78926446D01*
X38002446Y-79248353D01*
X37782500Y-79577526D01*
X37562554Y-79248353D01*
X37080785Y-78926446D01*
X36512500Y-78813407D01*
X35944215Y-78926446D01*
X35462446Y-79248353D01*
X35140539Y-79730122D01*
X35027500Y-80298407D01*
X9652000Y-80298407D01*
X9652000Y-71321208D01*
X26923824Y-71321208D01*
X27078175Y-71694766D01*
X27363731Y-71980821D01*
X27737018Y-72135824D01*
X28141208Y-72136176D01*
X28514766Y-71981825D01*
X28800821Y-71696269D01*
X28955824Y-71322982D01*
X28956176Y-70918792D01*
X28801825Y-70545234D01*
X28516269Y-70259179D01*
X28142982Y-70104176D01*
X27738792Y-70103824D01*
X27365234Y-70258175D01*
X27079179Y-70543731D01*
X26924176Y-70917018D01*
X26923824Y-71321208D01*
X9652000Y-71321208D01*
X9652000Y-63701208D01*
X14223824Y-63701208D01*
X14378175Y-64074766D01*
X14663731Y-64360821D01*
X15037018Y-64515824D01*
X15441208Y-64516176D01*
X15814766Y-64361825D01*
X16100821Y-64076269D01*
X16255824Y-63702982D01*
X16256176Y-63298792D01*
X16101825Y-62925234D01*
X15816269Y-62639179D01*
X15442982Y-62484176D01*
X15038792Y-62483824D01*
X14665234Y-62638175D01*
X14379179Y-62923731D01*
X14224176Y-63297018D01*
X14223824Y-63701208D01*
X9652000Y-63701208D01*
X9652000Y-61780167D01*
X60659838Y-61780167D01*
X60801883Y-62123943D01*
X61064673Y-62387192D01*
X61408201Y-62529838D01*
X61780167Y-62530162D01*
X62123943Y-62388117D01*
X62387192Y-62125327D01*
X62529838Y-61781799D01*
X62530162Y-61409833D01*
X62388117Y-61066057D01*
X62125327Y-60802808D01*
X61781799Y-60660162D01*
X61409833Y-60659838D01*
X61066057Y-60801883D01*
X60802808Y-61064673D01*
X60660162Y-61408201D01*
X60659838Y-61780167D01*
X9652000Y-61780167D01*
X9652000Y-52906208D01*
X14858824Y-52906208D01*
X15013175Y-53279766D01*
X15298731Y-53565821D01*
X15672018Y-53720824D01*
X16076208Y-53721176D01*
X16449766Y-53566825D01*
X16735821Y-53281269D01*
X16736879Y-53278720D01*
X52982501Y-53278720D01*
X53422613Y-54343873D01*
X54236840Y-55159523D01*
X55301223Y-55601493D01*
X56453720Y-55602499D01*
X57518873Y-55162387D01*
X58334523Y-54348160D01*
X58776493Y-53283777D01*
X58777499Y-52131280D01*
X58337387Y-51066127D01*
X57523160Y-50250477D01*
X56458777Y-49808507D01*
X55306280Y-49807501D01*
X54241127Y-50247613D01*
X53425477Y-51061840D01*
X52983507Y-52126223D01*
X52982501Y-53278720D01*
X16736879Y-53278720D01*
X16890824Y-52907982D01*
X16891176Y-52503792D01*
X16736825Y-52130234D01*
X16451269Y-51844179D01*
X16077982Y-51689176D01*
X15673792Y-51688824D01*
X15300234Y-51843175D01*
X15014179Y-52128731D01*
X14859176Y-52502018D01*
X14858824Y-52906208D01*
X9652000Y-52906208D01*
X9652000Y-47826208D01*
X22478824Y-47826208D01*
X22633175Y-48199766D01*
X22918731Y-48485821D01*
X23292018Y-48640824D01*
X23696208Y-48641176D01*
X24069766Y-48486825D01*
X24355821Y-48201269D01*
X24510824Y-47827982D01*
X24511176Y-47423792D01*
X24356825Y-47050234D01*
X24082072Y-46775000D01*
X70892560Y-46775000D01*
X70892560Y-48475000D01*
X70936838Y-48710317D01*
X71075910Y-48926441D01*
X71288110Y-49071431D01*
X71540000Y-49122440D01*
X73240000Y-49122440D01*
X73475317Y-49078162D01*
X73691441Y-48939090D01*
X73836431Y-48726890D01*
X73850086Y-48659459D01*
X73879946Y-48704147D01*
X74361715Y-49026054D01*
X74930000Y-49139093D01*
X75498285Y-49026054D01*
X75980054Y-48704147D01*
X76200000Y-48374974D01*
X76419946Y-48704147D01*
X76901715Y-49026054D01*
X77470000Y-49139093D01*
X78038285Y-49026054D01*
X78520054Y-48704147D01*
X78841961Y-48222378D01*
X78904258Y-47909187D01*
X87464752Y-47909187D01*
X87682757Y-48436800D01*
X88086077Y-48840824D01*
X88613309Y-49059750D01*
X89184187Y-49060248D01*
X89711800Y-48842243D01*
X90115824Y-48438923D01*
X90334750Y-47911691D01*
X90335248Y-47340813D01*
X90117243Y-46813200D01*
X89713923Y-46409176D01*
X89186691Y-46190250D01*
X88615813Y-46189752D01*
X88088200Y-46407757D01*
X87684176Y-46811077D01*
X87465250Y-47338309D01*
X87464752Y-47909187D01*
X78904258Y-47909187D01*
X78955000Y-47654093D01*
X78955000Y-47595907D01*
X78841961Y-47027622D01*
X78520054Y-46545853D01*
X78038285Y-46223946D01*
X77470000Y-46110907D01*
X76901715Y-46223946D01*
X76419946Y-46545853D01*
X76200000Y-46875026D01*
X75980054Y-46545853D01*
X75498285Y-46223946D01*
X74930000Y-46110907D01*
X74361715Y-46223946D01*
X73879946Y-46545853D01*
X73852150Y-46587452D01*
X73843162Y-46539683D01*
X73704090Y-46323559D01*
X73491890Y-46178569D01*
X73240000Y-46127560D01*
X71540000Y-46127560D01*
X71304683Y-46171838D01*
X71088559Y-46310910D01*
X70943569Y-46523110D01*
X70892560Y-46775000D01*
X24082072Y-46775000D01*
X24071269Y-46764179D01*
X23697982Y-46609176D01*
X23293792Y-46608824D01*
X22920234Y-46763175D01*
X22634179Y-47048731D01*
X22479176Y-47422018D01*
X22478824Y-47826208D01*
X9652000Y-47826208D01*
X9652000Y-43381208D01*
X16763824Y-43381208D01*
X16918175Y-43754766D01*
X17203731Y-44040821D01*
X17577018Y-44195824D01*
X17981208Y-44196176D01*
X18354766Y-44041825D01*
X18640821Y-43756269D01*
X18795824Y-43382982D01*
X18796176Y-42978792D01*
X18641825Y-42605234D01*
X18356269Y-42319179D01*
X17982982Y-42164176D01*
X17578792Y-42163824D01*
X17205234Y-42318175D01*
X16919179Y-42603731D01*
X16764176Y-42977018D01*
X16763824Y-43381208D01*
X9652000Y-43381208D01*
X9652000Y-42095167D01*
X56849838Y-42095167D01*
X56991883Y-42438943D01*
X57254673Y-42702192D01*
X57598201Y-42844838D01*
X57970167Y-42845162D01*
X58313943Y-42703117D01*
X58577192Y-42440327D01*
X58719838Y-42096799D01*
X58720162Y-41724833D01*
X58578117Y-41381057D01*
X58315327Y-41117808D01*
X57971799Y-40975162D01*
X57599833Y-40974838D01*
X57256057Y-41116883D01*
X56992808Y-41379673D01*
X56850162Y-41723201D01*
X56849838Y-42095167D01*
X9652000Y-42095167D01*
X9652000Y-40206208D01*
X32003824Y-40206208D01*
X32158175Y-40579766D01*
X32443731Y-40865821D01*
X32817018Y-41020824D01*
X33221208Y-41021176D01*
X33594766Y-40866825D01*
X33880821Y-40581269D01*
X34002104Y-40289187D01*
X95084752Y-40289187D01*
X95302757Y-40816800D01*
X95706077Y-41220824D01*
X95787931Y-41254813D01*
X95708200Y-41287757D01*
X95304176Y-41691077D01*
X95085250Y-42218309D01*
X95084752Y-42789187D01*
X95302757Y-43316800D01*
X95706077Y-43720824D01*
X96233309Y-43939750D01*
X96804187Y-43940248D01*
X97331800Y-43722243D01*
X97735824Y-43318923D01*
X97954750Y-42791691D01*
X97955248Y-42220813D01*
X97758647Y-41745000D01*
X106502560Y-41745000D01*
X106502560Y-43345000D01*
X106546838Y-43580317D01*
X106685910Y-43796441D01*
X106898110Y-43941431D01*
X107150000Y-43992440D01*
X108750000Y-43992440D01*
X108985317Y-43948162D01*
X109201441Y-43809090D01*
X109346431Y-43596890D01*
X109377815Y-43441911D01*
X109475302Y-43587811D01*
X109940849Y-43898880D01*
X110490000Y-44008113D01*
X111039151Y-43898880D01*
X111504698Y-43587811D01*
X111815767Y-43122264D01*
X111925000Y-42573113D01*
X111925000Y-42516887D01*
X119215000Y-42516887D01*
X119215000Y-42573113D01*
X119324233Y-43122264D01*
X119635302Y-43587811D01*
X120100849Y-43898880D01*
X120650000Y-44008113D01*
X121199151Y-43898880D01*
X121664698Y-43587811D01*
X121920000Y-43205725D01*
X122175302Y-43587811D01*
X122640849Y-43898880D01*
X123190000Y-44008113D01*
X123739151Y-43898880D01*
X124204698Y-43587811D01*
X124515767Y-43122264D01*
X124625000Y-42573113D01*
X124625000Y-42516887D01*
X124515767Y-41967736D01*
X124204698Y-41502189D01*
X123739151Y-41191120D01*
X123190000Y-41081887D01*
X122640849Y-41191120D01*
X122175302Y-41502189D01*
X121920000Y-41884275D01*
X121664698Y-41502189D01*
X121199151Y-41191120D01*
X120650000Y-41081887D01*
X120100849Y-41191120D01*
X119635302Y-41502189D01*
X119324233Y-41967736D01*
X119215000Y-42516887D01*
X111925000Y-42516887D01*
X111815767Y-41967736D01*
X111504698Y-41502189D01*
X111039151Y-41191120D01*
X110490000Y-41081887D01*
X109940849Y-41191120D01*
X109475302Y-41502189D01*
X109378899Y-41646465D01*
X109353162Y-41509683D01*
X109214090Y-41293559D01*
X109001890Y-41148569D01*
X108750000Y-41097560D01*
X107150000Y-41097560D01*
X106914683Y-41141838D01*
X106698559Y-41280910D01*
X106553569Y-41493110D01*
X106502560Y-41745000D01*
X97758647Y-41745000D01*
X97737243Y-41693200D01*
X97333923Y-41289176D01*
X97252069Y-41255187D01*
X97331800Y-41222243D01*
X97735824Y-40818923D01*
X97954750Y-40291691D01*
X97955248Y-39720813D01*
X97737243Y-39193200D01*
X97333923Y-38789176D01*
X96806691Y-38570250D01*
X96235813Y-38569752D01*
X95708200Y-38787757D01*
X95304176Y-39191077D01*
X95085250Y-39718309D01*
X95084752Y-40289187D01*
X34002104Y-40289187D01*
X34035824Y-40207982D01*
X34036176Y-39803792D01*
X33881825Y-39430234D01*
X33596269Y-39144179D01*
X33222982Y-38989176D01*
X32818792Y-38988824D01*
X32445234Y-39143175D01*
X32159179Y-39428731D01*
X32004176Y-39802018D01*
X32003824Y-40206208D01*
X9652000Y-40206208D01*
X9652000Y-37666208D01*
X22478824Y-37666208D01*
X22633175Y-38039766D01*
X22918731Y-38325821D01*
X23292018Y-38480824D01*
X23696208Y-38481176D01*
X24069766Y-38326825D01*
X24355821Y-38041269D01*
X24510824Y-37667982D01*
X24511176Y-37263792D01*
X24356825Y-36890234D01*
X24071269Y-36604179D01*
X23697982Y-36449176D01*
X23293792Y-36448824D01*
X22920234Y-36603175D01*
X22634179Y-36888731D01*
X22479176Y-37262018D01*
X22478824Y-37666208D01*
X9652000Y-37666208D01*
X9652000Y-34896887D01*
X87465000Y-34896887D01*
X87465000Y-34953113D01*
X87574233Y-35502264D01*
X87885302Y-35967811D01*
X88350849Y-36278880D01*
X88900000Y-36388113D01*
X89449151Y-36278880D01*
X89914698Y-35967811D01*
X90225767Y-35502264D01*
X90335000Y-34953113D01*
X90335000Y-34896887D01*
X106515000Y-34896887D01*
X106515000Y-34953113D01*
X106624233Y-35502264D01*
X106935302Y-35967811D01*
X107400849Y-36278880D01*
X107950000Y-36388113D01*
X108499151Y-36278880D01*
X108964698Y-35967811D01*
X109220000Y-35585725D01*
X109475302Y-35967811D01*
X109940849Y-36278880D01*
X110490000Y-36388113D01*
X111039151Y-36278880D01*
X111504698Y-35967811D01*
X111815767Y-35502264D01*
X111925000Y-34953113D01*
X111925000Y-34896887D01*
X119215000Y-34896887D01*
X119215000Y-34953113D01*
X119324233Y-35502264D01*
X119635302Y-35967811D01*
X120100849Y-36278880D01*
X120650000Y-36388113D01*
X121199151Y-36278880D01*
X121664698Y-35967811D01*
X121920000Y-35585725D01*
X122175302Y-35967811D01*
X122640849Y-36278880D01*
X123190000Y-36388113D01*
X123739151Y-36278880D01*
X124204698Y-35967811D01*
X124515767Y-35502264D01*
X124625000Y-34953113D01*
X124625000Y-34896887D01*
X124515767Y-34347736D01*
X124204698Y-33882189D01*
X123739151Y-33571120D01*
X123190000Y-33461887D01*
X122640849Y-33571120D01*
X122175302Y-33882189D01*
X121920000Y-34264275D01*
X121664698Y-33882189D01*
X121199151Y-33571120D01*
X120650000Y-33461887D01*
X120100849Y-33571120D01*
X119635302Y-33882189D01*
X119324233Y-34347736D01*
X119215000Y-34896887D01*
X111925000Y-34896887D01*
X111815767Y-34347736D01*
X111504698Y-33882189D01*
X111039151Y-33571120D01*
X110490000Y-33461887D01*
X109940849Y-33571120D01*
X109475302Y-33882189D01*
X109220000Y-34264275D01*
X108964698Y-33882189D01*
X108499151Y-33571120D01*
X107950000Y-33461887D01*
X107400849Y-33571120D01*
X106935302Y-33882189D01*
X106624233Y-34347736D01*
X106515000Y-34896887D01*
X90335000Y-34896887D01*
X90225767Y-34347736D01*
X89914698Y-33882189D01*
X89449151Y-33571120D01*
X88900000Y-33461887D01*
X88350849Y-33571120D01*
X87885302Y-33882189D01*
X87574233Y-34347736D01*
X87465000Y-34896887D01*
X9652000Y-34896887D01*
X9652000Y-33205167D01*
X62564838Y-33205167D01*
X62706883Y-33548943D01*
X62969673Y-33812192D01*
X63313201Y-33954838D01*
X63685167Y-33955162D01*
X64028943Y-33813117D01*
X64292192Y-33550327D01*
X64434838Y-33206799D01*
X64435162Y-32834833D01*
X64293117Y-32491057D01*
X64030327Y-32227808D01*
X63686799Y-32085162D01*
X63314833Y-32084838D01*
X62971057Y-32226883D01*
X62707808Y-32489673D01*
X62565162Y-32833201D01*
X62564838Y-33205167D01*
X9652000Y-33205167D01*
X9652000Y-30681208D01*
X11048824Y-30681208D01*
X11203175Y-31054766D01*
X11488731Y-31340821D01*
X11862018Y-31495824D01*
X12266208Y-31496176D01*
X12639766Y-31341825D01*
X12925821Y-31056269D01*
X13080824Y-30682982D01*
X13081176Y-30278792D01*
X12926825Y-29905234D01*
X12641269Y-29619179D01*
X12267982Y-29464176D01*
X11863792Y-29463824D01*
X11490234Y-29618175D01*
X11204179Y-29903731D01*
X11049176Y-30277018D01*
X11048824Y-30681208D01*
X9652000Y-30681208D01*
X9652000Y-28859187D01*
X91274752Y-28859187D01*
X91492757Y-29386800D01*
X91896077Y-29790824D01*
X92423309Y-30009750D01*
X92994187Y-30010248D01*
X93521800Y-29792243D01*
X93925824Y-29388923D01*
X93959813Y-29307069D01*
X93992757Y-29386800D01*
X94396077Y-29790824D01*
X94923309Y-30009750D01*
X95494187Y-30010248D01*
X96021800Y-29792243D01*
X96425824Y-29388923D01*
X96568633Y-29045000D01*
X106502560Y-29045000D01*
X106502560Y-30645000D01*
X106546838Y-30880317D01*
X106685910Y-31096441D01*
X106898110Y-31241431D01*
X107150000Y-31292440D01*
X108750000Y-31292440D01*
X108985317Y-31248162D01*
X109201441Y-31109090D01*
X109346431Y-30896890D01*
X109377815Y-30741911D01*
X109475302Y-30887811D01*
X109940849Y-31198880D01*
X110490000Y-31308113D01*
X111039151Y-31198880D01*
X111504698Y-30887811D01*
X111815767Y-30422264D01*
X111925000Y-29873113D01*
X111925000Y-29816887D01*
X119215000Y-29816887D01*
X119215000Y-29873113D01*
X119324233Y-30422264D01*
X119635302Y-30887811D01*
X120100849Y-31198880D01*
X120650000Y-31308113D01*
X121199151Y-31198880D01*
X121664698Y-30887811D01*
X121920000Y-30505725D01*
X122175302Y-30887811D01*
X122640849Y-31198880D01*
X123190000Y-31308113D01*
X123739151Y-31198880D01*
X124204698Y-30887811D01*
X124515767Y-30422264D01*
X124625000Y-29873113D01*
X124625000Y-29816887D01*
X124515767Y-29267736D01*
X124204698Y-28802189D01*
X123739151Y-28491120D01*
X123190000Y-28381887D01*
X122640849Y-28491120D01*
X122175302Y-28802189D01*
X121920000Y-29184275D01*
X121664698Y-28802189D01*
X121199151Y-28491120D01*
X120650000Y-28381887D01*
X120100849Y-28491120D01*
X119635302Y-28802189D01*
X119324233Y-29267736D01*
X119215000Y-29816887D01*
X111925000Y-29816887D01*
X111815767Y-29267736D01*
X111504698Y-28802189D01*
X111039151Y-28491120D01*
X110490000Y-28381887D01*
X109940849Y-28491120D01*
X109475302Y-28802189D01*
X109378899Y-28946465D01*
X109353162Y-28809683D01*
X109214090Y-28593559D01*
X109001890Y-28448569D01*
X108750000Y-28397560D01*
X107150000Y-28397560D01*
X106914683Y-28441838D01*
X106698559Y-28580910D01*
X106553569Y-28793110D01*
X106502560Y-29045000D01*
X96568633Y-29045000D01*
X96644750Y-28861691D01*
X96645248Y-28290813D01*
X96427243Y-27763200D01*
X96023923Y-27359176D01*
X95496691Y-27140250D01*
X94925813Y-27139752D01*
X94398200Y-27357757D01*
X93994176Y-27761077D01*
X93960187Y-27842931D01*
X93927243Y-27763200D01*
X93523923Y-27359176D01*
X92996691Y-27140250D01*
X92425813Y-27139752D01*
X91898200Y-27357757D01*
X91494176Y-27761077D01*
X91275250Y-28288309D01*
X91274752Y-28859187D01*
X9652000Y-28859187D01*
X9652000Y-26871208D01*
X18668824Y-26871208D01*
X18823175Y-27244766D01*
X19108731Y-27530821D01*
X19482018Y-27685824D01*
X19886208Y-27686176D01*
X20259766Y-27531825D01*
X20545821Y-27246269D01*
X20700824Y-26872982D01*
X20701176Y-26468792D01*
X20546825Y-26095234D01*
X20261269Y-25809179D01*
X19887982Y-25654176D01*
X19483792Y-25653824D01*
X19110234Y-25808175D01*
X18824179Y-26093731D01*
X18669176Y-26467018D01*
X18668824Y-26871208D01*
X9652000Y-26871208D01*
X9652000Y-25185000D01*
X70892560Y-25185000D01*
X70892560Y-26885000D01*
X70936838Y-27120317D01*
X71075910Y-27336441D01*
X71288110Y-27481431D01*
X71540000Y-27532440D01*
X73240000Y-27532440D01*
X73475317Y-27488162D01*
X73691441Y-27349090D01*
X73836431Y-27136890D01*
X73850086Y-27069459D01*
X73879946Y-27114147D01*
X74361715Y-27436054D01*
X74930000Y-27549093D01*
X75498285Y-27436054D01*
X75980054Y-27114147D01*
X76200000Y-26784974D01*
X76419946Y-27114147D01*
X76901715Y-27436054D01*
X77470000Y-27549093D01*
X78038285Y-27436054D01*
X78520054Y-27114147D01*
X78841961Y-26632378D01*
X78955000Y-26064093D01*
X78955000Y-26005907D01*
X78841961Y-25437622D01*
X78520054Y-24955853D01*
X78038285Y-24633946D01*
X77470000Y-24520907D01*
X76901715Y-24633946D01*
X76419946Y-24955853D01*
X76200000Y-25285026D01*
X75980054Y-24955853D01*
X75498285Y-24633946D01*
X74930000Y-24520907D01*
X74361715Y-24633946D01*
X73879946Y-24955853D01*
X73852150Y-24997452D01*
X73843162Y-24949683D01*
X73704090Y-24733559D01*
X73491890Y-24588569D01*
X73240000Y-24537560D01*
X71540000Y-24537560D01*
X71304683Y-24581838D01*
X71088559Y-24720910D01*
X70943569Y-24933110D01*
X70892560Y-25185000D01*
X9652000Y-25185000D01*
X9652000Y-23045167D01*
X33354838Y-23045167D01*
X33496883Y-23388943D01*
X33759673Y-23652192D01*
X34103201Y-23794838D01*
X34475167Y-23795162D01*
X34818943Y-23653117D01*
X35082192Y-23390327D01*
X35224838Y-23046799D01*
X35225162Y-22674833D01*
X35083117Y-22331057D01*
X34977245Y-22225000D01*
X86166887Y-22225000D01*
X86276120Y-22774151D01*
X86587189Y-23239698D01*
X87052736Y-23550767D01*
X87601887Y-23660000D01*
X87658113Y-23660000D01*
X88207264Y-23550767D01*
X88672811Y-23239698D01*
X88983880Y-22774151D01*
X89036584Y-22509187D01*
X98894752Y-22509187D01*
X99112757Y-23036800D01*
X99516077Y-23440824D01*
X100043309Y-23659750D01*
X100614187Y-23660248D01*
X101141800Y-23442243D01*
X101545824Y-23038923D01*
X101764750Y-22511691D01*
X101765024Y-22196887D01*
X106515000Y-22196887D01*
X106515000Y-22253113D01*
X106624233Y-22802264D01*
X106935302Y-23267811D01*
X107400849Y-23578880D01*
X107950000Y-23688113D01*
X108499151Y-23578880D01*
X108964698Y-23267811D01*
X109220000Y-22885725D01*
X109475302Y-23267811D01*
X109940849Y-23578880D01*
X110490000Y-23688113D01*
X111039151Y-23578880D01*
X111504698Y-23267811D01*
X111815767Y-22802264D01*
X111925000Y-22253113D01*
X111925000Y-22196887D01*
X119215000Y-22196887D01*
X119215000Y-22253113D01*
X119324233Y-22802264D01*
X119635302Y-23267811D01*
X120100849Y-23578880D01*
X120650000Y-23688113D01*
X121199151Y-23578880D01*
X121664698Y-23267811D01*
X121920000Y-22885725D01*
X122175302Y-23267811D01*
X122640849Y-23578880D01*
X123190000Y-23688113D01*
X123739151Y-23578880D01*
X124204698Y-23267811D01*
X124515767Y-22802264D01*
X124625000Y-22253113D01*
X124625000Y-22225000D01*
X131886887Y-22225000D01*
X131996120Y-22774151D01*
X132307189Y-23239698D01*
X132689275Y-23495000D01*
X132307189Y-23750302D01*
X131996120Y-24215849D01*
X131886887Y-24765000D01*
X131996120Y-25314151D01*
X132307189Y-25779698D01*
X132689275Y-26035000D01*
X132307189Y-26290302D01*
X131996120Y-26755849D01*
X131886887Y-27305000D01*
X131996120Y-27854151D01*
X132307189Y-28319698D01*
X132689275Y-28575000D01*
X132307189Y-28830302D01*
X131996120Y-29295849D01*
X131886887Y-29845000D01*
X131996120Y-30394151D01*
X132307189Y-30859698D01*
X132689275Y-31115000D01*
X132307189Y-31370302D01*
X131996120Y-31835849D01*
X131886887Y-32385000D01*
X131996120Y-32934151D01*
X132307189Y-33399698D01*
X132689275Y-33655000D01*
X132307189Y-33910302D01*
X131996120Y-34375849D01*
X131886887Y-34925000D01*
X131996120Y-35474151D01*
X132307189Y-35939698D01*
X132689275Y-36195000D01*
X132307189Y-36450302D01*
X131996120Y-36915849D01*
X131886887Y-37465000D01*
X131996120Y-38014151D01*
X132307189Y-38479698D01*
X132689275Y-38735000D01*
X132307189Y-38990302D01*
X131996120Y-39455849D01*
X131886887Y-40005000D01*
X131996120Y-40554151D01*
X132307189Y-41019698D01*
X132689275Y-41275000D01*
X132307189Y-41530302D01*
X131996120Y-41995849D01*
X131886887Y-42545000D01*
X131996120Y-43094151D01*
X132307189Y-43559698D01*
X132772736Y-43870767D01*
X133321887Y-43980000D01*
X133378113Y-43980000D01*
X133927264Y-43870767D01*
X134392811Y-43559698D01*
X134703880Y-43094151D01*
X134813113Y-42545000D01*
X134703880Y-41995849D01*
X134392811Y-41530302D01*
X134010725Y-41275000D01*
X134392811Y-41019698D01*
X134703880Y-40554151D01*
X134813113Y-40005000D01*
X134703880Y-39455849D01*
X134392811Y-38990302D01*
X134010725Y-38735000D01*
X134392811Y-38479698D01*
X134703880Y-38014151D01*
X134813113Y-37465000D01*
X134703880Y-36915849D01*
X134392811Y-36450302D01*
X134010725Y-36195000D01*
X134392811Y-35939698D01*
X134703880Y-35474151D01*
X134813113Y-34925000D01*
X134703880Y-34375849D01*
X134392811Y-33910302D01*
X134010725Y-33655000D01*
X134392811Y-33399698D01*
X134703880Y-32934151D01*
X134813113Y-32385000D01*
X134703880Y-31835849D01*
X134392811Y-31370302D01*
X134010725Y-31115000D01*
X134392811Y-30859698D01*
X134703880Y-30394151D01*
X134813113Y-29845000D01*
X134703880Y-29295849D01*
X134392811Y-28830302D01*
X134010725Y-28575000D01*
X134392811Y-28319698D01*
X134703880Y-27854151D01*
X134813113Y-27305000D01*
X134703880Y-26755849D01*
X134392811Y-26290302D01*
X134010725Y-26035000D01*
X134392811Y-25779698D01*
X134703880Y-25314151D01*
X134813113Y-24765000D01*
X139506887Y-24765000D01*
X139616120Y-25314151D01*
X139927189Y-25779698D01*
X140309275Y-26035000D01*
X139927189Y-26290302D01*
X139616120Y-26755849D01*
X139506887Y-27305000D01*
X139616120Y-27854151D01*
X139927189Y-28319698D01*
X140309275Y-28575000D01*
X139927189Y-28830302D01*
X139616120Y-29295849D01*
X139506887Y-29845000D01*
X139616120Y-30394151D01*
X139927189Y-30859698D01*
X140309275Y-31115000D01*
X139927189Y-31370302D01*
X139616120Y-31835849D01*
X139506887Y-32385000D01*
X139616120Y-32934151D01*
X139927189Y-33399698D01*
X140309275Y-33655000D01*
X139927189Y-33910302D01*
X139616120Y-34375849D01*
X139506887Y-34925000D01*
X139616120Y-35474151D01*
X139927189Y-35939698D01*
X140309275Y-36195000D01*
X139927189Y-36450302D01*
X139616120Y-36915849D01*
X139506887Y-37465000D01*
X139616120Y-38014151D01*
X139927189Y-38479698D01*
X140309275Y-38735000D01*
X139927189Y-38990302D01*
X139616120Y-39455849D01*
X139506887Y-40005000D01*
X139616120Y-40554151D01*
X139927189Y-41019698D01*
X140071465Y-41116101D01*
X139934683Y-41141838D01*
X139718559Y-41280910D01*
X139573569Y-41493110D01*
X139522560Y-41745000D01*
X139522560Y-43345000D01*
X139566838Y-43580317D01*
X139705910Y-43796441D01*
X139918110Y-43941431D01*
X140170000Y-43992440D01*
X141770000Y-43992440D01*
X142005317Y-43948162D01*
X142221441Y-43809090D01*
X142366431Y-43596890D01*
X142417440Y-43345000D01*
X142417440Y-41745000D01*
X142373162Y-41509683D01*
X142234090Y-41293559D01*
X142021890Y-41148569D01*
X141866911Y-41117185D01*
X142012811Y-41019698D01*
X142323880Y-40554151D01*
X142433113Y-40005000D01*
X142323880Y-39455849D01*
X142012811Y-38990302D01*
X141630725Y-38735000D01*
X142012811Y-38479698D01*
X142323880Y-38014151D01*
X142433113Y-37465000D01*
X142323880Y-36915849D01*
X142012811Y-36450302D01*
X141630725Y-36195000D01*
X142012811Y-35939698D01*
X142323880Y-35474151D01*
X142433113Y-34925000D01*
X142323880Y-34375849D01*
X142012811Y-33910302D01*
X141630725Y-33655000D01*
X142012811Y-33399698D01*
X142142792Y-33205167D01*
X145114838Y-33205167D01*
X145256883Y-33548943D01*
X145519673Y-33812192D01*
X145863201Y-33954838D01*
X146235167Y-33955162D01*
X146578943Y-33813117D01*
X146842192Y-33550327D01*
X146984838Y-33206799D01*
X146985162Y-32834833D01*
X146843117Y-32491057D01*
X146580327Y-32227808D01*
X146236799Y-32085162D01*
X145864833Y-32084838D01*
X145521057Y-32226883D01*
X145257808Y-32489673D01*
X145115162Y-32833201D01*
X145114838Y-33205167D01*
X142142792Y-33205167D01*
X142323880Y-32934151D01*
X142433113Y-32385000D01*
X142323880Y-31835849D01*
X142012811Y-31370302D01*
X141630725Y-31115000D01*
X142012811Y-30859698D01*
X142323880Y-30394151D01*
X142433113Y-29845000D01*
X142323880Y-29295849D01*
X142012811Y-28830302D01*
X141630725Y-28575000D01*
X142012811Y-28319698D01*
X142323880Y-27854151D01*
X142433113Y-27305000D01*
X142323880Y-26755849D01*
X142012811Y-26290302D01*
X141630725Y-26035000D01*
X142012811Y-25779698D01*
X142323880Y-25314151D01*
X142433113Y-24765000D01*
X142323880Y-24215849D01*
X142012811Y-23750302D01*
X141608297Y-23480014D01*
X141825134Y-23377389D01*
X142201041Y-22962423D01*
X142361904Y-22574039D01*
X142239915Y-22352000D01*
X141097000Y-22352000D01*
X141097000Y-22372000D01*
X140843000Y-22372000D01*
X140843000Y-22352000D01*
X139700085Y-22352000D01*
X139578096Y-22574039D01*
X139738959Y-22962423D01*
X140114866Y-23377389D01*
X140331703Y-23480014D01*
X139927189Y-23750302D01*
X139616120Y-24215849D01*
X139506887Y-24765000D01*
X134813113Y-24765000D01*
X134703880Y-24215849D01*
X134392811Y-23750302D01*
X134010725Y-23495000D01*
X134392811Y-23239698D01*
X134703880Y-22774151D01*
X134813113Y-22225000D01*
X134743685Y-21875961D01*
X139578096Y-21875961D01*
X139700085Y-22098000D01*
X140843000Y-22098000D01*
X140843000Y-20954371D01*
X141097000Y-20954371D01*
X141097000Y-22098000D01*
X142239915Y-22098000D01*
X142361904Y-21875961D01*
X142201041Y-21487577D01*
X141825134Y-21072611D01*
X141319041Y-20833086D01*
X141097000Y-20954371D01*
X140843000Y-20954371D01*
X140620959Y-20833086D01*
X140114866Y-21072611D01*
X139738959Y-21487577D01*
X139578096Y-21875961D01*
X134743685Y-21875961D01*
X134703880Y-21675849D01*
X134392811Y-21210302D01*
X133927264Y-20899233D01*
X133378113Y-20790000D01*
X133321887Y-20790000D01*
X132772736Y-20899233D01*
X132307189Y-21210302D01*
X131996120Y-21675849D01*
X131886887Y-22225000D01*
X124625000Y-22225000D01*
X124625000Y-22196887D01*
X124515767Y-21647736D01*
X124204698Y-21182189D01*
X123739151Y-20871120D01*
X123190000Y-20761887D01*
X122640849Y-20871120D01*
X122175302Y-21182189D01*
X121920000Y-21564275D01*
X121664698Y-21182189D01*
X121199151Y-20871120D01*
X120650000Y-20761887D01*
X120100849Y-20871120D01*
X119635302Y-21182189D01*
X119324233Y-21647736D01*
X119215000Y-22196887D01*
X111925000Y-22196887D01*
X111815767Y-21647736D01*
X111504698Y-21182189D01*
X111039151Y-20871120D01*
X110490000Y-20761887D01*
X109940849Y-20871120D01*
X109475302Y-21182189D01*
X109220000Y-21564275D01*
X108964698Y-21182189D01*
X108499151Y-20871120D01*
X107950000Y-20761887D01*
X107400849Y-20871120D01*
X106935302Y-21182189D01*
X106624233Y-21647736D01*
X106515000Y-22196887D01*
X101765024Y-22196887D01*
X101765248Y-21940813D01*
X101547243Y-21413200D01*
X101143923Y-21009176D01*
X100616691Y-20790250D01*
X100045813Y-20789752D01*
X99518200Y-21007757D01*
X99114176Y-21411077D01*
X98895250Y-21938309D01*
X98894752Y-22509187D01*
X89036584Y-22509187D01*
X89093113Y-22225000D01*
X88983880Y-21675849D01*
X88672811Y-21210302D01*
X88207264Y-20899233D01*
X87658113Y-20790000D01*
X87601887Y-20790000D01*
X87052736Y-20899233D01*
X86587189Y-21210302D01*
X86276120Y-21675849D01*
X86166887Y-22225000D01*
X34977245Y-22225000D01*
X34820327Y-22067808D01*
X34476799Y-21925162D01*
X34104833Y-21924838D01*
X33761057Y-22066883D01*
X33497808Y-22329673D01*
X33355162Y-22673201D01*
X33354838Y-23045167D01*
X9652000Y-23045167D01*
X9652000Y-17907000D01*
X149733000Y-17907000D01*
X149733000Y-50673000D01*
X149733000Y-50673000D01*
G37*
X149733000Y-50673000D02*
X68580000Y-50673000D01*
X68530590Y-50683006D01*
X68488965Y-50711447D01*
X68461685Y-50753841D01*
X68453000Y-50800000D01*
X68453000Y-99060000D01*
X68463006Y-99109410D01*
X68491447Y-99151035D01*
X68533841Y-99178315D01*
X68580000Y-99187000D01*
X82549889Y-99187000D01*
X82549780Y-99311510D01*
X82742718Y-99778458D01*
X83099663Y-100136026D01*
X83566273Y-100329779D01*
X84071510Y-100330220D01*
X84538458Y-100137282D01*
X84562582Y-100113200D01*
X88722936Y-100113200D01*
X88750121Y-100683470D01*
X88916053Y-101084065D01*
X89162183Y-101158212D01*
X89990395Y-100330000D01*
X89162183Y-99501788D01*
X88916053Y-99575935D01*
X88722936Y-100113200D01*
X84562582Y-100113200D01*
X84896026Y-99780337D01*
X85089779Y-99313727D01*
X85089890Y-99187000D01*
X89382512Y-99187000D01*
X89341788Y-99322183D01*
X90170000Y-100150395D01*
X90184143Y-100136253D01*
X90363748Y-100315858D01*
X90349605Y-100330000D01*
X91177817Y-101158212D01*
X91313000Y-101117488D01*
X91313000Y-102082512D01*
X91177817Y-102041788D01*
X90349605Y-102870000D01*
X91177817Y-103698212D01*
X91313000Y-103657488D01*
X91313000Y-104622512D01*
X91177817Y-104581788D01*
X90349605Y-105410000D01*
X91177817Y-106238212D01*
X91313000Y-106197488D01*
X91313000Y-107162512D01*
X91177817Y-107121788D01*
X90349605Y-107950000D01*
X91177817Y-108778212D01*
X91313000Y-108737488D01*
X91313000Y-109702512D01*
X91177817Y-109661788D01*
X90349605Y-110490000D01*
X91177817Y-111318212D01*
X91313000Y-111277488D01*
X91313000Y-112242512D01*
X91177817Y-112201788D01*
X90349605Y-113030000D01*
X91177817Y-113858212D01*
X91313000Y-113817488D01*
X91313000Y-154624370D01*
X87091185Y-158846185D01*
X86926004Y-159093395D01*
X86868000Y-159385000D01*
X86868000Y-174309369D01*
X84065598Y-177111772D01*
X84053162Y-177045683D01*
X83914090Y-176829559D01*
X83701890Y-176684569D01*
X83450000Y-176633560D01*
X81650000Y-176633560D01*
X81414683Y-176677838D01*
X81198559Y-176816910D01*
X81053569Y-177029110D01*
X81002560Y-177281000D01*
X81002560Y-179081000D01*
X81046838Y-179316317D01*
X81185910Y-179532441D01*
X81398110Y-179677431D01*
X81650000Y-179728440D01*
X83450000Y-179728440D01*
X83685317Y-179684162D01*
X83901441Y-179545090D01*
X83921141Y-179516258D01*
X84758954Y-179516258D01*
X84879003Y-179754000D01*
X86123000Y-179754000D01*
X86123000Y-178510622D01*
X86377000Y-178510622D01*
X86377000Y-179754000D01*
X87620997Y-179754000D01*
X87741046Y-179516258D01*
X87487966Y-178973424D01*
X87174900Y-178686510D01*
X137794780Y-178686510D01*
X137987718Y-179153458D01*
X138344663Y-179511026D01*
X138345195Y-179511247D01*
X139670972Y-180837023D01*
X139670974Y-180837026D01*
X139969217Y-181036305D01*
X140082992Y-181112327D01*
X140569000Y-181209000D01*
X152925845Y-181209000D01*
X153192581Y-181387227D01*
X153780000Y-181504072D01*
X154367419Y-181387227D01*
X154536489Y-181274258D01*
X155988954Y-181274258D01*
X156109003Y-181512000D01*
X157353000Y-181512000D01*
X157353000Y-180268622D01*
X157607000Y-180268622D01*
X157607000Y-181512000D01*
X158850997Y-181512000D01*
X158971046Y-181274258D01*
X158717966Y-180731424D01*
X158276417Y-180326760D01*
X157844740Y-180147964D01*
X157607000Y-180268622D01*
X157353000Y-180268622D01*
X157115260Y-180147964D01*
X156683583Y-180326760D01*
X156242034Y-180731424D01*
X155988954Y-181274258D01*
X154536489Y-181274258D01*
X154865409Y-181054481D01*
X155198155Y-180556491D01*
X155315000Y-179969072D01*
X155315000Y-179908928D01*
X155311269Y-179890167D01*
X179404838Y-179890167D01*
X179546883Y-180233943D01*
X179809673Y-180497192D01*
X180153201Y-180639838D01*
X180525167Y-180640162D01*
X180868943Y-180498117D01*
X181132192Y-180235327D01*
X181274838Y-179891799D01*
X181275162Y-179519833D01*
X181133117Y-179176057D01*
X180870327Y-178912808D01*
X180526799Y-178770162D01*
X180154833Y-178769838D01*
X179811057Y-178911883D01*
X179547808Y-179174673D01*
X179405162Y-179518201D01*
X179404838Y-179890167D01*
X155311269Y-179890167D01*
X155198155Y-179321509D01*
X154865409Y-178823519D01*
X154367419Y-178490773D01*
X153780000Y-178373928D01*
X153192581Y-178490773D01*
X152925845Y-178669000D01*
X141095051Y-178669000D01*
X140634980Y-178208928D01*
X155945000Y-178208928D01*
X155945000Y-178269072D01*
X156061845Y-178856491D01*
X156394591Y-179354481D01*
X156892581Y-179687227D01*
X157480000Y-179804072D01*
X158067419Y-179687227D01*
X158565409Y-179354481D01*
X158898155Y-178856491D01*
X159015000Y-178269072D01*
X159015000Y-178208928D01*
X158970492Y-177985167D01*
X179404838Y-177985167D01*
X179546883Y-178328943D01*
X179809673Y-178592192D01*
X180153201Y-178734838D01*
X180525167Y-178735162D01*
X180868943Y-178593117D01*
X181132192Y-178330327D01*
X181274838Y-177986799D01*
X181275162Y-177614833D01*
X181133117Y-177271057D01*
X180870327Y-177007808D01*
X180526799Y-176865162D01*
X180154833Y-176864838D01*
X179811057Y-177006883D01*
X179547808Y-177269673D01*
X179405162Y-177613201D01*
X179404838Y-177985167D01*
X158970492Y-177985167D01*
X158898155Y-177621509D01*
X158565409Y-177123519D01*
X158067419Y-176790773D01*
X157480000Y-176673928D01*
X156892581Y-176790773D01*
X156394591Y-177123519D01*
X156061845Y-177621509D01*
X155945000Y-178208928D01*
X140634980Y-178208928D01*
X139963523Y-177537471D01*
X139785337Y-177358974D01*
X139318727Y-177165221D01*
X139065003Y-177165000D01*
X139065000Y-177164999D01*
X139064997Y-177165000D01*
X138813490Y-177164780D01*
X138346542Y-177357718D01*
X137988974Y-177714663D01*
X137795221Y-178181273D01*
X137795000Y-178434997D01*
X137794999Y-178435000D01*
X137795000Y-178435003D01*
X137794780Y-178686510D01*
X87174900Y-178686510D01*
X87046417Y-178568760D01*
X86614740Y-178389964D01*
X86377000Y-178510622D01*
X86123000Y-178510622D01*
X85885260Y-178389964D01*
X85453583Y-178568760D01*
X85012034Y-178973424D01*
X84758954Y-179516258D01*
X83921141Y-179516258D01*
X84046431Y-179332890D01*
X84097440Y-179081000D01*
X84097440Y-178938337D01*
X84365605Y-178884996D01*
X84612815Y-178719815D01*
X88168815Y-175163816D01*
X88333996Y-174916605D01*
X88392000Y-174625000D01*
X88392000Y-172251463D01*
X88713201Y-172384838D01*
X89085167Y-172385162D01*
X89428943Y-172243117D01*
X89692192Y-171980327D01*
X89767226Y-171799625D01*
X90550472Y-171799625D01*
X91013525Y-172920298D01*
X91870192Y-173778462D01*
X92990055Y-174243470D01*
X94202625Y-174244528D01*
X95323298Y-173781475D01*
X96181462Y-172924808D01*
X96646470Y-171804945D01*
X96646474Y-171799625D01*
X143382472Y-171799625D01*
X143845525Y-172920298D01*
X144702192Y-173778462D01*
X145822055Y-174243470D01*
X147034625Y-174244528D01*
X147163669Y-174191208D01*
X181228824Y-174191208D01*
X181383175Y-174564766D01*
X181668731Y-174850821D01*
X182042018Y-175005824D01*
X182446208Y-175006176D01*
X182819766Y-174851825D01*
X183105821Y-174566269D01*
X183260824Y-174192982D01*
X183261176Y-173788792D01*
X183106825Y-173415234D01*
X182821269Y-173129179D01*
X182447982Y-172974176D01*
X182043792Y-172973824D01*
X181670234Y-173128175D01*
X181384179Y-173413731D01*
X181229176Y-173787018D01*
X181228824Y-174191208D01*
X147163669Y-174191208D01*
X148155298Y-173781475D01*
X149013462Y-172924808D01*
X149478470Y-171804945D01*
X149479528Y-170592375D01*
X149016475Y-169471702D01*
X148159808Y-168613538D01*
X147039945Y-168148530D01*
X145827375Y-168147472D01*
X144706702Y-168610525D01*
X143848538Y-169467192D01*
X143383530Y-170587055D01*
X143382472Y-171799625D01*
X96646474Y-171799625D01*
X96647528Y-170592375D01*
X96184475Y-169471702D01*
X95327808Y-168613538D01*
X94207945Y-168148530D01*
X92995375Y-168147472D01*
X91874702Y-168610525D01*
X91016538Y-169467192D01*
X90551530Y-170587055D01*
X90550472Y-171799625D01*
X89767226Y-171799625D01*
X89834838Y-171636799D01*
X89835162Y-171264833D01*
X89693117Y-170921057D01*
X89662000Y-170889886D01*
X89662000Y-159700630D01*
X91313000Y-158049630D01*
X91313000Y-159853537D01*
X90991799Y-159720162D01*
X90619833Y-159719838D01*
X90276057Y-159861883D01*
X90012808Y-160124673D01*
X89870162Y-160468201D01*
X89869838Y-160840167D01*
X90011883Y-161183943D01*
X90117710Y-161289954D01*
X90012808Y-161394673D01*
X89870162Y-161738201D01*
X89869838Y-162110167D01*
X90011883Y-162453943D01*
X90117710Y-162559954D01*
X90012808Y-162664673D01*
X89870162Y-163008201D01*
X89869838Y-163380167D01*
X90011883Y-163723943D01*
X90274673Y-163987192D01*
X90618201Y-164129838D01*
X90990167Y-164130162D01*
X91313000Y-163996770D01*
X91313000Y-167005000D01*
X91323006Y-167054410D01*
X91351447Y-167096035D01*
X91393841Y-167123315D01*
X91440000Y-167132000D01*
X187644370Y-167132000D01*
X192900300Y-172387931D01*
X192900300Y-177226834D01*
X192870108Y-177256973D01*
X192727462Y-177600501D01*
X192727138Y-177972467D01*
X192869183Y-178316243D01*
X192987698Y-178434965D01*
X192882808Y-178539673D01*
X192740162Y-178883201D01*
X192739838Y-179255167D01*
X192881883Y-179598943D01*
X193144673Y-179862192D01*
X193488201Y-180004838D01*
X193860167Y-180005162D01*
X194203943Y-179863117D01*
X194235114Y-179832000D01*
X197559534Y-179832000D01*
X197589673Y-179862192D01*
X197933201Y-180004838D01*
X198305167Y-180005162D01*
X198648943Y-179863117D01*
X198912192Y-179600327D01*
X199054838Y-179256799D01*
X199055162Y-178884833D01*
X198913117Y-178541057D01*
X198650327Y-178277808D01*
X198306799Y-178135162D01*
X197934833Y-178134838D01*
X197591057Y-178276883D01*
X197559886Y-178308000D01*
X194458489Y-178308000D01*
X194597138Y-177974099D01*
X194597462Y-177602133D01*
X194455417Y-177258357D01*
X194424300Y-177227186D01*
X194424300Y-172072300D01*
X194366296Y-171780695D01*
X194300134Y-171681677D01*
X194201116Y-171533485D01*
X189799630Y-167132000D01*
X207518000Y-167132000D01*
X207518000Y-231013000D01*
X9652000Y-231013000D01*
X9652000Y-225647625D01*
X90550472Y-225647625D01*
X91013525Y-226768298D01*
X91870192Y-227626462D01*
X92990055Y-228091470D01*
X94202625Y-228092528D01*
X95323298Y-227629475D01*
X96181462Y-226772808D01*
X96646470Y-225652945D01*
X96646474Y-225647625D01*
X143382472Y-225647625D01*
X143845525Y-226768298D01*
X144702192Y-227626462D01*
X145822055Y-228091470D01*
X147034625Y-228092528D01*
X148155298Y-227629475D01*
X149013462Y-226772808D01*
X149478470Y-225652945D01*
X149479528Y-224440375D01*
X149016475Y-223319702D01*
X148159808Y-222461538D01*
X147039945Y-221996530D01*
X145827375Y-221995472D01*
X144706702Y-222458525D01*
X143848538Y-223315192D01*
X143383530Y-224435055D01*
X143382472Y-225647625D01*
X96646474Y-225647625D01*
X96647528Y-224440375D01*
X96184475Y-223319702D01*
X95327808Y-222461538D01*
X94207945Y-221996530D01*
X92995375Y-221995472D01*
X91874702Y-222458525D01*
X91016538Y-223315192D01*
X90551530Y-224435055D01*
X90550472Y-225647625D01*
X9652000Y-225647625D01*
X9652000Y-221181208D01*
X65658824Y-221181208D01*
X65813175Y-221554766D01*
X66098731Y-221840821D01*
X66472018Y-221995824D01*
X66876208Y-221996176D01*
X67249766Y-221841825D01*
X67535821Y-221556269D01*
X67690824Y-221182982D01*
X67691176Y-220778792D01*
X67536825Y-220405234D01*
X67251269Y-220119179D01*
X66877982Y-219964176D01*
X66473792Y-219963824D01*
X66100234Y-220118175D01*
X65814179Y-220403731D01*
X65659176Y-220777018D01*
X65658824Y-221181208D01*
X9652000Y-221181208D01*
X9652000Y-218625167D01*
X60024838Y-218625167D01*
X60166883Y-218968943D01*
X60429673Y-219232192D01*
X60773201Y-219374838D01*
X61145167Y-219375162D01*
X61488943Y-219233117D01*
X61752192Y-218970327D01*
X61894838Y-218626799D01*
X61895162Y-218254833D01*
X61777856Y-217970928D01*
X81015000Y-217970928D01*
X81015000Y-218031072D01*
X81131845Y-218618491D01*
X81464591Y-219116481D01*
X81962581Y-219449227D01*
X82550000Y-219566072D01*
X83137419Y-219449227D01*
X83635409Y-219116481D01*
X83968155Y-218618491D01*
X84079940Y-218056510D01*
X93344780Y-218056510D01*
X93537718Y-218523458D01*
X93894663Y-218881026D01*
X94361273Y-219074779D01*
X94866510Y-219075220D01*
X95333458Y-218882282D01*
X95691026Y-218525337D01*
X95884779Y-218058727D01*
X95885220Y-217553490D01*
X95692282Y-217086542D01*
X95335337Y-216728974D01*
X94868727Y-216535221D01*
X94363490Y-216534780D01*
X93896542Y-216727718D01*
X93538974Y-217084663D01*
X93345221Y-217551273D01*
X93344780Y-218056510D01*
X84079940Y-218056510D01*
X84085000Y-218031072D01*
X84085000Y-217970928D01*
X83968155Y-217383509D01*
X83635409Y-216885519D01*
X83137419Y-216552773D01*
X82550000Y-216435928D01*
X81962581Y-216552773D01*
X81464591Y-216885519D01*
X81131845Y-217383509D01*
X81015000Y-217970928D01*
X61777856Y-217970928D01*
X61753117Y-217911057D01*
X61490327Y-217647808D01*
X61146799Y-217505162D01*
X60774833Y-217504838D01*
X60431057Y-217646883D01*
X60167808Y-217909673D01*
X60025162Y-218253201D01*
X60024838Y-218625167D01*
X9652000Y-218625167D01*
X9652000Y-213360000D01*
X13843000Y-213360000D01*
X13843000Y-218440000D01*
X13851685Y-218486159D01*
X13878965Y-218528553D01*
X13920590Y-218556994D01*
X13970000Y-218567000D01*
X32385000Y-218567000D01*
X32431159Y-218558315D01*
X32473553Y-218531035D01*
X32501994Y-218489410D01*
X32512000Y-218440000D01*
X32512000Y-213360000D01*
X32503315Y-213313841D01*
X32476035Y-213271447D01*
X32434410Y-213243006D01*
X32385000Y-213233000D01*
X13970000Y-213233000D01*
X13923841Y-213241685D01*
X13881447Y-213268965D01*
X13853006Y-213310590D01*
X13843000Y-213360000D01*
X9652000Y-213360000D01*
X9652000Y-196850000D01*
X23885907Y-196850000D01*
X23998946Y-197418285D01*
X24320853Y-197900054D01*
X24650026Y-198120000D01*
X24320853Y-198339946D01*
X23998946Y-198821715D01*
X23885907Y-199390000D01*
X23998946Y-199958285D01*
X24320853Y-200440054D01*
X24362452Y-200467850D01*
X24314683Y-200476838D01*
X24098559Y-200615910D01*
X23953569Y-200828110D01*
X23902560Y-201080000D01*
X23902560Y-202780000D01*
X23946838Y-203015317D01*
X24085910Y-203231441D01*
X24298110Y-203376431D01*
X24550000Y-203427440D01*
X26250000Y-203427440D01*
X26485317Y-203383162D01*
X26701441Y-203244090D01*
X26846431Y-203031890D01*
X26897440Y-202780000D01*
X26897440Y-201080000D01*
X26853162Y-200844683D01*
X26714090Y-200628559D01*
X26501890Y-200483569D01*
X26434459Y-200469914D01*
X26479147Y-200440054D01*
X26801054Y-199958285D01*
X26914093Y-199390000D01*
X26801054Y-198821715D01*
X26479147Y-198339946D01*
X26149974Y-198120000D01*
X26479147Y-197900054D01*
X26801054Y-197418285D01*
X26914093Y-196850000D01*
X26801054Y-196281715D01*
X26479147Y-195799946D01*
X25997378Y-195478039D01*
X25429093Y-195365000D01*
X25370907Y-195365000D01*
X24802622Y-195478039D01*
X24320853Y-195799946D01*
X23998946Y-196281715D01*
X23885907Y-196850000D01*
X9652000Y-196850000D01*
X9652000Y-190500000D01*
X41783000Y-190500000D01*
X41783000Y-212725000D01*
X41841004Y-213016605D01*
X42006185Y-213263815D01*
X46054875Y-217312506D01*
X46054838Y-217355167D01*
X46196883Y-217698943D01*
X46459673Y-217962192D01*
X46803201Y-218104838D01*
X47175167Y-218105162D01*
X47518943Y-217963117D01*
X47782192Y-217700327D01*
X47924838Y-217356799D01*
X47925162Y-216984833D01*
X47815805Y-216720167D01*
X60024838Y-216720167D01*
X60166883Y-217063943D01*
X60429673Y-217327192D01*
X60773201Y-217469838D01*
X61145167Y-217470162D01*
X61488943Y-217328117D01*
X61752192Y-217065327D01*
X61894838Y-216721799D01*
X61895162Y-216349833D01*
X61862560Y-216270928D01*
X84715000Y-216270928D01*
X84715000Y-216331072D01*
X84831845Y-216918491D01*
X85164591Y-217416481D01*
X85662581Y-217749227D01*
X86250000Y-217866072D01*
X86837419Y-217749227D01*
X87335409Y-217416481D01*
X87668155Y-216918491D01*
X87785000Y-216331072D01*
X87785000Y-216328928D01*
X152245000Y-216328928D01*
X152245000Y-216389072D01*
X152361845Y-216976491D01*
X152694591Y-217474481D01*
X153192581Y-217807227D01*
X153780000Y-217924072D01*
X154367419Y-217807227D01*
X154865409Y-217474481D01*
X155076206Y-217159000D01*
X155932560Y-217159000D01*
X155932560Y-218959000D01*
X155976838Y-219194317D01*
X156115910Y-219410441D01*
X156328110Y-219555431D01*
X156580000Y-219606440D01*
X158380000Y-219606440D01*
X158615317Y-219562162D01*
X158831441Y-219423090D01*
X158976431Y-219210890D01*
X159027440Y-218959000D01*
X159027440Y-217159000D01*
X158983162Y-216923683D01*
X158852204Y-216720167D01*
X166069838Y-216720167D01*
X166211883Y-217063943D01*
X166474673Y-217327192D01*
X166818201Y-217469838D01*
X167190167Y-217470162D01*
X167533943Y-217328117D01*
X167797192Y-217065327D01*
X167939838Y-216721799D01*
X167940162Y-216349833D01*
X167798117Y-216006057D01*
X167535327Y-215742808D01*
X167191799Y-215600162D01*
X166819833Y-215599838D01*
X166476057Y-215741883D01*
X166212808Y-216004673D01*
X166070162Y-216348201D01*
X166069838Y-216720167D01*
X158852204Y-216720167D01*
X158844090Y-216707559D01*
X158631890Y-216562569D01*
X158380000Y-216511560D01*
X156580000Y-216511560D01*
X156344683Y-216555838D01*
X156128559Y-216694910D01*
X155983569Y-216907110D01*
X155932560Y-217159000D01*
X155076206Y-217159000D01*
X155198155Y-216976491D01*
X155315000Y-216389072D01*
X155315000Y-216328928D01*
X155198155Y-215741509D01*
X154865409Y-215243519D01*
X154536490Y-215023742D01*
X155988954Y-215023742D01*
X156242034Y-215566576D01*
X156683583Y-215971240D01*
X157115260Y-216150036D01*
X157353000Y-216029378D01*
X157353000Y-214786000D01*
X157607000Y-214786000D01*
X157607000Y-216029378D01*
X157844740Y-216150036D01*
X158276417Y-215971240D01*
X158717966Y-215566576D01*
X158772238Y-215450167D01*
X185754838Y-215450167D01*
X185896883Y-215793943D01*
X186159673Y-216057192D01*
X186503201Y-216199838D01*
X186875167Y-216200162D01*
X187218943Y-216058117D01*
X187482192Y-215795327D01*
X187624838Y-215451799D01*
X187625162Y-215079833D01*
X187483117Y-214736057D01*
X187220327Y-214472808D01*
X186876799Y-214330162D01*
X186504833Y-214329838D01*
X186161057Y-214471883D01*
X185897808Y-214734673D01*
X185755162Y-215078201D01*
X185754838Y-215450167D01*
X158772238Y-215450167D01*
X158971046Y-215023742D01*
X158850997Y-214786000D01*
X157607000Y-214786000D01*
X157353000Y-214786000D01*
X156109003Y-214786000D01*
X155988954Y-215023742D01*
X154536490Y-215023742D01*
X154367419Y-214910773D01*
X153780000Y-214793928D01*
X153192581Y-214910773D01*
X152694591Y-215243519D01*
X152361845Y-215741509D01*
X152245000Y-216328928D01*
X87785000Y-216328928D01*
X87785000Y-216270928D01*
X87668155Y-215683509D01*
X87335409Y-215185519D01*
X86837419Y-214852773D01*
X86250000Y-214735928D01*
X85662581Y-214852773D01*
X85164591Y-215185519D01*
X84831845Y-215683509D01*
X84715000Y-216270928D01*
X61862560Y-216270928D01*
X61753117Y-216006057D01*
X61490327Y-215742808D01*
X61146799Y-215600162D01*
X60774833Y-215599838D01*
X60431057Y-215741883D01*
X60167808Y-216004673D01*
X60025162Y-216348201D01*
X60024838Y-216720167D01*
X47815805Y-216720167D01*
X47783117Y-216641057D01*
X47520327Y-216377808D01*
X47176799Y-216235162D01*
X47132755Y-216235124D01*
X45468559Y-214570928D01*
X81015000Y-214570928D01*
X81015000Y-214631072D01*
X81131845Y-215218491D01*
X81464591Y-215716481D01*
X81962581Y-216049227D01*
X82550000Y-216166072D01*
X83137419Y-216049227D01*
X83635409Y-215716481D01*
X83968155Y-215218491D01*
X84085000Y-214631072D01*
X84085000Y-214570928D01*
X83968155Y-213983509D01*
X83635409Y-213485519D01*
X83306490Y-213265742D01*
X84758954Y-213265742D01*
X85012034Y-213808576D01*
X85453583Y-214213240D01*
X85885260Y-214392036D01*
X86123000Y-214271378D01*
X86123000Y-213028000D01*
X86377000Y-213028000D01*
X86377000Y-214271378D01*
X86614740Y-214392036D01*
X87046417Y-214213240D01*
X87487966Y-213808576D01*
X87741046Y-213265742D01*
X87620997Y-213028000D01*
X86377000Y-213028000D01*
X86123000Y-213028000D01*
X84879003Y-213028000D01*
X84758954Y-213265742D01*
X83306490Y-213265742D01*
X83137419Y-213152773D01*
X82550000Y-213035928D01*
X81962581Y-213152773D01*
X81464591Y-213485519D01*
X81131845Y-213983509D01*
X81015000Y-214570928D01*
X45468559Y-214570928D01*
X43307000Y-212409370D01*
X43307000Y-211021208D01*
X52323824Y-211021208D01*
X52478175Y-211394766D01*
X52763731Y-211680821D01*
X53137018Y-211835824D01*
X53541208Y-211836176D01*
X53914766Y-211681825D01*
X54200821Y-211396269D01*
X54355824Y-211022982D01*
X54356176Y-210618792D01*
X54224868Y-210301000D01*
X81002560Y-210301000D01*
X81002560Y-212101000D01*
X81046838Y-212336317D01*
X81185910Y-212552441D01*
X81398110Y-212697431D01*
X81650000Y-212748440D01*
X83450000Y-212748440D01*
X83685317Y-212704162D01*
X83901441Y-212565090D01*
X83921141Y-212536258D01*
X84758954Y-212536258D01*
X84879003Y-212774000D01*
X86123000Y-212774000D01*
X86123000Y-211530622D01*
X86377000Y-211530622D01*
X86377000Y-212774000D01*
X87620997Y-212774000D01*
X87741046Y-212536258D01*
X87487966Y-211993424D01*
X87046417Y-211588760D01*
X86614740Y-211409964D01*
X86377000Y-211530622D01*
X86123000Y-211530622D01*
X85885260Y-211409964D01*
X85453583Y-211588760D01*
X85012034Y-211993424D01*
X84758954Y-212536258D01*
X83921141Y-212536258D01*
X84046431Y-212352890D01*
X84097440Y-212101000D01*
X84097440Y-211585162D01*
X84417261Y-211071510D01*
X140334780Y-211071510D01*
X140527718Y-211538458D01*
X140884663Y-211896026D01*
X140885195Y-211896247D01*
X142845972Y-213857023D01*
X142845974Y-213857026D01*
X143035270Y-213983509D01*
X143257992Y-214132327D01*
X143744000Y-214229001D01*
X143744005Y-214229000D01*
X152925845Y-214229000D01*
X153192581Y-214407227D01*
X153780000Y-214524072D01*
X154367419Y-214407227D01*
X154536489Y-214294258D01*
X155988954Y-214294258D01*
X156109003Y-214532000D01*
X157353000Y-214532000D01*
X157353000Y-213288622D01*
X157607000Y-213288622D01*
X157607000Y-214532000D01*
X158850997Y-214532000D01*
X158971046Y-214294258D01*
X158717966Y-213751424D01*
X158276417Y-213346760D01*
X157844740Y-213167964D01*
X157607000Y-213288622D01*
X157353000Y-213288622D01*
X157115260Y-213167964D01*
X156683583Y-213346760D01*
X156242034Y-213751424D01*
X155988954Y-214294258D01*
X154536489Y-214294258D01*
X154865409Y-214074481D01*
X155198155Y-213576491D01*
X155315000Y-212989072D01*
X155315000Y-212928928D01*
X155311269Y-212910167D01*
X178769838Y-212910167D01*
X178911883Y-213253943D01*
X179174673Y-213517192D01*
X179518201Y-213659838D01*
X179890167Y-213660162D01*
X180233943Y-213518117D01*
X180497192Y-213255327D01*
X180639838Y-212911799D01*
X180640162Y-212539833D01*
X180498117Y-212196057D01*
X180235327Y-211932808D01*
X179891799Y-211790162D01*
X179519833Y-211789838D01*
X179176057Y-211931883D01*
X178912808Y-212194673D01*
X178770162Y-212538201D01*
X178769838Y-212910167D01*
X155311269Y-212910167D01*
X155198155Y-212341509D01*
X154865409Y-211843519D01*
X154367419Y-211510773D01*
X153780000Y-211393928D01*
X153192581Y-211510773D01*
X152925845Y-211689000D01*
X144270051Y-211689000D01*
X143809980Y-211228928D01*
X155945000Y-211228928D01*
X155945000Y-211289072D01*
X156061845Y-211876491D01*
X156394591Y-212374481D01*
X156892581Y-212707227D01*
X157480000Y-212824072D01*
X158067419Y-212707227D01*
X158565409Y-212374481D01*
X158898155Y-211876491D01*
X159015000Y-211289072D01*
X159015000Y-211228928D01*
X158970492Y-211005167D01*
X178769838Y-211005167D01*
X178911883Y-211348943D01*
X179174673Y-211612192D01*
X179518201Y-211754838D01*
X179890167Y-211755162D01*
X180233943Y-211613117D01*
X180497192Y-211350327D01*
X180639838Y-211006799D01*
X180640162Y-210634833D01*
X180498117Y-210291057D01*
X180235327Y-210027808D01*
X179891799Y-209885162D01*
X179519833Y-209884838D01*
X179176057Y-210026883D01*
X178912808Y-210289673D01*
X178770162Y-210633201D01*
X178769838Y-211005167D01*
X158970492Y-211005167D01*
X158898155Y-210641509D01*
X158565409Y-210143519D01*
X158067419Y-209810773D01*
X157480000Y-209693928D01*
X156892581Y-209810773D01*
X156394591Y-210143519D01*
X156061845Y-210641509D01*
X155945000Y-211228928D01*
X143809980Y-211228928D01*
X142503523Y-209922471D01*
X142325337Y-209743974D01*
X141858727Y-209550221D01*
X141605003Y-209550000D01*
X141605000Y-209549999D01*
X141604997Y-209550000D01*
X141353490Y-209549780D01*
X140886542Y-209742718D01*
X140528974Y-210099663D01*
X140335221Y-210566273D01*
X140335000Y-210819997D01*
X140334999Y-210820000D01*
X140335000Y-210820003D01*
X140334780Y-211071510D01*
X84417261Y-211071510D01*
X86425467Y-207846208D01*
X180593824Y-207846208D01*
X180748175Y-208219766D01*
X181033731Y-208505821D01*
X181407018Y-208660824D01*
X181811208Y-208661176D01*
X182184766Y-208506825D01*
X182470821Y-208221269D01*
X182625824Y-207847982D01*
X182626176Y-207443792D01*
X182471825Y-207070234D01*
X182186269Y-206784179D01*
X181812982Y-206629176D01*
X181408792Y-206628824D01*
X181035234Y-206783175D01*
X180749179Y-207068731D01*
X180594176Y-207442018D01*
X180593824Y-207846208D01*
X86425467Y-207846208D01*
X87990463Y-205332731D01*
X88158943Y-205263117D01*
X88422192Y-205000327D01*
X88497226Y-204819625D01*
X90550472Y-204819625D01*
X91013525Y-205940298D01*
X91870192Y-206798462D01*
X92990055Y-207263470D01*
X94202625Y-207264528D01*
X95323298Y-206801475D01*
X96181462Y-205944808D01*
X96646470Y-204824945D01*
X96646560Y-204721510D01*
X121919780Y-204721510D01*
X122112718Y-205188458D01*
X122469663Y-205546026D01*
X122936273Y-205739779D01*
X123441510Y-205740220D01*
X123908458Y-205547282D01*
X124266026Y-205190337D01*
X124459779Y-204723727D01*
X124459780Y-204721510D01*
X126364780Y-204721510D01*
X126557718Y-205188458D01*
X126914663Y-205546026D01*
X127381273Y-205739779D01*
X127886510Y-205740220D01*
X128353458Y-205547282D01*
X128711026Y-205190337D01*
X128864958Y-204819625D01*
X143382472Y-204819625D01*
X143845525Y-205940298D01*
X144702192Y-206798462D01*
X145822055Y-207263470D01*
X147034625Y-207264528D01*
X148155298Y-206801475D01*
X149013462Y-205944808D01*
X149478470Y-204824945D01*
X149479528Y-203612375D01*
X149016475Y-202491702D01*
X148159808Y-201633538D01*
X147039945Y-201168530D01*
X145827375Y-201167472D01*
X144706702Y-201630525D01*
X143848538Y-202487192D01*
X143383530Y-203607055D01*
X143382472Y-204819625D01*
X128864958Y-204819625D01*
X128904779Y-204723727D01*
X128905220Y-204218490D01*
X128712282Y-203751542D01*
X128355337Y-203393974D01*
X127888727Y-203200221D01*
X127383490Y-203199780D01*
X126916542Y-203392718D01*
X126558974Y-203749663D01*
X126365221Y-204216273D01*
X126364780Y-204721510D01*
X124459780Y-204721510D01*
X124460220Y-204218490D01*
X124267282Y-203751542D01*
X123910337Y-203393974D01*
X123443727Y-203200221D01*
X122938490Y-203199780D01*
X122471542Y-203392718D01*
X122113974Y-203749663D01*
X121920221Y-204216273D01*
X121919780Y-204721510D01*
X96646560Y-204721510D01*
X96647528Y-203612375D01*
X96184475Y-202491702D01*
X95327808Y-201633538D01*
X94207945Y-201168530D01*
X92995375Y-201167472D01*
X91874702Y-201630525D01*
X91016538Y-202487192D01*
X90551530Y-203607055D01*
X90550472Y-204819625D01*
X88497226Y-204819625D01*
X88564838Y-204656799D01*
X88565162Y-204284833D01*
X88423117Y-203941057D01*
X88160327Y-203677808D01*
X87816799Y-203535162D01*
X87444833Y-203534838D01*
X87101057Y-203676883D01*
X86837808Y-203939673D01*
X86695162Y-204283201D01*
X86694947Y-204530095D01*
X83498722Y-209663426D01*
X83450000Y-209653560D01*
X81650000Y-209653560D01*
X81414683Y-209697838D01*
X81198559Y-209836910D01*
X81053569Y-210049110D01*
X81002560Y-210301000D01*
X54224868Y-210301000D01*
X54201825Y-210245234D01*
X53916269Y-209959179D01*
X53542982Y-209804176D01*
X53138792Y-209803824D01*
X52765234Y-209958175D01*
X52479179Y-210243731D01*
X52324176Y-210617018D01*
X52323824Y-211021208D01*
X43307000Y-211021208D01*
X43307000Y-207846208D01*
X72643824Y-207846208D01*
X72798175Y-208219766D01*
X73083731Y-208505821D01*
X73457018Y-208660824D01*
X73861208Y-208661176D01*
X74234766Y-208506825D01*
X74520821Y-208221269D01*
X74675824Y-207847982D01*
X74676176Y-207443792D01*
X74521825Y-207070234D01*
X74236269Y-206784179D01*
X73862982Y-206629176D01*
X73458792Y-206628824D01*
X73085234Y-206783175D01*
X72799179Y-207068731D01*
X72644176Y-207442018D01*
X72643824Y-207846208D01*
X43307000Y-207846208D01*
X43307000Y-192627625D01*
X90550472Y-192627625D01*
X91013525Y-193748298D01*
X91870192Y-194606462D01*
X92990055Y-195071470D01*
X94202625Y-195072528D01*
X95168580Y-194673403D01*
X111829682Y-194673403D01*
X112108455Y-195348086D01*
X112624199Y-195864730D01*
X113298395Y-196144681D01*
X114028403Y-196145318D01*
X114703086Y-195866545D01*
X115219730Y-195350801D01*
X115499681Y-194676605D01*
X115500000Y-194310000D01*
X124494050Y-194310000D01*
X124633731Y-195012224D01*
X125031509Y-195607541D01*
X125626826Y-196005319D01*
X126329050Y-196145000D01*
X126400950Y-196145000D01*
X127103174Y-196005319D01*
X127698491Y-195607541D01*
X128096269Y-195012224D01*
X128235950Y-194310000D01*
X128096269Y-193607776D01*
X127698491Y-193012459D01*
X127122547Y-192627625D01*
X143382472Y-192627625D01*
X143845525Y-193748298D01*
X144702192Y-194606462D01*
X145822055Y-195071470D01*
X147034625Y-195072528D01*
X148155298Y-194609475D01*
X149013462Y-193752808D01*
X149478470Y-192632945D01*
X149479528Y-191420375D01*
X149016475Y-190299702D01*
X148159808Y-189441538D01*
X147039945Y-188976530D01*
X145827375Y-188975472D01*
X144706702Y-189438525D01*
X143848538Y-190295192D01*
X143383530Y-191415055D01*
X143382472Y-192627625D01*
X127122547Y-192627625D01*
X127103174Y-192614681D01*
X126400950Y-192475000D01*
X126329050Y-192475000D01*
X125626826Y-192614681D01*
X125031509Y-193012459D01*
X124633731Y-193607776D01*
X124494050Y-194310000D01*
X115500000Y-194310000D01*
X115500318Y-193946597D01*
X115221545Y-193271914D01*
X114705801Y-192755270D01*
X114031605Y-192475319D01*
X113301597Y-192474682D01*
X112626914Y-192753455D01*
X112110270Y-193269199D01*
X111830319Y-193943395D01*
X111829682Y-194673403D01*
X95168580Y-194673403D01*
X95323298Y-194609475D01*
X96181462Y-193752808D01*
X96646470Y-192632945D01*
X96647528Y-191420375D01*
X96184475Y-190299702D01*
X95327808Y-189441538D01*
X94207945Y-188976530D01*
X92995375Y-188975472D01*
X91874702Y-189438525D01*
X91016538Y-190295192D01*
X90551530Y-191415055D01*
X90550472Y-192627625D01*
X43307000Y-192627625D01*
X43307000Y-190815630D01*
X45342463Y-188780167D01*
X65739838Y-188780167D01*
X65881883Y-189123943D01*
X66144673Y-189387192D01*
X66488201Y-189529838D01*
X66860167Y-189530162D01*
X67203943Y-189388117D01*
X67467192Y-189125327D01*
X67609838Y-188781799D01*
X67610162Y-188409833D01*
X67468117Y-188066057D01*
X67205327Y-187802808D01*
X66861799Y-187660162D01*
X66489833Y-187659838D01*
X66146057Y-187801883D01*
X65882808Y-188064673D01*
X65740162Y-188408201D01*
X65739838Y-188780167D01*
X45342463Y-188780167D01*
X46497506Y-187625125D01*
X46540167Y-187625162D01*
X46883943Y-187483117D01*
X47147192Y-187220327D01*
X47289838Y-186876799D01*
X47290162Y-186504833D01*
X47148117Y-186161057D01*
X46885327Y-185897808D01*
X46541799Y-185755162D01*
X46169833Y-185754838D01*
X45826057Y-185896883D01*
X45562808Y-186159673D01*
X45420162Y-186503201D01*
X45420124Y-186547245D01*
X42006185Y-189961185D01*
X41841004Y-190208395D01*
X41783000Y-190500000D01*
X9652000Y-190500000D01*
X9652000Y-185605167D01*
X59389838Y-185605167D01*
X59531883Y-185948943D01*
X59794673Y-186212192D01*
X60138201Y-186354838D01*
X60510167Y-186355162D01*
X60853943Y-186213117D01*
X61117192Y-185950327D01*
X61259838Y-185606799D01*
X61260162Y-185234833D01*
X61142856Y-184950928D01*
X81015000Y-184950928D01*
X81015000Y-185011072D01*
X81131845Y-185598491D01*
X81464591Y-186096481D01*
X81962581Y-186429227D01*
X82550000Y-186546072D01*
X83137419Y-186429227D01*
X83635409Y-186096481D01*
X83919365Y-185671510D01*
X93344780Y-185671510D01*
X93537718Y-186138458D01*
X93894663Y-186496026D01*
X94361273Y-186689779D01*
X94866510Y-186690220D01*
X95333458Y-186497282D01*
X95691026Y-186140337D01*
X95884779Y-185673727D01*
X95885220Y-185168490D01*
X95692282Y-184701542D01*
X95335337Y-184343974D01*
X94868727Y-184150221D01*
X94363490Y-184149780D01*
X93896542Y-184342718D01*
X93538974Y-184699663D01*
X93345221Y-185166273D01*
X93344780Y-185671510D01*
X83919365Y-185671510D01*
X83968155Y-185598491D01*
X84085000Y-185011072D01*
X84085000Y-184950928D01*
X83968155Y-184363509D01*
X83635409Y-183865519D01*
X83137419Y-183532773D01*
X82550000Y-183415928D01*
X81962581Y-183532773D01*
X81464591Y-183865519D01*
X81131845Y-184363509D01*
X81015000Y-184950928D01*
X61142856Y-184950928D01*
X61118117Y-184891057D01*
X60855327Y-184627808D01*
X60511799Y-184485162D01*
X60139833Y-184484838D01*
X59796057Y-184626883D01*
X59532808Y-184889673D01*
X59390162Y-185233201D01*
X59389838Y-185605167D01*
X9652000Y-185605167D01*
X9652000Y-182183695D01*
X30122628Y-182183695D01*
X30562721Y-183248801D01*
X31376912Y-184064415D01*
X32441249Y-184506366D01*
X33593695Y-184507372D01*
X34658801Y-184067279D01*
X35026554Y-183700167D01*
X59389838Y-183700167D01*
X59531883Y-184043943D01*
X59794673Y-184307192D01*
X60138201Y-184449838D01*
X60510167Y-184450162D01*
X60853943Y-184308117D01*
X61117192Y-184045327D01*
X61259838Y-183701799D01*
X61260162Y-183329833D01*
X61227560Y-183250928D01*
X84715000Y-183250928D01*
X84715000Y-183311072D01*
X84831845Y-183898491D01*
X85164591Y-184396481D01*
X85662581Y-184729227D01*
X86250000Y-184846072D01*
X86837419Y-184729227D01*
X87335409Y-184396481D01*
X87668155Y-183898491D01*
X87785000Y-183311072D01*
X87785000Y-183250928D01*
X87668155Y-182663509D01*
X87347571Y-182183720D01*
X116482501Y-182183720D01*
X116922613Y-183248873D01*
X117736840Y-184064523D01*
X118801223Y-184506493D01*
X119953720Y-184507499D01*
X121018873Y-184067387D01*
X121778657Y-183308928D01*
X152245000Y-183308928D01*
X152245000Y-183369072D01*
X152361845Y-183956491D01*
X152694591Y-184454481D01*
X153192581Y-184787227D01*
X153780000Y-184904072D01*
X154367419Y-184787227D01*
X154865409Y-184454481D01*
X155076206Y-184139000D01*
X155932560Y-184139000D01*
X155932560Y-185939000D01*
X155976838Y-186174317D01*
X156115910Y-186390441D01*
X156328110Y-186535431D01*
X156580000Y-186586440D01*
X158380000Y-186586440D01*
X158615317Y-186542162D01*
X158831441Y-186403090D01*
X158976431Y-186190890D01*
X159027440Y-185939000D01*
X159027440Y-184139000D01*
X158983162Y-183903683D01*
X158844090Y-183687559D01*
X158631890Y-183542569D01*
X158380000Y-183491560D01*
X156580000Y-183491560D01*
X156344683Y-183535838D01*
X156128559Y-183674910D01*
X155983569Y-183887110D01*
X155932560Y-184139000D01*
X155076206Y-184139000D01*
X155198155Y-183956491D01*
X155315000Y-183369072D01*
X155315000Y-183308928D01*
X155198155Y-182721509D01*
X154865409Y-182223519D01*
X154536490Y-182003742D01*
X155988954Y-182003742D01*
X156242034Y-182546576D01*
X156683583Y-182951240D01*
X157115260Y-183130036D01*
X157353000Y-183009378D01*
X157353000Y-181766000D01*
X157607000Y-181766000D01*
X157607000Y-183009378D01*
X157844740Y-183130036D01*
X157962628Y-183081208D01*
X167893824Y-183081208D01*
X168048175Y-183454766D01*
X168333731Y-183740821D01*
X168707018Y-183895824D01*
X169111208Y-183896176D01*
X169484766Y-183741825D01*
X169770821Y-183456269D01*
X169925824Y-183082982D01*
X169925825Y-183081208D01*
X185673824Y-183081208D01*
X185828175Y-183454766D01*
X186113731Y-183740821D01*
X186487018Y-183895824D01*
X186891208Y-183896176D01*
X187264766Y-183741825D01*
X187550821Y-183456269D01*
X187705824Y-183082982D01*
X187706176Y-182678792D01*
X187551825Y-182305234D01*
X187266269Y-182019179D01*
X186892982Y-181864176D01*
X186488792Y-181863824D01*
X186115234Y-182018175D01*
X185829179Y-182303731D01*
X185674176Y-182677018D01*
X185673824Y-183081208D01*
X169925825Y-183081208D01*
X169926176Y-182678792D01*
X169771825Y-182305234D01*
X169486269Y-182019179D01*
X169112982Y-181864176D01*
X168708792Y-181863824D01*
X168335234Y-182018175D01*
X168049179Y-182303731D01*
X167894176Y-182677018D01*
X167893824Y-183081208D01*
X157962628Y-183081208D01*
X158276417Y-182951240D01*
X158717966Y-182546576D01*
X158971046Y-182003742D01*
X158850997Y-181766000D01*
X157607000Y-181766000D01*
X157353000Y-181766000D01*
X156109003Y-181766000D01*
X155988954Y-182003742D01*
X154536490Y-182003742D01*
X154367419Y-181890773D01*
X153780000Y-181773928D01*
X153192581Y-181890773D01*
X152694591Y-182223519D01*
X152361845Y-182721509D01*
X152245000Y-183308928D01*
X121778657Y-183308928D01*
X121834523Y-183253160D01*
X122276493Y-182188777D01*
X122277499Y-181036280D01*
X121837387Y-179971127D01*
X121023160Y-179155477D01*
X119958777Y-178713507D01*
X118806280Y-178712501D01*
X117741127Y-179152613D01*
X116925477Y-179966840D01*
X116483507Y-181031223D01*
X116482501Y-182183720D01*
X87347571Y-182183720D01*
X87335409Y-182165519D01*
X86837419Y-181832773D01*
X86250000Y-181715928D01*
X85662581Y-181832773D01*
X85164591Y-182165519D01*
X84831845Y-182663509D01*
X84715000Y-183250928D01*
X61227560Y-183250928D01*
X61118117Y-182986057D01*
X60855327Y-182722808D01*
X60511799Y-182580162D01*
X60139833Y-182579838D01*
X59796057Y-182721883D01*
X59532808Y-182984673D01*
X59390162Y-183328201D01*
X59389838Y-183700167D01*
X35026554Y-183700167D01*
X35474415Y-183253088D01*
X35916366Y-182188751D01*
X35916922Y-181550928D01*
X81015000Y-181550928D01*
X81015000Y-181611072D01*
X81131845Y-182198491D01*
X81464591Y-182696481D01*
X81962581Y-183029227D01*
X82550000Y-183146072D01*
X83137419Y-183029227D01*
X83635409Y-182696481D01*
X83968155Y-182198491D01*
X84085000Y-181611072D01*
X84085000Y-181550928D01*
X83968155Y-180963509D01*
X83635409Y-180465519D01*
X83306490Y-180245742D01*
X84758954Y-180245742D01*
X85012034Y-180788576D01*
X85453583Y-181193240D01*
X85885260Y-181372036D01*
X86123000Y-181251378D01*
X86123000Y-180008000D01*
X86377000Y-180008000D01*
X86377000Y-181251378D01*
X86614740Y-181372036D01*
X87046417Y-181193240D01*
X87487966Y-180788576D01*
X87741046Y-180245742D01*
X87620997Y-180008000D01*
X86377000Y-180008000D01*
X86123000Y-180008000D01*
X84879003Y-180008000D01*
X84758954Y-180245742D01*
X83306490Y-180245742D01*
X83137419Y-180132773D01*
X82550000Y-180015928D01*
X81962581Y-180132773D01*
X81464591Y-180465519D01*
X81131845Y-180963509D01*
X81015000Y-181550928D01*
X35916922Y-181550928D01*
X35917372Y-181036305D01*
X35712803Y-180541208D01*
X52323824Y-180541208D01*
X52478175Y-180914766D01*
X52763731Y-181200821D01*
X53137018Y-181355824D01*
X53541208Y-181356176D01*
X53914766Y-181201825D01*
X54200821Y-180916269D01*
X54355824Y-180542982D01*
X54356176Y-180138792D01*
X54201825Y-179765234D01*
X53916269Y-179479179D01*
X53542982Y-179324176D01*
X53138792Y-179323824D01*
X52765234Y-179478175D01*
X52479179Y-179763731D01*
X52324176Y-180137018D01*
X52323824Y-180541208D01*
X35712803Y-180541208D01*
X35477279Y-179971199D01*
X34663088Y-179155585D01*
X33598751Y-178713634D01*
X32446305Y-178712628D01*
X31381199Y-179152721D01*
X30565585Y-179966912D01*
X30123634Y-181031249D01*
X30122628Y-182183695D01*
X9652000Y-182183695D01*
X9652000Y-178636208D01*
X57403824Y-178636208D01*
X57558175Y-179009766D01*
X57843731Y-179295821D01*
X58217018Y-179450824D01*
X58621208Y-179451176D01*
X58994766Y-179296825D01*
X59280821Y-179011269D01*
X59435824Y-178637982D01*
X59436176Y-178233792D01*
X59281825Y-177860234D01*
X58996269Y-177574179D01*
X58622982Y-177419176D01*
X58218792Y-177418824D01*
X57845234Y-177573175D01*
X57559179Y-177858731D01*
X57404176Y-178232018D01*
X57403824Y-178636208D01*
X9652000Y-178636208D01*
X9652000Y-174826208D01*
X52323824Y-174826208D01*
X52478175Y-175199766D01*
X52763731Y-175485821D01*
X53137018Y-175640824D01*
X53541208Y-175641176D01*
X53914766Y-175486825D01*
X54200821Y-175201269D01*
X54355824Y-174827982D01*
X54356176Y-174423792D01*
X54201825Y-174050234D01*
X53916269Y-173764179D01*
X53542982Y-173609176D01*
X53138792Y-173608824D01*
X52765234Y-173763175D01*
X52479179Y-174048731D01*
X52324176Y-174422018D01*
X52323824Y-174826208D01*
X9652000Y-174826208D01*
X9652000Y-167841208D01*
X72643824Y-167841208D01*
X72798175Y-168214766D01*
X73083731Y-168500821D01*
X73457018Y-168655824D01*
X73861208Y-168656176D01*
X74234766Y-168501825D01*
X74520821Y-168216269D01*
X74675824Y-167842982D01*
X74676176Y-167438792D01*
X74521825Y-167065234D01*
X74236269Y-166779179D01*
X73862982Y-166624176D01*
X73458792Y-166623824D01*
X73085234Y-166778175D01*
X72799179Y-167063731D01*
X72644176Y-167437018D01*
X72643824Y-167841208D01*
X9652000Y-167841208D01*
X9652000Y-165301208D01*
X57403824Y-165301208D01*
X57558175Y-165674766D01*
X57843731Y-165960821D01*
X58217018Y-166115824D01*
X58621208Y-166116176D01*
X58994766Y-165961825D01*
X59280821Y-165676269D01*
X59435824Y-165302982D01*
X59436176Y-164898792D01*
X59281825Y-164525234D01*
X58996269Y-164239179D01*
X58622982Y-164084176D01*
X58218792Y-164083824D01*
X57845234Y-164238175D01*
X57559179Y-164523731D01*
X57404176Y-164897018D01*
X57403824Y-165301208D01*
X9652000Y-165301208D01*
X9652000Y-152135000D01*
X36552560Y-152135000D01*
X36552560Y-153935000D01*
X36596838Y-154170317D01*
X36735910Y-154386441D01*
X36948110Y-154531431D01*
X37200000Y-154582440D01*
X39000000Y-154582440D01*
X39235317Y-154538162D01*
X39451441Y-154399090D01*
X39596431Y-154186890D01*
X39647440Y-153935000D01*
X39647440Y-152135000D01*
X39603162Y-151899683D01*
X39464090Y-151683559D01*
X39251890Y-151538569D01*
X39235656Y-151535281D01*
X39518155Y-151112491D01*
X39635000Y-150525072D01*
X39635000Y-150464928D01*
X39518155Y-149877509D01*
X39185409Y-149379519D01*
X38954155Y-149225000D01*
X39185409Y-149070481D01*
X39518155Y-148572491D01*
X39635000Y-147985072D01*
X39635000Y-147924928D01*
X39518155Y-147337509D01*
X39185409Y-146839519D01*
X38687419Y-146506773D01*
X38100000Y-146389928D01*
X37512581Y-146506773D01*
X37014591Y-146839519D01*
X36681845Y-147337509D01*
X36565000Y-147924928D01*
X36565000Y-147985072D01*
X36681845Y-148572491D01*
X37014591Y-149070481D01*
X37245845Y-149225000D01*
X37014591Y-149379519D01*
X36681845Y-149877509D01*
X36565000Y-150464928D01*
X36565000Y-150525072D01*
X36681845Y-151112491D01*
X36962837Y-151533026D01*
X36748559Y-151670910D01*
X36603569Y-151883110D01*
X36552560Y-152135000D01*
X9652000Y-152135000D01*
X9652000Y-132966510D01*
X45084780Y-132966510D01*
X45277718Y-133433458D01*
X45634663Y-133791026D01*
X46101273Y-133984779D01*
X46606510Y-133985220D01*
X47073458Y-133792282D01*
X47431026Y-133435337D01*
X47624779Y-132968727D01*
X47625220Y-132463490D01*
X47432282Y-131996542D01*
X47075337Y-131638974D01*
X46608727Y-131445221D01*
X46103490Y-131444780D01*
X45636542Y-131637718D01*
X45278974Y-131994663D01*
X45085221Y-132461273D01*
X45084780Y-132966510D01*
X9652000Y-132966510D01*
X9652000Y-127956001D01*
X20367191Y-127956001D01*
X20638368Y-128612300D01*
X21140059Y-129114867D01*
X21795884Y-129387189D01*
X22506001Y-129387809D01*
X23162300Y-129116632D01*
X23664867Y-128614941D01*
X23937189Y-127959116D01*
X23937809Y-127248999D01*
X23726518Y-126737636D01*
X23896295Y-126737784D01*
X24497443Y-126489394D01*
X24957778Y-126029863D01*
X25207216Y-125429148D01*
X25207784Y-124778705D01*
X24959394Y-124177557D01*
X24499863Y-123717222D01*
X23899148Y-123467784D01*
X23248705Y-123467216D01*
X22647557Y-123715606D01*
X22187222Y-124175137D01*
X21937784Y-124775852D01*
X21937216Y-125426295D01*
X22098840Y-125817453D01*
X21798999Y-125817191D01*
X21142700Y-126088368D01*
X20640133Y-126590059D01*
X20367811Y-127245884D01*
X20367191Y-127956001D01*
X9652000Y-127956001D01*
X9652000Y-124102500D01*
X17325060Y-124102500D01*
X17325060Y-126102500D01*
X17369338Y-126337817D01*
X17508410Y-126553941D01*
X17720610Y-126698931D01*
X17972500Y-126749940D01*
X19972500Y-126749940D01*
X20207817Y-126705662D01*
X20423941Y-126566590D01*
X20568931Y-126354390D01*
X20619940Y-126102500D01*
X20619940Y-124102500D01*
X20575662Y-123867183D01*
X20436590Y-123651059D01*
X20224390Y-123506069D01*
X19972500Y-123455060D01*
X17972500Y-123455060D01*
X17737183Y-123499338D01*
X17521059Y-123638410D01*
X17376069Y-123850610D01*
X17325060Y-124102500D01*
X9652000Y-124102500D01*
X9652000Y-122755032D01*
X17999573Y-122755032D01*
X18098236Y-123021887D01*
X18707961Y-123248408D01*
X19357960Y-123224356D01*
X19846764Y-123021887D01*
X19945427Y-122755032D01*
X18972500Y-121782105D01*
X17999573Y-122755032D01*
X9652000Y-122755032D01*
X9652000Y-121337961D01*
X17326592Y-121337961D01*
X17350644Y-121987960D01*
X17553113Y-122476764D01*
X17819968Y-122575427D01*
X18792895Y-121602500D01*
X19152105Y-121602500D01*
X20125032Y-122575427D01*
X20391887Y-122476764D01*
X20618408Y-121867039D01*
X20594356Y-121217040D01*
X20391887Y-120728236D01*
X20125032Y-120629573D01*
X19152105Y-121602500D01*
X18792895Y-121602500D01*
X17819968Y-120629573D01*
X17553113Y-120728236D01*
X17326592Y-121337961D01*
X9652000Y-121337961D01*
X9652000Y-112395000D01*
X17018000Y-112395000D01*
X17018000Y-120015000D01*
X17028006Y-120064410D01*
X17056447Y-120106035D01*
X17098841Y-120133315D01*
X17145000Y-120142000D01*
X18197492Y-120142000D01*
X18098236Y-120183113D01*
X17999573Y-120449968D01*
X18972500Y-121422895D01*
X19945427Y-120449968D01*
X19846764Y-120183113D01*
X19736100Y-120142000D01*
X20828000Y-120142000D01*
X20828000Y-123190000D01*
X20838006Y-123239410D01*
X20866447Y-123281035D01*
X20908841Y-123308315D01*
X20955000Y-123317000D01*
X31697394Y-123317000D01*
X34835197Y-126454803D01*
X34877211Y-126482666D01*
X34925000Y-126492000D01*
X64643000Y-126492000D01*
X64643000Y-135255000D01*
X64653006Y-135304410D01*
X64681447Y-135346035D01*
X64723841Y-135373315D01*
X64770000Y-135382000D01*
X81915000Y-135382000D01*
X81964410Y-135371994D01*
X82006035Y-135343553D01*
X82033315Y-135301159D01*
X82042000Y-135255000D01*
X82042000Y-118110000D01*
X83819464Y-118110000D01*
X84071510Y-118110220D01*
X84538458Y-117917282D01*
X84896026Y-117560337D01*
X85089779Y-117093727D01*
X85090220Y-116588490D01*
X84897282Y-116121542D01*
X84540337Y-115763974D01*
X84073727Y-115570221D01*
X83568490Y-115569780D01*
X83567958Y-115570000D01*
X82042000Y-115570000D01*
X82042000Y-114037817D01*
X89341788Y-114037817D01*
X89415935Y-114283947D01*
X89953200Y-114477064D01*
X90523470Y-114449879D01*
X90924065Y-114283947D01*
X90998212Y-114037817D01*
X90170000Y-113209605D01*
X89341788Y-114037817D01*
X82042000Y-114037817D01*
X82042000Y-112813200D01*
X88722936Y-112813200D01*
X88750121Y-113383470D01*
X88916053Y-113784065D01*
X89162183Y-113858212D01*
X89990395Y-113030000D01*
X89162183Y-112201788D01*
X88916053Y-112275935D01*
X88722936Y-112813200D01*
X82042000Y-112813200D01*
X82042000Y-111497817D01*
X89341788Y-111497817D01*
X89415935Y-111743947D01*
X89457434Y-111758864D01*
X89415935Y-111776053D01*
X89341788Y-112022183D01*
X90170000Y-112850395D01*
X90998212Y-112022183D01*
X90924065Y-111776053D01*
X90882566Y-111761136D01*
X90924065Y-111743947D01*
X90998212Y-111497817D01*
X90170000Y-110669605D01*
X89341788Y-111497817D01*
X82042000Y-111497817D01*
X82042000Y-110273200D01*
X88722936Y-110273200D01*
X88750121Y-110843470D01*
X88916053Y-111244065D01*
X89162183Y-111318212D01*
X89990395Y-110490000D01*
X89162183Y-109661788D01*
X88916053Y-109735935D01*
X88722936Y-110273200D01*
X82042000Y-110273200D01*
X82042000Y-108957817D01*
X89341788Y-108957817D01*
X89415935Y-109203947D01*
X89457434Y-109218864D01*
X89415935Y-109236053D01*
X89341788Y-109482183D01*
X90170000Y-110310395D01*
X90998212Y-109482183D01*
X90924065Y-109236053D01*
X90882566Y-109221136D01*
X90924065Y-109203947D01*
X90998212Y-108957817D01*
X90170000Y-108129605D01*
X89341788Y-108957817D01*
X82042000Y-108957817D01*
X82042000Y-107733200D01*
X88722936Y-107733200D01*
X88750121Y-108303470D01*
X88916053Y-108704065D01*
X89162183Y-108778212D01*
X89990395Y-107950000D01*
X89162183Y-107121788D01*
X88916053Y-107195935D01*
X88722936Y-107733200D01*
X82042000Y-107733200D01*
X82042000Y-106417817D01*
X89341788Y-106417817D01*
X89415935Y-106663947D01*
X89457434Y-106678864D01*
X89415935Y-106696053D01*
X89341788Y-106942183D01*
X90170000Y-107770395D01*
X90998212Y-106942183D01*
X90924065Y-106696053D01*
X90882566Y-106681136D01*
X90924065Y-106663947D01*
X90998212Y-106417817D01*
X90170000Y-105589605D01*
X89341788Y-106417817D01*
X82042000Y-106417817D01*
X82042000Y-105193200D01*
X88722936Y-105193200D01*
X88750121Y-105763470D01*
X88916053Y-106164065D01*
X89162183Y-106238212D01*
X89990395Y-105410000D01*
X89162183Y-104581788D01*
X88916053Y-104655935D01*
X88722936Y-105193200D01*
X82042000Y-105193200D01*
X82042000Y-104140000D01*
X82031994Y-104090590D01*
X82003553Y-104048965D01*
X81961159Y-104021685D01*
X81915000Y-104013000D01*
X25400000Y-104013000D01*
X25350590Y-104023006D01*
X25310197Y-104050197D01*
X17055197Y-112305197D01*
X17027334Y-112347211D01*
X17018000Y-112395000D01*
X9652000Y-112395000D01*
X9652000Y-103877817D01*
X89341788Y-103877817D01*
X89415935Y-104123947D01*
X89457434Y-104138864D01*
X89415935Y-104156053D01*
X89341788Y-104402183D01*
X90170000Y-105230395D01*
X90998212Y-104402183D01*
X90924065Y-104156053D01*
X90882566Y-104141136D01*
X90924065Y-104123947D01*
X90998212Y-103877817D01*
X90170000Y-103049605D01*
X89341788Y-103877817D01*
X9652000Y-103877817D01*
X9652000Y-101851510D01*
X27939780Y-101851510D01*
X28132718Y-102318458D01*
X28489663Y-102676026D01*
X28956273Y-102869779D01*
X29461510Y-102870220D01*
X29928458Y-102677282D01*
X29952582Y-102653200D01*
X88722936Y-102653200D01*
X88750121Y-103223470D01*
X88916053Y-103624065D01*
X89162183Y-103698212D01*
X89990395Y-102870000D01*
X89162183Y-102041788D01*
X88916053Y-102115935D01*
X88722936Y-102653200D01*
X29952582Y-102653200D01*
X30286026Y-102320337D01*
X30479779Y-101853727D01*
X30480220Y-101348490D01*
X30475811Y-101337817D01*
X89341788Y-101337817D01*
X89415935Y-101583947D01*
X89457434Y-101598864D01*
X89415935Y-101616053D01*
X89341788Y-101862183D01*
X90170000Y-102690395D01*
X90998212Y-101862183D01*
X90924065Y-101616053D01*
X90882566Y-101601136D01*
X90924065Y-101583947D01*
X90998212Y-101337817D01*
X90170000Y-100509605D01*
X89341788Y-101337817D01*
X30475811Y-101337817D01*
X30287282Y-100881542D01*
X29930337Y-100523974D01*
X29463727Y-100330221D01*
X28958490Y-100329780D01*
X28491542Y-100522718D01*
X28133974Y-100879663D01*
X27940221Y-101346273D01*
X27939780Y-101851510D01*
X9652000Y-101851510D01*
X9652000Y-92961510D01*
X32384780Y-92961510D01*
X32577718Y-93428458D01*
X32934663Y-93786026D01*
X33401273Y-93979779D01*
X33906510Y-93980220D01*
X34373458Y-93787282D01*
X34731026Y-93430337D01*
X34924779Y-92963727D01*
X34925220Y-92458490D01*
X34732282Y-91991542D01*
X34375337Y-91633974D01*
X33908727Y-91440221D01*
X33403490Y-91439780D01*
X32936542Y-91632718D01*
X32578974Y-91989663D01*
X32385221Y-92456273D01*
X32384780Y-92961510D01*
X9652000Y-92961510D01*
X9652000Y-80298407D01*
X35027500Y-80298407D01*
X35027500Y-80356593D01*
X35140539Y-80924878D01*
X35462446Y-81406647D01*
X35944215Y-81728554D01*
X36512500Y-81841593D01*
X37080785Y-81728554D01*
X37562554Y-81406647D01*
X37782500Y-81077474D01*
X38002446Y-81406647D01*
X38484215Y-81728554D01*
X39052500Y-81841593D01*
X39620785Y-81728554D01*
X40102554Y-81406647D01*
X40322500Y-81077474D01*
X40542446Y-81406647D01*
X41024215Y-81728554D01*
X41592500Y-81841593D01*
X42160785Y-81728554D01*
X42642554Y-81406647D01*
X42862500Y-81077474D01*
X43082446Y-81406647D01*
X43564215Y-81728554D01*
X44132500Y-81841593D01*
X44700785Y-81728554D01*
X45182554Y-81406647D01*
X45402500Y-81077474D01*
X45622446Y-81406647D01*
X46104215Y-81728554D01*
X46672500Y-81841593D01*
X47240785Y-81728554D01*
X47722554Y-81406647D01*
X47950202Y-81065947D01*
X48017317Y-81208858D01*
X48445576Y-81599145D01*
X48855610Y-81768976D01*
X49085500Y-81647655D01*
X49085500Y-80454500D01*
X49065500Y-80454500D01*
X49065500Y-80200500D01*
X49085500Y-80200500D01*
X49085500Y-79007345D01*
X49339500Y-79007345D01*
X49339500Y-80200500D01*
X49359500Y-80200500D01*
X49359500Y-80454500D01*
X49339500Y-80454500D01*
X49339500Y-81647655D01*
X49569390Y-81768976D01*
X49979424Y-81599145D01*
X50407683Y-81208858D01*
X50474798Y-81065947D01*
X50702446Y-81406647D01*
X51184215Y-81728554D01*
X51752500Y-81841593D01*
X52320785Y-81728554D01*
X52802554Y-81406647D01*
X53022500Y-81077474D01*
X53242446Y-81406647D01*
X53724215Y-81728554D01*
X54292500Y-81841593D01*
X54860785Y-81728554D01*
X55342554Y-81406647D01*
X55570202Y-81065947D01*
X55637317Y-81208858D01*
X56065576Y-81599145D01*
X56475610Y-81768976D01*
X56705500Y-81647655D01*
X56705500Y-80454500D01*
X56685500Y-80454500D01*
X56685500Y-80200500D01*
X56705500Y-80200500D01*
X56705500Y-79007345D01*
X56959500Y-79007345D01*
X56959500Y-80200500D01*
X56979500Y-80200500D01*
X56979500Y-80454500D01*
X56959500Y-80454500D01*
X56959500Y-81647655D01*
X57189390Y-81768976D01*
X57599424Y-81599145D01*
X57902437Y-81322999D01*
X57919338Y-81412817D01*
X58058410Y-81628941D01*
X58270610Y-81773931D01*
X58522500Y-81824940D01*
X60222500Y-81824940D01*
X60457817Y-81780662D01*
X60673941Y-81641590D01*
X60818931Y-81429390D01*
X60869940Y-81177500D01*
X60869940Y-79477500D01*
X60825662Y-79242183D01*
X60686590Y-79026059D01*
X60474390Y-78881069D01*
X60222500Y-78830060D01*
X58522500Y-78830060D01*
X58287183Y-78874338D01*
X58071059Y-79013410D01*
X57926069Y-79225610D01*
X57904199Y-79333607D01*
X57599424Y-79055855D01*
X57189390Y-78886024D01*
X56959500Y-79007345D01*
X56705500Y-79007345D01*
X56475610Y-78886024D01*
X56065576Y-79055855D01*
X55637317Y-79446142D01*
X55570202Y-79589053D01*
X55342554Y-79248353D01*
X54860785Y-78926446D01*
X54292500Y-78813407D01*
X53724215Y-78926446D01*
X53242446Y-79248353D01*
X53022500Y-79577526D01*
X52802554Y-79248353D01*
X52320785Y-78926446D01*
X51752500Y-78813407D01*
X51184215Y-78926446D01*
X50702446Y-79248353D01*
X50474798Y-79589053D01*
X50407683Y-79446142D01*
X49979424Y-79055855D01*
X49569390Y-78886024D01*
X49339500Y-79007345D01*
X49085500Y-79007345D01*
X48855610Y-78886024D01*
X48445576Y-79055855D01*
X48017317Y-79446142D01*
X47950202Y-79589053D01*
X47722554Y-79248353D01*
X47240785Y-78926446D01*
X46672500Y-78813407D01*
X46104215Y-78926446D01*
X45622446Y-79248353D01*
X45402500Y-79577526D01*
X45182554Y-79248353D01*
X44700785Y-78926446D01*
X44132500Y-78813407D01*
X43564215Y-78926446D01*
X43082446Y-79248353D01*
X42862500Y-79577526D01*
X42642554Y-79248353D01*
X42160785Y-78926446D01*
X41592500Y-78813407D01*
X41024215Y-78926446D01*
X40542446Y-79248353D01*
X40322500Y-79577526D01*
X40102554Y-79248353D01*
X39620785Y-78926446D01*
X39052500Y-78813407D01*
X38484215Y-78926446D01*
X38002446Y-79248353D01*
X37782500Y-79577526D01*
X37562554Y-79248353D01*
X37080785Y-78926446D01*
X36512500Y-78813407D01*
X35944215Y-78926446D01*
X35462446Y-79248353D01*
X35140539Y-79730122D01*
X35027500Y-80298407D01*
X9652000Y-80298407D01*
X9652000Y-71321208D01*
X26923824Y-71321208D01*
X27078175Y-71694766D01*
X27363731Y-71980821D01*
X27737018Y-72135824D01*
X28141208Y-72136176D01*
X28514766Y-71981825D01*
X28800821Y-71696269D01*
X28955824Y-71322982D01*
X28956176Y-70918792D01*
X28801825Y-70545234D01*
X28516269Y-70259179D01*
X28142982Y-70104176D01*
X27738792Y-70103824D01*
X27365234Y-70258175D01*
X27079179Y-70543731D01*
X26924176Y-70917018D01*
X26923824Y-71321208D01*
X9652000Y-71321208D01*
X9652000Y-63701208D01*
X14223824Y-63701208D01*
X14378175Y-64074766D01*
X14663731Y-64360821D01*
X15037018Y-64515824D01*
X15441208Y-64516176D01*
X15814766Y-64361825D01*
X16100821Y-64076269D01*
X16255824Y-63702982D01*
X16256176Y-63298792D01*
X16101825Y-62925234D01*
X15816269Y-62639179D01*
X15442982Y-62484176D01*
X15038792Y-62483824D01*
X14665234Y-62638175D01*
X14379179Y-62923731D01*
X14224176Y-63297018D01*
X14223824Y-63701208D01*
X9652000Y-63701208D01*
X9652000Y-61780167D01*
X60659838Y-61780167D01*
X60801883Y-62123943D01*
X61064673Y-62387192D01*
X61408201Y-62529838D01*
X61780167Y-62530162D01*
X62123943Y-62388117D01*
X62387192Y-62125327D01*
X62529838Y-61781799D01*
X62530162Y-61409833D01*
X62388117Y-61066057D01*
X62125327Y-60802808D01*
X61781799Y-60660162D01*
X61409833Y-60659838D01*
X61066057Y-60801883D01*
X60802808Y-61064673D01*
X60660162Y-61408201D01*
X60659838Y-61780167D01*
X9652000Y-61780167D01*
X9652000Y-52906208D01*
X14858824Y-52906208D01*
X15013175Y-53279766D01*
X15298731Y-53565821D01*
X15672018Y-53720824D01*
X16076208Y-53721176D01*
X16449766Y-53566825D01*
X16735821Y-53281269D01*
X16736879Y-53278720D01*
X52982501Y-53278720D01*
X53422613Y-54343873D01*
X54236840Y-55159523D01*
X55301223Y-55601493D01*
X56453720Y-55602499D01*
X57518873Y-55162387D01*
X58334523Y-54348160D01*
X58776493Y-53283777D01*
X58777499Y-52131280D01*
X58337387Y-51066127D01*
X57523160Y-50250477D01*
X56458777Y-49808507D01*
X55306280Y-49807501D01*
X54241127Y-50247613D01*
X53425477Y-51061840D01*
X52983507Y-52126223D01*
X52982501Y-53278720D01*
X16736879Y-53278720D01*
X16890824Y-52907982D01*
X16891176Y-52503792D01*
X16736825Y-52130234D01*
X16451269Y-51844179D01*
X16077982Y-51689176D01*
X15673792Y-51688824D01*
X15300234Y-51843175D01*
X15014179Y-52128731D01*
X14859176Y-52502018D01*
X14858824Y-52906208D01*
X9652000Y-52906208D01*
X9652000Y-47826208D01*
X22478824Y-47826208D01*
X22633175Y-48199766D01*
X22918731Y-48485821D01*
X23292018Y-48640824D01*
X23696208Y-48641176D01*
X24069766Y-48486825D01*
X24355821Y-48201269D01*
X24510824Y-47827982D01*
X24511176Y-47423792D01*
X24356825Y-47050234D01*
X24082072Y-46775000D01*
X70892560Y-46775000D01*
X70892560Y-48475000D01*
X70936838Y-48710317D01*
X71075910Y-48926441D01*
X71288110Y-49071431D01*
X71540000Y-49122440D01*
X73240000Y-49122440D01*
X73475317Y-49078162D01*
X73691441Y-48939090D01*
X73836431Y-48726890D01*
X73850086Y-48659459D01*
X73879946Y-48704147D01*
X74361715Y-49026054D01*
X74930000Y-49139093D01*
X75498285Y-49026054D01*
X75980054Y-48704147D01*
X76200000Y-48374974D01*
X76419946Y-48704147D01*
X76901715Y-49026054D01*
X77470000Y-49139093D01*
X78038285Y-49026054D01*
X78520054Y-48704147D01*
X78841961Y-48222378D01*
X78904258Y-47909187D01*
X87464752Y-47909187D01*
X87682757Y-48436800D01*
X88086077Y-48840824D01*
X88613309Y-49059750D01*
X89184187Y-49060248D01*
X89711800Y-48842243D01*
X90115824Y-48438923D01*
X90334750Y-47911691D01*
X90335248Y-47340813D01*
X90117243Y-46813200D01*
X89713923Y-46409176D01*
X89186691Y-46190250D01*
X88615813Y-46189752D01*
X88088200Y-46407757D01*
X87684176Y-46811077D01*
X87465250Y-47338309D01*
X87464752Y-47909187D01*
X78904258Y-47909187D01*
X78955000Y-47654093D01*
X78955000Y-47595907D01*
X78841961Y-47027622D01*
X78520054Y-46545853D01*
X78038285Y-46223946D01*
X77470000Y-46110907D01*
X76901715Y-46223946D01*
X76419946Y-46545853D01*
X76200000Y-46875026D01*
X75980054Y-46545853D01*
X75498285Y-46223946D01*
X74930000Y-46110907D01*
X74361715Y-46223946D01*
X73879946Y-46545853D01*
X73852150Y-46587452D01*
X73843162Y-46539683D01*
X73704090Y-46323559D01*
X73491890Y-46178569D01*
X73240000Y-46127560D01*
X71540000Y-46127560D01*
X71304683Y-46171838D01*
X71088559Y-46310910D01*
X70943569Y-46523110D01*
X70892560Y-46775000D01*
X24082072Y-46775000D01*
X24071269Y-46764179D01*
X23697982Y-46609176D01*
X23293792Y-46608824D01*
X22920234Y-46763175D01*
X22634179Y-47048731D01*
X22479176Y-47422018D01*
X22478824Y-47826208D01*
X9652000Y-47826208D01*
X9652000Y-43381208D01*
X16763824Y-43381208D01*
X16918175Y-43754766D01*
X17203731Y-44040821D01*
X17577018Y-44195824D01*
X17981208Y-44196176D01*
X18354766Y-44041825D01*
X18640821Y-43756269D01*
X18795824Y-43382982D01*
X18796176Y-42978792D01*
X18641825Y-42605234D01*
X18356269Y-42319179D01*
X17982982Y-42164176D01*
X17578792Y-42163824D01*
X17205234Y-42318175D01*
X16919179Y-42603731D01*
X16764176Y-42977018D01*
X16763824Y-43381208D01*
X9652000Y-43381208D01*
X9652000Y-42095167D01*
X56849838Y-42095167D01*
X56991883Y-42438943D01*
X57254673Y-42702192D01*
X57598201Y-42844838D01*
X57970167Y-42845162D01*
X58313943Y-42703117D01*
X58577192Y-42440327D01*
X58719838Y-42096799D01*
X58720162Y-41724833D01*
X58578117Y-41381057D01*
X58315327Y-41117808D01*
X57971799Y-40975162D01*
X57599833Y-40974838D01*
X57256057Y-41116883D01*
X56992808Y-41379673D01*
X56850162Y-41723201D01*
X56849838Y-42095167D01*
X9652000Y-42095167D01*
X9652000Y-40206208D01*
X32003824Y-40206208D01*
X32158175Y-40579766D01*
X32443731Y-40865821D01*
X32817018Y-41020824D01*
X33221208Y-41021176D01*
X33594766Y-40866825D01*
X33880821Y-40581269D01*
X34002104Y-40289187D01*
X95084752Y-40289187D01*
X95302757Y-40816800D01*
X95706077Y-41220824D01*
X95787931Y-41254813D01*
X95708200Y-41287757D01*
X95304176Y-41691077D01*
X95085250Y-42218309D01*
X95084752Y-42789187D01*
X95302757Y-43316800D01*
X95706077Y-43720824D01*
X96233309Y-43939750D01*
X96804187Y-43940248D01*
X97331800Y-43722243D01*
X97735824Y-43318923D01*
X97954750Y-42791691D01*
X97955248Y-42220813D01*
X97758647Y-41745000D01*
X106502560Y-41745000D01*
X106502560Y-43345000D01*
X106546838Y-43580317D01*
X106685910Y-43796441D01*
X106898110Y-43941431D01*
X107150000Y-43992440D01*
X108750000Y-43992440D01*
X108985317Y-43948162D01*
X109201441Y-43809090D01*
X109346431Y-43596890D01*
X109377815Y-43441911D01*
X109475302Y-43587811D01*
X109940849Y-43898880D01*
X110490000Y-44008113D01*
X111039151Y-43898880D01*
X111504698Y-43587811D01*
X111815767Y-43122264D01*
X111925000Y-42573113D01*
X111925000Y-42516887D01*
X119215000Y-42516887D01*
X119215000Y-42573113D01*
X119324233Y-43122264D01*
X119635302Y-43587811D01*
X120100849Y-43898880D01*
X120650000Y-44008113D01*
X121199151Y-43898880D01*
X121664698Y-43587811D01*
X121920000Y-43205725D01*
X122175302Y-43587811D01*
X122640849Y-43898880D01*
X123190000Y-44008113D01*
X123739151Y-43898880D01*
X124204698Y-43587811D01*
X124515767Y-43122264D01*
X124625000Y-42573113D01*
X124625000Y-42516887D01*
X124515767Y-41967736D01*
X124204698Y-41502189D01*
X123739151Y-41191120D01*
X123190000Y-41081887D01*
X122640849Y-41191120D01*
X122175302Y-41502189D01*
X121920000Y-41884275D01*
X121664698Y-41502189D01*
X121199151Y-41191120D01*
X120650000Y-41081887D01*
X120100849Y-41191120D01*
X119635302Y-41502189D01*
X119324233Y-41967736D01*
X119215000Y-42516887D01*
X111925000Y-42516887D01*
X111815767Y-41967736D01*
X111504698Y-41502189D01*
X111039151Y-41191120D01*
X110490000Y-41081887D01*
X109940849Y-41191120D01*
X109475302Y-41502189D01*
X109378899Y-41646465D01*
X109353162Y-41509683D01*
X109214090Y-41293559D01*
X109001890Y-41148569D01*
X108750000Y-41097560D01*
X107150000Y-41097560D01*
X106914683Y-41141838D01*
X106698559Y-41280910D01*
X106553569Y-41493110D01*
X106502560Y-41745000D01*
X97758647Y-41745000D01*
X97737243Y-41693200D01*
X97333923Y-41289176D01*
X97252069Y-41255187D01*
X97331800Y-41222243D01*
X97735824Y-40818923D01*
X97954750Y-40291691D01*
X97955248Y-39720813D01*
X97737243Y-39193200D01*
X97333923Y-38789176D01*
X96806691Y-38570250D01*
X96235813Y-38569752D01*
X95708200Y-38787757D01*
X95304176Y-39191077D01*
X95085250Y-39718309D01*
X95084752Y-40289187D01*
X34002104Y-40289187D01*
X34035824Y-40207982D01*
X34036176Y-39803792D01*
X33881825Y-39430234D01*
X33596269Y-39144179D01*
X33222982Y-38989176D01*
X32818792Y-38988824D01*
X32445234Y-39143175D01*
X32159179Y-39428731D01*
X32004176Y-39802018D01*
X32003824Y-40206208D01*
X9652000Y-40206208D01*
X9652000Y-37666208D01*
X22478824Y-37666208D01*
X22633175Y-38039766D01*
X22918731Y-38325821D01*
X23292018Y-38480824D01*
X23696208Y-38481176D01*
X24069766Y-38326825D01*
X24355821Y-38041269D01*
X24510824Y-37667982D01*
X24511176Y-37263792D01*
X24356825Y-36890234D01*
X24071269Y-36604179D01*
X23697982Y-36449176D01*
X23293792Y-36448824D01*
X22920234Y-36603175D01*
X22634179Y-36888731D01*
X22479176Y-37262018D01*
X22478824Y-37666208D01*
X9652000Y-37666208D01*
X9652000Y-34896887D01*
X87465000Y-34896887D01*
X87465000Y-34953113D01*
X87574233Y-35502264D01*
X87885302Y-35967811D01*
X88350849Y-36278880D01*
X88900000Y-36388113D01*
X89449151Y-36278880D01*
X89914698Y-35967811D01*
X90225767Y-35502264D01*
X90335000Y-34953113D01*
X90335000Y-34896887D01*
X106515000Y-34896887D01*
X106515000Y-34953113D01*
X106624233Y-35502264D01*
X106935302Y-35967811D01*
X107400849Y-36278880D01*
X107950000Y-36388113D01*
X108499151Y-36278880D01*
X108964698Y-35967811D01*
X109220000Y-35585725D01*
X109475302Y-35967811D01*
X109940849Y-36278880D01*
X110490000Y-36388113D01*
X111039151Y-36278880D01*
X111504698Y-35967811D01*
X111815767Y-35502264D01*
X111925000Y-34953113D01*
X111925000Y-34896887D01*
X119215000Y-34896887D01*
X119215000Y-34953113D01*
X119324233Y-35502264D01*
X119635302Y-35967811D01*
X120100849Y-36278880D01*
X120650000Y-36388113D01*
X121199151Y-36278880D01*
X121664698Y-35967811D01*
X121920000Y-35585725D01*
X122175302Y-35967811D01*
X122640849Y-36278880D01*
X123190000Y-36388113D01*
X123739151Y-36278880D01*
X124204698Y-35967811D01*
X124515767Y-35502264D01*
X124625000Y-34953113D01*
X124625000Y-34896887D01*
X124515767Y-34347736D01*
X124204698Y-33882189D01*
X123739151Y-33571120D01*
X123190000Y-33461887D01*
X122640849Y-33571120D01*
X122175302Y-33882189D01*
X121920000Y-34264275D01*
X121664698Y-33882189D01*
X121199151Y-33571120D01*
X120650000Y-33461887D01*
X120100849Y-33571120D01*
X119635302Y-33882189D01*
X119324233Y-34347736D01*
X119215000Y-34896887D01*
X111925000Y-34896887D01*
X111815767Y-34347736D01*
X111504698Y-33882189D01*
X111039151Y-33571120D01*
X110490000Y-33461887D01*
X109940849Y-33571120D01*
X109475302Y-33882189D01*
X109220000Y-34264275D01*
X108964698Y-33882189D01*
X108499151Y-33571120D01*
X107950000Y-33461887D01*
X107400849Y-33571120D01*
X106935302Y-33882189D01*
X106624233Y-34347736D01*
X106515000Y-34896887D01*
X90335000Y-34896887D01*
X90225767Y-34347736D01*
X89914698Y-33882189D01*
X89449151Y-33571120D01*
X88900000Y-33461887D01*
X88350849Y-33571120D01*
X87885302Y-33882189D01*
X87574233Y-34347736D01*
X87465000Y-34896887D01*
X9652000Y-34896887D01*
X9652000Y-33205167D01*
X62564838Y-33205167D01*
X62706883Y-33548943D01*
X62969673Y-33812192D01*
X63313201Y-33954838D01*
X63685167Y-33955162D01*
X64028943Y-33813117D01*
X64292192Y-33550327D01*
X64434838Y-33206799D01*
X64435162Y-32834833D01*
X64293117Y-32491057D01*
X64030327Y-32227808D01*
X63686799Y-32085162D01*
X63314833Y-32084838D01*
X62971057Y-32226883D01*
X62707808Y-32489673D01*
X62565162Y-32833201D01*
X62564838Y-33205167D01*
X9652000Y-33205167D01*
X9652000Y-30681208D01*
X11048824Y-30681208D01*
X11203175Y-31054766D01*
X11488731Y-31340821D01*
X11862018Y-31495824D01*
X12266208Y-31496176D01*
X12639766Y-31341825D01*
X12925821Y-31056269D01*
X13080824Y-30682982D01*
X13081176Y-30278792D01*
X12926825Y-29905234D01*
X12641269Y-29619179D01*
X12267982Y-29464176D01*
X11863792Y-29463824D01*
X11490234Y-29618175D01*
X11204179Y-29903731D01*
X11049176Y-30277018D01*
X11048824Y-30681208D01*
X9652000Y-30681208D01*
X9652000Y-28859187D01*
X91274752Y-28859187D01*
X91492757Y-29386800D01*
X91896077Y-29790824D01*
X92423309Y-30009750D01*
X92994187Y-30010248D01*
X93521800Y-29792243D01*
X93925824Y-29388923D01*
X93959813Y-29307069D01*
X93992757Y-29386800D01*
X94396077Y-29790824D01*
X94923309Y-30009750D01*
X95494187Y-30010248D01*
X96021800Y-29792243D01*
X96425824Y-29388923D01*
X96568633Y-29045000D01*
X106502560Y-29045000D01*
X106502560Y-30645000D01*
X106546838Y-30880317D01*
X106685910Y-31096441D01*
X106898110Y-31241431D01*
X107150000Y-31292440D01*
X108750000Y-31292440D01*
X108985317Y-31248162D01*
X109201441Y-31109090D01*
X109346431Y-30896890D01*
X109377815Y-30741911D01*
X109475302Y-30887811D01*
X109940849Y-31198880D01*
X110490000Y-31308113D01*
X111039151Y-31198880D01*
X111504698Y-30887811D01*
X111815767Y-30422264D01*
X111925000Y-29873113D01*
X111925000Y-29816887D01*
X119215000Y-29816887D01*
X119215000Y-29873113D01*
X119324233Y-30422264D01*
X119635302Y-30887811D01*
X120100849Y-31198880D01*
X120650000Y-31308113D01*
X121199151Y-31198880D01*
X121664698Y-30887811D01*
X121920000Y-30505725D01*
X122175302Y-30887811D01*
X122640849Y-31198880D01*
X123190000Y-31308113D01*
X123739151Y-31198880D01*
X124204698Y-30887811D01*
X124515767Y-30422264D01*
X124625000Y-29873113D01*
X124625000Y-29816887D01*
X124515767Y-29267736D01*
X124204698Y-28802189D01*
X123739151Y-28491120D01*
X123190000Y-28381887D01*
X122640849Y-28491120D01*
X122175302Y-28802189D01*
X121920000Y-29184275D01*
X121664698Y-28802189D01*
X121199151Y-28491120D01*
X120650000Y-28381887D01*
X120100849Y-28491120D01*
X119635302Y-28802189D01*
X119324233Y-29267736D01*
X119215000Y-29816887D01*
X111925000Y-29816887D01*
X111815767Y-29267736D01*
X111504698Y-28802189D01*
X111039151Y-28491120D01*
X110490000Y-28381887D01*
X109940849Y-28491120D01*
X109475302Y-28802189D01*
X109378899Y-28946465D01*
X109353162Y-28809683D01*
X109214090Y-28593559D01*
X109001890Y-28448569D01*
X108750000Y-28397560D01*
X107150000Y-28397560D01*
X106914683Y-28441838D01*
X106698559Y-28580910D01*
X106553569Y-28793110D01*
X106502560Y-29045000D01*
X96568633Y-29045000D01*
X96644750Y-28861691D01*
X96645248Y-28290813D01*
X96427243Y-27763200D01*
X96023923Y-27359176D01*
X95496691Y-27140250D01*
X94925813Y-27139752D01*
X94398200Y-27357757D01*
X93994176Y-27761077D01*
X93960187Y-27842931D01*
X93927243Y-27763200D01*
X93523923Y-27359176D01*
X92996691Y-27140250D01*
X92425813Y-27139752D01*
X91898200Y-27357757D01*
X91494176Y-27761077D01*
X91275250Y-28288309D01*
X91274752Y-28859187D01*
X9652000Y-28859187D01*
X9652000Y-26871208D01*
X18668824Y-26871208D01*
X18823175Y-27244766D01*
X19108731Y-27530821D01*
X19482018Y-27685824D01*
X19886208Y-27686176D01*
X20259766Y-27531825D01*
X20545821Y-27246269D01*
X20700824Y-26872982D01*
X20701176Y-26468792D01*
X20546825Y-26095234D01*
X20261269Y-25809179D01*
X19887982Y-25654176D01*
X19483792Y-25653824D01*
X19110234Y-25808175D01*
X18824179Y-26093731D01*
X18669176Y-26467018D01*
X18668824Y-26871208D01*
X9652000Y-26871208D01*
X9652000Y-25185000D01*
X70892560Y-25185000D01*
X70892560Y-26885000D01*
X70936838Y-27120317D01*
X71075910Y-27336441D01*
X71288110Y-27481431D01*
X71540000Y-27532440D01*
X73240000Y-27532440D01*
X73475317Y-27488162D01*
X73691441Y-27349090D01*
X73836431Y-27136890D01*
X73850086Y-27069459D01*
X73879946Y-27114147D01*
X74361715Y-27436054D01*
X74930000Y-27549093D01*
X75498285Y-27436054D01*
X75980054Y-27114147D01*
X76200000Y-26784974D01*
X76419946Y-27114147D01*
X76901715Y-27436054D01*
X77470000Y-27549093D01*
X78038285Y-27436054D01*
X78520054Y-27114147D01*
X78841961Y-26632378D01*
X78955000Y-26064093D01*
X78955000Y-26005907D01*
X78841961Y-25437622D01*
X78520054Y-24955853D01*
X78038285Y-24633946D01*
X77470000Y-24520907D01*
X76901715Y-24633946D01*
X76419946Y-24955853D01*
X76200000Y-25285026D01*
X75980054Y-24955853D01*
X75498285Y-24633946D01*
X74930000Y-24520907D01*
X74361715Y-24633946D01*
X73879946Y-24955853D01*
X73852150Y-24997452D01*
X73843162Y-24949683D01*
X73704090Y-24733559D01*
X73491890Y-24588569D01*
X73240000Y-24537560D01*
X71540000Y-24537560D01*
X71304683Y-24581838D01*
X71088559Y-24720910D01*
X70943569Y-24933110D01*
X70892560Y-25185000D01*
X9652000Y-25185000D01*
X9652000Y-23045167D01*
X33354838Y-23045167D01*
X33496883Y-23388943D01*
X33759673Y-23652192D01*
X34103201Y-23794838D01*
X34475167Y-23795162D01*
X34818943Y-23653117D01*
X35082192Y-23390327D01*
X35224838Y-23046799D01*
X35225162Y-22674833D01*
X35083117Y-22331057D01*
X34977245Y-22225000D01*
X86166887Y-22225000D01*
X86276120Y-22774151D01*
X86587189Y-23239698D01*
X87052736Y-23550767D01*
X87601887Y-23660000D01*
X87658113Y-23660000D01*
X88207264Y-23550767D01*
X88672811Y-23239698D01*
X88983880Y-22774151D01*
X89036584Y-22509187D01*
X98894752Y-22509187D01*
X99112757Y-23036800D01*
X99516077Y-23440824D01*
X100043309Y-23659750D01*
X100614187Y-23660248D01*
X101141800Y-23442243D01*
X101545824Y-23038923D01*
X101764750Y-22511691D01*
X101765024Y-22196887D01*
X106515000Y-22196887D01*
X106515000Y-22253113D01*
X106624233Y-22802264D01*
X106935302Y-23267811D01*
X107400849Y-23578880D01*
X107950000Y-23688113D01*
X108499151Y-23578880D01*
X108964698Y-23267811D01*
X109220000Y-22885725D01*
X109475302Y-23267811D01*
X109940849Y-23578880D01*
X110490000Y-23688113D01*
X111039151Y-23578880D01*
X111504698Y-23267811D01*
X111815767Y-22802264D01*
X111925000Y-22253113D01*
X111925000Y-22196887D01*
X119215000Y-22196887D01*
X119215000Y-22253113D01*
X119324233Y-22802264D01*
X119635302Y-23267811D01*
X120100849Y-23578880D01*
X120650000Y-23688113D01*
X121199151Y-23578880D01*
X121664698Y-23267811D01*
X121920000Y-22885725D01*
X122175302Y-23267811D01*
X122640849Y-23578880D01*
X123190000Y-23688113D01*
X123739151Y-23578880D01*
X124204698Y-23267811D01*
X124515767Y-22802264D01*
X124625000Y-22253113D01*
X124625000Y-22225000D01*
X131886887Y-22225000D01*
X131996120Y-22774151D01*
X132307189Y-23239698D01*
X132689275Y-23495000D01*
X132307189Y-23750302D01*
X131996120Y-24215849D01*
X131886887Y-24765000D01*
X131996120Y-25314151D01*
X132307189Y-25779698D01*
X132689275Y-26035000D01*
X132307189Y-26290302D01*
X131996120Y-26755849D01*
X131886887Y-27305000D01*
X131996120Y-27854151D01*
X132307189Y-28319698D01*
X132689275Y-28575000D01*
X132307189Y-28830302D01*
X131996120Y-29295849D01*
X131886887Y-29845000D01*
X131996120Y-30394151D01*
X132307189Y-30859698D01*
X132689275Y-31115000D01*
X132307189Y-31370302D01*
X131996120Y-31835849D01*
X131886887Y-32385000D01*
X131996120Y-32934151D01*
X132307189Y-33399698D01*
X132689275Y-33655000D01*
X132307189Y-33910302D01*
X131996120Y-34375849D01*
X131886887Y-34925000D01*
X131996120Y-35474151D01*
X132307189Y-35939698D01*
X132689275Y-36195000D01*
X132307189Y-36450302D01*
X131996120Y-36915849D01*
X131886887Y-37465000D01*
X131996120Y-38014151D01*
X132307189Y-38479698D01*
X132689275Y-38735000D01*
X132307189Y-38990302D01*
X131996120Y-39455849D01*
X131886887Y-40005000D01*
X131996120Y-40554151D01*
X132307189Y-41019698D01*
X132689275Y-41275000D01*
X132307189Y-41530302D01*
X131996120Y-41995849D01*
X131886887Y-42545000D01*
X131996120Y-43094151D01*
X132307189Y-43559698D01*
X132772736Y-43870767D01*
X133321887Y-43980000D01*
X133378113Y-43980000D01*
X133927264Y-43870767D01*
X134392811Y-43559698D01*
X134703880Y-43094151D01*
X134813113Y-42545000D01*
X134703880Y-41995849D01*
X134392811Y-41530302D01*
X134010725Y-41275000D01*
X134392811Y-41019698D01*
X134703880Y-40554151D01*
X134813113Y-40005000D01*
X134703880Y-39455849D01*
X134392811Y-38990302D01*
X134010725Y-38735000D01*
X134392811Y-38479698D01*
X134703880Y-38014151D01*
X134813113Y-37465000D01*
X134703880Y-36915849D01*
X134392811Y-36450302D01*
X134010725Y-36195000D01*
X134392811Y-35939698D01*
X134703880Y-35474151D01*
X134813113Y-34925000D01*
X134703880Y-34375849D01*
X134392811Y-33910302D01*
X134010725Y-33655000D01*
X134392811Y-33399698D01*
X134703880Y-32934151D01*
X134813113Y-32385000D01*
X134703880Y-31835849D01*
X134392811Y-31370302D01*
X134010725Y-31115000D01*
X134392811Y-30859698D01*
X134703880Y-30394151D01*
X134813113Y-29845000D01*
X134703880Y-29295849D01*
X134392811Y-28830302D01*
X134010725Y-28575000D01*
X134392811Y-28319698D01*
X134703880Y-27854151D01*
X134813113Y-27305000D01*
X134703880Y-26755849D01*
X134392811Y-26290302D01*
X134010725Y-26035000D01*
X134392811Y-25779698D01*
X134703880Y-25314151D01*
X134813113Y-24765000D01*
X139506887Y-24765000D01*
X139616120Y-25314151D01*
X139927189Y-25779698D01*
X140309275Y-26035000D01*
X139927189Y-26290302D01*
X139616120Y-26755849D01*
X139506887Y-27305000D01*
X139616120Y-27854151D01*
X139927189Y-28319698D01*
X140309275Y-28575000D01*
X139927189Y-28830302D01*
X139616120Y-29295849D01*
X139506887Y-29845000D01*
X139616120Y-30394151D01*
X139927189Y-30859698D01*
X140309275Y-31115000D01*
X139927189Y-31370302D01*
X139616120Y-31835849D01*
X139506887Y-32385000D01*
X139616120Y-32934151D01*
X139927189Y-33399698D01*
X140309275Y-33655000D01*
X139927189Y-33910302D01*
X139616120Y-34375849D01*
X139506887Y-34925000D01*
X139616120Y-35474151D01*
X139927189Y-35939698D01*
X140309275Y-36195000D01*
X139927189Y-36450302D01*
X139616120Y-36915849D01*
X139506887Y-37465000D01*
X139616120Y-38014151D01*
X139927189Y-38479698D01*
X140309275Y-38735000D01*
X139927189Y-38990302D01*
X139616120Y-39455849D01*
X139506887Y-40005000D01*
X139616120Y-40554151D01*
X139927189Y-41019698D01*
X140071465Y-41116101D01*
X139934683Y-41141838D01*
X139718559Y-41280910D01*
X139573569Y-41493110D01*
X139522560Y-41745000D01*
X139522560Y-43345000D01*
X139566838Y-43580317D01*
X139705910Y-43796441D01*
X139918110Y-43941431D01*
X140170000Y-43992440D01*
X141770000Y-43992440D01*
X142005317Y-43948162D01*
X142221441Y-43809090D01*
X142366431Y-43596890D01*
X142417440Y-43345000D01*
X142417440Y-41745000D01*
X142373162Y-41509683D01*
X142234090Y-41293559D01*
X142021890Y-41148569D01*
X141866911Y-41117185D01*
X142012811Y-41019698D01*
X142323880Y-40554151D01*
X142433113Y-40005000D01*
X142323880Y-39455849D01*
X142012811Y-38990302D01*
X141630725Y-38735000D01*
X142012811Y-38479698D01*
X142323880Y-38014151D01*
X142433113Y-37465000D01*
X142323880Y-36915849D01*
X142012811Y-36450302D01*
X141630725Y-36195000D01*
X142012811Y-35939698D01*
X142323880Y-35474151D01*
X142433113Y-34925000D01*
X142323880Y-34375849D01*
X142012811Y-33910302D01*
X141630725Y-33655000D01*
X142012811Y-33399698D01*
X142142792Y-33205167D01*
X145114838Y-33205167D01*
X145256883Y-33548943D01*
X145519673Y-33812192D01*
X145863201Y-33954838D01*
X146235167Y-33955162D01*
X146578943Y-33813117D01*
X146842192Y-33550327D01*
X146984838Y-33206799D01*
X146985162Y-32834833D01*
X146843117Y-32491057D01*
X146580327Y-32227808D01*
X146236799Y-32085162D01*
X145864833Y-32084838D01*
X145521057Y-32226883D01*
X145257808Y-32489673D01*
X145115162Y-32833201D01*
X145114838Y-33205167D01*
X142142792Y-33205167D01*
X142323880Y-32934151D01*
X142433113Y-32385000D01*
X142323880Y-31835849D01*
X142012811Y-31370302D01*
X141630725Y-31115000D01*
X142012811Y-30859698D01*
X142323880Y-30394151D01*
X142433113Y-29845000D01*
X142323880Y-29295849D01*
X142012811Y-28830302D01*
X141630725Y-28575000D01*
X142012811Y-28319698D01*
X142323880Y-27854151D01*
X142433113Y-27305000D01*
X142323880Y-26755849D01*
X142012811Y-26290302D01*
X141630725Y-26035000D01*
X142012811Y-25779698D01*
X142323880Y-25314151D01*
X142433113Y-24765000D01*
X142323880Y-24215849D01*
X142012811Y-23750302D01*
X141608297Y-23480014D01*
X141825134Y-23377389D01*
X142201041Y-22962423D01*
X142361904Y-22574039D01*
X142239915Y-22352000D01*
X141097000Y-22352000D01*
X141097000Y-22372000D01*
X140843000Y-22372000D01*
X140843000Y-22352000D01*
X139700085Y-22352000D01*
X139578096Y-22574039D01*
X139738959Y-22962423D01*
X140114866Y-23377389D01*
X140331703Y-23480014D01*
X139927189Y-23750302D01*
X139616120Y-24215849D01*
X139506887Y-24765000D01*
X134813113Y-24765000D01*
X134703880Y-24215849D01*
X134392811Y-23750302D01*
X134010725Y-23495000D01*
X134392811Y-23239698D01*
X134703880Y-22774151D01*
X134813113Y-22225000D01*
X134743685Y-21875961D01*
X139578096Y-21875961D01*
X139700085Y-22098000D01*
X140843000Y-22098000D01*
X140843000Y-20954371D01*
X141097000Y-20954371D01*
X141097000Y-22098000D01*
X142239915Y-22098000D01*
X142361904Y-21875961D01*
X142201041Y-21487577D01*
X141825134Y-21072611D01*
X141319041Y-20833086D01*
X141097000Y-20954371D01*
X140843000Y-20954371D01*
X140620959Y-20833086D01*
X140114866Y-21072611D01*
X139738959Y-21487577D01*
X139578096Y-21875961D01*
X134743685Y-21875961D01*
X134703880Y-21675849D01*
X134392811Y-21210302D01*
X133927264Y-20899233D01*
X133378113Y-20790000D01*
X133321887Y-20790000D01*
X132772736Y-20899233D01*
X132307189Y-21210302D01*
X131996120Y-21675849D01*
X131886887Y-22225000D01*
X124625000Y-22225000D01*
X124625000Y-22196887D01*
X124515767Y-21647736D01*
X124204698Y-21182189D01*
X123739151Y-20871120D01*
X123190000Y-20761887D01*
X122640849Y-20871120D01*
X122175302Y-21182189D01*
X121920000Y-21564275D01*
X121664698Y-21182189D01*
X121199151Y-20871120D01*
X120650000Y-20761887D01*
X120100849Y-20871120D01*
X119635302Y-21182189D01*
X119324233Y-21647736D01*
X119215000Y-22196887D01*
X111925000Y-22196887D01*
X111815767Y-21647736D01*
X111504698Y-21182189D01*
X111039151Y-20871120D01*
X110490000Y-20761887D01*
X109940849Y-20871120D01*
X109475302Y-21182189D01*
X109220000Y-21564275D01*
X108964698Y-21182189D01*
X108499151Y-20871120D01*
X107950000Y-20761887D01*
X107400849Y-20871120D01*
X106935302Y-21182189D01*
X106624233Y-21647736D01*
X106515000Y-22196887D01*
X101765024Y-22196887D01*
X101765248Y-21940813D01*
X101547243Y-21413200D01*
X101143923Y-21009176D01*
X100616691Y-20790250D01*
X100045813Y-20789752D01*
X99518200Y-21007757D01*
X99114176Y-21411077D01*
X98895250Y-21938309D01*
X98894752Y-22509187D01*
X89036584Y-22509187D01*
X89093113Y-22225000D01*
X88983880Y-21675849D01*
X88672811Y-21210302D01*
X88207264Y-20899233D01*
X87658113Y-20790000D01*
X87601887Y-20790000D01*
X87052736Y-20899233D01*
X86587189Y-21210302D01*
X86276120Y-21675849D01*
X86166887Y-22225000D01*
X34977245Y-22225000D01*
X34820327Y-22067808D01*
X34476799Y-21925162D01*
X34104833Y-21924838D01*
X33761057Y-22066883D01*
X33497808Y-22329673D01*
X33355162Y-22673201D01*
X33354838Y-23045167D01*
X9652000Y-23045167D01*
X9652000Y-17907000D01*
X149733000Y-17907000D01*
X149733000Y-50673000D01*
M02*
