M48
;DRILL file {KiCad 4.0.6} date 07/21/17 01:24:19
;FORMAT={-:-/ absolute / inch / decimal}
FMAT,2
INCH,TZ
T1C0.015
T2C0.016
T3C0.025
T4C0.031
T5C0.032
T6C0.039
T7C0.040
T8C0.047
%
G90
G05
M72
T1
X0.6Y-2.5
X0.625Y-2.075
X0.7Y-1.7
X0.925Y-1.875
X1.1Y-2.8
X2.1Y-6.875
X2.1Y-7.1
X2.1Y-8.3
X2.3Y-6.5
X2.3Y-7.025
X2.625Y-8.7
X2.825Y-3.8
X2.9Y-6.6
X2.9Y-8.175
X6.65Y-7.2
X7.15Y-8.175
X7.175Y-6.85
X7.35Y-7.2
T2
X0.625Y-0.825
X0.675Y-2.125
X0.8Y-2.725
X0.95Y-1.575
X1.35Y-0.9
X1.425Y-1.025
X1.725Y-1.8
X1.75Y-2.425
X1.825Y-6.625
X1.825Y-7.35
X1.85Y-8.55
X1.925Y-8.4
X2.275Y-1.65
X2.375Y-7.225
X2.375Y-7.3
X2.4Y-8.525
X2.4Y-8.6
X2.425Y-2.425
X2.5Y-1.3
X2.5Y-6.65
X2.5Y-8.125
X2.625Y-7.425
X2.75Y-7.725
X2.75Y-9.025
X2.95Y-6.
X3.175Y-3.325
X3.175Y-3.4
X3.3Y-5.25
X3.45Y-8.05
X3.5Y-6.75
X3.575Y-6.325
X3.575Y-6.375
X3.575Y-6.425
X3.6Y-2.15
X3.65Y-2.2
X3.95Y-3.625
X4.Y-3.175
X4.Y-3.725
X4.05Y-3.825
X4.1Y-3.175
X4.1Y-3.925
X4.15Y-4.025
X4.2Y-3.175
X4.2Y-4.125
X4.25Y-4.225
X4.3Y-3.175
X4.3Y-4.325
X4.6Y-5.9
X4.65Y-5.85
X4.675Y-2.725
X5.2Y-6.2
X5.25Y-6.2
X5.325Y-2.75
X5.4Y-8.075
X5.425Y-2.775
X5.525Y-2.8
X5.75Y-1.3
X6.35Y-6.7
X6.575Y-8.525
X6.575Y-8.975
X6.65Y-7.7
X7.075Y-8.3
X7.075Y-8.375
X7.1Y-7.
X7.1Y-7.075
X7.35Y-8.475
X7.55Y-7.175
X7.6245Y-6.9995
X7.625Y-7.05
X7.625Y-8.4
X7.8Y-7.05
T3
X0.475Y-1.2
X0.775Y-1.05
X0.925Y-1.475
X1.15Y-4.
X1.2Y-6.25
X1.3Y-1.575
X1.325Y-3.65
X1.825Y-5.225
X1.875Y-4.825
X2.025Y-4.325
X2.375Y-5.1
X2.9Y-5.15
X2.925Y-4.175
X3.125Y-4.175
X3.3Y-3.9
X3.3Y-4.6
X3.725Y-7.3
X3.725Y-8.575
X4.Y-5.575
X4.125Y-5.575
X4.225Y-5.875
X4.25Y-5.775
X4.85Y-8.05
X5.025Y-8.05
X5.475Y-7.025
X5.575Y-8.3
T4
X3.45Y-0.875
X3.5Y-1.375
X3.5Y-1.875
X3.65Y-1.125
X3.7484Y-1.125
X3.8Y-1.575
X3.8Y-1.6734
X3.95Y-0.875
X4.25Y-0.875
X4.25Y-1.175
X4.25Y-1.375
X4.25Y-1.675
X4.35Y-0.875
X4.35Y-1.175
X4.35Y-1.375
X4.35Y-1.675
X4.75Y-0.875
X4.75Y-1.175
X4.75Y-1.375
X4.75Y-1.675
X4.85Y-0.875
X4.85Y-1.175
X4.85Y-1.375
X4.85Y-1.675
X5.25Y-0.875
X5.25Y-0.975
X5.25Y-1.075
X5.25Y-1.175
X5.25Y-1.275
X5.25Y-1.375
X5.25Y-1.475
X5.25Y-1.575
X5.25Y-1.675
X5.55Y-0.875
X5.55Y-0.975
X5.55Y-1.075
X5.55Y-1.175
X5.55Y-1.275
X5.55Y-1.375
X5.55Y-1.475
X5.55Y-1.575
X5.55Y-1.675
T5
X3.55Y-2.55
X3.55Y-2.65
X3.55Y-2.75
X3.55Y-2.85
X3.55Y-2.95
X3.55Y-3.05
X3.55Y-3.15
X3.55Y-3.25
X3.55Y-3.35
X3.55Y-3.45
X3.55Y-3.55
X3.55Y-3.65
X3.55Y-3.75
X3.55Y-3.85
X3.55Y-3.95
X3.55Y-4.05
X3.55Y-4.15
X3.55Y-4.25
X3.55Y-4.35
X3.55Y-4.45
X3.65Y-2.55
X3.65Y-2.65
X3.65Y-2.75
X3.65Y-2.85
X3.65Y-2.95
X3.65Y-3.05
X3.65Y-3.15
X3.65Y-3.25
X3.65Y-3.35
X3.65Y-3.45
X3.65Y-3.55
X3.65Y-3.65
X3.65Y-3.75
X3.65Y-3.85
X3.65Y-3.95
X3.65Y-4.05
X3.65Y-4.15
X3.65Y-4.25
X3.65Y-4.35
X3.65Y-4.45
X3.75Y-2.3
X3.75Y-2.4
X3.775Y-2.725
X3.775Y-2.825
X3.775Y-2.925
X3.775Y-3.025
X3.775Y-3.125
X3.775Y-3.225
X3.775Y-3.325
X3.775Y-3.425
X3.775Y-3.625
X3.775Y-3.725
X3.775Y-3.825
X3.775Y-3.925
X3.775Y-4.025
X3.775Y-4.125
X3.775Y-4.225
X3.775Y-4.325
X3.775Y-4.525
X3.775Y-4.625
X3.775Y-4.725
X3.775Y-4.825
X3.775Y-4.925
X3.775Y-5.025
X3.85Y-2.3
X3.85Y-2.4
X3.95Y-2.3
X3.95Y-2.4
X3.975Y-2.525
X3.975Y-2.625
X4.05Y-2.3
X4.05Y-2.4
X4.075Y-2.525
X4.075Y-2.625
X4.15Y-2.3
X4.15Y-2.4
X4.175Y-2.525
X4.175Y-2.625
X4.25Y-2.3
X4.25Y-2.4
X4.275Y-2.525
X4.275Y-2.625
X4.35Y-2.3
X4.35Y-2.4
X4.375Y-2.525
X4.375Y-2.625
X4.45Y-2.3
X4.45Y-2.4
X4.475Y-2.525
X4.475Y-2.625
X4.55Y-2.3
X4.55Y-2.4
X4.575Y-2.525
X4.575Y-2.625
X4.65Y-2.3
X4.65Y-2.4
X4.675Y-2.525
X4.675Y-2.625
X4.75Y-2.3
X4.75Y-2.4
X4.775Y-2.525
X4.775Y-2.625
X4.85Y-2.3
X4.85Y-2.4
X4.875Y-2.525
X4.875Y-2.625
X4.95Y-2.3
X4.95Y-2.4
X4.975Y-2.525
X4.975Y-2.625
X5.05Y-2.3
X5.05Y-2.4
X5.075Y-2.525
X5.075Y-2.625
X5.15Y-2.3
X5.15Y-2.4
X5.175Y-2.525
X5.175Y-2.625
X5.25Y-2.3
X5.25Y-2.4
X5.275Y-2.525
X5.275Y-2.625
X5.35Y-2.3
X5.35Y-2.4
X5.375Y-2.525
X5.375Y-2.625
X5.45Y-2.3
X5.45Y-2.4
X5.475Y-2.525
X5.475Y-2.625
X5.55Y-2.3
X5.55Y-2.4
X5.575Y-2.525
X5.575Y-2.625
X5.65Y-2.3
X5.65Y-2.4
X5.675Y-2.525
X5.675Y-2.625
X5.675Y-2.925
X5.675Y-3.025
X5.675Y-3.125
X5.675Y-3.225
X5.675Y-3.325
X5.675Y-3.425
X5.675Y-3.525
X5.675Y-3.625
X5.675Y-3.825
X5.675Y-3.925
X5.675Y-4.025
X5.675Y-4.125
X5.675Y-4.225
X5.675Y-4.325
X5.675Y-4.425
X5.675Y-4.525
X5.675Y-4.685
X5.675Y-4.785
X5.675Y-4.885
X5.675Y-4.985
X5.675Y-5.085
X5.675Y-5.185
X5.675Y-5.285
X5.675Y-5.385
X5.8Y-2.55
X5.8Y-2.65
X5.8Y-2.75
X5.8Y-2.85
X5.8Y-2.95
X5.8Y-3.05
X5.8Y-3.15
X5.8Y-3.25
X5.8Y-3.35
X5.8Y-3.45
X5.8Y-3.55
X5.8Y-3.65
X5.8Y-3.75
X5.8Y-3.85
X5.8Y-3.95
X5.8Y-4.05
X5.8Y-4.15
X5.8Y-4.25
X5.8Y-4.35
X5.8Y-4.45
X5.9Y-2.55
X5.9Y-2.65
X5.9Y-2.75
X5.9Y-2.85
X5.9Y-2.95
X5.9Y-3.05
X5.9Y-3.15
X5.9Y-3.25
X5.9Y-3.35
X5.9Y-3.45
X5.9Y-3.55
X5.9Y-3.65
X5.9Y-3.75
X5.9Y-3.85
X5.9Y-3.95
X5.9Y-4.05
X5.9Y-4.15
X5.9Y-4.25
X5.9Y-4.35
X5.9Y-4.45
X6.65Y-2.55
X6.65Y-2.65
X6.65Y-2.75
X6.65Y-2.85
X6.65Y-2.95
X6.65Y-3.05
X6.65Y-3.15
X6.65Y-3.25
X6.65Y-3.35
X6.65Y-3.45
X6.65Y-3.55
X6.65Y-3.65
X6.65Y-3.75
X6.65Y-3.85
X6.65Y-3.95
X6.65Y-4.05
X6.65Y-4.15
X6.65Y-4.25
X6.65Y-4.35
X6.65Y-4.45
X6.75Y-2.55
X6.75Y-2.65
X6.75Y-2.75
X6.75Y-2.85
X6.75Y-2.95
X6.75Y-3.05
X6.75Y-3.15
X6.75Y-3.25
X6.75Y-3.35
X6.75Y-3.45
X6.75Y-3.55
X6.75Y-3.65
X6.75Y-3.75
X6.75Y-3.85
X6.75Y-3.95
X6.75Y-4.05
X6.75Y-4.15
X6.75Y-4.25
X6.75Y-4.35
X6.75Y-4.45
T6
X1.Y-7.75
X1.Y-7.85
X1.Y-7.95
X1.4375Y-3.1625
X1.5Y-5.825
X1.5Y-5.925
X1.5Y-6.025
X1.5375Y-3.1625
X1.6375Y-3.1625
X1.7375Y-3.1625
X1.8375Y-3.1625
X1.9375Y-3.1625
X2.0375Y-3.1625
X2.1375Y-3.1625
X2.2375Y-3.1625
X2.3375Y-3.1625
X2.7Y-4.75
X2.7Y-4.85
X2.7Y-4.95
X2.85Y-1.025
X2.85Y-1.875
X2.85Y-2.875
X2.95Y-1.025
X2.95Y-1.875
X2.95Y-2.875
X3.05Y-1.025
X3.05Y-1.875
X3.05Y-2.875
X3.25Y-7.015
X3.25Y-7.1489
X3.25Y-7.2827
X3.25Y-8.315
X3.25Y-8.4489
X3.25Y-8.5827
X3.3957Y-7.0819
X3.3957Y-7.2158
X3.3957Y-8.3819
X3.3957Y-8.5158
X6.0543Y-7.0842
X6.0543Y-7.2181
X6.0543Y-8.3842
X6.0543Y-8.5181
X6.2Y-7.0173
X6.2Y-7.1511
X6.2Y-7.285
X6.2Y-8.3173
X6.2Y-8.4511
X6.2Y-8.585
X6.25Y-1.5
X6.25Y-1.6
X6.25Y-1.7
X6.25Y-1.8
X6.25Y-1.9
X6.25Y-2.
X6.25Y-2.1
X6.25Y-2.2
X6.25Y-2.3
X6.25Y-2.4
X6.25Y-2.5
X6.25Y-2.6
X6.25Y-2.7
X6.25Y-2.8
X6.25Y-2.9
X6.25Y-3.
X6.25Y-3.1
X6.25Y-3.2
X6.25Y-3.3
X6.25Y-3.4
X6.35Y-1.5
X6.35Y-1.6
X6.35Y-1.7
X6.35Y-1.8
X6.35Y-1.9
X6.35Y-2.
X6.35Y-2.1
X6.35Y-2.2
X6.35Y-2.3
X6.35Y-2.4
X6.35Y-2.5
X6.35Y-2.6
X6.35Y-2.7
X6.35Y-2.8
X6.35Y-2.9
X6.35Y-3.
X6.35Y-3.1
X6.35Y-3.2
X6.35Y-3.3
X6.35Y-3.4
X7.1Y-1.5
X7.1Y-1.6
X7.1Y-1.7
X7.1Y-1.8
X7.1Y-1.9
X7.1Y-2.
X7.1Y-2.1
X7.1Y-2.2
X7.1Y-2.3
X7.1Y-2.4
X7.1Y-2.5
X7.1Y-2.6
X7.1Y-2.7
X7.1Y-2.8
X7.1Y-2.9
X7.1Y-3.
X7.1Y-3.1
X7.1Y-3.2
X7.1Y-3.3
X7.1Y-3.4
X7.2Y-1.5
X7.2Y-1.6
X7.2Y-1.7
X7.2Y-1.8
X7.2Y-1.9
X7.2Y-2.
X7.2Y-2.1
X7.2Y-2.2
X7.2Y-2.3
X7.2Y-2.4
X7.2Y-2.5
X7.2Y-2.6
X7.2Y-2.7
X7.2Y-2.8
X7.2Y-2.9
X7.2Y-3.
X7.2Y-3.1
X7.2Y-3.2
X7.2Y-3.3
X7.2Y-3.4
T7
X0.7469Y-4.6497
X0.7469Y-4.7875
X0.7469Y-4.9253
X0.9281Y-4.6497
X0.9281Y-4.7875
X0.9281Y-4.9253
T8
X4.475Y-7.65
X4.975Y-7.65
T0
M30
